%TF.GenerationSoftware,KiCad,Pcbnew,8.0.8*%
%TF.CreationDate,2025-02-16T18:41:10+09:00*%
%TF.ProjectId,PCB,5043422e-6b69-4636-9164-5f7063625858,rev?*%
%TF.SameCoordinates,Original*%
%TF.FileFunction,Legend,Bot*%
%TF.FilePolarity,Positive*%
%FSLAX46Y46*%
G04 Gerber Fmt 4.6, Leading zero omitted, Abs format (unit mm)*
G04 Created by KiCad (PCBNEW 8.0.8) date 2025-02-16 18:41:10*
%MOMM*%
%LPD*%
G01*
G04 APERTURE LIST*
%ADD10C,0.150000*%
%ADD11C,0.100000*%
%ADD12C,0.120000*%
%ADD13C,0.152400*%
%ADD14C,0.508000*%
G04 APERTURE END LIST*
D10*
X97164286Y-99886128D02*
X97164286Y-98386128D01*
X97164286Y-98386128D02*
X96592857Y-98386128D01*
X96592857Y-98386128D02*
X96450000Y-98457557D01*
X96450000Y-98457557D02*
X96378571Y-98528985D01*
X96378571Y-98528985D02*
X96307143Y-98671842D01*
X96307143Y-98671842D02*
X96307143Y-98886128D01*
X96307143Y-98886128D02*
X96378571Y-99028985D01*
X96378571Y-99028985D02*
X96450000Y-99100414D01*
X96450000Y-99100414D02*
X96592857Y-99171842D01*
X96592857Y-99171842D02*
X97164286Y-99171842D01*
X95378571Y-98386128D02*
X95092857Y-98386128D01*
X95092857Y-98386128D02*
X94950000Y-98457557D01*
X94950000Y-98457557D02*
X94807143Y-98600414D01*
X94807143Y-98600414D02*
X94735714Y-98886128D01*
X94735714Y-98886128D02*
X94735714Y-99386128D01*
X94735714Y-99386128D02*
X94807143Y-99671842D01*
X94807143Y-99671842D02*
X94950000Y-99814700D01*
X94950000Y-99814700D02*
X95092857Y-99886128D01*
X95092857Y-99886128D02*
X95378571Y-99886128D01*
X95378571Y-99886128D02*
X95521429Y-99814700D01*
X95521429Y-99814700D02*
X95664286Y-99671842D01*
X95664286Y-99671842D02*
X95735714Y-99386128D01*
X95735714Y-99386128D02*
X95735714Y-98886128D01*
X95735714Y-98886128D02*
X95664286Y-98600414D01*
X95664286Y-98600414D02*
X95521429Y-98457557D01*
X95521429Y-98457557D02*
X95378571Y-98386128D01*
X94235714Y-98386128D02*
X93878571Y-99886128D01*
X93878571Y-99886128D02*
X93592857Y-98814700D01*
X93592857Y-98814700D02*
X93307142Y-99886128D01*
X93307142Y-99886128D02*
X92950000Y-98386128D01*
X92378571Y-99100414D02*
X91878571Y-99100414D01*
X91664285Y-99886128D02*
X92378571Y-99886128D01*
X92378571Y-99886128D02*
X92378571Y-98386128D01*
X92378571Y-98386128D02*
X91664285Y-98386128D01*
X90164285Y-99886128D02*
X90664285Y-99171842D01*
X91021428Y-99886128D02*
X91021428Y-98386128D01*
X91021428Y-98386128D02*
X90449999Y-98386128D01*
X90449999Y-98386128D02*
X90307142Y-98457557D01*
X90307142Y-98457557D02*
X90235713Y-98528985D01*
X90235713Y-98528985D02*
X90164285Y-98671842D01*
X90164285Y-98671842D02*
X90164285Y-98886128D01*
X90164285Y-98886128D02*
X90235713Y-99028985D01*
X90235713Y-99028985D02*
X90307142Y-99100414D01*
X90307142Y-99100414D02*
X90449999Y-99171842D01*
X90449999Y-99171842D02*
X91021428Y-99171842D01*
X110119047Y-103654819D02*
X109928571Y-103654819D01*
X109928571Y-103654819D02*
X109833333Y-103702438D01*
X109833333Y-103702438D02*
X109738095Y-103797676D01*
X109738095Y-103797676D02*
X109690476Y-103988152D01*
X109690476Y-103988152D02*
X109690476Y-104321485D01*
X109690476Y-104321485D02*
X109738095Y-104511961D01*
X109738095Y-104511961D02*
X109833333Y-104607200D01*
X109833333Y-104607200D02*
X109928571Y-104654819D01*
X109928571Y-104654819D02*
X110119047Y-104654819D01*
X110119047Y-104654819D02*
X110214285Y-104607200D01*
X110214285Y-104607200D02*
X110309523Y-104511961D01*
X110309523Y-104511961D02*
X110357142Y-104321485D01*
X110357142Y-104321485D02*
X110357142Y-103988152D01*
X110357142Y-103988152D02*
X110309523Y-103797676D01*
X110309523Y-103797676D02*
X110214285Y-103702438D01*
X110214285Y-103702438D02*
X110119047Y-103654819D01*
X109261904Y-104654819D02*
X109261904Y-103654819D01*
X109261904Y-103654819D02*
X108690476Y-104654819D01*
X108690476Y-104654819D02*
X108690476Y-103654819D01*
D11*
X178778571Y-50688728D02*
X179278571Y-49974442D01*
X179635714Y-50688728D02*
X179635714Y-49188728D01*
X179635714Y-49188728D02*
X179064285Y-49188728D01*
X179064285Y-49188728D02*
X178921428Y-49260157D01*
X178921428Y-49260157D02*
X178849999Y-49331585D01*
X178849999Y-49331585D02*
X178778571Y-49474442D01*
X178778571Y-49474442D02*
X178778571Y-49688728D01*
X178778571Y-49688728D02*
X178849999Y-49831585D01*
X178849999Y-49831585D02*
X178921428Y-49903014D01*
X178921428Y-49903014D02*
X179064285Y-49974442D01*
X179064285Y-49974442D02*
X179635714Y-49974442D01*
X178135714Y-49903014D02*
X177635714Y-49903014D01*
X177421428Y-50688728D02*
X178135714Y-50688728D01*
X178135714Y-50688728D02*
X178135714Y-49188728D01*
X178135714Y-49188728D02*
X177421428Y-49188728D01*
X176849999Y-50617300D02*
X176635714Y-50688728D01*
X176635714Y-50688728D02*
X176278571Y-50688728D01*
X176278571Y-50688728D02*
X176135714Y-50617300D01*
X176135714Y-50617300D02*
X176064285Y-50545871D01*
X176064285Y-50545871D02*
X175992856Y-50403014D01*
X175992856Y-50403014D02*
X175992856Y-50260157D01*
X175992856Y-50260157D02*
X176064285Y-50117300D01*
X176064285Y-50117300D02*
X176135714Y-50045871D01*
X176135714Y-50045871D02*
X176278571Y-49974442D01*
X176278571Y-49974442D02*
X176564285Y-49903014D01*
X176564285Y-49903014D02*
X176707142Y-49831585D01*
X176707142Y-49831585D02*
X176778571Y-49760157D01*
X176778571Y-49760157D02*
X176849999Y-49617300D01*
X176849999Y-49617300D02*
X176849999Y-49474442D01*
X176849999Y-49474442D02*
X176778571Y-49331585D01*
X176778571Y-49331585D02*
X176707142Y-49260157D01*
X176707142Y-49260157D02*
X176564285Y-49188728D01*
X176564285Y-49188728D02*
X176207142Y-49188728D01*
X176207142Y-49188728D02*
X175992856Y-49260157D01*
X175350000Y-49903014D02*
X174850000Y-49903014D01*
X174635714Y-50688728D02*
X175350000Y-50688728D01*
X175350000Y-50688728D02*
X175350000Y-49188728D01*
X175350000Y-49188728D02*
X174635714Y-49188728D01*
X174207142Y-49188728D02*
X173350000Y-49188728D01*
X173778571Y-50688728D02*
X173778571Y-49188728D01*
D10*
X98278571Y-73086128D02*
X98992857Y-73086128D01*
X98992857Y-73086128D02*
X98992857Y-71586128D01*
X97778571Y-72300414D02*
X97278571Y-72300414D01*
X97064285Y-73086128D02*
X97778571Y-73086128D01*
X97778571Y-73086128D02*
X97778571Y-71586128D01*
X97778571Y-71586128D02*
X97064285Y-71586128D01*
X96421428Y-73086128D02*
X96421428Y-71586128D01*
X96421428Y-71586128D02*
X96064285Y-71586128D01*
X96064285Y-71586128D02*
X95849999Y-71657557D01*
X95849999Y-71657557D02*
X95707142Y-71800414D01*
X95707142Y-71800414D02*
X95635713Y-71943271D01*
X95635713Y-71943271D02*
X95564285Y-72228985D01*
X95564285Y-72228985D02*
X95564285Y-72443271D01*
X95564285Y-72443271D02*
X95635713Y-72728985D01*
X95635713Y-72728985D02*
X95707142Y-72871842D01*
X95707142Y-72871842D02*
X95849999Y-73014700D01*
X95849999Y-73014700D02*
X96064285Y-73086128D01*
X96064285Y-73086128D02*
X96421428Y-73086128D01*
X94135713Y-73086128D02*
X94992856Y-73086128D01*
X94564285Y-73086128D02*
X94564285Y-71586128D01*
X94564285Y-71586128D02*
X94707142Y-71800414D01*
X94707142Y-71800414D02*
X94849999Y-71943271D01*
X94849999Y-71943271D02*
X94992856Y-72014700D01*
X108457143Y-72400414D02*
X107957143Y-72400414D01*
X107742857Y-73186128D02*
X108457143Y-73186128D01*
X108457143Y-73186128D02*
X108457143Y-71686128D01*
X108457143Y-71686128D02*
X107742857Y-71686128D01*
X106242857Y-73186128D02*
X106742857Y-72471842D01*
X107100000Y-73186128D02*
X107100000Y-71686128D01*
X107100000Y-71686128D02*
X106528571Y-71686128D01*
X106528571Y-71686128D02*
X106385714Y-71757557D01*
X106385714Y-71757557D02*
X106314285Y-71828985D01*
X106314285Y-71828985D02*
X106242857Y-71971842D01*
X106242857Y-71971842D02*
X106242857Y-72186128D01*
X106242857Y-72186128D02*
X106314285Y-72328985D01*
X106314285Y-72328985D02*
X106385714Y-72400414D01*
X106385714Y-72400414D02*
X106528571Y-72471842D01*
X106528571Y-72471842D02*
X107100000Y-72471842D01*
X104742857Y-73186128D02*
X105242857Y-72471842D01*
X105600000Y-73186128D02*
X105600000Y-71686128D01*
X105600000Y-71686128D02*
X105028571Y-71686128D01*
X105028571Y-71686128D02*
X104885714Y-71757557D01*
X104885714Y-71757557D02*
X104814285Y-71828985D01*
X104814285Y-71828985D02*
X104742857Y-71971842D01*
X104742857Y-71971842D02*
X104742857Y-72186128D01*
X104742857Y-72186128D02*
X104814285Y-72328985D01*
X104814285Y-72328985D02*
X104885714Y-72400414D01*
X104885714Y-72400414D02*
X105028571Y-72471842D01*
X105028571Y-72471842D02*
X105600000Y-72471842D01*
X103814285Y-71686128D02*
X103528571Y-71686128D01*
X103528571Y-71686128D02*
X103385714Y-71757557D01*
X103385714Y-71757557D02*
X103242857Y-71900414D01*
X103242857Y-71900414D02*
X103171428Y-72186128D01*
X103171428Y-72186128D02*
X103171428Y-72686128D01*
X103171428Y-72686128D02*
X103242857Y-72971842D01*
X103242857Y-72971842D02*
X103385714Y-73114700D01*
X103385714Y-73114700D02*
X103528571Y-73186128D01*
X103528571Y-73186128D02*
X103814285Y-73186128D01*
X103814285Y-73186128D02*
X103957143Y-73114700D01*
X103957143Y-73114700D02*
X104100000Y-72971842D01*
X104100000Y-72971842D02*
X104171428Y-72686128D01*
X104171428Y-72686128D02*
X104171428Y-72186128D01*
X104171428Y-72186128D02*
X104100000Y-71900414D01*
X104100000Y-71900414D02*
X103957143Y-71757557D01*
X103957143Y-71757557D02*
X103814285Y-71686128D01*
X101671428Y-73186128D02*
X102171428Y-72471842D01*
X102528571Y-73186128D02*
X102528571Y-71686128D01*
X102528571Y-71686128D02*
X101957142Y-71686128D01*
X101957142Y-71686128D02*
X101814285Y-71757557D01*
X101814285Y-71757557D02*
X101742856Y-71828985D01*
X101742856Y-71828985D02*
X101671428Y-71971842D01*
X101671428Y-71971842D02*
X101671428Y-72186128D01*
X101671428Y-72186128D02*
X101742856Y-72328985D01*
X101742856Y-72328985D02*
X101814285Y-72400414D01*
X101814285Y-72400414D02*
X101957142Y-72471842D01*
X101957142Y-72471842D02*
X102528571Y-72471842D01*
X105152380Y-103654819D02*
X104961904Y-103654819D01*
X104961904Y-103654819D02*
X104866666Y-103702438D01*
X104866666Y-103702438D02*
X104771428Y-103797676D01*
X104771428Y-103797676D02*
X104723809Y-103988152D01*
X104723809Y-103988152D02*
X104723809Y-104321485D01*
X104723809Y-104321485D02*
X104771428Y-104511961D01*
X104771428Y-104511961D02*
X104866666Y-104607200D01*
X104866666Y-104607200D02*
X104961904Y-104654819D01*
X104961904Y-104654819D02*
X105152380Y-104654819D01*
X105152380Y-104654819D02*
X105247618Y-104607200D01*
X105247618Y-104607200D02*
X105342856Y-104511961D01*
X105342856Y-104511961D02*
X105390475Y-104321485D01*
X105390475Y-104321485D02*
X105390475Y-103988152D01*
X105390475Y-103988152D02*
X105342856Y-103797676D01*
X105342856Y-103797676D02*
X105247618Y-103702438D01*
X105247618Y-103702438D02*
X105152380Y-103654819D01*
X103961904Y-104131009D02*
X104295237Y-104131009D01*
X104295237Y-104654819D02*
X104295237Y-103654819D01*
X104295237Y-103654819D02*
X103819047Y-103654819D01*
X103104761Y-104131009D02*
X103438094Y-104131009D01*
X103438094Y-104654819D02*
X103438094Y-103654819D01*
X103438094Y-103654819D02*
X102961904Y-103654819D01*
D11*
X189414285Y-57417300D02*
X189200000Y-57488728D01*
X189200000Y-57488728D02*
X188842857Y-57488728D01*
X188842857Y-57488728D02*
X188700000Y-57417300D01*
X188700000Y-57417300D02*
X188628571Y-57345871D01*
X188628571Y-57345871D02*
X188557142Y-57203014D01*
X188557142Y-57203014D02*
X188557142Y-57060157D01*
X188557142Y-57060157D02*
X188628571Y-56917300D01*
X188628571Y-56917300D02*
X188700000Y-56845871D01*
X188700000Y-56845871D02*
X188842857Y-56774442D01*
X188842857Y-56774442D02*
X189128571Y-56703014D01*
X189128571Y-56703014D02*
X189271428Y-56631585D01*
X189271428Y-56631585D02*
X189342857Y-56560157D01*
X189342857Y-56560157D02*
X189414285Y-56417300D01*
X189414285Y-56417300D02*
X189414285Y-56274442D01*
X189414285Y-56274442D02*
X189342857Y-56131585D01*
X189342857Y-56131585D02*
X189271428Y-56060157D01*
X189271428Y-56060157D02*
X189128571Y-55988728D01*
X189128571Y-55988728D02*
X188771428Y-55988728D01*
X188771428Y-55988728D02*
X188557142Y-56060157D01*
X187914286Y-56703014D02*
X187414286Y-56703014D01*
X187200000Y-57488728D02*
X187914286Y-57488728D01*
X187914286Y-57488728D02*
X187914286Y-55988728D01*
X187914286Y-55988728D02*
X187200000Y-55988728D01*
X185842857Y-57488728D02*
X186557143Y-57488728D01*
X186557143Y-57488728D02*
X186557143Y-55988728D01*
X185342857Y-56703014D02*
X184842857Y-56703014D01*
X184628571Y-57488728D02*
X185342857Y-57488728D01*
X185342857Y-57488728D02*
X185342857Y-55988728D01*
X185342857Y-55988728D02*
X184628571Y-55988728D01*
X183128571Y-57345871D02*
X183199999Y-57417300D01*
X183199999Y-57417300D02*
X183414285Y-57488728D01*
X183414285Y-57488728D02*
X183557142Y-57488728D01*
X183557142Y-57488728D02*
X183771428Y-57417300D01*
X183771428Y-57417300D02*
X183914285Y-57274442D01*
X183914285Y-57274442D02*
X183985714Y-57131585D01*
X183985714Y-57131585D02*
X184057142Y-56845871D01*
X184057142Y-56845871D02*
X184057142Y-56631585D01*
X184057142Y-56631585D02*
X183985714Y-56345871D01*
X183985714Y-56345871D02*
X183914285Y-56203014D01*
X183914285Y-56203014D02*
X183771428Y-56060157D01*
X183771428Y-56060157D02*
X183557142Y-55988728D01*
X183557142Y-55988728D02*
X183414285Y-55988728D01*
X183414285Y-55988728D02*
X183199999Y-56060157D01*
X183199999Y-56060157D02*
X183128571Y-56131585D01*
X182699999Y-55988728D02*
X181842857Y-55988728D01*
X182271428Y-57488728D02*
X182271428Y-55988728D01*
X188035714Y-49903014D02*
X188535714Y-49903014D01*
X188535714Y-50688728D02*
X188535714Y-49188728D01*
X188535714Y-49188728D02*
X187821428Y-49188728D01*
X186535714Y-50688728D02*
X187250000Y-50688728D01*
X187250000Y-50688728D02*
X187250000Y-49188728D01*
X186107142Y-50260157D02*
X185392857Y-50260157D01*
X186249999Y-50688728D02*
X185749999Y-49188728D01*
X185749999Y-49188728D02*
X185249999Y-50688728D01*
X184821428Y-50617300D02*
X184607143Y-50688728D01*
X184607143Y-50688728D02*
X184250000Y-50688728D01*
X184250000Y-50688728D02*
X184107143Y-50617300D01*
X184107143Y-50617300D02*
X184035714Y-50545871D01*
X184035714Y-50545871D02*
X183964285Y-50403014D01*
X183964285Y-50403014D02*
X183964285Y-50260157D01*
X183964285Y-50260157D02*
X184035714Y-50117300D01*
X184035714Y-50117300D02*
X184107143Y-50045871D01*
X184107143Y-50045871D02*
X184250000Y-49974442D01*
X184250000Y-49974442D02*
X184535714Y-49903014D01*
X184535714Y-49903014D02*
X184678571Y-49831585D01*
X184678571Y-49831585D02*
X184750000Y-49760157D01*
X184750000Y-49760157D02*
X184821428Y-49617300D01*
X184821428Y-49617300D02*
X184821428Y-49474442D01*
X184821428Y-49474442D02*
X184750000Y-49331585D01*
X184750000Y-49331585D02*
X184678571Y-49260157D01*
X184678571Y-49260157D02*
X184535714Y-49188728D01*
X184535714Y-49188728D02*
X184178571Y-49188728D01*
X184178571Y-49188728D02*
X183964285Y-49260157D01*
X183321429Y-50688728D02*
X183321429Y-49188728D01*
X183321429Y-49903014D02*
X182464286Y-49903014D01*
X182464286Y-50688728D02*
X182464286Y-49188728D01*
D10*
X180357142Y-104231009D02*
X180214285Y-104278628D01*
X180214285Y-104278628D02*
X180166666Y-104326247D01*
X180166666Y-104326247D02*
X180119047Y-104421485D01*
X180119047Y-104421485D02*
X180119047Y-104564342D01*
X180119047Y-104564342D02*
X180166666Y-104659580D01*
X180166666Y-104659580D02*
X180214285Y-104707200D01*
X180214285Y-104707200D02*
X180309523Y-104754819D01*
X180309523Y-104754819D02*
X180690475Y-104754819D01*
X180690475Y-104754819D02*
X180690475Y-103754819D01*
X180690475Y-103754819D02*
X180357142Y-103754819D01*
X180357142Y-103754819D02*
X180261904Y-103802438D01*
X180261904Y-103802438D02*
X180214285Y-103850057D01*
X180214285Y-103850057D02*
X180166666Y-103945295D01*
X180166666Y-103945295D02*
X180166666Y-104040533D01*
X180166666Y-104040533D02*
X180214285Y-104135771D01*
X180214285Y-104135771D02*
X180261904Y-104183390D01*
X180261904Y-104183390D02*
X180357142Y-104231009D01*
X180357142Y-104231009D02*
X180690475Y-104231009D01*
X179690475Y-103754819D02*
X179690475Y-104564342D01*
X179690475Y-104564342D02*
X179642856Y-104659580D01*
X179642856Y-104659580D02*
X179595237Y-104707200D01*
X179595237Y-104707200D02*
X179499999Y-104754819D01*
X179499999Y-104754819D02*
X179309523Y-104754819D01*
X179309523Y-104754819D02*
X179214285Y-104707200D01*
X179214285Y-104707200D02*
X179166666Y-104659580D01*
X179166666Y-104659580D02*
X179119047Y-104564342D01*
X179119047Y-104564342D02*
X179119047Y-103754819D01*
X178690475Y-104707200D02*
X178547618Y-104754819D01*
X178547618Y-104754819D02*
X178309523Y-104754819D01*
X178309523Y-104754819D02*
X178214285Y-104707200D01*
X178214285Y-104707200D02*
X178166666Y-104659580D01*
X178166666Y-104659580D02*
X178119047Y-104564342D01*
X178119047Y-104564342D02*
X178119047Y-104469104D01*
X178119047Y-104469104D02*
X178166666Y-104373866D01*
X178166666Y-104373866D02*
X178214285Y-104326247D01*
X178214285Y-104326247D02*
X178309523Y-104278628D01*
X178309523Y-104278628D02*
X178499999Y-104231009D01*
X178499999Y-104231009D02*
X178595237Y-104183390D01*
X178595237Y-104183390D02*
X178642856Y-104135771D01*
X178642856Y-104135771D02*
X178690475Y-104040533D01*
X178690475Y-104040533D02*
X178690475Y-103945295D01*
X178690475Y-103945295D02*
X178642856Y-103850057D01*
X178642856Y-103850057D02*
X178595237Y-103802438D01*
X178595237Y-103802438D02*
X178499999Y-103754819D01*
X178499999Y-103754819D02*
X178261904Y-103754819D01*
X178261904Y-103754819D02*
X178119047Y-103802438D01*
X177499999Y-104278628D02*
X177499999Y-104754819D01*
X177833332Y-103754819D02*
X177499999Y-104278628D01*
X177499999Y-104278628D02*
X177166666Y-103754819D01*
X127238094Y-63854819D02*
X126619047Y-63854819D01*
X126619047Y-63854819D02*
X126952380Y-64235771D01*
X126952380Y-64235771D02*
X126809523Y-64235771D01*
X126809523Y-64235771D02*
X126714285Y-64283390D01*
X126714285Y-64283390D02*
X126666666Y-64331009D01*
X126666666Y-64331009D02*
X126619047Y-64426247D01*
X126619047Y-64426247D02*
X126619047Y-64664342D01*
X126619047Y-64664342D02*
X126666666Y-64759580D01*
X126666666Y-64759580D02*
X126714285Y-64807200D01*
X126714285Y-64807200D02*
X126809523Y-64854819D01*
X126809523Y-64854819D02*
X127095237Y-64854819D01*
X127095237Y-64854819D02*
X127190475Y-64807200D01*
X127190475Y-64807200D02*
X127238094Y-64759580D01*
X126333332Y-63854819D02*
X125999999Y-64854819D01*
X125999999Y-64854819D02*
X125666666Y-63854819D01*
X125428570Y-63854819D02*
X124809523Y-63854819D01*
X124809523Y-63854819D02*
X125142856Y-64235771D01*
X125142856Y-64235771D02*
X124999999Y-64235771D01*
X124999999Y-64235771D02*
X124904761Y-64283390D01*
X124904761Y-64283390D02*
X124857142Y-64331009D01*
X124857142Y-64331009D02*
X124809523Y-64426247D01*
X124809523Y-64426247D02*
X124809523Y-64664342D01*
X124809523Y-64664342D02*
X124857142Y-64759580D01*
X124857142Y-64759580D02*
X124904761Y-64807200D01*
X124904761Y-64807200D02*
X124999999Y-64854819D01*
X124999999Y-64854819D02*
X125285713Y-64854819D01*
X125285713Y-64854819D02*
X125380951Y-64807200D01*
X125380951Y-64807200D02*
X125428570Y-64759580D01*
X184547619Y-104854819D02*
X184880952Y-104378628D01*
X185119047Y-104854819D02*
X185119047Y-103854819D01*
X185119047Y-103854819D02*
X184738095Y-103854819D01*
X184738095Y-103854819D02*
X184642857Y-103902438D01*
X184642857Y-103902438D02*
X184595238Y-103950057D01*
X184595238Y-103950057D02*
X184547619Y-104045295D01*
X184547619Y-104045295D02*
X184547619Y-104188152D01*
X184547619Y-104188152D02*
X184595238Y-104283390D01*
X184595238Y-104283390D02*
X184642857Y-104331009D01*
X184642857Y-104331009D02*
X184738095Y-104378628D01*
X184738095Y-104378628D02*
X185119047Y-104378628D01*
X184166666Y-104807200D02*
X184023809Y-104854819D01*
X184023809Y-104854819D02*
X183785714Y-104854819D01*
X183785714Y-104854819D02*
X183690476Y-104807200D01*
X183690476Y-104807200D02*
X183642857Y-104759580D01*
X183642857Y-104759580D02*
X183595238Y-104664342D01*
X183595238Y-104664342D02*
X183595238Y-104569104D01*
X183595238Y-104569104D02*
X183642857Y-104473866D01*
X183642857Y-104473866D02*
X183690476Y-104426247D01*
X183690476Y-104426247D02*
X183785714Y-104378628D01*
X183785714Y-104378628D02*
X183976190Y-104331009D01*
X183976190Y-104331009D02*
X184071428Y-104283390D01*
X184071428Y-104283390D02*
X184119047Y-104235771D01*
X184119047Y-104235771D02*
X184166666Y-104140533D01*
X184166666Y-104140533D02*
X184166666Y-104045295D01*
X184166666Y-104045295D02*
X184119047Y-103950057D01*
X184119047Y-103950057D02*
X184071428Y-103902438D01*
X184071428Y-103902438D02*
X183976190Y-103854819D01*
X183976190Y-103854819D02*
X183738095Y-103854819D01*
X183738095Y-103854819D02*
X183595238Y-103902438D01*
X183309523Y-103854819D02*
X182738095Y-103854819D01*
X183023809Y-104854819D02*
X183023809Y-103854819D01*
X131561904Y-55902438D02*
X131657142Y-55854819D01*
X131657142Y-55854819D02*
X131799999Y-55854819D01*
X131799999Y-55854819D02*
X131942856Y-55902438D01*
X131942856Y-55902438D02*
X132038094Y-55997676D01*
X132038094Y-55997676D02*
X132085713Y-56092914D01*
X132085713Y-56092914D02*
X132133332Y-56283390D01*
X132133332Y-56283390D02*
X132133332Y-56426247D01*
X132133332Y-56426247D02*
X132085713Y-56616723D01*
X132085713Y-56616723D02*
X132038094Y-56711961D01*
X132038094Y-56711961D02*
X131942856Y-56807200D01*
X131942856Y-56807200D02*
X131799999Y-56854819D01*
X131799999Y-56854819D02*
X131704761Y-56854819D01*
X131704761Y-56854819D02*
X131561904Y-56807200D01*
X131561904Y-56807200D02*
X131514285Y-56759580D01*
X131514285Y-56759580D02*
X131514285Y-56426247D01*
X131514285Y-56426247D02*
X131704761Y-56426247D01*
X131085713Y-56854819D02*
X131085713Y-55854819D01*
X131085713Y-55854819D02*
X130514285Y-56854819D01*
X130514285Y-56854819D02*
X130514285Y-55854819D01*
X130038094Y-56854819D02*
X130038094Y-55854819D01*
X130038094Y-55854819D02*
X129799999Y-55854819D01*
X129799999Y-55854819D02*
X129657142Y-55902438D01*
X129657142Y-55902438D02*
X129561904Y-55997676D01*
X129561904Y-55997676D02*
X129514285Y-56092914D01*
X129514285Y-56092914D02*
X129466666Y-56283390D01*
X129466666Y-56283390D02*
X129466666Y-56426247D01*
X129466666Y-56426247D02*
X129514285Y-56616723D01*
X129514285Y-56616723D02*
X129561904Y-56711961D01*
X129561904Y-56711961D02*
X129657142Y-56807200D01*
X129657142Y-56807200D02*
X129799999Y-56854819D01*
X129799999Y-56854819D02*
X130038094Y-56854819D01*
X158030357Y-92779580D02*
X158077976Y-92827200D01*
X158077976Y-92827200D02*
X158220833Y-92874819D01*
X158220833Y-92874819D02*
X158316071Y-92874819D01*
X158316071Y-92874819D02*
X158458928Y-92827200D01*
X158458928Y-92827200D02*
X158554166Y-92731961D01*
X158554166Y-92731961D02*
X158601785Y-92636723D01*
X158601785Y-92636723D02*
X158649404Y-92446247D01*
X158649404Y-92446247D02*
X158649404Y-92303390D01*
X158649404Y-92303390D02*
X158601785Y-92112914D01*
X158601785Y-92112914D02*
X158554166Y-92017676D01*
X158554166Y-92017676D02*
X158458928Y-91922438D01*
X158458928Y-91922438D02*
X158316071Y-91874819D01*
X158316071Y-91874819D02*
X158220833Y-91874819D01*
X158220833Y-91874819D02*
X158077976Y-91922438D01*
X158077976Y-91922438D02*
X158030357Y-91970057D01*
X157077976Y-92874819D02*
X157649404Y-92874819D01*
X157363690Y-92874819D02*
X157363690Y-91874819D01*
X157363690Y-91874819D02*
X157458928Y-92017676D01*
X157458928Y-92017676D02*
X157554166Y-92112914D01*
X157554166Y-92112914D02*
X157649404Y-92160533D01*
X156601785Y-92874819D02*
X156411309Y-92874819D01*
X156411309Y-92874819D02*
X156316071Y-92827200D01*
X156316071Y-92827200D02*
X156268452Y-92779580D01*
X156268452Y-92779580D02*
X156173214Y-92636723D01*
X156173214Y-92636723D02*
X156125595Y-92446247D01*
X156125595Y-92446247D02*
X156125595Y-92065295D01*
X156125595Y-92065295D02*
X156173214Y-91970057D01*
X156173214Y-91970057D02*
X156220833Y-91922438D01*
X156220833Y-91922438D02*
X156316071Y-91874819D01*
X156316071Y-91874819D02*
X156506547Y-91874819D01*
X156506547Y-91874819D02*
X156601785Y-91922438D01*
X156601785Y-91922438D02*
X156649404Y-91970057D01*
X156649404Y-91970057D02*
X156697023Y-92065295D01*
X156697023Y-92065295D02*
X156697023Y-92303390D01*
X156697023Y-92303390D02*
X156649404Y-92398628D01*
X156649404Y-92398628D02*
X156601785Y-92446247D01*
X156601785Y-92446247D02*
X156506547Y-92493866D01*
X156506547Y-92493866D02*
X156316071Y-92493866D01*
X156316071Y-92493866D02*
X156220833Y-92446247D01*
X156220833Y-92446247D02*
X156173214Y-92398628D01*
X156173214Y-92398628D02*
X156125595Y-92303390D01*
X108133333Y-77454819D02*
X108133333Y-78169104D01*
X108133333Y-78169104D02*
X108180952Y-78311961D01*
X108180952Y-78311961D02*
X108276190Y-78407200D01*
X108276190Y-78407200D02*
X108419047Y-78454819D01*
X108419047Y-78454819D02*
X108514285Y-78454819D01*
X107228571Y-77788152D02*
X107228571Y-78454819D01*
X107466666Y-77407200D02*
X107704761Y-78121485D01*
X107704761Y-78121485D02*
X107085714Y-78121485D01*
D11*
X107733332Y-100909800D02*
X107590475Y-100957419D01*
X107590475Y-100957419D02*
X107352380Y-100957419D01*
X107352380Y-100957419D02*
X107257142Y-100909800D01*
X107257142Y-100909800D02*
X107209523Y-100862180D01*
X107209523Y-100862180D02*
X107161904Y-100766942D01*
X107161904Y-100766942D02*
X107161904Y-100671704D01*
X107161904Y-100671704D02*
X107209523Y-100576466D01*
X107209523Y-100576466D02*
X107257142Y-100528847D01*
X107257142Y-100528847D02*
X107352380Y-100481228D01*
X107352380Y-100481228D02*
X107542856Y-100433609D01*
X107542856Y-100433609D02*
X107638094Y-100385990D01*
X107638094Y-100385990D02*
X107685713Y-100338371D01*
X107685713Y-100338371D02*
X107733332Y-100243133D01*
X107733332Y-100243133D02*
X107733332Y-100147895D01*
X107733332Y-100147895D02*
X107685713Y-100052657D01*
X107685713Y-100052657D02*
X107638094Y-100005038D01*
X107638094Y-100005038D02*
X107542856Y-99957419D01*
X107542856Y-99957419D02*
X107304761Y-99957419D01*
X107304761Y-99957419D02*
X107161904Y-100005038D01*
X106828570Y-99957419D02*
X106590475Y-100957419D01*
X106590475Y-100957419D02*
X106399999Y-100243133D01*
X106399999Y-100243133D02*
X106209523Y-100957419D01*
X106209523Y-100957419D02*
X105971428Y-99957419D01*
X105066666Y-100957419D02*
X105638094Y-100957419D01*
X105352380Y-100957419D02*
X105352380Y-99957419D01*
X105352380Y-99957419D02*
X105447618Y-100100276D01*
X105447618Y-100100276D02*
X105542856Y-100195514D01*
X105542856Y-100195514D02*
X105638094Y-100243133D01*
D10*
X113766666Y-101159580D02*
X113814285Y-101207200D01*
X113814285Y-101207200D02*
X113957142Y-101254819D01*
X113957142Y-101254819D02*
X114052380Y-101254819D01*
X114052380Y-101254819D02*
X114195237Y-101207200D01*
X114195237Y-101207200D02*
X114290475Y-101111961D01*
X114290475Y-101111961D02*
X114338094Y-101016723D01*
X114338094Y-101016723D02*
X114385713Y-100826247D01*
X114385713Y-100826247D02*
X114385713Y-100683390D01*
X114385713Y-100683390D02*
X114338094Y-100492914D01*
X114338094Y-100492914D02*
X114290475Y-100397676D01*
X114290475Y-100397676D02*
X114195237Y-100302438D01*
X114195237Y-100302438D02*
X114052380Y-100254819D01*
X114052380Y-100254819D02*
X113957142Y-100254819D01*
X113957142Y-100254819D02*
X113814285Y-100302438D01*
X113814285Y-100302438D02*
X113766666Y-100350057D01*
X113385713Y-100350057D02*
X113338094Y-100302438D01*
X113338094Y-100302438D02*
X113242856Y-100254819D01*
X113242856Y-100254819D02*
X113004761Y-100254819D01*
X113004761Y-100254819D02*
X112909523Y-100302438D01*
X112909523Y-100302438D02*
X112861904Y-100350057D01*
X112861904Y-100350057D02*
X112814285Y-100445295D01*
X112814285Y-100445295D02*
X112814285Y-100540533D01*
X112814285Y-100540533D02*
X112861904Y-100683390D01*
X112861904Y-100683390D02*
X113433332Y-101254819D01*
X113433332Y-101254819D02*
X112814285Y-101254819D01*
X113966666Y-94659580D02*
X114014285Y-94707200D01*
X114014285Y-94707200D02*
X114157142Y-94754819D01*
X114157142Y-94754819D02*
X114252380Y-94754819D01*
X114252380Y-94754819D02*
X114395237Y-94707200D01*
X114395237Y-94707200D02*
X114490475Y-94611961D01*
X114490475Y-94611961D02*
X114538094Y-94516723D01*
X114538094Y-94516723D02*
X114585713Y-94326247D01*
X114585713Y-94326247D02*
X114585713Y-94183390D01*
X114585713Y-94183390D02*
X114538094Y-93992914D01*
X114538094Y-93992914D02*
X114490475Y-93897676D01*
X114490475Y-93897676D02*
X114395237Y-93802438D01*
X114395237Y-93802438D02*
X114252380Y-93754819D01*
X114252380Y-93754819D02*
X114157142Y-93754819D01*
X114157142Y-93754819D02*
X114014285Y-93802438D01*
X114014285Y-93802438D02*
X113966666Y-93850057D01*
X113014285Y-94754819D02*
X113585713Y-94754819D01*
X113299999Y-94754819D02*
X113299999Y-93754819D01*
X113299999Y-93754819D02*
X113395237Y-93897676D01*
X113395237Y-93897676D02*
X113490475Y-93992914D01*
X113490475Y-93992914D02*
X113585713Y-94040533D01*
X99766666Y-97554819D02*
X100099999Y-97078628D01*
X100338094Y-97554819D02*
X100338094Y-96554819D01*
X100338094Y-96554819D02*
X99957142Y-96554819D01*
X99957142Y-96554819D02*
X99861904Y-96602438D01*
X99861904Y-96602438D02*
X99814285Y-96650057D01*
X99814285Y-96650057D02*
X99766666Y-96745295D01*
X99766666Y-96745295D02*
X99766666Y-96888152D01*
X99766666Y-96888152D02*
X99814285Y-96983390D01*
X99814285Y-96983390D02*
X99861904Y-97031009D01*
X99861904Y-97031009D02*
X99957142Y-97078628D01*
X99957142Y-97078628D02*
X100338094Y-97078628D01*
X98909523Y-96888152D02*
X98909523Y-97554819D01*
X99147618Y-96507200D02*
X99385713Y-97221485D01*
X99385713Y-97221485D02*
X98766666Y-97221485D01*
X166197080Y-64433333D02*
X166244700Y-64385714D01*
X166244700Y-64385714D02*
X166292319Y-64242857D01*
X166292319Y-64242857D02*
X166292319Y-64147619D01*
X166292319Y-64147619D02*
X166244700Y-64004762D01*
X166244700Y-64004762D02*
X166149461Y-63909524D01*
X166149461Y-63909524D02*
X166054223Y-63861905D01*
X166054223Y-63861905D02*
X165863747Y-63814286D01*
X165863747Y-63814286D02*
X165720890Y-63814286D01*
X165720890Y-63814286D02*
X165530414Y-63861905D01*
X165530414Y-63861905D02*
X165435176Y-63909524D01*
X165435176Y-63909524D02*
X165339938Y-64004762D01*
X165339938Y-64004762D02*
X165292319Y-64147619D01*
X165292319Y-64147619D02*
X165292319Y-64242857D01*
X165292319Y-64242857D02*
X165339938Y-64385714D01*
X165339938Y-64385714D02*
X165387557Y-64433333D01*
X165720890Y-65004762D02*
X165673271Y-64909524D01*
X165673271Y-64909524D02*
X165625652Y-64861905D01*
X165625652Y-64861905D02*
X165530414Y-64814286D01*
X165530414Y-64814286D02*
X165482795Y-64814286D01*
X165482795Y-64814286D02*
X165387557Y-64861905D01*
X165387557Y-64861905D02*
X165339938Y-64909524D01*
X165339938Y-64909524D02*
X165292319Y-65004762D01*
X165292319Y-65004762D02*
X165292319Y-65195238D01*
X165292319Y-65195238D02*
X165339938Y-65290476D01*
X165339938Y-65290476D02*
X165387557Y-65338095D01*
X165387557Y-65338095D02*
X165482795Y-65385714D01*
X165482795Y-65385714D02*
X165530414Y-65385714D01*
X165530414Y-65385714D02*
X165625652Y-65338095D01*
X165625652Y-65338095D02*
X165673271Y-65290476D01*
X165673271Y-65290476D02*
X165720890Y-65195238D01*
X165720890Y-65195238D02*
X165720890Y-65004762D01*
X165720890Y-65004762D02*
X165768509Y-64909524D01*
X165768509Y-64909524D02*
X165816128Y-64861905D01*
X165816128Y-64861905D02*
X165911366Y-64814286D01*
X165911366Y-64814286D02*
X166101842Y-64814286D01*
X166101842Y-64814286D02*
X166197080Y-64861905D01*
X166197080Y-64861905D02*
X166244700Y-64909524D01*
X166244700Y-64909524D02*
X166292319Y-65004762D01*
X166292319Y-65004762D02*
X166292319Y-65195238D01*
X166292319Y-65195238D02*
X166244700Y-65290476D01*
X166244700Y-65290476D02*
X166197080Y-65338095D01*
X166197080Y-65338095D02*
X166101842Y-65385714D01*
X166101842Y-65385714D02*
X165911366Y-65385714D01*
X165911366Y-65385714D02*
X165816128Y-65338095D01*
X165816128Y-65338095D02*
X165768509Y-65290476D01*
X165768509Y-65290476D02*
X165720890Y-65195238D01*
X127842857Y-84959580D02*
X127890476Y-85007200D01*
X127890476Y-85007200D02*
X128033333Y-85054819D01*
X128033333Y-85054819D02*
X128128571Y-85054819D01*
X128128571Y-85054819D02*
X128271428Y-85007200D01*
X128271428Y-85007200D02*
X128366666Y-84911961D01*
X128366666Y-84911961D02*
X128414285Y-84816723D01*
X128414285Y-84816723D02*
X128461904Y-84626247D01*
X128461904Y-84626247D02*
X128461904Y-84483390D01*
X128461904Y-84483390D02*
X128414285Y-84292914D01*
X128414285Y-84292914D02*
X128366666Y-84197676D01*
X128366666Y-84197676D02*
X128271428Y-84102438D01*
X128271428Y-84102438D02*
X128128571Y-84054819D01*
X128128571Y-84054819D02*
X128033333Y-84054819D01*
X128033333Y-84054819D02*
X127890476Y-84102438D01*
X127890476Y-84102438D02*
X127842857Y-84150057D01*
X126890476Y-85054819D02*
X127461904Y-85054819D01*
X127176190Y-85054819D02*
X127176190Y-84054819D01*
X127176190Y-84054819D02*
X127271428Y-84197676D01*
X127271428Y-84197676D02*
X127366666Y-84292914D01*
X127366666Y-84292914D02*
X127461904Y-84340533D01*
X125938095Y-85054819D02*
X126509523Y-85054819D01*
X126223809Y-85054819D02*
X126223809Y-84054819D01*
X126223809Y-84054819D02*
X126319047Y-84197676D01*
X126319047Y-84197676D02*
X126414285Y-84292914D01*
X126414285Y-84292914D02*
X126509523Y-84340533D01*
X126204819Y-90661905D02*
X125204819Y-90661905D01*
X125204819Y-90661905D02*
X125204819Y-90900000D01*
X125204819Y-90900000D02*
X125252438Y-91042857D01*
X125252438Y-91042857D02*
X125347676Y-91138095D01*
X125347676Y-91138095D02*
X125442914Y-91185714D01*
X125442914Y-91185714D02*
X125633390Y-91233333D01*
X125633390Y-91233333D02*
X125776247Y-91233333D01*
X125776247Y-91233333D02*
X125966723Y-91185714D01*
X125966723Y-91185714D02*
X126061961Y-91138095D01*
X126061961Y-91138095D02*
X126157200Y-91042857D01*
X126157200Y-91042857D02*
X126204819Y-90900000D01*
X126204819Y-90900000D02*
X126204819Y-90661905D01*
X125633390Y-91804762D02*
X125585771Y-91709524D01*
X125585771Y-91709524D02*
X125538152Y-91661905D01*
X125538152Y-91661905D02*
X125442914Y-91614286D01*
X125442914Y-91614286D02*
X125395295Y-91614286D01*
X125395295Y-91614286D02*
X125300057Y-91661905D01*
X125300057Y-91661905D02*
X125252438Y-91709524D01*
X125252438Y-91709524D02*
X125204819Y-91804762D01*
X125204819Y-91804762D02*
X125204819Y-91995238D01*
X125204819Y-91995238D02*
X125252438Y-92090476D01*
X125252438Y-92090476D02*
X125300057Y-92138095D01*
X125300057Y-92138095D02*
X125395295Y-92185714D01*
X125395295Y-92185714D02*
X125442914Y-92185714D01*
X125442914Y-92185714D02*
X125538152Y-92138095D01*
X125538152Y-92138095D02*
X125585771Y-92090476D01*
X125585771Y-92090476D02*
X125633390Y-91995238D01*
X125633390Y-91995238D02*
X125633390Y-91804762D01*
X125633390Y-91804762D02*
X125681009Y-91709524D01*
X125681009Y-91709524D02*
X125728628Y-91661905D01*
X125728628Y-91661905D02*
X125823866Y-91614286D01*
X125823866Y-91614286D02*
X126014342Y-91614286D01*
X126014342Y-91614286D02*
X126109580Y-91661905D01*
X126109580Y-91661905D02*
X126157200Y-91709524D01*
X126157200Y-91709524D02*
X126204819Y-91804762D01*
X126204819Y-91804762D02*
X126204819Y-91995238D01*
X126204819Y-91995238D02*
X126157200Y-92090476D01*
X126157200Y-92090476D02*
X126109580Y-92138095D01*
X126109580Y-92138095D02*
X126014342Y-92185714D01*
X126014342Y-92185714D02*
X125823866Y-92185714D01*
X125823866Y-92185714D02*
X125728628Y-92138095D01*
X125728628Y-92138095D02*
X125681009Y-92090476D01*
X125681009Y-92090476D02*
X125633390Y-91995238D01*
X164838094Y-96704819D02*
X164838094Y-95704819D01*
X164838094Y-95704819D02*
X164599999Y-95704819D01*
X164599999Y-95704819D02*
X164457142Y-95752438D01*
X164457142Y-95752438D02*
X164361904Y-95847676D01*
X164361904Y-95847676D02*
X164314285Y-95942914D01*
X164314285Y-95942914D02*
X164266666Y-96133390D01*
X164266666Y-96133390D02*
X164266666Y-96276247D01*
X164266666Y-96276247D02*
X164314285Y-96466723D01*
X164314285Y-96466723D02*
X164361904Y-96561961D01*
X164361904Y-96561961D02*
X164457142Y-96657200D01*
X164457142Y-96657200D02*
X164599999Y-96704819D01*
X164599999Y-96704819D02*
X164838094Y-96704819D01*
X163790475Y-96704819D02*
X163599999Y-96704819D01*
X163599999Y-96704819D02*
X163504761Y-96657200D01*
X163504761Y-96657200D02*
X163457142Y-96609580D01*
X163457142Y-96609580D02*
X163361904Y-96466723D01*
X163361904Y-96466723D02*
X163314285Y-96276247D01*
X163314285Y-96276247D02*
X163314285Y-95895295D01*
X163314285Y-95895295D02*
X163361904Y-95800057D01*
X163361904Y-95800057D02*
X163409523Y-95752438D01*
X163409523Y-95752438D02*
X163504761Y-95704819D01*
X163504761Y-95704819D02*
X163695237Y-95704819D01*
X163695237Y-95704819D02*
X163790475Y-95752438D01*
X163790475Y-95752438D02*
X163838094Y-95800057D01*
X163838094Y-95800057D02*
X163885713Y-95895295D01*
X163885713Y-95895295D02*
X163885713Y-96133390D01*
X163885713Y-96133390D02*
X163838094Y-96228628D01*
X163838094Y-96228628D02*
X163790475Y-96276247D01*
X163790475Y-96276247D02*
X163695237Y-96323866D01*
X163695237Y-96323866D02*
X163504761Y-96323866D01*
X163504761Y-96323866D02*
X163409523Y-96276247D01*
X163409523Y-96276247D02*
X163361904Y-96228628D01*
X163361904Y-96228628D02*
X163314285Y-96133390D01*
X113242857Y-76454819D02*
X113576190Y-75978628D01*
X113814285Y-76454819D02*
X113814285Y-75454819D01*
X113814285Y-75454819D02*
X113433333Y-75454819D01*
X113433333Y-75454819D02*
X113338095Y-75502438D01*
X113338095Y-75502438D02*
X113290476Y-75550057D01*
X113290476Y-75550057D02*
X113242857Y-75645295D01*
X113242857Y-75645295D02*
X113242857Y-75788152D01*
X113242857Y-75788152D02*
X113290476Y-75883390D01*
X113290476Y-75883390D02*
X113338095Y-75931009D01*
X113338095Y-75931009D02*
X113433333Y-75978628D01*
X113433333Y-75978628D02*
X113814285Y-75978628D01*
X112290476Y-76454819D02*
X112861904Y-76454819D01*
X112576190Y-76454819D02*
X112576190Y-75454819D01*
X112576190Y-75454819D02*
X112671428Y-75597676D01*
X112671428Y-75597676D02*
X112766666Y-75692914D01*
X112766666Y-75692914D02*
X112861904Y-75740533D01*
X111433333Y-75788152D02*
X111433333Y-76454819D01*
X111671428Y-75407200D02*
X111909523Y-76121485D01*
X111909523Y-76121485D02*
X111290476Y-76121485D01*
X165959580Y-54033333D02*
X166007200Y-53985714D01*
X166007200Y-53985714D02*
X166054819Y-53842857D01*
X166054819Y-53842857D02*
X166054819Y-53747619D01*
X166054819Y-53747619D02*
X166007200Y-53604762D01*
X166007200Y-53604762D02*
X165911961Y-53509524D01*
X165911961Y-53509524D02*
X165816723Y-53461905D01*
X165816723Y-53461905D02*
X165626247Y-53414286D01*
X165626247Y-53414286D02*
X165483390Y-53414286D01*
X165483390Y-53414286D02*
X165292914Y-53461905D01*
X165292914Y-53461905D02*
X165197676Y-53509524D01*
X165197676Y-53509524D02*
X165102438Y-53604762D01*
X165102438Y-53604762D02*
X165054819Y-53747619D01*
X165054819Y-53747619D02*
X165054819Y-53842857D01*
X165054819Y-53842857D02*
X165102438Y-53985714D01*
X165102438Y-53985714D02*
X165150057Y-54033333D01*
X165388152Y-54890476D02*
X166054819Y-54890476D01*
X165007200Y-54652381D02*
X165721485Y-54414286D01*
X165721485Y-54414286D02*
X165721485Y-55033333D01*
X161992857Y-81159580D02*
X162040476Y-81207200D01*
X162040476Y-81207200D02*
X162183333Y-81254819D01*
X162183333Y-81254819D02*
X162278571Y-81254819D01*
X162278571Y-81254819D02*
X162421428Y-81207200D01*
X162421428Y-81207200D02*
X162516666Y-81111961D01*
X162516666Y-81111961D02*
X162564285Y-81016723D01*
X162564285Y-81016723D02*
X162611904Y-80826247D01*
X162611904Y-80826247D02*
X162611904Y-80683390D01*
X162611904Y-80683390D02*
X162564285Y-80492914D01*
X162564285Y-80492914D02*
X162516666Y-80397676D01*
X162516666Y-80397676D02*
X162421428Y-80302438D01*
X162421428Y-80302438D02*
X162278571Y-80254819D01*
X162278571Y-80254819D02*
X162183333Y-80254819D01*
X162183333Y-80254819D02*
X162040476Y-80302438D01*
X162040476Y-80302438D02*
X161992857Y-80350057D01*
X161611904Y-80350057D02*
X161564285Y-80302438D01*
X161564285Y-80302438D02*
X161469047Y-80254819D01*
X161469047Y-80254819D02*
X161230952Y-80254819D01*
X161230952Y-80254819D02*
X161135714Y-80302438D01*
X161135714Y-80302438D02*
X161088095Y-80350057D01*
X161088095Y-80350057D02*
X161040476Y-80445295D01*
X161040476Y-80445295D02*
X161040476Y-80540533D01*
X161040476Y-80540533D02*
X161088095Y-80683390D01*
X161088095Y-80683390D02*
X161659523Y-81254819D01*
X161659523Y-81254819D02*
X161040476Y-81254819D01*
X160088095Y-81254819D02*
X160659523Y-81254819D01*
X160373809Y-81254819D02*
X160373809Y-80254819D01*
X160373809Y-80254819D02*
X160469047Y-80397676D01*
X160469047Y-80397676D02*
X160564285Y-80492914D01*
X160564285Y-80492914D02*
X160659523Y-80540533D01*
X127290475Y-56757200D02*
X127147618Y-56804819D01*
X127147618Y-56804819D02*
X126909523Y-56804819D01*
X126909523Y-56804819D02*
X126814285Y-56757200D01*
X126814285Y-56757200D02*
X126766666Y-56709580D01*
X126766666Y-56709580D02*
X126719047Y-56614342D01*
X126719047Y-56614342D02*
X126719047Y-56519104D01*
X126719047Y-56519104D02*
X126766666Y-56423866D01*
X126766666Y-56423866D02*
X126814285Y-56376247D01*
X126814285Y-56376247D02*
X126909523Y-56328628D01*
X126909523Y-56328628D02*
X127099999Y-56281009D01*
X127099999Y-56281009D02*
X127195237Y-56233390D01*
X127195237Y-56233390D02*
X127242856Y-56185771D01*
X127242856Y-56185771D02*
X127290475Y-56090533D01*
X127290475Y-56090533D02*
X127290475Y-55995295D01*
X127290475Y-55995295D02*
X127242856Y-55900057D01*
X127242856Y-55900057D02*
X127195237Y-55852438D01*
X127195237Y-55852438D02*
X127099999Y-55804819D01*
X127099999Y-55804819D02*
X126861904Y-55804819D01*
X126861904Y-55804819D02*
X126719047Y-55852438D01*
X125719047Y-56709580D02*
X125766666Y-56757200D01*
X125766666Y-56757200D02*
X125909523Y-56804819D01*
X125909523Y-56804819D02*
X126004761Y-56804819D01*
X126004761Y-56804819D02*
X126147618Y-56757200D01*
X126147618Y-56757200D02*
X126242856Y-56661961D01*
X126242856Y-56661961D02*
X126290475Y-56566723D01*
X126290475Y-56566723D02*
X126338094Y-56376247D01*
X126338094Y-56376247D02*
X126338094Y-56233390D01*
X126338094Y-56233390D02*
X126290475Y-56042914D01*
X126290475Y-56042914D02*
X126242856Y-55947676D01*
X126242856Y-55947676D02*
X126147618Y-55852438D01*
X126147618Y-55852438D02*
X126004761Y-55804819D01*
X126004761Y-55804819D02*
X125909523Y-55804819D01*
X125909523Y-55804819D02*
X125766666Y-55852438D01*
X125766666Y-55852438D02*
X125719047Y-55900057D01*
X124814285Y-56804819D02*
X125290475Y-56804819D01*
X125290475Y-56804819D02*
X125290475Y-55804819D01*
D11*
X187033332Y-59709800D02*
X186890475Y-59757419D01*
X186890475Y-59757419D02*
X186652380Y-59757419D01*
X186652380Y-59757419D02*
X186557142Y-59709800D01*
X186557142Y-59709800D02*
X186509523Y-59662180D01*
X186509523Y-59662180D02*
X186461904Y-59566942D01*
X186461904Y-59566942D02*
X186461904Y-59471704D01*
X186461904Y-59471704D02*
X186509523Y-59376466D01*
X186509523Y-59376466D02*
X186557142Y-59328847D01*
X186557142Y-59328847D02*
X186652380Y-59281228D01*
X186652380Y-59281228D02*
X186842856Y-59233609D01*
X186842856Y-59233609D02*
X186938094Y-59185990D01*
X186938094Y-59185990D02*
X186985713Y-59138371D01*
X186985713Y-59138371D02*
X187033332Y-59043133D01*
X187033332Y-59043133D02*
X187033332Y-58947895D01*
X187033332Y-58947895D02*
X186985713Y-58852657D01*
X186985713Y-58852657D02*
X186938094Y-58805038D01*
X186938094Y-58805038D02*
X186842856Y-58757419D01*
X186842856Y-58757419D02*
X186604761Y-58757419D01*
X186604761Y-58757419D02*
X186461904Y-58805038D01*
X186128570Y-58757419D02*
X185890475Y-59757419D01*
X185890475Y-59757419D02*
X185699999Y-59043133D01*
X185699999Y-59043133D02*
X185509523Y-59757419D01*
X185509523Y-59757419D02*
X185271428Y-58757419D01*
X184461904Y-59090752D02*
X184461904Y-59757419D01*
X184699999Y-58709800D02*
X184938094Y-59424085D01*
X184938094Y-59424085D02*
X184319047Y-59424085D01*
D10*
X134392857Y-68434819D02*
X134726190Y-67958628D01*
X134964285Y-68434819D02*
X134964285Y-67434819D01*
X134964285Y-67434819D02*
X134583333Y-67434819D01*
X134583333Y-67434819D02*
X134488095Y-67482438D01*
X134488095Y-67482438D02*
X134440476Y-67530057D01*
X134440476Y-67530057D02*
X134392857Y-67625295D01*
X134392857Y-67625295D02*
X134392857Y-67768152D01*
X134392857Y-67768152D02*
X134440476Y-67863390D01*
X134440476Y-67863390D02*
X134488095Y-67911009D01*
X134488095Y-67911009D02*
X134583333Y-67958628D01*
X134583333Y-67958628D02*
X134964285Y-67958628D01*
X133440476Y-68434819D02*
X134011904Y-68434819D01*
X133726190Y-68434819D02*
X133726190Y-67434819D01*
X133726190Y-67434819D02*
X133821428Y-67577676D01*
X133821428Y-67577676D02*
X133916666Y-67672914D01*
X133916666Y-67672914D02*
X134011904Y-67720533D01*
X132821428Y-67434819D02*
X132726190Y-67434819D01*
X132726190Y-67434819D02*
X132630952Y-67482438D01*
X132630952Y-67482438D02*
X132583333Y-67530057D01*
X132583333Y-67530057D02*
X132535714Y-67625295D01*
X132535714Y-67625295D02*
X132488095Y-67815771D01*
X132488095Y-67815771D02*
X132488095Y-68053866D01*
X132488095Y-68053866D02*
X132535714Y-68244342D01*
X132535714Y-68244342D02*
X132583333Y-68339580D01*
X132583333Y-68339580D02*
X132630952Y-68387200D01*
X132630952Y-68387200D02*
X132726190Y-68434819D01*
X132726190Y-68434819D02*
X132821428Y-68434819D01*
X132821428Y-68434819D02*
X132916666Y-68387200D01*
X132916666Y-68387200D02*
X132964285Y-68339580D01*
X132964285Y-68339580D02*
X133011904Y-68244342D01*
X133011904Y-68244342D02*
X133059523Y-68053866D01*
X133059523Y-68053866D02*
X133059523Y-67815771D01*
X133059523Y-67815771D02*
X133011904Y-67625295D01*
X133011904Y-67625295D02*
X132964285Y-67530057D01*
X132964285Y-67530057D02*
X132916666Y-67482438D01*
X132916666Y-67482438D02*
X132821428Y-67434819D01*
X121211904Y-104554819D02*
X121211904Y-105364342D01*
X121211904Y-105364342D02*
X121164285Y-105459580D01*
X121164285Y-105459580D02*
X121116666Y-105507200D01*
X121116666Y-105507200D02*
X121021428Y-105554819D01*
X121021428Y-105554819D02*
X120830952Y-105554819D01*
X120830952Y-105554819D02*
X120735714Y-105507200D01*
X120735714Y-105507200D02*
X120688095Y-105459580D01*
X120688095Y-105459580D02*
X120640476Y-105364342D01*
X120640476Y-105364342D02*
X120640476Y-104554819D01*
X119735714Y-104554819D02*
X119926190Y-104554819D01*
X119926190Y-104554819D02*
X120021428Y-104602438D01*
X120021428Y-104602438D02*
X120069047Y-104650057D01*
X120069047Y-104650057D02*
X120164285Y-104792914D01*
X120164285Y-104792914D02*
X120211904Y-104983390D01*
X120211904Y-104983390D02*
X120211904Y-105364342D01*
X120211904Y-105364342D02*
X120164285Y-105459580D01*
X120164285Y-105459580D02*
X120116666Y-105507200D01*
X120116666Y-105507200D02*
X120021428Y-105554819D01*
X120021428Y-105554819D02*
X119830952Y-105554819D01*
X119830952Y-105554819D02*
X119735714Y-105507200D01*
X119735714Y-105507200D02*
X119688095Y-105459580D01*
X119688095Y-105459580D02*
X119640476Y-105364342D01*
X119640476Y-105364342D02*
X119640476Y-105126247D01*
X119640476Y-105126247D02*
X119688095Y-105031009D01*
X119688095Y-105031009D02*
X119735714Y-104983390D01*
X119735714Y-104983390D02*
X119830952Y-104935771D01*
X119830952Y-104935771D02*
X120021428Y-104935771D01*
X120021428Y-104935771D02*
X120116666Y-104983390D01*
X120116666Y-104983390D02*
X120164285Y-105031009D01*
X120164285Y-105031009D02*
X120211904Y-105126247D01*
X164988094Y-92304819D02*
X164988094Y-91304819D01*
X164988094Y-91304819D02*
X164749999Y-91304819D01*
X164749999Y-91304819D02*
X164607142Y-91352438D01*
X164607142Y-91352438D02*
X164511904Y-91447676D01*
X164511904Y-91447676D02*
X164464285Y-91542914D01*
X164464285Y-91542914D02*
X164416666Y-91733390D01*
X164416666Y-91733390D02*
X164416666Y-91876247D01*
X164416666Y-91876247D02*
X164464285Y-92066723D01*
X164464285Y-92066723D02*
X164511904Y-92161961D01*
X164511904Y-92161961D02*
X164607142Y-92257200D01*
X164607142Y-92257200D02*
X164749999Y-92304819D01*
X164749999Y-92304819D02*
X164988094Y-92304819D01*
X164083332Y-91304819D02*
X163464285Y-91304819D01*
X163464285Y-91304819D02*
X163797618Y-91685771D01*
X163797618Y-91685771D02*
X163654761Y-91685771D01*
X163654761Y-91685771D02*
X163559523Y-91733390D01*
X163559523Y-91733390D02*
X163511904Y-91781009D01*
X163511904Y-91781009D02*
X163464285Y-91876247D01*
X163464285Y-91876247D02*
X163464285Y-92114342D01*
X163464285Y-92114342D02*
X163511904Y-92209580D01*
X163511904Y-92209580D02*
X163559523Y-92257200D01*
X163559523Y-92257200D02*
X163654761Y-92304819D01*
X163654761Y-92304819D02*
X163940475Y-92304819D01*
X163940475Y-92304819D02*
X164035713Y-92257200D01*
X164035713Y-92257200D02*
X164083332Y-92209580D01*
X155666666Y-83554819D02*
X155999999Y-83078628D01*
X156238094Y-83554819D02*
X156238094Y-82554819D01*
X156238094Y-82554819D02*
X155857142Y-82554819D01*
X155857142Y-82554819D02*
X155761904Y-82602438D01*
X155761904Y-82602438D02*
X155714285Y-82650057D01*
X155714285Y-82650057D02*
X155666666Y-82745295D01*
X155666666Y-82745295D02*
X155666666Y-82888152D01*
X155666666Y-82888152D02*
X155714285Y-82983390D01*
X155714285Y-82983390D02*
X155761904Y-83031009D01*
X155761904Y-83031009D02*
X155857142Y-83078628D01*
X155857142Y-83078628D02*
X156238094Y-83078628D01*
X155333332Y-82554819D02*
X154666666Y-82554819D01*
X154666666Y-82554819D02*
X155095237Y-83554819D01*
X161754166Y-72959580D02*
X161801785Y-73007200D01*
X161801785Y-73007200D02*
X161944642Y-73054819D01*
X161944642Y-73054819D02*
X162039880Y-73054819D01*
X162039880Y-73054819D02*
X162182737Y-73007200D01*
X162182737Y-73007200D02*
X162277975Y-72911961D01*
X162277975Y-72911961D02*
X162325594Y-72816723D01*
X162325594Y-72816723D02*
X162373213Y-72626247D01*
X162373213Y-72626247D02*
X162373213Y-72483390D01*
X162373213Y-72483390D02*
X162325594Y-72292914D01*
X162325594Y-72292914D02*
X162277975Y-72197676D01*
X162277975Y-72197676D02*
X162182737Y-72102438D01*
X162182737Y-72102438D02*
X162039880Y-72054819D01*
X162039880Y-72054819D02*
X161944642Y-72054819D01*
X161944642Y-72054819D02*
X161801785Y-72102438D01*
X161801785Y-72102438D02*
X161754166Y-72150057D01*
X161277975Y-73054819D02*
X161087499Y-73054819D01*
X161087499Y-73054819D02*
X160992261Y-73007200D01*
X160992261Y-73007200D02*
X160944642Y-72959580D01*
X160944642Y-72959580D02*
X160849404Y-72816723D01*
X160849404Y-72816723D02*
X160801785Y-72626247D01*
X160801785Y-72626247D02*
X160801785Y-72245295D01*
X160801785Y-72245295D02*
X160849404Y-72150057D01*
X160849404Y-72150057D02*
X160897023Y-72102438D01*
X160897023Y-72102438D02*
X160992261Y-72054819D01*
X160992261Y-72054819D02*
X161182737Y-72054819D01*
X161182737Y-72054819D02*
X161277975Y-72102438D01*
X161277975Y-72102438D02*
X161325594Y-72150057D01*
X161325594Y-72150057D02*
X161373213Y-72245295D01*
X161373213Y-72245295D02*
X161373213Y-72483390D01*
X161373213Y-72483390D02*
X161325594Y-72578628D01*
X161325594Y-72578628D02*
X161277975Y-72626247D01*
X161277975Y-72626247D02*
X161182737Y-72673866D01*
X161182737Y-72673866D02*
X160992261Y-72673866D01*
X160992261Y-72673866D02*
X160897023Y-72626247D01*
X160897023Y-72626247D02*
X160849404Y-72578628D01*
X160849404Y-72578628D02*
X160801785Y-72483390D01*
X190285713Y-104854819D02*
X190285713Y-103854819D01*
X190285713Y-103854819D02*
X190047618Y-103854819D01*
X190047618Y-103854819D02*
X189904761Y-103902438D01*
X189904761Y-103902438D02*
X189809523Y-103997676D01*
X189809523Y-103997676D02*
X189761904Y-104092914D01*
X189761904Y-104092914D02*
X189714285Y-104283390D01*
X189714285Y-104283390D02*
X189714285Y-104426247D01*
X189714285Y-104426247D02*
X189761904Y-104616723D01*
X189761904Y-104616723D02*
X189809523Y-104711961D01*
X189809523Y-104711961D02*
X189904761Y-104807200D01*
X189904761Y-104807200D02*
X190047618Y-104854819D01*
X190047618Y-104854819D02*
X190285713Y-104854819D01*
X188571428Y-103807200D02*
X189428570Y-105092914D01*
X187666666Y-104759580D02*
X187714285Y-104807200D01*
X187714285Y-104807200D02*
X187857142Y-104854819D01*
X187857142Y-104854819D02*
X187952380Y-104854819D01*
X187952380Y-104854819D02*
X188095237Y-104807200D01*
X188095237Y-104807200D02*
X188190475Y-104711961D01*
X188190475Y-104711961D02*
X188238094Y-104616723D01*
X188238094Y-104616723D02*
X188285713Y-104426247D01*
X188285713Y-104426247D02*
X188285713Y-104283390D01*
X188285713Y-104283390D02*
X188238094Y-104092914D01*
X188238094Y-104092914D02*
X188190475Y-103997676D01*
X188190475Y-103997676D02*
X188095237Y-103902438D01*
X188095237Y-103902438D02*
X187952380Y-103854819D01*
X187952380Y-103854819D02*
X187857142Y-103854819D01*
X187857142Y-103854819D02*
X187714285Y-103902438D01*
X187714285Y-103902438D02*
X187666666Y-103950057D01*
X179166666Y-99359580D02*
X179214285Y-99407200D01*
X179214285Y-99407200D02*
X179357142Y-99454819D01*
X179357142Y-99454819D02*
X179452380Y-99454819D01*
X179452380Y-99454819D02*
X179595237Y-99407200D01*
X179595237Y-99407200D02*
X179690475Y-99311961D01*
X179690475Y-99311961D02*
X179738094Y-99216723D01*
X179738094Y-99216723D02*
X179785713Y-99026247D01*
X179785713Y-99026247D02*
X179785713Y-98883390D01*
X179785713Y-98883390D02*
X179738094Y-98692914D01*
X179738094Y-98692914D02*
X179690475Y-98597676D01*
X179690475Y-98597676D02*
X179595237Y-98502438D01*
X179595237Y-98502438D02*
X179452380Y-98454819D01*
X179452380Y-98454819D02*
X179357142Y-98454819D01*
X179357142Y-98454819D02*
X179214285Y-98502438D01*
X179214285Y-98502438D02*
X179166666Y-98550057D01*
X178785713Y-99407200D02*
X178642856Y-99454819D01*
X178642856Y-99454819D02*
X178404761Y-99454819D01*
X178404761Y-99454819D02*
X178309523Y-99407200D01*
X178309523Y-99407200D02*
X178261904Y-99359580D01*
X178261904Y-99359580D02*
X178214285Y-99264342D01*
X178214285Y-99264342D02*
X178214285Y-99169104D01*
X178214285Y-99169104D02*
X178261904Y-99073866D01*
X178261904Y-99073866D02*
X178309523Y-99026247D01*
X178309523Y-99026247D02*
X178404761Y-98978628D01*
X178404761Y-98978628D02*
X178595237Y-98931009D01*
X178595237Y-98931009D02*
X178690475Y-98883390D01*
X178690475Y-98883390D02*
X178738094Y-98835771D01*
X178738094Y-98835771D02*
X178785713Y-98740533D01*
X178785713Y-98740533D02*
X178785713Y-98645295D01*
X178785713Y-98645295D02*
X178738094Y-98550057D01*
X178738094Y-98550057D02*
X178690475Y-98502438D01*
X178690475Y-98502438D02*
X178595237Y-98454819D01*
X178595237Y-98454819D02*
X178357142Y-98454819D01*
X178357142Y-98454819D02*
X178214285Y-98502438D01*
X174642857Y-60559580D02*
X174690476Y-60607200D01*
X174690476Y-60607200D02*
X174833333Y-60654819D01*
X174833333Y-60654819D02*
X174928571Y-60654819D01*
X174928571Y-60654819D02*
X175071428Y-60607200D01*
X175071428Y-60607200D02*
X175166666Y-60511961D01*
X175166666Y-60511961D02*
X175214285Y-60416723D01*
X175214285Y-60416723D02*
X175261904Y-60226247D01*
X175261904Y-60226247D02*
X175261904Y-60083390D01*
X175261904Y-60083390D02*
X175214285Y-59892914D01*
X175214285Y-59892914D02*
X175166666Y-59797676D01*
X175166666Y-59797676D02*
X175071428Y-59702438D01*
X175071428Y-59702438D02*
X174928571Y-59654819D01*
X174928571Y-59654819D02*
X174833333Y-59654819D01*
X174833333Y-59654819D02*
X174690476Y-59702438D01*
X174690476Y-59702438D02*
X174642857Y-59750057D01*
X173690476Y-60654819D02*
X174261904Y-60654819D01*
X173976190Y-60654819D02*
X173976190Y-59654819D01*
X173976190Y-59654819D02*
X174071428Y-59797676D01*
X174071428Y-59797676D02*
X174166666Y-59892914D01*
X174166666Y-59892914D02*
X174261904Y-59940533D01*
X173357142Y-59654819D02*
X172690476Y-59654819D01*
X172690476Y-59654819D02*
X173119047Y-60654819D01*
X138761904Y-73554819D02*
X138761904Y-74364342D01*
X138761904Y-74364342D02*
X138714285Y-74459580D01*
X138714285Y-74459580D02*
X138666666Y-74507200D01*
X138666666Y-74507200D02*
X138571428Y-74554819D01*
X138571428Y-74554819D02*
X138380952Y-74554819D01*
X138380952Y-74554819D02*
X138285714Y-74507200D01*
X138285714Y-74507200D02*
X138238095Y-74459580D01*
X138238095Y-74459580D02*
X138190476Y-74364342D01*
X138190476Y-74364342D02*
X138190476Y-73554819D01*
X137285714Y-73888152D02*
X137285714Y-74554819D01*
X137523809Y-73507200D02*
X137761904Y-74221485D01*
X137761904Y-74221485D02*
X137142857Y-74221485D01*
X168142857Y-60559580D02*
X168190476Y-60607200D01*
X168190476Y-60607200D02*
X168333333Y-60654819D01*
X168333333Y-60654819D02*
X168428571Y-60654819D01*
X168428571Y-60654819D02*
X168571428Y-60607200D01*
X168571428Y-60607200D02*
X168666666Y-60511961D01*
X168666666Y-60511961D02*
X168714285Y-60416723D01*
X168714285Y-60416723D02*
X168761904Y-60226247D01*
X168761904Y-60226247D02*
X168761904Y-60083390D01*
X168761904Y-60083390D02*
X168714285Y-59892914D01*
X168714285Y-59892914D02*
X168666666Y-59797676D01*
X168666666Y-59797676D02*
X168571428Y-59702438D01*
X168571428Y-59702438D02*
X168428571Y-59654819D01*
X168428571Y-59654819D02*
X168333333Y-59654819D01*
X168333333Y-59654819D02*
X168190476Y-59702438D01*
X168190476Y-59702438D02*
X168142857Y-59750057D01*
X167190476Y-60654819D02*
X167761904Y-60654819D01*
X167476190Y-60654819D02*
X167476190Y-59654819D01*
X167476190Y-59654819D02*
X167571428Y-59797676D01*
X167571428Y-59797676D02*
X167666666Y-59892914D01*
X167666666Y-59892914D02*
X167761904Y-59940533D01*
X166285714Y-59654819D02*
X166761904Y-59654819D01*
X166761904Y-59654819D02*
X166809523Y-60131009D01*
X166809523Y-60131009D02*
X166761904Y-60083390D01*
X166761904Y-60083390D02*
X166666666Y-60035771D01*
X166666666Y-60035771D02*
X166428571Y-60035771D01*
X166428571Y-60035771D02*
X166333333Y-60083390D01*
X166333333Y-60083390D02*
X166285714Y-60131009D01*
X166285714Y-60131009D02*
X166238095Y-60226247D01*
X166238095Y-60226247D02*
X166238095Y-60464342D01*
X166238095Y-60464342D02*
X166285714Y-60559580D01*
X166285714Y-60559580D02*
X166333333Y-60607200D01*
X166333333Y-60607200D02*
X166428571Y-60654819D01*
X166428571Y-60654819D02*
X166666666Y-60654819D01*
X166666666Y-60654819D02*
X166761904Y-60607200D01*
X166761904Y-60607200D02*
X166809523Y-60559580D01*
X143566666Y-91854819D02*
X143899999Y-91378628D01*
X144138094Y-91854819D02*
X144138094Y-90854819D01*
X144138094Y-90854819D02*
X143757142Y-90854819D01*
X143757142Y-90854819D02*
X143661904Y-90902438D01*
X143661904Y-90902438D02*
X143614285Y-90950057D01*
X143614285Y-90950057D02*
X143566666Y-91045295D01*
X143566666Y-91045295D02*
X143566666Y-91188152D01*
X143566666Y-91188152D02*
X143614285Y-91283390D01*
X143614285Y-91283390D02*
X143661904Y-91331009D01*
X143661904Y-91331009D02*
X143757142Y-91378628D01*
X143757142Y-91378628D02*
X144138094Y-91378628D01*
X143185713Y-90950057D02*
X143138094Y-90902438D01*
X143138094Y-90902438D02*
X143042856Y-90854819D01*
X143042856Y-90854819D02*
X142804761Y-90854819D01*
X142804761Y-90854819D02*
X142709523Y-90902438D01*
X142709523Y-90902438D02*
X142661904Y-90950057D01*
X142661904Y-90950057D02*
X142614285Y-91045295D01*
X142614285Y-91045295D02*
X142614285Y-91140533D01*
X142614285Y-91140533D02*
X142661904Y-91283390D01*
X142661904Y-91283390D02*
X143233332Y-91854819D01*
X143233332Y-91854819D02*
X142614285Y-91854819D01*
X151142857Y-83054819D02*
X151476190Y-82578628D01*
X151714285Y-83054819D02*
X151714285Y-82054819D01*
X151714285Y-82054819D02*
X151333333Y-82054819D01*
X151333333Y-82054819D02*
X151238095Y-82102438D01*
X151238095Y-82102438D02*
X151190476Y-82150057D01*
X151190476Y-82150057D02*
X151142857Y-82245295D01*
X151142857Y-82245295D02*
X151142857Y-82388152D01*
X151142857Y-82388152D02*
X151190476Y-82483390D01*
X151190476Y-82483390D02*
X151238095Y-82531009D01*
X151238095Y-82531009D02*
X151333333Y-82578628D01*
X151333333Y-82578628D02*
X151714285Y-82578628D01*
X150190476Y-83054819D02*
X150761904Y-83054819D01*
X150476190Y-83054819D02*
X150476190Y-82054819D01*
X150476190Y-82054819D02*
X150571428Y-82197676D01*
X150571428Y-82197676D02*
X150666666Y-82292914D01*
X150666666Y-82292914D02*
X150761904Y-82340533D01*
X149238095Y-83054819D02*
X149809523Y-83054819D01*
X149523809Y-83054819D02*
X149523809Y-82054819D01*
X149523809Y-82054819D02*
X149619047Y-82197676D01*
X149619047Y-82197676D02*
X149714285Y-82292914D01*
X149714285Y-82292914D02*
X149809523Y-82340533D01*
X107138094Y-76554819D02*
X107138094Y-75554819D01*
X107138094Y-75554819D02*
X106899999Y-75554819D01*
X106899999Y-75554819D02*
X106757142Y-75602438D01*
X106757142Y-75602438D02*
X106661904Y-75697676D01*
X106661904Y-75697676D02*
X106614285Y-75792914D01*
X106614285Y-75792914D02*
X106566666Y-75983390D01*
X106566666Y-75983390D02*
X106566666Y-76126247D01*
X106566666Y-76126247D02*
X106614285Y-76316723D01*
X106614285Y-76316723D02*
X106661904Y-76411961D01*
X106661904Y-76411961D02*
X106757142Y-76507200D01*
X106757142Y-76507200D02*
X106899999Y-76554819D01*
X106899999Y-76554819D02*
X107138094Y-76554819D01*
X105709523Y-75554819D02*
X105899999Y-75554819D01*
X105899999Y-75554819D02*
X105995237Y-75602438D01*
X105995237Y-75602438D02*
X106042856Y-75650057D01*
X106042856Y-75650057D02*
X106138094Y-75792914D01*
X106138094Y-75792914D02*
X106185713Y-75983390D01*
X106185713Y-75983390D02*
X106185713Y-76364342D01*
X106185713Y-76364342D02*
X106138094Y-76459580D01*
X106138094Y-76459580D02*
X106090475Y-76507200D01*
X106090475Y-76507200D02*
X105995237Y-76554819D01*
X105995237Y-76554819D02*
X105804761Y-76554819D01*
X105804761Y-76554819D02*
X105709523Y-76507200D01*
X105709523Y-76507200D02*
X105661904Y-76459580D01*
X105661904Y-76459580D02*
X105614285Y-76364342D01*
X105614285Y-76364342D02*
X105614285Y-76126247D01*
X105614285Y-76126247D02*
X105661904Y-76031009D01*
X105661904Y-76031009D02*
X105709523Y-75983390D01*
X105709523Y-75983390D02*
X105804761Y-75935771D01*
X105804761Y-75935771D02*
X105995237Y-75935771D01*
X105995237Y-75935771D02*
X106090475Y-75983390D01*
X106090475Y-75983390D02*
X106138094Y-76031009D01*
X106138094Y-76031009D02*
X106185713Y-76126247D01*
D11*
X89712419Y-56998095D02*
X90521942Y-56998095D01*
X90521942Y-56998095D02*
X90617180Y-57045714D01*
X90617180Y-57045714D02*
X90664800Y-57093333D01*
X90664800Y-57093333D02*
X90712419Y-57188571D01*
X90712419Y-57188571D02*
X90712419Y-57379047D01*
X90712419Y-57379047D02*
X90664800Y-57474285D01*
X90664800Y-57474285D02*
X90617180Y-57521904D01*
X90617180Y-57521904D02*
X90521942Y-57569523D01*
X90521942Y-57569523D02*
X89712419Y-57569523D01*
X90712419Y-58569523D02*
X90712419Y-57998095D01*
X90712419Y-58283809D02*
X89712419Y-58283809D01*
X89712419Y-58283809D02*
X89855276Y-58188571D01*
X89855276Y-58188571D02*
X89950514Y-58093333D01*
X89950514Y-58093333D02*
X89998133Y-57998095D01*
D10*
X158666666Y-83304819D02*
X158999999Y-82828628D01*
X159238094Y-83304819D02*
X159238094Y-82304819D01*
X159238094Y-82304819D02*
X158857142Y-82304819D01*
X158857142Y-82304819D02*
X158761904Y-82352438D01*
X158761904Y-82352438D02*
X158714285Y-82400057D01*
X158714285Y-82400057D02*
X158666666Y-82495295D01*
X158666666Y-82495295D02*
X158666666Y-82638152D01*
X158666666Y-82638152D02*
X158714285Y-82733390D01*
X158714285Y-82733390D02*
X158761904Y-82781009D01*
X158761904Y-82781009D02*
X158857142Y-82828628D01*
X158857142Y-82828628D02*
X159238094Y-82828628D01*
X157809523Y-82304819D02*
X157999999Y-82304819D01*
X157999999Y-82304819D02*
X158095237Y-82352438D01*
X158095237Y-82352438D02*
X158142856Y-82400057D01*
X158142856Y-82400057D02*
X158238094Y-82542914D01*
X158238094Y-82542914D02*
X158285713Y-82733390D01*
X158285713Y-82733390D02*
X158285713Y-83114342D01*
X158285713Y-83114342D02*
X158238094Y-83209580D01*
X158238094Y-83209580D02*
X158190475Y-83257200D01*
X158190475Y-83257200D02*
X158095237Y-83304819D01*
X158095237Y-83304819D02*
X157904761Y-83304819D01*
X157904761Y-83304819D02*
X157809523Y-83257200D01*
X157809523Y-83257200D02*
X157761904Y-83209580D01*
X157761904Y-83209580D02*
X157714285Y-83114342D01*
X157714285Y-83114342D02*
X157714285Y-82876247D01*
X157714285Y-82876247D02*
X157761904Y-82781009D01*
X157761904Y-82781009D02*
X157809523Y-82733390D01*
X157809523Y-82733390D02*
X157904761Y-82685771D01*
X157904761Y-82685771D02*
X158095237Y-82685771D01*
X158095237Y-82685771D02*
X158190475Y-82733390D01*
X158190475Y-82733390D02*
X158238094Y-82781009D01*
X158238094Y-82781009D02*
X158285713Y-82876247D01*
X112566666Y-78304819D02*
X112899999Y-77828628D01*
X113138094Y-78304819D02*
X113138094Y-77304819D01*
X113138094Y-77304819D02*
X112757142Y-77304819D01*
X112757142Y-77304819D02*
X112661904Y-77352438D01*
X112661904Y-77352438D02*
X112614285Y-77400057D01*
X112614285Y-77400057D02*
X112566666Y-77495295D01*
X112566666Y-77495295D02*
X112566666Y-77638152D01*
X112566666Y-77638152D02*
X112614285Y-77733390D01*
X112614285Y-77733390D02*
X112661904Y-77781009D01*
X112661904Y-77781009D02*
X112757142Y-77828628D01*
X112757142Y-77828628D02*
X113138094Y-77828628D01*
X111995237Y-77733390D02*
X112090475Y-77685771D01*
X112090475Y-77685771D02*
X112138094Y-77638152D01*
X112138094Y-77638152D02*
X112185713Y-77542914D01*
X112185713Y-77542914D02*
X112185713Y-77495295D01*
X112185713Y-77495295D02*
X112138094Y-77400057D01*
X112138094Y-77400057D02*
X112090475Y-77352438D01*
X112090475Y-77352438D02*
X111995237Y-77304819D01*
X111995237Y-77304819D02*
X111804761Y-77304819D01*
X111804761Y-77304819D02*
X111709523Y-77352438D01*
X111709523Y-77352438D02*
X111661904Y-77400057D01*
X111661904Y-77400057D02*
X111614285Y-77495295D01*
X111614285Y-77495295D02*
X111614285Y-77542914D01*
X111614285Y-77542914D02*
X111661904Y-77638152D01*
X111661904Y-77638152D02*
X111709523Y-77685771D01*
X111709523Y-77685771D02*
X111804761Y-77733390D01*
X111804761Y-77733390D02*
X111995237Y-77733390D01*
X111995237Y-77733390D02*
X112090475Y-77781009D01*
X112090475Y-77781009D02*
X112138094Y-77828628D01*
X112138094Y-77828628D02*
X112185713Y-77923866D01*
X112185713Y-77923866D02*
X112185713Y-78114342D01*
X112185713Y-78114342D02*
X112138094Y-78209580D01*
X112138094Y-78209580D02*
X112090475Y-78257200D01*
X112090475Y-78257200D02*
X111995237Y-78304819D01*
X111995237Y-78304819D02*
X111804761Y-78304819D01*
X111804761Y-78304819D02*
X111709523Y-78257200D01*
X111709523Y-78257200D02*
X111661904Y-78209580D01*
X111661904Y-78209580D02*
X111614285Y-78114342D01*
X111614285Y-78114342D02*
X111614285Y-77923866D01*
X111614285Y-77923866D02*
X111661904Y-77828628D01*
X111661904Y-77828628D02*
X111709523Y-77781009D01*
X111709523Y-77781009D02*
X111804761Y-77733390D01*
X161730357Y-70959580D02*
X161777976Y-71007200D01*
X161777976Y-71007200D02*
X161920833Y-71054819D01*
X161920833Y-71054819D02*
X162016071Y-71054819D01*
X162016071Y-71054819D02*
X162158928Y-71007200D01*
X162158928Y-71007200D02*
X162254166Y-70911961D01*
X162254166Y-70911961D02*
X162301785Y-70816723D01*
X162301785Y-70816723D02*
X162349404Y-70626247D01*
X162349404Y-70626247D02*
X162349404Y-70483390D01*
X162349404Y-70483390D02*
X162301785Y-70292914D01*
X162301785Y-70292914D02*
X162254166Y-70197676D01*
X162254166Y-70197676D02*
X162158928Y-70102438D01*
X162158928Y-70102438D02*
X162016071Y-70054819D01*
X162016071Y-70054819D02*
X161920833Y-70054819D01*
X161920833Y-70054819D02*
X161777976Y-70102438D01*
X161777976Y-70102438D02*
X161730357Y-70150057D01*
X160777976Y-71054819D02*
X161349404Y-71054819D01*
X161063690Y-71054819D02*
X161063690Y-70054819D01*
X161063690Y-70054819D02*
X161158928Y-70197676D01*
X161158928Y-70197676D02*
X161254166Y-70292914D01*
X161254166Y-70292914D02*
X161349404Y-70340533D01*
X160158928Y-70054819D02*
X160063690Y-70054819D01*
X160063690Y-70054819D02*
X159968452Y-70102438D01*
X159968452Y-70102438D02*
X159920833Y-70150057D01*
X159920833Y-70150057D02*
X159873214Y-70245295D01*
X159873214Y-70245295D02*
X159825595Y-70435771D01*
X159825595Y-70435771D02*
X159825595Y-70673866D01*
X159825595Y-70673866D02*
X159873214Y-70864342D01*
X159873214Y-70864342D02*
X159920833Y-70959580D01*
X159920833Y-70959580D02*
X159968452Y-71007200D01*
X159968452Y-71007200D02*
X160063690Y-71054819D01*
X160063690Y-71054819D02*
X160158928Y-71054819D01*
X160158928Y-71054819D02*
X160254166Y-71007200D01*
X160254166Y-71007200D02*
X160301785Y-70959580D01*
X160301785Y-70959580D02*
X160349404Y-70864342D01*
X160349404Y-70864342D02*
X160397023Y-70673866D01*
X160397023Y-70673866D02*
X160397023Y-70435771D01*
X160397023Y-70435771D02*
X160349404Y-70245295D01*
X160349404Y-70245295D02*
X160301785Y-70150057D01*
X160301785Y-70150057D02*
X160254166Y-70102438D01*
X160254166Y-70102438D02*
X160158928Y-70054819D01*
X95413094Y-103254819D02*
X95413094Y-102254819D01*
X95413094Y-102254819D02*
X95174999Y-102254819D01*
X95174999Y-102254819D02*
X95032142Y-102302438D01*
X95032142Y-102302438D02*
X94936904Y-102397676D01*
X94936904Y-102397676D02*
X94889285Y-102492914D01*
X94889285Y-102492914D02*
X94841666Y-102683390D01*
X94841666Y-102683390D02*
X94841666Y-102826247D01*
X94841666Y-102826247D02*
X94889285Y-103016723D01*
X94889285Y-103016723D02*
X94936904Y-103111961D01*
X94936904Y-103111961D02*
X95032142Y-103207200D01*
X95032142Y-103207200D02*
X95174999Y-103254819D01*
X95174999Y-103254819D02*
X95413094Y-103254819D01*
X93889285Y-103254819D02*
X94460713Y-103254819D01*
X94174999Y-103254819D02*
X94174999Y-102254819D01*
X94174999Y-102254819D02*
X94270237Y-102397676D01*
X94270237Y-102397676D02*
X94365475Y-102492914D01*
X94365475Y-102492914D02*
X94460713Y-102540533D01*
X170642857Y-87409580D02*
X170690476Y-87457200D01*
X170690476Y-87457200D02*
X170833333Y-87504819D01*
X170833333Y-87504819D02*
X170928571Y-87504819D01*
X170928571Y-87504819D02*
X171071428Y-87457200D01*
X171071428Y-87457200D02*
X171166666Y-87361961D01*
X171166666Y-87361961D02*
X171214285Y-87266723D01*
X171214285Y-87266723D02*
X171261904Y-87076247D01*
X171261904Y-87076247D02*
X171261904Y-86933390D01*
X171261904Y-86933390D02*
X171214285Y-86742914D01*
X171214285Y-86742914D02*
X171166666Y-86647676D01*
X171166666Y-86647676D02*
X171071428Y-86552438D01*
X171071428Y-86552438D02*
X170928571Y-86504819D01*
X170928571Y-86504819D02*
X170833333Y-86504819D01*
X170833333Y-86504819D02*
X170690476Y-86552438D01*
X170690476Y-86552438D02*
X170642857Y-86600057D01*
X170261904Y-86600057D02*
X170214285Y-86552438D01*
X170214285Y-86552438D02*
X170119047Y-86504819D01*
X170119047Y-86504819D02*
X169880952Y-86504819D01*
X169880952Y-86504819D02*
X169785714Y-86552438D01*
X169785714Y-86552438D02*
X169738095Y-86600057D01*
X169738095Y-86600057D02*
X169690476Y-86695295D01*
X169690476Y-86695295D02*
X169690476Y-86790533D01*
X169690476Y-86790533D02*
X169738095Y-86933390D01*
X169738095Y-86933390D02*
X170309523Y-87504819D01*
X170309523Y-87504819D02*
X169690476Y-87504819D01*
X169071428Y-86504819D02*
X168976190Y-86504819D01*
X168976190Y-86504819D02*
X168880952Y-86552438D01*
X168880952Y-86552438D02*
X168833333Y-86600057D01*
X168833333Y-86600057D02*
X168785714Y-86695295D01*
X168785714Y-86695295D02*
X168738095Y-86885771D01*
X168738095Y-86885771D02*
X168738095Y-87123866D01*
X168738095Y-87123866D02*
X168785714Y-87314342D01*
X168785714Y-87314342D02*
X168833333Y-87409580D01*
X168833333Y-87409580D02*
X168880952Y-87457200D01*
X168880952Y-87457200D02*
X168976190Y-87504819D01*
X168976190Y-87504819D02*
X169071428Y-87504819D01*
X169071428Y-87504819D02*
X169166666Y-87457200D01*
X169166666Y-87457200D02*
X169214285Y-87409580D01*
X169214285Y-87409580D02*
X169261904Y-87314342D01*
X169261904Y-87314342D02*
X169309523Y-87123866D01*
X169309523Y-87123866D02*
X169309523Y-86885771D01*
X169309523Y-86885771D02*
X169261904Y-86695295D01*
X169261904Y-86695295D02*
X169214285Y-86600057D01*
X169214285Y-86600057D02*
X169166666Y-86552438D01*
X169166666Y-86552438D02*
X169071428Y-86504819D01*
X190571427Y-99354819D02*
X190571427Y-98354819D01*
X190571427Y-98354819D02*
X190238094Y-99069104D01*
X190238094Y-99069104D02*
X189904761Y-98354819D01*
X189904761Y-98354819D02*
X189904761Y-99354819D01*
X189238094Y-98354819D02*
X189047618Y-98354819D01*
X189047618Y-98354819D02*
X188952380Y-98402438D01*
X188952380Y-98402438D02*
X188857142Y-98497676D01*
X188857142Y-98497676D02*
X188809523Y-98688152D01*
X188809523Y-98688152D02*
X188809523Y-99021485D01*
X188809523Y-99021485D02*
X188857142Y-99211961D01*
X188857142Y-99211961D02*
X188952380Y-99307200D01*
X188952380Y-99307200D02*
X189047618Y-99354819D01*
X189047618Y-99354819D02*
X189238094Y-99354819D01*
X189238094Y-99354819D02*
X189333332Y-99307200D01*
X189333332Y-99307200D02*
X189428570Y-99211961D01*
X189428570Y-99211961D02*
X189476189Y-99021485D01*
X189476189Y-99021485D02*
X189476189Y-98688152D01*
X189476189Y-98688152D02*
X189428570Y-98497676D01*
X189428570Y-98497676D02*
X189333332Y-98402438D01*
X189333332Y-98402438D02*
X189238094Y-98354819D01*
X188428570Y-99307200D02*
X188285713Y-99354819D01*
X188285713Y-99354819D02*
X188047618Y-99354819D01*
X188047618Y-99354819D02*
X187952380Y-99307200D01*
X187952380Y-99307200D02*
X187904761Y-99259580D01*
X187904761Y-99259580D02*
X187857142Y-99164342D01*
X187857142Y-99164342D02*
X187857142Y-99069104D01*
X187857142Y-99069104D02*
X187904761Y-98973866D01*
X187904761Y-98973866D02*
X187952380Y-98926247D01*
X187952380Y-98926247D02*
X188047618Y-98878628D01*
X188047618Y-98878628D02*
X188238094Y-98831009D01*
X188238094Y-98831009D02*
X188333332Y-98783390D01*
X188333332Y-98783390D02*
X188380951Y-98735771D01*
X188380951Y-98735771D02*
X188428570Y-98640533D01*
X188428570Y-98640533D02*
X188428570Y-98545295D01*
X188428570Y-98545295D02*
X188380951Y-98450057D01*
X188380951Y-98450057D02*
X188333332Y-98402438D01*
X188333332Y-98402438D02*
X188238094Y-98354819D01*
X188238094Y-98354819D02*
X187999999Y-98354819D01*
X187999999Y-98354819D02*
X187857142Y-98402438D01*
X187428570Y-99354819D02*
X187428570Y-98354819D01*
X162016666Y-78909580D02*
X162064285Y-78957200D01*
X162064285Y-78957200D02*
X162207142Y-79004819D01*
X162207142Y-79004819D02*
X162302380Y-79004819D01*
X162302380Y-79004819D02*
X162445237Y-78957200D01*
X162445237Y-78957200D02*
X162540475Y-78861961D01*
X162540475Y-78861961D02*
X162588094Y-78766723D01*
X162588094Y-78766723D02*
X162635713Y-78576247D01*
X162635713Y-78576247D02*
X162635713Y-78433390D01*
X162635713Y-78433390D02*
X162588094Y-78242914D01*
X162588094Y-78242914D02*
X162540475Y-78147676D01*
X162540475Y-78147676D02*
X162445237Y-78052438D01*
X162445237Y-78052438D02*
X162302380Y-78004819D01*
X162302380Y-78004819D02*
X162207142Y-78004819D01*
X162207142Y-78004819D02*
X162064285Y-78052438D01*
X162064285Y-78052438D02*
X162016666Y-78100057D01*
X161683332Y-78004819D02*
X161064285Y-78004819D01*
X161064285Y-78004819D02*
X161397618Y-78385771D01*
X161397618Y-78385771D02*
X161254761Y-78385771D01*
X161254761Y-78385771D02*
X161159523Y-78433390D01*
X161159523Y-78433390D02*
X161111904Y-78481009D01*
X161111904Y-78481009D02*
X161064285Y-78576247D01*
X161064285Y-78576247D02*
X161064285Y-78814342D01*
X161064285Y-78814342D02*
X161111904Y-78909580D01*
X161111904Y-78909580D02*
X161159523Y-78957200D01*
X161159523Y-78957200D02*
X161254761Y-79004819D01*
X161254761Y-79004819D02*
X161540475Y-79004819D01*
X161540475Y-79004819D02*
X161635713Y-78957200D01*
X161635713Y-78957200D02*
X161683332Y-78909580D01*
X171242857Y-60559580D02*
X171290476Y-60607200D01*
X171290476Y-60607200D02*
X171433333Y-60654819D01*
X171433333Y-60654819D02*
X171528571Y-60654819D01*
X171528571Y-60654819D02*
X171671428Y-60607200D01*
X171671428Y-60607200D02*
X171766666Y-60511961D01*
X171766666Y-60511961D02*
X171814285Y-60416723D01*
X171814285Y-60416723D02*
X171861904Y-60226247D01*
X171861904Y-60226247D02*
X171861904Y-60083390D01*
X171861904Y-60083390D02*
X171814285Y-59892914D01*
X171814285Y-59892914D02*
X171766666Y-59797676D01*
X171766666Y-59797676D02*
X171671428Y-59702438D01*
X171671428Y-59702438D02*
X171528571Y-59654819D01*
X171528571Y-59654819D02*
X171433333Y-59654819D01*
X171433333Y-59654819D02*
X171290476Y-59702438D01*
X171290476Y-59702438D02*
X171242857Y-59750057D01*
X170290476Y-60654819D02*
X170861904Y-60654819D01*
X170576190Y-60654819D02*
X170576190Y-59654819D01*
X170576190Y-59654819D02*
X170671428Y-59797676D01*
X170671428Y-59797676D02*
X170766666Y-59892914D01*
X170766666Y-59892914D02*
X170861904Y-59940533D01*
X169433333Y-59654819D02*
X169623809Y-59654819D01*
X169623809Y-59654819D02*
X169719047Y-59702438D01*
X169719047Y-59702438D02*
X169766666Y-59750057D01*
X169766666Y-59750057D02*
X169861904Y-59892914D01*
X169861904Y-59892914D02*
X169909523Y-60083390D01*
X169909523Y-60083390D02*
X169909523Y-60464342D01*
X169909523Y-60464342D02*
X169861904Y-60559580D01*
X169861904Y-60559580D02*
X169814285Y-60607200D01*
X169814285Y-60607200D02*
X169719047Y-60654819D01*
X169719047Y-60654819D02*
X169528571Y-60654819D01*
X169528571Y-60654819D02*
X169433333Y-60607200D01*
X169433333Y-60607200D02*
X169385714Y-60559580D01*
X169385714Y-60559580D02*
X169338095Y-60464342D01*
X169338095Y-60464342D02*
X169338095Y-60226247D01*
X169338095Y-60226247D02*
X169385714Y-60131009D01*
X169385714Y-60131009D02*
X169433333Y-60083390D01*
X169433333Y-60083390D02*
X169528571Y-60035771D01*
X169528571Y-60035771D02*
X169719047Y-60035771D01*
X169719047Y-60035771D02*
X169814285Y-60083390D01*
X169814285Y-60083390D02*
X169861904Y-60131009D01*
X169861904Y-60131009D02*
X169909523Y-60226247D01*
X98663094Y-76554819D02*
X98663094Y-75554819D01*
X98663094Y-75554819D02*
X98424999Y-75554819D01*
X98424999Y-75554819D02*
X98282142Y-75602438D01*
X98282142Y-75602438D02*
X98186904Y-75697676D01*
X98186904Y-75697676D02*
X98139285Y-75792914D01*
X98139285Y-75792914D02*
X98091666Y-75983390D01*
X98091666Y-75983390D02*
X98091666Y-76126247D01*
X98091666Y-76126247D02*
X98139285Y-76316723D01*
X98139285Y-76316723D02*
X98186904Y-76411961D01*
X98186904Y-76411961D02*
X98282142Y-76507200D01*
X98282142Y-76507200D02*
X98424999Y-76554819D01*
X98424999Y-76554819D02*
X98663094Y-76554819D01*
X97186904Y-75554819D02*
X97663094Y-75554819D01*
X97663094Y-75554819D02*
X97710713Y-76031009D01*
X97710713Y-76031009D02*
X97663094Y-75983390D01*
X97663094Y-75983390D02*
X97567856Y-75935771D01*
X97567856Y-75935771D02*
X97329761Y-75935771D01*
X97329761Y-75935771D02*
X97234523Y-75983390D01*
X97234523Y-75983390D02*
X97186904Y-76031009D01*
X97186904Y-76031009D02*
X97139285Y-76126247D01*
X97139285Y-76126247D02*
X97139285Y-76364342D01*
X97139285Y-76364342D02*
X97186904Y-76459580D01*
X97186904Y-76459580D02*
X97234523Y-76507200D01*
X97234523Y-76507200D02*
X97329761Y-76554819D01*
X97329761Y-76554819D02*
X97567856Y-76554819D01*
X97567856Y-76554819D02*
X97663094Y-76507200D01*
X97663094Y-76507200D02*
X97710713Y-76459580D01*
D11*
X157816666Y-101907419D02*
X158292856Y-101907419D01*
X158292856Y-101907419D02*
X158292856Y-100907419D01*
X156959523Y-101907419D02*
X157530951Y-101907419D01*
X157245237Y-101907419D02*
X157245237Y-100907419D01*
X157245237Y-100907419D02*
X157340475Y-101050276D01*
X157340475Y-101050276D02*
X157435713Y-101145514D01*
X157435713Y-101145514D02*
X157530951Y-101193133D01*
D10*
X158045238Y-87150057D02*
X158140476Y-87102438D01*
X158140476Y-87102438D02*
X158235714Y-87007200D01*
X158235714Y-87007200D02*
X158378571Y-86864342D01*
X158378571Y-86864342D02*
X158473809Y-86816723D01*
X158473809Y-86816723D02*
X158569047Y-86816723D01*
X158521428Y-87054819D02*
X158616666Y-87007200D01*
X158616666Y-87007200D02*
X158711904Y-86911961D01*
X158711904Y-86911961D02*
X158759523Y-86721485D01*
X158759523Y-86721485D02*
X158759523Y-86388152D01*
X158759523Y-86388152D02*
X158711904Y-86197676D01*
X158711904Y-86197676D02*
X158616666Y-86102438D01*
X158616666Y-86102438D02*
X158521428Y-86054819D01*
X158521428Y-86054819D02*
X158330952Y-86054819D01*
X158330952Y-86054819D02*
X158235714Y-86102438D01*
X158235714Y-86102438D02*
X158140476Y-86197676D01*
X158140476Y-86197676D02*
X158092857Y-86388152D01*
X158092857Y-86388152D02*
X158092857Y-86721485D01*
X158092857Y-86721485D02*
X158140476Y-86911961D01*
X158140476Y-86911961D02*
X158235714Y-87007200D01*
X158235714Y-87007200D02*
X158330952Y-87054819D01*
X158330952Y-87054819D02*
X158521428Y-87054819D01*
X157711904Y-86150057D02*
X157664285Y-86102438D01*
X157664285Y-86102438D02*
X157569047Y-86054819D01*
X157569047Y-86054819D02*
X157330952Y-86054819D01*
X157330952Y-86054819D02*
X157235714Y-86102438D01*
X157235714Y-86102438D02*
X157188095Y-86150057D01*
X157188095Y-86150057D02*
X157140476Y-86245295D01*
X157140476Y-86245295D02*
X157140476Y-86340533D01*
X157140476Y-86340533D02*
X157188095Y-86483390D01*
X157188095Y-86483390D02*
X157759523Y-87054819D01*
X157759523Y-87054819D02*
X157140476Y-87054819D01*
X174454819Y-74838095D02*
X175264342Y-74838095D01*
X175264342Y-74838095D02*
X175359580Y-74885714D01*
X175359580Y-74885714D02*
X175407200Y-74933333D01*
X175407200Y-74933333D02*
X175454819Y-75028571D01*
X175454819Y-75028571D02*
X175454819Y-75219047D01*
X175454819Y-75219047D02*
X175407200Y-75314285D01*
X175407200Y-75314285D02*
X175359580Y-75361904D01*
X175359580Y-75361904D02*
X175264342Y-75409523D01*
X175264342Y-75409523D02*
X174454819Y-75409523D01*
X174550057Y-75838095D02*
X174502438Y-75885714D01*
X174502438Y-75885714D02*
X174454819Y-75980952D01*
X174454819Y-75980952D02*
X174454819Y-76219047D01*
X174454819Y-76219047D02*
X174502438Y-76314285D01*
X174502438Y-76314285D02*
X174550057Y-76361904D01*
X174550057Y-76361904D02*
X174645295Y-76409523D01*
X174645295Y-76409523D02*
X174740533Y-76409523D01*
X174740533Y-76409523D02*
X174883390Y-76361904D01*
X174883390Y-76361904D02*
X175454819Y-75790476D01*
X175454819Y-75790476D02*
X175454819Y-76409523D01*
X153816666Y-97504819D02*
X154149999Y-97028628D01*
X154388094Y-97504819D02*
X154388094Y-96504819D01*
X154388094Y-96504819D02*
X154007142Y-96504819D01*
X154007142Y-96504819D02*
X153911904Y-96552438D01*
X153911904Y-96552438D02*
X153864285Y-96600057D01*
X153864285Y-96600057D02*
X153816666Y-96695295D01*
X153816666Y-96695295D02*
X153816666Y-96838152D01*
X153816666Y-96838152D02*
X153864285Y-96933390D01*
X153864285Y-96933390D02*
X153911904Y-96981009D01*
X153911904Y-96981009D02*
X154007142Y-97028628D01*
X154007142Y-97028628D02*
X154388094Y-97028628D01*
X152911904Y-96504819D02*
X153388094Y-96504819D01*
X153388094Y-96504819D02*
X153435713Y-96981009D01*
X153435713Y-96981009D02*
X153388094Y-96933390D01*
X153388094Y-96933390D02*
X153292856Y-96885771D01*
X153292856Y-96885771D02*
X153054761Y-96885771D01*
X153054761Y-96885771D02*
X152959523Y-96933390D01*
X152959523Y-96933390D02*
X152911904Y-96981009D01*
X152911904Y-96981009D02*
X152864285Y-97076247D01*
X152864285Y-97076247D02*
X152864285Y-97314342D01*
X152864285Y-97314342D02*
X152911904Y-97409580D01*
X152911904Y-97409580D02*
X152959523Y-97457200D01*
X152959523Y-97457200D02*
X153054761Y-97504819D01*
X153054761Y-97504819D02*
X153292856Y-97504819D01*
X153292856Y-97504819D02*
X153388094Y-97457200D01*
X153388094Y-97457200D02*
X153435713Y-97409580D01*
X135366666Y-97054819D02*
X135699999Y-96578628D01*
X135938094Y-97054819D02*
X135938094Y-96054819D01*
X135938094Y-96054819D02*
X135557142Y-96054819D01*
X135557142Y-96054819D02*
X135461904Y-96102438D01*
X135461904Y-96102438D02*
X135414285Y-96150057D01*
X135414285Y-96150057D02*
X135366666Y-96245295D01*
X135366666Y-96245295D02*
X135366666Y-96388152D01*
X135366666Y-96388152D02*
X135414285Y-96483390D01*
X135414285Y-96483390D02*
X135461904Y-96531009D01*
X135461904Y-96531009D02*
X135557142Y-96578628D01*
X135557142Y-96578628D02*
X135938094Y-96578628D01*
X134414285Y-97054819D02*
X134985713Y-97054819D01*
X134699999Y-97054819D02*
X134699999Y-96054819D01*
X134699999Y-96054819D02*
X134795237Y-96197676D01*
X134795237Y-96197676D02*
X134890475Y-96292914D01*
X134890475Y-96292914D02*
X134985713Y-96340533D01*
X164988094Y-87304819D02*
X164988094Y-86304819D01*
X164988094Y-86304819D02*
X164749999Y-86304819D01*
X164749999Y-86304819D02*
X164607142Y-86352438D01*
X164607142Y-86352438D02*
X164511904Y-86447676D01*
X164511904Y-86447676D02*
X164464285Y-86542914D01*
X164464285Y-86542914D02*
X164416666Y-86733390D01*
X164416666Y-86733390D02*
X164416666Y-86876247D01*
X164416666Y-86876247D02*
X164464285Y-87066723D01*
X164464285Y-87066723D02*
X164511904Y-87161961D01*
X164511904Y-87161961D02*
X164607142Y-87257200D01*
X164607142Y-87257200D02*
X164749999Y-87304819D01*
X164749999Y-87304819D02*
X164988094Y-87304819D01*
X164035713Y-86400057D02*
X163988094Y-86352438D01*
X163988094Y-86352438D02*
X163892856Y-86304819D01*
X163892856Y-86304819D02*
X163654761Y-86304819D01*
X163654761Y-86304819D02*
X163559523Y-86352438D01*
X163559523Y-86352438D02*
X163511904Y-86400057D01*
X163511904Y-86400057D02*
X163464285Y-86495295D01*
X163464285Y-86495295D02*
X163464285Y-86590533D01*
X163464285Y-86590533D02*
X163511904Y-86733390D01*
X163511904Y-86733390D02*
X164083332Y-87304819D01*
X164083332Y-87304819D02*
X163464285Y-87304819D01*
X122699404Y-84204819D02*
X122699404Y-85014342D01*
X122699404Y-85014342D02*
X122651785Y-85109580D01*
X122651785Y-85109580D02*
X122604166Y-85157200D01*
X122604166Y-85157200D02*
X122508928Y-85204819D01*
X122508928Y-85204819D02*
X122318452Y-85204819D01*
X122318452Y-85204819D02*
X122223214Y-85157200D01*
X122223214Y-85157200D02*
X122175595Y-85109580D01*
X122175595Y-85109580D02*
X122127976Y-85014342D01*
X122127976Y-85014342D02*
X122127976Y-84204819D01*
X121747023Y-84204819D02*
X121080357Y-84204819D01*
X121080357Y-84204819D02*
X121508928Y-85204819D01*
X161730357Y-68959580D02*
X161777976Y-69007200D01*
X161777976Y-69007200D02*
X161920833Y-69054819D01*
X161920833Y-69054819D02*
X162016071Y-69054819D01*
X162016071Y-69054819D02*
X162158928Y-69007200D01*
X162158928Y-69007200D02*
X162254166Y-68911961D01*
X162254166Y-68911961D02*
X162301785Y-68816723D01*
X162301785Y-68816723D02*
X162349404Y-68626247D01*
X162349404Y-68626247D02*
X162349404Y-68483390D01*
X162349404Y-68483390D02*
X162301785Y-68292914D01*
X162301785Y-68292914D02*
X162254166Y-68197676D01*
X162254166Y-68197676D02*
X162158928Y-68102438D01*
X162158928Y-68102438D02*
X162016071Y-68054819D01*
X162016071Y-68054819D02*
X161920833Y-68054819D01*
X161920833Y-68054819D02*
X161777976Y-68102438D01*
X161777976Y-68102438D02*
X161730357Y-68150057D01*
X161349404Y-68150057D02*
X161301785Y-68102438D01*
X161301785Y-68102438D02*
X161206547Y-68054819D01*
X161206547Y-68054819D02*
X160968452Y-68054819D01*
X160968452Y-68054819D02*
X160873214Y-68102438D01*
X160873214Y-68102438D02*
X160825595Y-68150057D01*
X160825595Y-68150057D02*
X160777976Y-68245295D01*
X160777976Y-68245295D02*
X160777976Y-68340533D01*
X160777976Y-68340533D02*
X160825595Y-68483390D01*
X160825595Y-68483390D02*
X161397023Y-69054819D01*
X161397023Y-69054819D02*
X160777976Y-69054819D01*
X160397023Y-68150057D02*
X160349404Y-68102438D01*
X160349404Y-68102438D02*
X160254166Y-68054819D01*
X160254166Y-68054819D02*
X160016071Y-68054819D01*
X160016071Y-68054819D02*
X159920833Y-68102438D01*
X159920833Y-68102438D02*
X159873214Y-68150057D01*
X159873214Y-68150057D02*
X159825595Y-68245295D01*
X159825595Y-68245295D02*
X159825595Y-68340533D01*
X159825595Y-68340533D02*
X159873214Y-68483390D01*
X159873214Y-68483390D02*
X160444642Y-69054819D01*
X160444642Y-69054819D02*
X159825595Y-69054819D01*
D11*
X186933332Y-53309800D02*
X186790475Y-53357419D01*
X186790475Y-53357419D02*
X186552380Y-53357419D01*
X186552380Y-53357419D02*
X186457142Y-53309800D01*
X186457142Y-53309800D02*
X186409523Y-53262180D01*
X186409523Y-53262180D02*
X186361904Y-53166942D01*
X186361904Y-53166942D02*
X186361904Y-53071704D01*
X186361904Y-53071704D02*
X186409523Y-52976466D01*
X186409523Y-52976466D02*
X186457142Y-52928847D01*
X186457142Y-52928847D02*
X186552380Y-52881228D01*
X186552380Y-52881228D02*
X186742856Y-52833609D01*
X186742856Y-52833609D02*
X186838094Y-52785990D01*
X186838094Y-52785990D02*
X186885713Y-52738371D01*
X186885713Y-52738371D02*
X186933332Y-52643133D01*
X186933332Y-52643133D02*
X186933332Y-52547895D01*
X186933332Y-52547895D02*
X186885713Y-52452657D01*
X186885713Y-52452657D02*
X186838094Y-52405038D01*
X186838094Y-52405038D02*
X186742856Y-52357419D01*
X186742856Y-52357419D02*
X186504761Y-52357419D01*
X186504761Y-52357419D02*
X186361904Y-52405038D01*
X186028570Y-52357419D02*
X185790475Y-53357419D01*
X185790475Y-53357419D02*
X185599999Y-52643133D01*
X185599999Y-52643133D02*
X185409523Y-53357419D01*
X185409523Y-53357419D02*
X185171428Y-52357419D01*
X184885713Y-52357419D02*
X184266666Y-52357419D01*
X184266666Y-52357419D02*
X184599999Y-52738371D01*
X184599999Y-52738371D02*
X184457142Y-52738371D01*
X184457142Y-52738371D02*
X184361904Y-52785990D01*
X184361904Y-52785990D02*
X184314285Y-52833609D01*
X184314285Y-52833609D02*
X184266666Y-52928847D01*
X184266666Y-52928847D02*
X184266666Y-53166942D01*
X184266666Y-53166942D02*
X184314285Y-53262180D01*
X184314285Y-53262180D02*
X184361904Y-53309800D01*
X184361904Y-53309800D02*
X184457142Y-53357419D01*
X184457142Y-53357419D02*
X184742856Y-53357419D01*
X184742856Y-53357419D02*
X184838094Y-53309800D01*
X184838094Y-53309800D02*
X184885713Y-53262180D01*
D10*
X152966666Y-90254819D02*
X153299999Y-89778628D01*
X153538094Y-90254819D02*
X153538094Y-89254819D01*
X153538094Y-89254819D02*
X153157142Y-89254819D01*
X153157142Y-89254819D02*
X153061904Y-89302438D01*
X153061904Y-89302438D02*
X153014285Y-89350057D01*
X153014285Y-89350057D02*
X152966666Y-89445295D01*
X152966666Y-89445295D02*
X152966666Y-89588152D01*
X152966666Y-89588152D02*
X153014285Y-89683390D01*
X153014285Y-89683390D02*
X153061904Y-89731009D01*
X153061904Y-89731009D02*
X153157142Y-89778628D01*
X153157142Y-89778628D02*
X153538094Y-89778628D01*
X152633332Y-89254819D02*
X152014285Y-89254819D01*
X152014285Y-89254819D02*
X152347618Y-89635771D01*
X152347618Y-89635771D02*
X152204761Y-89635771D01*
X152204761Y-89635771D02*
X152109523Y-89683390D01*
X152109523Y-89683390D02*
X152061904Y-89731009D01*
X152061904Y-89731009D02*
X152014285Y-89826247D01*
X152014285Y-89826247D02*
X152014285Y-90064342D01*
X152014285Y-90064342D02*
X152061904Y-90159580D01*
X152061904Y-90159580D02*
X152109523Y-90207200D01*
X152109523Y-90207200D02*
X152204761Y-90254819D01*
X152204761Y-90254819D02*
X152490475Y-90254819D01*
X152490475Y-90254819D02*
X152585713Y-90207200D01*
X152585713Y-90207200D02*
X152633332Y-90159580D01*
X161867857Y-66959580D02*
X161915476Y-67007200D01*
X161915476Y-67007200D02*
X162058333Y-67054819D01*
X162058333Y-67054819D02*
X162153571Y-67054819D01*
X162153571Y-67054819D02*
X162296428Y-67007200D01*
X162296428Y-67007200D02*
X162391666Y-66911961D01*
X162391666Y-66911961D02*
X162439285Y-66816723D01*
X162439285Y-66816723D02*
X162486904Y-66626247D01*
X162486904Y-66626247D02*
X162486904Y-66483390D01*
X162486904Y-66483390D02*
X162439285Y-66292914D01*
X162439285Y-66292914D02*
X162391666Y-66197676D01*
X162391666Y-66197676D02*
X162296428Y-66102438D01*
X162296428Y-66102438D02*
X162153571Y-66054819D01*
X162153571Y-66054819D02*
X162058333Y-66054819D01*
X162058333Y-66054819D02*
X161915476Y-66102438D01*
X161915476Y-66102438D02*
X161867857Y-66150057D01*
X160915476Y-67054819D02*
X161486904Y-67054819D01*
X161201190Y-67054819D02*
X161201190Y-66054819D01*
X161201190Y-66054819D02*
X161296428Y-66197676D01*
X161296428Y-66197676D02*
X161391666Y-66292914D01*
X161391666Y-66292914D02*
X161486904Y-66340533D01*
X160582142Y-66054819D02*
X159963095Y-66054819D01*
X159963095Y-66054819D02*
X160296428Y-66435771D01*
X160296428Y-66435771D02*
X160153571Y-66435771D01*
X160153571Y-66435771D02*
X160058333Y-66483390D01*
X160058333Y-66483390D02*
X160010714Y-66531009D01*
X160010714Y-66531009D02*
X159963095Y-66626247D01*
X159963095Y-66626247D02*
X159963095Y-66864342D01*
X159963095Y-66864342D02*
X160010714Y-66959580D01*
X160010714Y-66959580D02*
X160058333Y-67007200D01*
X160058333Y-67007200D02*
X160153571Y-67054819D01*
X160153571Y-67054819D02*
X160439285Y-67054819D01*
X160439285Y-67054819D02*
X160534523Y-67007200D01*
X160534523Y-67007200D02*
X160582142Y-66959580D01*
X161959580Y-54033333D02*
X162007200Y-53985714D01*
X162007200Y-53985714D02*
X162054819Y-53842857D01*
X162054819Y-53842857D02*
X162054819Y-53747619D01*
X162054819Y-53747619D02*
X162007200Y-53604762D01*
X162007200Y-53604762D02*
X161911961Y-53509524D01*
X161911961Y-53509524D02*
X161816723Y-53461905D01*
X161816723Y-53461905D02*
X161626247Y-53414286D01*
X161626247Y-53414286D02*
X161483390Y-53414286D01*
X161483390Y-53414286D02*
X161292914Y-53461905D01*
X161292914Y-53461905D02*
X161197676Y-53509524D01*
X161197676Y-53509524D02*
X161102438Y-53604762D01*
X161102438Y-53604762D02*
X161054819Y-53747619D01*
X161054819Y-53747619D02*
X161054819Y-53842857D01*
X161054819Y-53842857D02*
X161102438Y-53985714D01*
X161102438Y-53985714D02*
X161150057Y-54033333D01*
X161054819Y-54938095D02*
X161054819Y-54461905D01*
X161054819Y-54461905D02*
X161531009Y-54414286D01*
X161531009Y-54414286D02*
X161483390Y-54461905D01*
X161483390Y-54461905D02*
X161435771Y-54557143D01*
X161435771Y-54557143D02*
X161435771Y-54795238D01*
X161435771Y-54795238D02*
X161483390Y-54890476D01*
X161483390Y-54890476D02*
X161531009Y-54938095D01*
X161531009Y-54938095D02*
X161626247Y-54985714D01*
X161626247Y-54985714D02*
X161864342Y-54985714D01*
X161864342Y-54985714D02*
X161959580Y-54938095D01*
X161959580Y-54938095D02*
X162007200Y-54890476D01*
X162007200Y-54890476D02*
X162054819Y-54795238D01*
X162054819Y-54795238D02*
X162054819Y-54557143D01*
X162054819Y-54557143D02*
X162007200Y-54461905D01*
X162007200Y-54461905D02*
X161959580Y-54414286D01*
X171054819Y-53833333D02*
X170578628Y-53500000D01*
X171054819Y-53261905D02*
X170054819Y-53261905D01*
X170054819Y-53261905D02*
X170054819Y-53642857D01*
X170054819Y-53642857D02*
X170102438Y-53738095D01*
X170102438Y-53738095D02*
X170150057Y-53785714D01*
X170150057Y-53785714D02*
X170245295Y-53833333D01*
X170245295Y-53833333D02*
X170388152Y-53833333D01*
X170388152Y-53833333D02*
X170483390Y-53785714D01*
X170483390Y-53785714D02*
X170531009Y-53738095D01*
X170531009Y-53738095D02*
X170578628Y-53642857D01*
X170578628Y-53642857D02*
X170578628Y-53261905D01*
X171054819Y-54309524D02*
X171054819Y-54500000D01*
X171054819Y-54500000D02*
X171007200Y-54595238D01*
X171007200Y-54595238D02*
X170959580Y-54642857D01*
X170959580Y-54642857D02*
X170816723Y-54738095D01*
X170816723Y-54738095D02*
X170626247Y-54785714D01*
X170626247Y-54785714D02*
X170245295Y-54785714D01*
X170245295Y-54785714D02*
X170150057Y-54738095D01*
X170150057Y-54738095D02*
X170102438Y-54690476D01*
X170102438Y-54690476D02*
X170054819Y-54595238D01*
X170054819Y-54595238D02*
X170054819Y-54404762D01*
X170054819Y-54404762D02*
X170102438Y-54309524D01*
X170102438Y-54309524D02*
X170150057Y-54261905D01*
X170150057Y-54261905D02*
X170245295Y-54214286D01*
X170245295Y-54214286D02*
X170483390Y-54214286D01*
X170483390Y-54214286D02*
X170578628Y-54261905D01*
X170578628Y-54261905D02*
X170626247Y-54309524D01*
X170626247Y-54309524D02*
X170673866Y-54404762D01*
X170673866Y-54404762D02*
X170673866Y-54595238D01*
X170673866Y-54595238D02*
X170626247Y-54690476D01*
X170626247Y-54690476D02*
X170578628Y-54738095D01*
X170578628Y-54738095D02*
X170483390Y-54785714D01*
X185285713Y-99307200D02*
X185142856Y-99354819D01*
X185142856Y-99354819D02*
X184904761Y-99354819D01*
X184904761Y-99354819D02*
X184809523Y-99307200D01*
X184809523Y-99307200D02*
X184761904Y-99259580D01*
X184761904Y-99259580D02*
X184714285Y-99164342D01*
X184714285Y-99164342D02*
X184714285Y-99069104D01*
X184714285Y-99069104D02*
X184761904Y-98973866D01*
X184761904Y-98973866D02*
X184809523Y-98926247D01*
X184809523Y-98926247D02*
X184904761Y-98878628D01*
X184904761Y-98878628D02*
X185095237Y-98831009D01*
X185095237Y-98831009D02*
X185190475Y-98783390D01*
X185190475Y-98783390D02*
X185238094Y-98735771D01*
X185238094Y-98735771D02*
X185285713Y-98640533D01*
X185285713Y-98640533D02*
X185285713Y-98545295D01*
X185285713Y-98545295D02*
X185238094Y-98450057D01*
X185238094Y-98450057D02*
X185190475Y-98402438D01*
X185190475Y-98402438D02*
X185095237Y-98354819D01*
X185095237Y-98354819D02*
X184857142Y-98354819D01*
X184857142Y-98354819D02*
X184714285Y-98402438D01*
X183714285Y-99259580D02*
X183761904Y-99307200D01*
X183761904Y-99307200D02*
X183904761Y-99354819D01*
X183904761Y-99354819D02*
X183999999Y-99354819D01*
X183999999Y-99354819D02*
X184142856Y-99307200D01*
X184142856Y-99307200D02*
X184238094Y-99211961D01*
X184238094Y-99211961D02*
X184285713Y-99116723D01*
X184285713Y-99116723D02*
X184333332Y-98926247D01*
X184333332Y-98926247D02*
X184333332Y-98783390D01*
X184333332Y-98783390D02*
X184285713Y-98592914D01*
X184285713Y-98592914D02*
X184238094Y-98497676D01*
X184238094Y-98497676D02*
X184142856Y-98402438D01*
X184142856Y-98402438D02*
X183999999Y-98354819D01*
X183999999Y-98354819D02*
X183904761Y-98354819D01*
X183904761Y-98354819D02*
X183761904Y-98402438D01*
X183761904Y-98402438D02*
X183714285Y-98450057D01*
X183285713Y-99354819D02*
X183285713Y-98354819D01*
X182714285Y-99354819D02*
X183142856Y-98783390D01*
X182714285Y-98354819D02*
X183285713Y-98926247D01*
X174159580Y-57433333D02*
X174207200Y-57385714D01*
X174207200Y-57385714D02*
X174254819Y-57242857D01*
X174254819Y-57242857D02*
X174254819Y-57147619D01*
X174254819Y-57147619D02*
X174207200Y-57004762D01*
X174207200Y-57004762D02*
X174111961Y-56909524D01*
X174111961Y-56909524D02*
X174016723Y-56861905D01*
X174016723Y-56861905D02*
X173826247Y-56814286D01*
X173826247Y-56814286D02*
X173683390Y-56814286D01*
X173683390Y-56814286D02*
X173492914Y-56861905D01*
X173492914Y-56861905D02*
X173397676Y-56909524D01*
X173397676Y-56909524D02*
X173302438Y-57004762D01*
X173302438Y-57004762D02*
X173254819Y-57147619D01*
X173254819Y-57147619D02*
X173254819Y-57242857D01*
X173254819Y-57242857D02*
X173302438Y-57385714D01*
X173302438Y-57385714D02*
X173350057Y-57433333D01*
X173254819Y-58290476D02*
X173254819Y-58100000D01*
X173254819Y-58100000D02*
X173302438Y-58004762D01*
X173302438Y-58004762D02*
X173350057Y-57957143D01*
X173350057Y-57957143D02*
X173492914Y-57861905D01*
X173492914Y-57861905D02*
X173683390Y-57814286D01*
X173683390Y-57814286D02*
X174064342Y-57814286D01*
X174064342Y-57814286D02*
X174159580Y-57861905D01*
X174159580Y-57861905D02*
X174207200Y-57909524D01*
X174207200Y-57909524D02*
X174254819Y-58004762D01*
X174254819Y-58004762D02*
X174254819Y-58195238D01*
X174254819Y-58195238D02*
X174207200Y-58290476D01*
X174207200Y-58290476D02*
X174159580Y-58338095D01*
X174159580Y-58338095D02*
X174064342Y-58385714D01*
X174064342Y-58385714D02*
X173826247Y-58385714D01*
X173826247Y-58385714D02*
X173731009Y-58338095D01*
X173731009Y-58338095D02*
X173683390Y-58290476D01*
X173683390Y-58290476D02*
X173635771Y-58195238D01*
X173635771Y-58195238D02*
X173635771Y-58004762D01*
X173635771Y-58004762D02*
X173683390Y-57909524D01*
X173683390Y-57909524D02*
X173731009Y-57861905D01*
X173731009Y-57861905D02*
X173826247Y-57814286D01*
X131359580Y-94557142D02*
X131407200Y-94509523D01*
X131407200Y-94509523D02*
X131454819Y-94366666D01*
X131454819Y-94366666D02*
X131454819Y-94271428D01*
X131454819Y-94271428D02*
X131407200Y-94128571D01*
X131407200Y-94128571D02*
X131311961Y-94033333D01*
X131311961Y-94033333D02*
X131216723Y-93985714D01*
X131216723Y-93985714D02*
X131026247Y-93938095D01*
X131026247Y-93938095D02*
X130883390Y-93938095D01*
X130883390Y-93938095D02*
X130692914Y-93985714D01*
X130692914Y-93985714D02*
X130597676Y-94033333D01*
X130597676Y-94033333D02*
X130502438Y-94128571D01*
X130502438Y-94128571D02*
X130454819Y-94271428D01*
X130454819Y-94271428D02*
X130454819Y-94366666D01*
X130454819Y-94366666D02*
X130502438Y-94509523D01*
X130502438Y-94509523D02*
X130550057Y-94557142D01*
X131454819Y-95509523D02*
X131454819Y-94938095D01*
X131454819Y-95223809D02*
X130454819Y-95223809D01*
X130454819Y-95223809D02*
X130597676Y-95128571D01*
X130597676Y-95128571D02*
X130692914Y-95033333D01*
X130692914Y-95033333D02*
X130740533Y-94938095D01*
X130550057Y-95890476D02*
X130502438Y-95938095D01*
X130502438Y-95938095D02*
X130454819Y-96033333D01*
X130454819Y-96033333D02*
X130454819Y-96271428D01*
X130454819Y-96271428D02*
X130502438Y-96366666D01*
X130502438Y-96366666D02*
X130550057Y-96414285D01*
X130550057Y-96414285D02*
X130645295Y-96461904D01*
X130645295Y-96461904D02*
X130740533Y-96461904D01*
X130740533Y-96461904D02*
X130883390Y-96414285D01*
X130883390Y-96414285D02*
X131454819Y-95842857D01*
X131454819Y-95842857D02*
X131454819Y-96461904D01*
X166159580Y-62033333D02*
X166207200Y-61985714D01*
X166207200Y-61985714D02*
X166254819Y-61842857D01*
X166254819Y-61842857D02*
X166254819Y-61747619D01*
X166254819Y-61747619D02*
X166207200Y-61604762D01*
X166207200Y-61604762D02*
X166111961Y-61509524D01*
X166111961Y-61509524D02*
X166016723Y-61461905D01*
X166016723Y-61461905D02*
X165826247Y-61414286D01*
X165826247Y-61414286D02*
X165683390Y-61414286D01*
X165683390Y-61414286D02*
X165492914Y-61461905D01*
X165492914Y-61461905D02*
X165397676Y-61509524D01*
X165397676Y-61509524D02*
X165302438Y-61604762D01*
X165302438Y-61604762D02*
X165254819Y-61747619D01*
X165254819Y-61747619D02*
X165254819Y-61842857D01*
X165254819Y-61842857D02*
X165302438Y-61985714D01*
X165302438Y-61985714D02*
X165350057Y-62033333D01*
X165254819Y-62366667D02*
X165254819Y-63033333D01*
X165254819Y-63033333D02*
X166254819Y-62604762D01*
X174761904Y-103702438D02*
X174857142Y-103654819D01*
X174857142Y-103654819D02*
X174999999Y-103654819D01*
X174999999Y-103654819D02*
X175142856Y-103702438D01*
X175142856Y-103702438D02*
X175238094Y-103797676D01*
X175238094Y-103797676D02*
X175285713Y-103892914D01*
X175285713Y-103892914D02*
X175333332Y-104083390D01*
X175333332Y-104083390D02*
X175333332Y-104226247D01*
X175333332Y-104226247D02*
X175285713Y-104416723D01*
X175285713Y-104416723D02*
X175238094Y-104511961D01*
X175238094Y-104511961D02*
X175142856Y-104607200D01*
X175142856Y-104607200D02*
X174999999Y-104654819D01*
X174999999Y-104654819D02*
X174904761Y-104654819D01*
X174904761Y-104654819D02*
X174761904Y-104607200D01*
X174761904Y-104607200D02*
X174714285Y-104559580D01*
X174714285Y-104559580D02*
X174714285Y-104226247D01*
X174714285Y-104226247D02*
X174904761Y-104226247D01*
X174285713Y-104654819D02*
X174285713Y-103654819D01*
X174285713Y-103654819D02*
X173714285Y-104654819D01*
X173714285Y-104654819D02*
X173714285Y-103654819D01*
X173238094Y-104654819D02*
X173238094Y-103654819D01*
X173238094Y-103654819D02*
X172999999Y-103654819D01*
X172999999Y-103654819D02*
X172857142Y-103702438D01*
X172857142Y-103702438D02*
X172761904Y-103797676D01*
X172761904Y-103797676D02*
X172714285Y-103892914D01*
X172714285Y-103892914D02*
X172666666Y-104083390D01*
X172666666Y-104083390D02*
X172666666Y-104226247D01*
X172666666Y-104226247D02*
X172714285Y-104416723D01*
X172714285Y-104416723D02*
X172761904Y-104511961D01*
X172761904Y-104511961D02*
X172857142Y-104607200D01*
X172857142Y-104607200D02*
X172999999Y-104654819D01*
X172999999Y-104654819D02*
X173238094Y-104654819D01*
X117242857Y-69554819D02*
X117576190Y-69078628D01*
X117814285Y-69554819D02*
X117814285Y-68554819D01*
X117814285Y-68554819D02*
X117433333Y-68554819D01*
X117433333Y-68554819D02*
X117338095Y-68602438D01*
X117338095Y-68602438D02*
X117290476Y-68650057D01*
X117290476Y-68650057D02*
X117242857Y-68745295D01*
X117242857Y-68745295D02*
X117242857Y-68888152D01*
X117242857Y-68888152D02*
X117290476Y-68983390D01*
X117290476Y-68983390D02*
X117338095Y-69031009D01*
X117338095Y-69031009D02*
X117433333Y-69078628D01*
X117433333Y-69078628D02*
X117814285Y-69078628D01*
X116290476Y-69554819D02*
X116861904Y-69554819D01*
X116576190Y-69554819D02*
X116576190Y-68554819D01*
X116576190Y-68554819D02*
X116671428Y-68697676D01*
X116671428Y-68697676D02*
X116766666Y-68792914D01*
X116766666Y-68792914D02*
X116861904Y-68840533D01*
X115385714Y-68554819D02*
X115861904Y-68554819D01*
X115861904Y-68554819D02*
X115909523Y-69031009D01*
X115909523Y-69031009D02*
X115861904Y-68983390D01*
X115861904Y-68983390D02*
X115766666Y-68935771D01*
X115766666Y-68935771D02*
X115528571Y-68935771D01*
X115528571Y-68935771D02*
X115433333Y-68983390D01*
X115433333Y-68983390D02*
X115385714Y-69031009D01*
X115385714Y-69031009D02*
X115338095Y-69126247D01*
X115338095Y-69126247D02*
X115338095Y-69364342D01*
X115338095Y-69364342D02*
X115385714Y-69459580D01*
X115385714Y-69459580D02*
X115433333Y-69507200D01*
X115433333Y-69507200D02*
X115528571Y-69554819D01*
X115528571Y-69554819D02*
X115766666Y-69554819D01*
X115766666Y-69554819D02*
X115861904Y-69507200D01*
X115861904Y-69507200D02*
X115909523Y-69459580D01*
D11*
X108141904Y-47802419D02*
X108141904Y-48611942D01*
X108141904Y-48611942D02*
X108094285Y-48707180D01*
X108094285Y-48707180D02*
X108046666Y-48754800D01*
X108046666Y-48754800D02*
X107951428Y-48802419D01*
X107951428Y-48802419D02*
X107760952Y-48802419D01*
X107760952Y-48802419D02*
X107665714Y-48754800D01*
X107665714Y-48754800D02*
X107618095Y-48707180D01*
X107618095Y-48707180D02*
X107570476Y-48611942D01*
X107570476Y-48611942D02*
X107570476Y-47802419D01*
X106618095Y-47802419D02*
X107094285Y-47802419D01*
X107094285Y-47802419D02*
X107141904Y-48278609D01*
X107141904Y-48278609D02*
X107094285Y-48230990D01*
X107094285Y-48230990D02*
X106999047Y-48183371D01*
X106999047Y-48183371D02*
X106760952Y-48183371D01*
X106760952Y-48183371D02*
X106665714Y-48230990D01*
X106665714Y-48230990D02*
X106618095Y-48278609D01*
X106618095Y-48278609D02*
X106570476Y-48373847D01*
X106570476Y-48373847D02*
X106570476Y-48611942D01*
X106570476Y-48611942D02*
X106618095Y-48707180D01*
X106618095Y-48707180D02*
X106665714Y-48754800D01*
X106665714Y-48754800D02*
X106760952Y-48802419D01*
X106760952Y-48802419D02*
X106999047Y-48802419D01*
X106999047Y-48802419D02*
X107094285Y-48754800D01*
X107094285Y-48754800D02*
X107141904Y-48707180D01*
D10*
X127414285Y-60557200D02*
X127271428Y-60604819D01*
X127271428Y-60604819D02*
X127033333Y-60604819D01*
X127033333Y-60604819D02*
X126938095Y-60557200D01*
X126938095Y-60557200D02*
X126890476Y-60509580D01*
X126890476Y-60509580D02*
X126842857Y-60414342D01*
X126842857Y-60414342D02*
X126842857Y-60319104D01*
X126842857Y-60319104D02*
X126890476Y-60223866D01*
X126890476Y-60223866D02*
X126938095Y-60176247D01*
X126938095Y-60176247D02*
X127033333Y-60128628D01*
X127033333Y-60128628D02*
X127223809Y-60081009D01*
X127223809Y-60081009D02*
X127319047Y-60033390D01*
X127319047Y-60033390D02*
X127366666Y-59985771D01*
X127366666Y-59985771D02*
X127414285Y-59890533D01*
X127414285Y-59890533D02*
X127414285Y-59795295D01*
X127414285Y-59795295D02*
X127366666Y-59700057D01*
X127366666Y-59700057D02*
X127319047Y-59652438D01*
X127319047Y-59652438D02*
X127223809Y-59604819D01*
X127223809Y-59604819D02*
X126985714Y-59604819D01*
X126985714Y-59604819D02*
X126842857Y-59652438D01*
X126414285Y-60604819D02*
X126414285Y-59604819D01*
X126414285Y-59604819D02*
X126176190Y-59604819D01*
X126176190Y-59604819D02*
X126033333Y-59652438D01*
X126033333Y-59652438D02*
X125938095Y-59747676D01*
X125938095Y-59747676D02*
X125890476Y-59842914D01*
X125890476Y-59842914D02*
X125842857Y-60033390D01*
X125842857Y-60033390D02*
X125842857Y-60176247D01*
X125842857Y-60176247D02*
X125890476Y-60366723D01*
X125890476Y-60366723D02*
X125938095Y-60461961D01*
X125938095Y-60461961D02*
X126033333Y-60557200D01*
X126033333Y-60557200D02*
X126176190Y-60604819D01*
X126176190Y-60604819D02*
X126414285Y-60604819D01*
X125461904Y-60319104D02*
X124985714Y-60319104D01*
X125557142Y-60604819D02*
X125223809Y-59604819D01*
X125223809Y-59604819D02*
X124890476Y-60604819D01*
D11*
X159776190Y-61281228D02*
X159776190Y-61757419D01*
X160109523Y-60757419D02*
X159776190Y-61281228D01*
X159776190Y-61281228D02*
X159442857Y-60757419D01*
X158585714Y-61757419D02*
X159157142Y-61757419D01*
X158871428Y-61757419D02*
X158871428Y-60757419D01*
X158871428Y-60757419D02*
X158966666Y-60900276D01*
X158966666Y-60900276D02*
X159061904Y-60995514D01*
X159061904Y-60995514D02*
X159157142Y-61043133D01*
D10*
X153167857Y-101809580D02*
X153215476Y-101857200D01*
X153215476Y-101857200D02*
X153358333Y-101904819D01*
X153358333Y-101904819D02*
X153453571Y-101904819D01*
X153453571Y-101904819D02*
X153596428Y-101857200D01*
X153596428Y-101857200D02*
X153691666Y-101761961D01*
X153691666Y-101761961D02*
X153739285Y-101666723D01*
X153739285Y-101666723D02*
X153786904Y-101476247D01*
X153786904Y-101476247D02*
X153786904Y-101333390D01*
X153786904Y-101333390D02*
X153739285Y-101142914D01*
X153739285Y-101142914D02*
X153691666Y-101047676D01*
X153691666Y-101047676D02*
X153596428Y-100952438D01*
X153596428Y-100952438D02*
X153453571Y-100904819D01*
X153453571Y-100904819D02*
X153358333Y-100904819D01*
X153358333Y-100904819D02*
X153215476Y-100952438D01*
X153215476Y-100952438D02*
X153167857Y-101000057D01*
X152215476Y-101904819D02*
X152786904Y-101904819D01*
X152501190Y-101904819D02*
X152501190Y-100904819D01*
X152501190Y-100904819D02*
X152596428Y-101047676D01*
X152596428Y-101047676D02*
X152691666Y-101142914D01*
X152691666Y-101142914D02*
X152786904Y-101190533D01*
X151644047Y-101333390D02*
X151739285Y-101285771D01*
X151739285Y-101285771D02*
X151786904Y-101238152D01*
X151786904Y-101238152D02*
X151834523Y-101142914D01*
X151834523Y-101142914D02*
X151834523Y-101095295D01*
X151834523Y-101095295D02*
X151786904Y-101000057D01*
X151786904Y-101000057D02*
X151739285Y-100952438D01*
X151739285Y-100952438D02*
X151644047Y-100904819D01*
X151644047Y-100904819D02*
X151453571Y-100904819D01*
X151453571Y-100904819D02*
X151358333Y-100952438D01*
X151358333Y-100952438D02*
X151310714Y-101000057D01*
X151310714Y-101000057D02*
X151263095Y-101095295D01*
X151263095Y-101095295D02*
X151263095Y-101142914D01*
X151263095Y-101142914D02*
X151310714Y-101238152D01*
X151310714Y-101238152D02*
X151358333Y-101285771D01*
X151358333Y-101285771D02*
X151453571Y-101333390D01*
X151453571Y-101333390D02*
X151644047Y-101333390D01*
X151644047Y-101333390D02*
X151739285Y-101381009D01*
X151739285Y-101381009D02*
X151786904Y-101428628D01*
X151786904Y-101428628D02*
X151834523Y-101523866D01*
X151834523Y-101523866D02*
X151834523Y-101714342D01*
X151834523Y-101714342D02*
X151786904Y-101809580D01*
X151786904Y-101809580D02*
X151739285Y-101857200D01*
X151739285Y-101857200D02*
X151644047Y-101904819D01*
X151644047Y-101904819D02*
X151453571Y-101904819D01*
X151453571Y-101904819D02*
X151358333Y-101857200D01*
X151358333Y-101857200D02*
X151310714Y-101809580D01*
X151310714Y-101809580D02*
X151263095Y-101714342D01*
X151263095Y-101714342D02*
X151263095Y-101523866D01*
X151263095Y-101523866D02*
X151310714Y-101428628D01*
X151310714Y-101428628D02*
X151358333Y-101381009D01*
X151358333Y-101381009D02*
X151453571Y-101333390D01*
D11*
X178133332Y-53309800D02*
X177990475Y-53357419D01*
X177990475Y-53357419D02*
X177752380Y-53357419D01*
X177752380Y-53357419D02*
X177657142Y-53309800D01*
X177657142Y-53309800D02*
X177609523Y-53262180D01*
X177609523Y-53262180D02*
X177561904Y-53166942D01*
X177561904Y-53166942D02*
X177561904Y-53071704D01*
X177561904Y-53071704D02*
X177609523Y-52976466D01*
X177609523Y-52976466D02*
X177657142Y-52928847D01*
X177657142Y-52928847D02*
X177752380Y-52881228D01*
X177752380Y-52881228D02*
X177942856Y-52833609D01*
X177942856Y-52833609D02*
X178038094Y-52785990D01*
X178038094Y-52785990D02*
X178085713Y-52738371D01*
X178085713Y-52738371D02*
X178133332Y-52643133D01*
X178133332Y-52643133D02*
X178133332Y-52547895D01*
X178133332Y-52547895D02*
X178085713Y-52452657D01*
X178085713Y-52452657D02*
X178038094Y-52405038D01*
X178038094Y-52405038D02*
X177942856Y-52357419D01*
X177942856Y-52357419D02*
X177704761Y-52357419D01*
X177704761Y-52357419D02*
X177561904Y-52405038D01*
X177228570Y-52357419D02*
X176990475Y-53357419D01*
X176990475Y-53357419D02*
X176799999Y-52643133D01*
X176799999Y-52643133D02*
X176609523Y-53357419D01*
X176609523Y-53357419D02*
X176371428Y-52357419D01*
X176038094Y-52452657D02*
X175990475Y-52405038D01*
X175990475Y-52405038D02*
X175895237Y-52357419D01*
X175895237Y-52357419D02*
X175657142Y-52357419D01*
X175657142Y-52357419D02*
X175561904Y-52405038D01*
X175561904Y-52405038D02*
X175514285Y-52452657D01*
X175514285Y-52452657D02*
X175466666Y-52547895D01*
X175466666Y-52547895D02*
X175466666Y-52643133D01*
X175466666Y-52643133D02*
X175514285Y-52785990D01*
X175514285Y-52785990D02*
X176085713Y-53357419D01*
X176085713Y-53357419D02*
X175466666Y-53357419D01*
X139533333Y-83057419D02*
X139533333Y-83771704D01*
X139533333Y-83771704D02*
X139580952Y-83914561D01*
X139580952Y-83914561D02*
X139676190Y-84009800D01*
X139676190Y-84009800D02*
X139819047Y-84057419D01*
X139819047Y-84057419D02*
X139914285Y-84057419D01*
X138533333Y-84057419D02*
X139104761Y-84057419D01*
X138819047Y-84057419D02*
X138819047Y-83057419D01*
X138819047Y-83057419D02*
X138914285Y-83200276D01*
X138914285Y-83200276D02*
X139009523Y-83295514D01*
X139009523Y-83295514D02*
X139104761Y-83343133D01*
D10*
X131454819Y-99061905D02*
X130454819Y-99061905D01*
X130454819Y-99061905D02*
X130454819Y-99300000D01*
X130454819Y-99300000D02*
X130502438Y-99442857D01*
X130502438Y-99442857D02*
X130597676Y-99538095D01*
X130597676Y-99538095D02*
X130692914Y-99585714D01*
X130692914Y-99585714D02*
X130883390Y-99633333D01*
X130883390Y-99633333D02*
X131026247Y-99633333D01*
X131026247Y-99633333D02*
X131216723Y-99585714D01*
X131216723Y-99585714D02*
X131311961Y-99538095D01*
X131311961Y-99538095D02*
X131407200Y-99442857D01*
X131407200Y-99442857D02*
X131454819Y-99300000D01*
X131454819Y-99300000D02*
X131454819Y-99061905D01*
X130454819Y-99966667D02*
X130454819Y-100633333D01*
X130454819Y-100633333D02*
X131454819Y-100204762D01*
D12*
%TO.C,TP2*%
X179700000Y-102400000D02*
G75*
G02*
X178300000Y-102400000I-700000J0D01*
G01*
X178300000Y-102400000D02*
G75*
G02*
X179700000Y-102400000I700000J0D01*
G01*
%TO.C,TP10*%
X126900000Y-62600000D02*
G75*
G02*
X125500000Y-62600000I-700000J0D01*
G01*
X125500000Y-62600000D02*
G75*
G02*
X126900000Y-62600000I700000J0D01*
G01*
%TO.C,TP3*%
X184700000Y-102500000D02*
G75*
G02*
X183300000Y-102500000I-700000J0D01*
G01*
X183300000Y-102500000D02*
G75*
G02*
X184700000Y-102500000I700000J0D01*
G01*
%TO.C,TP11*%
X130100000Y-53700000D02*
X131500000Y-53700000D01*
X131500000Y-53700000D02*
X131500000Y-55100000D01*
X130100000Y-55100000D02*
X130100000Y-53700000D01*
X131500000Y-55100000D02*
X130100000Y-55100000D01*
%TO.C,C19*%
X157241233Y-93340000D02*
X157533767Y-93340000D01*
X157241233Y-94360000D02*
X157533767Y-94360000D01*
%TO.C,J4*%
X91480000Y-83625000D02*
X91480000Y-81315000D01*
X91480000Y-90715000D02*
X91480000Y-92575000D01*
X91680000Y-80855000D02*
X91680000Y-81115000D01*
X91680000Y-81115000D02*
X91480000Y-81315000D01*
X91680000Y-90505000D02*
X91480000Y-90715000D01*
X91680000Y-90505000D02*
X91830000Y-90505000D01*
X91680000Y-92775000D02*
X91480000Y-92575000D01*
X91830000Y-84135000D02*
X91480000Y-83625000D01*
X91830000Y-84135000D02*
X91830000Y-90505000D01*
X93740000Y-79635000D02*
X107750000Y-79635000D01*
X94640000Y-93605000D02*
X96440000Y-93605000D01*
X97740000Y-93605000D02*
X102440000Y-93605000D01*
X104140000Y-93605000D02*
X107750000Y-93605000D01*
X107750000Y-79635000D02*
X107750000Y-81555000D01*
X107750000Y-93605000D02*
X107750000Y-93155000D01*
D11*
%TO.C,SW1*%
X102800000Y-97600000D02*
X110800000Y-97600000D01*
X102800000Y-102600000D02*
X102800000Y-97600000D01*
X110800000Y-97600000D02*
X110800000Y-102600000D01*
X110800000Y-102600000D02*
X102800000Y-102600000D01*
D12*
%TO.C,C2*%
X113090000Y-103346267D02*
X113090000Y-103053733D01*
X114110000Y-103346267D02*
X114110000Y-103053733D01*
%TO.C,C1*%
X113290000Y-96653733D02*
X113290000Y-96946267D01*
X114310000Y-96653733D02*
X114310000Y-96946267D01*
%TO.C,R4*%
X100610000Y-99472936D02*
X100610000Y-100927064D01*
X98790000Y-99472936D02*
X98790000Y-100927064D01*
%TO.C,C8*%
X163346267Y-64090000D02*
X163053733Y-64090000D01*
X163346267Y-65110000D02*
X163053733Y-65110000D01*
%TO.C,C11*%
X126890000Y-87146267D02*
X126890000Y-86853733D01*
X127910000Y-87146267D02*
X127910000Y-86853733D01*
%TO.C,D8*%
X120950000Y-90400000D02*
X124960000Y-90400000D01*
X120950000Y-92400000D02*
X124960000Y-92400000D01*
X124960000Y-92400000D02*
X124960000Y-90400000D01*
%TO.C,D9*%
X162450000Y-97250000D02*
X166460000Y-97250000D01*
X162450000Y-99250000D02*
X166460000Y-99250000D01*
X166460000Y-99250000D02*
X166460000Y-97250000D01*
%TO.C,R14*%
X111690000Y-71772936D02*
X111690000Y-73227064D01*
X113510000Y-71772936D02*
X113510000Y-73227064D01*
%TO.C,C4*%
X163065000Y-55661252D02*
X163065000Y-55138748D01*
X164535000Y-55661252D02*
X164535000Y-55138748D01*
%TO.C,C21*%
X164746267Y-80290000D02*
X164453733Y-80290000D01*
X164746267Y-81310000D02*
X164453733Y-81310000D01*
%TO.C,TP8*%
X126800000Y-54800000D02*
G75*
G02*
X125400000Y-54800000I-700000J0D01*
G01*
X125400000Y-54800000D02*
G75*
G02*
X126800000Y-54800000I700000J0D01*
G01*
D11*
%TO.C,SW4*%
X183600000Y-59800000D02*
X183600000Y-58700000D01*
X184300000Y-58200000D02*
X187100000Y-58200000D01*
X187100000Y-60400000D02*
X184300000Y-60400000D01*
X187800000Y-58700000D02*
X187800000Y-59800000D01*
D12*
%TO.C,R10*%
X133022936Y-68890000D02*
X134477064Y-68890000D01*
X133022936Y-70710000D02*
X134477064Y-70710000D01*
%TO.C,U6*%
X122360000Y-97190000D02*
X118600000Y-97190000D01*
X122360000Y-98450000D02*
X122360000Y-97190000D01*
X122360000Y-102750000D02*
X122360000Y-104010000D01*
X122360000Y-104010000D02*
X118600000Y-104010000D01*
X117560000Y-104240000D02*
X117080000Y-104240000D01*
X117320000Y-103910000D01*
X117560000Y-104240000D01*
G36*
X117560000Y-104240000D02*
G01*
X117080000Y-104240000D01*
X117320000Y-103910000D01*
X117560000Y-104240000D01*
G37*
%TO.C,D3*%
X161840000Y-92750000D02*
X161840000Y-94750000D01*
X165850000Y-92750000D02*
X161840000Y-92750000D01*
X165850000Y-94750000D02*
X161840000Y-94750000D01*
%TO.C,R7*%
X154340000Y-78622936D02*
X154340000Y-80077064D01*
X156160000Y-78622936D02*
X156160000Y-80077064D01*
%TO.C,C9*%
X164483767Y-72090000D02*
X164191233Y-72090000D01*
X164483767Y-73110000D02*
X164191233Y-73110000D01*
%TO.C,TP4*%
X189700000Y-102500000D02*
G75*
G02*
X188300000Y-102500000I-700000J0D01*
G01*
X188300000Y-102500000D02*
G75*
G02*
X189700000Y-102500000I700000J0D01*
G01*
%TO.C,TP5*%
X179700000Y-97000000D02*
G75*
G02*
X178300000Y-97000000I-700000J0D01*
G01*
X178300000Y-97000000D02*
G75*
G02*
X179700000Y-97000000I700000J0D01*
G01*
%TO.C,C17*%
X173490000Y-62896267D02*
X173490000Y-62603733D01*
X174510000Y-62896267D02*
X174510000Y-62603733D01*
%TO.C,U4*%
X137750000Y-71550000D02*
X137750000Y-72550000D01*
X139250000Y-72550000D02*
X137750000Y-72550000D01*
X154650000Y-72550000D02*
X156150000Y-72550000D01*
X156150000Y-72550000D02*
X156150000Y-71550000D01*
X156650000Y-53575000D02*
X156150000Y-53575000D01*
X156150000Y-53075000D01*
X156650000Y-53575000D01*
G36*
X156650000Y-53575000D02*
G01*
X156150000Y-53575000D01*
X156150000Y-53075000D01*
X156650000Y-53575000D01*
G37*
%TO.C,C15*%
X167190000Y-62846267D02*
X167190000Y-62553733D01*
X168210000Y-62846267D02*
X168210000Y-62553733D01*
%TO.C,R2*%
X142490000Y-88927064D02*
X142490000Y-87472936D01*
X144310000Y-88927064D02*
X144310000Y-87472936D01*
%TO.C,R11*%
X149590000Y-78622936D02*
X149590000Y-80077064D01*
X151410000Y-78622936D02*
X151410000Y-80077064D01*
%TO.C,D6*%
X103740000Y-73865000D02*
X103740000Y-75335000D01*
X103740000Y-75335000D02*
X106200000Y-75335000D01*
X106200000Y-73865000D02*
X103740000Y-73865000D01*
D11*
%TO.C,U1*%
X89040000Y-47380000D02*
X100470000Y-47380000D01*
X89040000Y-68380000D02*
X89040000Y-47380000D01*
X100470000Y-68380000D02*
X89040000Y-68380000D01*
X100470000Y-68380000D02*
X100470000Y-47380000D01*
D12*
%TO.C,R6*%
X157590000Y-78622936D02*
X157590000Y-80077064D01*
X159410000Y-78622936D02*
X159410000Y-80077064D01*
%TO.C,R8*%
X111390000Y-81727064D02*
X111390000Y-80272936D01*
X113210000Y-81727064D02*
X113210000Y-80272936D01*
%TO.C,C10*%
X164483767Y-70090000D02*
X164191233Y-70090000D01*
X164483767Y-71110000D02*
X164191233Y-71110000D01*
%TO.C,D1*%
X92165000Y-100465000D02*
X92165000Y-101935000D01*
X92165000Y-101935000D02*
X94625000Y-101935000D01*
X94625000Y-100465000D02*
X92165000Y-100465000D01*
%TO.C,C20*%
X169853733Y-88290000D02*
X170146267Y-88290000D01*
X169853733Y-89310000D02*
X170146267Y-89310000D01*
%TO.C,TP7*%
X189700000Y-97000000D02*
G75*
G02*
X188300000Y-97000000I-700000J0D01*
G01*
X188300000Y-97000000D02*
G75*
G02*
X189700000Y-97000000I700000J0D01*
G01*
%TO.C,C3*%
X164746267Y-78040000D02*
X164453733Y-78040000D01*
X164746267Y-79060000D02*
X164453733Y-79060000D01*
%TO.C,C16*%
X170090000Y-62896267D02*
X170090000Y-62603733D01*
X171110000Y-62896267D02*
X171110000Y-62603733D01*
%TO.C,D5*%
X95240000Y-73865000D02*
X95240000Y-75335000D01*
X95240000Y-75335000D02*
X97700000Y-75335000D01*
X97700000Y-73865000D02*
X95240000Y-73865000D01*
D11*
%TO.C,L1*%
X155700000Y-95550000D02*
X155700000Y-98050000D01*
X155700000Y-100550000D02*
X155700000Y-98050000D01*
X156450000Y-100550000D02*
X155700000Y-100550000D01*
X156600000Y-95550000D02*
X155700000Y-95550000D01*
X159050000Y-100550000D02*
X159800000Y-100550000D01*
X159800000Y-95550000D02*
X158900000Y-95550000D01*
X159800000Y-96450000D02*
X159800000Y-95550000D01*
X159800000Y-100550000D02*
X159800000Y-96450000D01*
D12*
%TO.C,Q2*%
X158647500Y-87690000D02*
X157237500Y-87690000D01*
X158647500Y-87690000D02*
X158647500Y-88350000D01*
X158647500Y-89350000D02*
X158647500Y-90020000D01*
X158647500Y-90020000D02*
X157237500Y-90020000D01*
X157107500Y-90330000D02*
X156627500Y-90330000D01*
X156867500Y-90000000D01*
X157107500Y-90330000D01*
G36*
X157107500Y-90330000D02*
G01*
X156627500Y-90330000D01*
X156867500Y-90000000D01*
X157107500Y-90330000D01*
G37*
D13*
%TO.C,U2*%
X169873000Y-66972999D02*
X169873000Y-82726998D01*
X169873000Y-82726998D02*
X173817260Y-82726998D01*
X173817260Y-66972999D02*
X169873000Y-66972999D01*
X176027001Y-82726998D02*
X176027001Y-66972999D01*
D14*
X171381000Y-66337999D02*
G75*
G02*
X170619000Y-66337999I-381000J0D01*
G01*
X170619000Y-66337999D02*
G75*
G02*
X171381000Y-66337999I381000J0D01*
G01*
D12*
%TO.C,R5*%
X152740000Y-94577064D02*
X152740000Y-93122936D01*
X154560000Y-94577064D02*
X154560000Y-93122936D01*
%TO.C,R1*%
X134272936Y-93690000D02*
X135727064Y-93690000D01*
X134272936Y-95510000D02*
X135727064Y-95510000D01*
%TO.C,D2*%
X162600000Y-87850000D02*
X166610000Y-87850000D01*
X162600000Y-89850000D02*
X166610000Y-89850000D01*
X166610000Y-89850000D02*
X166610000Y-87850000D01*
%TO.C,U7*%
X120200000Y-85640000D02*
X121000000Y-85640000D01*
X120200000Y-88760000D02*
X121000000Y-88760000D01*
X121800000Y-85640000D02*
X121000000Y-85640000D01*
X121800000Y-88760000D02*
X121000000Y-88760000D01*
X119940000Y-89040000D02*
X119460000Y-89040000D01*
X119700000Y-88710000D01*
X119940000Y-89040000D01*
G36*
X119940000Y-89040000D02*
G01*
X119460000Y-89040000D01*
X119700000Y-88710000D01*
X119940000Y-89040000D01*
G37*
%TO.C,C22*%
X164483767Y-68090000D02*
X164191233Y-68090000D01*
X164483767Y-69110000D02*
X164191233Y-69110000D01*
D11*
%TO.C,SW3*%
X183500000Y-53400000D02*
X183500000Y-52300000D01*
X184200000Y-51800000D02*
X187000000Y-51800000D01*
X187000000Y-54000000D02*
X184200000Y-54000000D01*
X187700000Y-52300000D02*
X187700000Y-53400000D01*
D12*
%TO.C,R3*%
X151872936Y-87140000D02*
X153327064Y-87140000D01*
X151872936Y-88960000D02*
X153327064Y-88960000D01*
%TO.C,C13*%
X164483767Y-66090000D02*
X164191233Y-66090000D01*
X164483767Y-67110000D02*
X164191233Y-67110000D01*
%TO.C,C5*%
X159490000Y-55346267D02*
X159490000Y-55053733D01*
X160510000Y-55346267D02*
X160510000Y-55053733D01*
%TO.C,R9*%
X167690000Y-54872936D02*
X167690000Y-56327064D01*
X169510000Y-54872936D02*
X169510000Y-56327064D01*
%TO.C,TP6*%
X184700000Y-97000000D02*
G75*
G02*
X183300000Y-97000000I-700000J0D01*
G01*
X183300000Y-97000000D02*
G75*
G02*
X184700000Y-97000000I700000J0D01*
G01*
%TO.C,C6*%
X171690000Y-56746267D02*
X171690000Y-56453733D01*
X172710000Y-56746267D02*
X172710000Y-56453733D01*
D13*
%TO.C,C12*%
X126014410Y-96725600D02*
X129976810Y-96725600D01*
X129976810Y-93474400D02*
X126014410Y-93474400D01*
D12*
%TO.C,C7*%
X163346267Y-61990000D02*
X163053733Y-61990000D01*
X163346267Y-63010000D02*
X163053733Y-63010000D01*
%TO.C,TP1*%
X173300000Y-101700000D02*
X174700000Y-101700000D01*
X173300000Y-103100000D02*
X173300000Y-101700000D01*
X174700000Y-101700000D02*
X174700000Y-103100000D01*
X174700000Y-103100000D02*
X173300000Y-103100000D01*
%TO.C,R15*%
X115890000Y-71772936D02*
X115890000Y-73227064D01*
X117710000Y-71772936D02*
X117710000Y-73227064D01*
D11*
%TO.C,U5*%
X102370000Y-47290000D02*
X102370000Y-67900000D01*
X102370000Y-67900000D02*
X122390000Y-67900000D01*
X122390000Y-47290000D02*
X102370000Y-47290000D01*
X122390000Y-47290000D02*
X122390000Y-67900000D01*
D12*
%TO.C,TP9*%
X126900000Y-58600000D02*
G75*
G02*
X125500000Y-58600000I-700000J0D01*
G01*
X125500000Y-58600000D02*
G75*
G02*
X126900000Y-58600000I700000J0D01*
G01*
D11*
%TO.C,Y1*%
X158300000Y-62500000D02*
X160300000Y-62500000D01*
X158300000Y-64800000D02*
X158300000Y-62500000D01*
X160300000Y-62500000D02*
X160300000Y-64800000D01*
X160300000Y-64800000D02*
X158300000Y-64800000D01*
D12*
%TO.C,C18*%
X152633767Y-99340000D02*
X152341233Y-99340000D01*
X152633767Y-100360000D02*
X152341233Y-100360000D01*
D11*
%TO.C,SW2*%
X174700000Y-53400000D02*
X174700000Y-52300000D01*
X175400000Y-51800000D02*
X178200000Y-51800000D01*
X178200000Y-54000000D02*
X175400000Y-54000000D01*
X178900000Y-52300000D02*
X178900000Y-53400000D01*
%TO.C,J1*%
X130450000Y-90700000D02*
X130450000Y-85900000D01*
X132250000Y-84700000D02*
X138450000Y-84700000D01*
X138450000Y-91900000D02*
X132250000Y-91900000D01*
X140250000Y-90700000D02*
X140250000Y-85900000D01*
D12*
%TO.C,D7*%
X127500000Y-102950000D02*
X127500000Y-98940000D01*
X129500000Y-98940000D02*
X127500000Y-98940000D01*
X129500000Y-102950000D02*
X129500000Y-98940000D01*
%TD*%
M02*
