%TF.GenerationSoftware,KiCad,Pcbnew,8.0.6*%
%TF.CreationDate,2024-11-09T23:45:23+09:00*%
%TF.ProjectId,PCB,5043422e-6b69-4636-9164-5f7063625858,rev?*%
%TF.SameCoordinates,Original*%
%TF.FileFunction,Legend,Bot*%
%TF.FilePolarity,Positive*%
%FSLAX46Y46*%
G04 Gerber Fmt 4.6, Leading zero omitted, Abs format (unit mm)*
G04 Created by KiCad (PCBNEW 8.0.6) date 2024-11-09 23:45:23*
%MOMM*%
%LPD*%
G01*
G04 APERTURE LIST*
%ADD10C,0.150000*%
%ADD11C,0.100000*%
%ADD12C,0.120000*%
G04 APERTURE END LIST*
D10*
X136545180Y-89311904D02*
X135735657Y-89311904D01*
X135735657Y-89311904D02*
X135640419Y-89264285D01*
X135640419Y-89264285D02*
X135592800Y-89216666D01*
X135592800Y-89216666D02*
X135545180Y-89121428D01*
X135545180Y-89121428D02*
X135545180Y-88930952D01*
X135545180Y-88930952D02*
X135592800Y-88835714D01*
X135592800Y-88835714D02*
X135640419Y-88788095D01*
X135640419Y-88788095D02*
X135735657Y-88740476D01*
X135735657Y-88740476D02*
X136545180Y-88740476D01*
X136211847Y-87835714D02*
X135545180Y-87835714D01*
X136592800Y-88073809D02*
X135878514Y-88311904D01*
X135878514Y-88311904D02*
X135878514Y-87692857D01*
X117366666Y-109559580D02*
X117414285Y-109607200D01*
X117414285Y-109607200D02*
X117557142Y-109654819D01*
X117557142Y-109654819D02*
X117652380Y-109654819D01*
X117652380Y-109654819D02*
X117795237Y-109607200D01*
X117795237Y-109607200D02*
X117890475Y-109511961D01*
X117890475Y-109511961D02*
X117938094Y-109416723D01*
X117938094Y-109416723D02*
X117985713Y-109226247D01*
X117985713Y-109226247D02*
X117985713Y-109083390D01*
X117985713Y-109083390D02*
X117938094Y-108892914D01*
X117938094Y-108892914D02*
X117890475Y-108797676D01*
X117890475Y-108797676D02*
X117795237Y-108702438D01*
X117795237Y-108702438D02*
X117652380Y-108654819D01*
X117652380Y-108654819D02*
X117557142Y-108654819D01*
X117557142Y-108654819D02*
X117414285Y-108702438D01*
X117414285Y-108702438D02*
X117366666Y-108750057D01*
X116985713Y-108750057D02*
X116938094Y-108702438D01*
X116938094Y-108702438D02*
X116842856Y-108654819D01*
X116842856Y-108654819D02*
X116604761Y-108654819D01*
X116604761Y-108654819D02*
X116509523Y-108702438D01*
X116509523Y-108702438D02*
X116461904Y-108750057D01*
X116461904Y-108750057D02*
X116414285Y-108845295D01*
X116414285Y-108845295D02*
X116414285Y-108940533D01*
X116414285Y-108940533D02*
X116461904Y-109083390D01*
X116461904Y-109083390D02*
X117033332Y-109654819D01*
X117033332Y-109654819D02*
X116414285Y-109654819D01*
X105666666Y-108209580D02*
X105714285Y-108257200D01*
X105714285Y-108257200D02*
X105857142Y-108304819D01*
X105857142Y-108304819D02*
X105952380Y-108304819D01*
X105952380Y-108304819D02*
X106095237Y-108257200D01*
X106095237Y-108257200D02*
X106190475Y-108161961D01*
X106190475Y-108161961D02*
X106238094Y-108066723D01*
X106238094Y-108066723D02*
X106285713Y-107876247D01*
X106285713Y-107876247D02*
X106285713Y-107733390D01*
X106285713Y-107733390D02*
X106238094Y-107542914D01*
X106238094Y-107542914D02*
X106190475Y-107447676D01*
X106190475Y-107447676D02*
X106095237Y-107352438D01*
X106095237Y-107352438D02*
X105952380Y-107304819D01*
X105952380Y-107304819D02*
X105857142Y-107304819D01*
X105857142Y-107304819D02*
X105714285Y-107352438D01*
X105714285Y-107352438D02*
X105666666Y-107400057D01*
X104714285Y-108304819D02*
X105285713Y-108304819D01*
X104999999Y-108304819D02*
X104999999Y-107304819D01*
X104999999Y-107304819D02*
X105095237Y-107447676D01*
X105095237Y-107447676D02*
X105190475Y-107542914D01*
X105190475Y-107542914D02*
X105285713Y-107590533D01*
X143859580Y-81083333D02*
X143907200Y-81035714D01*
X143907200Y-81035714D02*
X143954819Y-80892857D01*
X143954819Y-80892857D02*
X143954819Y-80797619D01*
X143954819Y-80797619D02*
X143907200Y-80654762D01*
X143907200Y-80654762D02*
X143811961Y-80559524D01*
X143811961Y-80559524D02*
X143716723Y-80511905D01*
X143716723Y-80511905D02*
X143526247Y-80464286D01*
X143526247Y-80464286D02*
X143383390Y-80464286D01*
X143383390Y-80464286D02*
X143192914Y-80511905D01*
X143192914Y-80511905D02*
X143097676Y-80559524D01*
X143097676Y-80559524D02*
X143002438Y-80654762D01*
X143002438Y-80654762D02*
X142954819Y-80797619D01*
X142954819Y-80797619D02*
X142954819Y-80892857D01*
X142954819Y-80892857D02*
X143002438Y-81035714D01*
X143002438Y-81035714D02*
X143050057Y-81083333D01*
X143383390Y-81654762D02*
X143335771Y-81559524D01*
X143335771Y-81559524D02*
X143288152Y-81511905D01*
X143288152Y-81511905D02*
X143192914Y-81464286D01*
X143192914Y-81464286D02*
X143145295Y-81464286D01*
X143145295Y-81464286D02*
X143050057Y-81511905D01*
X143050057Y-81511905D02*
X143002438Y-81559524D01*
X143002438Y-81559524D02*
X142954819Y-81654762D01*
X142954819Y-81654762D02*
X142954819Y-81845238D01*
X142954819Y-81845238D02*
X143002438Y-81940476D01*
X143002438Y-81940476D02*
X143050057Y-81988095D01*
X143050057Y-81988095D02*
X143145295Y-82035714D01*
X143145295Y-82035714D02*
X143192914Y-82035714D01*
X143192914Y-82035714D02*
X143288152Y-81988095D01*
X143288152Y-81988095D02*
X143335771Y-81940476D01*
X143335771Y-81940476D02*
X143383390Y-81845238D01*
X143383390Y-81845238D02*
X143383390Y-81654762D01*
X143383390Y-81654762D02*
X143431009Y-81559524D01*
X143431009Y-81559524D02*
X143478628Y-81511905D01*
X143478628Y-81511905D02*
X143573866Y-81464286D01*
X143573866Y-81464286D02*
X143764342Y-81464286D01*
X143764342Y-81464286D02*
X143859580Y-81511905D01*
X143859580Y-81511905D02*
X143907200Y-81559524D01*
X143907200Y-81559524D02*
X143954819Y-81654762D01*
X143954819Y-81654762D02*
X143954819Y-81845238D01*
X143954819Y-81845238D02*
X143907200Y-81940476D01*
X143907200Y-81940476D02*
X143859580Y-81988095D01*
X143859580Y-81988095D02*
X143764342Y-82035714D01*
X143764342Y-82035714D02*
X143573866Y-82035714D01*
X143573866Y-82035714D02*
X143478628Y-81988095D01*
X143478628Y-81988095D02*
X143431009Y-81940476D01*
X143431009Y-81940476D02*
X143383390Y-81845238D01*
X139816666Y-76909580D02*
X139864285Y-76957200D01*
X139864285Y-76957200D02*
X140007142Y-77004819D01*
X140007142Y-77004819D02*
X140102380Y-77004819D01*
X140102380Y-77004819D02*
X140245237Y-76957200D01*
X140245237Y-76957200D02*
X140340475Y-76861961D01*
X140340475Y-76861961D02*
X140388094Y-76766723D01*
X140388094Y-76766723D02*
X140435713Y-76576247D01*
X140435713Y-76576247D02*
X140435713Y-76433390D01*
X140435713Y-76433390D02*
X140388094Y-76242914D01*
X140388094Y-76242914D02*
X140340475Y-76147676D01*
X140340475Y-76147676D02*
X140245237Y-76052438D01*
X140245237Y-76052438D02*
X140102380Y-76004819D01*
X140102380Y-76004819D02*
X140007142Y-76004819D01*
X140007142Y-76004819D02*
X139864285Y-76052438D01*
X139864285Y-76052438D02*
X139816666Y-76100057D01*
X138959523Y-76338152D02*
X138959523Y-77004819D01*
X139197618Y-75957200D02*
X139435713Y-76671485D01*
X139435713Y-76671485D02*
X138816666Y-76671485D01*
X113134819Y-89857142D02*
X112658628Y-89523809D01*
X113134819Y-89285714D02*
X112134819Y-89285714D01*
X112134819Y-89285714D02*
X112134819Y-89666666D01*
X112134819Y-89666666D02*
X112182438Y-89761904D01*
X112182438Y-89761904D02*
X112230057Y-89809523D01*
X112230057Y-89809523D02*
X112325295Y-89857142D01*
X112325295Y-89857142D02*
X112468152Y-89857142D01*
X112468152Y-89857142D02*
X112563390Y-89809523D01*
X112563390Y-89809523D02*
X112611009Y-89761904D01*
X112611009Y-89761904D02*
X112658628Y-89666666D01*
X112658628Y-89666666D02*
X112658628Y-89285714D01*
X113134819Y-90809523D02*
X113134819Y-90238095D01*
X113134819Y-90523809D02*
X112134819Y-90523809D01*
X112134819Y-90523809D02*
X112277676Y-90428571D01*
X112277676Y-90428571D02*
X112372914Y-90333333D01*
X112372914Y-90333333D02*
X112420533Y-90238095D01*
X112134819Y-91428571D02*
X112134819Y-91523809D01*
X112134819Y-91523809D02*
X112182438Y-91619047D01*
X112182438Y-91619047D02*
X112230057Y-91666666D01*
X112230057Y-91666666D02*
X112325295Y-91714285D01*
X112325295Y-91714285D02*
X112515771Y-91761904D01*
X112515771Y-91761904D02*
X112753866Y-91761904D01*
X112753866Y-91761904D02*
X112944342Y-91714285D01*
X112944342Y-91714285D02*
X113039580Y-91666666D01*
X113039580Y-91666666D02*
X113087200Y-91619047D01*
X113087200Y-91619047D02*
X113134819Y-91523809D01*
X113134819Y-91523809D02*
X113134819Y-91428571D01*
X113134819Y-91428571D02*
X113087200Y-91333333D01*
X113087200Y-91333333D02*
X113039580Y-91285714D01*
X113039580Y-91285714D02*
X112944342Y-91238095D01*
X112944342Y-91238095D02*
X112753866Y-91190476D01*
X112753866Y-91190476D02*
X112515771Y-91190476D01*
X112515771Y-91190476D02*
X112325295Y-91238095D01*
X112325295Y-91238095D02*
X112230057Y-91285714D01*
X112230057Y-91285714D02*
X112182438Y-91333333D01*
X112182438Y-91333333D02*
X112134819Y-91428571D01*
X106238094Y-78454819D02*
X106238094Y-77454819D01*
X106238094Y-77454819D02*
X105999999Y-77454819D01*
X105999999Y-77454819D02*
X105857142Y-77502438D01*
X105857142Y-77502438D02*
X105761904Y-77597676D01*
X105761904Y-77597676D02*
X105714285Y-77692914D01*
X105714285Y-77692914D02*
X105666666Y-77883390D01*
X105666666Y-77883390D02*
X105666666Y-78026247D01*
X105666666Y-78026247D02*
X105714285Y-78216723D01*
X105714285Y-78216723D02*
X105761904Y-78311961D01*
X105761904Y-78311961D02*
X105857142Y-78407200D01*
X105857142Y-78407200D02*
X105999999Y-78454819D01*
X105999999Y-78454819D02*
X106238094Y-78454819D01*
X105333332Y-77454819D02*
X104714285Y-77454819D01*
X104714285Y-77454819D02*
X105047618Y-77835771D01*
X105047618Y-77835771D02*
X104904761Y-77835771D01*
X104904761Y-77835771D02*
X104809523Y-77883390D01*
X104809523Y-77883390D02*
X104761904Y-77931009D01*
X104761904Y-77931009D02*
X104714285Y-78026247D01*
X104714285Y-78026247D02*
X104714285Y-78264342D01*
X104714285Y-78264342D02*
X104761904Y-78359580D01*
X104761904Y-78359580D02*
X104809523Y-78407200D01*
X104809523Y-78407200D02*
X104904761Y-78454819D01*
X104904761Y-78454819D02*
X105190475Y-78454819D01*
X105190475Y-78454819D02*
X105285713Y-78407200D01*
X105285713Y-78407200D02*
X105333332Y-78359580D01*
X144859580Y-95333333D02*
X144907200Y-95285714D01*
X144907200Y-95285714D02*
X144954819Y-95142857D01*
X144954819Y-95142857D02*
X144954819Y-95047619D01*
X144954819Y-95047619D02*
X144907200Y-94904762D01*
X144907200Y-94904762D02*
X144811961Y-94809524D01*
X144811961Y-94809524D02*
X144716723Y-94761905D01*
X144716723Y-94761905D02*
X144526247Y-94714286D01*
X144526247Y-94714286D02*
X144383390Y-94714286D01*
X144383390Y-94714286D02*
X144192914Y-94761905D01*
X144192914Y-94761905D02*
X144097676Y-94809524D01*
X144097676Y-94809524D02*
X144002438Y-94904762D01*
X144002438Y-94904762D02*
X143954819Y-95047619D01*
X143954819Y-95047619D02*
X143954819Y-95142857D01*
X143954819Y-95142857D02*
X144002438Y-95285714D01*
X144002438Y-95285714D02*
X144050057Y-95333333D01*
X144954819Y-95809524D02*
X144954819Y-96000000D01*
X144954819Y-96000000D02*
X144907200Y-96095238D01*
X144907200Y-96095238D02*
X144859580Y-96142857D01*
X144859580Y-96142857D02*
X144716723Y-96238095D01*
X144716723Y-96238095D02*
X144526247Y-96285714D01*
X144526247Y-96285714D02*
X144145295Y-96285714D01*
X144145295Y-96285714D02*
X144050057Y-96238095D01*
X144050057Y-96238095D02*
X144002438Y-96190476D01*
X144002438Y-96190476D02*
X143954819Y-96095238D01*
X143954819Y-96095238D02*
X143954819Y-95904762D01*
X143954819Y-95904762D02*
X144002438Y-95809524D01*
X144002438Y-95809524D02*
X144050057Y-95761905D01*
X144050057Y-95761905D02*
X144145295Y-95714286D01*
X144145295Y-95714286D02*
X144383390Y-95714286D01*
X144383390Y-95714286D02*
X144478628Y-95761905D01*
X144478628Y-95761905D02*
X144526247Y-95809524D01*
X144526247Y-95809524D02*
X144573866Y-95904762D01*
X144573866Y-95904762D02*
X144573866Y-96095238D01*
X144573866Y-96095238D02*
X144526247Y-96190476D01*
X144526247Y-96190476D02*
X144478628Y-96238095D01*
X144478628Y-96238095D02*
X144383390Y-96285714D01*
X99166666Y-71954819D02*
X99499999Y-71478628D01*
X99738094Y-71954819D02*
X99738094Y-70954819D01*
X99738094Y-70954819D02*
X99357142Y-70954819D01*
X99357142Y-70954819D02*
X99261904Y-71002438D01*
X99261904Y-71002438D02*
X99214285Y-71050057D01*
X99214285Y-71050057D02*
X99166666Y-71145295D01*
X99166666Y-71145295D02*
X99166666Y-71288152D01*
X99166666Y-71288152D02*
X99214285Y-71383390D01*
X99214285Y-71383390D02*
X99261904Y-71431009D01*
X99261904Y-71431009D02*
X99357142Y-71478628D01*
X99357142Y-71478628D02*
X99738094Y-71478628D01*
X98833332Y-70954819D02*
X98166666Y-70954819D01*
X98166666Y-70954819D02*
X98595237Y-71954819D01*
X109166666Y-78454819D02*
X109499999Y-77978628D01*
X109738094Y-78454819D02*
X109738094Y-77454819D01*
X109738094Y-77454819D02*
X109357142Y-77454819D01*
X109357142Y-77454819D02*
X109261904Y-77502438D01*
X109261904Y-77502438D02*
X109214285Y-77550057D01*
X109214285Y-77550057D02*
X109166666Y-77645295D01*
X109166666Y-77645295D02*
X109166666Y-77788152D01*
X109166666Y-77788152D02*
X109214285Y-77883390D01*
X109214285Y-77883390D02*
X109261904Y-77931009D01*
X109261904Y-77931009D02*
X109357142Y-77978628D01*
X109357142Y-77978628D02*
X109738094Y-77978628D01*
X108309523Y-77454819D02*
X108499999Y-77454819D01*
X108499999Y-77454819D02*
X108595237Y-77502438D01*
X108595237Y-77502438D02*
X108642856Y-77550057D01*
X108642856Y-77550057D02*
X108738094Y-77692914D01*
X108738094Y-77692914D02*
X108785713Y-77883390D01*
X108785713Y-77883390D02*
X108785713Y-78264342D01*
X108785713Y-78264342D02*
X108738094Y-78359580D01*
X108738094Y-78359580D02*
X108690475Y-78407200D01*
X108690475Y-78407200D02*
X108595237Y-78454819D01*
X108595237Y-78454819D02*
X108404761Y-78454819D01*
X108404761Y-78454819D02*
X108309523Y-78407200D01*
X108309523Y-78407200D02*
X108261904Y-78359580D01*
X108261904Y-78359580D02*
X108214285Y-78264342D01*
X108214285Y-78264342D02*
X108214285Y-78026247D01*
X108214285Y-78026247D02*
X108261904Y-77931009D01*
X108261904Y-77931009D02*
X108309523Y-77883390D01*
X108309523Y-77883390D02*
X108404761Y-77835771D01*
X108404761Y-77835771D02*
X108595237Y-77835771D01*
X108595237Y-77835771D02*
X108690475Y-77883390D01*
X108690475Y-77883390D02*
X108738094Y-77931009D01*
X108738094Y-77931009D02*
X108785713Y-78026247D01*
X100666666Y-89042319D02*
X100999999Y-88566128D01*
X101238094Y-89042319D02*
X101238094Y-88042319D01*
X101238094Y-88042319D02*
X100857142Y-88042319D01*
X100857142Y-88042319D02*
X100761904Y-88089938D01*
X100761904Y-88089938D02*
X100714285Y-88137557D01*
X100714285Y-88137557D02*
X100666666Y-88232795D01*
X100666666Y-88232795D02*
X100666666Y-88375652D01*
X100666666Y-88375652D02*
X100714285Y-88470890D01*
X100714285Y-88470890D02*
X100761904Y-88518509D01*
X100761904Y-88518509D02*
X100857142Y-88566128D01*
X100857142Y-88566128D02*
X101238094Y-88566128D01*
X100285713Y-88137557D02*
X100238094Y-88089938D01*
X100238094Y-88089938D02*
X100142856Y-88042319D01*
X100142856Y-88042319D02*
X99904761Y-88042319D01*
X99904761Y-88042319D02*
X99809523Y-88089938D01*
X99809523Y-88089938D02*
X99761904Y-88137557D01*
X99761904Y-88137557D02*
X99714285Y-88232795D01*
X99714285Y-88232795D02*
X99714285Y-88328033D01*
X99714285Y-88328033D02*
X99761904Y-88470890D01*
X99761904Y-88470890D02*
X100333332Y-89042319D01*
X100333332Y-89042319D02*
X99714285Y-89042319D01*
X137454819Y-91857142D02*
X136978628Y-91523809D01*
X137454819Y-91285714D02*
X136454819Y-91285714D01*
X136454819Y-91285714D02*
X136454819Y-91666666D01*
X136454819Y-91666666D02*
X136502438Y-91761904D01*
X136502438Y-91761904D02*
X136550057Y-91809523D01*
X136550057Y-91809523D02*
X136645295Y-91857142D01*
X136645295Y-91857142D02*
X136788152Y-91857142D01*
X136788152Y-91857142D02*
X136883390Y-91809523D01*
X136883390Y-91809523D02*
X136931009Y-91761904D01*
X136931009Y-91761904D02*
X136978628Y-91666666D01*
X136978628Y-91666666D02*
X136978628Y-91285714D01*
X137454819Y-92809523D02*
X137454819Y-92238095D01*
X137454819Y-92523809D02*
X136454819Y-92523809D01*
X136454819Y-92523809D02*
X136597676Y-92428571D01*
X136597676Y-92428571D02*
X136692914Y-92333333D01*
X136692914Y-92333333D02*
X136740533Y-92238095D01*
X137454819Y-93761904D02*
X137454819Y-93190476D01*
X137454819Y-93476190D02*
X136454819Y-93476190D01*
X136454819Y-93476190D02*
X136597676Y-93380952D01*
X136597676Y-93380952D02*
X136692914Y-93285714D01*
X136692914Y-93285714D02*
X136740533Y-93190476D01*
X153204819Y-95357142D02*
X152728628Y-95023809D01*
X153204819Y-94785714D02*
X152204819Y-94785714D01*
X152204819Y-94785714D02*
X152204819Y-95166666D01*
X152204819Y-95166666D02*
X152252438Y-95261904D01*
X152252438Y-95261904D02*
X152300057Y-95309523D01*
X152300057Y-95309523D02*
X152395295Y-95357142D01*
X152395295Y-95357142D02*
X152538152Y-95357142D01*
X152538152Y-95357142D02*
X152633390Y-95309523D01*
X152633390Y-95309523D02*
X152681009Y-95261904D01*
X152681009Y-95261904D02*
X152728628Y-95166666D01*
X152728628Y-95166666D02*
X152728628Y-94785714D01*
X153204819Y-96309523D02*
X153204819Y-95738095D01*
X153204819Y-96023809D02*
X152204819Y-96023809D01*
X152204819Y-96023809D02*
X152347676Y-95928571D01*
X152347676Y-95928571D02*
X152442914Y-95833333D01*
X152442914Y-95833333D02*
X152490533Y-95738095D01*
X152300057Y-96690476D02*
X152252438Y-96738095D01*
X152252438Y-96738095D02*
X152204819Y-96833333D01*
X152204819Y-96833333D02*
X152204819Y-97071428D01*
X152204819Y-97071428D02*
X152252438Y-97166666D01*
X152252438Y-97166666D02*
X152300057Y-97214285D01*
X152300057Y-97214285D02*
X152395295Y-97261904D01*
X152395295Y-97261904D02*
X152490533Y-97261904D01*
X152490533Y-97261904D02*
X152633390Y-97214285D01*
X152633390Y-97214285D02*
X153204819Y-96642857D01*
X153204819Y-96642857D02*
X153204819Y-97261904D01*
X113386904Y-103909819D02*
X113386904Y-104719342D01*
X113386904Y-104719342D02*
X113339285Y-104814580D01*
X113339285Y-104814580D02*
X113291666Y-104862200D01*
X113291666Y-104862200D02*
X113196428Y-104909819D01*
X113196428Y-104909819D02*
X113005952Y-104909819D01*
X113005952Y-104909819D02*
X112910714Y-104862200D01*
X112910714Y-104862200D02*
X112863095Y-104814580D01*
X112863095Y-104814580D02*
X112815476Y-104719342D01*
X112815476Y-104719342D02*
X112815476Y-103909819D01*
X112434523Y-103909819D02*
X111815476Y-103909819D01*
X111815476Y-103909819D02*
X112148809Y-104290771D01*
X112148809Y-104290771D02*
X112005952Y-104290771D01*
X112005952Y-104290771D02*
X111910714Y-104338390D01*
X111910714Y-104338390D02*
X111863095Y-104386009D01*
X111863095Y-104386009D02*
X111815476Y-104481247D01*
X111815476Y-104481247D02*
X111815476Y-104719342D01*
X111815476Y-104719342D02*
X111863095Y-104814580D01*
X111863095Y-104814580D02*
X111910714Y-104862200D01*
X111910714Y-104862200D02*
X112005952Y-104909819D01*
X112005952Y-104909819D02*
X112291666Y-104909819D01*
X112291666Y-104909819D02*
X112386904Y-104862200D01*
X112386904Y-104862200D02*
X112434523Y-104814580D01*
X143642857Y-89359580D02*
X143690476Y-89407200D01*
X143690476Y-89407200D02*
X143833333Y-89454819D01*
X143833333Y-89454819D02*
X143928571Y-89454819D01*
X143928571Y-89454819D02*
X144071428Y-89407200D01*
X144071428Y-89407200D02*
X144166666Y-89311961D01*
X144166666Y-89311961D02*
X144214285Y-89216723D01*
X144214285Y-89216723D02*
X144261904Y-89026247D01*
X144261904Y-89026247D02*
X144261904Y-88883390D01*
X144261904Y-88883390D02*
X144214285Y-88692914D01*
X144214285Y-88692914D02*
X144166666Y-88597676D01*
X144166666Y-88597676D02*
X144071428Y-88502438D01*
X144071428Y-88502438D02*
X143928571Y-88454819D01*
X143928571Y-88454819D02*
X143833333Y-88454819D01*
X143833333Y-88454819D02*
X143690476Y-88502438D01*
X143690476Y-88502438D02*
X143642857Y-88550057D01*
X142690476Y-89454819D02*
X143261904Y-89454819D01*
X142976190Y-89454819D02*
X142976190Y-88454819D01*
X142976190Y-88454819D02*
X143071428Y-88597676D01*
X143071428Y-88597676D02*
X143166666Y-88692914D01*
X143166666Y-88692914D02*
X143261904Y-88740533D01*
X142071428Y-88454819D02*
X141976190Y-88454819D01*
X141976190Y-88454819D02*
X141880952Y-88502438D01*
X141880952Y-88502438D02*
X141833333Y-88550057D01*
X141833333Y-88550057D02*
X141785714Y-88645295D01*
X141785714Y-88645295D02*
X141738095Y-88835771D01*
X141738095Y-88835771D02*
X141738095Y-89073866D01*
X141738095Y-89073866D02*
X141785714Y-89264342D01*
X141785714Y-89264342D02*
X141833333Y-89359580D01*
X141833333Y-89359580D02*
X141880952Y-89407200D01*
X141880952Y-89407200D02*
X141976190Y-89454819D01*
X141976190Y-89454819D02*
X142071428Y-89454819D01*
X142071428Y-89454819D02*
X142166666Y-89407200D01*
X142166666Y-89407200D02*
X142214285Y-89359580D01*
X142214285Y-89359580D02*
X142261904Y-89264342D01*
X142261904Y-89264342D02*
X142309523Y-89073866D01*
X142309523Y-89073866D02*
X142309523Y-88835771D01*
X142309523Y-88835771D02*
X142261904Y-88645295D01*
X142261904Y-88645295D02*
X142214285Y-88550057D01*
X142214285Y-88550057D02*
X142166666Y-88502438D01*
X142166666Y-88502438D02*
X142071428Y-88454819D01*
X105666666Y-82859580D02*
X105714285Y-82907200D01*
X105714285Y-82907200D02*
X105857142Y-82954819D01*
X105857142Y-82954819D02*
X105952380Y-82954819D01*
X105952380Y-82954819D02*
X106095237Y-82907200D01*
X106095237Y-82907200D02*
X106190475Y-82811961D01*
X106190475Y-82811961D02*
X106238094Y-82716723D01*
X106238094Y-82716723D02*
X106285713Y-82526247D01*
X106285713Y-82526247D02*
X106285713Y-82383390D01*
X106285713Y-82383390D02*
X106238094Y-82192914D01*
X106238094Y-82192914D02*
X106190475Y-82097676D01*
X106190475Y-82097676D02*
X106095237Y-82002438D01*
X106095237Y-82002438D02*
X105952380Y-81954819D01*
X105952380Y-81954819D02*
X105857142Y-81954819D01*
X105857142Y-81954819D02*
X105714285Y-82002438D01*
X105714285Y-82002438D02*
X105666666Y-82050057D01*
X105333332Y-81954819D02*
X104714285Y-81954819D01*
X104714285Y-81954819D02*
X105047618Y-82335771D01*
X105047618Y-82335771D02*
X104904761Y-82335771D01*
X104904761Y-82335771D02*
X104809523Y-82383390D01*
X104809523Y-82383390D02*
X104761904Y-82431009D01*
X104761904Y-82431009D02*
X104714285Y-82526247D01*
X104714285Y-82526247D02*
X104714285Y-82764342D01*
X104714285Y-82764342D02*
X104761904Y-82859580D01*
X104761904Y-82859580D02*
X104809523Y-82907200D01*
X104809523Y-82907200D02*
X104904761Y-82954819D01*
X104904761Y-82954819D02*
X105190475Y-82954819D01*
X105190475Y-82954819D02*
X105285713Y-82907200D01*
X105285713Y-82907200D02*
X105333332Y-82859580D01*
X93595238Y-74950057D02*
X93690476Y-74902438D01*
X93690476Y-74902438D02*
X93785714Y-74807200D01*
X93785714Y-74807200D02*
X93928571Y-74664342D01*
X93928571Y-74664342D02*
X94023809Y-74616723D01*
X94023809Y-74616723D02*
X94119047Y-74616723D01*
X94071428Y-74854819D02*
X94166666Y-74807200D01*
X94166666Y-74807200D02*
X94261904Y-74711961D01*
X94261904Y-74711961D02*
X94309523Y-74521485D01*
X94309523Y-74521485D02*
X94309523Y-74188152D01*
X94309523Y-74188152D02*
X94261904Y-73997676D01*
X94261904Y-73997676D02*
X94166666Y-73902438D01*
X94166666Y-73902438D02*
X94071428Y-73854819D01*
X94071428Y-73854819D02*
X93880952Y-73854819D01*
X93880952Y-73854819D02*
X93785714Y-73902438D01*
X93785714Y-73902438D02*
X93690476Y-73997676D01*
X93690476Y-73997676D02*
X93642857Y-74188152D01*
X93642857Y-74188152D02*
X93642857Y-74521485D01*
X93642857Y-74521485D02*
X93690476Y-74711961D01*
X93690476Y-74711961D02*
X93785714Y-74807200D01*
X93785714Y-74807200D02*
X93880952Y-74854819D01*
X93880952Y-74854819D02*
X94071428Y-74854819D01*
X93261904Y-73950057D02*
X93214285Y-73902438D01*
X93214285Y-73902438D02*
X93119047Y-73854819D01*
X93119047Y-73854819D02*
X92880952Y-73854819D01*
X92880952Y-73854819D02*
X92785714Y-73902438D01*
X92785714Y-73902438D02*
X92738095Y-73950057D01*
X92738095Y-73950057D02*
X92690476Y-74045295D01*
X92690476Y-74045295D02*
X92690476Y-74140533D01*
X92690476Y-74140533D02*
X92738095Y-74283390D01*
X92738095Y-74283390D02*
X93309523Y-74854819D01*
X93309523Y-74854819D02*
X92690476Y-74854819D01*
X94454819Y-86738095D02*
X95264342Y-86738095D01*
X95264342Y-86738095D02*
X95359580Y-86785714D01*
X95359580Y-86785714D02*
X95407200Y-86833333D01*
X95407200Y-86833333D02*
X95454819Y-86928571D01*
X95454819Y-86928571D02*
X95454819Y-87119047D01*
X95454819Y-87119047D02*
X95407200Y-87214285D01*
X95407200Y-87214285D02*
X95359580Y-87261904D01*
X95359580Y-87261904D02*
X95264342Y-87309523D01*
X95264342Y-87309523D02*
X94454819Y-87309523D01*
X94550057Y-87738095D02*
X94502438Y-87785714D01*
X94502438Y-87785714D02*
X94454819Y-87880952D01*
X94454819Y-87880952D02*
X94454819Y-88119047D01*
X94454819Y-88119047D02*
X94502438Y-88214285D01*
X94502438Y-88214285D02*
X94550057Y-88261904D01*
X94550057Y-88261904D02*
X94645295Y-88309523D01*
X94645295Y-88309523D02*
X94740533Y-88309523D01*
X94740533Y-88309523D02*
X94883390Y-88261904D01*
X94883390Y-88261904D02*
X95454819Y-87690476D01*
X95454819Y-87690476D02*
X95454819Y-88309523D01*
X111616666Y-78274819D02*
X111949999Y-77798628D01*
X112188094Y-78274819D02*
X112188094Y-77274819D01*
X112188094Y-77274819D02*
X111807142Y-77274819D01*
X111807142Y-77274819D02*
X111711904Y-77322438D01*
X111711904Y-77322438D02*
X111664285Y-77370057D01*
X111664285Y-77370057D02*
X111616666Y-77465295D01*
X111616666Y-77465295D02*
X111616666Y-77608152D01*
X111616666Y-77608152D02*
X111664285Y-77703390D01*
X111664285Y-77703390D02*
X111711904Y-77751009D01*
X111711904Y-77751009D02*
X111807142Y-77798628D01*
X111807142Y-77798628D02*
X112188094Y-77798628D01*
X111283332Y-77274819D02*
X110664285Y-77274819D01*
X110664285Y-77274819D02*
X110997618Y-77655771D01*
X110997618Y-77655771D02*
X110854761Y-77655771D01*
X110854761Y-77655771D02*
X110759523Y-77703390D01*
X110759523Y-77703390D02*
X110711904Y-77751009D01*
X110711904Y-77751009D02*
X110664285Y-77846247D01*
X110664285Y-77846247D02*
X110664285Y-78084342D01*
X110664285Y-78084342D02*
X110711904Y-78179580D01*
X110711904Y-78179580D02*
X110759523Y-78227200D01*
X110759523Y-78227200D02*
X110854761Y-78274819D01*
X110854761Y-78274819D02*
X111140475Y-78274819D01*
X111140475Y-78274819D02*
X111235713Y-78227200D01*
X111235713Y-78227200D02*
X111283332Y-78179580D01*
X137909580Y-73833333D02*
X137957200Y-73785714D01*
X137957200Y-73785714D02*
X138004819Y-73642857D01*
X138004819Y-73642857D02*
X138004819Y-73547619D01*
X138004819Y-73547619D02*
X137957200Y-73404762D01*
X137957200Y-73404762D02*
X137861961Y-73309524D01*
X137861961Y-73309524D02*
X137766723Y-73261905D01*
X137766723Y-73261905D02*
X137576247Y-73214286D01*
X137576247Y-73214286D02*
X137433390Y-73214286D01*
X137433390Y-73214286D02*
X137242914Y-73261905D01*
X137242914Y-73261905D02*
X137147676Y-73309524D01*
X137147676Y-73309524D02*
X137052438Y-73404762D01*
X137052438Y-73404762D02*
X137004819Y-73547619D01*
X137004819Y-73547619D02*
X137004819Y-73642857D01*
X137004819Y-73642857D02*
X137052438Y-73785714D01*
X137052438Y-73785714D02*
X137100057Y-73833333D01*
X137004819Y-74738095D02*
X137004819Y-74261905D01*
X137004819Y-74261905D02*
X137481009Y-74214286D01*
X137481009Y-74214286D02*
X137433390Y-74261905D01*
X137433390Y-74261905D02*
X137385771Y-74357143D01*
X137385771Y-74357143D02*
X137385771Y-74595238D01*
X137385771Y-74595238D02*
X137433390Y-74690476D01*
X137433390Y-74690476D02*
X137481009Y-74738095D01*
X137481009Y-74738095D02*
X137576247Y-74785714D01*
X137576247Y-74785714D02*
X137814342Y-74785714D01*
X137814342Y-74785714D02*
X137909580Y-74738095D01*
X137909580Y-74738095D02*
X137957200Y-74690476D01*
X137957200Y-74690476D02*
X138004819Y-74595238D01*
X138004819Y-74595238D02*
X138004819Y-74357143D01*
X138004819Y-74357143D02*
X137957200Y-74261905D01*
X137957200Y-74261905D02*
X137909580Y-74214286D01*
X96345238Y-75000057D02*
X96440476Y-74952438D01*
X96440476Y-74952438D02*
X96535714Y-74857200D01*
X96535714Y-74857200D02*
X96678571Y-74714342D01*
X96678571Y-74714342D02*
X96773809Y-74666723D01*
X96773809Y-74666723D02*
X96869047Y-74666723D01*
X96821428Y-74904819D02*
X96916666Y-74857200D01*
X96916666Y-74857200D02*
X97011904Y-74761961D01*
X97011904Y-74761961D02*
X97059523Y-74571485D01*
X97059523Y-74571485D02*
X97059523Y-74238152D01*
X97059523Y-74238152D02*
X97011904Y-74047676D01*
X97011904Y-74047676D02*
X96916666Y-73952438D01*
X96916666Y-73952438D02*
X96821428Y-73904819D01*
X96821428Y-73904819D02*
X96630952Y-73904819D01*
X96630952Y-73904819D02*
X96535714Y-73952438D01*
X96535714Y-73952438D02*
X96440476Y-74047676D01*
X96440476Y-74047676D02*
X96392857Y-74238152D01*
X96392857Y-74238152D02*
X96392857Y-74571485D01*
X96392857Y-74571485D02*
X96440476Y-74761961D01*
X96440476Y-74761961D02*
X96535714Y-74857200D01*
X96535714Y-74857200D02*
X96630952Y-74904819D01*
X96630952Y-74904819D02*
X96821428Y-74904819D01*
X95440476Y-74904819D02*
X96011904Y-74904819D01*
X95726190Y-74904819D02*
X95726190Y-73904819D01*
X95726190Y-73904819D02*
X95821428Y-74047676D01*
X95821428Y-74047676D02*
X95916666Y-74142914D01*
X95916666Y-74142914D02*
X96011904Y-74190533D01*
X143859580Y-79083333D02*
X143907200Y-79035714D01*
X143907200Y-79035714D02*
X143954819Y-78892857D01*
X143954819Y-78892857D02*
X143954819Y-78797619D01*
X143954819Y-78797619D02*
X143907200Y-78654762D01*
X143907200Y-78654762D02*
X143811961Y-78559524D01*
X143811961Y-78559524D02*
X143716723Y-78511905D01*
X143716723Y-78511905D02*
X143526247Y-78464286D01*
X143526247Y-78464286D02*
X143383390Y-78464286D01*
X143383390Y-78464286D02*
X143192914Y-78511905D01*
X143192914Y-78511905D02*
X143097676Y-78559524D01*
X143097676Y-78559524D02*
X143002438Y-78654762D01*
X143002438Y-78654762D02*
X142954819Y-78797619D01*
X142954819Y-78797619D02*
X142954819Y-78892857D01*
X142954819Y-78892857D02*
X143002438Y-79035714D01*
X143002438Y-79035714D02*
X143050057Y-79083333D01*
X142954819Y-79416667D02*
X142954819Y-80083333D01*
X142954819Y-80083333D02*
X143954819Y-79654762D01*
X91454819Y-72283333D02*
X90978628Y-71950000D01*
X91454819Y-71711905D02*
X90454819Y-71711905D01*
X90454819Y-71711905D02*
X90454819Y-72092857D01*
X90454819Y-72092857D02*
X90502438Y-72188095D01*
X90502438Y-72188095D02*
X90550057Y-72235714D01*
X90550057Y-72235714D02*
X90645295Y-72283333D01*
X90645295Y-72283333D02*
X90788152Y-72283333D01*
X90788152Y-72283333D02*
X90883390Y-72235714D01*
X90883390Y-72235714D02*
X90931009Y-72188095D01*
X90931009Y-72188095D02*
X90978628Y-72092857D01*
X90978628Y-72092857D02*
X90978628Y-71711905D01*
X90883390Y-72854762D02*
X90835771Y-72759524D01*
X90835771Y-72759524D02*
X90788152Y-72711905D01*
X90788152Y-72711905D02*
X90692914Y-72664286D01*
X90692914Y-72664286D02*
X90645295Y-72664286D01*
X90645295Y-72664286D02*
X90550057Y-72711905D01*
X90550057Y-72711905D02*
X90502438Y-72759524D01*
X90502438Y-72759524D02*
X90454819Y-72854762D01*
X90454819Y-72854762D02*
X90454819Y-73045238D01*
X90454819Y-73045238D02*
X90502438Y-73140476D01*
X90502438Y-73140476D02*
X90550057Y-73188095D01*
X90550057Y-73188095D02*
X90645295Y-73235714D01*
X90645295Y-73235714D02*
X90692914Y-73235714D01*
X90692914Y-73235714D02*
X90788152Y-73188095D01*
X90788152Y-73188095D02*
X90835771Y-73140476D01*
X90835771Y-73140476D02*
X90883390Y-73045238D01*
X90883390Y-73045238D02*
X90883390Y-72854762D01*
X90883390Y-72854762D02*
X90931009Y-72759524D01*
X90931009Y-72759524D02*
X90978628Y-72711905D01*
X90978628Y-72711905D02*
X91073866Y-72664286D01*
X91073866Y-72664286D02*
X91264342Y-72664286D01*
X91264342Y-72664286D02*
X91359580Y-72711905D01*
X91359580Y-72711905D02*
X91407200Y-72759524D01*
X91407200Y-72759524D02*
X91454819Y-72854762D01*
X91454819Y-72854762D02*
X91454819Y-73045238D01*
X91454819Y-73045238D02*
X91407200Y-73140476D01*
X91407200Y-73140476D02*
X91359580Y-73188095D01*
X91359580Y-73188095D02*
X91264342Y-73235714D01*
X91264342Y-73235714D02*
X91073866Y-73235714D01*
X91073866Y-73235714D02*
X90978628Y-73188095D01*
X90978628Y-73188095D02*
X90931009Y-73140476D01*
X90931009Y-73140476D02*
X90883390Y-73045238D01*
D11*
X138276190Y-78681228D02*
X138276190Y-79157419D01*
X138609523Y-78157419D02*
X138276190Y-78681228D01*
X138276190Y-78681228D02*
X137942857Y-78157419D01*
X137085714Y-79157419D02*
X137657142Y-79157419D01*
X137371428Y-79157419D02*
X137371428Y-78157419D01*
X137371428Y-78157419D02*
X137466666Y-78300276D01*
X137466666Y-78300276D02*
X137561904Y-78395514D01*
X137561904Y-78395514D02*
X137657142Y-78443133D01*
D12*
%TO.C,U4*%
X116300000Y-89100000D02*
X116300000Y-90100000D01*
X117800000Y-90100000D02*
X116300000Y-90100000D01*
X133200000Y-90100000D02*
X134700000Y-90100000D01*
X134700000Y-90100000D02*
X134700000Y-89100000D01*
X135200000Y-71125000D02*
X134700000Y-71125000D01*
X134700000Y-70625000D01*
X135200000Y-71125000D01*
G36*
X135200000Y-71125000D02*
G01*
X134700000Y-71125000D01*
X134700000Y-70625000D01*
X135200000Y-71125000D01*
G37*
%TO.C,C8*%
X141283767Y-81790000D02*
X140991233Y-81790000D01*
X141283767Y-82810000D02*
X140991233Y-82810000D01*
%TO.C,C4*%
X138765000Y-73738748D02*
X138765000Y-74261252D01*
X140235000Y-73738748D02*
X140235000Y-74261252D01*
%TO.C,R10*%
X113590000Y-91227064D02*
X113590000Y-89772936D01*
X115410000Y-91227064D02*
X115410000Y-89772936D01*
%TO.C,D3*%
X103965000Y-78765000D02*
X103965000Y-80235000D01*
X103965000Y-80235000D02*
X106425000Y-80235000D01*
X106425000Y-78765000D02*
X103965000Y-78765000D01*
%TO.C,C9*%
X141991233Y-94990000D02*
X142283767Y-94990000D01*
X141991233Y-96010000D02*
X142283767Y-96010000D01*
%TO.C,R7*%
X98090000Y-73722936D02*
X98090000Y-75177064D01*
X99910000Y-73722936D02*
X99910000Y-75177064D01*
%TO.C,R6*%
X108090000Y-81727064D02*
X108090000Y-80272936D01*
X109910000Y-81727064D02*
X109910000Y-80272936D01*
%TO.C,R2*%
X99977500Y-90832776D02*
X99977500Y-91342224D01*
X101022500Y-90832776D02*
X101022500Y-91342224D01*
%TO.C,R11*%
X132722936Y-91590000D02*
X134177064Y-91590000D01*
X132722936Y-93410000D02*
X134177064Y-93410000D01*
%TO.C,R12*%
X148772936Y-95090000D02*
X150227064Y-95090000D01*
X148772936Y-96910000D02*
X150227064Y-96910000D01*
%TO.C,U3*%
X110625000Y-105295000D02*
X112625000Y-105295000D01*
X110625000Y-110515000D02*
X112625000Y-110515000D01*
X114625000Y-105295000D02*
X112625000Y-105295000D01*
X114625000Y-110515000D02*
X112625000Y-110515000D01*
X115350000Y-105440000D02*
X115110000Y-105110000D01*
X115590000Y-105110000D01*
X115350000Y-105440000D01*
G36*
X115350000Y-105440000D02*
G01*
X115110000Y-105110000D01*
X115590000Y-105110000D01*
X115350000Y-105440000D01*
G37*
%TO.C,C10*%
X143283767Y-89990000D02*
X142991233Y-89990000D01*
X143283767Y-91010000D02*
X142991233Y-91010000D01*
%TO.C,C3*%
X104765000Y-84776248D02*
X104765000Y-85298752D01*
X106235000Y-84776248D02*
X106235000Y-85298752D01*
%TO.C,Q2*%
X92330000Y-78405000D02*
X92330000Y-76995000D01*
X93000000Y-78405000D02*
X92330000Y-78405000D01*
X94660000Y-78405000D02*
X94000000Y-78405000D01*
X94660000Y-78405000D02*
X94660000Y-76995000D01*
X92350000Y-76625000D02*
X92020000Y-76865000D01*
X92020000Y-76385000D01*
X92350000Y-76625000D01*
G36*
X92350000Y-76625000D02*
G01*
X92020000Y-76865000D01*
X92020000Y-76385000D01*
X92350000Y-76625000D01*
G37*
D10*
%TO.C,U2*%
X94882500Y-82325000D02*
X95992500Y-82325000D01*
X94882500Y-86475000D02*
X94882500Y-82325000D01*
X95992500Y-86475000D02*
X94882500Y-86475000D01*
X102722500Y-82325000D02*
X103832500Y-82325000D01*
X102722500Y-86475000D02*
X103832500Y-86475000D01*
X103832500Y-86475000D02*
X103832500Y-82325000D01*
D12*
X95992500Y-81762500D02*
X95662500Y-82002500D01*
X95662500Y-81522500D01*
X95992500Y-81762500D01*
G36*
X95992500Y-81762500D02*
G01*
X95662500Y-82002500D01*
X95662500Y-81522500D01*
X95992500Y-81762500D01*
G37*
%TO.C,R3*%
X112177064Y-75090000D02*
X110722936Y-75090000D01*
X112177064Y-76910000D02*
X110722936Y-76910000D01*
%TO.C,Q1*%
X95230000Y-78415000D02*
X95230000Y-77005000D01*
X95900000Y-78415000D02*
X95230000Y-78415000D01*
X97560000Y-78415000D02*
X96900000Y-78415000D01*
X97560000Y-78415000D02*
X97560000Y-77005000D01*
X95250000Y-76635000D02*
X94920000Y-76875000D01*
X94920000Y-76395000D01*
X95250000Y-76635000D01*
G36*
X95250000Y-76635000D02*
G01*
X94920000Y-76875000D01*
X94920000Y-76395000D01*
X95250000Y-76635000D01*
G37*
%TO.C,C7*%
X141283767Y-79690000D02*
X140991233Y-79690000D01*
X141283767Y-80710000D02*
X140991233Y-80710000D01*
%TO.C,R8*%
X95177064Y-71590000D02*
X93722936Y-71590000D01*
X95177064Y-73410000D02*
X93722936Y-73410000D01*
D11*
%TO.C,Y1*%
X136800000Y-79950000D02*
X138800000Y-79950000D01*
X136800000Y-82250000D02*
X136800000Y-79950000D01*
X138800000Y-79950000D02*
X138800000Y-82250000D01*
X138800000Y-82250000D02*
X136800000Y-82250000D01*
%TD*%
M02*
