%TF.GenerationSoftware,KiCad,Pcbnew,8.0.8*%
%TF.CreationDate,2025-02-16T18:41:10+09:00*%
%TF.ProjectId,PCB,5043422e-6b69-4636-9164-5f7063625858,rev?*%
%TF.SameCoordinates,Original*%
%TF.FileFunction,Soldermask,Bot*%
%TF.FilePolarity,Negative*%
%FSLAX46Y46*%
G04 Gerber Fmt 4.6, Leading zero omitted, Abs format (unit mm)*
G04 Created by KiCad (PCBNEW 8.0.8) date 2025-02-16 18:41:10*
%MOMM*%
%LPD*%
G01*
G04 APERTURE LIST*
G04 Aperture macros list*
%AMRoundRect*
0 Rectangle with rounded corners*
0 $1 Rounding radius*
0 $2 $3 $4 $5 $6 $7 $8 $9 X,Y pos of 4 corners*
0 Add a 4 corners polygon primitive as box body*
4,1,4,$2,$3,$4,$5,$6,$7,$8,$9,$2,$3,0*
0 Add four circle primitives for the rounded corners*
1,1,$1+$1,$2,$3*
1,1,$1+$1,$4,$5*
1,1,$1+$1,$6,$7*
1,1,$1+$1,$8,$9*
0 Add four rect primitives between the rounded corners*
20,1,$1+$1,$2,$3,$4,$5,0*
20,1,$1+$1,$4,$5,$6,$7,0*
20,1,$1+$1,$6,$7,$8,$9,0*
20,1,$1+$1,$8,$9,$2,$3,0*%
G04 Aperture macros list end*
%ADD10C,1.000000*%
%ADD11R,1.000000X1.000000*%
%ADD12RoundRect,0.237500X0.300000X0.237500X-0.300000X0.237500X-0.300000X-0.237500X0.300000X-0.237500X0*%
%ADD13R,1.200000X0.700000*%
%ADD14R,0.800000X1.000000*%
%ADD15R,2.800000X1.000000*%
%ADD16R,1.200000X1.000000*%
%ADD17R,1.900000X1.300000*%
%ADD18RoundRect,0.300000X0.300000X0.450000X-0.300000X0.450000X-0.300000X-0.450000X0.300000X-0.450000X0*%
%ADD19RoundRect,0.237500X-0.237500X0.300000X-0.237500X-0.300000X0.237500X-0.300000X0.237500X0.300000X0*%
%ADD20RoundRect,0.237500X0.237500X-0.300000X0.237500X0.300000X-0.237500X0.300000X-0.237500X-0.300000X0*%
%ADD21RoundRect,0.250000X0.625000X-0.400000X0.625000X0.400000X-0.625000X0.400000X-0.625000X-0.400000X0*%
%ADD22RoundRect,0.237500X-0.300000X-0.237500X0.300000X-0.237500X0.300000X0.237500X-0.300000X0.237500X0*%
%ADD23RoundRect,0.225000X0.225000X0.375000X-0.225000X0.375000X-0.225000X-0.375000X0.225000X-0.375000X0*%
%ADD24RoundRect,0.250000X-0.475000X0.337500X-0.475000X-0.337500X0.475000X-0.337500X0.475000X0.337500X0*%
%ADD25RoundRect,0.200000X-0.350000X-0.200000X0.350000X-0.200000X0.350000X0.200000X-0.350000X0.200000X0*%
%ADD26RoundRect,0.250000X0.400000X0.625000X-0.400000X0.625000X-0.400000X-0.625000X0.400000X-0.625000X0*%
%ADD27RoundRect,0.375000X-0.625000X-0.375000X0.625000X-0.375000X0.625000X0.375000X-0.625000X0.375000X0*%
%ADD28RoundRect,0.500000X-0.500000X-1.400000X0.500000X-1.400000X0.500000X1.400000X-0.500000X1.400000X0*%
%ADD29RoundRect,0.225000X-0.225000X-0.375000X0.225000X-0.375000X0.225000X0.375000X-0.225000X0.375000X0*%
%ADD30R,1.500000X0.900000*%
%ADD31R,0.900000X1.500000*%
%ADD32C,1.400000*%
%ADD33C,1.300000*%
%ADD34R,3.900000X3.900000*%
%ADD35RoundRect,0.250000X-0.625000X0.400000X-0.625000X-0.400000X0.625000X-0.400000X0.625000X0.400000X0*%
%ADD36RoundRect,0.237500X-0.287500X-0.237500X0.287500X-0.237500X0.287500X0.237500X-0.287500X0.237500X0*%
%ADD37C,2.000000*%
%ADD38C,1.700000*%
%ADD39RoundRect,0.375000X0.875000X0.375000X-0.875000X0.375000X-0.875000X-0.375000X0.875000X-0.375000X0*%
%ADD40RoundRect,0.381000X0.762000X0.381000X-0.762000X0.381000X-0.762000X-0.381000X0.762000X-0.381000X0*%
%ADD41RoundRect,0.112500X0.637500X-0.112500X0.637500X0.112500X-0.637500X0.112500X-0.637500X-0.112500X0*%
%ADD42R,1.100000X0.250000*%
%ADD43R,1.500000X1.700000*%
%ADD44RoundRect,0.150000X-0.512500X-0.150000X0.512500X-0.150000X0.512500X0.150000X-0.512500X0.150000X0*%
%ADD45R,1.269581X2.362200*%
%ADD46C,1.500000*%
%ADD47RoundRect,0.250000X0.650000X-0.250000X0.650000X0.250000X-0.650000X0.250000X-0.650000X-0.250000X0*%
%ADD48O,1.700000X1.200000*%
%ADD49O,1.350000X0.950000*%
%ADD50RoundRect,0.062500X0.062500X0.737500X-0.062500X0.737500X-0.062500X-0.737500X0.062500X-0.737500X0*%
%ADD51RoundRect,0.225000X-0.375000X0.225000X-0.375000X-0.225000X0.375000X-0.225000X0.375000X0.225000X0*%
G04 APERTURE END LIST*
D10*
%TO.C,TP2*%
X179000000Y-102400000D03*
%TD*%
%TO.C,TP10*%
X126200000Y-62600000D03*
%TD*%
%TO.C,TP3*%
X184000000Y-102500000D03*
%TD*%
D11*
%TO.C,TP11*%
X130800000Y-54400000D03*
%TD*%
D12*
%TO.C,C19*%
X158250000Y-93850000D03*
X156525000Y-93850000D03*
%TD*%
D13*
%TO.C,J4*%
X107590000Y-83855000D03*
X107590000Y-84955000D03*
X107590000Y-86055000D03*
X107590000Y-87155000D03*
X107590000Y-88255000D03*
X107590000Y-89355000D03*
X107590000Y-90455000D03*
X107590000Y-91555000D03*
X107590000Y-92505000D03*
D14*
X97090000Y-93455000D03*
D15*
X92940000Y-93455000D03*
D16*
X103290000Y-93455000D03*
X107590000Y-82305000D03*
D17*
X92490000Y-79955000D03*
%TD*%
D18*
%TO.C,SW1*%
X109300000Y-97950000D03*
X106800000Y-97950000D03*
X104300000Y-97950000D03*
X104300000Y-102250000D03*
X106800000Y-102250000D03*
X109300000Y-102250000D03*
%TD*%
D19*
%TO.C,C2*%
X113600000Y-102337500D03*
X113600000Y-104062500D03*
%TD*%
D20*
%TO.C,C1*%
X113800000Y-97662500D03*
X113800000Y-95937500D03*
%TD*%
D21*
%TO.C,R4*%
X99700000Y-98650000D03*
X99700000Y-101750000D03*
%TD*%
D22*
%TO.C,C8*%
X162337500Y-64600000D03*
X164062500Y-64600000D03*
%TD*%
D19*
%TO.C,C11*%
X127400000Y-86137500D03*
X127400000Y-87862500D03*
%TD*%
D23*
%TO.C,D8*%
X124250000Y-91400000D03*
X120950000Y-91400000D03*
%TD*%
%TO.C,D9*%
X165750000Y-98250000D03*
X162450000Y-98250000D03*
%TD*%
D21*
%TO.C,R14*%
X112600000Y-74050000D03*
X112600000Y-70950000D03*
%TD*%
D24*
%TO.C,C4*%
X163800000Y-54362500D03*
X163800000Y-56437500D03*
%TD*%
D22*
%TO.C,C21*%
X163737500Y-80800000D03*
X165462500Y-80800000D03*
%TD*%
D10*
%TO.C,TP8*%
X126100000Y-54800000D03*
%TD*%
D25*
%TO.C,SW4*%
X183600000Y-60400000D03*
X187800000Y-60400000D03*
X183600000Y-58200000D03*
X187800000Y-58200000D03*
%TD*%
D26*
%TO.C,R10*%
X135300000Y-69800000D03*
X132200000Y-69800000D03*
%TD*%
D27*
%TO.C,U6*%
X117300000Y-102900000D03*
X117300000Y-100600000D03*
X117300000Y-98300000D03*
D28*
X123600000Y-100600000D03*
%TD*%
D29*
%TO.C,D3*%
X162550000Y-93750000D03*
X165850000Y-93750000D03*
%TD*%
D21*
%TO.C,R7*%
X155250000Y-80900000D03*
X155250000Y-77800000D03*
%TD*%
D22*
%TO.C,C9*%
X163475000Y-72600000D03*
X165200000Y-72600000D03*
%TD*%
D10*
%TO.C,TP4*%
X189000000Y-102500000D03*
%TD*%
%TO.C,TP5*%
X179000000Y-97000000D03*
%TD*%
D19*
%TO.C,C17*%
X174000000Y-61887500D03*
X174000000Y-63612500D03*
%TD*%
D30*
%TO.C,U4*%
X155700000Y-54340000D03*
X155700000Y-55610000D03*
X155700000Y-56880000D03*
X155700000Y-58150000D03*
X155700000Y-59420000D03*
X155700000Y-60690000D03*
X155700000Y-61960000D03*
X155700000Y-63230000D03*
X155700000Y-64500000D03*
X155700000Y-65770000D03*
X155700000Y-67040000D03*
X155700000Y-68310000D03*
X155700000Y-69580000D03*
X155700000Y-70850000D03*
D31*
X153935000Y-72100000D03*
X152665000Y-72100000D03*
X151395000Y-72100000D03*
X150125000Y-72100000D03*
X148855000Y-72100000D03*
X147585000Y-72100000D03*
X146315000Y-72100000D03*
X145045000Y-72100000D03*
X143775000Y-72100000D03*
X142505000Y-72100000D03*
X141235000Y-72100000D03*
X139965000Y-72100000D03*
D30*
X138200000Y-70850000D03*
X138200000Y-69580000D03*
X138200000Y-68310000D03*
X138200000Y-67040000D03*
X138200000Y-65770000D03*
X138200000Y-64500000D03*
X138200000Y-63230000D03*
X138200000Y-61960000D03*
X138200000Y-60690000D03*
X138200000Y-59420000D03*
X138200000Y-58150000D03*
X138200000Y-56880000D03*
X138200000Y-55610000D03*
X138200000Y-54340000D03*
D32*
X149650000Y-63300000D03*
X149650000Y-60800000D03*
D33*
X148450000Y-62100000D03*
D34*
X148450000Y-62060000D03*
D32*
X147250000Y-60800000D03*
X147200000Y-63300000D03*
%TD*%
D19*
%TO.C,C15*%
X167700000Y-61837500D03*
X167700000Y-63562500D03*
%TD*%
D35*
%TO.C,R2*%
X143400000Y-86650000D03*
X143400000Y-89750000D03*
%TD*%
D21*
%TO.C,R11*%
X150500000Y-80900000D03*
X150500000Y-77800000D03*
%TD*%
D36*
%TO.C,D6*%
X104525000Y-74600000D03*
X106275000Y-74600000D03*
%TD*%
D37*
%TO.C,U1*%
X91580000Y-50260000D03*
X91580000Y-65500000D03*
D38*
X99200000Y-50260000D03*
X99200000Y-52800000D03*
X99200000Y-55340000D03*
X99200000Y-57880000D03*
X99200000Y-60420000D03*
X99200000Y-62960000D03*
X99200000Y-65500000D03*
%TD*%
D21*
%TO.C,R6*%
X158500000Y-80900000D03*
X158500000Y-77800000D03*
%TD*%
D35*
%TO.C,R8*%
X112300000Y-79450000D03*
X112300000Y-82550000D03*
%TD*%
D22*
%TO.C,C10*%
X163475000Y-70600000D03*
X165200000Y-70600000D03*
%TD*%
D36*
%TO.C,D1*%
X92950000Y-101200000D03*
X94700000Y-101200000D03*
%TD*%
D12*
%TO.C,C20*%
X170862500Y-88800000D03*
X169137500Y-88800000D03*
%TD*%
D10*
%TO.C,TP7*%
X189000000Y-97000000D03*
%TD*%
D22*
%TO.C,C3*%
X163737500Y-78550000D03*
X165462500Y-78550000D03*
%TD*%
D19*
%TO.C,C16*%
X170600000Y-61887500D03*
X170600000Y-63612500D03*
%TD*%
D36*
%TO.C,D5*%
X96025000Y-74600000D03*
X97775000Y-74600000D03*
%TD*%
D39*
%TO.C,L1*%
X157750000Y-99900000D03*
D40*
X157750000Y-96200000D03*
%TD*%
D41*
%TO.C,Q2*%
X156582500Y-89500000D03*
X156582500Y-88200000D03*
X159242500Y-88850000D03*
%TD*%
D42*
%TO.C,U2*%
X171000000Y-80600000D03*
X171000000Y-80099998D03*
X171000000Y-79599999D03*
X171000000Y-79099998D03*
X171000000Y-78599999D03*
X171000000Y-78100000D03*
X171000000Y-77599998D03*
X171000000Y-77099999D03*
X171000000Y-76599998D03*
X171000000Y-76099999D03*
X171000000Y-75600000D03*
X171000000Y-75099998D03*
X171000000Y-74599999D03*
X171000000Y-74099998D03*
X171000000Y-73599999D03*
X171000000Y-73100000D03*
X171000000Y-72599998D03*
X171000000Y-72099999D03*
X171000000Y-71599998D03*
X171000000Y-71099999D03*
X171000000Y-70600000D03*
X171000000Y-70099998D03*
X171000000Y-69599999D03*
X171000000Y-69099997D03*
D43*
X174900000Y-67449998D03*
X174900000Y-82249999D03*
%TD*%
D35*
%TO.C,R5*%
X153650000Y-92300000D03*
X153650000Y-95400000D03*
%TD*%
D26*
%TO.C,R1*%
X136550000Y-94600000D03*
X133450000Y-94600000D03*
%TD*%
D23*
%TO.C,D2*%
X165900000Y-88850000D03*
X162600000Y-88850000D03*
%TD*%
D44*
%TO.C,U7*%
X119862500Y-88150000D03*
X119862500Y-87200000D03*
X119862500Y-86250000D03*
X122137500Y-86250000D03*
X122137500Y-88150000D03*
%TD*%
D22*
%TO.C,C22*%
X163475000Y-68600000D03*
X165200000Y-68600000D03*
%TD*%
D25*
%TO.C,SW3*%
X183500000Y-54000000D03*
X187700000Y-54000000D03*
X183500000Y-51800000D03*
X187700000Y-51800000D03*
%TD*%
D26*
%TO.C,R3*%
X154150000Y-88050000D03*
X151050000Y-88050000D03*
%TD*%
D22*
%TO.C,C13*%
X163475000Y-66600000D03*
X165200000Y-66600000D03*
%TD*%
D19*
%TO.C,C5*%
X160000000Y-54337500D03*
X160000000Y-56062500D03*
%TD*%
D21*
%TO.C,R9*%
X168600000Y-57150000D03*
X168600000Y-54050000D03*
%TD*%
D10*
%TO.C,TP6*%
X184000000Y-97000000D03*
%TD*%
D19*
%TO.C,C6*%
X172200000Y-55737500D03*
X172200000Y-57462500D03*
%TD*%
D45*
%TO.C,C12*%
X126700000Y-95100000D03*
X129291220Y-95100000D03*
%TD*%
D22*
%TO.C,C7*%
X162337500Y-62500000D03*
X164062500Y-62500000D03*
%TD*%
D11*
%TO.C,TP1*%
X174000000Y-102400000D03*
%TD*%
D21*
%TO.C,R15*%
X116800000Y-74050000D03*
X116800000Y-70950000D03*
%TD*%
D46*
%TO.C,U5*%
X120000000Y-49000000D03*
X104760000Y-49000000D03*
X103490000Y-52810000D03*
X103490000Y-55350000D03*
X103490000Y-57890000D03*
X103490000Y-60430000D03*
X103490000Y-62970000D03*
%TD*%
D10*
%TO.C,TP9*%
X126200000Y-58600000D03*
%TD*%
D47*
%TO.C,Y1*%
X159300000Y-65050000D03*
X159300000Y-62550000D03*
%TD*%
D22*
%TO.C,C18*%
X151625000Y-99850000D03*
X153350000Y-99850000D03*
%TD*%
D25*
%TO.C,SW2*%
X174700000Y-54000000D03*
X178900000Y-54000000D03*
X174700000Y-51800000D03*
X178900000Y-51800000D03*
%TD*%
D48*
%TO.C,J1*%
X139350000Y-91370000D03*
X139350000Y-85230000D03*
D49*
X139025000Y-88300000D03*
X131475000Y-88300000D03*
D48*
X131240000Y-91370000D03*
X131240000Y-85230000D03*
D50*
X138000000Y-86000000D03*
X137500000Y-86000000D03*
X137000000Y-86000000D03*
X136500000Y-86000000D03*
X136000000Y-86000000D03*
X135500000Y-86000000D03*
X135000000Y-86000000D03*
X134500000Y-86000000D03*
X134000000Y-86000000D03*
X133500000Y-86000000D03*
X133000000Y-86000000D03*
X132500000Y-86000000D03*
X132500000Y-90600000D03*
X133000000Y-90600000D03*
X133500000Y-90600000D03*
X134000000Y-90600000D03*
X134500000Y-90600000D03*
X135000000Y-90600000D03*
X135500000Y-90600000D03*
X136000000Y-90600000D03*
X136500000Y-90600000D03*
X137000000Y-90600000D03*
X137500000Y-90600000D03*
X138000000Y-90600000D03*
%TD*%
D51*
%TO.C,D7*%
X128500000Y-99650000D03*
X128500000Y-102950000D03*
%TD*%
M02*
