%TF.GenerationSoftware,KiCad,Pcbnew,8.0.8*%
%TF.CreationDate,2025-02-16T18:41:09+09:00*%
%TF.ProjectId,PCB,5043422e-6b69-4636-9164-5f7063625858,rev?*%
%TF.SameCoordinates,Original*%
%TF.FileFunction,Copper,L1,Top*%
%TF.FilePolarity,Positive*%
%FSLAX46Y46*%
G04 Gerber Fmt 4.6, Leading zero omitted, Abs format (unit mm)*
G04 Created by KiCad (PCBNEW 8.0.8) date 2025-02-16 18:41:09*
%MOMM*%
%LPD*%
G01*
G04 APERTURE LIST*
%TA.AperFunction,ComponentPad*%
%ADD10C,1.000000*%
%TD*%
%TA.AperFunction,ComponentPad*%
%ADD11R,1.000000X1.000000*%
%TD*%
%TA.AperFunction,HeatsinkPad*%
%ADD12C,1.400000*%
%TD*%
%TA.AperFunction,HeatsinkPad*%
%ADD13C,1.300000*%
%TD*%
%TA.AperFunction,ComponentPad*%
%ADD14C,1.700000*%
%TD*%
%TA.AperFunction,ComponentPad*%
%ADD15C,1.500000*%
%TD*%
%TA.AperFunction,ComponentPad*%
%ADD16O,1.700000X1.200000*%
%TD*%
%TA.AperFunction,ComponentPad*%
%ADD17O,1.350000X0.950000*%
%TD*%
%TA.AperFunction,ViaPad*%
%ADD18C,0.450000*%
%TD*%
%TA.AperFunction,ViaPad*%
%ADD19C,0.600000*%
%TD*%
%TA.AperFunction,Conductor*%
%ADD20C,0.152400*%
%TD*%
%TA.AperFunction,Conductor*%
%ADD21C,0.500000*%
%TD*%
%TA.AperFunction,Conductor*%
%ADD22C,0.600000*%
%TD*%
%TA.AperFunction,Conductor*%
%ADD23C,0.200000*%
%TD*%
G04 APERTURE END LIST*
D10*
%TO.P,TP2,1,1*%
%TO.N,ESP32_IO48_EPAPER_BUSY*%
X179000000Y-102400000D03*
%TD*%
%TO.P,TP10,1,1*%
%TO.N,+3V3*%
X126200000Y-62600000D03*
%TD*%
%TO.P,TP3,1,1*%
%TO.N,ESP32_IO47_EPAPER_RST*%
X184000000Y-102500000D03*
%TD*%
D11*
%TO.P,TP11,1,1*%
%TO.N,GND*%
X130800000Y-54400000D03*
%TD*%
D10*
%TO.P,TP8,1,1*%
%TO.N,ESP32_IO01_SCL*%
X126100000Y-54800000D03*
%TD*%
%TO.P,TP4,1,1*%
%TO.N,ESP32_IO21_EPAPER_DC*%
X189000000Y-102500000D03*
%TD*%
%TO.P,TP5,1,1*%
%TO.N,ESP32_IO14_EPAPER_CS*%
X179000000Y-97000000D03*
%TD*%
D12*
%TO.P,U4,41,GND*%
%TO.N,GND*%
X149650000Y-63300000D03*
X149650000Y-60800000D03*
D13*
X148450000Y-62100000D03*
D12*
X147250000Y-60800000D03*
X147200000Y-63300000D03*
%TD*%
D14*
%TO.P,U1,1,SDO*%
%TO.N,GND*%
X99200000Y-50260000D03*
%TO.P,U1,2,SCK*%
%TO.N,ESP32_IO01_SCL*%
X99200000Y-52800000D03*
%TO.P,U1,3,SDI*%
%TO.N,ESP32_IO02_SDA*%
X99200000Y-55340000D03*
%TO.P,U1,4,CSB*%
%TO.N,+3V3*%
X99200000Y-57880000D03*
%TO.P,U1,5,GND*%
%TO.N,GND*%
X99200000Y-60420000D03*
%TO.P,U1,6,V_core*%
%TO.N,+3V3*%
X99200000Y-62960000D03*
%TO.P,U1,7,V_io*%
X99200000Y-65500000D03*
%TD*%
D10*
%TO.P,TP7,1,1*%
%TO.N,ESP32_IO12_EPAPER_MOSI*%
X189000000Y-97000000D03*
%TD*%
%TO.P,TP6,1,1*%
%TO.N,ESP32_IO13_EPAPER_SCK*%
X184000000Y-97000000D03*
%TD*%
D11*
%TO.P,TP1,1,1*%
%TO.N,GND*%
X174000000Y-102400000D03*
%TD*%
D15*
%TO.P,U5,1,SCL*%
%TO.N,ESP32_IO01_SCL*%
X103490000Y-52810000D03*
%TO.P,U5,2,SDA*%
%TO.N,ESP32_IO02_SDA*%
X103490000Y-55350000D03*
%TO.P,U5,3,IO4*%
%TO.N,unconnected-(U5-IO4-Pad3)*%
X103490000Y-57890000D03*
%TO.P,U5,4,GND*%
%TO.N,GND*%
X103490000Y-60430000D03*
%TO.P,U5,5,3V3*%
%TO.N,+3V3*%
X103490000Y-62970000D03*
%TD*%
D10*
%TO.P,TP9,1,1*%
%TO.N,ESP32_IO02_SDA*%
X126200000Y-58600000D03*
%TD*%
D16*
%TO.P,J1,*%
%TO.N,*%
X139350000Y-91370000D03*
X139350000Y-85230000D03*
D17*
X139025000Y-88300000D03*
X131475000Y-88300000D03*
D16*
X131240000Y-91370000D03*
X131240000Y-85230000D03*
%TD*%
D18*
%TO.N,GND*%
X92900000Y-101500000D03*
X163475000Y-72600000D03*
X172200000Y-57462500D03*
X113800000Y-95937500D03*
X150500000Y-80900000D03*
X174700000Y-51800000D03*
X163800000Y-54362500D03*
X113600000Y-104062500D03*
D19*
%TO.N,+3V3*%
X165200000Y-72600000D03*
X165100000Y-60500000D03*
X107200000Y-97500000D03*
X145800000Y-84600000D03*
X153350000Y-99850000D03*
X107590000Y-87155000D03*
X112300000Y-82550000D03*
X155250000Y-80900000D03*
X131800000Y-69400000D03*
%TO.N,ESP32_EN*%
X155700000Y-56900000D03*
X172200000Y-55737500D03*
X168600000Y-57150000D03*
%TO.N,EPAPER_PREVGL*%
X170600000Y-63612500D03*
X178500000Y-71100000D03*
X165850000Y-93750000D03*
%TO.N,EPAPER_PREVGH*%
X168800000Y-70400000D03*
X165900000Y-88850000D03*
%TO.N,ESP32_IO0*%
X138000000Y-70850000D03*
X183500000Y-54000000D03*
%TO.N,ESP32_IO20*%
X136550000Y-81250000D03*
X155700000Y-70850000D03*
%TO.N,ESP32_IO46*%
X152700000Y-72600000D03*
X150500000Y-77800000D03*
%TO.N,ESP32_IO19*%
X155700000Y-69580000D03*
X134750000Y-87750000D03*
X135750000Y-89000000D03*
X135900000Y-80600000D03*
%TO.N,ESP32_IO4*%
X159200000Y-59200000D03*
X183600000Y-60400000D03*
%TO.N,VBUS*%
X136800000Y-83200000D03*
X133200000Y-83000000D03*
X127400000Y-86137500D03*
X136400000Y-92600000D03*
X133200000Y-93000000D03*
%TO.N,ESP32_IO05_SD_SW*%
X112300000Y-79450000D03*
X155700000Y-59400000D03*
%TD*%
D20*
%TO.N,GND*%
X92800000Y-101600000D02*
X92800000Y-103200000D01*
X93662500Y-104062500D02*
X113600000Y-104062500D01*
X92900000Y-101500000D02*
X92800000Y-101600000D01*
X92800000Y-103200000D02*
X93662500Y-104062500D01*
X98120000Y-60420000D02*
X99200000Y-60420000D01*
X173300000Y-51800000D02*
X174700000Y-51800000D01*
X97940000Y-50260000D02*
X97100000Y-51100000D01*
X113600000Y-104062500D02*
X113600000Y-96137500D01*
X171500000Y-53600000D02*
X173300000Y-51800000D01*
X151400000Y-80900000D02*
X150500000Y-80900000D01*
X163475000Y-72600000D02*
X159700000Y-72600000D01*
X173100000Y-55200000D02*
X173100000Y-57000000D01*
X173100000Y-57000000D02*
X172637500Y-57462500D01*
X168937500Y-54362500D02*
X169700000Y-53600000D01*
X99200000Y-50260000D02*
X97940000Y-50260000D01*
X169700000Y-53600000D02*
X171500000Y-53600000D01*
X113600000Y-96137500D02*
X113800000Y-95937500D01*
X171500000Y-53600000D02*
X173100000Y-55200000D01*
X97100000Y-51100000D02*
X97100000Y-59400000D01*
X163800000Y-54362500D02*
X168937500Y-54362500D01*
X97100000Y-59400000D02*
X98120000Y-60420000D01*
X172637500Y-57462500D02*
X172200000Y-57462500D01*
X99200000Y-60420000D02*
X103480000Y-60420000D01*
X103480000Y-60420000D02*
X103490000Y-60430000D01*
X159700000Y-72600000D02*
X151400000Y-80900000D01*
D21*
%TO.N,+3V3*%
X109600000Y-65900000D02*
X106670000Y-62970000D01*
D22*
X145800000Y-84600000D02*
X146000000Y-84800000D01*
X126200000Y-63800000D02*
X126200000Y-62600000D01*
D21*
X112300000Y-86500000D02*
X112300000Y-82550000D01*
X109600000Y-65900000D02*
X112900000Y-62600000D01*
D22*
X155200000Y-80950000D02*
X155250000Y-80900000D01*
D21*
X107590000Y-87155000D02*
X111645000Y-87155000D01*
X157800000Y-80900000D02*
X155250000Y-80900000D01*
D22*
X107200000Y-97500000D02*
X112300000Y-92400000D01*
X155200000Y-83000000D02*
X155200000Y-80950000D01*
X150250000Y-99850000D02*
X153350000Y-99850000D01*
D21*
X165200000Y-72600000D02*
X165200000Y-73500000D01*
X112900000Y-62600000D02*
X126200000Y-62600000D01*
D22*
X112300000Y-92400000D02*
X112300000Y-86500000D01*
X165100000Y-72500000D02*
X165200000Y-72600000D01*
X146000000Y-84800000D02*
X153400000Y-84800000D01*
X165100000Y-60500000D02*
X165100000Y-72500000D01*
X153400000Y-84800000D02*
X155200000Y-83000000D01*
X146200000Y-95800000D02*
X146200000Y-85000000D01*
D21*
X111645000Y-87155000D02*
X112300000Y-86500000D01*
X109600000Y-81000000D02*
X109600000Y-65900000D01*
X106670000Y-62970000D02*
X103490000Y-62970000D01*
D22*
X146200000Y-95800000D02*
X150250000Y-99850000D01*
D21*
X112300000Y-82550000D02*
X111150000Y-82550000D01*
D22*
X131800000Y-69400000D02*
X126200000Y-63800000D01*
D21*
X165200000Y-73500000D02*
X157800000Y-80900000D01*
D22*
X153300000Y-99900000D02*
X153350000Y-99850000D01*
D21*
X111150000Y-82550000D02*
X109600000Y-81000000D01*
D22*
X146200000Y-85000000D02*
X145800000Y-84600000D01*
D23*
%TO.N,ESP32_EN*%
X158650000Y-57150000D02*
X168600000Y-57150000D01*
X155700000Y-56900000D02*
X158400000Y-56900000D01*
X169150000Y-57150000D02*
X170500000Y-55800000D01*
X158400000Y-56900000D02*
X158650000Y-57150000D01*
X172137500Y-55800000D02*
X172200000Y-55737500D01*
X168600000Y-57150000D02*
X169150000Y-57150000D01*
X170500000Y-55800000D02*
X172137500Y-55800000D01*
%TO.N,EPAPER_PREVGL*%
X170600000Y-63612500D02*
X170600000Y-64600000D01*
X170600000Y-64600000D02*
X170100000Y-65100000D01*
X178500000Y-92100000D02*
X176850000Y-93750000D01*
X178500000Y-71100000D02*
X178500000Y-92100000D01*
X176850000Y-93750000D02*
X165850000Y-93750000D01*
D20*
%TO.N,EPAPER_PREVGH*%
X168300000Y-70400000D02*
X167700000Y-71000000D01*
X168800000Y-70400000D02*
X168300000Y-70400000D01*
X167700000Y-71000000D02*
X167700000Y-83800000D01*
X165900000Y-85600000D02*
X165900000Y-88850000D01*
X167700000Y-83800000D02*
X165900000Y-85600000D01*
D23*
%TO.N,ESP32_IO0*%
X138000000Y-70850000D02*
X144750000Y-70850000D01*
X148600000Y-67000000D02*
X150300000Y-67000000D01*
X158700000Y-58600000D02*
X174000000Y-58600000D01*
X178100000Y-54500000D02*
X183000000Y-54500000D01*
X174000000Y-58600000D02*
X178100000Y-54500000D01*
X183000000Y-54500000D02*
X183500000Y-54000000D01*
X144750000Y-70850000D02*
X148600000Y-67000000D01*
X150300000Y-67000000D02*
X158700000Y-58600000D01*
D20*
%TO.N,ESP32_IO20*%
X136550000Y-81250000D02*
X146950000Y-70850000D01*
X146950000Y-70850000D02*
X155700000Y-70850000D01*
D23*
%TO.N,ESP32_IO46*%
X150400000Y-76400000D02*
X150400000Y-77700000D01*
X152700000Y-72600000D02*
X152700000Y-74100000D01*
X150400000Y-77700000D02*
X150500000Y-77800000D01*
X152700000Y-74100000D02*
X150400000Y-76400000D01*
D20*
%TO.N,ESP32_IO19*%
X146920000Y-69580000D02*
X155700000Y-69580000D01*
X135750000Y-88750000D02*
X135750000Y-89000000D01*
X134750000Y-87750000D02*
X135750000Y-88750000D01*
X135900000Y-80600000D02*
X146920000Y-69580000D01*
D23*
%TO.N,ESP32_IO4*%
X159200000Y-59200000D02*
X182400000Y-59200000D01*
X182400000Y-59200000D02*
X183600000Y-60400000D01*
D20*
%TO.N,VBUS*%
X129600000Y-92200000D02*
X129600000Y-87000000D01*
X133200000Y-83000000D02*
X136600000Y-83000000D01*
X128800000Y-86200000D02*
X127462500Y-86200000D01*
X127462500Y-86200000D02*
X127400000Y-86137500D01*
X133200000Y-93000000D02*
X130400000Y-93000000D01*
X136000000Y-93000000D02*
X133200000Y-93000000D01*
X130400000Y-93000000D02*
X129600000Y-92200000D01*
X136600000Y-83000000D02*
X136800000Y-83200000D01*
X129600000Y-87000000D02*
X128800000Y-86200000D01*
X136400000Y-92600000D02*
X136000000Y-93000000D01*
%TO.N,ESP32_IO05_SD_SW*%
X155500000Y-60500000D02*
X149500000Y-66500000D01*
X137100000Y-66500000D02*
X124150000Y-79450000D01*
X149500000Y-66500000D02*
X137100000Y-66500000D01*
X155500000Y-59600000D02*
X155500000Y-60500000D01*
X155700000Y-59400000D02*
X155500000Y-59600000D01*
X124150000Y-79450000D02*
X112300000Y-79450000D01*
%TD*%
%TA.AperFunction,Conductor*%
%TO.N,GND*%
G36*
X149603554Y-62900000D02*
G01*
X149597339Y-62900000D01*
X149495606Y-62927259D01*
X149404394Y-62979920D01*
X149329920Y-63054394D01*
X149277259Y-63145606D01*
X149250000Y-63247339D01*
X149250000Y-63253554D01*
X148550212Y-62553766D01*
X148550210Y-62553763D01*
X148496447Y-62500000D01*
X148502661Y-62500000D01*
X148604394Y-62472741D01*
X148695606Y-62420080D01*
X148770080Y-62345606D01*
X148822741Y-62254394D01*
X148850000Y-62152661D01*
X148850000Y-62146446D01*
X149603554Y-62900000D01*
G37*
%TD.AperFunction*%
%TA.AperFunction,Conductor*%
G36*
X148050000Y-62152661D02*
G01*
X148077259Y-62254394D01*
X148129920Y-62345606D01*
X148204394Y-62420080D01*
X148295606Y-62472741D01*
X148397339Y-62500000D01*
X148403553Y-62500000D01*
X147782999Y-63120554D01*
X147721676Y-63154039D01*
X147696844Y-63156708D01*
X147600000Y-63253553D01*
X147600000Y-63247339D01*
X147572741Y-63145606D01*
X147520080Y-63054394D01*
X147445606Y-62979920D01*
X147354394Y-62927259D01*
X147252661Y-62900000D01*
X147246445Y-62900000D01*
X147902356Y-62244090D01*
X147963679Y-62210605D01*
X147988511Y-62207935D01*
X148050000Y-62146446D01*
X148050000Y-62152661D01*
G37*
%TD.AperFunction*%
%TA.AperFunction,Conductor*%
G36*
X148280909Y-61477355D02*
G01*
X148314394Y-61538678D01*
X148317228Y-61565036D01*
X148317228Y-61613674D01*
X148403554Y-61700000D01*
X148397339Y-61700000D01*
X148295606Y-61727259D01*
X148204394Y-61779920D01*
X148129920Y-61854394D01*
X148077259Y-61945606D01*
X148050000Y-62047339D01*
X148050000Y-62053553D01*
X147454445Y-61457998D01*
X147420960Y-61396675D01*
X147418126Y-61370317D01*
X147418126Y-61321679D01*
X147296447Y-61200000D01*
X147302661Y-61200000D01*
X147404394Y-61172741D01*
X147495606Y-61120080D01*
X147570080Y-61045606D01*
X147622741Y-60954394D01*
X147650000Y-60852661D01*
X147650000Y-60846446D01*
X148280909Y-61477355D01*
G37*
%TD.AperFunction*%
%TA.AperFunction,Conductor*%
G36*
X149250000Y-60852661D02*
G01*
X149277259Y-60954394D01*
X149329920Y-61045606D01*
X149404394Y-61120080D01*
X149495606Y-61172741D01*
X149597339Y-61200000D01*
X149603554Y-61200000D01*
X149481873Y-61321680D01*
X149481873Y-61370318D01*
X149462188Y-61437357D01*
X149445554Y-61457999D01*
X148850000Y-62053552D01*
X148850000Y-62047339D01*
X148822741Y-61945606D01*
X148770080Y-61854394D01*
X148695606Y-61779920D01*
X148604394Y-61727259D01*
X148502661Y-61700000D01*
X148496446Y-61700000D01*
X148582771Y-61613675D01*
X148582771Y-61565037D01*
X148602456Y-61497998D01*
X148619090Y-61477356D01*
X149250000Y-60846446D01*
X149250000Y-60852661D01*
G37*
%TD.AperFunction*%
%TA.AperFunction,Conductor*%
G36*
X104107250Y-47720185D02*
G01*
X104153005Y-47772989D01*
X104162949Y-47842147D01*
X104133924Y-47905703D01*
X104108364Y-47927374D01*
X104108537Y-47927612D01*
X104105370Y-47929912D01*
X104104995Y-47930231D01*
X104104594Y-47930476D01*
X104013741Y-47996485D01*
X103945354Y-48046172D01*
X103945352Y-48046174D01*
X103945351Y-48046174D01*
X103806174Y-48185351D01*
X103806174Y-48185352D01*
X103806172Y-48185354D01*
X103756485Y-48253741D01*
X103690476Y-48344594D01*
X103601117Y-48519970D01*
X103540290Y-48707173D01*
X103509500Y-48901577D01*
X103509500Y-49098422D01*
X103540290Y-49292826D01*
X103601117Y-49480029D01*
X103690476Y-49655405D01*
X103806172Y-49814646D01*
X103945354Y-49953828D01*
X104104595Y-50069524D01*
X104187455Y-50111743D01*
X104279970Y-50158882D01*
X104279972Y-50158882D01*
X104279975Y-50158884D01*
X104368326Y-50187591D01*
X104467173Y-50219709D01*
X104661578Y-50250500D01*
X104661583Y-50250500D01*
X104858422Y-50250500D01*
X105052826Y-50219709D01*
X105240025Y-50158884D01*
X105415405Y-50069524D01*
X105574646Y-49953828D01*
X105713828Y-49814646D01*
X105829524Y-49655405D01*
X105918884Y-49480025D01*
X105979709Y-49292826D01*
X106007797Y-49115485D01*
X106010500Y-49098422D01*
X106010500Y-48901577D01*
X105979709Y-48707173D01*
X105918882Y-48519970D01*
X105829523Y-48344594D01*
X105713828Y-48185354D01*
X105574646Y-48046172D01*
X105415405Y-47930476D01*
X105415005Y-47930231D01*
X105414884Y-47930098D01*
X105411463Y-47927612D01*
X105411985Y-47926893D01*
X105368127Y-47878422D01*
X105356700Y-47809493D01*
X105384354Y-47745329D01*
X105442307Y-47706301D01*
X105479789Y-47700500D01*
X119280211Y-47700500D01*
X119347250Y-47720185D01*
X119393005Y-47772989D01*
X119402949Y-47842147D01*
X119373924Y-47905703D01*
X119348364Y-47927374D01*
X119348537Y-47927612D01*
X119345370Y-47929912D01*
X119344995Y-47930231D01*
X119344594Y-47930476D01*
X119253741Y-47996485D01*
X119185354Y-48046172D01*
X119185352Y-48046174D01*
X119185351Y-48046174D01*
X119046174Y-48185351D01*
X119046174Y-48185352D01*
X119046172Y-48185354D01*
X118996485Y-48253741D01*
X118930476Y-48344594D01*
X118841117Y-48519970D01*
X118780290Y-48707173D01*
X118749500Y-48901577D01*
X118749500Y-49098422D01*
X118780290Y-49292826D01*
X118841117Y-49480029D01*
X118930476Y-49655405D01*
X119046172Y-49814646D01*
X119185354Y-49953828D01*
X119344595Y-50069524D01*
X119427455Y-50111743D01*
X119519970Y-50158882D01*
X119519972Y-50158882D01*
X119519975Y-50158884D01*
X119608326Y-50187591D01*
X119707173Y-50219709D01*
X119901578Y-50250500D01*
X119901583Y-50250500D01*
X120098422Y-50250500D01*
X120292826Y-50219709D01*
X120480025Y-50158884D01*
X120655405Y-50069524D01*
X120814646Y-49953828D01*
X120953828Y-49814646D01*
X121069524Y-49655405D01*
X121158884Y-49480025D01*
X121219709Y-49292826D01*
X121247797Y-49115485D01*
X121250500Y-49098422D01*
X121250500Y-48901577D01*
X121219709Y-48707173D01*
X121158882Y-48519970D01*
X121069523Y-48344594D01*
X120953828Y-48185354D01*
X120814646Y-48046172D01*
X120655405Y-47930476D01*
X120655005Y-47930231D01*
X120654884Y-47930098D01*
X120651463Y-47927612D01*
X120651985Y-47926893D01*
X120608127Y-47878422D01*
X120596700Y-47809493D01*
X120624354Y-47745329D01*
X120682307Y-47706301D01*
X120719789Y-47700500D01*
X122826000Y-47700500D01*
X122893039Y-47720185D01*
X122938794Y-47772989D01*
X122950000Y-47824500D01*
X122950000Y-52850000D01*
X170950000Y-52850000D01*
X170950000Y-47824500D01*
X170969685Y-47757461D01*
X171022489Y-47711706D01*
X171074000Y-47700500D01*
X192175500Y-47700500D01*
X192242539Y-47720185D01*
X192288294Y-47772989D01*
X192299500Y-47824500D01*
X192299500Y-106175500D01*
X192279815Y-106242539D01*
X192227011Y-106288294D01*
X192175500Y-106299500D01*
X166431005Y-106299500D01*
X166295677Y-106326418D01*
X166295667Y-106326421D01*
X166168195Y-106379221D01*
X166168182Y-106379228D01*
X166053458Y-106455885D01*
X166053454Y-106455888D01*
X165955888Y-106553454D01*
X165955885Y-106553458D01*
X165879228Y-106668182D01*
X165879221Y-106668195D01*
X165826421Y-106795667D01*
X165826418Y-106795677D01*
X165799500Y-106931004D01*
X165799500Y-113175500D01*
X165779815Y-113242539D01*
X165727011Y-113288294D01*
X165675500Y-113299500D01*
X115824500Y-113299500D01*
X115757461Y-113279815D01*
X115711706Y-113227011D01*
X115700500Y-113175500D01*
X115700500Y-106931004D01*
X115673581Y-106795677D01*
X115673580Y-106795676D01*
X115673580Y-106795672D01*
X115673578Y-106795667D01*
X115620778Y-106668195D01*
X115620771Y-106668182D01*
X115544114Y-106553458D01*
X115544111Y-106553454D01*
X115446545Y-106455888D01*
X115446541Y-106455885D01*
X115331817Y-106379228D01*
X115331804Y-106379221D01*
X115204332Y-106326421D01*
X115204322Y-106326418D01*
X115068995Y-106299500D01*
X115068993Y-106299500D01*
X89324500Y-106299500D01*
X89257461Y-106279815D01*
X89211706Y-106227011D01*
X89200500Y-106175500D01*
X89200500Y-102947844D01*
X173000000Y-102947844D01*
X173006401Y-103007372D01*
X173006403Y-103007379D01*
X173056645Y-103142086D01*
X173056649Y-103142093D01*
X173142809Y-103257187D01*
X173142812Y-103257190D01*
X173257906Y-103343350D01*
X173257913Y-103343354D01*
X173392620Y-103393596D01*
X173392627Y-103393598D01*
X173452155Y-103399999D01*
X173452172Y-103400000D01*
X173750000Y-103400000D01*
X174250000Y-103400000D01*
X174547828Y-103400000D01*
X174547844Y-103399999D01*
X174607372Y-103393598D01*
X174607379Y-103393596D01*
X174742086Y-103343354D01*
X174742093Y-103343350D01*
X174857187Y-103257190D01*
X174857190Y-103257187D01*
X174943350Y-103142093D01*
X174943354Y-103142086D01*
X174993596Y-103007379D01*
X174993598Y-103007372D01*
X174999999Y-102947844D01*
X175000000Y-102947827D01*
X175000000Y-102650000D01*
X174250000Y-102650000D01*
X174250000Y-103400000D01*
X173750000Y-103400000D01*
X173750000Y-102650000D01*
X173000000Y-102650000D01*
X173000000Y-102947844D01*
X89200500Y-102947844D01*
X89200500Y-102350272D01*
X173750000Y-102350272D01*
X173750000Y-102449728D01*
X173788060Y-102541614D01*
X173858386Y-102611940D01*
X173950272Y-102650000D01*
X174049728Y-102650000D01*
X174141614Y-102611940D01*
X174211940Y-102541614D01*
X174250000Y-102449728D01*
X174250000Y-102400000D01*
X178342305Y-102400000D01*
X178361415Y-102557396D01*
X178396536Y-102650000D01*
X178417640Y-102705646D01*
X178507708Y-102836132D01*
X178626387Y-102941272D01*
X178626389Y-102941273D01*
X178626393Y-102941276D01*
X178752328Y-103007372D01*
X178766778Y-103014956D01*
X178920724Y-103052900D01*
X179079276Y-103052900D01*
X179233222Y-103014956D01*
X179316475Y-102971260D01*
X179373606Y-102941276D01*
X179373607Y-102941274D01*
X179373613Y-102941272D01*
X179492292Y-102836132D01*
X179582360Y-102705646D01*
X179638584Y-102557397D01*
X179645553Y-102500000D01*
X183342305Y-102500000D01*
X183361415Y-102657396D01*
X183379715Y-102705648D01*
X183417640Y-102805646D01*
X183507708Y-102936132D01*
X183626387Y-103041272D01*
X183626389Y-103041273D01*
X183626393Y-103041276D01*
X183766776Y-103114955D01*
X183766778Y-103114956D01*
X183920724Y-103152900D01*
X184079276Y-103152900D01*
X184233222Y-103114956D01*
X184351458Y-103052900D01*
X184373606Y-103041276D01*
X184373607Y-103041274D01*
X184373613Y-103041272D01*
X184492292Y-102936132D01*
X184582360Y-102805646D01*
X184638584Y-102657397D01*
X184657695Y-102500000D01*
X188342305Y-102500000D01*
X188361415Y-102657396D01*
X188379715Y-102705648D01*
X188417640Y-102805646D01*
X188507708Y-102936132D01*
X188626387Y-103041272D01*
X188626389Y-103041273D01*
X188626393Y-103041276D01*
X188766776Y-103114955D01*
X188766778Y-103114956D01*
X188920724Y-103152900D01*
X189079276Y-103152900D01*
X189233222Y-103114956D01*
X189351458Y-103052900D01*
X189373606Y-103041276D01*
X189373607Y-103041274D01*
X189373613Y-103041272D01*
X189492292Y-102936132D01*
X189582360Y-102805646D01*
X189638584Y-102657397D01*
X189657695Y-102500000D01*
X189638584Y-102342603D01*
X189582360Y-102194354D01*
X189492292Y-102063868D01*
X189373613Y-101958728D01*
X189373611Y-101958727D01*
X189373610Y-101958726D01*
X189373606Y-101958723D01*
X189233223Y-101885044D01*
X189079276Y-101847100D01*
X188920724Y-101847100D01*
X188766776Y-101885044D01*
X188626393Y-101958723D01*
X188626389Y-101958726D01*
X188507707Y-102063868D01*
X188417641Y-102194351D01*
X188361415Y-102342603D01*
X188342305Y-102500000D01*
X184657695Y-102500000D01*
X184638584Y-102342603D01*
X184582360Y-102194354D01*
X184492292Y-102063868D01*
X184373613Y-101958728D01*
X184373611Y-101958727D01*
X184373610Y-101958726D01*
X184373606Y-101958723D01*
X184233223Y-101885044D01*
X184079276Y-101847100D01*
X183920724Y-101847100D01*
X183766776Y-101885044D01*
X183626393Y-101958723D01*
X183626389Y-101958726D01*
X183507707Y-102063868D01*
X183417641Y-102194351D01*
X183361415Y-102342603D01*
X183342305Y-102500000D01*
X179645553Y-102500000D01*
X179657695Y-102400000D01*
X179638584Y-102242603D01*
X179582360Y-102094354D01*
X179492292Y-101963868D01*
X179373613Y-101858728D01*
X179373611Y-101858727D01*
X179373610Y-101858726D01*
X179373606Y-101858723D01*
X179233223Y-101785044D01*
X179079276Y-101747100D01*
X178920724Y-101747100D01*
X178766776Y-101785044D01*
X178626393Y-101858723D01*
X178626389Y-101858726D01*
X178507707Y-101963868D01*
X178417641Y-102094351D01*
X178361415Y-102242603D01*
X178342305Y-102400000D01*
X174250000Y-102400000D01*
X174250000Y-102350272D01*
X174211940Y-102258386D01*
X174141614Y-102188060D01*
X174049728Y-102150000D01*
X174250000Y-102150000D01*
X175000000Y-102150000D01*
X175000000Y-101852172D01*
X174999999Y-101852155D01*
X174993598Y-101792627D01*
X174993596Y-101792620D01*
X174943354Y-101657913D01*
X174943350Y-101657906D01*
X174857190Y-101542812D01*
X174857187Y-101542809D01*
X174742093Y-101456649D01*
X174742086Y-101456645D01*
X174607379Y-101406403D01*
X174607372Y-101406401D01*
X174547844Y-101400000D01*
X174250000Y-101400000D01*
X174250000Y-102150000D01*
X174049728Y-102150000D01*
X173950272Y-102150000D01*
X173858386Y-102188060D01*
X173788060Y-102258386D01*
X173750000Y-102350272D01*
X89200500Y-102350272D01*
X89200500Y-101852155D01*
X173000000Y-101852155D01*
X173000000Y-102150000D01*
X173750000Y-102150000D01*
X173750000Y-101400000D01*
X173452155Y-101400000D01*
X173392627Y-101406401D01*
X173392620Y-101406403D01*
X173257913Y-101456645D01*
X173257906Y-101456649D01*
X173142812Y-101542809D01*
X173142809Y-101542812D01*
X173056649Y-101657906D01*
X173056645Y-101657913D01*
X173006403Y-101792620D01*
X173006401Y-101792627D01*
X173000000Y-101852155D01*
X89200500Y-101852155D01*
X89200500Y-65381902D01*
X90079500Y-65381902D01*
X90079500Y-65618097D01*
X90116446Y-65851368D01*
X90189433Y-66075996D01*
X90296104Y-66285347D01*
X90296657Y-66286433D01*
X90435483Y-66477510D01*
X90602490Y-66644517D01*
X90793567Y-66783343D01*
X90797999Y-66785601D01*
X91004003Y-66890566D01*
X91004005Y-66890566D01*
X91004008Y-66890568D01*
X91124412Y-66929689D01*
X91228631Y-66963553D01*
X91461903Y-67000500D01*
X91461908Y-67000500D01*
X91698097Y-67000500D01*
X91931368Y-66963553D01*
X92155992Y-66890568D01*
X92366433Y-66783343D01*
X92557510Y-66644517D01*
X92724517Y-66477510D01*
X92863343Y-66286433D01*
X92970568Y-66075992D01*
X93043553Y-65851368D01*
X93080500Y-65618097D01*
X93080500Y-65500000D01*
X98192247Y-65500000D01*
X98211610Y-65696599D01*
X98211610Y-65696601D01*
X98211611Y-65696603D01*
X98268958Y-65885650D01*
X98362084Y-66059878D01*
X98362086Y-66059881D01*
X98487410Y-66212589D01*
X98640118Y-66337913D01*
X98640122Y-66337916D01*
X98814350Y-66431042D01*
X99003397Y-66488389D01*
X99200000Y-66507753D01*
X99396603Y-66488389D01*
X99585650Y-66431042D01*
X99759878Y-66337916D01*
X99912589Y-66212589D01*
X100037916Y-66059878D01*
X100131042Y-65885650D01*
X100188389Y-65696603D01*
X100207753Y-65500000D01*
X100188389Y-65303397D01*
X100131042Y-65114350D01*
X100037916Y-64940122D01*
X100024692Y-64924008D01*
X99912589Y-64787410D01*
X99759881Y-64662086D01*
X99759879Y-64662085D01*
X99759878Y-64662084D01*
X99585650Y-64568958D01*
X99396603Y-64511611D01*
X99396601Y-64511610D01*
X99396599Y-64511610D01*
X99200000Y-64492247D01*
X99003400Y-64511610D01*
X98814350Y-64568958D01*
X98640118Y-64662086D01*
X98487410Y-64787410D01*
X98362086Y-64940118D01*
X98268958Y-65114350D01*
X98211610Y-65303400D01*
X98192247Y-65500000D01*
X93080500Y-65500000D01*
X93080500Y-65381902D01*
X93043553Y-65148631D01*
X93009689Y-65044412D01*
X92970568Y-64924008D01*
X92970566Y-64924005D01*
X92970566Y-64924003D01*
X92900968Y-64787410D01*
X92863343Y-64713567D01*
X92724517Y-64522490D01*
X92557510Y-64355483D01*
X92366433Y-64216657D01*
X92155996Y-64109433D01*
X91931368Y-64036446D01*
X91698097Y-63999500D01*
X91698092Y-63999500D01*
X91461908Y-63999500D01*
X91461903Y-63999500D01*
X91228631Y-64036446D01*
X91004003Y-64109433D01*
X90793566Y-64216657D01*
X90684550Y-64295862D01*
X90602490Y-64355483D01*
X90602488Y-64355485D01*
X90602487Y-64355485D01*
X90435485Y-64522487D01*
X90435485Y-64522488D01*
X90435483Y-64522490D01*
X90401722Y-64568958D01*
X90296657Y-64713566D01*
X90189433Y-64924003D01*
X90116446Y-65148631D01*
X90079500Y-65381902D01*
X89200500Y-65381902D01*
X89200500Y-60419998D01*
X97844843Y-60419998D01*
X97844843Y-60420001D01*
X97865430Y-60655315D01*
X97865432Y-60655326D01*
X97926566Y-60883483D01*
X97926570Y-60883492D01*
X98026398Y-61097576D01*
X98085073Y-61181372D01*
X98676212Y-60590233D01*
X98687482Y-60632292D01*
X98759890Y-60757708D01*
X98862292Y-60860110D01*
X98987708Y-60932518D01*
X99029766Y-60943787D01*
X98438626Y-61534926D01*
X98522417Y-61593598D01*
X98522421Y-61593600D01*
X98736507Y-61693429D01*
X98736516Y-61693433D01*
X98945718Y-61749488D01*
X99005379Y-61785853D01*
X99035908Y-61848700D01*
X99027613Y-61918075D01*
X98983128Y-61971953D01*
X98949621Y-61987923D01*
X98814354Y-62028956D01*
X98640118Y-62122086D01*
X98487410Y-62247410D01*
X98362086Y-62400118D01*
X98268958Y-62574350D01*
X98211610Y-62763400D01*
X98192247Y-62960000D01*
X98211610Y-63156599D01*
X98211610Y-63156601D01*
X98211611Y-63156603D01*
X98268958Y-63345650D01*
X98362084Y-63519878D01*
X98362086Y-63519881D01*
X98487410Y-63672589D01*
X98640118Y-63797913D01*
X98640122Y-63797916D01*
X98814350Y-63891042D01*
X99003397Y-63948389D01*
X99200000Y-63967753D01*
X99396603Y-63948389D01*
X99585650Y-63891042D01*
X99759878Y-63797916D01*
X99912589Y-63672589D01*
X100037916Y-63519878D01*
X100131042Y-63345650D01*
X100188389Y-63156603D01*
X100206768Y-62970000D01*
X102582127Y-62970000D01*
X102601966Y-63158757D01*
X102601967Y-63158760D01*
X102660614Y-63339258D01*
X102660619Y-63339270D01*
X102755511Y-63503629D01*
X102755513Y-63503632D01*
X102793307Y-63545606D01*
X102882514Y-63644681D01*
X102939787Y-63686292D01*
X103036063Y-63756241D01*
X103209447Y-63833437D01*
X103209452Y-63833439D01*
X103395101Y-63872900D01*
X103584899Y-63872900D01*
X103770548Y-63833439D01*
X103943937Y-63756241D01*
X104097486Y-63644681D01*
X104224485Y-63503634D01*
X104252914Y-63454394D01*
X104264169Y-63434900D01*
X104314736Y-63386684D01*
X104371556Y-63372900D01*
X106451752Y-63372900D01*
X106518791Y-63392585D01*
X106539433Y-63409219D01*
X109160781Y-66030567D01*
X109194266Y-66091890D01*
X109197100Y-66118248D01*
X109197100Y-80939344D01*
X109197099Y-80939362D01*
X109197099Y-80946957D01*
X109197099Y-81053043D01*
X109199918Y-81063562D01*
X109215100Y-81120224D01*
X109224555Y-81155509D01*
X109224557Y-81155514D01*
X109277598Y-81247386D01*
X109359674Y-81329462D01*
X109359688Y-81329474D01*
X110822211Y-82791997D01*
X110822226Y-82792014D01*
X110827598Y-82797386D01*
X110827599Y-82797387D01*
X110902613Y-82872401D01*
X110994486Y-82925443D01*
X111016136Y-82931243D01*
X111016140Y-82931246D01*
X111016141Y-82931245D01*
X111096957Y-82952901D01*
X111210639Y-82952901D01*
X111210655Y-82952900D01*
X111773100Y-82952900D01*
X111840139Y-82972585D01*
X111885894Y-83025389D01*
X111897100Y-83076900D01*
X111897100Y-86258816D01*
X111880489Y-86320812D01*
X111877967Y-86325180D01*
X111877963Y-86325190D01*
X111876657Y-86330064D01*
X111844564Y-86385648D01*
X111514431Y-86715782D01*
X111453110Y-86749266D01*
X111426752Y-86752100D01*
X107836190Y-86752100D01*
X107784680Y-86740895D01*
X107780078Y-86738793D01*
X107780076Y-86738792D01*
X107655117Y-86702100D01*
X107524883Y-86702100D01*
X107524882Y-86702100D01*
X107462403Y-86720446D01*
X107399924Y-86738792D01*
X107399921Y-86738794D01*
X107290366Y-86809198D01*
X107290366Y-86809199D01*
X107205079Y-86907625D01*
X107205078Y-86907627D01*
X107150976Y-87026091D01*
X107132443Y-87155000D01*
X107150976Y-87283908D01*
X107157001Y-87297100D01*
X107205079Y-87402374D01*
X107290364Y-87500799D01*
X107290366Y-87500800D01*
X107290366Y-87500801D01*
X107334188Y-87528962D01*
X107399924Y-87571208D01*
X107499903Y-87600565D01*
X107524882Y-87607900D01*
X107524883Y-87607900D01*
X107655117Y-87607900D01*
X107780076Y-87571208D01*
X107780084Y-87571202D01*
X107784680Y-87569105D01*
X107836190Y-87557900D01*
X111584345Y-87557900D01*
X111584361Y-87557901D01*
X111591957Y-87557901D01*
X111698043Y-87557901D01*
X111706102Y-87556840D01*
X111706539Y-87560165D01*
X111760799Y-87561431D01*
X111818680Y-87600565D01*
X111846216Y-87664780D01*
X111847100Y-87679561D01*
X111847100Y-92161040D01*
X111827415Y-92228079D01*
X111810781Y-92248721D01*
X106923608Y-97135893D01*
X106902974Y-97152523D01*
X106900364Y-97154199D01*
X106871214Y-97187840D01*
X106865187Y-97194314D01*
X106837590Y-97221911D01*
X106837586Y-97221917D01*
X106835310Y-97225859D01*
X106821655Y-97245034D01*
X106815080Y-97252623D01*
X106815077Y-97252626D01*
X106799441Y-97286863D01*
X106794039Y-97297342D01*
X106777964Y-97325187D01*
X106774997Y-97336259D01*
X106768019Y-97355670D01*
X106760977Y-97371089D01*
X106760976Y-97371091D01*
X106756599Y-97401532D01*
X106753638Y-97415969D01*
X106747100Y-97440369D01*
X106747100Y-97458739D01*
X106745838Y-97476385D01*
X106742443Y-97499999D01*
X106745838Y-97523612D01*
X106747100Y-97541259D01*
X106747100Y-97559625D01*
X106753637Y-97584024D01*
X106756598Y-97598462D01*
X106760976Y-97628905D01*
X106760978Y-97628913D01*
X106768016Y-97644322D01*
X106774996Y-97663737D01*
X106777963Y-97674811D01*
X106777966Y-97674817D01*
X106794041Y-97702661D01*
X106799447Y-97713146D01*
X106815078Y-97747373D01*
X106821647Y-97754954D01*
X106835312Y-97774142D01*
X106837590Y-97778087D01*
X106837591Y-97778088D01*
X106865176Y-97805673D01*
X106871207Y-97812151D01*
X106900361Y-97845796D01*
X106900364Y-97845799D01*
X106902971Y-97847474D01*
X106915428Y-97857513D01*
X106915467Y-97857463D01*
X106921908Y-97862405D01*
X106921913Y-97862410D01*
X106961695Y-97885378D01*
X106966670Y-97888411D01*
X107009924Y-97916208D01*
X107009927Y-97916209D01*
X107009929Y-97916210D01*
X107011220Y-97916800D01*
X107020152Y-97919951D01*
X107025181Y-97922034D01*
X107025185Y-97922035D01*
X107025187Y-97922036D01*
X107076209Y-97935706D01*
X107078985Y-97936486D01*
X107088994Y-97939424D01*
X107134883Y-97952900D01*
X107134885Y-97952900D01*
X107265115Y-97952900D01*
X107265117Y-97952900D01*
X107321081Y-97936466D01*
X107323722Y-97935724D01*
X107374813Y-97922036D01*
X107374817Y-97922033D01*
X107379826Y-97919959D01*
X107388772Y-97916803D01*
X107390070Y-97916209D01*
X107390076Y-97916208D01*
X107433296Y-97888431D01*
X107438330Y-97885363D01*
X107438344Y-97885355D01*
X107478087Y-97862410D01*
X107478091Y-97862405D01*
X107484538Y-97857460D01*
X107484577Y-97857510D01*
X107497036Y-97847469D01*
X107499636Y-97845799D01*
X107528791Y-97812150D01*
X107534810Y-97805685D01*
X112662410Y-92678088D01*
X112722036Y-92574813D01*
X112752900Y-92459625D01*
X112752900Y-92340375D01*
X112752900Y-86440375D01*
X112722036Y-86325187D01*
X112722033Y-86325182D01*
X112722033Y-86325180D01*
X112719511Y-86320812D01*
X112702900Y-86258816D01*
X112702900Y-86137500D01*
X126942443Y-86137500D01*
X126960976Y-86266408D01*
X127004703Y-86362155D01*
X127015079Y-86384874D01*
X127100364Y-86483299D01*
X127100366Y-86483300D01*
X127100366Y-86483301D01*
X127144188Y-86511462D01*
X127209924Y-86553708D01*
X127311765Y-86583612D01*
X127334882Y-86590400D01*
X127334883Y-86590400D01*
X127465118Y-86590400D01*
X127484625Y-86584671D01*
X127590076Y-86553708D01*
X127699636Y-86483299D01*
X127699637Y-86483298D01*
X127709516Y-86471898D01*
X127768293Y-86434123D01*
X127803229Y-86429100D01*
X128653741Y-86429100D01*
X128720780Y-86448785D01*
X128741422Y-86465419D01*
X129334581Y-87058577D01*
X129368066Y-87119900D01*
X129370900Y-87146258D01*
X129370900Y-92245568D01*
X129370901Y-92245573D01*
X129405775Y-92329769D01*
X129405776Y-92329771D01*
X129405778Y-92329775D01*
X129405779Y-92329776D01*
X129405780Y-92329777D01*
X130270223Y-93194220D01*
X130270224Y-93194220D01*
X130270226Y-93194222D01*
X130319546Y-93214650D01*
X130319549Y-93214652D01*
X130319550Y-93214652D01*
X130329767Y-93218884D01*
X130354429Y-93229100D01*
X130354430Y-93229100D01*
X130445570Y-93229100D01*
X132742616Y-93229100D01*
X132809655Y-93248785D01*
X132836329Y-93271898D01*
X132900362Y-93345797D01*
X132900366Y-93345801D01*
X132944188Y-93373962D01*
X133009924Y-93416208D01*
X133111765Y-93446112D01*
X133134882Y-93452900D01*
X133134883Y-93452900D01*
X133265118Y-93452900D01*
X133284625Y-93447171D01*
X133390076Y-93416208D01*
X133499636Y-93345799D01*
X133563671Y-93271897D01*
X133622449Y-93234123D01*
X133657384Y-93229100D01*
X136045569Y-93229100D01*
X136045570Y-93229100D01*
X136045571Y-93229100D01*
X136070233Y-93218884D01*
X136129775Y-93194222D01*
X136235225Y-93088770D01*
X136296546Y-93055287D01*
X136326014Y-93054234D01*
X136326014Y-93052900D01*
X136465118Y-93052900D01*
X136484625Y-93047171D01*
X136590076Y-93016208D01*
X136699636Y-92945799D01*
X136784921Y-92847374D01*
X136839023Y-92728909D01*
X136857557Y-92600000D01*
X136839023Y-92471091D01*
X136784921Y-92352626D01*
X136699636Y-92254201D01*
X136699633Y-92254199D01*
X136699633Y-92254198D01*
X136617466Y-92201394D01*
X136590076Y-92183792D01*
X136506770Y-92159330D01*
X136465118Y-92147100D01*
X136465117Y-92147100D01*
X136334883Y-92147100D01*
X136334882Y-92147100D01*
X136272403Y-92165446D01*
X136209924Y-92183792D01*
X136191028Y-92195935D01*
X136100366Y-92254198D01*
X136100366Y-92254199D01*
X136015079Y-92352625D01*
X136015078Y-92352627D01*
X135960976Y-92471091D01*
X135942443Y-92600000D01*
X135946649Y-92629254D01*
X135936705Y-92698412D01*
X135890950Y-92751216D01*
X135823911Y-92770900D01*
X133657384Y-92770900D01*
X133590345Y-92751215D01*
X133563671Y-92728102D01*
X133499637Y-92654202D01*
X133499633Y-92654198D01*
X133415296Y-92600000D01*
X133390076Y-92583792D01*
X133306770Y-92559330D01*
X133265118Y-92547100D01*
X133265117Y-92547100D01*
X133134883Y-92547100D01*
X133134882Y-92547100D01*
X133072403Y-92565446D01*
X133009924Y-92583792D01*
X133009921Y-92583794D01*
X132900366Y-92654198D01*
X132900362Y-92654202D01*
X132836329Y-92728102D01*
X132777551Y-92765877D01*
X132742616Y-92770900D01*
X130546258Y-92770900D01*
X130479219Y-92751215D01*
X130458577Y-92734581D01*
X129865419Y-92141422D01*
X129831934Y-92080099D01*
X129829100Y-92053741D01*
X129829100Y-91295841D01*
X130237100Y-91295841D01*
X130237100Y-91444158D01*
X130266031Y-91589605D01*
X130266033Y-91589613D01*
X130322789Y-91726633D01*
X130405182Y-91849944D01*
X130405188Y-91849951D01*
X130510048Y-91954811D01*
X130510055Y-91954817D01*
X130633366Y-92037210D01*
X130633367Y-92037210D01*
X130633368Y-92037211D01*
X130770387Y-92093967D01*
X130915841Y-92122899D01*
X130915845Y-92122900D01*
X130915846Y-92122900D01*
X131564155Y-92122900D01*
X131564156Y-92122899D01*
X131709613Y-92093967D01*
X131846632Y-92037211D01*
X131969946Y-91954816D01*
X132074816Y-91849946D01*
X132157211Y-91726632D01*
X132213967Y-91589613D01*
X132242900Y-91444154D01*
X132242900Y-91295846D01*
X132242899Y-91295841D01*
X138347100Y-91295841D01*
X138347100Y-91444158D01*
X138376031Y-91589605D01*
X138376033Y-91589613D01*
X138432789Y-91726633D01*
X138515182Y-91849944D01*
X138515188Y-91849951D01*
X138620048Y-91954811D01*
X138620055Y-91954817D01*
X138743366Y-92037210D01*
X138743367Y-92037210D01*
X138743368Y-92037211D01*
X138880387Y-92093967D01*
X139025841Y-92122899D01*
X139025845Y-92122900D01*
X139025846Y-92122900D01*
X139674155Y-92122900D01*
X139674156Y-92122899D01*
X139819613Y-92093967D01*
X139956632Y-92037211D01*
X140079946Y-91954816D01*
X140184816Y-91849946D01*
X140267211Y-91726632D01*
X140323967Y-91589613D01*
X140352900Y-91444154D01*
X140352900Y-91295846D01*
X140323967Y-91150387D01*
X140267211Y-91013368D01*
X140184816Y-90890054D01*
X140184811Y-90890048D01*
X140079951Y-90785188D01*
X140079944Y-90785182D01*
X139956633Y-90702789D01*
X139819613Y-90646033D01*
X139819605Y-90646031D01*
X139674158Y-90617100D01*
X139674154Y-90617100D01*
X139025846Y-90617100D01*
X139025841Y-90617100D01*
X138880394Y-90646031D01*
X138880386Y-90646033D01*
X138743366Y-90702789D01*
X138620055Y-90785182D01*
X138620048Y-90785188D01*
X138515188Y-90890048D01*
X138515182Y-90890055D01*
X138432789Y-91013366D01*
X138376033Y-91150386D01*
X138376031Y-91150394D01*
X138347100Y-91295841D01*
X132242899Y-91295841D01*
X132213967Y-91150387D01*
X132157211Y-91013368D01*
X132074816Y-90890054D01*
X132074811Y-90890048D01*
X131969951Y-90785188D01*
X131969944Y-90785182D01*
X131846633Y-90702789D01*
X131709613Y-90646033D01*
X131709605Y-90646031D01*
X131564158Y-90617100D01*
X131564154Y-90617100D01*
X130915846Y-90617100D01*
X130915841Y-90617100D01*
X130770394Y-90646031D01*
X130770386Y-90646033D01*
X130633366Y-90702789D01*
X130510055Y-90785182D01*
X130510048Y-90785188D01*
X130405188Y-90890048D01*
X130405182Y-90890055D01*
X130322789Y-91013366D01*
X130266033Y-91150386D01*
X130266031Y-91150394D01*
X130237100Y-91295841D01*
X129829100Y-91295841D01*
X129829100Y-88238152D01*
X130647100Y-88238152D01*
X130647100Y-88361847D01*
X130671228Y-88483144D01*
X130671231Y-88483156D01*
X130718560Y-88597420D01*
X130718562Y-88597423D01*
X130787274Y-88700258D01*
X130787280Y-88700266D01*
X130874733Y-88787719D01*
X130874741Y-88787725D01*
X130977576Y-88856437D01*
X130977579Y-88856439D01*
X131091843Y-88903768D01*
X131091848Y-88903770D01*
X131213152Y-88927899D01*
X131213155Y-88927900D01*
X131213157Y-88927900D01*
X131736845Y-88927900D01*
X131736846Y-88927899D01*
X131858152Y-88903770D01*
X131972422Y-88856438D01*
X132075263Y-88787722D01*
X132162722Y-88700263D01*
X132231438Y-88597422D01*
X132278770Y-88483152D01*
X132302900Y-88361843D01*
X132302900Y-88238157D01*
X132302900Y-88238154D01*
X132302899Y-88238152D01*
X132278771Y-88116855D01*
X132278770Y-88116848D01*
X132270051Y-88095799D01*
X132231439Y-88002579D01*
X132231437Y-88002576D01*
X132162725Y-87899741D01*
X132162719Y-87899733D01*
X132075266Y-87812280D01*
X132075258Y-87812274D01*
X131982058Y-87750000D01*
X134292443Y-87750000D01*
X134310976Y-87878908D01*
X134365078Y-87997372D01*
X134365079Y-87997374D01*
X134450364Y-88095799D01*
X134450366Y-88095800D01*
X134450366Y-88095801D01*
X134483117Y-88116848D01*
X134559924Y-88166208D01*
X134661765Y-88196112D01*
X134684882Y-88202900D01*
X134823986Y-88202900D01*
X134823986Y-88205806D01*
X134878601Y-88213656D01*
X134914775Y-88238772D01*
X135324124Y-88648120D01*
X135357609Y-88709443D01*
X135352625Y-88779134D01*
X135349237Y-88787312D01*
X135310977Y-88871089D01*
X135310977Y-88871090D01*
X135292443Y-89000000D01*
X135310976Y-89128908D01*
X135341526Y-89195801D01*
X135365079Y-89247374D01*
X135450364Y-89345799D01*
X135450366Y-89345800D01*
X135450366Y-89345801D01*
X135494188Y-89373962D01*
X135559924Y-89416208D01*
X135661765Y-89446112D01*
X135684882Y-89452900D01*
X135684883Y-89452900D01*
X135815118Y-89452900D01*
X135834625Y-89447171D01*
X135940076Y-89416208D01*
X136049636Y-89345799D01*
X136134921Y-89247374D01*
X136189023Y-89128909D01*
X136207557Y-89000000D01*
X136189023Y-88871091D01*
X136134921Y-88752626D01*
X136049636Y-88654201D01*
X136049633Y-88654199D01*
X136049633Y-88654198D01*
X135969384Y-88602627D01*
X135940076Y-88583792D01*
X135934530Y-88582163D01*
X135924728Y-88579285D01*
X135871986Y-88547990D01*
X135562148Y-88238152D01*
X138197100Y-88238152D01*
X138197100Y-88361847D01*
X138221228Y-88483144D01*
X138221231Y-88483156D01*
X138268560Y-88597420D01*
X138268562Y-88597423D01*
X138337274Y-88700258D01*
X138337280Y-88700266D01*
X138424733Y-88787719D01*
X138424741Y-88787725D01*
X138527576Y-88856437D01*
X138527579Y-88856439D01*
X138641843Y-88903768D01*
X138641848Y-88903770D01*
X138763152Y-88927899D01*
X138763155Y-88927900D01*
X138763157Y-88927900D01*
X139286845Y-88927900D01*
X139286846Y-88927899D01*
X139408152Y-88903770D01*
X139522422Y-88856438D01*
X139625263Y-88787722D01*
X139712722Y-88700263D01*
X139781438Y-88597422D01*
X139828770Y-88483152D01*
X139852900Y-88361843D01*
X139852900Y-88238157D01*
X139852900Y-88238154D01*
X139852899Y-88238152D01*
X139828771Y-88116855D01*
X139828770Y-88116848D01*
X139820051Y-88095799D01*
X139781439Y-88002579D01*
X139781437Y-88002576D01*
X139712725Y-87899741D01*
X139712719Y-87899733D01*
X139625266Y-87812280D01*
X139625258Y-87812274D01*
X139522423Y-87743562D01*
X139522420Y-87743560D01*
X139408156Y-87696231D01*
X139408144Y-87696228D01*
X139286846Y-87672100D01*
X139286843Y-87672100D01*
X138763157Y-87672100D01*
X138763154Y-87672100D01*
X138641855Y-87696228D01*
X138641843Y-87696231D01*
X138527579Y-87743560D01*
X138527576Y-87743562D01*
X138424741Y-87812274D01*
X138424733Y-87812280D01*
X138337280Y-87899733D01*
X138337274Y-87899741D01*
X138268562Y-88002576D01*
X138268560Y-88002579D01*
X138221231Y-88116843D01*
X138221228Y-88116855D01*
X138197100Y-88238152D01*
X135562148Y-88238152D01*
X135234658Y-87910661D01*
X135201173Y-87849338D01*
X135199601Y-87805333D01*
X135207557Y-87750000D01*
X135189023Y-87621091D01*
X135134921Y-87502626D01*
X135049636Y-87404201D01*
X135049633Y-87404199D01*
X135049633Y-87404198D01*
X134983900Y-87361955D01*
X134940076Y-87333792D01*
X134856770Y-87309330D01*
X134815118Y-87297100D01*
X134815117Y-87297100D01*
X134684883Y-87297100D01*
X134684882Y-87297100D01*
X134622403Y-87315446D01*
X134559924Y-87333792D01*
X134559921Y-87333794D01*
X134450366Y-87404198D01*
X134450366Y-87404199D01*
X134365079Y-87502625D01*
X134365078Y-87502627D01*
X134310976Y-87621091D01*
X134292443Y-87750000D01*
X131982058Y-87750000D01*
X131972423Y-87743562D01*
X131972420Y-87743560D01*
X131858156Y-87696231D01*
X131858144Y-87696228D01*
X131736846Y-87672100D01*
X131736843Y-87672100D01*
X131213157Y-87672100D01*
X131213154Y-87672100D01*
X131091855Y-87696228D01*
X131091843Y-87696231D01*
X130977579Y-87743560D01*
X130977576Y-87743562D01*
X130874741Y-87812274D01*
X130874733Y-87812280D01*
X130787280Y-87899733D01*
X130787274Y-87899741D01*
X130718562Y-88002576D01*
X130718560Y-88002579D01*
X130671231Y-88116843D01*
X130671228Y-88116855D01*
X130647100Y-88238152D01*
X129829100Y-88238152D01*
X129829100Y-86954430D01*
X129829099Y-86954427D01*
X129809714Y-86907627D01*
X129807756Y-86902900D01*
X129794222Y-86870226D01*
X128929775Y-86005778D01*
X128870233Y-85981115D01*
X128870232Y-85981114D01*
X128845571Y-85970900D01*
X127901499Y-85970900D01*
X127834460Y-85951215D01*
X127788705Y-85898411D01*
X127784921Y-85890126D01*
X127699636Y-85791701D01*
X127699633Y-85791699D01*
X127699633Y-85791698D01*
X127628924Y-85746258D01*
X127590076Y-85721292D01*
X127500181Y-85694896D01*
X127465118Y-85684600D01*
X127465117Y-85684600D01*
X127334883Y-85684600D01*
X127334882Y-85684600D01*
X127272403Y-85702946D01*
X127209924Y-85721292D01*
X127209921Y-85721294D01*
X127100366Y-85791698D01*
X127100366Y-85791699D01*
X127015079Y-85890125D01*
X127015078Y-85890127D01*
X126960976Y-86008591D01*
X126942443Y-86137500D01*
X112702900Y-86137500D01*
X112702900Y-85155841D01*
X130237100Y-85155841D01*
X130237100Y-85304158D01*
X130266031Y-85449605D01*
X130266033Y-85449613D01*
X130322789Y-85586633D01*
X130405182Y-85709944D01*
X130405188Y-85709951D01*
X130510048Y-85814811D01*
X130510055Y-85814817D01*
X130633366Y-85897210D01*
X130633367Y-85897210D01*
X130633368Y-85897211D01*
X130770387Y-85953967D01*
X130906867Y-85981114D01*
X130915841Y-85982899D01*
X130915845Y-85982900D01*
X130915846Y-85982900D01*
X131564155Y-85982900D01*
X131564156Y-85982899D01*
X131709613Y-85953967D01*
X131846632Y-85897211D01*
X131969946Y-85814816D01*
X132074816Y-85709946D01*
X132157211Y-85586632D01*
X132213967Y-85449613D01*
X132242900Y-85304154D01*
X132242900Y-85155846D01*
X132242899Y-85155841D01*
X138347100Y-85155841D01*
X138347100Y-85304158D01*
X138376031Y-85449605D01*
X138376033Y-85449613D01*
X138432789Y-85586633D01*
X138515182Y-85709944D01*
X138515188Y-85709951D01*
X138620048Y-85814811D01*
X138620055Y-85814817D01*
X138743366Y-85897210D01*
X138743367Y-85897210D01*
X138743368Y-85897211D01*
X138880387Y-85953967D01*
X139016867Y-85981114D01*
X139025841Y-85982899D01*
X139025845Y-85982900D01*
X139025846Y-85982900D01*
X139674155Y-85982900D01*
X139674156Y-85982899D01*
X139819613Y-85953967D01*
X139956632Y-85897211D01*
X140079946Y-85814816D01*
X140184816Y-85709946D01*
X140267211Y-85586632D01*
X140323967Y-85449613D01*
X140352900Y-85304154D01*
X140352900Y-85155846D01*
X140323967Y-85010387D01*
X140267211Y-84873368D01*
X140260885Y-84863901D01*
X140184817Y-84750055D01*
X140184811Y-84750048D01*
X140079951Y-84645188D01*
X140079944Y-84645182D01*
X140012322Y-84599999D01*
X145342443Y-84599999D01*
X145345838Y-84623612D01*
X145347100Y-84641259D01*
X145347100Y-84659625D01*
X145353637Y-84684024D01*
X145356598Y-84698462D01*
X145360976Y-84728905D01*
X145360978Y-84728913D01*
X145368016Y-84744322D01*
X145374996Y-84763737D01*
X145377963Y-84774811D01*
X145377966Y-84774817D01*
X145394041Y-84802661D01*
X145399447Y-84813146D01*
X145415078Y-84847373D01*
X145421647Y-84854954D01*
X145435312Y-84874142D01*
X145437590Y-84878087D01*
X145437591Y-84878088D01*
X145465183Y-84905680D01*
X145471215Y-84912159D01*
X145500364Y-84945799D01*
X145502971Y-84947474D01*
X145523609Y-84964106D01*
X145710781Y-85151278D01*
X145744266Y-85212601D01*
X145747100Y-85238959D01*
X145747100Y-95859624D01*
X145777964Y-95974814D01*
X145807777Y-96026450D01*
X145837590Y-96078087D01*
X149971913Y-100212410D01*
X150075187Y-100272036D01*
X150190375Y-100302900D01*
X150309625Y-100302900D01*
X153058816Y-100302900D01*
X153120816Y-100319513D01*
X153125183Y-100322034D01*
X153125184Y-100322034D01*
X153125187Y-100322036D01*
X153240375Y-100352900D01*
X153240377Y-100352900D01*
X153359623Y-100352900D01*
X153359625Y-100352900D01*
X153474813Y-100322036D01*
X153578087Y-100262410D01*
X153626391Y-100214104D01*
X153647032Y-100197471D01*
X153649636Y-100195799D01*
X153678793Y-100162148D01*
X153684798Y-100155697D01*
X153712410Y-100128087D01*
X153714681Y-100124153D01*
X153728348Y-100104958D01*
X153734921Y-100097374D01*
X153750561Y-100063124D01*
X153755953Y-100052668D01*
X153772036Y-100024813D01*
X153774999Y-100013749D01*
X153781982Y-99994324D01*
X153789023Y-99978909D01*
X153793401Y-99948451D01*
X153796359Y-99934033D01*
X153802900Y-99909625D01*
X153802900Y-99891259D01*
X153804162Y-99873612D01*
X153807557Y-99849999D01*
X153804162Y-99826385D01*
X153802900Y-99808739D01*
X153802900Y-99790376D01*
X153802899Y-99790372D01*
X153796362Y-99765975D01*
X153793398Y-99751523D01*
X153789023Y-99721092D01*
X153789023Y-99721091D01*
X153781983Y-99705676D01*
X153775000Y-99686251D01*
X153772036Y-99675187D01*
X153772035Y-99675186D01*
X153755959Y-99647341D01*
X153750552Y-99636852D01*
X153734924Y-99602632D01*
X153734923Y-99602630D01*
X153734921Y-99602626D01*
X153728354Y-99595048D01*
X153714679Y-99575842D01*
X153714244Y-99575089D01*
X153712410Y-99571912D01*
X153684796Y-99544298D01*
X153678792Y-99537850D01*
X153649636Y-99504201D01*
X153647032Y-99502527D01*
X153634572Y-99492486D01*
X153634534Y-99492537D01*
X153628092Y-99487594D01*
X153628088Y-99487590D01*
X153588336Y-99464639D01*
X153583298Y-99461568D01*
X153540077Y-99433792D01*
X153538781Y-99433200D01*
X153529843Y-99430047D01*
X153524811Y-99427963D01*
X153473784Y-99414289D01*
X153470946Y-99413492D01*
X153415119Y-99397100D01*
X153415117Y-99397100D01*
X153409625Y-99397100D01*
X150488959Y-99397100D01*
X150421920Y-99377415D01*
X150401278Y-99360781D01*
X148040497Y-97000000D01*
X178342305Y-97000000D01*
X178361415Y-97157396D01*
X178394653Y-97245034D01*
X178410516Y-97286863D01*
X178417641Y-97305648D01*
X178493790Y-97415969D01*
X178507708Y-97436132D01*
X178626387Y-97541272D01*
X178626389Y-97541273D01*
X178626393Y-97541276D01*
X178766776Y-97614955D01*
X178766778Y-97614956D01*
X178920724Y-97652900D01*
X179079276Y-97652900D01*
X179233222Y-97614956D01*
X179338645Y-97559625D01*
X179373606Y-97541276D01*
X179373607Y-97541274D01*
X179373613Y-97541272D01*
X179492292Y-97436132D01*
X179582360Y-97305646D01*
X179638584Y-97157397D01*
X179657695Y-97000000D01*
X183342305Y-97000000D01*
X183361415Y-97157396D01*
X183394653Y-97245034D01*
X183410516Y-97286863D01*
X183417641Y-97305648D01*
X183493790Y-97415969D01*
X183507708Y-97436132D01*
X183626387Y-97541272D01*
X183626389Y-97541273D01*
X183626393Y-97541276D01*
X183766776Y-97614955D01*
X183766778Y-97614956D01*
X183920724Y-97652900D01*
X184079276Y-97652900D01*
X184233222Y-97614956D01*
X184338645Y-97559625D01*
X184373606Y-97541276D01*
X184373607Y-97541274D01*
X184373613Y-97541272D01*
X184492292Y-97436132D01*
X184582360Y-97305646D01*
X184638584Y-97157397D01*
X184657695Y-97000000D01*
X188342305Y-97000000D01*
X188361415Y-97157396D01*
X188394653Y-97245034D01*
X188410516Y-97286863D01*
X188417641Y-97305648D01*
X188493790Y-97415969D01*
X188507708Y-97436132D01*
X188626387Y-97541272D01*
X188626389Y-97541273D01*
X188626393Y-97541276D01*
X188766776Y-97614955D01*
X188766778Y-97614956D01*
X188920724Y-97652900D01*
X189079276Y-97652900D01*
X189233222Y-97614956D01*
X189338645Y-97559625D01*
X189373606Y-97541276D01*
X189373607Y-97541274D01*
X189373613Y-97541272D01*
X189492292Y-97436132D01*
X189582360Y-97305646D01*
X189638584Y-97157397D01*
X189657695Y-97000000D01*
X189638584Y-96842603D01*
X189582360Y-96694354D01*
X189492292Y-96563868D01*
X189373613Y-96458728D01*
X189373611Y-96458727D01*
X189373610Y-96458726D01*
X189373606Y-96458723D01*
X189233223Y-96385044D01*
X189079276Y-96347100D01*
X188920724Y-96347100D01*
X188766776Y-96385044D01*
X188626393Y-96458723D01*
X188626389Y-96458726D01*
X188507707Y-96563868D01*
X188417641Y-96694351D01*
X188361415Y-96842603D01*
X188342305Y-97000000D01*
X184657695Y-97000000D01*
X184638584Y-96842603D01*
X184582360Y-96694354D01*
X184492292Y-96563868D01*
X184373613Y-96458728D01*
X184373611Y-96458727D01*
X184373610Y-96458726D01*
X184373606Y-96458723D01*
X184233223Y-96385044D01*
X184079276Y-96347100D01*
X183920724Y-96347100D01*
X183766776Y-96385044D01*
X183626393Y-96458723D01*
X183626389Y-96458726D01*
X183507707Y-96563868D01*
X183417641Y-96694351D01*
X183361415Y-96842603D01*
X183342305Y-97000000D01*
X179657695Y-97000000D01*
X179638584Y-96842603D01*
X179582360Y-96694354D01*
X179492292Y-96563868D01*
X179373613Y-96458728D01*
X179373611Y-96458727D01*
X179373610Y-96458726D01*
X179373606Y-96458723D01*
X179233223Y-96385044D01*
X179079276Y-96347100D01*
X178920724Y-96347100D01*
X178766776Y-96385044D01*
X178626393Y-96458723D01*
X178626389Y-96458726D01*
X178507707Y-96563868D01*
X178417641Y-96694351D01*
X178361415Y-96842603D01*
X178342305Y-97000000D01*
X148040497Y-97000000D01*
X146689219Y-95648722D01*
X146655734Y-95587399D01*
X146652900Y-95561041D01*
X146652900Y-93750000D01*
X165392443Y-93750000D01*
X165410976Y-93878908D01*
X165460318Y-93986949D01*
X165465079Y-93997374D01*
X165550364Y-94095799D01*
X165550366Y-94095800D01*
X165550366Y-94095801D01*
X165594188Y-94123962D01*
X165659924Y-94166208D01*
X165761765Y-94196112D01*
X165784882Y-94202900D01*
X165784883Y-94202900D01*
X165915118Y-94202900D01*
X165934625Y-94197171D01*
X166040076Y-94166208D01*
X166149636Y-94095799D01*
X166193049Y-94045696D01*
X166251827Y-94007923D01*
X166286762Y-94002900D01*
X176785253Y-94002900D01*
X176785261Y-94002901D01*
X176799695Y-94002901D01*
X176900305Y-94002901D01*
X176927529Y-93991623D01*
X176938807Y-93986952D01*
X176938809Y-93986950D01*
X176993257Y-93964399D01*
X177064399Y-93893257D01*
X177064399Y-93893254D01*
X177076314Y-93881340D01*
X177076317Y-93881335D01*
X178625814Y-92331839D01*
X178625818Y-92331837D01*
X178643256Y-92314399D01*
X178643257Y-92314399D01*
X178714399Y-92243257D01*
X178739030Y-92183792D01*
X178739031Y-92183791D01*
X178752899Y-92150309D01*
X178752901Y-92150305D01*
X178752901Y-92049695D01*
X178752901Y-92039706D01*
X178752900Y-92039692D01*
X178752900Y-71542924D01*
X178772585Y-71475885D01*
X178795700Y-71449209D01*
X178799628Y-71445803D01*
X178799636Y-71445799D01*
X178884921Y-71347374D01*
X178939023Y-71228909D01*
X178957557Y-71100000D01*
X178939023Y-70971091D01*
X178884921Y-70852626D01*
X178799636Y-70754201D01*
X178799633Y-70754199D01*
X178799633Y-70754198D01*
X178733900Y-70711955D01*
X178690076Y-70683792D01*
X178594661Y-70655775D01*
X178565118Y-70647100D01*
X178565117Y-70647100D01*
X178434883Y-70647100D01*
X178434882Y-70647100D01*
X178405339Y-70655775D01*
X178309924Y-70683792D01*
X178309921Y-70683794D01*
X178200366Y-70754198D01*
X178200366Y-70754199D01*
X178115079Y-70852625D01*
X178115078Y-70852627D01*
X178060976Y-70971091D01*
X178042443Y-71100000D01*
X178060976Y-71228908D01*
X178100103Y-71314582D01*
X178115079Y-71347374D01*
X178200364Y-71445799D01*
X178200367Y-71445801D01*
X178204300Y-71449209D01*
X178242076Y-71507986D01*
X178247100Y-71542924D01*
X178247100Y-91943883D01*
X178227415Y-92010922D01*
X178210781Y-92031564D01*
X176781565Y-93460781D01*
X176720242Y-93494266D01*
X176693884Y-93497100D01*
X166286762Y-93497100D01*
X166219723Y-93477415D01*
X166193049Y-93454303D01*
X166149636Y-93404201D01*
X166149633Y-93404199D01*
X166149633Y-93404198D01*
X166083900Y-93361955D01*
X166040076Y-93333792D01*
X165956770Y-93309330D01*
X165915118Y-93297100D01*
X165915117Y-93297100D01*
X165784883Y-93297100D01*
X165784882Y-93297100D01*
X165722403Y-93315446D01*
X165659924Y-93333792D01*
X165659921Y-93333794D01*
X165550366Y-93404198D01*
X165550366Y-93404199D01*
X165465079Y-93502625D01*
X165465078Y-93502627D01*
X165410976Y-93621091D01*
X165392443Y-93750000D01*
X146652900Y-93750000D01*
X146652900Y-88850000D01*
X165442443Y-88850000D01*
X165460976Y-88978908D01*
X165470609Y-89000000D01*
X165515079Y-89097374D01*
X165600364Y-89195799D01*
X165600366Y-89195800D01*
X165600366Y-89195801D01*
X165644188Y-89223962D01*
X165709924Y-89266208D01*
X165811765Y-89296112D01*
X165834882Y-89302900D01*
X165834883Y-89302900D01*
X165965118Y-89302900D01*
X165984625Y-89297171D01*
X166090076Y-89266208D01*
X166199636Y-89195799D01*
X166284921Y-89097374D01*
X166339023Y-88978909D01*
X166357557Y-88850000D01*
X166339023Y-88721091D01*
X166284921Y-88602626D01*
X166284919Y-88602624D01*
X166284918Y-88602621D01*
X166199641Y-88504206D01*
X166199637Y-88504202D01*
X166199636Y-88504201D01*
X166186058Y-88495474D01*
X166140305Y-88442671D01*
X166129100Y-88391161D01*
X166129100Y-85746258D01*
X166148785Y-85679219D01*
X166165419Y-85658577D01*
X167894219Y-83929777D01*
X167894221Y-83929775D01*
X167929100Y-83845571D01*
X167929100Y-71146259D01*
X167948785Y-71079220D01*
X167965419Y-71058578D01*
X168094231Y-70929766D01*
X168303051Y-70720945D01*
X168364372Y-70687462D01*
X168434063Y-70692446D01*
X168484442Y-70727424D01*
X168500364Y-70745799D01*
X168500365Y-70745799D01*
X168500366Y-70745801D01*
X168544188Y-70773962D01*
X168609924Y-70816208D01*
X168711765Y-70846112D01*
X168734882Y-70852900D01*
X168734883Y-70852900D01*
X168865118Y-70852900D01*
X168884625Y-70847171D01*
X168990076Y-70816208D01*
X169099636Y-70745799D01*
X169184921Y-70647374D01*
X169239023Y-70528909D01*
X169257557Y-70400000D01*
X169239023Y-70271091D01*
X169184921Y-70152626D01*
X169099636Y-70054201D01*
X169099633Y-70054199D01*
X169099633Y-70054198D01*
X169033900Y-70011955D01*
X168990076Y-69983792D01*
X168906770Y-69959330D01*
X168865118Y-69947100D01*
X168865117Y-69947100D01*
X168734883Y-69947100D01*
X168734882Y-69947100D01*
X168672403Y-69965446D01*
X168609924Y-69983792D01*
X168609921Y-69983794D01*
X168500366Y-70054198D01*
X168500362Y-70054202D01*
X168436329Y-70128102D01*
X168377551Y-70165877D01*
X168342616Y-70170900D01*
X168254428Y-70170900D01*
X168229768Y-70181112D01*
X168229769Y-70181113D01*
X168170226Y-70205777D01*
X168170223Y-70205779D01*
X167505779Y-70870223D01*
X167505777Y-70870226D01*
X167481113Y-70929769D01*
X167470900Y-70954428D01*
X167470900Y-83653741D01*
X167451215Y-83720780D01*
X167434581Y-83741422D01*
X165705779Y-85470223D01*
X165705777Y-85470226D01*
X165681113Y-85529769D01*
X165670900Y-85554428D01*
X165670900Y-88391161D01*
X165651215Y-88458200D01*
X165613942Y-88495474D01*
X165605566Y-88500857D01*
X165600362Y-88504202D01*
X165600358Y-88504206D01*
X165515081Y-88602621D01*
X165515078Y-88602627D01*
X165460976Y-88721091D01*
X165442443Y-88850000D01*
X146652900Y-88850000D01*
X146652900Y-85376900D01*
X146672585Y-85309861D01*
X146725389Y-85264106D01*
X146776900Y-85252900D01*
X153459623Y-85252900D01*
X153459625Y-85252900D01*
X153574813Y-85222036D01*
X153678087Y-85162410D01*
X155562410Y-83278088D01*
X155622036Y-83174813D01*
X155652900Y-83059625D01*
X155652900Y-81426900D01*
X155672585Y-81359861D01*
X155725389Y-81314106D01*
X155776900Y-81302900D01*
X157739345Y-81302900D01*
X157739361Y-81302901D01*
X157746957Y-81302901D01*
X157853042Y-81302901D01*
X157853043Y-81302901D01*
X157933854Y-81281246D01*
X157933856Y-81281246D01*
X157943908Y-81278552D01*
X157955514Y-81275443D01*
X158047387Y-81222401D01*
X158122401Y-81147387D01*
X158122401Y-81147385D01*
X158131299Y-81138488D01*
X158131307Y-81138477D01*
X165437176Y-73832609D01*
X165437182Y-73832605D01*
X165447385Y-73822401D01*
X165447387Y-73822401D01*
X165522401Y-73747387D01*
X165575443Y-73655514D01*
X165602901Y-73553043D01*
X165602901Y-73446957D01*
X165602901Y-73439362D01*
X165602900Y-73439344D01*
X165602900Y-72841183D01*
X165619515Y-72779179D01*
X165622036Y-72774813D01*
X165624999Y-72763749D01*
X165631982Y-72744324D01*
X165639023Y-72728909D01*
X165643401Y-72698451D01*
X165646359Y-72684033D01*
X165652900Y-72659625D01*
X165652900Y-72641259D01*
X165654162Y-72623612D01*
X165657557Y-72599999D01*
X165654162Y-72576385D01*
X165652900Y-72558739D01*
X165652900Y-72540376D01*
X165652899Y-72540372D01*
X165646362Y-72515975D01*
X165643398Y-72501523D01*
X165639023Y-72471092D01*
X165639023Y-72471091D01*
X165631983Y-72455676D01*
X165625000Y-72436251D01*
X165622036Y-72425187D01*
X165622035Y-72425186D01*
X165605959Y-72397341D01*
X165600552Y-72386852D01*
X165584924Y-72352632D01*
X165584921Y-72352627D01*
X165584921Y-72352626D01*
X165583185Y-72350623D01*
X165582086Y-72348217D01*
X165580126Y-72345166D01*
X165580564Y-72344884D01*
X165554162Y-72287067D01*
X165552900Y-72269422D01*
X165552900Y-65049695D01*
X169847099Y-65049695D01*
X169847099Y-65150305D01*
X169885302Y-65242532D01*
X169885603Y-65243258D01*
X169956741Y-65314396D01*
X169956742Y-65314396D01*
X169956744Y-65314398D01*
X170049695Y-65352901D01*
X170049697Y-65352901D01*
X170150303Y-65352901D01*
X170150305Y-65352901D01*
X170243256Y-65314398D01*
X170731338Y-64826314D01*
X170731342Y-64826312D01*
X170743254Y-64814399D01*
X170743257Y-64814399D01*
X170814399Y-64743257D01*
X170836952Y-64688806D01*
X170852901Y-64650305D01*
X170852901Y-64549695D01*
X170852901Y-64539706D01*
X170852900Y-64539692D01*
X170852900Y-64055424D01*
X170872585Y-63988385D01*
X170895700Y-63961709D01*
X170899628Y-63958303D01*
X170899636Y-63958299D01*
X170984921Y-63859874D01*
X171039023Y-63741409D01*
X171057557Y-63612500D01*
X171039023Y-63483591D01*
X170984921Y-63365126D01*
X170899636Y-63266701D01*
X170899633Y-63266699D01*
X170899633Y-63266698D01*
X170833900Y-63224455D01*
X170790076Y-63196292D01*
X170706770Y-63171830D01*
X170665118Y-63159600D01*
X170665117Y-63159600D01*
X170534883Y-63159600D01*
X170534882Y-63159600D01*
X170472403Y-63177946D01*
X170409924Y-63196292D01*
X170409921Y-63196294D01*
X170300366Y-63266698D01*
X170300366Y-63266699D01*
X170215079Y-63365125D01*
X170215078Y-63365127D01*
X170160976Y-63483591D01*
X170142443Y-63612500D01*
X170160976Y-63741408D01*
X170186782Y-63797913D01*
X170215079Y-63859874D01*
X170300364Y-63958299D01*
X170300367Y-63958301D01*
X170304300Y-63961709D01*
X170342076Y-64020486D01*
X170347100Y-64055424D01*
X170347100Y-64443883D01*
X170327415Y-64510922D01*
X170310781Y-64531564D01*
X169885603Y-64956741D01*
X169885602Y-64956744D01*
X169847099Y-65049695D01*
X165552900Y-65049695D01*
X165552900Y-60541259D01*
X165554162Y-60523612D01*
X165557557Y-60500000D01*
X165554162Y-60476385D01*
X165552900Y-60458739D01*
X165552900Y-60440376D01*
X165550120Y-60430000D01*
X165546359Y-60415967D01*
X165543398Y-60401523D01*
X165539023Y-60371093D01*
X165539022Y-60371089D01*
X165532857Y-60357591D01*
X165531983Y-60355676D01*
X165525000Y-60336251D01*
X165522036Y-60325187D01*
X165505953Y-60297332D01*
X165500553Y-60286855D01*
X165484920Y-60252624D01*
X165484919Y-60252623D01*
X165478353Y-60245045D01*
X165464677Y-60225839D01*
X165462411Y-60221915D01*
X165462411Y-60221914D01*
X165452602Y-60212105D01*
X165434803Y-60194306D01*
X165428799Y-60187858D01*
X165399636Y-60154201D01*
X165399635Y-60154200D01*
X165397028Y-60152525D01*
X165384571Y-60142486D01*
X165384533Y-60142537D01*
X165378091Y-60137594D01*
X165378087Y-60137590D01*
X165338341Y-60114642D01*
X165338331Y-60114636D01*
X165333295Y-60111566D01*
X165290078Y-60083793D01*
X165288779Y-60083199D01*
X165279838Y-60080046D01*
X165274814Y-60077965D01*
X165274813Y-60077964D01*
X165274810Y-60077963D01*
X165274805Y-60077961D01*
X165223822Y-60064300D01*
X165220982Y-60063503D01*
X165165119Y-60047100D01*
X165165117Y-60047100D01*
X165034883Y-60047100D01*
X165034879Y-60047100D01*
X164979026Y-60063500D01*
X164976187Y-60064297D01*
X164925186Y-60077963D01*
X164920137Y-60080054D01*
X164911223Y-60083198D01*
X164909918Y-60083794D01*
X164866690Y-60111574D01*
X164861658Y-60114642D01*
X164821913Y-60137590D01*
X164821912Y-60137591D01*
X164815463Y-60142539D01*
X164815425Y-60142490D01*
X164802977Y-60152520D01*
X164800368Y-60154196D01*
X164800365Y-60154199D01*
X164771212Y-60187842D01*
X164765186Y-60194315D01*
X164737590Y-60221911D01*
X164737586Y-60221917D01*
X164735310Y-60225859D01*
X164721655Y-60245034D01*
X164715080Y-60252623D01*
X164715077Y-60252626D01*
X164699441Y-60286863D01*
X164694039Y-60297342D01*
X164677964Y-60325187D01*
X164674997Y-60336259D01*
X164668019Y-60355670D01*
X164660977Y-60371089D01*
X164660976Y-60371091D01*
X164656599Y-60401532D01*
X164653638Y-60415969D01*
X164647100Y-60440369D01*
X164647100Y-60458739D01*
X164645838Y-60476385D01*
X164642443Y-60500000D01*
X164645838Y-60523612D01*
X164647100Y-60541259D01*
X164647100Y-72440375D01*
X164647100Y-72559625D01*
X164651591Y-72576385D01*
X164677964Y-72674814D01*
X164683277Y-72684016D01*
X164737590Y-72778087D01*
X164737592Y-72778089D01*
X164760781Y-72801278D01*
X164794266Y-72862601D01*
X164797100Y-72888959D01*
X164797100Y-73281751D01*
X164777415Y-73348790D01*
X164760781Y-73369432D01*
X157669433Y-80460781D01*
X157608110Y-80494266D01*
X157581752Y-80497100D01*
X155496192Y-80497100D01*
X155444679Y-80485894D01*
X155438783Y-80483201D01*
X155429843Y-80480047D01*
X155424811Y-80477963D01*
X155373784Y-80464289D01*
X155370946Y-80463492D01*
X155315119Y-80447100D01*
X155315117Y-80447100D01*
X155184883Y-80447100D01*
X155184879Y-80447100D01*
X155129026Y-80463500D01*
X155126187Y-80464297D01*
X155075186Y-80477963D01*
X155070137Y-80480054D01*
X155061223Y-80483198D01*
X155059918Y-80483794D01*
X155016690Y-80511574D01*
X155011658Y-80514642D01*
X154971913Y-80537590D01*
X154971912Y-80537591D01*
X154965463Y-80542539D01*
X154965425Y-80542490D01*
X154952977Y-80552520D01*
X154950368Y-80554196D01*
X154950365Y-80554199D01*
X154921212Y-80587842D01*
X154915185Y-80594316D01*
X154837590Y-80671913D01*
X154777964Y-80775185D01*
X154747100Y-80890375D01*
X154747100Y-82761040D01*
X154727415Y-82828079D01*
X154710781Y-82848721D01*
X153248722Y-84310781D01*
X153187399Y-84344266D01*
X153161041Y-84347100D01*
X146238959Y-84347100D01*
X146171920Y-84327415D01*
X146151278Y-84310781D01*
X146134816Y-84294319D01*
X146128798Y-84287856D01*
X146099636Y-84254201D01*
X146099635Y-84254200D01*
X146097028Y-84252525D01*
X146084571Y-84242486D01*
X146084533Y-84242537D01*
X146078091Y-84237594D01*
X146078087Y-84237590D01*
X146038341Y-84214642D01*
X146038331Y-84214636D01*
X146033295Y-84211566D01*
X145990078Y-84183793D01*
X145988779Y-84183199D01*
X145979838Y-84180046D01*
X145974814Y-84177965D01*
X145974813Y-84177964D01*
X145974810Y-84177963D01*
X145974805Y-84177961D01*
X145923822Y-84164300D01*
X145920982Y-84163503D01*
X145865119Y-84147100D01*
X145865117Y-84147100D01*
X145734883Y-84147100D01*
X145734879Y-84147100D01*
X145679026Y-84163500D01*
X145676187Y-84164297D01*
X145625186Y-84177963D01*
X145620137Y-84180054D01*
X145611223Y-84183198D01*
X145609918Y-84183794D01*
X145566690Y-84211574D01*
X145561658Y-84214642D01*
X145521913Y-84237590D01*
X145521912Y-84237591D01*
X145515463Y-84242539D01*
X145515425Y-84242490D01*
X145502977Y-84252520D01*
X145500368Y-84254196D01*
X145500365Y-84254199D01*
X145471212Y-84287842D01*
X145465186Y-84294315D01*
X145437590Y-84321911D01*
X145437586Y-84321917D01*
X145435310Y-84325859D01*
X145421655Y-84345034D01*
X145415080Y-84352623D01*
X145415077Y-84352626D01*
X145399441Y-84386863D01*
X145394039Y-84397342D01*
X145377964Y-84425187D01*
X145374997Y-84436259D01*
X145368019Y-84455670D01*
X145360977Y-84471089D01*
X145360976Y-84471091D01*
X145356599Y-84501532D01*
X145353638Y-84515969D01*
X145347100Y-84540369D01*
X145347100Y-84558739D01*
X145345838Y-84576385D01*
X145342443Y-84599999D01*
X140012322Y-84599999D01*
X139956633Y-84562789D01*
X139819613Y-84506033D01*
X139819605Y-84506031D01*
X139674158Y-84477100D01*
X139674154Y-84477100D01*
X139025846Y-84477100D01*
X139025841Y-84477100D01*
X138880394Y-84506031D01*
X138880386Y-84506033D01*
X138743366Y-84562789D01*
X138620055Y-84645182D01*
X138620048Y-84645188D01*
X138515188Y-84750048D01*
X138515182Y-84750055D01*
X138432789Y-84873366D01*
X138376033Y-85010386D01*
X138376031Y-85010394D01*
X138347100Y-85155841D01*
X132242899Y-85155841D01*
X132213967Y-85010387D01*
X132157211Y-84873368D01*
X132150885Y-84863901D01*
X132074817Y-84750055D01*
X132074811Y-84750048D01*
X131969951Y-84645188D01*
X131969944Y-84645182D01*
X131846633Y-84562789D01*
X131709613Y-84506033D01*
X131709605Y-84506031D01*
X131564158Y-84477100D01*
X131564154Y-84477100D01*
X130915846Y-84477100D01*
X130915841Y-84477100D01*
X130770394Y-84506031D01*
X130770386Y-84506033D01*
X130633366Y-84562789D01*
X130510055Y-84645182D01*
X130510048Y-84645188D01*
X130405188Y-84750048D01*
X130405182Y-84750055D01*
X130322789Y-84873366D01*
X130266033Y-85010386D01*
X130266031Y-85010394D01*
X130237100Y-85155841D01*
X112702900Y-85155841D01*
X112702900Y-83000000D01*
X132742443Y-83000000D01*
X132760976Y-83128908D01*
X132806733Y-83229100D01*
X132815079Y-83247374D01*
X132900364Y-83345799D01*
X132900366Y-83345800D01*
X132900366Y-83345801D01*
X132944188Y-83373962D01*
X133009924Y-83416208D01*
X133111765Y-83446112D01*
X133134882Y-83452900D01*
X133134883Y-83452900D01*
X133265118Y-83452900D01*
X133284625Y-83447171D01*
X133390076Y-83416208D01*
X133499636Y-83345799D01*
X133563671Y-83271897D01*
X133622449Y-83234123D01*
X133657384Y-83229100D01*
X136239180Y-83229100D01*
X136306219Y-83248785D01*
X136351974Y-83301589D01*
X136357573Y-83320661D01*
X136358477Y-83320396D01*
X136360976Y-83328907D01*
X136368691Y-83345799D01*
X136415079Y-83447374D01*
X136500364Y-83545799D01*
X136500366Y-83545800D01*
X136500366Y-83545801D01*
X136544188Y-83573962D01*
X136609924Y-83616208D01*
X136711765Y-83646112D01*
X136734882Y-83652900D01*
X136734883Y-83652900D01*
X136865118Y-83652900D01*
X136884625Y-83647171D01*
X136990076Y-83616208D01*
X137099636Y-83545799D01*
X137184921Y-83447374D01*
X137239023Y-83328909D01*
X137257557Y-83200000D01*
X137239023Y-83071091D01*
X137184921Y-82952626D01*
X137099636Y-82854201D01*
X137099633Y-82854199D01*
X137099633Y-82854198D01*
X137033900Y-82811955D01*
X136990076Y-82783792D01*
X136883940Y-82752627D01*
X136865118Y-82747100D01*
X136865117Y-82747100D01*
X136734883Y-82747100D01*
X136734882Y-82747100D01*
X136670933Y-82765877D01*
X136635998Y-82770900D01*
X133657384Y-82770900D01*
X133590345Y-82751215D01*
X133563671Y-82728102D01*
X133499637Y-82654202D01*
X133499633Y-82654198D01*
X133433900Y-82611955D01*
X133390076Y-82583792D01*
X133306770Y-82559330D01*
X133265118Y-82547100D01*
X133265117Y-82547100D01*
X133134883Y-82547100D01*
X133134882Y-82547100D01*
X133072403Y-82565446D01*
X133009924Y-82583792D01*
X133009921Y-82583794D01*
X132900366Y-82654198D01*
X132900366Y-82654199D01*
X132815079Y-82752625D01*
X132815078Y-82752627D01*
X132760976Y-82871091D01*
X132742443Y-83000000D01*
X112702900Y-83000000D01*
X112702900Y-82784980D01*
X112714106Y-82733468D01*
X112739023Y-82678908D01*
X112742575Y-82654201D01*
X112757557Y-82550000D01*
X112739023Y-82421091D01*
X112684921Y-82302626D01*
X112599636Y-82204201D01*
X112599633Y-82204199D01*
X112599633Y-82204198D01*
X112533900Y-82161955D01*
X112490076Y-82133792D01*
X112406770Y-82109330D01*
X112365118Y-82097100D01*
X112365117Y-82097100D01*
X112234883Y-82097100D01*
X112109924Y-82133792D01*
X112109922Y-82133792D01*
X112109922Y-82133793D01*
X112105320Y-82135895D01*
X112053810Y-82147100D01*
X111368248Y-82147100D01*
X111301209Y-82127415D01*
X111280567Y-82110781D01*
X110039219Y-80869433D01*
X110005734Y-80808110D01*
X110002900Y-80781752D01*
X110002900Y-79450000D01*
X111842443Y-79450000D01*
X111860976Y-79578908D01*
X111890805Y-79644222D01*
X111915079Y-79697374D01*
X112000364Y-79795799D01*
X112000366Y-79795800D01*
X112000366Y-79795801D01*
X112044188Y-79823962D01*
X112109924Y-79866208D01*
X112211765Y-79896112D01*
X112234882Y-79902900D01*
X112234883Y-79902900D01*
X112365118Y-79902900D01*
X112384625Y-79897171D01*
X112490076Y-79866208D01*
X112599636Y-79795799D01*
X112663671Y-79721897D01*
X112722449Y-79684123D01*
X112757384Y-79679100D01*
X124195569Y-79679100D01*
X124195570Y-79679100D01*
X124195571Y-79679100D01*
X124220233Y-79668884D01*
X124279775Y-79644222D01*
X137158577Y-66765418D01*
X137219900Y-66731934D01*
X137246258Y-66729100D01*
X148213883Y-66729100D01*
X148280922Y-66748785D01*
X148326677Y-66801589D01*
X148336621Y-66870747D01*
X148307596Y-66934303D01*
X148301564Y-66940781D01*
X144681565Y-70560781D01*
X144620242Y-70594266D01*
X144593884Y-70597100D01*
X138436762Y-70597100D01*
X138369723Y-70577415D01*
X138343049Y-70554303D01*
X138321045Y-70528909D01*
X138299636Y-70504201D01*
X138299633Y-70504199D01*
X138299633Y-70504198D01*
X138233900Y-70461955D01*
X138190076Y-70433792D01*
X138106770Y-70409330D01*
X138065118Y-70397100D01*
X138065117Y-70397100D01*
X137934883Y-70397100D01*
X137934882Y-70397100D01*
X137872403Y-70415446D01*
X137809924Y-70433792D01*
X137809921Y-70433794D01*
X137700366Y-70504198D01*
X137700366Y-70504199D01*
X137615079Y-70602625D01*
X137615078Y-70602627D01*
X137560976Y-70721091D01*
X137542443Y-70850000D01*
X137560976Y-70978908D01*
X137606733Y-71079100D01*
X137615079Y-71097374D01*
X137700364Y-71195799D01*
X137700366Y-71195800D01*
X137700366Y-71195801D01*
X137744188Y-71223962D01*
X137809924Y-71266208D01*
X137911765Y-71296112D01*
X137934882Y-71302900D01*
X137934883Y-71302900D01*
X138065118Y-71302900D01*
X138084625Y-71297171D01*
X138190076Y-71266208D01*
X138299636Y-71195799D01*
X138343049Y-71145696D01*
X138401827Y-71107923D01*
X138436762Y-71102900D01*
X144685253Y-71102900D01*
X144685261Y-71102901D01*
X144773741Y-71102901D01*
X144840780Y-71122586D01*
X144886535Y-71175390D01*
X144896479Y-71244548D01*
X144867454Y-71308104D01*
X144861426Y-71314576D01*
X143374725Y-72801278D01*
X136064774Y-80111227D01*
X136003451Y-80144712D01*
X135973986Y-80145767D01*
X135973986Y-80147100D01*
X135834882Y-80147100D01*
X135785576Y-80161578D01*
X135709924Y-80183792D01*
X135709921Y-80183794D01*
X135600366Y-80254198D01*
X135600366Y-80254199D01*
X135515079Y-80352625D01*
X135515078Y-80352627D01*
X135460976Y-80471091D01*
X135442443Y-80600000D01*
X135460976Y-80728908D01*
X135508876Y-80833792D01*
X135515079Y-80847374D01*
X135600364Y-80945799D01*
X135600366Y-80945800D01*
X135600366Y-80945801D01*
X135644188Y-80973962D01*
X135709924Y-81016208D01*
X135811765Y-81046112D01*
X135834882Y-81052900D01*
X135973986Y-81052900D01*
X135973986Y-81055616D01*
X136029264Y-81063562D01*
X136082069Y-81109316D01*
X136101755Y-81176355D01*
X136100493Y-81194003D01*
X136092443Y-81249997D01*
X136092443Y-81249999D01*
X136110976Y-81378908D01*
X136132894Y-81426900D01*
X136165079Y-81497374D01*
X136250364Y-81595799D01*
X136250366Y-81595800D01*
X136250366Y-81595801D01*
X136294188Y-81623962D01*
X136359924Y-81666208D01*
X136461765Y-81696112D01*
X136484882Y-81702900D01*
X136484883Y-81702900D01*
X136615118Y-81702900D01*
X136634625Y-81697171D01*
X136740076Y-81666208D01*
X136849636Y-81595799D01*
X136934921Y-81497374D01*
X136989023Y-81378909D01*
X137007557Y-81250000D01*
X136999601Y-81194664D01*
X137009545Y-81125506D01*
X137034655Y-81089340D01*
X140323996Y-77800000D01*
X150042443Y-77800000D01*
X150060976Y-77928908D01*
X150115078Y-78047372D01*
X150115079Y-78047374D01*
X150200364Y-78145799D01*
X150200366Y-78145800D01*
X150200366Y-78145801D01*
X150244188Y-78173962D01*
X150309924Y-78216208D01*
X150411765Y-78246112D01*
X150434882Y-78252900D01*
X150434883Y-78252900D01*
X150565118Y-78252900D01*
X150584625Y-78247171D01*
X150690076Y-78216208D01*
X150799636Y-78145799D01*
X150884921Y-78047374D01*
X150939023Y-77928909D01*
X150957557Y-77800000D01*
X150939023Y-77671091D01*
X150884921Y-77552626D01*
X150799636Y-77454201D01*
X150709860Y-77396506D01*
X150664106Y-77343703D01*
X150652900Y-77292191D01*
X150652900Y-76556115D01*
X150672585Y-76489076D01*
X150689214Y-76468439D01*
X152831335Y-74326317D01*
X152831340Y-74326314D01*
X152843254Y-74314399D01*
X152843257Y-74314399D01*
X152914399Y-74243257D01*
X152936952Y-74188806D01*
X152952901Y-74150305D01*
X152952901Y-74049695D01*
X152952901Y-74039706D01*
X152952900Y-74039692D01*
X152952900Y-73042924D01*
X152972585Y-72975885D01*
X152995700Y-72949209D01*
X152999628Y-72945803D01*
X152999636Y-72945799D01*
X153084921Y-72847374D01*
X153139023Y-72728909D01*
X153157557Y-72600000D01*
X153139023Y-72471091D01*
X153084921Y-72352626D01*
X152999636Y-72254201D01*
X152999633Y-72254199D01*
X152999633Y-72254198D01*
X152933900Y-72211955D01*
X152890076Y-72183792D01*
X152806770Y-72159330D01*
X152765118Y-72147100D01*
X152765117Y-72147100D01*
X152634883Y-72147100D01*
X152634882Y-72147100D01*
X152572403Y-72165446D01*
X152509924Y-72183792D01*
X152509921Y-72183794D01*
X152400366Y-72254198D01*
X152400366Y-72254199D01*
X152315079Y-72352625D01*
X152315078Y-72352627D01*
X152260976Y-72471091D01*
X152242443Y-72600000D01*
X152260976Y-72728908D01*
X152297100Y-72808006D01*
X152315079Y-72847374D01*
X152400364Y-72945799D01*
X152400367Y-72945801D01*
X152404300Y-72949209D01*
X152442076Y-73007986D01*
X152447100Y-73042924D01*
X152447100Y-73943883D01*
X152427415Y-74010922D01*
X152410781Y-74031564D01*
X150261084Y-76181260D01*
X150261073Y-76181269D01*
X150261074Y-76181270D01*
X150185600Y-76256743D01*
X150163047Y-76311193D01*
X150147099Y-76349693D01*
X150147099Y-76464738D01*
X150147100Y-76464747D01*
X150147100Y-77469421D01*
X150127415Y-77536460D01*
X150116818Y-77550618D01*
X150115081Y-77552621D01*
X150115078Y-77552627D01*
X150060976Y-77671091D01*
X150042443Y-77800000D01*
X140323996Y-77800000D01*
X147008578Y-71115419D01*
X147069901Y-71081934D01*
X147096259Y-71079100D01*
X155242616Y-71079100D01*
X155309655Y-71098785D01*
X155336329Y-71121898D01*
X155400362Y-71195797D01*
X155400366Y-71195801D01*
X155444188Y-71223962D01*
X155509924Y-71266208D01*
X155611765Y-71296112D01*
X155634882Y-71302900D01*
X155634883Y-71302900D01*
X155765118Y-71302900D01*
X155784625Y-71297171D01*
X155890076Y-71266208D01*
X155999636Y-71195799D01*
X156084921Y-71097374D01*
X156139023Y-70978909D01*
X156157557Y-70850000D01*
X156139023Y-70721091D01*
X156084921Y-70602626D01*
X155999636Y-70504201D01*
X155999633Y-70504199D01*
X155999633Y-70504198D01*
X155933900Y-70461955D01*
X155890076Y-70433792D01*
X155806770Y-70409330D01*
X155765118Y-70397100D01*
X155765117Y-70397100D01*
X155634883Y-70397100D01*
X155634882Y-70397100D01*
X155572403Y-70415446D01*
X155509924Y-70433792D01*
X155509921Y-70433794D01*
X155400366Y-70504198D01*
X155400362Y-70504202D01*
X155336329Y-70578102D01*
X155277551Y-70615877D01*
X155242616Y-70620900D01*
X146904428Y-70620900D01*
X146884633Y-70629100D01*
X146884631Y-70629100D01*
X146820230Y-70655775D01*
X146820222Y-70655780D01*
X136714774Y-80761227D01*
X136653451Y-80794712D01*
X136623986Y-80795767D01*
X136623986Y-80797100D01*
X136476014Y-80797100D01*
X136476014Y-80794389D01*
X136420702Y-80786421D01*
X136367910Y-80740652D01*
X136348244Y-80673607D01*
X136349506Y-80655994D01*
X136357557Y-80600000D01*
X136349601Y-80544664D01*
X136359545Y-80475506D01*
X136384655Y-80439340D01*
X146978577Y-69845419D01*
X147039900Y-69811934D01*
X147066258Y-69809100D01*
X155242616Y-69809100D01*
X155309655Y-69828785D01*
X155336329Y-69851898D01*
X155400362Y-69925797D01*
X155400366Y-69925801D01*
X155433509Y-69947100D01*
X155509924Y-69996208D01*
X155611765Y-70026112D01*
X155634882Y-70032900D01*
X155634883Y-70032900D01*
X155765118Y-70032900D01*
X155784625Y-70027171D01*
X155890076Y-69996208D01*
X155999636Y-69925799D01*
X156084921Y-69827374D01*
X156139023Y-69708909D01*
X156157557Y-69580000D01*
X156139023Y-69451091D01*
X156084921Y-69332626D01*
X155999636Y-69234201D01*
X155999633Y-69234199D01*
X155999633Y-69234198D01*
X155925963Y-69186855D01*
X155890076Y-69163792D01*
X155795761Y-69136098D01*
X155765118Y-69127100D01*
X155765117Y-69127100D01*
X155634883Y-69127100D01*
X155634882Y-69127100D01*
X155604239Y-69136098D01*
X155509924Y-69163792D01*
X155509921Y-69163794D01*
X155400366Y-69234198D01*
X155400362Y-69234202D01*
X155336329Y-69308102D01*
X155277551Y-69345877D01*
X155242616Y-69350900D01*
X146906115Y-69350900D01*
X146839076Y-69331215D01*
X146793321Y-69278411D01*
X146783377Y-69209253D01*
X146812402Y-69145697D01*
X146818434Y-69139219D01*
X146835739Y-69121915D01*
X148668435Y-67289219D01*
X148729758Y-67255734D01*
X148756116Y-67252900D01*
X150235253Y-67252900D01*
X150235261Y-67252901D01*
X150249695Y-67252901D01*
X150350305Y-67252901D01*
X150377529Y-67241623D01*
X150388807Y-67236952D01*
X150388809Y-67236950D01*
X150443257Y-67214399D01*
X150514399Y-67143257D01*
X150514399Y-67143254D01*
X150526314Y-67131340D01*
X150526317Y-67131335D01*
X158531481Y-59126172D01*
X158592802Y-59092689D01*
X158662494Y-59097673D01*
X158718427Y-59139545D01*
X158741898Y-59196208D01*
X158760976Y-59328908D01*
X158815078Y-59447372D01*
X158815079Y-59447374D01*
X158900364Y-59545799D01*
X158900366Y-59545800D01*
X158900366Y-59545801D01*
X158944188Y-59573962D01*
X159009924Y-59616208D01*
X159111765Y-59646112D01*
X159134882Y-59652900D01*
X159134883Y-59652900D01*
X159265118Y-59652900D01*
X159284625Y-59647171D01*
X159390076Y-59616208D01*
X159499636Y-59545799D01*
X159543049Y-59495696D01*
X159601827Y-59457923D01*
X159636762Y-59452900D01*
X182243884Y-59452900D01*
X182310923Y-59472585D01*
X182331565Y-59489219D01*
X183111110Y-60268764D01*
X183144595Y-60330087D01*
X183146167Y-60374088D01*
X183142443Y-60399995D01*
X183142443Y-60399999D01*
X183160976Y-60528908D01*
X183215078Y-60647372D01*
X183215079Y-60647374D01*
X183300364Y-60745799D01*
X183300366Y-60745800D01*
X183300366Y-60745801D01*
X183343552Y-60773554D01*
X183409924Y-60816208D01*
X183511765Y-60846112D01*
X183534882Y-60852900D01*
X183534883Y-60852900D01*
X183665118Y-60852900D01*
X183684625Y-60847171D01*
X183790076Y-60816208D01*
X183899636Y-60745799D01*
X183984921Y-60647374D01*
X184039023Y-60528909D01*
X184057557Y-60400000D01*
X184039023Y-60271091D01*
X183984921Y-60152626D01*
X183899636Y-60054201D01*
X183899633Y-60054199D01*
X183899633Y-60054198D01*
X183833900Y-60011955D01*
X183790076Y-59983792D01*
X183706770Y-59959330D01*
X183665118Y-59947100D01*
X183665117Y-59947100D01*
X183556116Y-59947100D01*
X183489077Y-59927415D01*
X183468435Y-59910781D01*
X182624611Y-59066957D01*
X182624603Y-59066947D01*
X182543256Y-58985600D01*
X182488808Y-58963048D01*
X182488807Y-58963047D01*
X182450307Y-58947099D01*
X182450305Y-58947099D01*
X182349695Y-58947099D01*
X182335261Y-58947099D01*
X182335253Y-58947100D01*
X174309918Y-58947100D01*
X174242879Y-58927415D01*
X174197124Y-58874611D01*
X174187180Y-58805453D01*
X174202757Y-58771343D01*
X174200025Y-58770173D01*
X174200028Y-58770166D01*
X174210065Y-58755340D01*
X174216205Y-58741897D01*
X174222237Y-58735419D01*
X174226312Y-58731343D01*
X174226317Y-58731335D01*
X178168436Y-54789219D01*
X178229759Y-54755734D01*
X178256117Y-54752900D01*
X182935253Y-54752900D01*
X182935261Y-54752901D01*
X182949695Y-54752901D01*
X183050305Y-54752901D01*
X183077529Y-54741623D01*
X183088807Y-54736952D01*
X183088809Y-54736950D01*
X183143257Y-54714399D01*
X183214399Y-54643257D01*
X183214399Y-54643254D01*
X183226312Y-54631342D01*
X183226315Y-54631338D01*
X183368436Y-54489216D01*
X183429757Y-54455734D01*
X183456115Y-54452900D01*
X183565118Y-54452900D01*
X183588408Y-54446061D01*
X183690076Y-54416208D01*
X183799636Y-54345799D01*
X183884921Y-54247374D01*
X183939023Y-54128909D01*
X183957557Y-54000000D01*
X183939023Y-53871091D01*
X183884921Y-53752626D01*
X183799636Y-53654201D01*
X183799633Y-53654199D01*
X183799633Y-53654198D01*
X183709447Y-53596241D01*
X183690076Y-53583792D01*
X183606770Y-53559330D01*
X183565118Y-53547100D01*
X183565117Y-53547100D01*
X183434883Y-53547100D01*
X183434882Y-53547100D01*
X183372403Y-53565446D01*
X183309924Y-53583792D01*
X183309921Y-53583794D01*
X183200366Y-53654198D01*
X183200366Y-53654199D01*
X183115079Y-53752625D01*
X183115078Y-53752627D01*
X183060976Y-53871091D01*
X183042443Y-54000001D01*
X183042443Y-54000002D01*
X183046167Y-54025907D01*
X183036222Y-54095066D01*
X183011111Y-54131232D01*
X182931565Y-54210780D01*
X182870243Y-54244266D01*
X182843883Y-54247100D01*
X178164747Y-54247100D01*
X178164739Y-54247099D01*
X178150305Y-54247099D01*
X178049695Y-54247099D01*
X178049693Y-54247099D01*
X177983968Y-54274323D01*
X177983968Y-54274324D01*
X177956743Y-54285601D01*
X177956741Y-54285602D01*
X177910097Y-54332247D01*
X177885601Y-54356743D01*
X177885600Y-54356744D01*
X176892345Y-55350000D01*
X173931565Y-58310781D01*
X173870242Y-58344266D01*
X173843884Y-58347100D01*
X158764747Y-58347100D01*
X158764739Y-58347099D01*
X158750305Y-58347099D01*
X158649695Y-58347099D01*
X158649693Y-58347099D01*
X158611193Y-58363047D01*
X158556743Y-58385600D01*
X158481270Y-58461074D01*
X158481260Y-58461084D01*
X150231565Y-66710781D01*
X150170242Y-66744266D01*
X150143884Y-66747100D01*
X149876259Y-66747100D01*
X149809220Y-66727415D01*
X149763465Y-66674611D01*
X149753521Y-66605453D01*
X149782546Y-66541897D01*
X149788578Y-66535419D01*
X151209647Y-65114350D01*
X155694221Y-60629775D01*
X155729100Y-60545570D01*
X155729100Y-60454430D01*
X155729100Y-59956300D01*
X155748785Y-59889261D01*
X155801589Y-59843506D01*
X155818160Y-59837324D01*
X155890076Y-59816208D01*
X155999636Y-59745799D01*
X156084921Y-59647374D01*
X156139023Y-59528909D01*
X156157557Y-59400000D01*
X156139023Y-59271091D01*
X156084921Y-59152626D01*
X155999636Y-59054201D01*
X155999633Y-59054199D01*
X155999633Y-59054198D01*
X155933900Y-59011955D01*
X155890076Y-58983792D01*
X155789246Y-58954185D01*
X155765118Y-58947100D01*
X155765117Y-58947100D01*
X155634883Y-58947100D01*
X155634882Y-58947100D01*
X155580570Y-58963048D01*
X155509924Y-58983792D01*
X155509921Y-58983794D01*
X155400366Y-59054198D01*
X155400366Y-59054199D01*
X155400364Y-59054200D01*
X155400364Y-59054201D01*
X155398159Y-59056746D01*
X155315079Y-59152625D01*
X155315078Y-59152627D01*
X155260976Y-59271091D01*
X155242443Y-59400000D01*
X155260977Y-59528909D01*
X155263475Y-59537417D01*
X155262234Y-59537781D01*
X155270900Y-59577611D01*
X155270900Y-60353741D01*
X155251215Y-60420780D01*
X155234581Y-60441422D01*
X149441422Y-66234581D01*
X149380099Y-66268066D01*
X149353741Y-66270900D01*
X137054428Y-66270900D01*
X137036990Y-66278123D01*
X137019551Y-66285347D01*
X136970225Y-66305778D01*
X124091422Y-79184581D01*
X124030099Y-79218066D01*
X124003741Y-79220900D01*
X112757384Y-79220900D01*
X112690345Y-79201215D01*
X112663671Y-79178102D01*
X112599637Y-79104202D01*
X112599633Y-79104198D01*
X112533900Y-79061955D01*
X112490076Y-79033792D01*
X112406770Y-79009330D01*
X112365118Y-78997100D01*
X112365117Y-78997100D01*
X112234883Y-78997100D01*
X112234882Y-78997100D01*
X112172403Y-79015446D01*
X112109924Y-79033792D01*
X112109921Y-79033794D01*
X112000366Y-79104198D01*
X112000366Y-79104199D01*
X111915079Y-79202625D01*
X111915078Y-79202627D01*
X111860976Y-79321091D01*
X111842443Y-79450000D01*
X110002900Y-79450000D01*
X110002900Y-66118248D01*
X110022585Y-66051209D01*
X110039219Y-66030567D01*
X113030568Y-63039219D01*
X113091891Y-63005734D01*
X113118249Y-63002900D01*
X125623100Y-63002900D01*
X125690139Y-63022585D01*
X125735894Y-63075389D01*
X125747100Y-63126900D01*
X125747100Y-63859624D01*
X125777964Y-63974814D01*
X125792217Y-63999500D01*
X125837590Y-64078087D01*
X125837592Y-64078089D01*
X131465176Y-69705673D01*
X131471207Y-69712151D01*
X131500361Y-69745796D01*
X131500364Y-69745799D01*
X131502971Y-69747474D01*
X131515428Y-69757513D01*
X131515467Y-69757463D01*
X131521908Y-69762405D01*
X131521913Y-69762410D01*
X131561695Y-69785378D01*
X131566670Y-69788411D01*
X131609924Y-69816208D01*
X131609927Y-69816209D01*
X131609929Y-69816210D01*
X131611220Y-69816800D01*
X131620152Y-69819951D01*
X131625181Y-69822034D01*
X131625185Y-69822035D01*
X131625187Y-69822036D01*
X131676209Y-69835706D01*
X131678985Y-69836486D01*
X131688994Y-69839424D01*
X131734883Y-69852900D01*
X131734885Y-69852900D01*
X131865115Y-69852900D01*
X131865117Y-69852900D01*
X131921081Y-69836466D01*
X131923722Y-69835724D01*
X131974813Y-69822036D01*
X131974817Y-69822033D01*
X131979826Y-69819959D01*
X131988772Y-69816803D01*
X131990070Y-69816209D01*
X131990076Y-69816208D01*
X132033296Y-69788431D01*
X132038330Y-69785363D01*
X132038344Y-69785355D01*
X132078087Y-69762410D01*
X132078091Y-69762405D01*
X132084538Y-69757460D01*
X132084577Y-69757510D01*
X132097036Y-69747469D01*
X132099636Y-69745799D01*
X132128793Y-69712148D01*
X132134798Y-69705697D01*
X132162410Y-69678087D01*
X132164681Y-69674153D01*
X132178348Y-69654958D01*
X132184921Y-69647374D01*
X132200561Y-69613124D01*
X132205953Y-69602668D01*
X132222036Y-69574813D01*
X132224999Y-69563749D01*
X132231982Y-69544324D01*
X132239023Y-69528909D01*
X132243401Y-69498451D01*
X132246359Y-69484033D01*
X132252900Y-69459625D01*
X132252900Y-69441259D01*
X132254162Y-69423612D01*
X132257557Y-69399999D01*
X132254162Y-69376385D01*
X132252900Y-69358739D01*
X132252900Y-69340376D01*
X132250824Y-69332627D01*
X132246359Y-69315967D01*
X132243398Y-69301523D01*
X132239023Y-69271093D01*
X132239022Y-69271089D01*
X132231983Y-69255676D01*
X132225000Y-69236251D01*
X132224450Y-69234198D01*
X132222036Y-69225187D01*
X132205953Y-69197332D01*
X132200553Y-69186855D01*
X132184920Y-69152624D01*
X132184919Y-69152623D01*
X132178353Y-69145045D01*
X132164677Y-69125839D01*
X132162411Y-69121915D01*
X132162411Y-69121914D01*
X132162410Y-69121913D01*
X132134803Y-69094306D01*
X132128799Y-69087858D01*
X132099636Y-69054201D01*
X132099635Y-69054200D01*
X132097028Y-69052525D01*
X132076389Y-69035892D01*
X126689219Y-63648722D01*
X126655734Y-63587399D01*
X126652900Y-63561041D01*
X126652900Y-63299999D01*
X145994859Y-63299999D01*
X145994859Y-63300000D01*
X146015378Y-63521439D01*
X146076240Y-63735350D01*
X146175364Y-63934419D01*
X146175366Y-63934421D01*
X146191138Y-63955306D01*
X146800000Y-63346445D01*
X146800000Y-63352661D01*
X146827259Y-63454394D01*
X146879920Y-63545606D01*
X146954394Y-63620080D01*
X147045606Y-63672741D01*
X147147339Y-63700000D01*
X147153554Y-63700000D01*
X146546671Y-64306880D01*
X146662823Y-64378798D01*
X146662824Y-64378799D01*
X146870195Y-64459134D01*
X147088807Y-64500000D01*
X147311193Y-64500000D01*
X147529804Y-64459134D01*
X147737177Y-64378798D01*
X147737178Y-64378797D01*
X147853327Y-64306880D01*
X147246447Y-63700000D01*
X147252661Y-63700000D01*
X147354394Y-63672741D01*
X147445606Y-63620080D01*
X147520080Y-63545606D01*
X147572741Y-63454394D01*
X147600000Y-63352661D01*
X147600000Y-63346446D01*
X148208860Y-63955306D01*
X148208861Y-63955306D01*
X148224631Y-63934425D01*
X148224635Y-63934419D01*
X148313999Y-63754951D01*
X148361501Y-63703714D01*
X148429164Y-63686292D01*
X148495505Y-63708217D01*
X148535999Y-63754950D01*
X148625364Y-63934418D01*
X148625366Y-63934421D01*
X148641138Y-63955306D01*
X149250000Y-63346445D01*
X149250000Y-63352661D01*
X149277259Y-63454394D01*
X149329920Y-63545606D01*
X149404394Y-63620080D01*
X149495606Y-63672741D01*
X149597339Y-63700000D01*
X149603554Y-63700000D01*
X148996671Y-64306880D01*
X149112823Y-64378798D01*
X149112824Y-64378799D01*
X149320195Y-64459134D01*
X149538807Y-64500000D01*
X149761193Y-64500000D01*
X149979804Y-64459134D01*
X150187177Y-64378798D01*
X150187178Y-64378797D01*
X150303327Y-64306880D01*
X149696447Y-63700000D01*
X149702661Y-63700000D01*
X149804394Y-63672741D01*
X149895606Y-63620080D01*
X149970080Y-63545606D01*
X150022741Y-63454394D01*
X150050000Y-63352661D01*
X150050000Y-63346446D01*
X150658860Y-63955306D01*
X150658861Y-63955306D01*
X150674631Y-63934425D01*
X150674632Y-63934422D01*
X150773759Y-63735350D01*
X150834621Y-63521439D01*
X150855141Y-63300000D01*
X150855141Y-63299999D01*
X150834621Y-63078560D01*
X150773759Y-62864649D01*
X150674633Y-62665577D01*
X150674631Y-62665574D01*
X150658860Y-62644691D01*
X150050000Y-63253552D01*
X150050000Y-63247339D01*
X150022741Y-63145606D01*
X149970080Y-63054394D01*
X149895606Y-62979920D01*
X149804394Y-62927259D01*
X149702661Y-62900000D01*
X149696447Y-62900000D01*
X150303327Y-62293118D01*
X150303326Y-62293117D01*
X150187181Y-62221203D01*
X150187175Y-62221200D01*
X150043722Y-62165627D01*
X149988321Y-62123054D01*
X149964730Y-62057287D01*
X149980441Y-61989207D01*
X150030465Y-61940428D01*
X150043722Y-61934373D01*
X150187177Y-61878798D01*
X150187178Y-61878797D01*
X150303327Y-61806880D01*
X149696447Y-61200000D01*
X149702661Y-61200000D01*
X149804394Y-61172741D01*
X149895606Y-61120080D01*
X149970080Y-61045606D01*
X150022741Y-60954394D01*
X150050000Y-60852661D01*
X150050000Y-60846446D01*
X150658860Y-61455306D01*
X150658861Y-61455306D01*
X150674631Y-61434425D01*
X150674632Y-61434422D01*
X150773759Y-61235350D01*
X150834621Y-61021439D01*
X150855141Y-60800000D01*
X150855141Y-60799999D01*
X150834621Y-60578560D01*
X150773759Y-60364649D01*
X150674633Y-60165577D01*
X150674631Y-60165574D01*
X150658860Y-60144691D01*
X150050000Y-60753552D01*
X150050000Y-60747339D01*
X150022741Y-60645606D01*
X149970080Y-60554394D01*
X149895606Y-60479920D01*
X149804394Y-60427259D01*
X149702661Y-60400000D01*
X149696447Y-60400000D01*
X150303327Y-59793118D01*
X150303326Y-59793117D01*
X150187181Y-59721203D01*
X150187175Y-59721200D01*
X149979804Y-59640865D01*
X149761193Y-59600000D01*
X149538807Y-59600000D01*
X149320195Y-59640865D01*
X149112824Y-59721200D01*
X149112818Y-59721204D01*
X148996672Y-59793117D01*
X148996671Y-59793118D01*
X149603554Y-60400000D01*
X149597339Y-60400000D01*
X149495606Y-60427259D01*
X149404394Y-60479920D01*
X149329920Y-60554394D01*
X149277259Y-60645606D01*
X149250000Y-60747339D01*
X149250000Y-60753553D01*
X148641138Y-60144691D01*
X148641137Y-60144691D01*
X148625369Y-60165571D01*
X148561000Y-60294842D01*
X148513497Y-60346079D01*
X148445834Y-60363500D01*
X148379494Y-60341574D01*
X148339000Y-60294842D01*
X148274633Y-60165577D01*
X148274631Y-60165574D01*
X148258860Y-60144691D01*
X147650000Y-60753552D01*
X147650000Y-60747339D01*
X147622741Y-60645606D01*
X147570080Y-60554394D01*
X147495606Y-60479920D01*
X147404394Y-60427259D01*
X147302661Y-60400000D01*
X147296447Y-60400000D01*
X147903327Y-59793118D01*
X147903326Y-59793117D01*
X147787181Y-59721203D01*
X147787175Y-59721200D01*
X147579804Y-59640865D01*
X147361193Y-59600000D01*
X147138807Y-59600000D01*
X146920195Y-59640865D01*
X146712824Y-59721200D01*
X146712818Y-59721204D01*
X146596672Y-59793117D01*
X146596671Y-59793118D01*
X147203554Y-60400000D01*
X147197339Y-60400000D01*
X147095606Y-60427259D01*
X147004394Y-60479920D01*
X146929920Y-60554394D01*
X146877259Y-60645606D01*
X146850000Y-60747339D01*
X146850000Y-60753553D01*
X146241138Y-60144691D01*
X146241137Y-60144691D01*
X146225369Y-60165571D01*
X146126240Y-60364649D01*
X146065378Y-60578560D01*
X146044859Y-60799999D01*
X146044859Y-60800000D01*
X146065378Y-61021439D01*
X146126240Y-61235350D01*
X146225364Y-61434419D01*
X146225366Y-61434421D01*
X146241138Y-61455306D01*
X146850000Y-60846445D01*
X146850000Y-60852661D01*
X146877259Y-60954394D01*
X146929920Y-61045606D01*
X147004394Y-61120080D01*
X147095606Y-61172741D01*
X147197339Y-61200000D01*
X147203554Y-61200000D01*
X146596671Y-61806880D01*
X146712823Y-61878798D01*
X146712827Y-61878800D01*
X146831276Y-61924687D01*
X146886678Y-61967260D01*
X146910269Y-62033026D01*
X146894558Y-62101107D01*
X146844534Y-62149886D01*
X146831278Y-62155940D01*
X146662830Y-62221198D01*
X146662818Y-62221204D01*
X146546672Y-62293117D01*
X146546671Y-62293118D01*
X147153553Y-62900000D01*
X147147339Y-62900000D01*
X147045606Y-62927259D01*
X146954394Y-62979920D01*
X146879920Y-63054394D01*
X146827259Y-63145606D01*
X146800000Y-63247339D01*
X146800000Y-63253553D01*
X146191138Y-62644691D01*
X146191137Y-62644691D01*
X146175369Y-62665571D01*
X146076240Y-62864649D01*
X146015378Y-63078560D01*
X145994859Y-63299999D01*
X126652900Y-63299999D01*
X126652900Y-63126838D01*
X126672585Y-63059799D01*
X126687736Y-63042117D01*
X126687318Y-63041747D01*
X126692290Y-63036134D01*
X126692290Y-63036133D01*
X126692292Y-63036132D01*
X126782360Y-62905646D01*
X126838584Y-62757397D01*
X126857695Y-62600000D01*
X126838584Y-62442603D01*
X126782360Y-62294354D01*
X126692292Y-62163868D01*
X126573613Y-62058728D01*
X126573611Y-62058727D01*
X126573610Y-62058726D01*
X126573606Y-62058723D01*
X126433223Y-61985044D01*
X126279276Y-61947100D01*
X126120724Y-61947100D01*
X125966776Y-61985044D01*
X125826393Y-62058723D01*
X125826384Y-62058730D01*
X125705397Y-62165915D01*
X125642164Y-62195637D01*
X125623170Y-62197100D01*
X112960655Y-62197100D01*
X112960639Y-62197099D01*
X112953043Y-62197099D01*
X112846957Y-62197099D01*
X112766141Y-62218754D01*
X112757738Y-62221005D01*
X112744487Y-62224556D01*
X112744478Y-62224560D01*
X112652619Y-62277594D01*
X112652611Y-62277600D01*
X109687680Y-65242532D01*
X109626357Y-65276017D01*
X109556665Y-65271033D01*
X109512320Y-65242533D01*
X106999473Y-62729687D01*
X106999462Y-62729674D01*
X106917386Y-62647598D01*
X106825514Y-62594557D01*
X106825511Y-62594556D01*
X106819079Y-62592832D01*
X106803858Y-62588754D01*
X106723045Y-62567099D01*
X106723043Y-62567099D01*
X106616957Y-62567099D01*
X106609361Y-62567099D01*
X106609345Y-62567100D01*
X104371556Y-62567100D01*
X104304517Y-62547415D01*
X104264169Y-62505100D01*
X104234408Y-62453553D01*
X104224485Y-62436366D01*
X104149076Y-62352615D01*
X104097487Y-62295320D01*
X104096157Y-62294354D01*
X103992105Y-62218755D01*
X103943936Y-62183758D01*
X103770552Y-62106562D01*
X103770547Y-62106560D01*
X103584899Y-62067100D01*
X103395101Y-62067100D01*
X103209452Y-62106560D01*
X103209447Y-62106562D01*
X103036064Y-62183758D01*
X103036059Y-62183761D01*
X102882515Y-62295317D01*
X102882508Y-62295323D01*
X102755514Y-62436367D01*
X102755511Y-62436370D01*
X102660619Y-62600729D01*
X102660614Y-62600741D01*
X102601967Y-62781239D01*
X102601966Y-62781243D01*
X102582127Y-62970000D01*
X100206768Y-62970000D01*
X100207753Y-62960000D01*
X100188389Y-62763397D01*
X100131042Y-62574350D01*
X100037916Y-62400122D01*
X99998928Y-62352615D01*
X99912589Y-62247410D01*
X99759881Y-62122086D01*
X99759879Y-62122085D01*
X99759878Y-62122084D01*
X99585650Y-62028958D01*
X99585647Y-62028957D01*
X99585645Y-62028956D01*
X99450378Y-61987923D01*
X99391940Y-61949626D01*
X99363483Y-61885814D01*
X99374044Y-61816747D01*
X99420269Y-61764353D01*
X99454281Y-61749488D01*
X99663483Y-61693433D01*
X99663492Y-61693429D01*
X99877580Y-61593599D01*
X99961371Y-61534925D01*
X99370233Y-60943787D01*
X99412292Y-60932518D01*
X99537708Y-60860110D01*
X99640110Y-60757708D01*
X99712518Y-60632292D01*
X99723787Y-60590233D01*
X100314925Y-61181371D01*
X100373599Y-61097580D01*
X100473429Y-60883492D01*
X100473433Y-60883483D01*
X100534567Y-60655326D01*
X100534569Y-60655315D01*
X100554282Y-60429999D01*
X102235225Y-60429999D01*
X102235225Y-60430000D01*
X102254287Y-60647884D01*
X102254289Y-60647894D01*
X102310894Y-60859150D01*
X102310898Y-60859159D01*
X102403333Y-61057387D01*
X102446874Y-61119571D01*
X102966212Y-60600233D01*
X102977482Y-60642292D01*
X103049890Y-60767708D01*
X103152292Y-60870110D01*
X103277708Y-60942518D01*
X103319765Y-60953787D01*
X102800427Y-61473124D01*
X102862612Y-61516666D01*
X103060840Y-61609101D01*
X103060849Y-61609105D01*
X103272105Y-61665710D01*
X103272115Y-61665712D01*
X103489999Y-61684775D01*
X103490001Y-61684775D01*
X103707884Y-61665712D01*
X103707894Y-61665710D01*
X103919150Y-61609105D01*
X103919164Y-61609100D01*
X104117383Y-61516669D01*
X104117385Y-61516668D01*
X104179571Y-61473124D01*
X103660235Y-60953787D01*
X103702292Y-60942518D01*
X103827708Y-60870110D01*
X103930110Y-60767708D01*
X104002518Y-60642292D01*
X104013787Y-60600234D01*
X104533124Y-61119570D01*
X104576668Y-61057385D01*
X104576669Y-61057383D01*
X104669100Y-60859164D01*
X104669105Y-60859150D01*
X104725710Y-60647894D01*
X104725712Y-60647884D01*
X104744775Y-60430000D01*
X104744775Y-60429999D01*
X104725712Y-60212115D01*
X104725710Y-60212105D01*
X104669105Y-60000849D01*
X104669101Y-60000840D01*
X104576668Y-59802615D01*
X104533123Y-59740428D01*
X104013787Y-60259764D01*
X104002518Y-60217708D01*
X103930110Y-60092292D01*
X103827708Y-59989890D01*
X103702292Y-59917482D01*
X103660234Y-59906212D01*
X104179571Y-59386874D01*
X104117387Y-59343333D01*
X103919159Y-59250898D01*
X103919150Y-59250894D01*
X103707894Y-59194289D01*
X103707884Y-59194287D01*
X103490001Y-59175225D01*
X103489999Y-59175225D01*
X103272115Y-59194287D01*
X103272105Y-59194289D01*
X103060849Y-59250894D01*
X103060840Y-59250898D01*
X102862614Y-59343332D01*
X102862612Y-59343333D01*
X102800428Y-59386875D01*
X102800427Y-59386875D01*
X103319765Y-59906212D01*
X103277708Y-59917482D01*
X103152292Y-59989890D01*
X103049890Y-60092292D01*
X102977482Y-60217708D01*
X102966212Y-60259765D01*
X102446875Y-59740427D01*
X102446875Y-59740428D01*
X102403333Y-59802612D01*
X102403332Y-59802614D01*
X102310898Y-60000840D01*
X102310894Y-60000849D01*
X102254289Y-60212105D01*
X102254287Y-60212115D01*
X102235225Y-60429999D01*
X100554282Y-60429999D01*
X100555157Y-60420001D01*
X100555157Y-60419998D01*
X100534569Y-60184684D01*
X100534567Y-60184673D01*
X100473433Y-59956516D01*
X100473429Y-59956507D01*
X100373601Y-59742424D01*
X100314925Y-59658626D01*
X99723787Y-60249765D01*
X99712518Y-60207708D01*
X99640110Y-60082292D01*
X99537708Y-59979890D01*
X99412292Y-59907482D01*
X99370234Y-59896212D01*
X99961372Y-59305073D01*
X99877576Y-59246398D01*
X99663492Y-59146570D01*
X99663486Y-59146567D01*
X99454280Y-59090511D01*
X99394620Y-59054146D01*
X99364091Y-58991299D01*
X99372386Y-58921923D01*
X99416871Y-58868045D01*
X99450372Y-58852078D01*
X99585650Y-58811042D01*
X99759878Y-58717916D01*
X99912589Y-58592589D01*
X100037916Y-58439878D01*
X100131042Y-58265650D01*
X100188389Y-58076603D01*
X100206768Y-57890000D01*
X102582127Y-57890000D01*
X102601966Y-58078757D01*
X102601967Y-58078760D01*
X102660614Y-58259258D01*
X102660619Y-58259270D01*
X102755511Y-58423629D01*
X102755513Y-58423632D01*
X102755515Y-58423634D01*
X102882514Y-58564681D01*
X103036063Y-58676241D01*
X103209447Y-58753437D01*
X103209452Y-58753439D01*
X103395101Y-58792900D01*
X103584899Y-58792900D01*
X103770548Y-58753439D01*
X103943937Y-58676241D01*
X104048874Y-58600000D01*
X125542305Y-58600000D01*
X125561415Y-58757396D01*
X125617641Y-58905648D01*
X125707707Y-59036131D01*
X125707708Y-59036132D01*
X125826387Y-59141272D01*
X125826389Y-59141273D01*
X125826393Y-59141276D01*
X125931057Y-59196208D01*
X125966778Y-59214956D01*
X126120724Y-59252900D01*
X126279276Y-59252900D01*
X126433222Y-59214956D01*
X126516475Y-59171260D01*
X126573606Y-59141276D01*
X126573607Y-59141274D01*
X126573613Y-59141272D01*
X126692292Y-59036132D01*
X126782360Y-58905646D01*
X126838584Y-58757397D01*
X126857695Y-58600000D01*
X126838584Y-58442603D01*
X126782360Y-58294354D01*
X126692292Y-58163868D01*
X126573613Y-58058728D01*
X126573611Y-58058727D01*
X126573610Y-58058726D01*
X126573606Y-58058723D01*
X126433223Y-57985044D01*
X126279276Y-57947100D01*
X126120724Y-57947100D01*
X125966776Y-57985044D01*
X125826393Y-58058723D01*
X125826389Y-58058726D01*
X125707707Y-58163868D01*
X125617641Y-58294351D01*
X125561415Y-58442603D01*
X125542305Y-58600000D01*
X104048874Y-58600000D01*
X104097486Y-58564681D01*
X104224485Y-58423634D01*
X104319383Y-58259265D01*
X104378034Y-58078757D01*
X104397873Y-57890000D01*
X104378034Y-57701243D01*
X104319383Y-57520735D01*
X104319380Y-57520729D01*
X104224488Y-57356370D01*
X104224486Y-57356367D01*
X104097487Y-57215320D01*
X104070478Y-57195697D01*
X103943937Y-57103759D01*
X103943936Y-57103758D01*
X103770552Y-57026562D01*
X103770547Y-57026560D01*
X103584899Y-56987100D01*
X103395101Y-56987100D01*
X103209452Y-57026560D01*
X103209447Y-57026562D01*
X103036064Y-57103758D01*
X103036059Y-57103761D01*
X102882515Y-57215317D01*
X102882508Y-57215323D01*
X102755514Y-57356367D01*
X102755511Y-57356370D01*
X102660619Y-57520729D01*
X102660614Y-57520741D01*
X102601967Y-57701239D01*
X102601966Y-57701243D01*
X102582127Y-57890000D01*
X100206768Y-57890000D01*
X100207753Y-57880000D01*
X100188389Y-57683397D01*
X100131042Y-57494350D01*
X100037916Y-57320122D01*
X100034703Y-57316207D01*
X99912589Y-57167410D01*
X99759881Y-57042086D01*
X99759879Y-57042085D01*
X99759878Y-57042084D01*
X99585650Y-56948958D01*
X99424258Y-56900000D01*
X155242443Y-56900000D01*
X155260976Y-57028908D01*
X155295160Y-57103758D01*
X155315079Y-57147374D01*
X155400364Y-57245799D01*
X155400366Y-57245800D01*
X155400366Y-57245801D01*
X155444188Y-57273962D01*
X155509924Y-57316208D01*
X155611765Y-57346112D01*
X155634882Y-57352900D01*
X155634883Y-57352900D01*
X155765118Y-57352900D01*
X155784625Y-57347171D01*
X155890076Y-57316208D01*
X155999636Y-57245799D01*
X156043049Y-57195696D01*
X156101827Y-57157923D01*
X156136762Y-57152900D01*
X158243884Y-57152900D01*
X158310923Y-57172585D01*
X158331565Y-57189219D01*
X158425388Y-57283042D01*
X158425397Y-57283053D01*
X158435601Y-57293257D01*
X158506743Y-57364399D01*
X158553219Y-57383649D01*
X158599695Y-57402901D01*
X158599696Y-57402901D01*
X158714739Y-57402901D01*
X158714747Y-57402900D01*
X168163238Y-57402900D01*
X168230277Y-57422585D01*
X168256949Y-57445695D01*
X168300364Y-57495799D01*
X168300366Y-57495800D01*
X168300366Y-57495801D01*
X168339156Y-57520729D01*
X168409924Y-57566208D01*
X168511765Y-57596112D01*
X168534882Y-57602900D01*
X168534883Y-57602900D01*
X168665118Y-57602900D01*
X168684625Y-57597171D01*
X168790076Y-57566208D01*
X168899636Y-57495799D01*
X168943049Y-57445696D01*
X169001827Y-57407923D01*
X169036762Y-57402900D01*
X169085253Y-57402900D01*
X169085261Y-57402901D01*
X169099695Y-57402901D01*
X169200305Y-57402901D01*
X169227529Y-57391623D01*
X169238807Y-57386952D01*
X169238809Y-57386950D01*
X169293257Y-57364399D01*
X169364399Y-57293257D01*
X169364399Y-57293254D01*
X169376314Y-57281340D01*
X169376317Y-57281335D01*
X170568436Y-56089219D01*
X170629759Y-56055734D01*
X170656117Y-56052900D01*
X171819032Y-56052900D01*
X171886071Y-56072585D01*
X171900235Y-56083187D01*
X171900366Y-56083301D01*
X171944188Y-56111462D01*
X172009924Y-56153708D01*
X172111765Y-56183612D01*
X172134882Y-56190400D01*
X172134883Y-56190400D01*
X172265118Y-56190400D01*
X172284625Y-56184671D01*
X172390076Y-56153708D01*
X172499636Y-56083299D01*
X172584921Y-55984874D01*
X172639023Y-55866409D01*
X172657557Y-55737500D01*
X172639023Y-55608591D01*
X172584921Y-55490126D01*
X172499636Y-55391701D01*
X172499633Y-55391699D01*
X172499633Y-55391698D01*
X172433900Y-55349455D01*
X172390076Y-55321292D01*
X172306770Y-55296830D01*
X172265118Y-55284600D01*
X172265117Y-55284600D01*
X172134883Y-55284600D01*
X172134882Y-55284600D01*
X172072403Y-55302946D01*
X172009924Y-55321292D01*
X172009921Y-55321294D01*
X171900366Y-55391698D01*
X171900366Y-55391699D01*
X171815078Y-55490126D01*
X171815072Y-55490137D01*
X171815062Y-55490145D01*
X171809271Y-55496829D01*
X171808310Y-55495996D01*
X171762269Y-55535893D01*
X171710755Y-55547100D01*
X170564747Y-55547100D01*
X170564739Y-55547099D01*
X170550305Y-55547099D01*
X170449695Y-55547099D01*
X170449693Y-55547099D01*
X170403219Y-55566350D01*
X170356742Y-55585601D01*
X170356741Y-55585602D01*
X170285600Y-55656744D01*
X169104537Y-56837808D01*
X169043214Y-56871293D01*
X168973522Y-56866309D01*
X168923143Y-56831330D01*
X168899634Y-56804199D01*
X168899633Y-56804198D01*
X168833900Y-56761955D01*
X168790076Y-56733792D01*
X168706770Y-56709330D01*
X168665118Y-56697100D01*
X168665117Y-56697100D01*
X168534883Y-56697100D01*
X168534882Y-56697100D01*
X168472403Y-56715446D01*
X168409924Y-56733792D01*
X168409921Y-56733794D01*
X168300366Y-56804198D01*
X168300366Y-56804199D01*
X168256951Y-56854303D01*
X168198173Y-56892077D01*
X168163238Y-56897100D01*
X158806118Y-56897100D01*
X158739079Y-56877415D01*
X158718437Y-56860782D01*
X158624609Y-56766955D01*
X158624603Y-56766947D01*
X158543256Y-56685600D01*
X158488808Y-56663048D01*
X158488807Y-56663047D01*
X158450307Y-56647099D01*
X158450305Y-56647099D01*
X158349695Y-56647099D01*
X158335261Y-56647099D01*
X158335253Y-56647100D01*
X156136762Y-56647100D01*
X156069723Y-56627415D01*
X156043049Y-56604303D01*
X155999636Y-56554201D01*
X155999633Y-56554199D01*
X155999633Y-56554198D01*
X155933900Y-56511955D01*
X155890076Y-56483792D01*
X155806770Y-56459330D01*
X155765118Y-56447100D01*
X155765117Y-56447100D01*
X155634883Y-56447100D01*
X155634882Y-56447100D01*
X155572403Y-56465446D01*
X155509924Y-56483792D01*
X155509921Y-56483794D01*
X155400366Y-56554198D01*
X155400366Y-56554199D01*
X155315079Y-56652625D01*
X155315078Y-56652627D01*
X155260976Y-56771091D01*
X155242443Y-56900000D01*
X99424258Y-56900000D01*
X99396603Y-56891611D01*
X99396601Y-56891610D01*
X99396599Y-56891610D01*
X99200000Y-56872247D01*
X99003400Y-56891610D01*
X98814350Y-56948958D01*
X98640118Y-57042086D01*
X98487410Y-57167410D01*
X98362086Y-57320118D01*
X98268958Y-57494350D01*
X98211610Y-57683400D01*
X98192247Y-57880000D01*
X98211610Y-58076599D01*
X98211610Y-58076601D01*
X98211611Y-58076603D01*
X98268958Y-58265650D01*
X98362084Y-58439878D01*
X98362086Y-58439881D01*
X98487410Y-58592589D01*
X98640118Y-58717913D01*
X98640122Y-58717916D01*
X98814350Y-58811042D01*
X98949622Y-58852076D01*
X99008059Y-58890373D01*
X99036515Y-58954185D01*
X99025955Y-59023252D01*
X98979731Y-59075646D01*
X98945719Y-59090511D01*
X98736513Y-59146567D01*
X98736507Y-59146570D01*
X98522423Y-59246399D01*
X98522421Y-59246400D01*
X98438627Y-59305073D01*
X98438626Y-59305073D01*
X99029766Y-59896212D01*
X98987708Y-59907482D01*
X98862292Y-59979890D01*
X98759890Y-60082292D01*
X98687482Y-60207708D01*
X98676212Y-60249765D01*
X98085073Y-59658626D01*
X98085073Y-59658627D01*
X98026400Y-59742421D01*
X98026399Y-59742423D01*
X97926570Y-59956507D01*
X97926566Y-59956516D01*
X97865432Y-60184673D01*
X97865430Y-60184684D01*
X97844843Y-60419998D01*
X89200500Y-60419998D01*
X89200500Y-55340000D01*
X98192247Y-55340000D01*
X98211610Y-55536599D01*
X98211610Y-55536601D01*
X98211611Y-55536603D01*
X98268958Y-55725650D01*
X98362084Y-55899878D01*
X98362086Y-55899881D01*
X98487410Y-56052589D01*
X98640118Y-56177913D01*
X98640122Y-56177916D01*
X98814350Y-56271042D01*
X99003397Y-56328389D01*
X99200000Y-56347753D01*
X99396603Y-56328389D01*
X99585650Y-56271042D01*
X99759878Y-56177916D01*
X99912589Y-56052589D01*
X100037916Y-55899878D01*
X100131042Y-55725650D01*
X100188389Y-55536603D01*
X100206768Y-55350000D01*
X102582127Y-55350000D01*
X102601966Y-55538757D01*
X102601967Y-55538760D01*
X102660614Y-55719258D01*
X102660619Y-55719270D01*
X102755511Y-55883629D01*
X102755513Y-55883632D01*
X102846672Y-55984874D01*
X102882514Y-56024681D01*
X102971343Y-56089219D01*
X103036063Y-56136241D01*
X103209447Y-56213437D01*
X103209452Y-56213439D01*
X103395101Y-56252900D01*
X103584899Y-56252900D01*
X103770548Y-56213439D01*
X103943937Y-56136241D01*
X104097486Y-56024681D01*
X104224485Y-55883634D01*
X104319383Y-55719265D01*
X104378034Y-55538757D01*
X104397873Y-55350000D01*
X104378034Y-55161243D01*
X104319383Y-54980735D01*
X104305909Y-54957397D01*
X104224488Y-54816370D01*
X104224486Y-54816367D01*
X104209749Y-54800000D01*
X125442305Y-54800000D01*
X125461415Y-54957396D01*
X125517641Y-55105648D01*
X125607707Y-55236131D01*
X125607708Y-55236132D01*
X125726387Y-55341272D01*
X125726389Y-55341273D01*
X125726393Y-55341276D01*
X125826084Y-55393598D01*
X125866778Y-55414956D01*
X126020724Y-55452900D01*
X126179276Y-55452900D01*
X126333222Y-55414956D01*
X126416475Y-55371260D01*
X126473606Y-55341276D01*
X126473607Y-55341274D01*
X126473613Y-55341272D01*
X126592292Y-55236132D01*
X126682360Y-55105646D01*
X126738584Y-54957397D01*
X126739744Y-54947844D01*
X129800000Y-54947844D01*
X129806401Y-55007372D01*
X129806403Y-55007379D01*
X129856645Y-55142086D01*
X129856649Y-55142093D01*
X129942809Y-55257187D01*
X129942812Y-55257190D01*
X130057906Y-55343350D01*
X130057913Y-55343354D01*
X130192620Y-55393596D01*
X130192627Y-55393598D01*
X130252155Y-55399999D01*
X130252172Y-55400000D01*
X130550000Y-55400000D01*
X131050000Y-55400000D01*
X131347828Y-55400000D01*
X131347844Y-55399999D01*
X131407372Y-55393598D01*
X131407379Y-55393596D01*
X131542086Y-55343354D01*
X131542093Y-55343350D01*
X131657187Y-55257190D01*
X131657190Y-55257187D01*
X131743350Y-55142093D01*
X131743354Y-55142086D01*
X131793596Y-55007379D01*
X131793598Y-55007372D01*
X131799999Y-54947844D01*
X131800000Y-54947827D01*
X131800000Y-54650000D01*
X131050000Y-54650000D01*
X131050000Y-55400000D01*
X130550000Y-55400000D01*
X130550000Y-54650000D01*
X129800000Y-54650000D01*
X129800000Y-54947844D01*
X126739744Y-54947844D01*
X126757695Y-54800000D01*
X126738584Y-54642603D01*
X126682360Y-54494354D01*
X126592292Y-54363868D01*
X126576945Y-54350272D01*
X130550000Y-54350272D01*
X130550000Y-54449728D01*
X130588060Y-54541614D01*
X130658386Y-54611940D01*
X130750272Y-54650000D01*
X130849728Y-54650000D01*
X130941614Y-54611940D01*
X131011940Y-54541614D01*
X131050000Y-54449728D01*
X131050000Y-54350272D01*
X131011940Y-54258386D01*
X130941614Y-54188060D01*
X130849728Y-54150000D01*
X131050000Y-54150000D01*
X131800000Y-54150000D01*
X131800000Y-53852172D01*
X131799999Y-53852155D01*
X131793598Y-53792627D01*
X131793596Y-53792620D01*
X131743354Y-53657913D01*
X131743350Y-53657906D01*
X131657190Y-53542812D01*
X131657187Y-53542809D01*
X131542093Y-53456649D01*
X131542086Y-53456645D01*
X131407379Y-53406403D01*
X131407372Y-53406401D01*
X131347844Y-53400000D01*
X131050000Y-53400000D01*
X131050000Y-54150000D01*
X130849728Y-54150000D01*
X130750272Y-54150000D01*
X130658386Y-54188060D01*
X130588060Y-54258386D01*
X130550000Y-54350272D01*
X126576945Y-54350272D01*
X126473613Y-54258728D01*
X126473611Y-54258727D01*
X126473610Y-54258726D01*
X126473606Y-54258723D01*
X126333223Y-54185044D01*
X126179276Y-54147100D01*
X126020724Y-54147100D01*
X125866776Y-54185044D01*
X125726393Y-54258723D01*
X125726389Y-54258726D01*
X125607707Y-54363868D01*
X125517641Y-54494351D01*
X125461415Y-54642603D01*
X125442305Y-54800000D01*
X104209749Y-54800000D01*
X104097487Y-54675320D01*
X103943936Y-54563758D01*
X103770552Y-54486562D01*
X103770547Y-54486560D01*
X103584899Y-54447100D01*
X103395101Y-54447100D01*
X103209452Y-54486560D01*
X103209447Y-54486562D01*
X103036064Y-54563758D01*
X103036059Y-54563761D01*
X102882515Y-54675317D01*
X102882508Y-54675323D01*
X102755514Y-54816367D01*
X102755511Y-54816370D01*
X102660619Y-54980729D01*
X102660614Y-54980741D01*
X102601967Y-55161239D01*
X102601966Y-55161243D01*
X102582127Y-55350000D01*
X100206768Y-55350000D01*
X100207753Y-55340000D01*
X100188389Y-55143397D01*
X100131042Y-54954350D01*
X100037916Y-54780122D01*
X100037913Y-54780118D01*
X99912589Y-54627410D01*
X99759881Y-54502086D01*
X99759879Y-54502085D01*
X99759878Y-54502084D01*
X99585650Y-54408958D01*
X99396603Y-54351611D01*
X99396601Y-54351610D01*
X99396599Y-54351610D01*
X99200000Y-54332247D01*
X99003400Y-54351610D01*
X98814350Y-54408958D01*
X98640118Y-54502086D01*
X98487410Y-54627410D01*
X98362086Y-54780118D01*
X98268958Y-54954350D01*
X98211610Y-55143400D01*
X98192247Y-55340000D01*
X89200500Y-55340000D01*
X89200500Y-53852155D01*
X129800000Y-53852155D01*
X129800000Y-54150000D01*
X130550000Y-54150000D01*
X130550000Y-53400000D01*
X130252155Y-53400000D01*
X130192627Y-53406401D01*
X130192620Y-53406403D01*
X130057913Y-53456645D01*
X130057906Y-53456649D01*
X129942812Y-53542809D01*
X129942809Y-53542812D01*
X129856649Y-53657906D01*
X129856645Y-53657913D01*
X129806403Y-53792620D01*
X129806401Y-53792627D01*
X129800000Y-53852155D01*
X89200500Y-53852155D01*
X89200500Y-50141902D01*
X90079500Y-50141902D01*
X90079500Y-50378097D01*
X90116446Y-50611368D01*
X90189433Y-50835996D01*
X90283887Y-51021371D01*
X90296657Y-51046433D01*
X90435483Y-51237510D01*
X90602490Y-51404517D01*
X90793567Y-51543343D01*
X90884132Y-51589488D01*
X91004003Y-51650566D01*
X91004005Y-51650566D01*
X91004008Y-51650568D01*
X91121366Y-51688700D01*
X91228631Y-51723553D01*
X91461903Y-51760500D01*
X91461908Y-51760500D01*
X91698097Y-51760500D01*
X91931368Y-51723553D01*
X92155992Y-51650568D01*
X92366433Y-51543343D01*
X92557510Y-51404517D01*
X92724517Y-51237510D01*
X92863343Y-51046433D01*
X92970568Y-50835992D01*
X93043553Y-50611368D01*
X93061934Y-50495315D01*
X93080500Y-50378097D01*
X93080500Y-50259998D01*
X97844843Y-50259998D01*
X97844843Y-50260001D01*
X97865430Y-50495315D01*
X97865432Y-50495326D01*
X97926566Y-50723483D01*
X97926570Y-50723492D01*
X98026398Y-50937576D01*
X98085073Y-51021372D01*
X98676212Y-50430233D01*
X98687482Y-50472292D01*
X98759890Y-50597708D01*
X98862292Y-50700110D01*
X98987708Y-50772518D01*
X99029766Y-50783787D01*
X98438626Y-51374926D01*
X98522417Y-51433598D01*
X98522421Y-51433600D01*
X98736507Y-51533429D01*
X98736516Y-51533433D01*
X98945718Y-51589488D01*
X99005379Y-51625853D01*
X99035908Y-51688700D01*
X99027613Y-51758075D01*
X98983128Y-51811953D01*
X98949621Y-51827923D01*
X98814354Y-51868956D01*
X98640118Y-51962086D01*
X98487410Y-52087410D01*
X98362086Y-52240118D01*
X98268958Y-52414350D01*
X98211610Y-52603400D01*
X98192247Y-52800000D01*
X98211610Y-52996599D01*
X98211610Y-52996601D01*
X98211611Y-52996603D01*
X98268958Y-53185650D01*
X98362084Y-53359878D01*
X98362086Y-53359881D01*
X98487410Y-53512589D01*
X98640118Y-53637913D01*
X98640122Y-53637916D01*
X98814350Y-53731042D01*
X99003397Y-53788389D01*
X99200000Y-53807753D01*
X99396603Y-53788389D01*
X99585650Y-53731042D01*
X99759878Y-53637916D01*
X99912589Y-53512589D01*
X100037916Y-53359878D01*
X100131042Y-53185650D01*
X100188389Y-52996603D01*
X100206768Y-52810000D01*
X102582127Y-52810000D01*
X102601966Y-52998757D01*
X102601967Y-52998760D01*
X102660614Y-53179258D01*
X102660619Y-53179270D01*
X102755511Y-53343629D01*
X102755513Y-53343632D01*
X102812031Y-53406401D01*
X102882514Y-53484681D01*
X103018931Y-53583794D01*
X103036063Y-53596241D01*
X103209447Y-53673437D01*
X103209452Y-53673439D01*
X103395101Y-53712900D01*
X103584899Y-53712900D01*
X103770548Y-53673439D01*
X103943937Y-53596241D01*
X104097486Y-53484681D01*
X104224485Y-53343634D01*
X104319383Y-53179265D01*
X104378034Y-52998757D01*
X104397873Y-52810000D01*
X104378034Y-52621243D01*
X104319383Y-52440735D01*
X104304150Y-52414350D01*
X104224488Y-52276370D01*
X104224486Y-52276367D01*
X104097487Y-52135320D01*
X103943936Y-52023758D01*
X103770552Y-51946562D01*
X103770547Y-51946560D01*
X103584899Y-51907100D01*
X103395101Y-51907100D01*
X103209452Y-51946560D01*
X103209447Y-51946562D01*
X103036064Y-52023758D01*
X103036059Y-52023761D01*
X102882515Y-52135317D01*
X102882508Y-52135323D01*
X102755514Y-52276367D01*
X102755511Y-52276370D01*
X102660619Y-52440729D01*
X102660614Y-52440741D01*
X102601967Y-52621239D01*
X102601966Y-52621243D01*
X102582127Y-52810000D01*
X100206768Y-52810000D01*
X100207753Y-52800000D01*
X100188389Y-52603397D01*
X100131042Y-52414350D01*
X100037916Y-52240122D01*
X100037913Y-52240118D01*
X99912589Y-52087410D01*
X99759881Y-51962086D01*
X99759879Y-51962085D01*
X99759878Y-51962084D01*
X99585650Y-51868958D01*
X99585647Y-51868957D01*
X99585645Y-51868956D01*
X99450378Y-51827923D01*
X99391940Y-51789626D01*
X99363483Y-51725814D01*
X99374044Y-51656747D01*
X99420269Y-51604353D01*
X99454281Y-51589488D01*
X99663483Y-51533433D01*
X99663492Y-51533429D01*
X99877580Y-51433599D01*
X99961371Y-51374925D01*
X99370233Y-50783787D01*
X99412292Y-50772518D01*
X99537708Y-50700110D01*
X99640110Y-50597708D01*
X99712518Y-50472292D01*
X99723787Y-50430233D01*
X100314925Y-51021371D01*
X100373599Y-50937580D01*
X100473429Y-50723492D01*
X100473433Y-50723483D01*
X100534567Y-50495326D01*
X100534569Y-50495315D01*
X100555157Y-50260001D01*
X100555157Y-50259998D01*
X100534569Y-50024684D01*
X100534567Y-50024673D01*
X100473433Y-49796516D01*
X100473429Y-49796507D01*
X100373601Y-49582424D01*
X100314925Y-49498626D01*
X99723787Y-50089765D01*
X99712518Y-50047708D01*
X99640110Y-49922292D01*
X99537708Y-49819890D01*
X99412292Y-49747482D01*
X99370234Y-49736212D01*
X99961372Y-49145073D01*
X99877576Y-49086398D01*
X99663492Y-48986570D01*
X99663483Y-48986566D01*
X99435326Y-48925432D01*
X99435315Y-48925430D01*
X99200002Y-48904843D01*
X99199998Y-48904843D01*
X98964684Y-48925430D01*
X98964673Y-48925432D01*
X98736516Y-48986566D01*
X98736507Y-48986570D01*
X98522423Y-49086399D01*
X98522421Y-49086400D01*
X98438627Y-49145073D01*
X98438626Y-49145073D01*
X99029766Y-49736212D01*
X98987708Y-49747482D01*
X98862292Y-49819890D01*
X98759890Y-49922292D01*
X98687482Y-50047708D01*
X98676212Y-50089765D01*
X98085073Y-49498626D01*
X98085073Y-49498627D01*
X98026400Y-49582421D01*
X98026399Y-49582423D01*
X97926570Y-49796507D01*
X97926566Y-49796516D01*
X97865432Y-50024673D01*
X97865430Y-50024684D01*
X97844843Y-50259998D01*
X93080500Y-50259998D01*
X93080500Y-50141902D01*
X93043553Y-49908631D01*
X92970566Y-49684003D01*
X92914002Y-49572991D01*
X92863343Y-49473567D01*
X92724517Y-49282490D01*
X92557510Y-49115483D01*
X92366433Y-48976657D01*
X92155996Y-48869433D01*
X91931368Y-48796446D01*
X91698097Y-48759500D01*
X91698092Y-48759500D01*
X91461908Y-48759500D01*
X91461903Y-48759500D01*
X91228631Y-48796446D01*
X91004003Y-48869433D01*
X90793566Y-48976657D01*
X90684550Y-49055862D01*
X90602490Y-49115483D01*
X90602488Y-49115485D01*
X90602487Y-49115485D01*
X90435485Y-49282487D01*
X90435485Y-49282488D01*
X90435483Y-49282490D01*
X90375862Y-49364550D01*
X90296657Y-49473566D01*
X90189433Y-49684003D01*
X90116446Y-49908631D01*
X90079500Y-50141902D01*
X89200500Y-50141902D01*
X89200500Y-47824500D01*
X89220185Y-47757461D01*
X89272989Y-47711706D01*
X89324500Y-47700500D01*
X104040211Y-47700500D01*
X104107250Y-47720185D01*
G37*
%TD.AperFunction*%
%TD*%
M02*
