%TF.GenerationSoftware,KiCad,Pcbnew,8.0.6*%
%TF.CreationDate,2024-11-09T23:45:23+09:00*%
%TF.ProjectId,PCB,5043422e-6b69-4636-9164-5f7063625858,rev?*%
%TF.SameCoordinates,Original*%
%TF.FileFunction,Soldermask,Top*%
%TF.FilePolarity,Negative*%
%FSLAX46Y46*%
G04 Gerber Fmt 4.6, Leading zero omitted, Abs format (unit mm)*
G04 Created by KiCad (PCBNEW 8.0.6) date 2024-11-09 23:45:23*
%MOMM*%
%LPD*%
G01*
G04 APERTURE LIST*
G04 Aperture macros list*
%AMRoundRect*
0 Rectangle with rounded corners*
0 $1 Rounding radius*
0 $2 $3 $4 $5 $6 $7 $8 $9 X,Y pos of 4 corners*
0 Add a 4 corners polygon primitive as box body*
4,1,4,$2,$3,$4,$5,$6,$7,$8,$9,$2,$3,0*
0 Add four circle primitives for the rounded corners*
1,1,$1+$1,$2,$3*
1,1,$1+$1,$4,$5*
1,1,$1+$1,$6,$7*
1,1,$1+$1,$8,$9*
0 Add four rect primitives between the rounded corners*
20,1,$1+$1,$2,$3,$4,$5,0*
20,1,$1+$1,$4,$5,$6,$7,0*
20,1,$1+$1,$6,$7,$8,$9,0*
20,1,$1+$1,$8,$9,$2,$3,0*%
G04 Aperture macros list end*
%ADD10RoundRect,0.300000X0.300000X0.450000X-0.300000X0.450000X-0.300000X-0.450000X0.300000X-0.450000X0*%
%ADD11RoundRect,0.250000X0.400000X0.625000X-0.400000X0.625000X-0.400000X-0.625000X0.400000X-0.625000X0*%
%ADD12RoundRect,0.250000X-0.400000X-0.625000X0.400000X-0.625000X0.400000X0.625000X-0.400000X0.625000X0*%
%ADD13RoundRect,0.212500X0.737500X0.212500X-0.737500X0.212500X-0.737500X-0.212500X0.737500X-0.212500X0*%
%ADD14RoundRect,0.212500X0.212500X0.737500X-0.212500X0.737500X-0.212500X-0.737500X0.212500X-0.737500X0*%
%ADD15R,4.800000X4.800000*%
%ADD16O,1.000000X2.000000*%
%ADD17RoundRect,0.250000X-0.475000X0.337500X-0.475000X-0.337500X0.475000X-0.337500X0.475000X0.337500X0*%
%ADD18RoundRect,0.237500X-0.287500X-0.237500X0.287500X-0.237500X0.287500X0.237500X-0.287500X0.237500X0*%
%ADD19RoundRect,0.162500X-0.362500X-0.162500X0.362500X-0.162500X0.362500X0.162500X-0.362500X0.162500X0*%
%ADD20RoundRect,0.237500X0.287500X0.237500X-0.287500X0.237500X-0.287500X-0.237500X0.287500X-0.237500X0*%
%ADD21R,0.700000X1.200000*%
%ADD22R,1.000000X0.800000*%
%ADD23R,1.000000X1.200000*%
%ADD24R,1.000000X2.800000*%
%ADD25R,1.300000X1.900000*%
%ADD26RoundRect,0.250000X-0.625000X0.400000X-0.625000X-0.400000X0.625000X-0.400000X0.625000X0.400000X0*%
%ADD27RoundRect,0.237500X-0.237500X0.250000X-0.237500X-0.250000X0.237500X-0.250000X0.237500X0.250000X0*%
%ADD28O,1.800000X4.000000*%
%ADD29O,4.000000X1.800000*%
%ADD30RoundRect,0.237500X-0.237500X0.300000X-0.237500X-0.300000X0.237500X-0.300000X0.237500X0.300000X0*%
%ADD31R,0.350000X0.500000*%
%ADD32C,0.650000*%
%ADD33RoundRect,0.150000X-0.425000X0.150000X-0.425000X-0.150000X0.425000X-0.150000X0.425000X0.150000X0*%
%ADD34RoundRect,0.075000X-0.500000X0.075000X-0.500000X-0.075000X0.500000X-0.075000X0.500000X0.075000X0*%
%ADD35O,2.100000X1.000000*%
%ADD36O,1.800000X1.000000*%
G04 APERTURE END LIST*
D10*
%TO.C,SW1*%
X113000000Y-111800000D03*
X110500000Y-111800000D03*
X108000000Y-111800000D03*
X108000000Y-107500000D03*
X110500000Y-107500000D03*
X113000000Y-107500000D03*
%TD*%
D11*
%TO.C,R4*%
X110000000Y-104000000D03*
X106900000Y-104000000D03*
%TD*%
D12*
%TO.C,R14*%
X119300000Y-73700000D03*
X122400000Y-73700000D03*
%TD*%
D13*
%TO.C,U1*%
X158100000Y-108500000D03*
X158100000Y-107250000D03*
X158100000Y-106000000D03*
X158100000Y-104750000D03*
X158100000Y-103500000D03*
D14*
X156450000Y-101850000D03*
X155200000Y-101850000D03*
X153950000Y-101850000D03*
X152700000Y-101850000D03*
X151450000Y-101850000D03*
D13*
X149800000Y-103500000D03*
X149800000Y-104750000D03*
X149800000Y-106000000D03*
X149800000Y-107250000D03*
X149800000Y-108500000D03*
D14*
X151450000Y-110150000D03*
X152700000Y-110150000D03*
X153950000Y-110150000D03*
X155200000Y-110150000D03*
X156450000Y-110150000D03*
D15*
X153950000Y-106000000D03*
%TD*%
D16*
%TO.C,U6*%
X139600000Y-92775000D03*
X141100000Y-92775000D03*
X142600000Y-92775000D03*
X144100000Y-92775000D03*
X145600000Y-92775000D03*
X147100000Y-92775000D03*
X148600000Y-92775000D03*
X150100000Y-92775000D03*
X151600000Y-92775000D03*
%TD*%
D17*
%TO.C,C12*%
X141000000Y-105662500D03*
X141000000Y-107737500D03*
%TD*%
%TO.C,C11*%
X143800000Y-105562500D03*
X143800000Y-107637500D03*
%TD*%
D12*
%TO.C,R13*%
X119450000Y-81000000D03*
X122550000Y-81000000D03*
%TD*%
D18*
%TO.C,D6*%
X115525000Y-77500000D03*
X117275000Y-77500000D03*
%TD*%
D19*
%TO.C,SW2*%
X108700000Y-85700000D03*
X117000000Y-85700000D03*
X108700000Y-90000000D03*
X117000000Y-90000000D03*
%TD*%
D20*
%TO.C,D1*%
X114000000Y-103500000D03*
X112250000Y-103500000D03*
%TD*%
D18*
%TO.C,D5*%
X115575000Y-73650000D03*
X117325000Y-73650000D03*
%TD*%
D21*
%TO.C,J4*%
X132100000Y-96900000D03*
X131000000Y-96900000D03*
X129900000Y-96900000D03*
X128800000Y-96900000D03*
X127700000Y-96900000D03*
X126600000Y-96900000D03*
X125500000Y-96900000D03*
X124400000Y-96900000D03*
X123450000Y-96900000D03*
D22*
X122500000Y-107400000D03*
D23*
X122500000Y-101200000D03*
D24*
X122500000Y-111550000D03*
D23*
X133650000Y-96900000D03*
D25*
X136000000Y-112000000D03*
%TD*%
D26*
%TO.C,R5*%
X105000000Y-89450000D03*
X105000000Y-92550000D03*
%TD*%
D27*
%TO.C,R1*%
X102000000Y-97175000D03*
X102000000Y-99000000D03*
%TD*%
D18*
%TO.C,D2*%
X100620000Y-88790000D03*
X102370000Y-88790000D03*
%TD*%
D19*
%TO.C,SW3*%
X108700000Y-94200000D03*
X117000000Y-94200000D03*
X108700000Y-98500000D03*
X117000000Y-98500000D03*
%TD*%
D28*
%TO.C,J2*%
X103250000Y-107125000D03*
X97250000Y-107125000D03*
D29*
X100200000Y-112025000D03*
%TD*%
D12*
%TO.C,R9*%
X137900000Y-78500000D03*
X141000000Y-78500000D03*
%TD*%
D30*
%TO.C,C6*%
X138500000Y-80637500D03*
X138500000Y-82362500D03*
%TD*%
D12*
%TO.C,R15*%
X119450000Y-77450000D03*
X122550000Y-77450000D03*
%TD*%
D31*
%TO.C,U5*%
X143250000Y-101200000D03*
X143900000Y-101200000D03*
X144550000Y-101200000D03*
X145200000Y-101200000D03*
X145200000Y-103250000D03*
X144550000Y-103250000D03*
X143900000Y-103250000D03*
X143250000Y-103250000D03*
%TD*%
D32*
%TO.C,J1*%
X97285000Y-92600000D03*
X97285000Y-98380000D03*
D33*
X98360000Y-92290000D03*
X98360000Y-93090000D03*
D34*
X98360000Y-94240000D03*
X98360000Y-95240000D03*
X98360000Y-95740000D03*
X98360000Y-96740000D03*
D33*
X98360000Y-97890000D03*
X98360000Y-98690000D03*
X98360000Y-98690000D03*
X98360000Y-97890000D03*
D34*
X98360000Y-97240000D03*
X98360000Y-96240000D03*
X98360000Y-94740000D03*
X98360000Y-93740000D03*
D33*
X98360000Y-93090000D03*
X98360000Y-92290000D03*
D35*
X97785000Y-91170000D03*
D36*
X93605000Y-91170000D03*
D35*
X97785000Y-99810000D03*
D36*
X93605000Y-99810000D03*
%TD*%
D18*
%TO.C,D4*%
X115800000Y-81150000D03*
X117550000Y-81150000D03*
%TD*%
M02*
