%TF.GenerationSoftware,KiCad,Pcbnew,8.0.6*%
%TF.CreationDate,2024-11-09T23:45:23+09:00*%
%TF.ProjectId,PCB,5043422e-6b69-4636-9164-5f7063625858,rev?*%
%TF.SameCoordinates,Original*%
%TF.FileFunction,Soldermask,Bot*%
%TF.FilePolarity,Negative*%
%FSLAX46Y46*%
G04 Gerber Fmt 4.6, Leading zero omitted, Abs format (unit mm)*
G04 Created by KiCad (PCBNEW 8.0.6) date 2024-11-09 23:45:23*
%MOMM*%
%LPD*%
G01*
G04 APERTURE LIST*
G04 Aperture macros list*
%AMRoundRect*
0 Rectangle with rounded corners*
0 $1 Rounding radius*
0 $2 $3 $4 $5 $6 $7 $8 $9 X,Y pos of 4 corners*
0 Add a 4 corners polygon primitive as box body*
4,1,4,$2,$3,$4,$5,$6,$7,$8,$9,$2,$3,0*
0 Add four circle primitives for the rounded corners*
1,1,$1+$1,$2,$3*
1,1,$1+$1,$4,$5*
1,1,$1+$1,$6,$7*
1,1,$1+$1,$8,$9*
0 Add four rect primitives between the rounded corners*
20,1,$1+$1,$2,$3,$4,$5,0*
20,1,$1+$1,$4,$5,$6,$7,0*
20,1,$1+$1,$6,$7,$8,$9,0*
20,1,$1+$1,$8,$9,$2,$3,0*%
G04 Aperture macros list end*
%ADD10R,1.500000X0.900000*%
%ADD11R,0.900000X1.500000*%
%ADD12C,0.600000*%
%ADD13R,3.900000X3.900000*%
%ADD14O,1.000000X2.000000*%
%ADD15O,1.800000X4.000000*%
%ADD16O,4.000000X1.800000*%
%ADD17C,0.650000*%
%ADD18O,2.100000X1.000000*%
%ADD19O,1.800000X1.000000*%
%ADD20RoundRect,0.100000X-0.100000X0.217500X-0.100000X-0.217500X0.100000X-0.217500X0.100000X0.217500X0*%
%ADD21RoundRect,0.100000X-0.217500X-0.100000X0.217500X-0.100000X0.217500X0.100000X-0.217500X0.100000X0*%
%ADD22RoundRect,0.237500X-0.300000X-0.237500X0.300000X-0.237500X0.300000X0.237500X-0.300000X0.237500X0*%
%ADD23RoundRect,0.250000X0.475000X-0.337500X0.475000X0.337500X-0.475000X0.337500X-0.475000X-0.337500X0*%
%ADD24RoundRect,0.250000X-0.625000X0.400000X-0.625000X-0.400000X0.625000X-0.400000X0.625000X0.400000X0*%
%ADD25RoundRect,0.237500X-0.287500X-0.237500X0.287500X-0.237500X0.287500X0.237500X-0.287500X0.237500X0*%
%ADD26RoundRect,0.237500X0.300000X0.237500X-0.300000X0.237500X-0.300000X-0.237500X0.300000X-0.237500X0*%
%ADD27RoundRect,0.250000X0.625000X-0.400000X0.625000X0.400000X-0.625000X0.400000X-0.625000X-0.400000X0*%
%ADD28RoundRect,0.237500X0.237500X-0.250000X0.237500X0.250000X-0.237500X0.250000X-0.237500X-0.250000X0*%
%ADD29RoundRect,0.250000X0.400000X0.625000X-0.400000X0.625000X-0.400000X-0.625000X0.400000X-0.625000X0*%
%ADD30RoundRect,0.150000X0.675000X0.150000X-0.675000X0.150000X-0.675000X-0.150000X0.675000X-0.150000X0*%
%ADD31RoundRect,0.112500X-0.112500X-0.637500X0.112500X-0.637500X0.112500X0.637500X-0.112500X0.637500X0*%
%ADD32R,0.400000X1.200000*%
%ADD33RoundRect,0.250000X-0.400000X-0.625000X0.400000X-0.625000X0.400000X0.625000X-0.400000X0.625000X0*%
%ADD34RoundRect,0.100000X0.100000X-0.217500X0.100000X0.217500X-0.100000X0.217500X-0.100000X-0.217500X0*%
%ADD35RoundRect,0.250000X0.650000X-0.250000X0.650000X0.250000X-0.650000X0.250000X-0.650000X-0.250000X0*%
G04 APERTURE END LIST*
D10*
%TO.C,U4*%
X134250000Y-71890000D03*
X134250000Y-73160000D03*
X134250000Y-74430000D03*
X134250000Y-75700000D03*
X134250000Y-76970000D03*
X134250000Y-78240000D03*
X134250000Y-79510000D03*
X134250000Y-80780000D03*
X134250000Y-82050000D03*
X134250000Y-83320000D03*
X134250000Y-84590000D03*
X134250000Y-85860000D03*
X134250000Y-87130000D03*
X134250000Y-88400000D03*
D11*
X132485000Y-89650000D03*
X131215000Y-89650000D03*
X129945000Y-89650000D03*
X128675000Y-89650000D03*
X127405000Y-89650000D03*
X126135000Y-89650000D03*
X124865000Y-89650000D03*
X123595000Y-89650000D03*
X122325000Y-89650000D03*
X121055000Y-89650000D03*
X119785000Y-89650000D03*
X118515000Y-89650000D03*
D10*
X116750000Y-88400000D03*
X116750000Y-87130000D03*
X116750000Y-85860000D03*
X116750000Y-84590000D03*
X116750000Y-83320000D03*
X116750000Y-82050000D03*
X116750000Y-80780000D03*
X116750000Y-79510000D03*
X116750000Y-78240000D03*
X116750000Y-76970000D03*
X116750000Y-75700000D03*
X116750000Y-74430000D03*
X116750000Y-73160000D03*
X116750000Y-71890000D03*
D12*
X128400000Y-80310000D03*
X128400000Y-78910000D03*
X127700000Y-81010000D03*
X127700000Y-79610000D03*
X127700000Y-78210000D03*
X127000000Y-80310000D03*
D13*
X127000000Y-79610000D03*
D12*
X127000000Y-78910000D03*
X126300000Y-81010000D03*
X126300000Y-79610000D03*
X126300000Y-78210000D03*
X125600000Y-80310000D03*
X125600000Y-78910000D03*
%TD*%
D14*
%TO.C,U6*%
X139600000Y-92775000D03*
X141100000Y-92775000D03*
X142600000Y-92775000D03*
X144100000Y-92775000D03*
X145600000Y-92775000D03*
X147100000Y-92775000D03*
X148600000Y-92775000D03*
X150100000Y-92775000D03*
X151600000Y-92775000D03*
%TD*%
D15*
%TO.C,J2*%
X103250000Y-107125000D03*
X97250000Y-107125000D03*
D16*
X100200000Y-112025000D03*
%TD*%
D17*
%TO.C,J1*%
X97285000Y-92600000D03*
X97285000Y-98380000D03*
D18*
X97785000Y-91170000D03*
D19*
X93605000Y-91170000D03*
D18*
X97785000Y-99810000D03*
D19*
X93605000Y-99810000D03*
%TD*%
D20*
%TO.C,C2*%
X117000000Y-107092500D03*
X117000000Y-107907500D03*
%TD*%
D21*
%TO.C,C1*%
X105092500Y-106800000D03*
X105907500Y-106800000D03*
%TD*%
D22*
%TO.C,C8*%
X140275000Y-82300000D03*
X142000000Y-82300000D03*
%TD*%
D23*
%TO.C,C4*%
X139500000Y-75037500D03*
X139500000Y-72962500D03*
%TD*%
D24*
%TO.C,R10*%
X114500000Y-88950000D03*
X114500000Y-92050000D03*
%TD*%
D25*
%TO.C,D3*%
X104750000Y-79500000D03*
X106500000Y-79500000D03*
%TD*%
D26*
%TO.C,C9*%
X143000000Y-95500000D03*
X141275000Y-95500000D03*
%TD*%
D27*
%TO.C,R7*%
X99000000Y-76000000D03*
X99000000Y-72900000D03*
%TD*%
D24*
%TO.C,R6*%
X109000000Y-79450000D03*
X109000000Y-82550000D03*
%TD*%
D28*
%TO.C,R2*%
X100500000Y-92000000D03*
X100500000Y-90175000D03*
%TD*%
D29*
%TO.C,R11*%
X135000000Y-92500000D03*
X131900000Y-92500000D03*
%TD*%
%TO.C,R12*%
X151050000Y-96000000D03*
X147950000Y-96000000D03*
%TD*%
D30*
%TO.C,U3*%
X115250000Y-106000000D03*
X115250000Y-107270000D03*
X115250000Y-108540000D03*
X115250000Y-109810000D03*
X110000000Y-109810000D03*
X110000000Y-108540000D03*
X110000000Y-107270000D03*
X110000000Y-106000000D03*
%TD*%
D22*
%TO.C,C10*%
X142275000Y-90500000D03*
X144000000Y-90500000D03*
%TD*%
D23*
%TO.C,C3*%
X105500000Y-86075000D03*
X105500000Y-84000000D03*
%TD*%
D31*
%TO.C,Q2*%
X92850000Y-76340000D03*
X94150000Y-76340000D03*
X93500000Y-79000000D03*
%TD*%
D32*
%TO.C,U2*%
X96500000Y-81800000D03*
X97135000Y-81800000D03*
X97770000Y-81800000D03*
X98405000Y-81800000D03*
X99040000Y-81800000D03*
X99675000Y-81800000D03*
X100310000Y-81800000D03*
X100945000Y-81800000D03*
X101580000Y-81800000D03*
X102215000Y-81800000D03*
X102215000Y-87000000D03*
X101580000Y-87000000D03*
X100945000Y-87000000D03*
X100310000Y-87000000D03*
X99675000Y-87000000D03*
X99040000Y-87000000D03*
X98405000Y-87000000D03*
X97770000Y-87000000D03*
X97135000Y-87000000D03*
X96500000Y-87000000D03*
%TD*%
D33*
%TO.C,R3*%
X109900000Y-76000000D03*
X113000000Y-76000000D03*
%TD*%
D34*
%TO.C,C5*%
X136500000Y-74407500D03*
X136500000Y-73592500D03*
%TD*%
D31*
%TO.C,Q1*%
X95750000Y-76350000D03*
X97050000Y-76350000D03*
X96400000Y-79010000D03*
%TD*%
D22*
%TO.C,C7*%
X140275000Y-80200000D03*
X142000000Y-80200000D03*
%TD*%
D33*
%TO.C,R8*%
X92900000Y-72500000D03*
X96000000Y-72500000D03*
%TD*%
D35*
%TO.C,Y1*%
X137800000Y-82500000D03*
X137800000Y-80000000D03*
%TD*%
M02*
