%TF.GenerationSoftware,KiCad,Pcbnew,8.0.6*%
%TF.CreationDate,2024-11-09T23:45:23+09:00*%
%TF.ProjectId,PCB,5043422e-6b69-4636-9164-5f7063625858,rev?*%
%TF.SameCoordinates,Original*%
%TF.FileFunction,Copper,L1,Top*%
%TF.FilePolarity,Positive*%
%FSLAX46Y46*%
G04 Gerber Fmt 4.6, Leading zero omitted, Abs format (unit mm)*
G04 Created by KiCad (PCBNEW 8.0.6) date 2024-11-09 23:45:23*
%MOMM*%
%LPD*%
G01*
G04 APERTURE LIST*
G04 Aperture macros list*
%AMRoundRect*
0 Rectangle with rounded corners*
0 $1 Rounding radius*
0 $2 $3 $4 $5 $6 $7 $8 $9 X,Y pos of 4 corners*
0 Add a 4 corners polygon primitive as box body*
4,1,4,$2,$3,$4,$5,$6,$7,$8,$9,$2,$3,0*
0 Add four circle primitives for the rounded corners*
1,1,$1+$1,$2,$3*
1,1,$1+$1,$4,$5*
1,1,$1+$1,$6,$7*
1,1,$1+$1,$8,$9*
0 Add four rect primitives between the rounded corners*
20,1,$1+$1,$2,$3,$4,$5,0*
20,1,$1+$1,$4,$5,$6,$7,0*
20,1,$1+$1,$6,$7,$8,$9,0*
20,1,$1+$1,$8,$9,$2,$3,0*%
G04 Aperture macros list end*
%TA.AperFunction,HeatsinkPad*%
%ADD10C,0.600000*%
%TD*%
%TA.AperFunction,SMDPad,CuDef*%
%ADD11RoundRect,0.300000X0.300000X0.450000X-0.300000X0.450000X-0.300000X-0.450000X0.300000X-0.450000X0*%
%TD*%
%TA.AperFunction,SMDPad,CuDef*%
%ADD12RoundRect,0.250000X0.400000X0.625000X-0.400000X0.625000X-0.400000X-0.625000X0.400000X-0.625000X0*%
%TD*%
%TA.AperFunction,SMDPad,CuDef*%
%ADD13RoundRect,0.250000X-0.400000X-0.625000X0.400000X-0.625000X0.400000X0.625000X-0.400000X0.625000X0*%
%TD*%
%TA.AperFunction,SMDPad,CuDef*%
%ADD14RoundRect,0.212500X0.737500X0.212500X-0.737500X0.212500X-0.737500X-0.212500X0.737500X-0.212500X0*%
%TD*%
%TA.AperFunction,SMDPad,CuDef*%
%ADD15RoundRect,0.212500X0.212500X0.737500X-0.212500X0.737500X-0.212500X-0.737500X0.212500X-0.737500X0*%
%TD*%
%TA.AperFunction,HeatsinkPad*%
%ADD16R,4.800000X4.800000*%
%TD*%
%TA.AperFunction,ComponentPad*%
%ADD17O,1.000000X2.000000*%
%TD*%
%TA.AperFunction,SMDPad,CuDef*%
%ADD18RoundRect,0.250000X-0.475000X0.337500X-0.475000X-0.337500X0.475000X-0.337500X0.475000X0.337500X0*%
%TD*%
%TA.AperFunction,SMDPad,CuDef*%
%ADD19RoundRect,0.237500X-0.287500X-0.237500X0.287500X-0.237500X0.287500X0.237500X-0.287500X0.237500X0*%
%TD*%
%TA.AperFunction,SMDPad,CuDef*%
%ADD20RoundRect,0.162500X-0.362500X-0.162500X0.362500X-0.162500X0.362500X0.162500X-0.362500X0.162500X0*%
%TD*%
%TA.AperFunction,SMDPad,CuDef*%
%ADD21RoundRect,0.237500X0.287500X0.237500X-0.287500X0.237500X-0.287500X-0.237500X0.287500X-0.237500X0*%
%TD*%
%TA.AperFunction,SMDPad,CuDef*%
%ADD22R,0.700000X1.200000*%
%TD*%
%TA.AperFunction,SMDPad,CuDef*%
%ADD23R,1.000000X0.800000*%
%TD*%
%TA.AperFunction,SMDPad,CuDef*%
%ADD24R,1.000000X1.200000*%
%TD*%
%TA.AperFunction,SMDPad,CuDef*%
%ADD25R,1.000000X2.800000*%
%TD*%
%TA.AperFunction,SMDPad,CuDef*%
%ADD26R,1.300000X1.900000*%
%TD*%
%TA.AperFunction,SMDPad,CuDef*%
%ADD27RoundRect,0.250000X-0.625000X0.400000X-0.625000X-0.400000X0.625000X-0.400000X0.625000X0.400000X0*%
%TD*%
%TA.AperFunction,SMDPad,CuDef*%
%ADD28RoundRect,0.237500X-0.237500X0.250000X-0.237500X-0.250000X0.237500X-0.250000X0.237500X0.250000X0*%
%TD*%
%TA.AperFunction,ComponentPad*%
%ADD29O,1.800000X4.000000*%
%TD*%
%TA.AperFunction,ComponentPad*%
%ADD30O,4.000000X1.800000*%
%TD*%
%TA.AperFunction,SMDPad,CuDef*%
%ADD31RoundRect,0.237500X-0.237500X0.300000X-0.237500X-0.300000X0.237500X-0.300000X0.237500X0.300000X0*%
%TD*%
%TA.AperFunction,SMDPad,CuDef*%
%ADD32R,0.350000X0.500000*%
%TD*%
%TA.AperFunction,SMDPad,CuDef*%
%ADD33RoundRect,0.150000X-0.425000X0.150000X-0.425000X-0.150000X0.425000X-0.150000X0.425000X0.150000X0*%
%TD*%
%TA.AperFunction,SMDPad,CuDef*%
%ADD34RoundRect,0.075000X-0.500000X0.075000X-0.500000X-0.075000X0.500000X-0.075000X0.500000X0.075000X0*%
%TD*%
%TA.AperFunction,ComponentPad*%
%ADD35O,2.100000X1.000000*%
%TD*%
%TA.AperFunction,ComponentPad*%
%ADD36O,1.800000X1.000000*%
%TD*%
%TA.AperFunction,ViaPad*%
%ADD37C,0.600000*%
%TD*%
%TA.AperFunction,ViaPad*%
%ADD38C,1.000000*%
%TD*%
%TA.AperFunction,Conductor*%
%ADD39C,0.250000*%
%TD*%
%TA.AperFunction,Conductor*%
%ADD40C,0.152400*%
%TD*%
%TA.AperFunction,Conductor*%
%ADD41C,1.000000*%
%TD*%
G04 APERTURE END LIST*
D10*
%TO.P,U4,41,GND*%
%TO.N,GND*%
X128400000Y-80310000D03*
X128400000Y-78910000D03*
X127700000Y-81010000D03*
X127700000Y-79610000D03*
X127700000Y-78210000D03*
X127000000Y-80310000D03*
X127000000Y-78910000D03*
X126300000Y-81010000D03*
X126300000Y-79610000D03*
X126300000Y-78210000D03*
X125600000Y-80310000D03*
X125600000Y-78910000D03*
%TD*%
D11*
%TO.P,SW1,1,A*%
%TO.N,SW_1*%
X113000000Y-111800000D03*
%TO.P,SW1,2,B*%
%TO.N,+3V3*%
X110500000Y-111800000D03*
%TO.P,SW1,3,C*%
%TO.N,unconnected-(SW1-C-Pad3)*%
X108000000Y-111800000D03*
%TO.P,SW1,4,A*%
%TO.N,unconnected-(SW1-A-Pad4)*%
X108000000Y-107500000D03*
%TO.P,SW1,5,B*%
%TO.N,+3V3*%
X110500000Y-107500000D03*
%TO.P,SW1,6,C*%
%TO.N,SW_1*%
X113000000Y-107500000D03*
%TD*%
D12*
%TO.P,R4,1*%
%TO.N,Net-(D1-A)*%
X110000000Y-104000000D03*
%TO.P,R4,2*%
%TO.N,+3V3*%
X106900000Y-104000000D03*
%TD*%
D13*
%TO.P,R14,1*%
%TO.N,Net-(D5-A)*%
X119300000Y-73700000D03*
%TO.P,R14,2*%
%TO.N,ESP32_IO4*%
X122400000Y-73700000D03*
%TD*%
D14*
%TO.P,U1,1*%
%TO.N,N/C*%
X158100000Y-108500000D03*
%TO.P,U1,2*%
X158100000Y-107250000D03*
%TO.P,U1,3*%
X158100000Y-106000000D03*
%TO.P,U1,4*%
X158100000Y-104750000D03*
%TO.P,U1,5*%
X158100000Y-103500000D03*
D15*
%TO.P,U1,6,GND*%
%TO.N,GND*%
X156450000Y-101850000D03*
%TO.P,U1,7,VDD*%
%TO.N,+3V3*%
X155200000Y-101850000D03*
%TO.P,U1,8*%
%TO.N,N/C*%
X153950000Y-101850000D03*
%TO.P,U1,9,SCL*%
%TO.N,ESP32_IO17_SCL*%
X152700000Y-101850000D03*
%TO.P,U1,10,SDA*%
%TO.N,ESP32_IO18_SDA*%
X151450000Y-101850000D03*
D14*
%TO.P,U1,11*%
%TO.N,N/C*%
X149800000Y-103500000D03*
%TO.P,U1,12*%
X149800000Y-104750000D03*
%TO.P,U1,13*%
X149800000Y-106000000D03*
%TO.P,U1,14*%
X149800000Y-107250000D03*
%TO.P,U1,15*%
X149800000Y-108500000D03*
D15*
%TO.P,U1,16*%
X151450000Y-110150000D03*
%TO.P,U1,17*%
X152700000Y-110150000D03*
%TO.P,U1,18*%
X153950000Y-110150000D03*
%TO.P,U1,19,VDD*%
%TO.N,+3V3*%
X155200000Y-110150000D03*
%TO.P,U1,20,GND*%
%TO.N,GND*%
X156450000Y-110150000D03*
D16*
%TO.P,U1,21,GND*%
X153950000Y-106000000D03*
%TD*%
D17*
%TO.P,U6,1,VO*%
%TO.N,unconnected-(U6-VO-Pad1)*%
X139600000Y-92775000D03*
%TO.P,U6,2,VOUT*%
%TO.N,Net-(U6-VOUT)*%
X141100000Y-92775000D03*
%TO.P,U6,3,CAP1N*%
%TO.N,Net-(U6-CAP1N)*%
X142600000Y-92775000D03*
%TO.P,U6,4,CAP1P*%
%TO.N,Net-(U6-CAP1P)*%
X144100000Y-92775000D03*
%TO.P,U6,5,VDD*%
%TO.N,+3V3*%
X145600000Y-92775000D03*
%TO.P,U6,6,VSS*%
%TO.N,GND*%
X147100000Y-92775000D03*
%TO.P,U6,7,SDA*%
%TO.N,ESP32_IO18_SDA*%
X148600000Y-92775000D03*
%TO.P,U6,8,SCL*%
%TO.N,ESP32_IO17_SCL*%
X150100000Y-92775000D03*
%TO.P,U6,9,XRSETB*%
%TO.N,ESP32_IO47*%
X151600000Y-92775000D03*
%TD*%
D18*
%TO.P,C12,1*%
%TO.N,+3V3*%
X141000000Y-105662500D03*
%TO.P,C12,2*%
%TO.N,GND*%
X141000000Y-107737500D03*
%TD*%
%TO.P,C11,1*%
%TO.N,+3V3*%
X143800000Y-105562500D03*
%TO.P,C11,2*%
%TO.N,GND*%
X143800000Y-107637500D03*
%TD*%
D13*
%TO.P,R13,1*%
%TO.N,Net-(D4-A)*%
X119450000Y-81000000D03*
%TO.P,R13,2*%
%TO.N,ESP32_IO3*%
X122550000Y-81000000D03*
%TD*%
D19*
%TO.P,D6,1,K*%
%TO.N,GND*%
X115525000Y-77500000D03*
%TO.P,D6,2,A*%
%TO.N,Net-(D6-A)*%
X117275000Y-77500000D03*
%TD*%
D20*
%TO.P,SW2,1,1*%
%TO.N,ESP32_EN*%
X108700000Y-85700000D03*
%TO.P,SW2,2,2*%
X117000000Y-85700000D03*
%TO.P,SW2,3,3*%
%TO.N,GND*%
X108700000Y-90000000D03*
%TO.P,SW2,4,4*%
X117000000Y-90000000D03*
%TD*%
D21*
%TO.P,D1,1,K*%
%TO.N,GND*%
X114000000Y-103500000D03*
%TO.P,D1,2,A*%
%TO.N,Net-(D1-A)*%
X112250000Y-103500000D03*
%TD*%
D19*
%TO.P,D5,1,K*%
%TO.N,GND*%
X115575000Y-73650000D03*
%TO.P,D5,2,A*%
%TO.N,Net-(D5-A)*%
X117325000Y-73650000D03*
%TD*%
D22*
%TO.P,J4,1,DAT2*%
%TO.N,unconnected-(J4-DAT2-Pad1)*%
X132100000Y-96900000D03*
%TO.P,J4,2,DAT3/CD*%
%TO.N,ESP32_IO10_SPI_CS*%
X131000000Y-96900000D03*
%TO.P,J4,3,CMD*%
%TO.N,ESP32_IO11_SPI_MOSI*%
X129900000Y-96900000D03*
%TO.P,J4,4,VDD*%
%TO.N,+3V3*%
X128800000Y-96900000D03*
%TO.P,J4,5,CLK*%
%TO.N,ESP32_IO12_SPI_SCK*%
X127700000Y-96900000D03*
%TO.P,J4,6,VSS*%
%TO.N,GND*%
X126600000Y-96900000D03*
%TO.P,J4,7,DAT0*%
%TO.N,ESP32_IO13_SPI_MISO*%
X125500000Y-96900000D03*
%TO.P,J4,8,DAT1*%
%TO.N,unconnected-(J4-DAT1-Pad8)*%
X124400000Y-96900000D03*
%TO.P,J4,9,DET_B*%
%TO.N,unconnected-(J4-DET_B-Pad9)*%
X123450000Y-96900000D03*
D23*
%TO.P,J4,10,DET_A*%
%TO.N,unconnected-(J4-DET_A-Pad10)*%
X122500000Y-107400000D03*
D24*
%TO.P,J4,11,SHIELD*%
%TO.N,unconnected-(J4-SHIELD-Pad11)_3*%
X122500000Y-101200000D03*
D25*
%TO.N,unconnected-(J4-SHIELD-Pad11)_2*%
X122500000Y-111550000D03*
D24*
%TO.N,unconnected-(J4-SHIELD-Pad11)*%
X133650000Y-96900000D03*
D26*
%TO.N,unconnected-(J4-SHIELD-Pad11)_1*%
X136000000Y-112000000D03*
%TD*%
D27*
%TO.P,R5,1*%
%TO.N,Net-(D2-A)*%
X105000000Y-89450000D03*
%TO.P,R5,2*%
%TO.N,+3V3*%
X105000000Y-92550000D03*
%TD*%
D28*
%TO.P,R1,1*%
%TO.N,Net-(J1-CC2)*%
X102000000Y-97175000D03*
%TO.P,R1,2*%
%TO.N,GND*%
X102000000Y-99000000D03*
%TD*%
D19*
%TO.P,D2,1,K*%
%TO.N,CBUS1*%
X100620000Y-88790000D03*
%TO.P,D2,2,A*%
%TO.N,Net-(D2-A)*%
X102370000Y-88790000D03*
%TD*%
D20*
%TO.P,SW3,1,1*%
%TO.N,ESP32_IO0*%
X108700000Y-94200000D03*
%TO.P,SW3,2,2*%
X117000000Y-94200000D03*
%TO.P,SW3,3,3*%
%TO.N,GND*%
X108700000Y-98500000D03*
%TO.P,SW3,4,4*%
X117000000Y-98500000D03*
%TD*%
D29*
%TO.P,J2,1*%
%TO.N,VDD*%
X103250000Y-107125000D03*
%TO.P,J2,2*%
%TO.N,GND*%
X97250000Y-107125000D03*
D30*
%TO.P,J2,3*%
X100200000Y-112025000D03*
%TD*%
D13*
%TO.P,R9,1*%
%TO.N,ESP32_EN*%
X137900000Y-78500000D03*
%TO.P,R9,2*%
%TO.N,+3V3*%
X141000000Y-78500000D03*
%TD*%
D31*
%TO.P,C6,1*%
%TO.N,ESP32_EN*%
X138500000Y-80637500D03*
%TO.P,C6,2*%
%TO.N,GND*%
X138500000Y-82362500D03*
%TD*%
D13*
%TO.P,R15,1*%
%TO.N,Net-(D6-A)*%
X119450000Y-77450000D03*
%TO.P,R15,2*%
%TO.N,ESP32_IO5*%
X122550000Y-77450000D03*
%TD*%
D32*
%TO.P,U5,1,GND*%
%TO.N,GND*%
X143250000Y-101200000D03*
%TO.P,U5,2,CSB*%
%TO.N,+3V3*%
X143900000Y-101200000D03*
%TO.P,U5,3,SDI*%
%TO.N,ESP32_IO18_SDA*%
X144550000Y-101200000D03*
%TO.P,U5,4,SCK*%
%TO.N,ESP32_IO17_SCL*%
X145200000Y-101200000D03*
%TO.P,U5,5,SDO*%
%TO.N,GND*%
X145200000Y-103250000D03*
%TO.P,U5,6,VDDIO*%
%TO.N,+3V3*%
X144550000Y-103250000D03*
%TO.P,U5,7,GND*%
%TO.N,GND*%
X143900000Y-103250000D03*
%TO.P,U5,8,VDD*%
%TO.N,+3V3*%
X143250000Y-103250000D03*
%TD*%
D33*
%TO.P,J1,A1,GND*%
%TO.N,GND*%
X98360000Y-92290000D03*
%TO.P,J1,A4,VBUS*%
%TO.N,VBUS*%
X98360000Y-93090000D03*
D34*
%TO.P,J1,A5,CC1*%
%TO.N,Net-(J1-CC1)*%
X98360000Y-94240000D03*
%TO.P,J1,A6,D+*%
%TO.N,USB_DP*%
X98360000Y-95240000D03*
%TO.P,J1,A7,D-*%
%TO.N,USB_DM*%
X98360000Y-95740000D03*
%TO.P,J1,A8,SBU1*%
%TO.N,unconnected-(J1-SBU1-PadA8)*%
X98360000Y-96740000D03*
D33*
%TO.P,J1,A9,VBUS*%
%TO.N,VBUS*%
X98360000Y-97890000D03*
%TO.P,J1,A12,GND*%
%TO.N,GND*%
X98360000Y-98690000D03*
%TO.P,J1,B1,GND*%
X98360000Y-98690000D03*
%TO.P,J1,B4,VBUS*%
%TO.N,VBUS*%
X98360000Y-97890000D03*
D34*
%TO.P,J1,B5,CC2*%
%TO.N,Net-(J1-CC2)*%
X98360000Y-97240000D03*
%TO.P,J1,B6,D+*%
%TO.N,USB_DP*%
X98360000Y-96240000D03*
%TO.P,J1,B7,D-*%
%TO.N,USB_DM*%
X98360000Y-94740000D03*
%TO.P,J1,B8,SBU2*%
%TO.N,unconnected-(J1-SBU2-PadB8)*%
X98360000Y-93740000D03*
D33*
%TO.P,J1,B9,VBUS*%
%TO.N,VBUS*%
X98360000Y-93090000D03*
%TO.P,J1,B12,GND*%
%TO.N,GND*%
X98360000Y-92290000D03*
D35*
%TO.P,J1,S1,SHIELD*%
%TO.N,unconnected-(J1-SHIELD-PadS1)_2*%
X97785000Y-91170000D03*
D36*
%TO.N,unconnected-(J1-SHIELD-PadS1)*%
X93605000Y-91170000D03*
D35*
%TO.N,unconnected-(J1-SHIELD-PadS1)_3*%
X97785000Y-99810000D03*
D36*
%TO.N,unconnected-(J1-SHIELD-PadS1)_1*%
X93605000Y-99810000D03*
%TD*%
D19*
%TO.P,D4,1,K*%
%TO.N,GND*%
X115800000Y-81150000D03*
%TO.P,D4,2,A*%
%TO.N,Net-(D4-A)*%
X117550000Y-81150000D03*
%TD*%
D37*
%TO.N,GND*%
X144000000Y-110000000D03*
X144262500Y-82362500D03*
X142000000Y-75462500D03*
X119000000Y-97500000D03*
X107000000Y-83500000D03*
X156250000Y-111750000D03*
X114500000Y-73000000D03*
X99430000Y-90380000D03*
X144910202Y-87089798D03*
X126250000Y-98250000D03*
%TO.N,VDD*%
X105000000Y-108000000D03*
D38*
X107750000Y-109750000D03*
D37*
%TO.N,SW_1*%
X114250000Y-106750000D03*
%TO.N,+3V3*%
X107250000Y-94500000D03*
X149000000Y-98750000D03*
X111750000Y-112000000D03*
X111500000Y-106500000D03*
X127500000Y-95000000D03*
X111500000Y-110750000D03*
X141000000Y-76500000D03*
X137250000Y-109750000D03*
X140750000Y-104500000D03*
X127000000Y-109750000D03*
%TO.N,ESP32_EN*%
X113750000Y-85750000D03*
X95500000Y-80000000D03*
X109750000Y-86250000D03*
X136500000Y-76500000D03*
%TO.N,CBUS1*%
X98413800Y-88390000D03*
%TO.N,USB_DP*%
X101370000Y-94720000D03*
%TO.N,Net-(J1-CC1)*%
X100400000Y-93700000D03*
%TO.N,USB_DM*%
X100422791Y-94552791D03*
%TO.N,ESP32_IO11_SPI_MOSI*%
X127400000Y-91000000D03*
%TO.N,ESP32_IO10_SPI_CS*%
X128700000Y-91100000D03*
%TO.N,ESP32_IO12_SPI_SCK*%
X126100000Y-91000000D03*
%TO.N,ESP32_IO13_SPI_MISO*%
X124900000Y-91000000D03*
%TO.N,DTR*%
X93370000Y-75080000D03*
X97150000Y-73770000D03*
%TO.N,ESP32_IO0*%
X108310000Y-95110000D03*
%TO.N,Net-(U2-TXD)*%
X102250000Y-77250000D03*
X96500000Y-85250000D03*
%TO.N,ESP32_IO3*%
X132250000Y-85000000D03*
%TO.N,ESP32_IO4*%
X124100000Y-73700000D03*
%TO.N,ESP32_IO5*%
X123800000Y-76300000D03*
%TO.N,ESP32_IO18_SDA*%
X145900000Y-99300000D03*
X148700000Y-100800000D03*
%TD*%
D39*
%TO.N,GND*%
X145200000Y-103250000D02*
X145200000Y-102725000D01*
X114550000Y-90000000D02*
X115800000Y-88750000D01*
X154000000Y-106000000D02*
X156450000Y-108450000D01*
X118000000Y-109750000D02*
X114825000Y-112925000D01*
X137000000Y-98500000D02*
X139500000Y-101000000D01*
X143250000Y-101200000D02*
X139700000Y-101200000D01*
X126600000Y-97900000D02*
X126250000Y-98250000D01*
X118000000Y-105750000D02*
X118000000Y-109750000D01*
X140500000Y-102250000D02*
X140250000Y-102000000D01*
X144000000Y-110000000D02*
X144000000Y-107837500D01*
X153950000Y-106000000D02*
X154000000Y-106000000D01*
X125600000Y-78910000D02*
X126300000Y-78210000D01*
X141000000Y-107737500D02*
X143700000Y-107737500D01*
X115750000Y-103500000D02*
X118000000Y-105750000D01*
X156450000Y-110150000D02*
X156450000Y-111550000D01*
X139500000Y-101000000D02*
X139500000Y-107000000D01*
X128400000Y-78910000D02*
X127700000Y-78210000D01*
X126300000Y-81010000D02*
X127700000Y-81010000D01*
X144000000Y-107837500D02*
X143800000Y-107637500D01*
X114250000Y-76250000D02*
X107000000Y-83500000D01*
X143700000Y-107737500D02*
X143800000Y-107637500D01*
D40*
X99476200Y-90426200D02*
X99676200Y-90426200D01*
D39*
X110750000Y-85750000D02*
X110750000Y-87950000D01*
D40*
X98934999Y-92290000D02*
X99430000Y-91794999D01*
D39*
X117000000Y-90000000D02*
X118500000Y-91500000D01*
X127000000Y-78910000D02*
X127700000Y-78210000D01*
X156450000Y-111550000D02*
X156250000Y-111750000D01*
X156450000Y-101850000D02*
X156450000Y-102386738D01*
X127000000Y-80310000D02*
X127700000Y-79610000D01*
X159100000Y-110150000D02*
X156450000Y-110150000D01*
X141787500Y-75250000D02*
X142000000Y-75462500D01*
X115575000Y-77450000D02*
X115525000Y-77500000D01*
X156400000Y-102436738D02*
X156400000Y-103550000D01*
D40*
X98360000Y-98690000D02*
X101690000Y-98690000D01*
D39*
X125600000Y-78910000D02*
X125600000Y-80310000D01*
X114925000Y-73000000D02*
X115575000Y-73650000D01*
X144725000Y-102250000D02*
X140500000Y-102250000D01*
D40*
X106500000Y-91000000D02*
X107500000Y-90000000D01*
D39*
X107000000Y-83500000D02*
X107250000Y-83750000D01*
X128400000Y-78910000D02*
X127700000Y-79610000D01*
D40*
X98360000Y-92290000D02*
X98934999Y-92290000D01*
D39*
X142700000Y-104200000D02*
X142300000Y-104600000D01*
X115750000Y-99750000D02*
X117000000Y-98500000D01*
X115525000Y-80875000D02*
X115800000Y-81150000D01*
X140250000Y-102000000D02*
X140250000Y-101750000D01*
X160100000Y-101850000D02*
X160500000Y-102250000D01*
X110750000Y-87950000D02*
X108700000Y-90000000D01*
X160500000Y-108750000D02*
X159100000Y-110150000D01*
X145000000Y-83100000D02*
X145000000Y-87000000D01*
X101100000Y-112925000D02*
X100200000Y-112025000D01*
X97250000Y-107125000D02*
X97250000Y-109075000D01*
X108700000Y-98500000D02*
X117000000Y-98500000D01*
X115800000Y-88800000D02*
X117000000Y-90000000D01*
X115575000Y-73650000D02*
X115575000Y-77450000D01*
D40*
X99676200Y-90426200D02*
X100250000Y-91000000D01*
D39*
X127500000Y-98500000D02*
X137000000Y-98500000D01*
X127700000Y-78210000D02*
X130660000Y-75250000D01*
D40*
X102000000Y-99000000D02*
X103250000Y-97750000D01*
X103250000Y-91000000D02*
X106500000Y-91000000D01*
D39*
X142300000Y-106800000D02*
X141362500Y-107737500D01*
X119000000Y-97500000D02*
X118500000Y-97000000D01*
X115800000Y-88750000D02*
X115800000Y-88800000D01*
D40*
X103250000Y-97750000D02*
X103250000Y-91000000D01*
D39*
X97250000Y-107125000D02*
X97250000Y-103750000D01*
X140237500Y-107737500D02*
X141000000Y-107737500D01*
X114825000Y-112925000D02*
X101100000Y-112925000D01*
X126600000Y-97600000D02*
X127500000Y-98500000D01*
X143900000Y-103775000D02*
X143475000Y-104200000D01*
X126300000Y-79610000D02*
X127000000Y-80310000D01*
X145200000Y-102725000D02*
X144725000Y-102250000D01*
X115800000Y-81150000D02*
X115350000Y-81150000D01*
D40*
X100250000Y-91000000D02*
X103250000Y-91000000D01*
D39*
X145000000Y-87000000D02*
X144910202Y-87089798D01*
X118500000Y-97000000D02*
X117000000Y-98500000D01*
X114500000Y-73000000D02*
X114925000Y-73000000D01*
X97250000Y-109075000D02*
X100200000Y-112025000D01*
X107250000Y-83750000D02*
X108750000Y-83750000D01*
D40*
X99430000Y-90380000D02*
X99476200Y-90426200D01*
D39*
X108750000Y-83750000D02*
X110750000Y-85750000D01*
X143475000Y-104200000D02*
X142700000Y-104200000D01*
X144262500Y-82362500D02*
X145000000Y-83100000D01*
X127700000Y-81010000D02*
X128400000Y-80310000D01*
X130660000Y-75250000D02*
X141787500Y-75250000D01*
X142300000Y-104600000D02*
X142300000Y-106800000D01*
X126600000Y-96900000D02*
X126600000Y-97900000D01*
X125600000Y-78910000D02*
X126300000Y-79610000D01*
D40*
X99430000Y-91794999D02*
X99430000Y-90380000D01*
D39*
X114500000Y-73000000D02*
X114250000Y-73250000D01*
X127000000Y-78910000D02*
X127700000Y-79610000D01*
X156450000Y-108450000D02*
X156450000Y-110150000D01*
X115525000Y-77500000D02*
X115525000Y-80875000D01*
X156450000Y-101850000D02*
X160100000Y-101850000D01*
X108700000Y-90000000D02*
X114550000Y-90000000D01*
X128400000Y-80310000D02*
X128400000Y-78910000D01*
X126300000Y-78210000D02*
X127000000Y-78910000D01*
X114000000Y-103500000D02*
X115750000Y-103500000D01*
X115350000Y-81150000D02*
X110750000Y-85750000D01*
D40*
X101690000Y-98690000D02*
X102000000Y-99000000D01*
D39*
X118500000Y-91500000D02*
X118500000Y-97000000D01*
D40*
X107500000Y-90000000D02*
X108700000Y-90000000D01*
D39*
X139700000Y-101200000D02*
X139500000Y-101000000D01*
X160500000Y-102250000D02*
X160500000Y-108750000D01*
X139500000Y-107000000D02*
X140237500Y-107737500D01*
X143900000Y-103250000D02*
X143900000Y-103775000D01*
X156450000Y-102386738D02*
X156400000Y-102436738D01*
X138500000Y-82362500D02*
X144262500Y-82362500D01*
X97250000Y-103750000D02*
X102000000Y-99000000D01*
X114250000Y-73250000D02*
X114250000Y-76250000D01*
X126600000Y-96900000D02*
X126600000Y-97600000D01*
X156400000Y-103550000D02*
X153950000Y-106000000D01*
X140250000Y-101750000D02*
X139700000Y-101200000D01*
X125600000Y-80310000D02*
X126300000Y-81010000D01*
X141362500Y-107737500D02*
X141000000Y-107737500D01*
X115750000Y-103500000D02*
X115750000Y-99750000D01*
D41*
%TO.N,VDD*%
X107750000Y-109750000D02*
X106750000Y-109750000D01*
D39*
X103250000Y-107125000D02*
X104125000Y-108000000D01*
D41*
X106750000Y-109750000D02*
X105000000Y-108000000D01*
X104125000Y-108000000D02*
X105000000Y-108000000D01*
D39*
%TO.N,SW_1*%
X113000000Y-111800000D02*
X113000000Y-107500000D01*
X113500000Y-107500000D02*
X114250000Y-106750000D01*
X113000000Y-107500000D02*
X113500000Y-107500000D01*
%TO.N,+3V3*%
X137250000Y-109750000D02*
X126950000Y-109750000D01*
X145600000Y-80600000D02*
X145600000Y-92775000D01*
X150237500Y-112000000D02*
X150250000Y-112000000D01*
X110500000Y-107500000D02*
X110500000Y-111800000D01*
X108500000Y-104415810D02*
X110500000Y-106415810D01*
X153049999Y-98750000D02*
X149000000Y-98750000D01*
X106900000Y-104000000D02*
X110400000Y-107500000D01*
X111500000Y-110800000D02*
X110500000Y-111800000D01*
X143900000Y-97700000D02*
X145600000Y-96000000D01*
X111750000Y-112000000D02*
X110700000Y-112000000D01*
X155200000Y-101850000D02*
X155200000Y-100900001D01*
X143900000Y-101200000D02*
X143900000Y-97750000D01*
X142550000Y-103250000D02*
X143250000Y-103250000D01*
X111500000Y-110750000D02*
X111500000Y-110800000D01*
X140000000Y-112000000D02*
X137750000Y-109750000D01*
X141000000Y-104750000D02*
X140750000Y-104500000D01*
X141000000Y-105662500D02*
X141000000Y-104800000D01*
X128800000Y-96900000D02*
X128800000Y-96300000D01*
X150250000Y-112000000D02*
X155000000Y-112000000D01*
X144550000Y-104812500D02*
X144550000Y-103250000D01*
X141000000Y-76500000D02*
X141000000Y-78500000D01*
X110500000Y-106415810D02*
X110500000Y-107500000D01*
X141000000Y-105662500D02*
X141000000Y-104750000D01*
X155200000Y-111800000D02*
X155200000Y-110150000D01*
X141500000Y-79000000D02*
X144000000Y-79000000D01*
X107250000Y-94500000D02*
X107250000Y-101250000D01*
X111500000Y-106500000D02*
X110500000Y-107500000D01*
X128800000Y-96300000D02*
X127500000Y-95000000D01*
X143900000Y-97750000D02*
X143900000Y-97700000D01*
X108500000Y-102500000D02*
X108500000Y-104415810D01*
X105000000Y-92550000D02*
X105000000Y-102100000D01*
X155200000Y-100900001D02*
X153049999Y-98750000D01*
X141000000Y-78500000D02*
X141500000Y-79000000D01*
X143775000Y-97875000D02*
X143900000Y-97750000D01*
X150250000Y-112000000D02*
X140000000Y-112000000D01*
X128925000Y-97875000D02*
X143775000Y-97875000D01*
X137750000Y-109750000D02*
X137250000Y-109750000D01*
X141000000Y-104800000D02*
X142550000Y-103250000D01*
X105000000Y-102100000D02*
X106900000Y-104000000D01*
X144000000Y-79000000D02*
X145600000Y-80600000D01*
X107250000Y-101250000D02*
X108500000Y-102500000D01*
X110400000Y-107500000D02*
X110500000Y-107500000D01*
X155000000Y-112000000D02*
X155200000Y-111800000D01*
X143800000Y-105562500D02*
X150237500Y-112000000D01*
X128800000Y-96900000D02*
X128800000Y-97750000D01*
X126950000Y-109750000D02*
X127000000Y-109750000D01*
X128800000Y-97750000D02*
X128925000Y-97875000D01*
X110700000Y-112000000D02*
X110500000Y-111800000D01*
X145600000Y-96000000D02*
X145600000Y-92775000D01*
X143800000Y-105562500D02*
X144550000Y-104812500D01*
%TO.N,ESP32_EN*%
X97965000Y-87715000D02*
X107535000Y-87715000D01*
X108700000Y-85700000D02*
X109250000Y-86250000D01*
X117000000Y-85700000D02*
X133437500Y-85700000D01*
X136500000Y-76500000D02*
X136500000Y-77100000D01*
X137900000Y-80037500D02*
X138500000Y-80637500D01*
X113750000Y-85750000D02*
X113800000Y-85700000D01*
X107535000Y-87715000D02*
X108700000Y-86550000D01*
X109250000Y-86250000D02*
X109750000Y-86250000D01*
X136500000Y-77100000D02*
X137900000Y-78500000D01*
X113800000Y-85700000D02*
X117000000Y-85700000D01*
X137900000Y-78500000D02*
X137900000Y-80037500D01*
X133437500Y-85700000D02*
X138500000Y-80637500D01*
X108700000Y-86550000D02*
X108700000Y-85700000D01*
X95500000Y-85250000D02*
X97965000Y-87715000D01*
X95500000Y-80000000D02*
X95500000Y-85250000D01*
%TO.N,Net-(D1-A)*%
X111750000Y-104000000D02*
X112250000Y-103500000D01*
X110000000Y-104000000D02*
X111750000Y-104000000D01*
D40*
%TO.N,CBUS1*%
X98813800Y-88790000D02*
X98413800Y-88390000D01*
X100620000Y-88790000D02*
X98813800Y-88790000D01*
%TO.N,Net-(D2-A)*%
X105000000Y-89450000D02*
X103030000Y-89450000D01*
X103030000Y-89450000D02*
X102370000Y-88790000D01*
D39*
%TO.N,Net-(D4-A)*%
X119450000Y-81000000D02*
X117700000Y-81000000D01*
X117700000Y-81000000D02*
X117550000Y-81150000D01*
%TO.N,Net-(D5-A)*%
X119300000Y-73700000D02*
X117375000Y-73700000D01*
X117375000Y-73700000D02*
X117325000Y-73650000D01*
%TO.N,Net-(D6-A)*%
X119450000Y-77450000D02*
X117325000Y-77450000D01*
X117325000Y-77450000D02*
X117275000Y-77500000D01*
%TO.N,VBUS*%
X97784949Y-93090000D02*
X96750000Y-94124949D01*
X96750000Y-94124949D02*
X96750000Y-96854999D01*
X98360000Y-93090000D02*
X97784949Y-93090000D01*
X96750000Y-96854999D02*
X97785001Y-97890000D01*
X97785001Y-97890000D02*
X98360000Y-97890000D01*
D40*
%TO.N,USB_DP*%
X98360000Y-95240000D02*
X100850000Y-95240000D01*
X98360000Y-96240000D02*
X99850000Y-96240000D01*
X100850000Y-95240000D02*
X101370000Y-94720000D01*
X99850000Y-96240000D02*
X100850000Y-95240000D01*
%TO.N,Net-(J1-CC1)*%
X100430000Y-93670000D02*
X100400000Y-93700000D01*
X98360000Y-94240000D02*
X99850000Y-94240000D01*
X99850000Y-94240000D02*
X100430000Y-93660000D01*
X100430000Y-93660000D02*
X100430000Y-93670000D01*
%TO.N,Net-(J1-CC2)*%
X101935000Y-97240000D02*
X102000000Y-97175000D01*
X98360000Y-97240000D02*
X101935000Y-97240000D01*
%TO.N,USB_DM*%
X97250000Y-95205540D02*
X97250000Y-95500000D01*
X100235582Y-94740000D02*
X100422791Y-94552791D01*
X97490000Y-95740000D02*
X98360000Y-95740000D01*
X97715540Y-94740000D02*
X97250000Y-95205540D01*
X97250000Y-95500000D02*
X97490000Y-95740000D01*
X98360000Y-94740000D02*
X97715540Y-94740000D01*
X98360000Y-94740000D02*
X100235582Y-94740000D01*
D39*
%TO.N,ESP32_IO11_SPI_MOSI*%
X127400000Y-93550000D02*
X127400000Y-91000000D01*
X129900000Y-96050000D02*
X127400000Y-93550000D01*
X129900000Y-96900000D02*
X129900000Y-96050000D01*
%TO.N,ESP32_IO10_SPI_CS*%
X128700000Y-93800000D02*
X128700000Y-91100000D01*
X131000000Y-96100000D02*
X129300000Y-94400000D01*
X129300000Y-94400000D02*
X128700000Y-93800000D01*
X131000000Y-96900000D02*
X131000000Y-96100000D01*
%TO.N,ESP32_IO12_SPI_SCK*%
X126600000Y-95300000D02*
X126100000Y-94800000D01*
X127700000Y-96400000D02*
X126600000Y-95300000D01*
X127700000Y-96900000D02*
X127700000Y-96400000D01*
X126100000Y-94800000D02*
X126100000Y-91000000D01*
%TO.N,ESP32_IO13_SPI_MISO*%
X125000000Y-91100000D02*
X124900000Y-91000000D01*
X125000000Y-95200000D02*
X125000000Y-91300000D01*
X125000000Y-91300000D02*
X125000000Y-91100000D01*
X125500000Y-95700000D02*
X125000000Y-95200000D01*
X125500000Y-96900000D02*
X125500000Y-95700000D01*
%TO.N,DTR*%
X93650000Y-73770000D02*
X93290000Y-74130000D01*
X97150000Y-73770000D02*
X93650000Y-73770000D01*
X93290000Y-75000000D02*
X93370000Y-75080000D01*
X93290000Y-74130000D02*
X93290000Y-75000000D01*
X93370000Y-74960000D02*
X93370000Y-75080000D01*
%TO.N,ESP32_IO0*%
X108310000Y-95110000D02*
X108310000Y-94590000D01*
X108700000Y-94200000D02*
X117000000Y-94200000D01*
X108310000Y-94590000D02*
X108700000Y-94200000D01*
%TO.N,Net-(U2-TXD)*%
X96500000Y-83000000D02*
X96500000Y-85250000D01*
X102250000Y-77250000D02*
X96500000Y-83000000D01*
%TO.N,ESP32_IO3*%
X126550000Y-85000000D02*
X131750000Y-85000000D01*
X122550000Y-81000000D02*
X126550000Y-85000000D01*
X131750000Y-85000000D02*
X132250000Y-85000000D01*
%TO.N,ESP32_IO4*%
X123800000Y-73700000D02*
X124100000Y-73700000D01*
X122400000Y-73700000D02*
X123800000Y-73700000D01*
%TO.N,ESP32_IO5*%
X123700000Y-76300000D02*
X123800000Y-76300000D01*
X122550000Y-77450000D02*
X123700000Y-76300000D01*
%TO.N,ESP32_IO18_SDA*%
X148700000Y-100800000D02*
X149500000Y-101600000D01*
X144550000Y-100050000D02*
X145300000Y-99300000D01*
X144550000Y-101200000D02*
X144550000Y-100050000D01*
X145300000Y-99300000D02*
X145900000Y-99300000D01*
X151200000Y-101600000D02*
X151450000Y-101850000D01*
X148600000Y-96600000D02*
X145900000Y-99300000D01*
X149500000Y-101600000D02*
X151200000Y-101600000D01*
X148600000Y-92775000D02*
X148600000Y-96600000D01*
%TO.N,ESP32_IO17_SCL*%
X145500000Y-100100000D02*
X146400000Y-100100000D01*
X146400000Y-100100000D02*
X152500000Y-100100000D01*
X150100000Y-92775000D02*
X150100000Y-96400000D01*
X152700000Y-100300000D02*
X152700000Y-101850000D01*
X145200000Y-101200000D02*
X145200000Y-100400000D01*
X152500000Y-100100000D02*
X152700000Y-100300000D01*
X150100000Y-96400000D02*
X146400000Y-100100000D01*
X145200000Y-100400000D02*
X145500000Y-100100000D01*
%TD*%
%TA.AperFunction,Conductor*%
%TO.N,GND*%
G36*
X161742539Y-70720185D02*
G01*
X161788294Y-70772989D01*
X161799500Y-70824500D01*
X161799500Y-113175500D01*
X161779815Y-113242539D01*
X161727011Y-113288294D01*
X161675500Y-113299500D01*
X137232418Y-113299500D01*
X137165379Y-113279815D01*
X137119624Y-113227011D01*
X137109680Y-113157853D01*
X137116236Y-113132167D01*
X137144091Y-113057482D01*
X137144903Y-113049932D01*
X137150500Y-112997873D01*
X137150499Y-111002128D01*
X137144091Y-110942517D01*
X137143328Y-110940472D01*
X137093797Y-110807671D01*
X137093793Y-110807664D01*
X137045214Y-110742771D01*
X137020796Y-110677307D01*
X137035647Y-110609034D01*
X137085052Y-110559628D01*
X137153325Y-110544776D01*
X137158354Y-110545239D01*
X137196136Y-110549496D01*
X137249998Y-110555565D01*
X137250000Y-110555565D01*
X137250004Y-110555565D01*
X137429249Y-110535369D01*
X137429250Y-110535368D01*
X137429255Y-110535368D01*
X137519816Y-110503678D01*
X137589591Y-110500116D01*
X137648449Y-110533039D01*
X139601263Y-112485855D01*
X139601267Y-112485858D01*
X139703710Y-112554309D01*
X139703711Y-112554309D01*
X139703715Y-112554312D01*
X139770396Y-112581931D01*
X139770398Y-112581933D01*
X139817543Y-112601461D01*
X139817548Y-112601463D01*
X139837597Y-112605451D01*
X139871196Y-112612134D01*
X139938392Y-112625501D01*
X139938394Y-112625501D01*
X140067721Y-112625501D01*
X140067741Y-112625500D01*
X155061608Y-112625500D01*
X155061608Y-112625499D01*
X155125978Y-112612696D01*
X155125979Y-112612696D01*
X155145150Y-112608882D01*
X155182452Y-112601463D01*
X155215792Y-112587652D01*
X155296286Y-112554312D01*
X155347509Y-112520084D01*
X155398733Y-112485858D01*
X155485858Y-112398733D01*
X155485858Y-112398731D01*
X155496066Y-112388524D01*
X155496066Y-112388522D01*
X155685858Y-112198733D01*
X155754312Y-112096285D01*
X155801463Y-111982451D01*
X155810227Y-111938393D01*
X155825500Y-111861606D01*
X155825500Y-111673295D01*
X155845185Y-111606256D01*
X155897989Y-111560501D01*
X155967147Y-111550557D01*
X155988505Y-111555589D01*
X156092439Y-111590030D01*
X156190025Y-111599999D01*
X156700000Y-111599999D01*
X156709966Y-111599999D01*
X156709980Y-111599998D01*
X156807562Y-111590029D01*
X156965662Y-111537640D01*
X156965667Y-111537638D01*
X157107427Y-111450199D01*
X157225199Y-111332427D01*
X157312638Y-111190667D01*
X157312640Y-111190662D01*
X157365029Y-111032561D01*
X157374999Y-110934980D01*
X157375000Y-110934965D01*
X157375000Y-110400000D01*
X156700000Y-110400000D01*
X156700000Y-111599999D01*
X156190025Y-111599999D01*
X156200000Y-111599998D01*
X156200000Y-108699999D01*
X156190035Y-108700000D01*
X156092438Y-108709970D01*
X155934337Y-108762359D01*
X155934330Y-108762363D01*
X155890571Y-108789353D01*
X155823178Y-108807792D01*
X155760380Y-108789352D01*
X155716624Y-108762363D01*
X155715880Y-108761904D01*
X155715875Y-108761902D01*
X155557664Y-108709476D01*
X155460014Y-108699500D01*
X154939994Y-108699500D01*
X154939976Y-108699501D01*
X154842337Y-108709475D01*
X154842334Y-108709476D01*
X154684124Y-108761902D01*
X154684115Y-108761906D01*
X154640096Y-108789058D01*
X154572704Y-108807498D01*
X154509904Y-108789058D01*
X154465884Y-108761906D01*
X154465879Y-108761904D01*
X154465878Y-108761903D01*
X154460205Y-108760023D01*
X154307664Y-108709476D01*
X154210014Y-108699500D01*
X153689994Y-108699500D01*
X153689976Y-108699501D01*
X153592337Y-108709475D01*
X153592334Y-108709476D01*
X153434124Y-108761902D01*
X153434115Y-108761906D01*
X153390096Y-108789058D01*
X153322704Y-108807498D01*
X153259904Y-108789058D01*
X153215884Y-108761906D01*
X153215879Y-108761904D01*
X153215878Y-108761903D01*
X153210205Y-108760023D01*
X153057664Y-108709476D01*
X152960014Y-108699500D01*
X152439994Y-108699500D01*
X152439976Y-108699501D01*
X152342337Y-108709475D01*
X152342334Y-108709476D01*
X152184124Y-108761902D01*
X152184115Y-108761906D01*
X152140096Y-108789058D01*
X152072704Y-108807498D01*
X152009904Y-108789058D01*
X151965884Y-108761906D01*
X151965879Y-108761904D01*
X151965878Y-108761903D01*
X151960205Y-108760023D01*
X151807664Y-108709476D01*
X151710020Y-108699500D01*
X151710013Y-108699500D01*
X151374499Y-108699500D01*
X151307460Y-108679815D01*
X151261705Y-108627011D01*
X151250499Y-108575500D01*
X151250499Y-108239994D01*
X151250498Y-108239976D01*
X151240524Y-108142337D01*
X151240523Y-108142334D01*
X151189216Y-107987500D01*
X151188097Y-107984122D01*
X151188096Y-107984120D01*
X151188095Y-107984117D01*
X151160943Y-107940099D01*
X151142501Y-107872707D01*
X151160943Y-107809901D01*
X151188095Y-107765882D01*
X151188095Y-107765880D01*
X151188097Y-107765878D01*
X151240524Y-107607663D01*
X151250500Y-107510013D01*
X151250499Y-106989988D01*
X151246630Y-106952116D01*
X151240524Y-106892337D01*
X151240523Y-106892334D01*
X151220416Y-106831654D01*
X151188097Y-106734122D01*
X151188096Y-106734120D01*
X151188095Y-106734117D01*
X151160943Y-106690099D01*
X151142501Y-106622707D01*
X151160943Y-106559901D01*
X151188095Y-106515882D01*
X151188095Y-106515880D01*
X151188097Y-106515878D01*
X151240524Y-106357663D01*
X151250500Y-106260013D01*
X151250499Y-105739988D01*
X151240524Y-105642337D01*
X151188097Y-105484122D01*
X151188096Y-105484120D01*
X151188095Y-105484117D01*
X151160943Y-105440099D01*
X151142501Y-105372707D01*
X151160943Y-105309901D01*
X151188095Y-105265882D01*
X151188095Y-105265880D01*
X151188097Y-105265878D01*
X151240524Y-105107663D01*
X151250500Y-105010013D01*
X151250499Y-104489988D01*
X151249989Y-104485000D01*
X151240524Y-104392337D01*
X151240523Y-104392334D01*
X151226661Y-104350500D01*
X151188097Y-104234122D01*
X151188096Y-104234120D01*
X151188095Y-104234117D01*
X151160943Y-104190099D01*
X151142501Y-104122707D01*
X151160943Y-104059901D01*
X151188095Y-104015882D01*
X151188095Y-104015880D01*
X151188097Y-104015878D01*
X151240524Y-103857663D01*
X151250500Y-103760013D01*
X151250499Y-103424498D01*
X151270183Y-103357460D01*
X151322987Y-103311705D01*
X151374499Y-103300499D01*
X151710006Y-103300499D01*
X151710012Y-103300499D01*
X151710020Y-103300498D01*
X151710023Y-103300498D01*
X151763489Y-103295036D01*
X151807663Y-103290524D01*
X151965878Y-103238097D01*
X151965880Y-103238095D01*
X151965882Y-103238095D01*
X152009901Y-103210943D01*
X152077293Y-103192501D01*
X152140099Y-103210943D01*
X152184117Y-103238095D01*
X152184120Y-103238096D01*
X152184122Y-103238097D01*
X152342337Y-103290524D01*
X152439987Y-103300500D01*
X152960012Y-103300499D01*
X152960020Y-103300498D01*
X152960023Y-103300498D01*
X153013489Y-103295036D01*
X153057663Y-103290524D01*
X153215878Y-103238097D01*
X153215880Y-103238095D01*
X153215882Y-103238095D01*
X153259901Y-103210943D01*
X153327293Y-103192501D01*
X153390099Y-103210943D01*
X153434117Y-103238095D01*
X153434120Y-103238096D01*
X153434122Y-103238097D01*
X153592337Y-103290524D01*
X153689987Y-103300500D01*
X154210012Y-103300499D01*
X154210020Y-103300498D01*
X154210023Y-103300498D01*
X154263489Y-103295036D01*
X154307663Y-103290524D01*
X154465878Y-103238097D01*
X154465880Y-103238095D01*
X154465882Y-103238095D01*
X154509901Y-103210943D01*
X154577293Y-103192501D01*
X154640099Y-103210943D01*
X154684117Y-103238095D01*
X154684120Y-103238096D01*
X154684122Y-103238097D01*
X154842337Y-103290524D01*
X154939987Y-103300500D01*
X155460012Y-103300499D01*
X155460020Y-103300498D01*
X155460023Y-103300498D01*
X155513489Y-103295036D01*
X155557663Y-103290524D01*
X155715878Y-103238097D01*
X155760378Y-103210648D01*
X155827769Y-103192207D01*
X155890573Y-103210647D01*
X155934332Y-103237638D01*
X155934337Y-103237640D01*
X156092439Y-103290030D01*
X156092437Y-103290030D01*
X156190025Y-103299999D01*
X156200000Y-103299998D01*
X156200000Y-103239979D01*
X156649500Y-103239979D01*
X156649500Y-103760005D01*
X156649501Y-103760023D01*
X156659475Y-103857662D01*
X156659476Y-103857665D01*
X156711902Y-104015875D01*
X156711906Y-104015884D01*
X156739058Y-104059904D01*
X156757498Y-104127296D01*
X156739058Y-104190096D01*
X156711906Y-104234115D01*
X156711902Y-104234124D01*
X156659476Y-104392335D01*
X156649500Y-104489979D01*
X156649500Y-105010005D01*
X156649501Y-105010023D01*
X156659475Y-105107662D01*
X156659476Y-105107665D01*
X156711902Y-105265875D01*
X156711906Y-105265884D01*
X156739058Y-105309904D01*
X156757498Y-105377296D01*
X156739058Y-105440096D01*
X156711906Y-105484115D01*
X156711902Y-105484124D01*
X156659476Y-105642335D01*
X156649500Y-105739979D01*
X156649500Y-106260005D01*
X156649501Y-106260023D01*
X156659475Y-106357662D01*
X156659476Y-106357665D01*
X156711902Y-106515875D01*
X156711906Y-106515884D01*
X156739058Y-106559904D01*
X156757498Y-106627296D01*
X156739058Y-106690096D01*
X156711906Y-106734115D01*
X156711902Y-106734124D01*
X156659476Y-106892335D01*
X156649500Y-106989979D01*
X156649500Y-107510005D01*
X156649501Y-107510023D01*
X156659475Y-107607662D01*
X156659476Y-107607665D01*
X156711902Y-107765875D01*
X156711906Y-107765884D01*
X156739058Y-107809904D01*
X156757498Y-107877296D01*
X156739058Y-107940096D01*
X156711906Y-107984115D01*
X156711902Y-107984124D01*
X156659476Y-108142335D01*
X156649500Y-108239979D01*
X156649500Y-108760005D01*
X156649501Y-108760023D01*
X156659475Y-108857662D01*
X156659476Y-108857665D01*
X156693706Y-108960962D01*
X156700000Y-108999966D01*
X156700000Y-109900000D01*
X157374999Y-109900000D01*
X157374999Y-109549499D01*
X157394684Y-109482460D01*
X157447488Y-109436705D01*
X157498994Y-109425499D01*
X158885012Y-109425499D01*
X158885020Y-109425498D01*
X158885023Y-109425498D01*
X158938489Y-109420036D01*
X158982663Y-109415524D01*
X159140878Y-109363097D01*
X159282739Y-109275596D01*
X159400596Y-109157739D01*
X159488097Y-109015878D01*
X159540524Y-108857663D01*
X159550500Y-108760013D01*
X159550499Y-108239988D01*
X159549243Y-108227697D01*
X159540524Y-108142337D01*
X159540523Y-108142334D01*
X159489216Y-107987500D01*
X159488097Y-107984122D01*
X159488096Y-107984120D01*
X159488095Y-107984117D01*
X159460943Y-107940099D01*
X159442501Y-107872707D01*
X159460943Y-107809901D01*
X159488095Y-107765882D01*
X159488095Y-107765880D01*
X159488097Y-107765878D01*
X159540524Y-107607663D01*
X159550500Y-107510013D01*
X159550499Y-106989988D01*
X159546630Y-106952116D01*
X159540524Y-106892337D01*
X159540523Y-106892334D01*
X159520416Y-106831654D01*
X159488097Y-106734122D01*
X159488096Y-106734120D01*
X159488095Y-106734117D01*
X159460943Y-106690099D01*
X159442501Y-106622707D01*
X159460943Y-106559901D01*
X159488095Y-106515882D01*
X159488095Y-106515880D01*
X159488097Y-106515878D01*
X159540524Y-106357663D01*
X159550500Y-106260013D01*
X159550499Y-105739988D01*
X159540524Y-105642337D01*
X159488097Y-105484122D01*
X159488096Y-105484120D01*
X159488095Y-105484117D01*
X159460943Y-105440099D01*
X159442501Y-105372707D01*
X159460943Y-105309901D01*
X159488095Y-105265882D01*
X159488095Y-105265880D01*
X159488097Y-105265878D01*
X159540524Y-105107663D01*
X159550500Y-105010013D01*
X159550499Y-104489988D01*
X159549989Y-104485000D01*
X159540524Y-104392337D01*
X159540523Y-104392334D01*
X159526661Y-104350500D01*
X159488097Y-104234122D01*
X159488096Y-104234120D01*
X159488095Y-104234117D01*
X159460943Y-104190099D01*
X159442501Y-104122707D01*
X159460943Y-104059901D01*
X159488095Y-104015882D01*
X159488095Y-104015880D01*
X159488097Y-104015878D01*
X159540524Y-103857663D01*
X159550500Y-103760013D01*
X159550499Y-103239988D01*
X159547777Y-103213345D01*
X159540524Y-103142337D01*
X159540523Y-103142334D01*
X159518211Y-103075000D01*
X159488097Y-102984122D01*
X159400596Y-102842261D01*
X159282739Y-102724404D01*
X159179240Y-102660565D01*
X159140880Y-102636904D01*
X159140875Y-102636902D01*
X158982664Y-102584476D01*
X158885020Y-102574500D01*
X157498999Y-102574500D01*
X157431960Y-102554815D01*
X157386205Y-102502011D01*
X157374999Y-102450500D01*
X157375000Y-102100000D01*
X156700000Y-102100000D01*
X156700000Y-103000032D01*
X156693706Y-103039036D01*
X156659476Y-103142335D01*
X156649500Y-103239979D01*
X156200000Y-103239979D01*
X156200000Y-101600000D01*
X156700000Y-101600000D01*
X157374999Y-101600000D01*
X157374999Y-101065034D01*
X157374998Y-101065019D01*
X157365029Y-100967437D01*
X157312640Y-100809337D01*
X157312638Y-100809332D01*
X157225199Y-100667572D01*
X157107427Y-100549800D01*
X156965667Y-100462361D01*
X156965662Y-100462359D01*
X156807561Y-100409970D01*
X156709980Y-100400000D01*
X156700000Y-100400000D01*
X156700000Y-101600000D01*
X156200000Y-101600000D01*
X156200000Y-100399999D01*
X156190035Y-100400000D01*
X156092438Y-100409970D01*
X155934337Y-100462359D01*
X155934330Y-100462363D01*
X155890571Y-100489353D01*
X155823178Y-100507792D01*
X155760380Y-100489352D01*
X155715878Y-100461903D01*
X155672940Y-100447674D01*
X155640000Y-100436759D01*
X155591324Y-100406734D01*
X153542927Y-98358338D01*
X153542924Y-98358334D01*
X153542924Y-98358335D01*
X153535857Y-98351268D01*
X153535857Y-98351267D01*
X153448732Y-98264142D01*
X153448731Y-98264141D01*
X153448730Y-98264140D01*
X153397508Y-98229915D01*
X153346285Y-98195688D01*
X153346282Y-98195686D01*
X153346279Y-98195685D01*
X153265791Y-98162347D01*
X153232452Y-98148537D01*
X153221944Y-98146447D01*
X153172028Y-98136518D01*
X153111609Y-98124500D01*
X153111606Y-98124500D01*
X153111605Y-98124500D01*
X149559451Y-98124500D01*
X149492412Y-98104815D01*
X149446657Y-98052011D01*
X149436713Y-97982853D01*
X149465738Y-97919297D01*
X149471770Y-97912819D01*
X149910412Y-97474177D01*
X150498729Y-96885860D01*
X150498733Y-96885858D01*
X150585858Y-96798733D01*
X150654311Y-96696286D01*
X150701463Y-96582452D01*
X150725500Y-96461606D01*
X150725500Y-94115783D01*
X150745185Y-94048744D01*
X150761731Y-94028190D01*
X150761819Y-94028102D01*
X150762232Y-94027688D01*
X150823520Y-93994143D01*
X150893216Y-93999058D01*
X150937680Y-94027602D01*
X150962212Y-94052134D01*
X150962218Y-94052139D01*
X151126079Y-94161628D01*
X151126092Y-94161635D01*
X151307001Y-94236569D01*
X151308165Y-94237051D01*
X151308169Y-94237051D01*
X151308170Y-94237052D01*
X151501456Y-94275500D01*
X151501459Y-94275500D01*
X151698543Y-94275500D01*
X151852567Y-94244862D01*
X151891835Y-94237051D01*
X152073914Y-94161632D01*
X152237782Y-94052139D01*
X152237784Y-94052136D01*
X152237788Y-94052134D01*
X152377136Y-93912785D01*
X152377139Y-93912782D01*
X152486632Y-93748914D01*
X152562051Y-93566835D01*
X152589574Y-93428469D01*
X152600500Y-93373543D01*
X152600500Y-92176456D01*
X152562052Y-91983170D01*
X152562051Y-91983169D01*
X152562051Y-91983165D01*
X152547129Y-91947139D01*
X152486635Y-91801092D01*
X152486628Y-91801079D01*
X152377139Y-91637218D01*
X152377136Y-91637214D01*
X152237785Y-91497863D01*
X152237781Y-91497860D01*
X152073920Y-91388371D01*
X152073907Y-91388364D01*
X151891839Y-91312950D01*
X151891829Y-91312947D01*
X151698543Y-91274500D01*
X151698541Y-91274500D01*
X151501459Y-91274500D01*
X151501457Y-91274500D01*
X151308170Y-91312947D01*
X151308160Y-91312950D01*
X151126092Y-91388364D01*
X151126079Y-91388371D01*
X150962218Y-91497860D01*
X150962214Y-91497863D01*
X150937681Y-91522397D01*
X150876358Y-91555882D01*
X150806666Y-91550898D01*
X150762319Y-91522397D01*
X150737785Y-91497863D01*
X150737781Y-91497860D01*
X150573920Y-91388371D01*
X150573907Y-91388364D01*
X150391839Y-91312950D01*
X150391829Y-91312947D01*
X150198543Y-91274500D01*
X150198541Y-91274500D01*
X150001459Y-91274500D01*
X150001457Y-91274500D01*
X149808170Y-91312947D01*
X149808160Y-91312950D01*
X149626092Y-91388364D01*
X149626079Y-91388371D01*
X149462218Y-91497860D01*
X149462214Y-91497863D01*
X149437681Y-91522397D01*
X149376358Y-91555882D01*
X149306666Y-91550898D01*
X149262319Y-91522397D01*
X149237785Y-91497863D01*
X149237781Y-91497860D01*
X149073920Y-91388371D01*
X149073907Y-91388364D01*
X148891839Y-91312950D01*
X148891829Y-91312947D01*
X148698543Y-91274500D01*
X148698541Y-91274500D01*
X148501459Y-91274500D01*
X148501457Y-91274500D01*
X148308170Y-91312947D01*
X148308160Y-91312950D01*
X148126092Y-91388364D01*
X148126079Y-91388371D01*
X147962221Y-91497858D01*
X147962215Y-91497863D01*
X147937324Y-91522753D01*
X147876000Y-91556236D01*
X147806308Y-91551249D01*
X147761965Y-91522750D01*
X147737466Y-91498251D01*
X147737462Y-91498248D01*
X147573684Y-91388814D01*
X147573671Y-91388807D01*
X147391691Y-91313429D01*
X147391683Y-91313427D01*
X147350000Y-91305135D01*
X147350000Y-92530025D01*
X147314905Y-92494930D01*
X147235095Y-92448852D01*
X147146078Y-92425000D01*
X147053922Y-92425000D01*
X146964905Y-92448852D01*
X146885095Y-92494930D01*
X146850000Y-92530025D01*
X146850000Y-91305136D01*
X146849999Y-91305135D01*
X146808316Y-91313427D01*
X146808308Y-91313429D01*
X146626328Y-91388807D01*
X146626315Y-91388814D01*
X146462540Y-91498246D01*
X146438033Y-91522753D01*
X146376709Y-91556237D01*
X146307017Y-91551251D01*
X146262672Y-91522751D01*
X146261819Y-91521898D01*
X146228334Y-91460575D01*
X146225500Y-91434217D01*
X146225500Y-80667741D01*
X146225501Y-80667720D01*
X146225501Y-80538391D01*
X146205180Y-80436236D01*
X146201463Y-80417549D01*
X146154312Y-80303715D01*
X146085858Y-80201267D01*
X146085855Y-80201263D01*
X144492928Y-78608338D01*
X144492925Y-78608334D01*
X144492925Y-78608335D01*
X144485858Y-78601268D01*
X144485858Y-78601267D01*
X144398733Y-78514142D01*
X144398732Y-78514141D01*
X144398731Y-78514140D01*
X144340900Y-78475499D01*
X144340899Y-78475498D01*
X144296290Y-78445690D01*
X144296286Y-78445688D01*
X144212318Y-78410908D01*
X144212316Y-78410906D01*
X144182455Y-78398538D01*
X144182453Y-78398537D01*
X144182452Y-78398537D01*
X144122029Y-78386518D01*
X144061610Y-78374500D01*
X144061607Y-78374500D01*
X144061606Y-78374500D01*
X142274499Y-78374500D01*
X142207460Y-78354815D01*
X142161705Y-78302011D01*
X142150499Y-78250500D01*
X142150499Y-77824998D01*
X142150498Y-77824981D01*
X142139999Y-77722203D01*
X142139998Y-77722200D01*
X142084814Y-77555666D01*
X141992712Y-77406344D01*
X141868656Y-77282288D01*
X141719334Y-77190186D01*
X141719333Y-77190185D01*
X141719332Y-77190185D01*
X141710493Y-77187256D01*
X141653049Y-77147482D01*
X141626228Y-77082965D01*
X141625500Y-77069551D01*
X141625500Y-77044854D01*
X141644507Y-76978881D01*
X141675338Y-76929815D01*
X141725789Y-76849522D01*
X141785368Y-76679255D01*
X141785369Y-76679249D01*
X141805565Y-76500003D01*
X141805565Y-76499996D01*
X141785369Y-76320750D01*
X141785368Y-76320745D01*
X141754416Y-76232289D01*
X141725789Y-76150478D01*
X141719321Y-76140185D01*
X141629815Y-75997737D01*
X141502262Y-75870184D01*
X141349523Y-75774211D01*
X141179254Y-75714631D01*
X141179249Y-75714630D01*
X141000004Y-75694435D01*
X140999996Y-75694435D01*
X140820750Y-75714630D01*
X140820745Y-75714631D01*
X140650476Y-75774211D01*
X140497737Y-75870184D01*
X140370184Y-75997737D01*
X140274211Y-76150476D01*
X140214631Y-76320745D01*
X140214630Y-76320750D01*
X140194435Y-76499996D01*
X140194435Y-76500003D01*
X140214630Y-76679249D01*
X140214631Y-76679254D01*
X140274211Y-76849524D01*
X140355493Y-76978881D01*
X140374500Y-77044854D01*
X140374500Y-77069551D01*
X140354815Y-77136590D01*
X140302011Y-77182345D01*
X140289507Y-77187256D01*
X140280667Y-77190185D01*
X140131342Y-77282289D01*
X140007289Y-77406342D01*
X139915187Y-77555663D01*
X139915185Y-77555668D01*
X139900653Y-77599523D01*
X139860001Y-77722203D01*
X139860001Y-77722204D01*
X139860000Y-77722204D01*
X139849500Y-77824983D01*
X139849500Y-79175001D01*
X139849501Y-79175018D01*
X139860000Y-79277796D01*
X139860001Y-79277799D01*
X139915185Y-79444331D01*
X139915187Y-79444336D01*
X139948125Y-79497737D01*
X140007288Y-79593656D01*
X140131344Y-79717712D01*
X140280666Y-79809814D01*
X140447203Y-79864999D01*
X140549991Y-79875500D01*
X141450008Y-79875499D01*
X141450016Y-79875498D01*
X141450019Y-79875498D01*
X141506302Y-79869748D01*
X141552797Y-79864999D01*
X141719334Y-79809814D01*
X141868656Y-79717712D01*
X141924549Y-79661819D01*
X141985872Y-79628334D01*
X142012230Y-79625500D01*
X143689548Y-79625500D01*
X143756587Y-79645185D01*
X143777229Y-79661819D01*
X144938181Y-80822771D01*
X144971666Y-80884094D01*
X144974500Y-80910452D01*
X144974500Y-91434217D01*
X144954815Y-91501256D01*
X144938093Y-91521986D01*
X144937593Y-91522485D01*
X144876237Y-91555909D01*
X144806550Y-91550854D01*
X144762319Y-91522397D01*
X144737785Y-91497863D01*
X144737781Y-91497860D01*
X144573920Y-91388371D01*
X144573907Y-91388364D01*
X144391839Y-91312950D01*
X144391829Y-91312947D01*
X144198543Y-91274500D01*
X144198541Y-91274500D01*
X144001459Y-91274500D01*
X144001457Y-91274500D01*
X143808170Y-91312947D01*
X143808160Y-91312950D01*
X143626092Y-91388364D01*
X143626079Y-91388371D01*
X143462218Y-91497860D01*
X143462214Y-91497863D01*
X143437681Y-91522397D01*
X143376358Y-91555882D01*
X143306666Y-91550898D01*
X143262319Y-91522397D01*
X143237785Y-91497863D01*
X143237781Y-91497860D01*
X143073920Y-91388371D01*
X143073907Y-91388364D01*
X142891839Y-91312950D01*
X142891829Y-91312947D01*
X142698543Y-91274500D01*
X142698541Y-91274500D01*
X142501459Y-91274500D01*
X142501457Y-91274500D01*
X142308170Y-91312947D01*
X142308160Y-91312950D01*
X142126092Y-91388364D01*
X142126079Y-91388371D01*
X141962218Y-91497860D01*
X141962214Y-91497863D01*
X141937681Y-91522397D01*
X141876358Y-91555882D01*
X141806666Y-91550898D01*
X141762319Y-91522397D01*
X141737785Y-91497863D01*
X141737781Y-91497860D01*
X141573920Y-91388371D01*
X141573907Y-91388364D01*
X141391839Y-91312950D01*
X141391829Y-91312947D01*
X141198543Y-91274500D01*
X141198541Y-91274500D01*
X141001459Y-91274500D01*
X141001457Y-91274500D01*
X140808170Y-91312947D01*
X140808160Y-91312950D01*
X140626092Y-91388364D01*
X140626079Y-91388371D01*
X140462218Y-91497860D01*
X140462214Y-91497863D01*
X140437681Y-91522397D01*
X140376358Y-91555882D01*
X140306666Y-91550898D01*
X140262319Y-91522397D01*
X140237785Y-91497863D01*
X140237781Y-91497860D01*
X140073920Y-91388371D01*
X140073907Y-91388364D01*
X139891839Y-91312950D01*
X139891829Y-91312947D01*
X139698543Y-91274500D01*
X139698541Y-91274500D01*
X139501459Y-91274500D01*
X139501457Y-91274500D01*
X139308170Y-91312947D01*
X139308160Y-91312950D01*
X139126092Y-91388364D01*
X139126079Y-91388371D01*
X138962218Y-91497860D01*
X138962214Y-91497863D01*
X138822863Y-91637214D01*
X138822860Y-91637218D01*
X138713371Y-91801079D01*
X138713364Y-91801092D01*
X138637950Y-91983160D01*
X138637947Y-91983170D01*
X138599500Y-92176456D01*
X138599500Y-92176459D01*
X138599500Y-93373541D01*
X138599500Y-93373543D01*
X138599499Y-93373543D01*
X138637947Y-93566829D01*
X138637950Y-93566839D01*
X138713364Y-93748907D01*
X138713371Y-93748920D01*
X138822860Y-93912781D01*
X138822863Y-93912785D01*
X138962212Y-94052134D01*
X138962218Y-94052139D01*
X139126079Y-94161628D01*
X139126092Y-94161635D01*
X139307001Y-94236569D01*
X139308165Y-94237051D01*
X139308169Y-94237051D01*
X139308170Y-94237052D01*
X139501456Y-94275500D01*
X139501459Y-94275500D01*
X139698543Y-94275500D01*
X139852567Y-94244862D01*
X139891835Y-94237051D01*
X140073914Y-94161632D01*
X140237782Y-94052139D01*
X140262319Y-94027601D01*
X140323640Y-93994117D01*
X140393332Y-93999100D01*
X140437680Y-94027601D01*
X140450257Y-94040178D01*
X140462219Y-94052140D01*
X140626079Y-94161628D01*
X140626092Y-94161635D01*
X140807001Y-94236569D01*
X140808165Y-94237051D01*
X140808169Y-94237051D01*
X140808170Y-94237052D01*
X141001456Y-94275500D01*
X141001459Y-94275500D01*
X141198543Y-94275500D01*
X141352567Y-94244862D01*
X141391835Y-94237051D01*
X141573914Y-94161632D01*
X141737782Y-94052139D01*
X141762319Y-94027601D01*
X141823640Y-93994117D01*
X141893332Y-93999100D01*
X141937680Y-94027601D01*
X141950257Y-94040178D01*
X141962219Y-94052140D01*
X142126079Y-94161628D01*
X142126092Y-94161635D01*
X142307001Y-94236569D01*
X142308165Y-94237051D01*
X142308169Y-94237051D01*
X142308170Y-94237052D01*
X142501456Y-94275500D01*
X142501459Y-94275500D01*
X142698543Y-94275500D01*
X142852567Y-94244862D01*
X142891835Y-94237051D01*
X143073914Y-94161632D01*
X143237782Y-94052139D01*
X143262319Y-94027601D01*
X143323640Y-93994117D01*
X143393332Y-93999100D01*
X143437680Y-94027601D01*
X143450257Y-94040178D01*
X143462219Y-94052140D01*
X143626079Y-94161628D01*
X143626092Y-94161635D01*
X143807001Y-94236569D01*
X143808165Y-94237051D01*
X143808169Y-94237051D01*
X143808170Y-94237052D01*
X144001456Y-94275500D01*
X144001459Y-94275500D01*
X144198543Y-94275500D01*
X144352567Y-94244862D01*
X144391835Y-94237051D01*
X144573914Y-94161632D01*
X144737782Y-94052139D01*
X144762319Y-94027601D01*
X144823640Y-93994117D01*
X144893332Y-93999100D01*
X144937681Y-94027602D01*
X144938181Y-94028102D01*
X144971666Y-94089425D01*
X144974500Y-94115783D01*
X144974500Y-95689547D01*
X144954815Y-95756586D01*
X144938181Y-95777228D01*
X143502228Y-97213181D01*
X143440905Y-97246666D01*
X143414547Y-97249500D01*
X134774500Y-97249500D01*
X134707461Y-97229815D01*
X134661706Y-97177011D01*
X134650500Y-97125500D01*
X134650499Y-96252129D01*
X134650498Y-96252123D01*
X134650497Y-96252116D01*
X134644091Y-96192517D01*
X134644089Y-96192512D01*
X134593797Y-96057671D01*
X134593793Y-96057664D01*
X134507547Y-95942455D01*
X134507544Y-95942452D01*
X134392335Y-95856206D01*
X134392328Y-95856202D01*
X134257482Y-95805908D01*
X134257483Y-95805908D01*
X134197883Y-95799501D01*
X134197881Y-95799500D01*
X134197873Y-95799500D01*
X134197864Y-95799500D01*
X133102129Y-95799500D01*
X133102123Y-95799501D01*
X133042516Y-95805908D01*
X132907671Y-95856202D01*
X132907669Y-95856203D01*
X132874310Y-95881176D01*
X132808845Y-95905592D01*
X132740572Y-95890740D01*
X132725690Y-95881176D01*
X132692330Y-95856203D01*
X132692328Y-95856202D01*
X132557482Y-95805908D01*
X132557483Y-95805908D01*
X132497883Y-95799501D01*
X132497881Y-95799500D01*
X132497873Y-95799500D01*
X132497864Y-95799500D01*
X131702129Y-95799500D01*
X131702123Y-95799501D01*
X131636234Y-95806584D01*
X131567475Y-95794177D01*
X131519879Y-95752184D01*
X131513702Y-95742939D01*
X131512346Y-95740910D01*
X131485856Y-95701264D01*
X131395637Y-95611045D01*
X131395606Y-95611016D01*
X129361819Y-93577229D01*
X129328334Y-93515906D01*
X129325500Y-93489548D01*
X129325500Y-91644854D01*
X129344507Y-91578881D01*
X129358942Y-91555909D01*
X129395416Y-91497860D01*
X129425788Y-91449524D01*
X129443292Y-91399500D01*
X129485368Y-91279255D01*
X129486575Y-91268541D01*
X129505565Y-91100003D01*
X129505565Y-91099996D01*
X129485369Y-90920750D01*
X129485368Y-90920745D01*
X129425788Y-90750476D01*
X129362955Y-90650478D01*
X129329816Y-90597738D01*
X129202262Y-90470184D01*
X129158541Y-90442712D01*
X129049523Y-90374211D01*
X128879254Y-90314631D01*
X128879249Y-90314630D01*
X128700004Y-90294435D01*
X128699996Y-90294435D01*
X128520750Y-90314630D01*
X128520745Y-90314631D01*
X128350476Y-90374211D01*
X128197734Y-90470186D01*
X128197732Y-90470187D01*
X128187677Y-90480243D01*
X128126353Y-90513726D01*
X128056662Y-90508739D01*
X128012318Y-90480240D01*
X127902262Y-90370184D01*
X127749523Y-90274211D01*
X127579254Y-90214631D01*
X127579249Y-90214630D01*
X127400004Y-90194435D01*
X127399996Y-90194435D01*
X127220750Y-90214630D01*
X127220745Y-90214631D01*
X127050476Y-90274211D01*
X126897737Y-90370184D01*
X126837681Y-90430241D01*
X126776358Y-90463726D01*
X126706666Y-90458742D01*
X126662319Y-90430241D01*
X126602262Y-90370184D01*
X126449523Y-90274211D01*
X126279254Y-90214631D01*
X126279249Y-90214630D01*
X126100004Y-90194435D01*
X126099996Y-90194435D01*
X125920750Y-90214630D01*
X125920745Y-90214631D01*
X125750476Y-90274211D01*
X125597737Y-90370184D01*
X125587681Y-90380241D01*
X125526358Y-90413726D01*
X125456666Y-90408742D01*
X125412319Y-90380241D01*
X125402262Y-90370184D01*
X125249523Y-90274211D01*
X125079254Y-90214631D01*
X125079249Y-90214630D01*
X124900004Y-90194435D01*
X124899996Y-90194435D01*
X124720750Y-90214630D01*
X124720745Y-90214631D01*
X124550476Y-90274211D01*
X124397737Y-90370184D01*
X124270184Y-90497737D01*
X124174211Y-90650476D01*
X124114631Y-90820745D01*
X124114630Y-90820750D01*
X124094435Y-90999996D01*
X124094435Y-91000003D01*
X124114630Y-91179249D01*
X124114631Y-91179254D01*
X124174211Y-91349523D01*
X124270184Y-91502262D01*
X124338181Y-91570259D01*
X124371666Y-91631582D01*
X124374500Y-91657940D01*
X124374500Y-95261607D01*
X124380634Y-95292451D01*
X124398534Y-95382444D01*
X124398536Y-95382450D01*
X124398537Y-95382452D01*
X124411821Y-95414523D01*
X124435768Y-95472339D01*
X124445688Y-95496287D01*
X124451757Y-95505369D01*
X124474419Y-95539283D01*
X124511048Y-95594102D01*
X124517527Y-95603799D01*
X124515980Y-95604832D01*
X124539897Y-95661143D01*
X124528107Y-95730011D01*
X124480955Y-95781572D01*
X124416731Y-95799500D01*
X124002129Y-95799500D01*
X124002120Y-95799501D01*
X123938248Y-95806367D01*
X123911742Y-95806367D01*
X123907483Y-95805909D01*
X123847873Y-95799500D01*
X123847865Y-95799500D01*
X123052129Y-95799500D01*
X123052123Y-95799501D01*
X122992516Y-95805908D01*
X122857671Y-95856202D01*
X122857664Y-95856206D01*
X122742455Y-95942452D01*
X122742452Y-95942455D01*
X122656206Y-96057664D01*
X122656202Y-96057671D01*
X122605908Y-96192517D01*
X122599557Y-96251593D01*
X122599500Y-96252127D01*
X122599500Y-96798733D01*
X122599501Y-97226000D01*
X122579817Y-97293039D01*
X122527013Y-97338794D01*
X122475501Y-97350000D01*
X122100000Y-97350000D01*
X122100000Y-99975500D01*
X122080315Y-100042539D01*
X122027511Y-100088294D01*
X121976005Y-100099500D01*
X121952132Y-100099500D01*
X121952123Y-100099501D01*
X121892516Y-100105908D01*
X121757671Y-100156202D01*
X121757664Y-100156206D01*
X121642455Y-100242452D01*
X121642452Y-100242455D01*
X121556206Y-100357664D01*
X121556202Y-100357671D01*
X121505908Y-100492517D01*
X121501997Y-100528901D01*
X121499501Y-100552123D01*
X121499500Y-100552135D01*
X121499500Y-101847870D01*
X121499501Y-101847876D01*
X121505908Y-101907483D01*
X121556202Y-102042328D01*
X121556206Y-102042335D01*
X121642452Y-102157544D01*
X121642455Y-102157547D01*
X121757664Y-102243793D01*
X121757671Y-102243797D01*
X121802618Y-102260561D01*
X121892517Y-102294091D01*
X121952127Y-102300500D01*
X121975997Y-102300499D01*
X122043036Y-102320181D01*
X122088792Y-102372983D01*
X122100000Y-102424499D01*
X122100000Y-105400000D01*
X122850000Y-105400000D01*
X122850000Y-102424499D01*
X122869685Y-102357460D01*
X122922489Y-102311705D01*
X122974000Y-102300499D01*
X123047871Y-102300499D01*
X123047872Y-102300499D01*
X123107483Y-102294091D01*
X123242331Y-102243796D01*
X123357546Y-102157546D01*
X123443796Y-102042331D01*
X123494091Y-101907483D01*
X123500500Y-101847873D01*
X123500499Y-100552128D01*
X123494091Y-100492517D01*
X123482844Y-100462363D01*
X123443797Y-100357671D01*
X123443793Y-100357664D01*
X123357547Y-100242455D01*
X123357544Y-100242452D01*
X123242335Y-100156206D01*
X123242328Y-100156202D01*
X123107482Y-100105908D01*
X123107483Y-100105908D01*
X123047883Y-100099501D01*
X123047881Y-100099500D01*
X123047873Y-100099500D01*
X123047865Y-100099500D01*
X122974000Y-100099500D01*
X122906961Y-100079815D01*
X122861206Y-100027011D01*
X122850000Y-99975500D01*
X122850000Y-98116814D01*
X122869685Y-98049775D01*
X122922489Y-98004020D01*
X122987256Y-97993525D01*
X122992515Y-97994090D01*
X122992517Y-97994091D01*
X123052127Y-98000500D01*
X123847872Y-98000499D01*
X123907483Y-97994091D01*
X123907487Y-97994089D01*
X123911743Y-97993632D01*
X123938253Y-97993632D01*
X123942514Y-97994090D01*
X123942517Y-97994091D01*
X124002127Y-98000500D01*
X124797872Y-98000499D01*
X124857483Y-97994091D01*
X124906665Y-97975746D01*
X124976355Y-97970761D01*
X124993333Y-97975747D01*
X125042508Y-97994088D01*
X125042511Y-97994088D01*
X125042517Y-97994091D01*
X125102127Y-98000500D01*
X125897872Y-98000499D01*
X125957483Y-97994091D01*
X126007382Y-97975479D01*
X126077069Y-97970494D01*
X126094048Y-97975479D01*
X126142628Y-97993598D01*
X126142627Y-97993598D01*
X126202155Y-97999999D01*
X126202172Y-98000000D01*
X126350000Y-98000000D01*
X126350000Y-97559167D01*
X126350427Y-97551188D01*
X126350322Y-97551183D01*
X126350497Y-97547898D01*
X126350500Y-97547873D01*
X126350499Y-96773998D01*
X126370183Y-96706961D01*
X126422987Y-96661206D01*
X126474499Y-96650000D01*
X126725500Y-96650000D01*
X126792539Y-96669685D01*
X126838294Y-96722489D01*
X126849500Y-96774000D01*
X126849500Y-97547863D01*
X126849679Y-97551180D01*
X126849572Y-97551185D01*
X126850000Y-97559156D01*
X126850000Y-98000000D01*
X126997828Y-98000000D01*
X126997844Y-97999999D01*
X127057372Y-97993598D01*
X127057375Y-97993597D01*
X127105949Y-97975480D01*
X127175640Y-97970494D01*
X127192610Y-97975477D01*
X127242517Y-97994091D01*
X127302127Y-98000500D01*
X128097872Y-98000499D01*
X128097874Y-98000498D01*
X128097887Y-98000498D01*
X128132590Y-97996767D01*
X128201350Y-98009172D01*
X128248946Y-98051162D01*
X128279915Y-98097509D01*
X128314140Y-98148731D01*
X128314141Y-98148732D01*
X128314142Y-98148733D01*
X128401267Y-98235858D01*
X128401268Y-98235859D01*
X128465807Y-98300398D01*
X128526268Y-98360859D01*
X128628710Y-98429309D01*
X128628711Y-98429309D01*
X128628715Y-98429312D01*
X128695396Y-98456931D01*
X128695398Y-98456933D01*
X128742200Y-98476319D01*
X128742548Y-98476463D01*
X128762597Y-98480451D01*
X128796196Y-98487134D01*
X128863392Y-98500501D01*
X128863394Y-98500501D01*
X128992721Y-98500501D01*
X128992741Y-98500500D01*
X143150500Y-98500500D01*
X143217539Y-98520185D01*
X143263294Y-98572989D01*
X143274500Y-98624500D01*
X143274500Y-100326000D01*
X143254815Y-100393039D01*
X143202011Y-100438794D01*
X143150500Y-100450000D01*
X143027155Y-100450000D01*
X142967627Y-100456401D01*
X142967620Y-100456403D01*
X142832913Y-100506645D01*
X142832906Y-100506649D01*
X142717812Y-100592809D01*
X142717809Y-100592812D01*
X142631649Y-100707906D01*
X142631645Y-100707913D01*
X142581403Y-100842620D01*
X142581401Y-100842627D01*
X142575000Y-100902155D01*
X142575000Y-101025000D01*
X143100500Y-101025000D01*
X143167539Y-101044685D01*
X143213294Y-101097489D01*
X143224500Y-101149000D01*
X143224500Y-101251000D01*
X143204815Y-101318039D01*
X143152011Y-101363794D01*
X143100500Y-101375000D01*
X142575000Y-101375000D01*
X142575000Y-101497844D01*
X142581401Y-101557372D01*
X142581403Y-101557379D01*
X142631645Y-101692086D01*
X142631649Y-101692093D01*
X142717809Y-101807187D01*
X142717812Y-101807190D01*
X142832906Y-101893350D01*
X142832913Y-101893354D01*
X142967620Y-101943596D01*
X142967627Y-101943598D01*
X143027155Y-101949999D01*
X143027172Y-101950000D01*
X143075000Y-101950000D01*
X143075000Y-101789435D01*
X143094685Y-101722396D01*
X143147489Y-101676641D01*
X143216647Y-101666697D01*
X143280203Y-101695722D01*
X143298267Y-101715124D01*
X143367452Y-101807544D01*
X143367454Y-101807546D01*
X143375308Y-101813425D01*
X143417180Y-101869356D01*
X143425000Y-101912694D01*
X143425000Y-101950000D01*
X143472828Y-101950000D01*
X143472844Y-101949999D01*
X143532375Y-101943598D01*
X143539926Y-101941814D01*
X143540315Y-101943462D01*
X143600624Y-101939140D01*
X143617387Y-101944060D01*
X143617511Y-101944088D01*
X143617517Y-101944091D01*
X143677127Y-101950500D01*
X144122872Y-101950499D01*
X144182483Y-101944091D01*
X144182485Y-101944090D01*
X144182487Y-101944090D01*
X144190031Y-101942308D01*
X144190377Y-101943775D01*
X144251342Y-101939408D01*
X144266378Y-101943822D01*
X144267511Y-101944089D01*
X144267517Y-101944091D01*
X144327127Y-101950500D01*
X144772872Y-101950499D01*
X144832483Y-101944091D01*
X144832485Y-101944090D01*
X144832487Y-101944090D01*
X144840031Y-101942308D01*
X144840377Y-101943775D01*
X144901342Y-101939408D01*
X144916378Y-101943822D01*
X144917511Y-101944089D01*
X144917517Y-101944091D01*
X144977127Y-101950500D01*
X145422872Y-101950499D01*
X145482483Y-101944091D01*
X145617331Y-101893796D01*
X145732546Y-101807546D01*
X145818796Y-101692331D01*
X145869091Y-101557483D01*
X145875500Y-101497873D01*
X145875499Y-100902128D01*
X145871266Y-100862753D01*
X145883672Y-100793995D01*
X145931283Y-100742858D01*
X145994556Y-100725500D01*
X146338393Y-100725500D01*
X146338394Y-100725500D01*
X147775228Y-100725500D01*
X147842267Y-100745185D01*
X147888022Y-100797989D01*
X147898448Y-100835617D01*
X147914630Y-100979249D01*
X147914631Y-100979254D01*
X147974211Y-101149523D01*
X148037974Y-101251000D01*
X148070184Y-101302262D01*
X148197738Y-101429816D01*
X148350478Y-101525789D01*
X148520745Y-101585368D01*
X148567823Y-101590672D01*
X148632236Y-101617737D01*
X148641621Y-101626211D01*
X149011016Y-101995606D01*
X149011045Y-101995637D01*
X149101264Y-102085856D01*
X149101267Y-102085858D01*
X149178190Y-102137256D01*
X149203710Y-102154309D01*
X149203712Y-102154310D01*
X149203715Y-102154312D01*
X149270396Y-102181931D01*
X149270398Y-102181933D01*
X149310640Y-102198601D01*
X149317548Y-102201463D01*
X149377971Y-102213481D01*
X149438393Y-102225500D01*
X149438394Y-102225500D01*
X150400501Y-102225500D01*
X150467540Y-102245185D01*
X150513295Y-102297989D01*
X150524501Y-102349501D01*
X150524500Y-102450501D01*
X150504815Y-102517540D01*
X150452010Y-102563295D01*
X150400500Y-102574500D01*
X149014994Y-102574500D01*
X149014976Y-102574501D01*
X148917337Y-102584475D01*
X148917334Y-102584476D01*
X148759124Y-102636902D01*
X148759119Y-102636904D01*
X148617259Y-102724405D01*
X148499405Y-102842259D01*
X148411904Y-102984119D01*
X148411902Y-102984124D01*
X148359476Y-103142335D01*
X148349500Y-103239979D01*
X148349500Y-103760005D01*
X148349501Y-103760023D01*
X148359475Y-103857662D01*
X148359476Y-103857665D01*
X148411902Y-104015875D01*
X148411906Y-104015884D01*
X148439058Y-104059904D01*
X148457498Y-104127296D01*
X148439058Y-104190096D01*
X148411906Y-104234115D01*
X148411902Y-104234124D01*
X148359476Y-104392335D01*
X148349500Y-104489979D01*
X148349500Y-105010005D01*
X148349501Y-105010023D01*
X148359475Y-105107662D01*
X148359476Y-105107665D01*
X148411902Y-105265875D01*
X148411906Y-105265884D01*
X148439058Y-105309904D01*
X148457498Y-105377296D01*
X148439058Y-105440096D01*
X148411906Y-105484115D01*
X148411902Y-105484124D01*
X148359476Y-105642335D01*
X148349500Y-105739979D01*
X148349500Y-106260005D01*
X148349501Y-106260023D01*
X148359475Y-106357662D01*
X148359476Y-106357665D01*
X148411902Y-106515875D01*
X148411906Y-106515884D01*
X148439058Y-106559904D01*
X148457498Y-106627296D01*
X148439058Y-106690096D01*
X148411906Y-106734115D01*
X148411902Y-106734124D01*
X148359476Y-106892335D01*
X148349500Y-106989979D01*
X148349500Y-107510005D01*
X148349501Y-107510023D01*
X148359475Y-107607662D01*
X148359476Y-107607665D01*
X148411902Y-107765875D01*
X148411906Y-107765884D01*
X148439058Y-107809904D01*
X148457498Y-107877296D01*
X148439058Y-107940096D01*
X148411906Y-107984115D01*
X148411902Y-107984124D01*
X148359476Y-108142335D01*
X148349500Y-108239979D01*
X148349500Y-108760005D01*
X148349501Y-108760023D01*
X148359475Y-108857662D01*
X148359476Y-108857665D01*
X148383091Y-108928929D01*
X148385493Y-108998757D01*
X148349761Y-109058799D01*
X148287241Y-109089992D01*
X148217781Y-109082431D01*
X148177704Y-109055614D01*
X145061818Y-105939728D01*
X145028333Y-105878405D01*
X145025499Y-105852047D01*
X145025499Y-105264351D01*
X145045184Y-105197312D01*
X145046397Y-105195460D01*
X145060074Y-105174991D01*
X145104311Y-105108786D01*
X145151463Y-104994952D01*
X145175500Y-104874106D01*
X145175500Y-104124000D01*
X145195185Y-104056961D01*
X145247989Y-104011206D01*
X145299500Y-104000000D01*
X145422828Y-104000000D01*
X145422844Y-103999999D01*
X145482372Y-103993598D01*
X145482379Y-103993596D01*
X145617086Y-103943354D01*
X145617093Y-103943350D01*
X145732187Y-103857190D01*
X145732190Y-103857187D01*
X145818350Y-103742093D01*
X145818354Y-103742086D01*
X145868596Y-103607379D01*
X145868598Y-103607372D01*
X145874999Y-103547844D01*
X145875000Y-103547827D01*
X145875000Y-103425000D01*
X145349500Y-103425000D01*
X145282461Y-103405315D01*
X145236706Y-103352511D01*
X145225500Y-103301000D01*
X145225500Y-103199000D01*
X145245185Y-103131961D01*
X145297989Y-103086206D01*
X145349500Y-103075000D01*
X145875000Y-103075000D01*
X145875000Y-102952172D01*
X145874999Y-102952155D01*
X145868598Y-102892627D01*
X145868596Y-102892620D01*
X145818354Y-102757913D01*
X145818350Y-102757906D01*
X145732190Y-102642812D01*
X145732187Y-102642809D01*
X145617093Y-102556649D01*
X145617086Y-102556645D01*
X145482379Y-102506403D01*
X145482372Y-102506401D01*
X145422844Y-102500000D01*
X145375000Y-102500000D01*
X145375000Y-102660565D01*
X145355315Y-102727604D01*
X145302511Y-102773359D01*
X145233353Y-102783303D01*
X145169797Y-102754278D01*
X145151734Y-102734876D01*
X145082547Y-102642455D01*
X145082546Y-102642454D01*
X145074685Y-102636569D01*
X145032816Y-102580633D01*
X145025000Y-102537305D01*
X145025000Y-102500000D01*
X144977155Y-102500000D01*
X144917624Y-102506401D01*
X144910073Y-102508186D01*
X144909684Y-102506542D01*
X144849348Y-102510853D01*
X144832614Y-102505939D01*
X144832491Y-102505910D01*
X144832483Y-102505909D01*
X144772873Y-102499500D01*
X144772863Y-102499500D01*
X144327129Y-102499500D01*
X144327123Y-102499501D01*
X144267515Y-102505909D01*
X144259971Y-102507692D01*
X144259675Y-102506439D01*
X144197926Y-102510855D01*
X144184357Y-102506870D01*
X144182372Y-102506401D01*
X144122844Y-102500000D01*
X144075000Y-102500000D01*
X144075000Y-102537305D01*
X144055315Y-102604344D01*
X144025315Y-102636569D01*
X144017454Y-102642453D01*
X143999266Y-102666750D01*
X143943332Y-102708620D01*
X143873640Y-102713604D01*
X143812317Y-102680118D01*
X143800734Y-102666750D01*
X143782812Y-102642809D01*
X143782546Y-102642454D01*
X143782545Y-102642453D01*
X143774685Y-102636569D01*
X143732816Y-102580633D01*
X143725000Y-102537305D01*
X143725000Y-102500000D01*
X143677155Y-102500000D01*
X143617624Y-102506401D01*
X143610073Y-102508186D01*
X143609684Y-102506542D01*
X143549348Y-102510853D01*
X143532614Y-102505939D01*
X143532491Y-102505910D01*
X143532483Y-102505909D01*
X143472873Y-102499500D01*
X143472863Y-102499500D01*
X143027129Y-102499500D01*
X143027123Y-102499501D01*
X142967516Y-102505908D01*
X142832671Y-102556202D01*
X142832668Y-102556204D01*
X142774476Y-102599767D01*
X142709011Y-102624184D01*
X142700165Y-102624500D01*
X142611607Y-102624500D01*
X142488393Y-102624500D01*
X142469334Y-102628291D01*
X142435599Y-102635001D01*
X142435598Y-102635000D01*
X142367552Y-102648535D01*
X142367545Y-102648537D01*
X142347543Y-102656823D01*
X142334207Y-102662347D01*
X142253718Y-102695685D01*
X142253715Y-102695687D01*
X142253714Y-102695688D01*
X142210739Y-102724403D01*
X142210738Y-102724404D01*
X142151271Y-102764138D01*
X142151269Y-102764139D01*
X142127277Y-102788132D01*
X142064142Y-102851267D01*
X142064139Y-102851270D01*
X141185489Y-103729919D01*
X141124166Y-103763404D01*
X141056854Y-103759280D01*
X140929257Y-103714632D01*
X140929249Y-103714630D01*
X140750004Y-103694435D01*
X140749996Y-103694435D01*
X140570750Y-103714630D01*
X140570745Y-103714631D01*
X140400476Y-103774211D01*
X140247737Y-103870184D01*
X140120184Y-103997737D01*
X140024211Y-104150476D01*
X139964631Y-104320745D01*
X139964630Y-104320750D01*
X139944435Y-104499996D01*
X139944435Y-104500003D01*
X139964631Y-104679252D01*
X139976418Y-104712938D01*
X139979979Y-104782717D01*
X139947059Y-104841571D01*
X139932292Y-104856337D01*
X139840187Y-105005663D01*
X139840185Y-105005668D01*
X139838743Y-105010020D01*
X139785001Y-105172203D01*
X139785001Y-105172204D01*
X139785000Y-105172204D01*
X139774500Y-105274983D01*
X139774500Y-106050001D01*
X139774501Y-106050019D01*
X139785000Y-106152796D01*
X139785001Y-106152799D01*
X139822060Y-106264633D01*
X139840186Y-106319334D01*
X139932288Y-106468656D01*
X140056344Y-106592712D01*
X140059628Y-106594737D01*
X140059653Y-106594753D01*
X140061445Y-106596746D01*
X140062011Y-106597193D01*
X140061934Y-106597289D01*
X140106379Y-106646699D01*
X140117603Y-106715661D01*
X140089761Y-106779744D01*
X140059665Y-106805826D01*
X140056660Y-106807679D01*
X140056655Y-106807683D01*
X139932684Y-106931654D01*
X139840643Y-107080875D01*
X139840641Y-107080880D01*
X139785494Y-107247302D01*
X139785493Y-107247309D01*
X139775000Y-107350013D01*
X139775000Y-107487500D01*
X142224999Y-107487500D01*
X142224999Y-107350028D01*
X142224998Y-107350013D01*
X142214505Y-107247302D01*
X142159358Y-107080880D01*
X142159356Y-107080875D01*
X142067315Y-106931654D01*
X141943344Y-106807683D01*
X141943341Y-106807681D01*
X141940339Y-106805829D01*
X141938713Y-106804021D01*
X141937677Y-106803202D01*
X141937817Y-106803024D01*
X141893617Y-106753880D01*
X141882397Y-106684917D01*
X141910243Y-106620836D01*
X141940344Y-106594754D01*
X141943656Y-106592712D01*
X142067712Y-106468656D01*
X142159814Y-106319334D01*
X142214999Y-106152797D01*
X142225500Y-106050009D01*
X142225499Y-105274992D01*
X142224568Y-105265882D01*
X142214999Y-105172203D01*
X142214998Y-105172200D01*
X142193986Y-105108791D01*
X142159814Y-105005666D01*
X142067712Y-104856344D01*
X142035659Y-104824291D01*
X142002174Y-104762968D01*
X142007158Y-104693276D01*
X142035655Y-104648934D01*
X142709404Y-103975184D01*
X142770725Y-103941701D01*
X142840414Y-103946684D01*
X142951314Y-103988048D01*
X142962736Y-103992308D01*
X142967517Y-103994091D01*
X143027127Y-104000500D01*
X143472872Y-104000499D01*
X143532483Y-103994091D01*
X143532489Y-103994088D01*
X143540025Y-103992308D01*
X143540321Y-103993561D01*
X143602063Y-103989142D01*
X143615655Y-103993132D01*
X143617627Y-103993598D01*
X143677155Y-103999999D01*
X143677172Y-104000000D01*
X143800500Y-104000000D01*
X143867539Y-104019685D01*
X143913294Y-104072489D01*
X143924500Y-104124000D01*
X143924500Y-104350500D01*
X143904815Y-104417539D01*
X143852011Y-104463294D01*
X143800500Y-104474500D01*
X143274998Y-104474500D01*
X143274980Y-104474501D01*
X143172203Y-104485000D01*
X143172200Y-104485001D01*
X143005668Y-104540185D01*
X143005663Y-104540187D01*
X142856342Y-104632289D01*
X142732289Y-104756342D01*
X142640187Y-104905663D01*
X142640185Y-104905668D01*
X142612349Y-104989670D01*
X142585001Y-105072203D01*
X142585001Y-105072204D01*
X142585000Y-105072204D01*
X142574500Y-105174983D01*
X142574500Y-105950001D01*
X142574501Y-105950019D01*
X142585000Y-106052796D01*
X142585001Y-106052799D01*
X142640185Y-106219331D01*
X142640187Y-106219336D01*
X142658792Y-106249500D01*
X142732288Y-106368656D01*
X142856344Y-106492712D01*
X142859628Y-106494737D01*
X142859653Y-106494753D01*
X142861445Y-106496746D01*
X142862011Y-106497193D01*
X142861934Y-106497289D01*
X142906379Y-106546699D01*
X142917603Y-106615661D01*
X142889761Y-106679744D01*
X142859665Y-106705826D01*
X142856660Y-106707679D01*
X142856655Y-106707683D01*
X142732684Y-106831654D01*
X142640643Y-106980875D01*
X142640641Y-106980880D01*
X142585494Y-107147302D01*
X142585493Y-107147309D01*
X142575000Y-107250013D01*
X142575000Y-107387500D01*
X143926000Y-107387500D01*
X143993039Y-107407185D01*
X144038794Y-107459989D01*
X144050000Y-107511500D01*
X144050000Y-108724999D01*
X144324972Y-108724999D01*
X144324986Y-108724998D01*
X144427697Y-108714505D01*
X144594119Y-108659358D01*
X144594124Y-108659356D01*
X144743345Y-108567315D01*
X144867315Y-108443345D01*
X144959356Y-108294124D01*
X144959358Y-108294119D01*
X145014505Y-108127697D01*
X145014506Y-108127690D01*
X145024999Y-108024986D01*
X145024999Y-107971453D01*
X145044682Y-107904413D01*
X145097486Y-107858658D01*
X145166644Y-107848713D01*
X145230200Y-107877737D01*
X145236680Y-107883770D01*
X148515729Y-111162819D01*
X148549214Y-111224142D01*
X148544230Y-111293834D01*
X148502358Y-111349767D01*
X148436894Y-111374184D01*
X148428048Y-111374500D01*
X140310453Y-111374500D01*
X140243414Y-111354815D01*
X140222772Y-111338181D01*
X138242928Y-109358338D01*
X138242925Y-109358334D01*
X138242925Y-109358335D01*
X138235858Y-109351268D01*
X138235858Y-109351267D01*
X138148733Y-109264142D01*
X138148732Y-109264141D01*
X138148731Y-109264140D01*
X138097509Y-109229915D01*
X138046287Y-109195689D01*
X138046286Y-109195688D01*
X138046283Y-109195686D01*
X138046280Y-109195685D01*
X137954668Y-109157739D01*
X137932455Y-109148538D01*
X137932453Y-109148537D01*
X137932452Y-109148537D01*
X137872029Y-109136518D01*
X137811610Y-109124500D01*
X137811607Y-109124500D01*
X137811606Y-109124500D01*
X137794855Y-109124500D01*
X137728883Y-109105494D01*
X137599523Y-109024211D01*
X137429254Y-108964631D01*
X137429249Y-108964630D01*
X137250004Y-108944435D01*
X137249996Y-108944435D01*
X137070750Y-108964630D01*
X137070745Y-108964631D01*
X136900476Y-109024211D01*
X136771117Y-109105494D01*
X136705145Y-109124500D01*
X127544855Y-109124500D01*
X127478883Y-109105494D01*
X127349523Y-109024211D01*
X127179254Y-108964631D01*
X127179249Y-108964630D01*
X127000004Y-108944435D01*
X126999996Y-108944435D01*
X126820750Y-108964630D01*
X126820745Y-108964631D01*
X126650476Y-109024211D01*
X126497737Y-109120184D01*
X126370184Y-109247737D01*
X126274211Y-109400476D01*
X126214631Y-109570745D01*
X126214630Y-109570750D01*
X126194435Y-109749996D01*
X126194435Y-109750003D01*
X126214630Y-109929249D01*
X126214631Y-109929254D01*
X126274211Y-110099523D01*
X126352372Y-110223914D01*
X126370184Y-110252262D01*
X126497738Y-110379816D01*
X126565104Y-110422145D01*
X126606234Y-110447989D01*
X126650478Y-110475789D01*
X126797228Y-110527139D01*
X126820745Y-110535368D01*
X126820750Y-110535369D01*
X126999996Y-110555565D01*
X127000000Y-110555565D01*
X127000004Y-110555565D01*
X127179249Y-110535369D01*
X127179252Y-110535368D01*
X127179255Y-110535368D01*
X127349522Y-110475789D01*
X127478883Y-110394505D01*
X127544855Y-110375500D01*
X135044344Y-110375500D01*
X135111383Y-110395185D01*
X135157138Y-110447989D01*
X135167082Y-110517147D01*
X135138057Y-110580703D01*
X135114106Y-110600003D01*
X135114769Y-110600888D01*
X134992455Y-110692452D01*
X134992452Y-110692455D01*
X134906206Y-110807664D01*
X134906202Y-110807671D01*
X134855908Y-110942517D01*
X134849677Y-111000478D01*
X134849501Y-111002123D01*
X134849500Y-111002135D01*
X134849500Y-111476000D01*
X134829815Y-111543039D01*
X134777011Y-111588794D01*
X134725500Y-111600000D01*
X132250000Y-111600000D01*
X132250000Y-112950000D01*
X134732970Y-112950000D01*
X134800009Y-112969685D01*
X134845764Y-113022489D01*
X134853342Y-113050116D01*
X134854124Y-113049932D01*
X134855907Y-113057479D01*
X134883764Y-113132167D01*
X134888748Y-113201859D01*
X134855263Y-113263182D01*
X134793939Y-113296666D01*
X134767582Y-113299500D01*
X123582418Y-113299500D01*
X123515379Y-113279815D01*
X123469624Y-113227011D01*
X123459680Y-113157853D01*
X123466236Y-113132167D01*
X123494091Y-113057482D01*
X123494903Y-113049932D01*
X123500500Y-112997873D01*
X123500499Y-110923999D01*
X123520184Y-110856961D01*
X123572987Y-110811206D01*
X123624499Y-110800000D01*
X123900000Y-110800000D01*
X123900000Y-108124986D01*
X139775001Y-108124986D01*
X139785494Y-108227697D01*
X139840641Y-108394119D01*
X139840643Y-108394124D01*
X139932684Y-108543345D01*
X140056654Y-108667315D01*
X140205875Y-108759356D01*
X140205880Y-108759358D01*
X140372302Y-108814505D01*
X140372309Y-108814506D01*
X140475019Y-108824999D01*
X140749999Y-108824999D01*
X141250000Y-108824999D01*
X141524972Y-108824999D01*
X141524986Y-108824998D01*
X141627697Y-108814505D01*
X141794119Y-108759358D01*
X141794124Y-108759356D01*
X141943345Y-108667315D01*
X142067315Y-108543345D01*
X142159356Y-108394124D01*
X142159358Y-108394119D01*
X142214505Y-108227697D01*
X142214506Y-108227690D01*
X142224999Y-108124986D01*
X142225000Y-108124973D01*
X142225000Y-108024986D01*
X142575001Y-108024986D01*
X142585494Y-108127697D01*
X142640641Y-108294119D01*
X142640643Y-108294124D01*
X142732684Y-108443345D01*
X142856654Y-108567315D01*
X143005875Y-108659356D01*
X143005880Y-108659358D01*
X143172302Y-108714505D01*
X143172309Y-108714506D01*
X143275019Y-108724999D01*
X143549999Y-108724999D01*
X143550000Y-108724998D01*
X143550000Y-107887500D01*
X142575001Y-107887500D01*
X142575001Y-108024986D01*
X142225000Y-108024986D01*
X142225000Y-107987500D01*
X141250000Y-107987500D01*
X141250000Y-108824999D01*
X140749999Y-108824999D01*
X140750000Y-108824998D01*
X140750000Y-107987500D01*
X139775001Y-107987500D01*
X139775001Y-108124986D01*
X123900000Y-108124986D01*
X123900000Y-103624000D01*
X123919685Y-103556961D01*
X123972489Y-103511206D01*
X124024000Y-103500000D01*
X132600000Y-103500000D01*
X132600000Y-101900000D01*
X123900000Y-101900000D01*
X123900000Y-103076000D01*
X123880315Y-103143039D01*
X123827511Y-103188794D01*
X123776000Y-103200000D01*
X123200000Y-103200000D01*
X123200000Y-106377809D01*
X123180315Y-106444848D01*
X123127511Y-106490603D01*
X123062750Y-106501099D01*
X123052293Y-106499975D01*
X123047873Y-106499500D01*
X123047871Y-106499500D01*
X121952129Y-106499500D01*
X121952123Y-106499501D01*
X121892516Y-106505908D01*
X121757671Y-106556202D01*
X121757664Y-106556206D01*
X121642455Y-106642452D01*
X121642452Y-106642455D01*
X121556206Y-106757664D01*
X121556202Y-106757671D01*
X121505908Y-106892517D01*
X121499501Y-106952116D01*
X121499500Y-106952135D01*
X121499500Y-107847870D01*
X121499501Y-107847876D01*
X121505908Y-107907483D01*
X121556202Y-108042328D01*
X121556206Y-108042335D01*
X121642452Y-108157544D01*
X121642455Y-108157547D01*
X121757664Y-108243793D01*
X121757671Y-108243797D01*
X121892517Y-108294091D01*
X121892516Y-108294091D01*
X121899444Y-108294835D01*
X121952127Y-108300500D01*
X123047872Y-108300499D01*
X123062746Y-108298900D01*
X123131505Y-108311306D01*
X123182642Y-108358917D01*
X123200000Y-108422190D01*
X123200000Y-109527809D01*
X123180315Y-109594848D01*
X123127511Y-109640603D01*
X123062750Y-109651099D01*
X123052293Y-109649975D01*
X123047873Y-109649500D01*
X123047871Y-109649500D01*
X121952129Y-109649500D01*
X121952123Y-109649501D01*
X121892516Y-109655908D01*
X121757671Y-109706202D01*
X121757664Y-109706206D01*
X121642455Y-109792452D01*
X121642452Y-109792455D01*
X121556206Y-109907664D01*
X121556202Y-109907671D01*
X121505908Y-110042517D01*
X121499501Y-110102116D01*
X121499500Y-110102135D01*
X121499500Y-112997870D01*
X121499501Y-112997876D01*
X121505908Y-113057483D01*
X121533764Y-113132167D01*
X121538748Y-113201859D01*
X121505263Y-113263182D01*
X121443939Y-113296666D01*
X121417582Y-113299500D01*
X102304761Y-113299500D01*
X102237722Y-113279815D01*
X102191967Y-113227011D01*
X102182023Y-113157853D01*
X102211048Y-113094297D01*
X102217080Y-113087819D01*
X102367857Y-112937041D01*
X102497386Y-112758760D01*
X102597432Y-112562410D01*
X102665526Y-112352838D01*
X102665526Y-112352835D01*
X102677855Y-112275000D01*
X101883012Y-112275000D01*
X101915925Y-112217993D01*
X101950000Y-112090826D01*
X101950000Y-111959174D01*
X101915925Y-111832007D01*
X101883012Y-111775000D01*
X102677855Y-111775000D01*
X102665526Y-111697164D01*
X102665526Y-111697161D01*
X102597432Y-111487589D01*
X102497386Y-111291239D01*
X102367857Y-111112958D01*
X102212041Y-110957142D01*
X102033760Y-110827613D01*
X101837410Y-110727567D01*
X101627835Y-110659473D01*
X101410181Y-110625000D01*
X100450000Y-110625000D01*
X100450000Y-111525000D01*
X99950000Y-111525000D01*
X99950000Y-110625000D01*
X98989819Y-110625000D01*
X98772164Y-110659473D01*
X98562589Y-110727567D01*
X98366239Y-110827613D01*
X98187958Y-110957142D01*
X98032142Y-111112958D01*
X97902613Y-111291239D01*
X97802567Y-111487589D01*
X97734473Y-111697161D01*
X97734473Y-111697164D01*
X97722145Y-111775000D01*
X98516988Y-111775000D01*
X98484075Y-111832007D01*
X98450000Y-111959174D01*
X98450000Y-112090826D01*
X98484075Y-112217993D01*
X98516988Y-112275000D01*
X97722145Y-112275000D01*
X97734473Y-112352835D01*
X97734473Y-112352838D01*
X97802567Y-112562410D01*
X97902613Y-112758760D01*
X98032142Y-112937041D01*
X98182920Y-113087819D01*
X98216405Y-113149142D01*
X98211421Y-113218834D01*
X98169549Y-113274767D01*
X98104085Y-113299184D01*
X98095239Y-113299500D01*
X89324500Y-113299500D01*
X89257461Y-113279815D01*
X89211706Y-113227011D01*
X89200500Y-113175500D01*
X89200500Y-105914818D01*
X95850000Y-105914818D01*
X95850000Y-106875000D01*
X96750000Y-106875000D01*
X96750000Y-107375000D01*
X95850000Y-107375000D01*
X95850000Y-108335181D01*
X95884473Y-108552835D01*
X95952567Y-108762410D01*
X96052613Y-108958760D01*
X96182142Y-109137041D01*
X96337958Y-109292857D01*
X96516239Y-109422386D01*
X96712589Y-109522432D01*
X96922163Y-109590526D01*
X96999999Y-109602854D01*
X97000000Y-109602854D01*
X97000000Y-108808012D01*
X97057007Y-108840925D01*
X97184174Y-108875000D01*
X97315826Y-108875000D01*
X97442993Y-108840925D01*
X97500000Y-108808012D01*
X97500000Y-109602854D01*
X97577834Y-109590526D01*
X97577837Y-109590526D01*
X97787410Y-109522432D01*
X97983760Y-109422386D01*
X98162041Y-109292857D01*
X98317857Y-109137041D01*
X98447386Y-108958760D01*
X98547432Y-108762410D01*
X98615526Y-108552835D01*
X98650000Y-108335181D01*
X98650000Y-107375000D01*
X97750000Y-107375000D01*
X97750000Y-106875000D01*
X98650000Y-106875000D01*
X98650000Y-105914818D01*
X98649994Y-105914778D01*
X101849500Y-105914778D01*
X101849500Y-108335222D01*
X101851675Y-108348954D01*
X101883985Y-108552952D01*
X101952103Y-108762603D01*
X101952104Y-108762606D01*
X101996331Y-108849404D01*
X102044752Y-108944435D01*
X102052187Y-108959025D01*
X102181752Y-109137358D01*
X102181756Y-109137363D01*
X102337636Y-109293243D01*
X102337641Y-109293247D01*
X102465210Y-109385930D01*
X102515978Y-109422815D01*
X102633037Y-109482460D01*
X102712393Y-109522895D01*
X102712396Y-109522896D01*
X102807724Y-109553869D01*
X102922049Y-109591015D01*
X103139778Y-109625500D01*
X103139779Y-109625500D01*
X103360221Y-109625500D01*
X103360222Y-109625500D01*
X103577951Y-109591015D01*
X103787606Y-109522895D01*
X103984022Y-109422815D01*
X104162365Y-109293242D01*
X104318242Y-109137365D01*
X104380543Y-109051613D01*
X104435872Y-109008949D01*
X104480861Y-109000500D01*
X104534218Y-109000500D01*
X104601257Y-109020185D01*
X104621898Y-109036818D01*
X106112219Y-110527140D01*
X106145681Y-110549498D01*
X106145683Y-110549500D01*
X106145684Y-110549500D01*
X106276082Y-110636630D01*
X106276084Y-110636630D01*
X106276086Y-110636632D01*
X106401052Y-110688394D01*
X106458164Y-110712051D01*
X106554812Y-110731275D01*
X106603135Y-110740887D01*
X106651458Y-110750500D01*
X106651459Y-110750500D01*
X106651460Y-110750500D01*
X106848540Y-110750500D01*
X106906921Y-110750500D01*
X106973960Y-110770185D01*
X107019715Y-110822989D01*
X107029659Y-110892147D01*
X107011915Y-110940472D01*
X106974211Y-111000476D01*
X106914631Y-111170745D01*
X106914630Y-111170750D01*
X106899500Y-111305039D01*
X106899500Y-112294960D01*
X106914630Y-112429249D01*
X106914631Y-112429254D01*
X106974211Y-112599523D01*
X107061835Y-112738975D01*
X107070184Y-112752262D01*
X107197738Y-112879816D01*
X107197740Y-112879817D01*
X107340763Y-112969685D01*
X107350478Y-112975789D01*
X107483939Y-113022489D01*
X107520745Y-113035368D01*
X107520750Y-113035369D01*
X107611246Y-113045565D01*
X107655040Y-113050499D01*
X107655043Y-113050500D01*
X107655046Y-113050500D01*
X108344957Y-113050500D01*
X108344958Y-113050499D01*
X108412104Y-113042934D01*
X108479249Y-113035369D01*
X108479252Y-113035368D01*
X108479255Y-113035368D01*
X108649522Y-112975789D01*
X108802262Y-112879816D01*
X108929816Y-112752262D01*
X109025789Y-112599522D01*
X109085368Y-112429255D01*
X109085837Y-112425099D01*
X109100499Y-112294960D01*
X109100500Y-112294956D01*
X109100500Y-111305043D01*
X109100499Y-111305039D01*
X109085369Y-111170750D01*
X109085368Y-111170745D01*
X109061988Y-111103929D01*
X109025789Y-111000478D01*
X108929816Y-110847738D01*
X108802262Y-110720184D01*
X108669290Y-110636632D01*
X108649521Y-110624210D01*
X108569989Y-110596381D01*
X108513212Y-110555659D01*
X108487465Y-110490706D01*
X108500921Y-110422145D01*
X108523266Y-110391654D01*
X108527139Y-110387782D01*
X108551193Y-110351781D01*
X108558444Y-110342005D01*
X108585909Y-110308539D01*
X108585912Y-110308535D01*
X108604490Y-110273775D01*
X108606320Y-110270351D01*
X108612560Y-110259938D01*
X108636632Y-110223914D01*
X108653202Y-110183906D01*
X108658399Y-110172918D01*
X108678814Y-110134727D01*
X108691386Y-110093280D01*
X108695476Y-110081847D01*
X108712051Y-110041835D01*
X108720500Y-109999353D01*
X108723450Y-109987580D01*
X108736024Y-109946132D01*
X108740268Y-109903037D01*
X108742054Y-109890999D01*
X108750500Y-109848541D01*
X108750500Y-109805244D01*
X108751097Y-109793090D01*
X108751160Y-109792452D01*
X108755341Y-109750000D01*
X108751097Y-109706907D01*
X108750500Y-109694754D01*
X108750500Y-109651458D01*
X108745336Y-109625500D01*
X108742052Y-109608990D01*
X108740268Y-109596961D01*
X108739682Y-109591015D01*
X108736024Y-109553868D01*
X108723448Y-109512414D01*
X108720499Y-109500640D01*
X108712051Y-109458165D01*
X108695480Y-109418160D01*
X108691382Y-109406706D01*
X108685080Y-109385930D01*
X108678814Y-109365273D01*
X108658404Y-109327091D01*
X108653201Y-109316090D01*
X108636632Y-109276086D01*
X108612572Y-109240078D01*
X108606316Y-109229640D01*
X108585911Y-109191464D01*
X108585910Y-109191462D01*
X108558438Y-109157988D01*
X108551194Y-109148219D01*
X108543376Y-109136519D01*
X108527139Y-109112218D01*
X108527136Y-109112214D01*
X108496520Y-109081599D01*
X108488346Y-109072581D01*
X108460884Y-109039118D01*
X108427416Y-109011651D01*
X108418401Y-109003479D01*
X108387787Y-108972865D01*
X108387782Y-108972861D01*
X108378738Y-108966818D01*
X108333933Y-108913206D01*
X108325226Y-108843881D01*
X108355380Y-108780854D01*
X108414823Y-108744134D01*
X108433746Y-108740496D01*
X108479249Y-108735369D01*
X108479252Y-108735368D01*
X108479255Y-108735368D01*
X108649522Y-108675789D01*
X108802262Y-108579816D01*
X108929816Y-108452262D01*
X109025789Y-108299522D01*
X109085368Y-108129255D01*
X109085545Y-108127690D01*
X109100499Y-107994960D01*
X109100500Y-107994956D01*
X109100500Y-107384452D01*
X109120185Y-107317413D01*
X109172989Y-107271658D01*
X109242147Y-107261714D01*
X109305703Y-107290739D01*
X109312181Y-107296771D01*
X109363181Y-107347771D01*
X109396666Y-107409094D01*
X109399500Y-107435452D01*
X109399500Y-107994960D01*
X109414630Y-108129249D01*
X109414631Y-108129254D01*
X109474211Y-108299523D01*
X109505271Y-108348954D01*
X109570184Y-108452262D01*
X109697738Y-108579816D01*
X109816473Y-108654422D01*
X109862763Y-108706756D01*
X109874500Y-108759415D01*
X109874500Y-110540585D01*
X109854815Y-110607624D01*
X109816473Y-110645577D01*
X109794359Y-110659473D01*
X109697737Y-110720184D01*
X109570184Y-110847737D01*
X109474211Y-111000476D01*
X109414631Y-111170745D01*
X109414630Y-111170750D01*
X109399500Y-111305039D01*
X109399500Y-112294960D01*
X109414630Y-112429249D01*
X109414631Y-112429254D01*
X109474211Y-112599523D01*
X109561835Y-112738975D01*
X109570184Y-112752262D01*
X109697738Y-112879816D01*
X109697740Y-112879817D01*
X109840763Y-112969685D01*
X109850478Y-112975789D01*
X109983939Y-113022489D01*
X110020745Y-113035368D01*
X110020750Y-113035369D01*
X110111246Y-113045565D01*
X110155040Y-113050499D01*
X110155043Y-113050500D01*
X110155046Y-113050500D01*
X110844957Y-113050500D01*
X110844958Y-113050499D01*
X110912104Y-113042934D01*
X110979249Y-113035369D01*
X110979252Y-113035368D01*
X110979255Y-113035368D01*
X111149522Y-112975789D01*
X111302262Y-112879816D01*
X111386731Y-112795346D01*
X111448050Y-112761864D01*
X111515364Y-112765989D01*
X111570748Y-112785369D01*
X111749996Y-112805565D01*
X111750000Y-112805565D01*
X111750004Y-112805565D01*
X111929249Y-112785369D01*
X111929250Y-112785368D01*
X111929255Y-112785368D01*
X111984635Y-112765988D01*
X112054413Y-112762426D01*
X112113271Y-112795349D01*
X112197738Y-112879816D01*
X112197740Y-112879817D01*
X112340763Y-112969685D01*
X112350478Y-112975789D01*
X112483939Y-113022489D01*
X112520745Y-113035368D01*
X112520750Y-113035369D01*
X112611246Y-113045565D01*
X112655040Y-113050499D01*
X112655043Y-113050500D01*
X112655046Y-113050500D01*
X113344957Y-113050500D01*
X113344958Y-113050499D01*
X113412104Y-113042934D01*
X113479249Y-113035369D01*
X113479252Y-113035368D01*
X113479255Y-113035368D01*
X113649522Y-112975789D01*
X113802262Y-112879816D01*
X113929816Y-112752262D01*
X114025789Y-112599522D01*
X114085368Y-112429255D01*
X114085837Y-112425099D01*
X114100499Y-112294960D01*
X114100500Y-112294956D01*
X114100500Y-111305043D01*
X114100499Y-111305039D01*
X114085369Y-111170750D01*
X114085368Y-111170745D01*
X114061988Y-111103929D01*
X114025789Y-111000478D01*
X113929816Y-110847738D01*
X113802262Y-110720184D01*
X113683526Y-110645577D01*
X113637237Y-110593244D01*
X113625500Y-110540585D01*
X113625500Y-108759415D01*
X113645185Y-108692376D01*
X113683526Y-108654422D01*
X113802262Y-108579816D01*
X113929816Y-108452262D01*
X114025789Y-108299522D01*
X114085368Y-108129255D01*
X114085545Y-108127690D01*
X114100499Y-107994960D01*
X114100500Y-107994956D01*
X114100500Y-107835451D01*
X114120185Y-107768412D01*
X114136815Y-107747774D01*
X114308379Y-107576209D01*
X114369700Y-107542726D01*
X114382156Y-107540674D01*
X114429255Y-107535368D01*
X114599522Y-107475789D01*
X114752262Y-107379816D01*
X114879816Y-107252262D01*
X114975789Y-107099522D01*
X115035368Y-106929255D01*
X115035621Y-106927011D01*
X115055565Y-106750003D01*
X115055565Y-106749996D01*
X115035369Y-106570750D01*
X115035368Y-106570745D01*
X115030279Y-106556202D01*
X114975789Y-106400478D01*
X114879816Y-106247738D01*
X114752262Y-106120184D01*
X114718774Y-106099142D01*
X114599523Y-106024211D01*
X114429254Y-105964631D01*
X114429249Y-105964630D01*
X114250004Y-105944435D01*
X114249996Y-105944435D01*
X114070750Y-105964630D01*
X114070745Y-105964631D01*
X113900476Y-106024211D01*
X113747739Y-106120183D01*
X113626232Y-106241690D01*
X113564909Y-106275174D01*
X113497595Y-106271049D01*
X113479259Y-106264632D01*
X113479249Y-106264630D01*
X113344960Y-106249500D01*
X113344954Y-106249500D01*
X112655046Y-106249500D01*
X112655039Y-106249500D01*
X112520750Y-106264630D01*
X112520737Y-106264633D01*
X112410593Y-106303175D01*
X112340814Y-106306737D01*
X112280187Y-106272009D01*
X112252596Y-106227088D01*
X112225789Y-106150478D01*
X112162655Y-106050001D01*
X112129816Y-105997738D01*
X112002262Y-105870184D01*
X111973397Y-105852047D01*
X111849523Y-105774211D01*
X111679254Y-105714631D01*
X111679249Y-105714630D01*
X111500004Y-105694435D01*
X111499996Y-105694435D01*
X111320750Y-105714630D01*
X111320745Y-105714631D01*
X111150476Y-105774211D01*
X110997731Y-105870188D01*
X110996035Y-105871541D01*
X110994733Y-105872072D01*
X110991842Y-105873889D01*
X110991523Y-105873382D01*
X110931346Y-105897945D01*
X110862652Y-105885183D01*
X110831049Y-105862269D01*
X110530443Y-105561663D01*
X110496958Y-105500340D01*
X110501942Y-105430648D01*
X110543814Y-105374715D01*
X110579117Y-105356277D01*
X110719334Y-105309814D01*
X110868656Y-105217712D01*
X110992712Y-105093656D01*
X111084814Y-104944334D01*
X111139999Y-104777797D01*
X111144177Y-104736896D01*
X111170573Y-104672207D01*
X111227753Y-104632055D01*
X111267535Y-104625500D01*
X111811607Y-104625500D01*
X111872029Y-104613481D01*
X111932452Y-104601463D01*
X111932455Y-104601461D01*
X111932458Y-104601461D01*
X111965787Y-104587654D01*
X111965786Y-104587654D01*
X111965792Y-104587652D01*
X112046286Y-104554312D01*
X112097509Y-104520084D01*
X112132961Y-104496395D01*
X112199638Y-104475519D01*
X112201851Y-104475499D01*
X112586670Y-104475499D01*
X112586676Y-104475499D01*
X112687753Y-104465174D01*
X112851516Y-104410908D01*
X112998350Y-104320340D01*
X113037673Y-104281016D01*
X113098994Y-104247532D01*
X113168685Y-104252516D01*
X113213034Y-104281017D01*
X113251961Y-104319944D01*
X113251965Y-104319947D01*
X113398688Y-104410448D01*
X113398699Y-104410453D01*
X113562347Y-104464680D01*
X113663351Y-104474999D01*
X114250000Y-104474999D01*
X114336640Y-104474999D01*
X114336654Y-104474998D01*
X114437652Y-104464680D01*
X114601300Y-104410453D01*
X114601311Y-104410448D01*
X114748034Y-104319947D01*
X114748038Y-104319944D01*
X114869944Y-104198038D01*
X114869947Y-104198034D01*
X114960448Y-104051311D01*
X114960453Y-104051300D01*
X115014680Y-103887652D01*
X115024999Y-103786654D01*
X115025000Y-103786641D01*
X115025000Y-103750000D01*
X114250000Y-103750000D01*
X114250000Y-104474999D01*
X113663351Y-104474999D01*
X113750000Y-104474998D01*
X113750000Y-103250000D01*
X114250000Y-103250000D01*
X115024999Y-103250000D01*
X115024999Y-103213360D01*
X115024998Y-103213345D01*
X115014680Y-103112347D01*
X114960453Y-102948699D01*
X114960448Y-102948688D01*
X114869947Y-102801965D01*
X114869944Y-102801961D01*
X114748038Y-102680055D01*
X114748034Y-102680052D01*
X114601311Y-102589551D01*
X114601300Y-102589546D01*
X114437652Y-102535319D01*
X114336654Y-102525000D01*
X114250000Y-102525000D01*
X114250000Y-103250000D01*
X113750000Y-103250000D01*
X113750000Y-102525000D01*
X113749999Y-102524999D01*
X113663360Y-102525000D01*
X113663343Y-102525001D01*
X113562347Y-102535319D01*
X113398699Y-102589546D01*
X113398688Y-102589551D01*
X113251965Y-102680052D01*
X113251961Y-102680055D01*
X113213033Y-102718983D01*
X113151710Y-102752468D01*
X113082018Y-102747482D01*
X113037672Y-102718982D01*
X112998351Y-102679661D01*
X112998350Y-102679660D01*
X112907129Y-102623395D01*
X112851518Y-102589093D01*
X112851513Y-102589091D01*
X112848767Y-102588181D01*
X112687753Y-102534826D01*
X112687751Y-102534825D01*
X112586678Y-102524500D01*
X111913330Y-102524500D01*
X111913312Y-102524501D01*
X111812247Y-102534825D01*
X111648484Y-102589092D01*
X111648481Y-102589093D01*
X111501648Y-102679661D01*
X111379661Y-102801648D01*
X111289093Y-102948481D01*
X111289091Y-102948486D01*
X111278241Y-102981231D01*
X111238468Y-103038676D01*
X111173952Y-103065499D01*
X111105176Y-103053184D01*
X111054996Y-103007323D01*
X110992712Y-102906344D01*
X110868657Y-102782289D01*
X110868656Y-102782288D01*
X110757301Y-102713604D01*
X110719336Y-102690187D01*
X110719331Y-102690185D01*
X110711497Y-102687589D01*
X110552797Y-102635001D01*
X110552795Y-102635000D01*
X110450010Y-102624500D01*
X109549998Y-102624500D01*
X109549980Y-102624501D01*
X109447203Y-102635000D01*
X109447200Y-102635001D01*
X109321489Y-102676658D01*
X109288503Y-102687589D01*
X109218676Y-102689991D01*
X109158634Y-102654259D01*
X109127441Y-102591739D01*
X109125500Y-102569883D01*
X109125500Y-102438394D01*
X109122319Y-102422402D01*
X109117124Y-102396286D01*
X109109401Y-102357460D01*
X109106587Y-102343310D01*
X109101463Y-102317549D01*
X109091747Y-102294094D01*
X109091747Y-102294092D01*
X109070914Y-102243796D01*
X109054312Y-102203715D01*
X109054310Y-102203712D01*
X109054308Y-102203708D01*
X109023464Y-102157549D01*
X109023463Y-102157547D01*
X108985856Y-102101264D01*
X108895637Y-102011045D01*
X108895606Y-102011016D01*
X107911819Y-101027229D01*
X107878334Y-100965906D01*
X107875500Y-100939548D01*
X107875500Y-99377215D01*
X107895185Y-99310176D01*
X107947989Y-99264421D01*
X108017147Y-99254477D01*
X108056514Y-99268548D01*
X108056765Y-99267993D01*
X108063599Y-99271068D01*
X108217207Y-99318934D01*
X108283957Y-99325000D01*
X109116041Y-99325000D01*
X109166830Y-99320383D01*
X116533168Y-99320383D01*
X116583958Y-99325000D01*
X117416041Y-99325000D01*
X117466830Y-99320383D01*
X117000001Y-98853553D01*
X117000000Y-98853553D01*
X116533168Y-99320383D01*
X109166830Y-99320383D01*
X108434128Y-98587681D01*
X108400643Y-98526358D01*
X108402528Y-98499999D01*
X109053553Y-98499999D01*
X109053553Y-98500000D01*
X109602829Y-99049277D01*
X109602830Y-99049276D01*
X109671068Y-98936401D01*
X109671069Y-98936397D01*
X109718934Y-98782792D01*
X109725000Y-98716043D01*
X109725000Y-98283956D01*
X115975000Y-98283956D01*
X115975000Y-98716043D01*
X115981065Y-98782792D01*
X116028929Y-98936396D01*
X116097168Y-99049277D01*
X116097169Y-99049277D01*
X116646447Y-98500000D01*
X116646446Y-98499999D01*
X117353553Y-98499999D01*
X117353553Y-98500000D01*
X117902829Y-99049277D01*
X117902830Y-99049276D01*
X117971068Y-98936401D01*
X117971069Y-98936397D01*
X118018934Y-98782792D01*
X118025000Y-98716043D01*
X118025000Y-98283956D01*
X118018934Y-98217207D01*
X117971069Y-98063602D01*
X117971068Y-98063598D01*
X117902830Y-97950722D01*
X117353553Y-98499999D01*
X116646446Y-98499999D01*
X116097168Y-97950721D01*
X116028929Y-98063603D01*
X115981065Y-98217207D01*
X115975000Y-98283956D01*
X109725000Y-98283956D01*
X109718934Y-98217207D01*
X109671069Y-98063602D01*
X109671068Y-98063598D01*
X109602830Y-97950722D01*
X109053553Y-98499999D01*
X108402528Y-98499999D01*
X108405627Y-98456666D01*
X108434128Y-98412319D01*
X108700000Y-98146447D01*
X109166831Y-97679615D01*
X116533167Y-97679615D01*
X117000000Y-98146447D01*
X117000001Y-98146447D01*
X117466831Y-97679615D01*
X117416043Y-97675000D01*
X116583957Y-97675000D01*
X116533168Y-97679615D01*
X116533167Y-97679615D01*
X109166831Y-97679615D01*
X109116043Y-97675000D01*
X108283957Y-97675000D01*
X108217207Y-97681065D01*
X108063599Y-97728931D01*
X108056765Y-97732007D01*
X108056247Y-97730856D01*
X107996086Y-97746737D01*
X107929614Y-97725214D01*
X107885330Y-97671171D01*
X107875500Y-97622784D01*
X107875500Y-95980816D01*
X107895185Y-95913777D01*
X107947989Y-95868022D01*
X108017147Y-95858078D01*
X108040455Y-95863775D01*
X108130737Y-95895366D01*
X108130743Y-95895367D01*
X108130745Y-95895368D01*
X108130746Y-95895368D01*
X108130750Y-95895369D01*
X108309996Y-95915565D01*
X108310000Y-95915565D01*
X108310004Y-95915565D01*
X108489249Y-95895369D01*
X108489252Y-95895368D01*
X108489255Y-95895368D01*
X108659522Y-95835789D01*
X108812262Y-95739816D01*
X108939816Y-95612262D01*
X109035789Y-95459522D01*
X109095368Y-95289255D01*
X109102917Y-95222262D01*
X109114630Y-95118301D01*
X109141696Y-95053887D01*
X109199291Y-95014332D01*
X109200960Y-95013799D01*
X109313015Y-94978881D01*
X109336602Y-94971531D01*
X109474388Y-94888236D01*
X109474392Y-94888232D01*
X109500806Y-94861819D01*
X109562129Y-94828334D01*
X109588487Y-94825500D01*
X116111513Y-94825500D01*
X116178552Y-94845185D01*
X116199194Y-94861819D01*
X116225608Y-94888233D01*
X116225610Y-94888234D01*
X116225612Y-94888236D01*
X116363398Y-94971531D01*
X116517113Y-95019430D01*
X116583909Y-95025500D01*
X117416090Y-95025499D01*
X117416097Y-95025499D01*
X117482882Y-95019431D01*
X117482885Y-95019430D01*
X117482887Y-95019430D01*
X117636602Y-94971531D01*
X117774388Y-94888236D01*
X117888236Y-94774388D01*
X117971531Y-94636602D01*
X118019430Y-94482887D01*
X118025500Y-94416091D01*
X118025499Y-93983910D01*
X118025499Y-93983901D01*
X118019431Y-93917117D01*
X118019428Y-93917106D01*
X117971532Y-93763401D01*
X117971531Y-93763400D01*
X117971531Y-93763398D01*
X117888236Y-93625612D01*
X117888234Y-93625610D01*
X117888233Y-93625608D01*
X117774391Y-93511766D01*
X117636602Y-93428469D01*
X117605114Y-93418657D01*
X117482887Y-93380570D01*
X117482885Y-93380569D01*
X117482883Y-93380569D01*
X117436117Y-93376319D01*
X117416091Y-93374500D01*
X117416088Y-93374500D01*
X116583901Y-93374500D01*
X116517117Y-93380568D01*
X116517106Y-93380571D01*
X116363401Y-93428467D01*
X116225608Y-93511766D01*
X116225607Y-93511767D01*
X116199194Y-93538181D01*
X116137871Y-93571666D01*
X116111513Y-93574500D01*
X109588487Y-93574500D01*
X109521448Y-93554815D01*
X109500806Y-93538181D01*
X109474391Y-93511766D01*
X109336602Y-93428469D01*
X109305114Y-93418657D01*
X109182887Y-93380570D01*
X109182885Y-93380569D01*
X109182883Y-93380569D01*
X109136117Y-93376319D01*
X109116091Y-93374500D01*
X109116088Y-93374500D01*
X108283901Y-93374500D01*
X108217117Y-93380568D01*
X108217106Y-93380571D01*
X108063401Y-93428467D01*
X107925608Y-93511766D01*
X107811767Y-93625607D01*
X107811764Y-93625611D01*
X107752629Y-93723432D01*
X107701101Y-93770619D01*
X107632242Y-93782457D01*
X107605558Y-93776323D01*
X107429254Y-93714631D01*
X107429249Y-93714630D01*
X107250004Y-93694435D01*
X107249996Y-93694435D01*
X107070750Y-93714630D01*
X107070745Y-93714631D01*
X106900476Y-93774211D01*
X106747737Y-93870184D01*
X106620184Y-93997737D01*
X106524211Y-94150476D01*
X106464631Y-94320745D01*
X106464630Y-94320750D01*
X106444435Y-94499996D01*
X106444435Y-94500003D01*
X106464630Y-94679249D01*
X106464631Y-94679254D01*
X106524211Y-94849524D01*
X106555460Y-94899255D01*
X106600874Y-94971531D01*
X106605493Y-94978881D01*
X106624500Y-95044854D01*
X106624500Y-101311606D01*
X106644607Y-101412696D01*
X106648013Y-101429815D01*
X106648537Y-101432450D01*
X106695688Y-101546287D01*
X106721803Y-101585368D01*
X106721804Y-101585370D01*
X106764141Y-101648733D01*
X106855586Y-101740178D01*
X106855608Y-101740198D01*
X107537812Y-102422402D01*
X107571297Y-102483725D01*
X107566313Y-102553417D01*
X107524441Y-102609350D01*
X107458977Y-102633767D01*
X107437529Y-102633441D01*
X107350018Y-102624500D01*
X106460452Y-102624500D01*
X106393413Y-102604815D01*
X106372771Y-102588181D01*
X105661819Y-101877229D01*
X105628334Y-101815906D01*
X105625500Y-101789548D01*
X105625500Y-93817534D01*
X105645185Y-93750495D01*
X105697989Y-93704740D01*
X105736897Y-93694176D01*
X105777797Y-93689999D01*
X105944334Y-93634814D01*
X106093656Y-93542712D01*
X106217712Y-93418656D01*
X106309814Y-93269334D01*
X106364999Y-93102797D01*
X106375500Y-93000009D01*
X106375499Y-92099992D01*
X106373259Y-92078067D01*
X106364999Y-91997203D01*
X106364998Y-91997200D01*
X106348408Y-91947136D01*
X106309814Y-91830666D01*
X106217712Y-91681344D01*
X106093656Y-91557288D01*
X105944334Y-91465186D01*
X105777797Y-91410001D01*
X105777795Y-91410000D01*
X105675010Y-91399500D01*
X104324998Y-91399500D01*
X104324981Y-91399501D01*
X104222203Y-91410000D01*
X104222200Y-91410001D01*
X104055668Y-91465185D01*
X104055663Y-91465187D01*
X103906342Y-91557289D01*
X103782289Y-91681342D01*
X103690187Y-91830663D01*
X103690186Y-91830666D01*
X103635001Y-91997203D01*
X103635001Y-91997204D01*
X103635000Y-91997204D01*
X103624500Y-92099983D01*
X103624500Y-93000001D01*
X103624501Y-93000019D01*
X103635000Y-93102796D01*
X103635001Y-93102799D01*
X103642358Y-93125000D01*
X103690186Y-93269334D01*
X103782288Y-93418656D01*
X103906344Y-93542712D01*
X104055666Y-93634814D01*
X104222203Y-93689999D01*
X104263103Y-93694177D01*
X104327793Y-93720573D01*
X104367945Y-93777753D01*
X104374500Y-93817534D01*
X104374500Y-102038393D01*
X104374500Y-102161607D01*
X104374500Y-102161609D01*
X104374499Y-102161609D01*
X104382875Y-102203712D01*
X104382875Y-102203714D01*
X104398535Y-102282445D01*
X104398536Y-102282449D01*
X104398537Y-102282452D01*
X104406011Y-102300496D01*
X104406012Y-102300501D01*
X104406013Y-102300501D01*
X104445688Y-102396286D01*
X104473823Y-102438391D01*
X104473824Y-102438394D01*
X104514138Y-102498728D01*
X104514144Y-102498736D01*
X104605586Y-102590178D01*
X104605608Y-102590198D01*
X105713181Y-103697771D01*
X105746666Y-103759094D01*
X105749500Y-103785452D01*
X105749500Y-104675001D01*
X105749501Y-104675019D01*
X105760000Y-104777796D01*
X105760001Y-104777799D01*
X105791915Y-104874107D01*
X105815186Y-104944334D01*
X105907288Y-105093656D01*
X106031344Y-105217712D01*
X106180666Y-105309814D01*
X106347203Y-105364999D01*
X106449991Y-105375500D01*
X107339546Y-105375499D01*
X107406585Y-105395183D01*
X107427227Y-105411818D01*
X108053228Y-106037819D01*
X108086713Y-106099142D01*
X108081729Y-106168834D01*
X108039857Y-106224767D01*
X107974393Y-106249184D01*
X107965547Y-106249500D01*
X107655039Y-106249500D01*
X107520750Y-106264630D01*
X107520745Y-106264631D01*
X107350476Y-106324211D01*
X107197737Y-106420184D01*
X107070184Y-106547737D01*
X106974211Y-106700476D01*
X106914631Y-106870745D01*
X106914630Y-106870750D01*
X106899500Y-107005039D01*
X106899500Y-107994960D01*
X106914630Y-108129249D01*
X106914633Y-108129262D01*
X106934599Y-108186320D01*
X106938161Y-108256099D01*
X106903433Y-108316726D01*
X106841439Y-108348954D01*
X106771864Y-108342549D01*
X106729877Y-108314956D01*
X105784209Y-107369289D01*
X105784206Y-107369285D01*
X105784206Y-107369286D01*
X105777139Y-107362219D01*
X105777139Y-107362218D01*
X105637782Y-107222861D01*
X105637781Y-107222860D01*
X105637780Y-107222859D01*
X105473920Y-107113371D01*
X105473911Y-107113366D01*
X105390683Y-107078892D01*
X105345165Y-107060038D01*
X105318500Y-107048993D01*
X105291837Y-107037949D01*
X105291833Y-107037947D01*
X105126422Y-107005046D01*
X105126421Y-107005045D01*
X105112481Y-107002273D01*
X105098542Y-106999500D01*
X105098541Y-106999500D01*
X104774500Y-106999500D01*
X104707461Y-106979815D01*
X104661706Y-106927011D01*
X104650500Y-106875500D01*
X104650500Y-105914778D01*
X104643652Y-105871541D01*
X104616015Y-105697049D01*
X104572026Y-105561663D01*
X104547896Y-105487396D01*
X104547895Y-105487393D01*
X104503365Y-105400000D01*
X104447815Y-105290978D01*
X104397403Y-105221591D01*
X104318247Y-105112641D01*
X104318243Y-105112636D01*
X104162363Y-104956756D01*
X104162358Y-104956752D01*
X103984025Y-104827187D01*
X103984024Y-104827186D01*
X103984022Y-104827185D01*
X103887088Y-104777794D01*
X103787606Y-104727104D01*
X103787603Y-104727103D01*
X103577952Y-104658985D01*
X103469086Y-104641742D01*
X103360222Y-104624500D01*
X103139778Y-104624500D01*
X103067201Y-104635995D01*
X102922047Y-104658985D01*
X102712396Y-104727103D01*
X102712393Y-104727104D01*
X102515974Y-104827187D01*
X102337641Y-104956752D01*
X102337636Y-104956756D01*
X102181756Y-105112636D01*
X102181752Y-105112641D01*
X102052187Y-105290974D01*
X101952104Y-105487393D01*
X101952103Y-105487396D01*
X101883985Y-105697047D01*
X101855976Y-105873889D01*
X101849500Y-105914778D01*
X98649994Y-105914778D01*
X98615526Y-105697164D01*
X98547432Y-105487589D01*
X98447386Y-105291239D01*
X98317857Y-105112958D01*
X98162041Y-104957142D01*
X97983760Y-104827613D01*
X97787410Y-104727567D01*
X97577836Y-104659473D01*
X97500000Y-104647144D01*
X97500000Y-105441988D01*
X97442993Y-105409075D01*
X97315826Y-105375000D01*
X97184174Y-105375000D01*
X97057007Y-105409075D01*
X97000000Y-105441988D01*
X97000000Y-104647144D01*
X96922164Y-104659473D01*
X96922161Y-104659473D01*
X96712589Y-104727567D01*
X96516239Y-104827613D01*
X96337958Y-104957142D01*
X96182142Y-105112958D01*
X96052613Y-105291239D01*
X95952567Y-105487589D01*
X95884473Y-105697164D01*
X95850000Y-105914818D01*
X89200500Y-105914818D01*
X89200500Y-99908543D01*
X92204499Y-99908543D01*
X92242947Y-100101829D01*
X92242950Y-100101839D01*
X92318364Y-100283907D01*
X92318371Y-100283920D01*
X92427860Y-100447781D01*
X92427863Y-100447785D01*
X92567214Y-100587136D01*
X92567218Y-100587139D01*
X92731079Y-100696628D01*
X92731092Y-100696635D01*
X92842686Y-100742858D01*
X92913165Y-100772051D01*
X92913169Y-100772051D01*
X92913170Y-100772052D01*
X93106456Y-100810500D01*
X93106459Y-100810500D01*
X94103543Y-100810500D01*
X94233582Y-100784632D01*
X94296835Y-100772051D01*
X94478914Y-100696632D01*
X94642782Y-100587139D01*
X94782139Y-100447782D01*
X94891632Y-100283914D01*
X94967051Y-100101835D01*
X94992181Y-99975500D01*
X95005500Y-99908543D01*
X95005500Y-99711456D01*
X94967052Y-99518170D01*
X94967051Y-99518169D01*
X94967051Y-99518165D01*
X94918169Y-99400152D01*
X94891635Y-99336092D01*
X94891628Y-99336079D01*
X94782139Y-99172218D01*
X94782136Y-99172214D01*
X94642785Y-99032863D01*
X94642781Y-99032860D01*
X94478920Y-98923371D01*
X94478907Y-98923364D01*
X94296839Y-98847950D01*
X94296829Y-98847947D01*
X94103543Y-98809500D01*
X94103541Y-98809500D01*
X93106459Y-98809500D01*
X93106457Y-98809500D01*
X92913170Y-98847947D01*
X92913160Y-98847950D01*
X92731092Y-98923364D01*
X92731079Y-98923371D01*
X92567218Y-99032860D01*
X92567214Y-99032863D01*
X92427863Y-99172214D01*
X92427860Y-99172218D01*
X92318371Y-99336079D01*
X92318364Y-99336092D01*
X92242950Y-99518160D01*
X92242947Y-99518170D01*
X92204500Y-99711456D01*
X92204500Y-99711459D01*
X92204500Y-99908541D01*
X92204500Y-99908543D01*
X92204499Y-99908543D01*
X89200500Y-99908543D01*
X89200500Y-94063343D01*
X96124500Y-94063343D01*
X96124500Y-96916605D01*
X96144024Y-97014764D01*
X96148537Y-97037450D01*
X96195688Y-97151285D01*
X96195689Y-97151287D01*
X96195690Y-97151288D01*
X96195691Y-97151291D01*
X96225356Y-97195685D01*
X96225357Y-97195688D01*
X96225358Y-97195688D01*
X96264140Y-97253730D01*
X96264141Y-97253731D01*
X96264142Y-97253732D01*
X96351267Y-97340857D01*
X96351268Y-97340857D01*
X96358335Y-97347924D01*
X96358334Y-97347924D01*
X96358338Y-97347927D01*
X96913794Y-97903383D01*
X96947279Y-97964706D01*
X96942295Y-98034398D01*
X96913800Y-98078739D01*
X96904508Y-98088031D01*
X96904504Y-98088037D01*
X96841905Y-98196463D01*
X96841905Y-98196464D01*
X96809500Y-98317399D01*
X96809500Y-98442601D01*
X96828801Y-98514632D01*
X96841905Y-98563536D01*
X96904504Y-98671962D01*
X96904506Y-98671965D01*
X96909044Y-98676503D01*
X96942529Y-98737826D01*
X96937545Y-98807518D01*
X96895673Y-98863451D01*
X96868815Y-98878745D01*
X96761092Y-98923364D01*
X96761079Y-98923371D01*
X96597218Y-99032860D01*
X96597214Y-99032863D01*
X96457863Y-99172214D01*
X96457860Y-99172218D01*
X96348371Y-99336079D01*
X96348364Y-99336092D01*
X96272950Y-99518160D01*
X96272947Y-99518170D01*
X96234500Y-99711456D01*
X96234500Y-99711459D01*
X96234500Y-99908541D01*
X96234500Y-99908543D01*
X96234499Y-99908543D01*
X96272947Y-100101829D01*
X96272950Y-100101839D01*
X96348364Y-100283907D01*
X96348371Y-100283920D01*
X96457860Y-100447781D01*
X96457863Y-100447785D01*
X96597214Y-100587136D01*
X96597218Y-100587139D01*
X96761079Y-100696628D01*
X96761092Y-100696635D01*
X96872686Y-100742858D01*
X96943165Y-100772051D01*
X96943169Y-100772051D01*
X96943170Y-100772052D01*
X97136456Y-100810500D01*
X97136459Y-100810500D01*
X98433543Y-100810500D01*
X98563582Y-100784632D01*
X98626835Y-100772051D01*
X98808914Y-100696632D01*
X98972782Y-100587139D01*
X99112139Y-100447782D01*
X99221632Y-100283914D01*
X99297051Y-100101835D01*
X99322181Y-99975500D01*
X99335500Y-99908543D01*
X99335500Y-99711456D01*
X99297052Y-99518170D01*
X99297051Y-99518169D01*
X99297051Y-99518165D01*
X99249389Y-99403099D01*
X99241921Y-99333633D01*
X99259180Y-99299154D01*
X101025001Y-99299154D01*
X101035319Y-99400152D01*
X101089546Y-99563800D01*
X101089551Y-99563811D01*
X101180052Y-99710534D01*
X101180055Y-99710538D01*
X101301961Y-99832444D01*
X101301965Y-99832447D01*
X101448688Y-99922948D01*
X101448699Y-99922953D01*
X101612347Y-99977180D01*
X101713352Y-99987499D01*
X101750000Y-99987499D01*
X102250000Y-99987499D01*
X102286640Y-99987499D01*
X102286654Y-99987498D01*
X102387652Y-99977180D01*
X102551300Y-99922953D01*
X102551311Y-99922948D01*
X102698034Y-99832447D01*
X102698038Y-99832444D01*
X102819944Y-99710538D01*
X102819947Y-99710534D01*
X102910448Y-99563811D01*
X102910453Y-99563800D01*
X102964680Y-99400152D01*
X102974999Y-99299154D01*
X102975000Y-99299141D01*
X102975000Y-99250000D01*
X102250000Y-99250000D01*
X102250000Y-99987499D01*
X101750000Y-99987499D01*
X101750000Y-99250000D01*
X101025001Y-99250000D01*
X101025001Y-99299154D01*
X99259180Y-99299154D01*
X99273196Y-99271153D01*
X99276271Y-99267966D01*
X99302683Y-99241553D01*
X99302686Y-99241550D01*
X99386281Y-99100198D01*
X99432100Y-98942486D01*
X99432295Y-98940001D01*
X99432295Y-98940000D01*
X98871091Y-98940000D01*
X98812632Y-98925355D01*
X98808193Y-98922982D01*
X98758351Y-98874017D01*
X98742894Y-98805879D01*
X98766730Y-98740200D01*
X98822289Y-98697834D01*
X98856922Y-98690009D01*
X98887569Y-98687598D01*
X98887571Y-98687597D01*
X98887573Y-98687597D01*
X98932652Y-98674500D01*
X99045398Y-98641744D01*
X99186865Y-98558081D01*
X99268628Y-98476317D01*
X99329949Y-98442834D01*
X99356308Y-98440000D01*
X99432295Y-98440000D01*
X99432295Y-98439998D01*
X99432100Y-98437508D01*
X99399555Y-98325491D01*
X99399555Y-98256302D01*
X99432598Y-98142569D01*
X99435500Y-98105694D01*
X99435500Y-97940700D01*
X99455185Y-97873661D01*
X99507989Y-97827906D01*
X99559500Y-97816700D01*
X101067801Y-97816700D01*
X101134840Y-97836385D01*
X101173339Y-97875603D01*
X101179657Y-97885846D01*
X101179660Y-97885850D01*
X101293982Y-98000172D01*
X101327467Y-98061495D01*
X101322483Y-98131187D01*
X101293983Y-98175534D01*
X101180052Y-98289465D01*
X101089551Y-98436188D01*
X101089546Y-98436199D01*
X101035319Y-98599847D01*
X101025000Y-98700845D01*
X101025000Y-98750000D01*
X102974999Y-98750000D01*
X102974999Y-98700860D01*
X102974998Y-98700845D01*
X102964680Y-98599847D01*
X102910453Y-98436199D01*
X102910448Y-98436188D01*
X102819947Y-98289465D01*
X102819944Y-98289461D01*
X102706017Y-98175534D01*
X102672532Y-98114211D01*
X102677516Y-98044519D01*
X102706013Y-98000176D01*
X102820340Y-97885850D01*
X102910908Y-97739016D01*
X102965174Y-97575253D01*
X102975500Y-97474177D01*
X102975499Y-96875824D01*
X102965174Y-96774747D01*
X102910908Y-96610984D01*
X102820340Y-96464150D01*
X102698350Y-96342160D01*
X102607129Y-96285895D01*
X102551518Y-96251593D01*
X102551513Y-96251591D01*
X102550069Y-96251112D01*
X102387753Y-96197326D01*
X102387751Y-96197325D01*
X102286678Y-96187000D01*
X101713330Y-96187000D01*
X101713312Y-96187001D01*
X101612247Y-96197325D01*
X101448484Y-96251592D01*
X101448481Y-96251593D01*
X101301648Y-96342161D01*
X101179661Y-96464148D01*
X101161908Y-96492931D01*
X101106690Y-96582454D01*
X101093155Y-96604397D01*
X101041207Y-96651122D01*
X100987616Y-96663300D01*
X100541639Y-96663300D01*
X100474600Y-96643615D01*
X100428845Y-96590811D01*
X100418901Y-96521653D01*
X100447926Y-96458097D01*
X100453958Y-96451619D01*
X101311476Y-95594102D01*
X101350602Y-95554975D01*
X101411924Y-95521489D01*
X101424402Y-95519435D01*
X101549249Y-95505369D01*
X101549252Y-95505368D01*
X101549255Y-95505368D01*
X101719522Y-95445789D01*
X101872262Y-95349816D01*
X101999816Y-95222262D01*
X102095789Y-95069522D01*
X102155368Y-94899255D01*
X102159586Y-94861819D01*
X102175565Y-94720003D01*
X102175565Y-94719996D01*
X102155369Y-94540750D01*
X102155368Y-94540745D01*
X102112197Y-94417370D01*
X102095789Y-94370478D01*
X102095604Y-94370184D01*
X102035300Y-94274211D01*
X101999816Y-94217738D01*
X101872262Y-94090184D01*
X101823356Y-94059454D01*
X101719523Y-93994211D01*
X101549254Y-93934631D01*
X101549249Y-93934630D01*
X101370004Y-93914435D01*
X101370002Y-93914435D01*
X101370000Y-93914435D01*
X101360610Y-93915492D01*
X101333490Y-93918548D01*
X101264668Y-93906491D01*
X101213290Y-93859141D01*
X101195667Y-93791530D01*
X101196389Y-93781444D01*
X101205565Y-93700003D01*
X101205565Y-93699996D01*
X101185369Y-93520750D01*
X101185368Y-93520745D01*
X101174452Y-93489548D01*
X101125789Y-93350478D01*
X101120819Y-93342569D01*
X101029815Y-93197737D01*
X100902262Y-93070184D01*
X100749523Y-92974211D01*
X100579254Y-92914631D01*
X100579249Y-92914630D01*
X100400004Y-92894435D01*
X100399996Y-92894435D01*
X100220750Y-92914630D01*
X100220745Y-92914631D01*
X100050476Y-92974211D01*
X99897737Y-93070184D01*
X99770184Y-93197737D01*
X99674206Y-93350484D01*
X99671218Y-93356690D01*
X99624394Y-93408548D01*
X99556967Y-93426859D01*
X99490343Y-93405809D01*
X99445677Y-93352081D01*
X99435500Y-93302885D01*
X99435500Y-92874313D01*
X99435499Y-92874298D01*
X99432598Y-92837432D01*
X99432597Y-92837429D01*
X99427847Y-92821078D01*
X99399555Y-92723697D01*
X99399555Y-92654507D01*
X99432100Y-92542490D01*
X99432295Y-92540001D01*
X99432295Y-92540000D01*
X99356308Y-92540000D01*
X99289269Y-92520315D01*
X99268631Y-92503685D01*
X99186865Y-92421919D01*
X99177639Y-92416463D01*
X99045396Y-92338255D01*
X99045393Y-92338254D01*
X98887573Y-92292402D01*
X98887567Y-92292401D01*
X98856923Y-92289990D01*
X98791635Y-92265106D01*
X98750164Y-92208875D01*
X98745677Y-92139149D01*
X98779599Y-92078067D01*
X98808212Y-92057007D01*
X98812651Y-92054635D01*
X98871091Y-92040000D01*
X99432295Y-92040000D01*
X99432295Y-92039998D01*
X99432100Y-92037513D01*
X99386281Y-91879801D01*
X99302685Y-91738447D01*
X99302678Y-91738438D01*
X99276271Y-91712031D01*
X99242786Y-91650708D01*
X99247770Y-91581016D01*
X99249391Y-91576898D01*
X99293611Y-91470139D01*
X99297051Y-91461835D01*
X99311665Y-91388364D01*
X99335500Y-91268543D01*
X99335500Y-91071456D01*
X99297052Y-90878170D01*
X99297051Y-90878169D01*
X99297051Y-90878165D01*
X99273117Y-90820383D01*
X108233168Y-90820383D01*
X108283958Y-90825000D01*
X109116041Y-90825000D01*
X109166830Y-90820383D01*
X116533168Y-90820383D01*
X116583958Y-90825000D01*
X117416041Y-90825000D01*
X117466830Y-90820383D01*
X117000001Y-90353553D01*
X117000000Y-90353553D01*
X116533168Y-90820383D01*
X109166830Y-90820383D01*
X108700001Y-90353553D01*
X108700000Y-90353553D01*
X108233168Y-90820383D01*
X99273117Y-90820383D01*
X99244161Y-90750476D01*
X99221635Y-90696092D01*
X99221628Y-90696079D01*
X99112139Y-90532218D01*
X99112136Y-90532214D01*
X98972785Y-90392863D01*
X98972781Y-90392860D01*
X98808920Y-90283371D01*
X98808907Y-90283364D01*
X98626839Y-90207950D01*
X98626829Y-90207947D01*
X98433543Y-90169500D01*
X98433541Y-90169500D01*
X97136459Y-90169500D01*
X97136457Y-90169500D01*
X96943170Y-90207947D01*
X96943160Y-90207950D01*
X96761092Y-90283364D01*
X96761079Y-90283371D01*
X96597218Y-90392860D01*
X96597214Y-90392863D01*
X96457863Y-90532214D01*
X96457860Y-90532218D01*
X96348371Y-90696079D01*
X96348364Y-90696092D01*
X96272950Y-90878160D01*
X96272947Y-90878170D01*
X96234500Y-91071456D01*
X96234500Y-91071459D01*
X96234500Y-91268541D01*
X96234500Y-91268543D01*
X96234499Y-91268543D01*
X96272947Y-91461829D01*
X96272950Y-91461839D01*
X96348364Y-91643907D01*
X96348371Y-91643920D01*
X96457860Y-91807781D01*
X96457863Y-91807785D01*
X96597214Y-91947136D01*
X96597218Y-91947139D01*
X96761079Y-92056628D01*
X96761083Y-92056630D01*
X96761086Y-92056632D01*
X96868818Y-92101256D01*
X96923218Y-92145094D01*
X96945284Y-92211388D01*
X96928005Y-92279087D01*
X96909049Y-92303492D01*
X96904504Y-92308036D01*
X96904504Y-92308037D01*
X96841905Y-92416463D01*
X96825702Y-92476931D01*
X96809500Y-92537399D01*
X96809500Y-92662601D01*
X96827271Y-92728922D01*
X96841905Y-92783536D01*
X96904504Y-92891962D01*
X96904506Y-92891965D01*
X96913768Y-92901227D01*
X96947253Y-92962550D01*
X96942269Y-93032242D01*
X96913768Y-93076589D01*
X96616817Y-93373541D01*
X96351270Y-93639088D01*
X96351267Y-93639091D01*
X96327058Y-93663300D01*
X96264142Y-93726215D01*
X96259975Y-93732452D01*
X96232073Y-93774211D01*
X96227240Y-93781444D01*
X96195688Y-93828661D01*
X96176593Y-93874765D01*
X96176592Y-93874767D01*
X96148537Y-93942496D01*
X96148535Y-93942502D01*
X96144013Y-93965235D01*
X96144014Y-93965236D01*
X96126729Y-94052139D01*
X96124500Y-94063343D01*
X89200500Y-94063343D01*
X89200500Y-91268543D01*
X92204499Y-91268543D01*
X92242947Y-91461829D01*
X92242950Y-91461839D01*
X92318364Y-91643907D01*
X92318371Y-91643920D01*
X92427860Y-91807781D01*
X92427863Y-91807785D01*
X92567214Y-91947136D01*
X92567218Y-91947139D01*
X92731079Y-92056628D01*
X92731092Y-92056635D01*
X92838811Y-92101253D01*
X92913165Y-92132051D01*
X92913169Y-92132051D01*
X92913170Y-92132052D01*
X93106456Y-92170500D01*
X93106459Y-92170500D01*
X94103543Y-92170500D01*
X94261151Y-92139149D01*
X94296835Y-92132051D01*
X94478914Y-92056632D01*
X94642782Y-91947139D01*
X94782139Y-91807782D01*
X94891632Y-91643914D01*
X94967051Y-91461835D01*
X94981665Y-91388364D01*
X95005500Y-91268543D01*
X95005500Y-91071456D01*
X94967052Y-90878170D01*
X94967051Y-90878169D01*
X94967051Y-90878165D01*
X94914161Y-90750476D01*
X94891635Y-90696092D01*
X94891628Y-90696079D01*
X94782139Y-90532218D01*
X94782136Y-90532214D01*
X94642785Y-90392863D01*
X94642781Y-90392860D01*
X94478920Y-90283371D01*
X94478907Y-90283364D01*
X94296839Y-90207950D01*
X94296829Y-90207947D01*
X94103543Y-90169500D01*
X94103541Y-90169500D01*
X93106459Y-90169500D01*
X93106457Y-90169500D01*
X92913170Y-90207947D01*
X92913160Y-90207950D01*
X92731092Y-90283364D01*
X92731079Y-90283371D01*
X92567218Y-90392860D01*
X92567214Y-90392863D01*
X92427863Y-90532214D01*
X92427860Y-90532218D01*
X92318371Y-90696079D01*
X92318364Y-90696092D01*
X92242950Y-90878160D01*
X92242947Y-90878170D01*
X92204500Y-91071456D01*
X92204500Y-91071459D01*
X92204500Y-91268541D01*
X92204500Y-91268543D01*
X92204499Y-91268543D01*
X89200500Y-91268543D01*
X89200500Y-79999996D01*
X94694435Y-79999996D01*
X94694435Y-80000000D01*
X94714630Y-80179249D01*
X94714631Y-80179254D01*
X94774211Y-80349523D01*
X94855493Y-80478881D01*
X94874500Y-80544854D01*
X94874500Y-85311611D01*
X94898535Y-85432444D01*
X94898540Y-85432461D01*
X94945685Y-85546281D01*
X94945688Y-85546286D01*
X94977023Y-85593180D01*
X94977024Y-85593183D01*
X95014138Y-85648728D01*
X95014139Y-85648729D01*
X95014142Y-85648733D01*
X95101267Y-85735858D01*
X95101269Y-85735859D01*
X95108335Y-85742925D01*
X95108334Y-85742925D01*
X95108338Y-85742928D01*
X97566262Y-88200854D01*
X97570974Y-88204721D01*
X97569379Y-88206663D01*
X97607135Y-88251837D01*
X97616661Y-88315212D01*
X97611026Y-88365233D01*
X97608235Y-88390004D01*
X97628430Y-88569249D01*
X97628431Y-88569254D01*
X97688011Y-88739523D01*
X97726521Y-88800811D01*
X97783984Y-88892262D01*
X97911538Y-89019816D01*
X98064278Y-89115789D01*
X98233493Y-89175000D01*
X98234545Y-89175368D01*
X98234550Y-89175369D01*
X98359398Y-89189435D01*
X98423813Y-89216501D01*
X98433197Y-89224974D01*
X98459698Y-89251475D01*
X98591202Y-89327399D01*
X98737876Y-89366700D01*
X99605419Y-89366700D01*
X99672458Y-89386385D01*
X99710956Y-89425601D01*
X99749660Y-89488350D01*
X99871650Y-89610340D01*
X100018484Y-89700908D01*
X100182247Y-89755174D01*
X100283323Y-89765500D01*
X100956676Y-89765499D01*
X100956684Y-89765498D01*
X100956687Y-89765498D01*
X101012030Y-89759844D01*
X101057753Y-89755174D01*
X101221516Y-89700908D01*
X101368350Y-89610340D01*
X101407319Y-89571371D01*
X101468642Y-89537886D01*
X101538334Y-89542870D01*
X101582681Y-89571371D01*
X101621650Y-89610340D01*
X101768484Y-89700908D01*
X101932247Y-89755174D01*
X102033323Y-89765500D01*
X102478560Y-89765499D01*
X102545599Y-89785183D01*
X102566241Y-89801818D01*
X102675898Y-89911475D01*
X102807402Y-89987399D01*
X102954076Y-90026700D01*
X103105924Y-90026700D01*
X103553381Y-90026700D01*
X103620420Y-90046385D01*
X103666175Y-90099189D01*
X103671087Y-90111696D01*
X103690185Y-90169331D01*
X103690187Y-90169336D01*
X103714004Y-90207949D01*
X103782288Y-90318656D01*
X103906344Y-90442712D01*
X104055666Y-90534814D01*
X104222203Y-90589999D01*
X104324991Y-90600500D01*
X105675008Y-90600499D01*
X105777797Y-90589999D01*
X105944334Y-90534814D01*
X106093656Y-90442712D01*
X106217712Y-90318656D01*
X106309814Y-90169334D01*
X106364999Y-90002797D01*
X106375500Y-89900009D01*
X106375500Y-89783956D01*
X107675000Y-89783956D01*
X107675000Y-90216043D01*
X107681065Y-90282792D01*
X107728929Y-90436396D01*
X107797168Y-90549277D01*
X107797169Y-90549277D01*
X108346447Y-90000000D01*
X108346446Y-89999999D01*
X109053553Y-89999999D01*
X109053553Y-90000000D01*
X109602829Y-90549277D01*
X109602830Y-90549276D01*
X109671068Y-90436401D01*
X109671069Y-90436397D01*
X109718934Y-90282792D01*
X109725000Y-90216043D01*
X109725000Y-89783956D01*
X115975000Y-89783956D01*
X115975000Y-90216043D01*
X115981065Y-90282792D01*
X116028929Y-90436396D01*
X116097168Y-90549277D01*
X116097169Y-90549277D01*
X116646447Y-90000000D01*
X116646446Y-89999999D01*
X117353553Y-89999999D01*
X117353553Y-90000000D01*
X117902829Y-90549277D01*
X117902830Y-90549276D01*
X117971068Y-90436401D01*
X117971069Y-90436397D01*
X118018934Y-90282792D01*
X118025000Y-90216043D01*
X118025000Y-89783956D01*
X118018934Y-89717207D01*
X117971069Y-89563602D01*
X117971068Y-89563598D01*
X117902830Y-89450722D01*
X117353553Y-89999999D01*
X116646446Y-89999999D01*
X116097168Y-89450721D01*
X116028929Y-89563603D01*
X115981065Y-89717207D01*
X115975000Y-89783956D01*
X109725000Y-89783956D01*
X109718934Y-89717207D01*
X109671069Y-89563602D01*
X109671068Y-89563598D01*
X109602830Y-89450722D01*
X109053553Y-89999999D01*
X108346446Y-89999999D01*
X107797168Y-89450721D01*
X107728929Y-89563603D01*
X107681065Y-89717207D01*
X107675000Y-89783956D01*
X106375500Y-89783956D01*
X106375499Y-89179615D01*
X108233167Y-89179615D01*
X108700000Y-89646447D01*
X108700001Y-89646447D01*
X109166831Y-89179615D01*
X116533167Y-89179615D01*
X117000000Y-89646447D01*
X117000001Y-89646447D01*
X117466831Y-89179615D01*
X117416043Y-89175000D01*
X116583957Y-89175000D01*
X116533168Y-89179615D01*
X116533167Y-89179615D01*
X109166831Y-89179615D01*
X109116043Y-89175000D01*
X108283957Y-89175000D01*
X108233168Y-89179615D01*
X108233167Y-89179615D01*
X106375499Y-89179615D01*
X106375499Y-88999992D01*
X106364999Y-88897203D01*
X106309814Y-88730666D01*
X106217712Y-88581344D01*
X106188549Y-88552181D01*
X106155064Y-88490858D01*
X106160048Y-88421166D01*
X106201920Y-88365233D01*
X106267384Y-88340816D01*
X106276230Y-88340500D01*
X107596607Y-88340500D01*
X107657029Y-88328481D01*
X107717452Y-88316463D01*
X107758404Y-88299500D01*
X107831286Y-88269312D01*
X107885357Y-88233182D01*
X107933733Y-88200858D01*
X108020858Y-88113733D01*
X108020859Y-88113731D01*
X108027925Y-88106665D01*
X108027928Y-88106661D01*
X109091664Y-87042925D01*
X109091671Y-87042919D01*
X109098731Y-87035858D01*
X109098733Y-87035858D01*
X109182136Y-86952455D01*
X109243459Y-86918970D01*
X109313151Y-86923954D01*
X109335790Y-86935143D01*
X109400475Y-86975788D01*
X109570745Y-87035368D01*
X109570750Y-87035369D01*
X109749996Y-87055565D01*
X109750000Y-87055565D01*
X109750004Y-87055565D01*
X109929249Y-87035369D01*
X109929252Y-87035368D01*
X109929255Y-87035368D01*
X110099522Y-86975789D01*
X110252262Y-86879816D01*
X110379816Y-86752262D01*
X110475789Y-86599522D01*
X110535368Y-86429255D01*
X110540055Y-86387657D01*
X110555565Y-86250003D01*
X110555565Y-86249996D01*
X110535369Y-86070750D01*
X110535368Y-86070745D01*
X110497115Y-85961424D01*
X110475789Y-85900478D01*
X110381235Y-85749996D01*
X112944435Y-85749996D01*
X112944435Y-85750003D01*
X112964630Y-85929249D01*
X112964631Y-85929254D01*
X113024211Y-86099523D01*
X113099965Y-86220084D01*
X113120184Y-86252262D01*
X113247738Y-86379816D01*
X113292055Y-86407662D01*
X113393699Y-86471530D01*
X113400478Y-86475789D01*
X113474519Y-86501697D01*
X113570745Y-86535368D01*
X113570750Y-86535369D01*
X113749996Y-86555565D01*
X113750000Y-86555565D01*
X113750004Y-86555565D01*
X113929249Y-86535369D01*
X113929252Y-86535368D01*
X113929255Y-86535368D01*
X114099522Y-86475789D01*
X114252262Y-86379816D01*
X114270259Y-86361819D01*
X114331582Y-86328334D01*
X114357940Y-86325500D01*
X116111513Y-86325500D01*
X116178552Y-86345185D01*
X116199194Y-86361819D01*
X116225608Y-86388233D01*
X116225610Y-86388234D01*
X116225612Y-86388236D01*
X116363398Y-86471531D01*
X116517113Y-86519430D01*
X116583909Y-86525500D01*
X117416090Y-86525499D01*
X117416097Y-86525499D01*
X117482882Y-86519431D01*
X117482885Y-86519430D01*
X117482887Y-86519430D01*
X117636602Y-86471531D01*
X117774388Y-86388236D01*
X117782809Y-86379815D01*
X117800806Y-86361819D01*
X117862129Y-86328334D01*
X117888487Y-86325500D01*
X133499108Y-86325500D01*
X133499108Y-86325499D01*
X133568958Y-86311606D01*
X133568959Y-86311606D01*
X133586270Y-86308162D01*
X133619952Y-86301463D01*
X133653292Y-86287652D01*
X133733786Y-86254312D01*
X133785009Y-86220084D01*
X133836233Y-86185858D01*
X133923358Y-86098733D01*
X133923359Y-86098731D01*
X133930425Y-86091665D01*
X133930428Y-86091661D01*
X137320598Y-82701490D01*
X137381917Y-82668008D01*
X137451609Y-82672992D01*
X137507542Y-82714864D01*
X137531633Y-82776571D01*
X137535319Y-82812652D01*
X137589546Y-82976300D01*
X137589551Y-82976311D01*
X137680052Y-83123034D01*
X137680055Y-83123038D01*
X137801961Y-83244944D01*
X137801965Y-83244947D01*
X137948688Y-83335448D01*
X137948699Y-83335453D01*
X138112347Y-83389680D01*
X138213352Y-83399999D01*
X138250000Y-83399999D01*
X138750000Y-83399999D01*
X138786640Y-83399999D01*
X138786654Y-83399998D01*
X138887652Y-83389680D01*
X139051300Y-83335453D01*
X139051311Y-83335448D01*
X139198034Y-83244947D01*
X139198038Y-83244944D01*
X139319944Y-83123038D01*
X139319947Y-83123034D01*
X139410448Y-82976311D01*
X139410453Y-82976300D01*
X139464680Y-82812652D01*
X139474999Y-82711654D01*
X139475000Y-82711641D01*
X139475000Y-82612500D01*
X138750000Y-82612500D01*
X138750000Y-83399999D01*
X138250000Y-83399999D01*
X138250000Y-82236500D01*
X138269685Y-82169461D01*
X138322489Y-82123706D01*
X138374000Y-82112500D01*
X139474999Y-82112500D01*
X139474999Y-82013360D01*
X139474998Y-82013345D01*
X139464680Y-81912347D01*
X139410453Y-81748699D01*
X139410448Y-81748688D01*
X139319947Y-81601965D01*
X139319944Y-81601961D01*
X139306017Y-81588034D01*
X139272532Y-81526711D01*
X139277516Y-81457019D01*
X139306017Y-81412672D01*
X139320340Y-81398350D01*
X139410908Y-81251516D01*
X139465174Y-81087753D01*
X139475500Y-80986677D01*
X139475499Y-80288324D01*
X139474665Y-80280163D01*
X139465174Y-80187247D01*
X139435968Y-80099110D01*
X139410908Y-80023484D01*
X139320340Y-79876650D01*
X139198350Y-79754660D01*
X139093821Y-79690186D01*
X139051518Y-79664093D01*
X139051513Y-79664091D01*
X139032447Y-79657773D01*
X138975004Y-79617998D01*
X138948183Y-79553482D01*
X138960500Y-79484706D01*
X138965910Y-79474981D01*
X138984814Y-79444334D01*
X139039999Y-79277797D01*
X139050500Y-79175009D01*
X139050499Y-77824992D01*
X139042838Y-77750000D01*
X139039999Y-77722203D01*
X139039998Y-77722200D01*
X138984814Y-77555666D01*
X138892712Y-77406344D01*
X138768656Y-77282288D01*
X138619334Y-77190186D01*
X138452797Y-77135001D01*
X138452795Y-77135000D01*
X138350016Y-77124500D01*
X137460452Y-77124500D01*
X137393413Y-77104815D01*
X137372771Y-77088181D01*
X137257118Y-76972528D01*
X137223633Y-76911205D01*
X137227757Y-76843895D01*
X137285088Y-76680055D01*
X137285367Y-76679259D01*
X137285369Y-76679249D01*
X137305565Y-76500003D01*
X137305565Y-76499996D01*
X137285369Y-76320750D01*
X137285368Y-76320745D01*
X137254416Y-76232289D01*
X137225789Y-76150478D01*
X137219321Y-76140185D01*
X137129815Y-75997737D01*
X137002262Y-75870184D01*
X136849523Y-75774211D01*
X136679254Y-75714631D01*
X136679249Y-75714630D01*
X136500004Y-75694435D01*
X136499996Y-75694435D01*
X136320750Y-75714630D01*
X136320745Y-75714631D01*
X136150476Y-75774211D01*
X135997737Y-75870184D01*
X135870184Y-75997737D01*
X135774211Y-76150476D01*
X135714631Y-76320745D01*
X135714630Y-76320750D01*
X135694435Y-76499996D01*
X135694435Y-76500003D01*
X135714630Y-76679249D01*
X135714631Y-76679254D01*
X135774211Y-76849524D01*
X135855493Y-76978881D01*
X135874500Y-77044854D01*
X135874500Y-77161611D01*
X135884786Y-77213321D01*
X135884786Y-77213322D01*
X135884791Y-77213345D01*
X135898504Y-77282288D01*
X135898536Y-77282449D01*
X135898538Y-77282456D01*
X135945685Y-77396281D01*
X135945688Y-77396286D01*
X135973823Y-77438391D01*
X135973824Y-77438394D01*
X136014138Y-77498728D01*
X136014144Y-77498736D01*
X136105586Y-77590178D01*
X136105608Y-77590198D01*
X136713181Y-78197771D01*
X136746666Y-78259094D01*
X136749500Y-78285452D01*
X136749500Y-79175001D01*
X136749501Y-79175019D01*
X136760000Y-79277796D01*
X136760001Y-79277799D01*
X136815185Y-79444331D01*
X136815187Y-79444336D01*
X136848125Y-79497737D01*
X136907288Y-79593656D01*
X137031344Y-79717712D01*
X137180666Y-79809814D01*
X137189498Y-79812740D01*
X137246944Y-79852508D01*
X137273771Y-79917022D01*
X137274500Y-79930448D01*
X137274500Y-80099110D01*
X137298535Y-80219943D01*
X137298538Y-80219955D01*
X137306465Y-80239093D01*
X137345685Y-80333781D01*
X137345687Y-80333785D01*
X137356203Y-80349522D01*
X137356204Y-80349524D01*
X137414141Y-80436232D01*
X137414144Y-80436236D01*
X137488181Y-80510273D01*
X137521666Y-80571596D01*
X137524500Y-80597954D01*
X137524500Y-80677047D01*
X137504815Y-80744086D01*
X137488181Y-80764728D01*
X133257620Y-84995289D01*
X133196297Y-85028774D01*
X133126605Y-85023790D01*
X133070672Y-84981918D01*
X133046719Y-84921490D01*
X133035369Y-84820750D01*
X133035368Y-84820745D01*
X133009822Y-84747738D01*
X132975789Y-84650478D01*
X132879816Y-84497738D01*
X132752262Y-84370184D01*
X132728883Y-84355494D01*
X132599523Y-84274211D01*
X132429254Y-84214631D01*
X132429249Y-84214630D01*
X132250004Y-84194435D01*
X132249996Y-84194435D01*
X132070750Y-84214630D01*
X132070745Y-84214631D01*
X131900476Y-84274211D01*
X131771117Y-84355494D01*
X131705145Y-84374500D01*
X126860452Y-84374500D01*
X126793413Y-84354815D01*
X126772771Y-84338181D01*
X124161250Y-81726660D01*
X125936892Y-81726660D01*
X125936892Y-81726661D01*
X125950692Y-81735333D01*
X125950691Y-81735333D01*
X126120861Y-81794878D01*
X126299997Y-81815062D01*
X126300003Y-81815062D01*
X126479138Y-81794878D01*
X126479141Y-81794877D01*
X126649305Y-81735334D01*
X126649306Y-81735334D01*
X126663106Y-81726661D01*
X126663106Y-81726660D01*
X127336892Y-81726660D01*
X127336892Y-81726661D01*
X127350692Y-81735333D01*
X127350691Y-81735333D01*
X127520861Y-81794878D01*
X127699997Y-81815062D01*
X127700003Y-81815062D01*
X127879138Y-81794878D01*
X127879141Y-81794877D01*
X128049305Y-81735334D01*
X128049306Y-81735334D01*
X128063106Y-81726661D01*
X128063106Y-81726660D01*
X127700001Y-81363553D01*
X127700000Y-81363553D01*
X127336892Y-81726660D01*
X126663106Y-81726660D01*
X126300001Y-81363553D01*
X126300000Y-81363553D01*
X125936892Y-81726660D01*
X124161250Y-81726660D01*
X123736818Y-81302228D01*
X123703333Y-81240905D01*
X123700499Y-81214547D01*
X123700499Y-81026660D01*
X125236892Y-81026660D01*
X125236892Y-81026661D01*
X125250692Y-81035333D01*
X125250691Y-81035333D01*
X125420862Y-81094878D01*
X125421644Y-81095057D01*
X125422097Y-81095310D01*
X125427431Y-81097177D01*
X125427104Y-81098111D01*
X125482623Y-81129166D01*
X125511952Y-81182874D01*
X125512822Y-81182570D01*
X125514670Y-81187852D01*
X125514940Y-81188346D01*
X125515121Y-81189142D01*
X125574663Y-81359300D01*
X125574663Y-81359301D01*
X125583338Y-81373107D01*
X125946446Y-81010000D01*
X125916609Y-80980163D01*
X126150000Y-80980163D01*
X126150000Y-81039837D01*
X126172836Y-81094968D01*
X126215032Y-81137164D01*
X126270163Y-81160000D01*
X126329837Y-81160000D01*
X126384968Y-81137164D01*
X126427164Y-81094968D01*
X126450000Y-81039837D01*
X126450000Y-81009999D01*
X126653553Y-81009999D01*
X126653553Y-81010000D01*
X127000000Y-81356446D01*
X127000001Y-81356446D01*
X127346446Y-81010000D01*
X127316609Y-80980163D01*
X127550000Y-80980163D01*
X127550000Y-81039837D01*
X127572836Y-81094968D01*
X127615032Y-81137164D01*
X127670163Y-81160000D01*
X127729837Y-81160000D01*
X127784968Y-81137164D01*
X127827164Y-81094968D01*
X127850000Y-81039837D01*
X127850000Y-81009999D01*
X128053553Y-81009999D01*
X128053553Y-81010000D01*
X128416660Y-81373106D01*
X128416661Y-81373106D01*
X128425334Y-81359306D01*
X128425334Y-81359305D01*
X128484876Y-81189144D01*
X128485056Y-81188358D01*
X128485311Y-81187901D01*
X128487177Y-81182570D01*
X128488110Y-81182896D01*
X128519164Y-81127379D01*
X128572875Y-81098049D01*
X128572570Y-81097177D01*
X128577870Y-81095322D01*
X128578358Y-81095056D01*
X128579144Y-81094876D01*
X128749305Y-81035334D01*
X128749306Y-81035334D01*
X128763106Y-81026661D01*
X128763106Y-81026660D01*
X128400000Y-80663553D01*
X128335145Y-80728409D01*
X128335144Y-80728409D01*
X128053553Y-81009999D01*
X127850000Y-81009999D01*
X127850000Y-80980163D01*
X127827164Y-80925032D01*
X127784968Y-80882836D01*
X127729837Y-80860000D01*
X127670163Y-80860000D01*
X127615032Y-80882836D01*
X127572836Y-80925032D01*
X127550000Y-80980163D01*
X127316609Y-80980163D01*
X127064855Y-80728409D01*
X127000000Y-80663553D01*
X126935145Y-80728409D01*
X126935144Y-80728409D01*
X126653553Y-81009999D01*
X126450000Y-81009999D01*
X126450000Y-80980163D01*
X126427164Y-80925032D01*
X126384968Y-80882836D01*
X126329837Y-80860000D01*
X126270163Y-80860000D01*
X126215032Y-80882836D01*
X126172836Y-80925032D01*
X126150000Y-80980163D01*
X125916609Y-80980163D01*
X125599999Y-80663553D01*
X125599998Y-80663553D01*
X125236892Y-81026660D01*
X123700499Y-81026660D01*
X123700499Y-80324998D01*
X123700498Y-80324981D01*
X123698967Y-80309997D01*
X124794938Y-80309997D01*
X124794938Y-80310002D01*
X124815121Y-80489138D01*
X124874665Y-80659304D01*
X124883338Y-80673107D01*
X125246446Y-80310000D01*
X125246446Y-80309999D01*
X125216610Y-80280163D01*
X125450000Y-80280163D01*
X125450000Y-80339837D01*
X125472836Y-80394968D01*
X125515032Y-80437164D01*
X125570163Y-80460000D01*
X125629837Y-80460000D01*
X125684968Y-80437164D01*
X125727164Y-80394968D01*
X125750000Y-80339837D01*
X125750000Y-80309999D01*
X125953553Y-80309999D01*
X125993076Y-80349521D01*
X125993077Y-80349523D01*
X126300000Y-80656446D01*
X126646446Y-80310000D01*
X126616609Y-80280163D01*
X126850000Y-80280163D01*
X126850000Y-80339837D01*
X126872836Y-80394968D01*
X126915032Y-80437164D01*
X126970163Y-80460000D01*
X127029837Y-80460000D01*
X127084968Y-80437164D01*
X127127164Y-80394968D01*
X127150000Y-80339837D01*
X127150000Y-80309999D01*
X127353553Y-80309999D01*
X127393076Y-80349521D01*
X127393077Y-80349523D01*
X127700000Y-80656446D01*
X128046446Y-80310000D01*
X128016609Y-80280163D01*
X128250000Y-80280163D01*
X128250000Y-80339837D01*
X128272836Y-80394968D01*
X128315032Y-80437164D01*
X128370163Y-80460000D01*
X128429837Y-80460000D01*
X128484968Y-80437164D01*
X128527164Y-80394968D01*
X128550000Y-80339837D01*
X128550000Y-80310000D01*
X128753552Y-80310000D01*
X129116660Y-80673106D01*
X129116661Y-80673106D01*
X129125334Y-80659306D01*
X129125334Y-80659305D01*
X129184877Y-80489141D01*
X129184878Y-80489138D01*
X129205062Y-80310002D01*
X129205062Y-80309997D01*
X129184878Y-80130861D01*
X129125333Y-79960692D01*
X129116661Y-79946892D01*
X129116660Y-79946892D01*
X128753552Y-80310000D01*
X128550000Y-80310000D01*
X128550000Y-80280163D01*
X128527164Y-80225032D01*
X128484968Y-80182836D01*
X128429837Y-80160000D01*
X128370163Y-80160000D01*
X128315032Y-80182836D01*
X128272836Y-80225032D01*
X128250000Y-80280163D01*
X128016609Y-80280163D01*
X127736445Y-79999999D01*
X127700000Y-79963553D01*
X127663555Y-79999999D01*
X127663554Y-80000000D01*
X127353553Y-80309999D01*
X127150000Y-80309999D01*
X127150000Y-80280163D01*
X127127164Y-80225032D01*
X127084968Y-80182836D01*
X127029837Y-80160000D01*
X126970163Y-80160000D01*
X126915032Y-80182836D01*
X126872836Y-80225032D01*
X126850000Y-80280163D01*
X126616609Y-80280163D01*
X126336445Y-79999999D01*
X126300000Y-79963553D01*
X126263555Y-79999999D01*
X126263554Y-80000000D01*
X125953553Y-80309999D01*
X125750000Y-80309999D01*
X125750000Y-80280163D01*
X125727164Y-80225032D01*
X125684968Y-80182836D01*
X125629837Y-80160000D01*
X125570163Y-80160000D01*
X125515032Y-80182836D01*
X125472836Y-80225032D01*
X125450000Y-80280163D01*
X125216610Y-80280163D01*
X124883338Y-79946891D01*
X124883337Y-79946891D01*
X124874667Y-79960691D01*
X124874662Y-79960701D01*
X124815122Y-80130858D01*
X124815121Y-80130861D01*
X124794938Y-80309997D01*
X123698967Y-80309997D01*
X123689999Y-80222203D01*
X123689998Y-80222200D01*
X123659730Y-80130858D01*
X123634814Y-80055666D01*
X123542712Y-79906344D01*
X123418656Y-79782288D01*
X123269334Y-79690186D01*
X123102797Y-79635001D01*
X123102795Y-79635000D01*
X123000010Y-79624500D01*
X122099998Y-79624500D01*
X122099980Y-79624501D01*
X121997203Y-79635000D01*
X121997200Y-79635001D01*
X121830668Y-79690185D01*
X121830663Y-79690187D01*
X121681342Y-79782289D01*
X121557289Y-79906342D01*
X121465187Y-80055663D01*
X121465186Y-80055666D01*
X121410001Y-80222203D01*
X121410001Y-80222204D01*
X121410000Y-80222204D01*
X121399500Y-80324983D01*
X121399500Y-81675001D01*
X121399501Y-81675018D01*
X121410000Y-81777796D01*
X121410001Y-81777799D01*
X121465185Y-81944331D01*
X121465187Y-81944336D01*
X121487164Y-81979966D01*
X121557288Y-82093656D01*
X121681344Y-82217712D01*
X121830666Y-82309814D01*
X121997203Y-82364999D01*
X122099991Y-82375500D01*
X122989547Y-82375499D01*
X123056586Y-82395183D01*
X123077228Y-82411818D01*
X125528229Y-84862819D01*
X125561714Y-84924142D01*
X125556730Y-84993834D01*
X125514858Y-85049767D01*
X125449394Y-85074184D01*
X125440548Y-85074500D01*
X117888487Y-85074500D01*
X117821448Y-85054815D01*
X117800806Y-85038181D01*
X117774391Y-85011766D01*
X117696422Y-84964632D01*
X117636602Y-84928469D01*
X117482887Y-84880570D01*
X117482885Y-84880569D01*
X117482883Y-84880569D01*
X117436117Y-84876319D01*
X117416091Y-84874500D01*
X117416088Y-84874500D01*
X116583901Y-84874500D01*
X116517117Y-84880568D01*
X116517106Y-84880571D01*
X116363401Y-84928467D01*
X116225608Y-85011766D01*
X116225607Y-85011767D01*
X116199194Y-85038181D01*
X116137871Y-85071666D01*
X116111513Y-85074500D01*
X114215280Y-85074500D01*
X114149307Y-85055493D01*
X114099524Y-85024211D01*
X113929254Y-84964631D01*
X113929249Y-84964630D01*
X113750004Y-84944435D01*
X113749996Y-84944435D01*
X113570750Y-84964630D01*
X113570745Y-84964631D01*
X113400476Y-85024211D01*
X113247737Y-85120184D01*
X113120184Y-85247737D01*
X113024211Y-85400476D01*
X112964631Y-85570745D01*
X112964630Y-85570750D01*
X112944435Y-85749996D01*
X110381235Y-85749996D01*
X110379816Y-85747738D01*
X110252262Y-85620184D01*
X110209289Y-85593182D01*
X110099523Y-85524211D01*
X109929254Y-85464631D01*
X109929250Y-85464630D01*
X109807565Y-85450920D01*
X109743151Y-85423853D01*
X109703596Y-85366258D01*
X109703064Y-85364590D01*
X109671532Y-85263401D01*
X109671531Y-85263400D01*
X109671531Y-85263398D01*
X109588236Y-85125612D01*
X109588234Y-85125610D01*
X109588233Y-85125608D01*
X109474391Y-85011766D01*
X109396422Y-84964632D01*
X109336602Y-84928469D01*
X109182887Y-84880570D01*
X109182885Y-84880569D01*
X109182883Y-84880569D01*
X109136117Y-84876319D01*
X109116091Y-84874500D01*
X109116088Y-84874500D01*
X108283901Y-84874500D01*
X108217117Y-84880568D01*
X108217106Y-84880571D01*
X108063401Y-84928467D01*
X107925608Y-85011766D01*
X107811766Y-85125608D01*
X107728469Y-85263397D01*
X107680569Y-85417116D01*
X107674500Y-85483911D01*
X107674500Y-85916098D01*
X107680568Y-85982882D01*
X107680571Y-85982893D01*
X107728467Y-86136598D01*
X107728468Y-86136600D01*
X107728469Y-86136602D01*
X107799626Y-86254309D01*
X107811766Y-86274391D01*
X107811767Y-86274392D01*
X107863710Y-86326334D01*
X107897196Y-86387657D01*
X107892212Y-86457349D01*
X107863711Y-86501697D01*
X107312229Y-87053181D01*
X107250906Y-87086666D01*
X107224548Y-87089500D01*
X98275453Y-87089500D01*
X98208414Y-87069815D01*
X98187772Y-87053181D01*
X97096015Y-85961424D01*
X97062530Y-85900101D01*
X97067514Y-85830409D01*
X97096014Y-85786063D01*
X97129816Y-85752262D01*
X97225789Y-85599522D01*
X97285368Y-85429255D01*
X97286736Y-85417113D01*
X97305565Y-85250003D01*
X97305565Y-85249996D01*
X97285369Y-85070750D01*
X97285368Y-85070745D01*
X97225788Y-84900476D01*
X97144506Y-84771117D01*
X97125500Y-84705145D01*
X97125500Y-83310451D01*
X97145185Y-83243412D01*
X97161814Y-83222775D01*
X98947935Y-81436654D01*
X114775001Y-81436654D01*
X114785319Y-81537652D01*
X114839546Y-81701300D01*
X114839551Y-81701311D01*
X114930052Y-81848034D01*
X114930055Y-81848038D01*
X115051961Y-81969944D01*
X115051965Y-81969947D01*
X115198688Y-82060448D01*
X115198699Y-82060453D01*
X115362347Y-82114680D01*
X115463351Y-82124999D01*
X115550000Y-82124998D01*
X115550000Y-81400000D01*
X114775001Y-81400000D01*
X114775001Y-81436654D01*
X98947935Y-81436654D01*
X99521244Y-80863345D01*
X114775000Y-80863345D01*
X114775000Y-80900000D01*
X115550000Y-80900000D01*
X115550000Y-80175000D01*
X116050000Y-80175000D01*
X116050000Y-82124999D01*
X116136640Y-82124999D01*
X116136654Y-82124998D01*
X116237652Y-82114680D01*
X116401300Y-82060453D01*
X116401311Y-82060448D01*
X116548034Y-81969947D01*
X116548037Y-81969945D01*
X116586964Y-81931018D01*
X116648287Y-81897532D01*
X116717978Y-81902516D01*
X116762327Y-81931017D01*
X116801650Y-81970340D01*
X116948484Y-82060908D01*
X117112247Y-82115174D01*
X117213323Y-82125500D01*
X117886676Y-82125499D01*
X117886684Y-82125498D01*
X117886687Y-82125498D01*
X117942030Y-82119844D01*
X117987753Y-82115174D01*
X118151516Y-82060908D01*
X118252846Y-81998406D01*
X118320238Y-81979966D01*
X118386902Y-82000888D01*
X118423481Y-82038847D01*
X118457287Y-82093655D01*
X118457288Y-82093656D01*
X118581344Y-82217712D01*
X118730666Y-82309814D01*
X118897203Y-82364999D01*
X118999991Y-82375500D01*
X119900008Y-82375499D01*
X119900016Y-82375498D01*
X119900019Y-82375498D01*
X119956302Y-82369748D01*
X120002797Y-82364999D01*
X120169334Y-82309814D01*
X120318656Y-82217712D01*
X120442712Y-82093656D01*
X120534814Y-81944334D01*
X120589999Y-81777797D01*
X120600500Y-81675009D01*
X120600499Y-80324992D01*
X120598967Y-80309999D01*
X120589999Y-80222203D01*
X120589998Y-80222200D01*
X120559730Y-80130858D01*
X120534814Y-80055666D01*
X120442712Y-79906344D01*
X120318656Y-79782288D01*
X120169334Y-79690186D01*
X120002797Y-79635001D01*
X120002795Y-79635000D01*
X119900010Y-79624500D01*
X118999998Y-79624500D01*
X118999980Y-79624501D01*
X118897203Y-79635000D01*
X118897200Y-79635001D01*
X118730668Y-79690185D01*
X118730663Y-79690187D01*
X118581342Y-79782289D01*
X118457289Y-79906342D01*
X118365187Y-80055663D01*
X118365186Y-80055666D01*
X118327770Y-80168579D01*
X118287997Y-80226023D01*
X118223481Y-80252846D01*
X118157666Y-80241959D01*
X118151521Y-80239094D01*
X118151517Y-80239092D01*
X118151516Y-80239092D01*
X117987753Y-80184826D01*
X117987751Y-80184825D01*
X117886678Y-80174500D01*
X117213330Y-80174500D01*
X117213312Y-80174501D01*
X117112247Y-80184825D01*
X116948484Y-80239092D01*
X116948481Y-80239093D01*
X116801648Y-80329661D01*
X116762326Y-80368983D01*
X116701003Y-80402468D01*
X116631311Y-80397482D01*
X116586965Y-80368982D01*
X116548038Y-80330055D01*
X116548034Y-80330052D01*
X116401311Y-80239551D01*
X116401300Y-80239546D01*
X116237652Y-80185319D01*
X116136654Y-80175000D01*
X116050000Y-80175000D01*
X115550000Y-80175000D01*
X115549999Y-80174999D01*
X115463360Y-80175000D01*
X115463343Y-80175001D01*
X115362347Y-80185319D01*
X115198699Y-80239546D01*
X115198688Y-80239551D01*
X115051965Y-80330052D01*
X115051961Y-80330055D01*
X114930055Y-80451961D01*
X114930052Y-80451965D01*
X114839551Y-80598688D01*
X114839546Y-80598699D01*
X114785319Y-80762347D01*
X114775000Y-80863345D01*
X99521244Y-80863345D01*
X100774589Y-79609999D01*
X125253553Y-79609999D01*
X125253553Y-79610000D01*
X125599998Y-79956446D01*
X125599999Y-79956446D01*
X125905968Y-79650478D01*
X125946446Y-79610000D01*
X125916609Y-79580163D01*
X126150000Y-79580163D01*
X126150000Y-79639837D01*
X126172836Y-79694968D01*
X126215032Y-79737164D01*
X126270163Y-79760000D01*
X126329837Y-79760000D01*
X126384968Y-79737164D01*
X126427164Y-79694968D01*
X126450000Y-79639837D01*
X126450000Y-79609999D01*
X126653553Y-79609999D01*
X126694032Y-79650477D01*
X126694033Y-79650479D01*
X127000000Y-79956446D01*
X127346446Y-79610000D01*
X127316609Y-79580163D01*
X127550000Y-79580163D01*
X127550000Y-79639837D01*
X127572836Y-79694968D01*
X127615032Y-79737164D01*
X127670163Y-79760000D01*
X127729837Y-79760000D01*
X127784968Y-79737164D01*
X127827164Y-79694968D01*
X127850000Y-79639837D01*
X127850000Y-79609999D01*
X128053553Y-79609999D01*
X128094032Y-79650477D01*
X128094033Y-79650479D01*
X128400000Y-79956446D01*
X128746446Y-79610000D01*
X128746446Y-79609999D01*
X128400000Y-79263553D01*
X128334240Y-79329314D01*
X128334239Y-79329314D01*
X128053553Y-79609999D01*
X127850000Y-79609999D01*
X127850000Y-79580163D01*
X127827164Y-79525032D01*
X127784968Y-79482836D01*
X127729837Y-79460000D01*
X127670163Y-79460000D01*
X127615032Y-79482836D01*
X127572836Y-79525032D01*
X127550000Y-79580163D01*
X127316609Y-79580163D01*
X127065760Y-79329314D01*
X127000000Y-79263553D01*
X126934240Y-79329314D01*
X126934239Y-79329314D01*
X126653553Y-79609999D01*
X126450000Y-79609999D01*
X126450000Y-79580163D01*
X126427164Y-79525032D01*
X126384968Y-79482836D01*
X126329837Y-79460000D01*
X126270163Y-79460000D01*
X126215032Y-79482836D01*
X126172836Y-79525032D01*
X126150000Y-79580163D01*
X125916609Y-79580163D01*
X125599999Y-79263553D01*
X125599998Y-79263553D01*
X125253553Y-79609999D01*
X100774589Y-79609999D01*
X101474591Y-78909997D01*
X124794938Y-78909997D01*
X124794938Y-78910002D01*
X124815121Y-79089138D01*
X124874665Y-79259304D01*
X124883338Y-79273107D01*
X125246446Y-78910000D01*
X125246446Y-78909999D01*
X125216610Y-78880163D01*
X125450000Y-78880163D01*
X125450000Y-78939837D01*
X125472836Y-78994968D01*
X125515032Y-79037164D01*
X125570163Y-79060000D01*
X125629837Y-79060000D01*
X125684968Y-79037164D01*
X125727164Y-78994968D01*
X125750000Y-78939837D01*
X125750000Y-78909999D01*
X125953553Y-78909999D01*
X126300000Y-79256446D01*
X126646446Y-78910000D01*
X126616609Y-78880163D01*
X126850000Y-78880163D01*
X126850000Y-78939837D01*
X126872836Y-78994968D01*
X126915032Y-79037164D01*
X126970163Y-79060000D01*
X127029837Y-79060000D01*
X127084968Y-79037164D01*
X127127164Y-78994968D01*
X127150000Y-78939837D01*
X127150000Y-78909999D01*
X127353553Y-78909999D01*
X127700000Y-79256446D01*
X128046446Y-78910000D01*
X128016609Y-78880163D01*
X128250000Y-78880163D01*
X128250000Y-78939837D01*
X128272836Y-78994968D01*
X128315032Y-79037164D01*
X128370163Y-79060000D01*
X128429837Y-79060000D01*
X128484968Y-79037164D01*
X128527164Y-78994968D01*
X128550000Y-78939837D01*
X128550000Y-78910000D01*
X128753553Y-78910000D01*
X129116660Y-79273106D01*
X129116661Y-79273106D01*
X129125334Y-79259306D01*
X129125334Y-79259305D01*
X129184877Y-79089141D01*
X129184878Y-79089138D01*
X129205062Y-78910002D01*
X129205062Y-78909997D01*
X129184878Y-78730861D01*
X129125333Y-78560692D01*
X129116661Y-78546892D01*
X129116660Y-78546892D01*
X128753553Y-78910000D01*
X128550000Y-78910000D01*
X128550000Y-78880163D01*
X128527164Y-78825032D01*
X128484968Y-78782836D01*
X128429837Y-78760000D01*
X128370163Y-78760000D01*
X128315032Y-78782836D01*
X128272836Y-78825032D01*
X128250000Y-78880163D01*
X128016609Y-78880163D01*
X127737712Y-78601266D01*
X127700000Y-78563553D01*
X127662288Y-78601266D01*
X127662287Y-78601267D01*
X127353553Y-78909999D01*
X127150000Y-78909999D01*
X127150000Y-78880163D01*
X127127164Y-78825032D01*
X127084968Y-78782836D01*
X127029837Y-78760000D01*
X126970163Y-78760000D01*
X126915032Y-78782836D01*
X126872836Y-78825032D01*
X126850000Y-78880163D01*
X126616609Y-78880163D01*
X126337712Y-78601266D01*
X126300000Y-78563553D01*
X126262288Y-78601266D01*
X126262287Y-78601267D01*
X125953553Y-78909999D01*
X125750000Y-78909999D01*
X125750000Y-78880163D01*
X125727164Y-78825032D01*
X125684968Y-78782836D01*
X125629837Y-78760000D01*
X125570163Y-78760000D01*
X125515032Y-78782836D01*
X125472836Y-78825032D01*
X125450000Y-78880163D01*
X125216610Y-78880163D01*
X124883338Y-78546891D01*
X124883337Y-78546891D01*
X124874667Y-78560691D01*
X124874662Y-78560701D01*
X124815122Y-78730858D01*
X124815121Y-78730861D01*
X124794938Y-78909997D01*
X101474591Y-78909997D01*
X102308379Y-78076209D01*
X102369700Y-78042726D01*
X102382156Y-78040674D01*
X102429255Y-78035368D01*
X102599522Y-77975789D01*
X102752262Y-77879816D01*
X102845424Y-77786654D01*
X114500001Y-77786654D01*
X114510319Y-77887652D01*
X114564546Y-78051300D01*
X114564551Y-78051311D01*
X114655052Y-78198034D01*
X114655055Y-78198038D01*
X114776961Y-78319944D01*
X114776965Y-78319947D01*
X114923688Y-78410448D01*
X114923699Y-78410453D01*
X115087347Y-78464680D01*
X115188351Y-78474999D01*
X115275000Y-78474998D01*
X115275000Y-77750000D01*
X114500001Y-77750000D01*
X114500001Y-77786654D01*
X102845424Y-77786654D01*
X102879816Y-77752262D01*
X102975789Y-77599522D01*
X103035368Y-77429255D01*
X103037950Y-77406344D01*
X103055565Y-77250000D01*
X103055565Y-77249996D01*
X103051435Y-77213345D01*
X114500000Y-77213345D01*
X114500000Y-77250000D01*
X115275000Y-77250000D01*
X115275000Y-76525000D01*
X115775000Y-76525000D01*
X115775000Y-78474999D01*
X115861640Y-78474999D01*
X115861654Y-78474998D01*
X115962652Y-78464680D01*
X116126300Y-78410453D01*
X116126311Y-78410448D01*
X116273034Y-78319947D01*
X116273037Y-78319945D01*
X116311964Y-78281018D01*
X116373287Y-78247532D01*
X116442978Y-78252516D01*
X116487327Y-78281017D01*
X116526650Y-78320340D01*
X116673484Y-78410908D01*
X116837247Y-78465174D01*
X116938323Y-78475500D01*
X117611676Y-78475499D01*
X117611684Y-78475498D01*
X117611687Y-78475498D01*
X117667030Y-78469844D01*
X117712753Y-78465174D01*
X117876516Y-78410908D01*
X118023350Y-78320340D01*
X118119539Y-78224150D01*
X118180858Y-78190668D01*
X118250550Y-78195652D01*
X118306484Y-78237523D01*
X118324923Y-78272829D01*
X118327636Y-78281017D01*
X118362596Y-78386519D01*
X118365186Y-78394333D01*
X118365187Y-78394336D01*
X118375408Y-78410907D01*
X118457288Y-78543656D01*
X118581344Y-78667712D01*
X118730666Y-78759814D01*
X118897203Y-78814999D01*
X118999991Y-78825500D01*
X119900008Y-78825499D01*
X119900016Y-78825498D01*
X119900019Y-78825498D01*
X119956302Y-78819748D01*
X120002797Y-78814999D01*
X120169334Y-78759814D01*
X120318656Y-78667712D01*
X120442712Y-78543656D01*
X120534814Y-78394334D01*
X120589999Y-78227797D01*
X120600500Y-78125009D01*
X120600499Y-76774992D01*
X120600498Y-76774983D01*
X121399500Y-76774983D01*
X121399500Y-78125001D01*
X121399501Y-78125018D01*
X121410000Y-78227796D01*
X121410001Y-78227799D01*
X121465185Y-78394331D01*
X121465187Y-78394336D01*
X121475408Y-78410907D01*
X121557288Y-78543656D01*
X121681344Y-78667712D01*
X121830666Y-78759814D01*
X121997203Y-78814999D01*
X122099991Y-78825500D01*
X123000008Y-78825499D01*
X123000016Y-78825498D01*
X123000019Y-78825498D01*
X123056302Y-78819748D01*
X123102797Y-78814999D01*
X123269334Y-78759814D01*
X123418656Y-78667712D01*
X123542712Y-78543656D01*
X123634814Y-78394334D01*
X123689999Y-78227797D01*
X123693519Y-78193337D01*
X125236891Y-78193337D01*
X125236891Y-78193338D01*
X125599998Y-78556446D01*
X125599999Y-78556446D01*
X125875868Y-78280577D01*
X125946446Y-78209998D01*
X125916611Y-78180163D01*
X126150000Y-78180163D01*
X126150000Y-78239837D01*
X126172836Y-78294968D01*
X126215032Y-78337164D01*
X126270163Y-78360000D01*
X126329837Y-78360000D01*
X126384968Y-78337164D01*
X126427164Y-78294968D01*
X126450000Y-78239837D01*
X126450000Y-78209998D01*
X126653553Y-78209998D01*
X126653553Y-78209999D01*
X127000000Y-78556446D01*
X127275870Y-78280577D01*
X127346446Y-78209999D01*
X127346446Y-78209998D01*
X127316611Y-78180163D01*
X127550000Y-78180163D01*
X127550000Y-78239837D01*
X127572836Y-78294968D01*
X127615032Y-78337164D01*
X127670163Y-78360000D01*
X127729837Y-78360000D01*
X127784968Y-78337164D01*
X127827164Y-78294968D01*
X127850000Y-78239837D01*
X127850000Y-78209998D01*
X128053553Y-78209998D01*
X128053553Y-78209999D01*
X128400000Y-78556446D01*
X128400001Y-78556446D01*
X128763107Y-78193338D01*
X128749301Y-78184663D01*
X128579142Y-78125121D01*
X128578346Y-78124940D01*
X128577883Y-78124681D01*
X128572570Y-78122822D01*
X128572895Y-78121890D01*
X128517370Y-78090827D01*
X128488049Y-78037125D01*
X128487177Y-78037431D01*
X128485321Y-78032128D01*
X128485057Y-78031644D01*
X128484878Y-78030862D01*
X128425333Y-77860692D01*
X128416661Y-77846892D01*
X128416660Y-77846892D01*
X128053553Y-78209998D01*
X127850000Y-78209998D01*
X127850000Y-78180163D01*
X127827164Y-78125032D01*
X127784968Y-78082836D01*
X127729837Y-78060000D01*
X127670163Y-78060000D01*
X127615032Y-78082836D01*
X127572836Y-78125032D01*
X127550000Y-78180163D01*
X127316611Y-78180163D01*
X127000001Y-77863553D01*
X127000000Y-77863553D01*
X126653553Y-78209998D01*
X126450000Y-78209998D01*
X126450000Y-78180163D01*
X126427164Y-78125032D01*
X126384968Y-78082836D01*
X126329837Y-78060000D01*
X126270163Y-78060000D01*
X126215032Y-78082836D01*
X126172836Y-78125032D01*
X126150000Y-78180163D01*
X125916611Y-78180163D01*
X125583338Y-77846891D01*
X125583337Y-77846891D01*
X125574667Y-77860691D01*
X125574662Y-77860701D01*
X125515119Y-78030866D01*
X125514939Y-78031656D01*
X125514682Y-78032113D01*
X125512823Y-78037429D01*
X125511891Y-78037103D01*
X125480824Y-78092631D01*
X125427124Y-78121952D01*
X125427429Y-78122823D01*
X125422145Y-78124671D01*
X125421656Y-78124939D01*
X125420866Y-78125119D01*
X125250701Y-78184662D01*
X125250691Y-78184667D01*
X125236891Y-78193337D01*
X123693519Y-78193337D01*
X123700500Y-78125009D01*
X123700499Y-77493337D01*
X125936891Y-77493337D01*
X125936891Y-77493338D01*
X126300000Y-77856446D01*
X126300001Y-77856446D01*
X126663107Y-77493338D01*
X126663105Y-77493337D01*
X127336891Y-77493337D01*
X127336891Y-77493338D01*
X127700000Y-77856446D01*
X127700001Y-77856446D01*
X128063107Y-77493338D01*
X128049304Y-77484665D01*
X127879138Y-77425121D01*
X127700003Y-77404938D01*
X127699997Y-77404938D01*
X127520861Y-77425121D01*
X127520858Y-77425122D01*
X127350701Y-77484662D01*
X127350691Y-77484667D01*
X127336891Y-77493337D01*
X126663105Y-77493337D01*
X126649304Y-77484665D01*
X126479138Y-77425121D01*
X126300003Y-77404938D01*
X126299997Y-77404938D01*
X126120861Y-77425121D01*
X126120858Y-77425122D01*
X125950701Y-77484662D01*
X125950691Y-77484667D01*
X125936891Y-77493337D01*
X123700499Y-77493337D01*
X123700499Y-77235451D01*
X123720183Y-77168413D01*
X123736813Y-77147776D01*
X123745682Y-77138907D01*
X123807003Y-77105424D01*
X123819470Y-77103371D01*
X123893496Y-77095030D01*
X123979250Y-77085369D01*
X123979253Y-77085368D01*
X123979255Y-77085368D01*
X124149522Y-77025789D01*
X124302262Y-76929816D01*
X124429816Y-76802262D01*
X124525789Y-76649522D01*
X124585368Y-76479255D01*
X124587016Y-76464630D01*
X124605565Y-76300003D01*
X124605565Y-76299996D01*
X124585369Y-76120750D01*
X124585368Y-76120745D01*
X124570249Y-76077538D01*
X124525789Y-75950478D01*
X124429816Y-75797738D01*
X124302262Y-75670184D01*
X124149523Y-75574211D01*
X123979254Y-75514631D01*
X123979249Y-75514630D01*
X123800004Y-75494435D01*
X123799996Y-75494435D01*
X123620750Y-75514630D01*
X123620745Y-75514631D01*
X123450476Y-75574211D01*
X123297737Y-75670184D01*
X123170184Y-75797737D01*
X123074212Y-75950475D01*
X123074211Y-75950476D01*
X123059872Y-75991456D01*
X123019150Y-76048231D01*
X122954197Y-76073978D01*
X122942831Y-76074500D01*
X122099998Y-76074500D01*
X122099980Y-76074501D01*
X121997203Y-76085000D01*
X121997200Y-76085001D01*
X121830668Y-76140185D01*
X121830663Y-76140187D01*
X121681342Y-76232289D01*
X121557289Y-76356342D01*
X121465187Y-76505663D01*
X121465185Y-76505668D01*
X121455523Y-76534826D01*
X121410001Y-76672203D01*
X121410001Y-76672204D01*
X121410000Y-76672204D01*
X121399500Y-76774983D01*
X120600498Y-76774983D01*
X120589999Y-76672203D01*
X120534814Y-76505666D01*
X120442712Y-76356344D01*
X120318656Y-76232288D01*
X120169334Y-76140186D01*
X120002797Y-76085001D01*
X120002795Y-76085000D01*
X119900010Y-76074500D01*
X118999998Y-76074500D01*
X118999980Y-76074501D01*
X118897203Y-76085000D01*
X118897200Y-76085001D01*
X118730668Y-76140185D01*
X118730663Y-76140187D01*
X118581342Y-76232289D01*
X118457289Y-76356342D01*
X118365187Y-76505663D01*
X118365185Y-76505668D01*
X118310001Y-76672203D01*
X118309260Y-76679456D01*
X118282862Y-76744147D01*
X118225680Y-76784297D01*
X118155869Y-76787158D01*
X118098221Y-76754531D01*
X118023351Y-76679661D01*
X118023350Y-76679660D01*
X117926924Y-76620184D01*
X117876518Y-76589093D01*
X117876513Y-76589091D01*
X117875069Y-76588612D01*
X117712753Y-76534826D01*
X117712751Y-76534825D01*
X117611678Y-76524500D01*
X116938330Y-76524500D01*
X116938312Y-76524501D01*
X116837247Y-76534825D01*
X116673484Y-76589092D01*
X116673481Y-76589093D01*
X116526648Y-76679661D01*
X116487326Y-76718983D01*
X116426003Y-76752468D01*
X116356311Y-76747482D01*
X116311965Y-76718982D01*
X116273038Y-76680055D01*
X116273034Y-76680052D01*
X116126311Y-76589551D01*
X116126300Y-76589546D01*
X115962652Y-76535319D01*
X115861654Y-76525000D01*
X115775000Y-76525000D01*
X115275000Y-76525000D01*
X115274999Y-76524999D01*
X115188360Y-76525000D01*
X115188343Y-76525001D01*
X115087347Y-76535319D01*
X114923699Y-76589546D01*
X114923688Y-76589551D01*
X114776965Y-76680052D01*
X114776961Y-76680055D01*
X114655055Y-76801961D01*
X114655052Y-76801965D01*
X114564551Y-76948688D01*
X114564546Y-76948699D01*
X114510319Y-77112347D01*
X114500000Y-77213345D01*
X103051435Y-77213345D01*
X103035369Y-77070750D01*
X103035368Y-77070745D01*
X103026308Y-77044854D01*
X102975789Y-76900478D01*
X102879816Y-76747738D01*
X102752262Y-76620184D01*
X102702781Y-76589093D01*
X102599523Y-76524211D01*
X102429254Y-76464631D01*
X102429249Y-76464630D01*
X102250004Y-76444435D01*
X102249996Y-76444435D01*
X102070750Y-76464630D01*
X102070745Y-76464631D01*
X101900476Y-76524211D01*
X101747737Y-76620184D01*
X101620184Y-76747737D01*
X101524210Y-76900478D01*
X101464630Y-77070750D01*
X101459326Y-77117825D01*
X101432258Y-77182239D01*
X101423787Y-77191621D01*
X96337181Y-82278228D01*
X96275858Y-82311713D01*
X96206166Y-82306729D01*
X96150233Y-82264857D01*
X96125816Y-82199393D01*
X96125500Y-82190547D01*
X96125500Y-80544854D01*
X96144507Y-80478881D01*
X96225789Y-80349523D01*
X96263427Y-80241959D01*
X96285368Y-80179255D01*
X96285848Y-80175001D01*
X96305565Y-80000000D01*
X96305565Y-79999996D01*
X96285369Y-79820750D01*
X96285368Y-79820745D01*
X96230553Y-79664093D01*
X96225789Y-79650478D01*
X96205380Y-79617998D01*
X96129815Y-79497737D01*
X96002262Y-79370184D01*
X95849523Y-79274211D01*
X95679254Y-79214631D01*
X95679249Y-79214630D01*
X95500004Y-79194435D01*
X95499996Y-79194435D01*
X95320750Y-79214630D01*
X95320745Y-79214631D01*
X95150476Y-79274211D01*
X94997737Y-79370184D01*
X94870184Y-79497737D01*
X94774211Y-79650476D01*
X94714631Y-79820745D01*
X94714630Y-79820750D01*
X94694435Y-79999996D01*
X89200500Y-79999996D01*
X89200500Y-75079996D01*
X92564435Y-75079996D01*
X92564435Y-75080003D01*
X92584630Y-75259249D01*
X92584631Y-75259254D01*
X92644211Y-75429523D01*
X92697689Y-75514632D01*
X92740184Y-75582262D01*
X92867738Y-75709816D01*
X93020478Y-75805789D01*
X93190745Y-75865368D01*
X93190750Y-75865369D01*
X93369996Y-75885565D01*
X93370000Y-75885565D01*
X93370004Y-75885565D01*
X93549249Y-75865369D01*
X93549252Y-75865368D01*
X93549255Y-75865368D01*
X93719522Y-75805789D01*
X93872262Y-75709816D01*
X93999816Y-75582262D01*
X94095789Y-75429522D01*
X94155368Y-75259255D01*
X94175565Y-75080000D01*
X94157279Y-74917710D01*
X94155369Y-74900750D01*
X94155368Y-74900745D01*
X94095787Y-74730473D01*
X94004676Y-74585472D01*
X93985675Y-74518236D01*
X94006042Y-74451401D01*
X94059310Y-74406186D01*
X94109669Y-74395500D01*
X96605145Y-74395500D01*
X96671117Y-74414506D01*
X96783894Y-74485369D01*
X96800478Y-74495789D01*
X96864628Y-74518236D01*
X96970745Y-74555368D01*
X96970750Y-74555369D01*
X97149996Y-74575565D01*
X97150000Y-74575565D01*
X97150004Y-74575565D01*
X97329249Y-74555369D01*
X97329252Y-74555368D01*
X97329255Y-74555368D01*
X97499522Y-74495789D01*
X97652262Y-74399816D01*
X97779816Y-74272262D01*
X97875789Y-74119522D01*
X97935368Y-73949255D01*
X97935560Y-73947553D01*
X97936788Y-73936654D01*
X114550001Y-73936654D01*
X114560319Y-74037652D01*
X114614546Y-74201300D01*
X114614551Y-74201311D01*
X114705052Y-74348034D01*
X114705055Y-74348038D01*
X114826961Y-74469944D01*
X114826965Y-74469947D01*
X114973688Y-74560448D01*
X114973699Y-74560453D01*
X115137347Y-74614680D01*
X115238351Y-74624999D01*
X115325000Y-74624998D01*
X115325000Y-73900000D01*
X114550001Y-73900000D01*
X114550001Y-73936654D01*
X97936788Y-73936654D01*
X97955565Y-73770003D01*
X97955565Y-73769996D01*
X97935369Y-73590750D01*
X97935368Y-73590745D01*
X97875788Y-73420476D01*
X97839890Y-73363345D01*
X114550000Y-73363345D01*
X114550000Y-73400000D01*
X115325000Y-73400000D01*
X115325000Y-72675000D01*
X115825000Y-72675000D01*
X115825000Y-74624999D01*
X115911640Y-74624999D01*
X115911654Y-74624998D01*
X116012652Y-74614680D01*
X116176300Y-74560453D01*
X116176311Y-74560448D01*
X116323034Y-74469947D01*
X116323037Y-74469945D01*
X116361964Y-74431018D01*
X116423287Y-74397532D01*
X116492978Y-74402516D01*
X116537327Y-74431017D01*
X116576650Y-74470340D01*
X116723484Y-74560908D01*
X116887247Y-74615174D01*
X116988323Y-74625500D01*
X117661676Y-74625499D01*
X117661684Y-74625498D01*
X117661687Y-74625498D01*
X117717030Y-74619844D01*
X117762753Y-74615174D01*
X117926516Y-74560908D01*
X118009772Y-74509555D01*
X118077162Y-74491115D01*
X118143825Y-74512037D01*
X118188595Y-74565679D01*
X118192568Y-74576080D01*
X118195681Y-74585472D01*
X118215184Y-74644329D01*
X118215187Y-74644336D01*
X118248403Y-74698188D01*
X118307288Y-74793656D01*
X118431344Y-74917712D01*
X118580666Y-75009814D01*
X118747203Y-75064999D01*
X118849991Y-75075500D01*
X119750008Y-75075499D01*
X119750016Y-75075498D01*
X119750019Y-75075498D01*
X119806302Y-75069748D01*
X119852797Y-75064999D01*
X120019334Y-75009814D01*
X120168656Y-74917712D01*
X120292712Y-74793656D01*
X120384814Y-74644334D01*
X120439999Y-74477797D01*
X120450500Y-74375009D01*
X120450499Y-73024992D01*
X120450498Y-73024983D01*
X121249500Y-73024983D01*
X121249500Y-74375001D01*
X121249501Y-74375018D01*
X121260000Y-74477796D01*
X121260001Y-74477799D01*
X121315185Y-74644331D01*
X121315187Y-74644336D01*
X121348403Y-74698188D01*
X121407288Y-74793656D01*
X121531344Y-74917712D01*
X121680666Y-75009814D01*
X121847203Y-75064999D01*
X121949991Y-75075500D01*
X122850008Y-75075499D01*
X122850016Y-75075498D01*
X122850019Y-75075498D01*
X122906302Y-75069748D01*
X122952797Y-75064999D01*
X123119334Y-75009814D01*
X123268656Y-74917712D01*
X123392712Y-74793656D01*
X123484814Y-74644334D01*
X123539999Y-74477797D01*
X123539999Y-74477792D01*
X123540782Y-74475431D01*
X123580554Y-74417986D01*
X123645070Y-74391163D01*
X123713846Y-74403478D01*
X123724460Y-74409441D01*
X123738059Y-74417986D01*
X123750478Y-74425789D01*
X123899108Y-74477797D01*
X123920745Y-74485368D01*
X123920750Y-74485369D01*
X124099996Y-74505565D01*
X124100000Y-74505565D01*
X124100004Y-74505565D01*
X124279249Y-74485369D01*
X124279252Y-74485368D01*
X124279255Y-74485368D01*
X124449522Y-74425789D01*
X124602262Y-74329816D01*
X124729816Y-74202262D01*
X124825789Y-74049522D01*
X124885368Y-73879255D01*
X124890499Y-73833719D01*
X124905565Y-73700003D01*
X124905565Y-73699996D01*
X124885369Y-73520750D01*
X124885368Y-73520745D01*
X124830291Y-73363345D01*
X124825789Y-73350478D01*
X124729816Y-73197738D01*
X124602262Y-73070184D01*
X124449523Y-72974211D01*
X124279254Y-72914631D01*
X124279249Y-72914630D01*
X124100004Y-72894435D01*
X124099996Y-72894435D01*
X123920750Y-72914630D01*
X123920745Y-72914631D01*
X123750474Y-72974212D01*
X123724460Y-72990558D01*
X123657223Y-73009558D01*
X123590388Y-72989190D01*
X123545175Y-72935922D01*
X123540783Y-72924568D01*
X123509463Y-72830052D01*
X123484814Y-72755666D01*
X123392712Y-72606344D01*
X123268656Y-72482288D01*
X123119334Y-72390186D01*
X122952797Y-72335001D01*
X122952795Y-72335000D01*
X122850010Y-72324500D01*
X121949998Y-72324500D01*
X121949980Y-72324501D01*
X121847203Y-72335000D01*
X121847200Y-72335001D01*
X121680668Y-72390185D01*
X121680663Y-72390187D01*
X121531342Y-72482289D01*
X121407289Y-72606342D01*
X121315187Y-72755663D01*
X121315185Y-72755668D01*
X121313149Y-72761813D01*
X121260001Y-72922203D01*
X121260001Y-72922204D01*
X121260000Y-72922204D01*
X121249500Y-73024983D01*
X120450498Y-73024983D01*
X120448922Y-73009558D01*
X120439999Y-72922203D01*
X120439998Y-72922200D01*
X120431807Y-72897482D01*
X120384814Y-72755666D01*
X120292712Y-72606344D01*
X120168656Y-72482288D01*
X120019334Y-72390186D01*
X119852797Y-72335001D01*
X119852795Y-72335000D01*
X119750010Y-72324500D01*
X118849998Y-72324500D01*
X118849980Y-72324501D01*
X118747203Y-72335000D01*
X118747200Y-72335001D01*
X118580668Y-72390185D01*
X118580663Y-72390187D01*
X118431342Y-72482289D01*
X118307289Y-72606342D01*
X118307288Y-72606344D01*
X118225409Y-72739093D01*
X118211395Y-72761813D01*
X118210111Y-72761021D01*
X118169412Y-72807236D01*
X118102217Y-72826383D01*
X118038115Y-72807926D01*
X117926522Y-72739095D01*
X117926517Y-72739093D01*
X117926516Y-72739092D01*
X117762753Y-72684826D01*
X117762751Y-72684825D01*
X117661678Y-72674500D01*
X116988330Y-72674500D01*
X116988312Y-72674501D01*
X116887247Y-72684825D01*
X116723484Y-72739092D01*
X116723481Y-72739093D01*
X116576648Y-72829661D01*
X116537326Y-72868983D01*
X116476003Y-72902468D01*
X116406311Y-72897482D01*
X116361965Y-72868982D01*
X116323038Y-72830055D01*
X116323034Y-72830052D01*
X116176311Y-72739551D01*
X116176300Y-72739546D01*
X116012652Y-72685319D01*
X115911654Y-72675000D01*
X115825000Y-72675000D01*
X115325000Y-72675000D01*
X115324999Y-72674999D01*
X115238360Y-72675000D01*
X115238343Y-72675001D01*
X115137347Y-72685319D01*
X114973699Y-72739546D01*
X114973688Y-72739551D01*
X114826965Y-72830052D01*
X114826961Y-72830055D01*
X114705055Y-72951961D01*
X114705052Y-72951965D01*
X114614551Y-73098688D01*
X114614546Y-73098699D01*
X114560319Y-73262347D01*
X114550000Y-73363345D01*
X97839890Y-73363345D01*
X97779815Y-73267737D01*
X97652262Y-73140184D01*
X97499523Y-73044211D01*
X97329254Y-72984631D01*
X97329249Y-72984630D01*
X97150004Y-72964435D01*
X97149996Y-72964435D01*
X96970750Y-72984630D01*
X96970745Y-72984631D01*
X96800476Y-73044211D01*
X96671117Y-73125494D01*
X96605145Y-73144500D01*
X93588389Y-73144500D01*
X93527971Y-73156518D01*
X93467548Y-73168537D01*
X93467543Y-73168538D01*
X93433546Y-73182620D01*
X93420397Y-73188067D01*
X93398169Y-73197274D01*
X93353713Y-73215688D01*
X93343557Y-73222475D01*
X93343449Y-73222547D01*
X93251268Y-73284140D01*
X93207705Y-73327703D01*
X93164142Y-73371267D01*
X92804144Y-73731264D01*
X92804138Y-73731272D01*
X92735692Y-73833705D01*
X92735684Y-73833719D01*
X92702347Y-73914207D01*
X92696823Y-73927543D01*
X92688537Y-73947545D01*
X92688535Y-73947553D01*
X92664500Y-74068389D01*
X92664500Y-74662464D01*
X92646776Y-74723987D01*
X92647231Y-74724206D01*
X92645942Y-74726880D01*
X92645496Y-74728432D01*
X92644210Y-74730478D01*
X92584633Y-74900737D01*
X92584630Y-74900750D01*
X92564435Y-75079996D01*
X89200500Y-75079996D01*
X89200500Y-70824500D01*
X89220185Y-70757461D01*
X89272989Y-70711706D01*
X89324500Y-70700500D01*
X161675500Y-70700500D01*
X161742539Y-70720185D01*
G37*
%TD.AperFunction*%
%TA.AperFunction,Conductor*%
G36*
X147350000Y-94244862D02*
G01*
X147391690Y-94236569D01*
X147391692Y-94236569D01*
X147573671Y-94161192D01*
X147573684Y-94161185D01*
X147737458Y-94051754D01*
X147761963Y-94027249D01*
X147823286Y-93993763D01*
X147892978Y-93998746D01*
X147937327Y-94027248D01*
X147938181Y-94028102D01*
X147971666Y-94089425D01*
X147974500Y-94115783D01*
X147974500Y-96289547D01*
X147954815Y-96356586D01*
X147938181Y-96377228D01*
X145841621Y-98473787D01*
X145780298Y-98507272D01*
X145767825Y-98509326D01*
X145720750Y-98514630D01*
X145550478Y-98574210D01*
X145421117Y-98655494D01*
X145355145Y-98674500D01*
X145238389Y-98674500D01*
X145177971Y-98686518D01*
X145134743Y-98695116D01*
X145117546Y-98698537D01*
X145003716Y-98745687D01*
X145003707Y-98745692D01*
X144901268Y-98814140D01*
X144867462Y-98847947D01*
X144814142Y-98901267D01*
X144737181Y-98978228D01*
X144675858Y-99011713D01*
X144606166Y-99006729D01*
X144550233Y-98964857D01*
X144525816Y-98899393D01*
X144525500Y-98890547D01*
X144525500Y-98010451D01*
X144545185Y-97943412D01*
X144561814Y-97922775D01*
X145998729Y-96485860D01*
X145998733Y-96485858D01*
X146085858Y-96398733D01*
X146114020Y-96356586D01*
X146134790Y-96325502D01*
X146134791Y-96325501D01*
X146154309Y-96296290D01*
X146154312Y-96296286D01*
X146197294Y-96192517D01*
X146201463Y-96182452D01*
X146209726Y-96140910D01*
X146215050Y-96114145D01*
X146215050Y-96114142D01*
X146225500Y-96061607D01*
X146225500Y-95938393D01*
X146225500Y-94115783D01*
X146245185Y-94048744D01*
X146261762Y-94028158D01*
X146262624Y-94027296D01*
X146323924Y-93993778D01*
X146393618Y-93998722D01*
X146438036Y-94027249D01*
X146462538Y-94051752D01*
X146626315Y-94161185D01*
X146626328Y-94161192D01*
X146808308Y-94236569D01*
X146850000Y-94244862D01*
X146850000Y-93019975D01*
X146885095Y-93055070D01*
X146964905Y-93101148D01*
X147053922Y-93125000D01*
X147146078Y-93125000D01*
X147235095Y-93101148D01*
X147314905Y-93055070D01*
X147350000Y-93019975D01*
X147350000Y-94244862D01*
G37*
%TD.AperFunction*%
%TD*%
M02*
