%TF.GenerationSoftware,KiCad,Pcbnew,8.0.6*%
%TF.CreationDate,2024-12-20T11:49:08+09:00*%
%TF.ProjectId,PCB,5043422e-6b69-4636-9164-5f7063625858,rev?*%
%TF.SameCoordinates,Original*%
%TF.FileFunction,Copper,L2,Bot*%
%TF.FilePolarity,Positive*%
%FSLAX46Y46*%
G04 Gerber Fmt 4.6, Leading zero omitted, Abs format (unit mm)*
G04 Created by KiCad (PCBNEW 8.0.6) date 2024-12-20 11:49:08*
%MOMM*%
%LPD*%
G01*
G04 APERTURE LIST*
G04 Aperture macros list*
%AMRoundRect*
0 Rectangle with rounded corners*
0 $1 Rounding radius*
0 $2 $3 $4 $5 $6 $7 $8 $9 X,Y pos of 4 corners*
0 Add a 4 corners polygon primitive as box body*
4,1,4,$2,$3,$4,$5,$6,$7,$8,$9,$2,$3,0*
0 Add four circle primitives for the rounded corners*
1,1,$1+$1,$2,$3*
1,1,$1+$1,$4,$5*
1,1,$1+$1,$6,$7*
1,1,$1+$1,$8,$9*
0 Add four rect primitives between the rounded corners*
20,1,$1+$1,$2,$3,$4,$5,0*
20,1,$1+$1,$4,$5,$6,$7,0*
20,1,$1+$1,$6,$7,$8,$9,0*
20,1,$1+$1,$8,$9,$2,$3,0*%
G04 Aperture macros list end*
%TA.AperFunction,ComponentPad*%
%ADD10O,1.000000X2.000000*%
%TD*%
%TA.AperFunction,ComponentPad*%
%ADD11C,1.700000*%
%TD*%
%TA.AperFunction,ComponentPad*%
%ADD12C,1.500000*%
%TD*%
%TA.AperFunction,ComponentPad*%
%ADD13O,2.100000X1.000000*%
%TD*%
%TA.AperFunction,ComponentPad*%
%ADD14O,1.800000X1.000000*%
%TD*%
%TA.AperFunction,SMDPad,CuDef*%
%ADD15RoundRect,0.237500X-0.237500X0.300000X-0.237500X-0.300000X0.237500X-0.300000X0.237500X0.300000X0*%
%TD*%
%TA.AperFunction,SMDPad,CuDef*%
%ADD16RoundRect,0.250000X-0.625000X0.400000X-0.625000X-0.400000X0.625000X-0.400000X0.625000X0.400000X0*%
%TD*%
%TA.AperFunction,SMDPad,CuDef*%
%ADD17RoundRect,0.225000X0.225000X0.375000X-0.225000X0.375000X-0.225000X-0.375000X0.225000X-0.375000X0*%
%TD*%
%TA.AperFunction,SMDPad,CuDef*%
%ADD18RoundRect,0.250000X-0.400000X-0.625000X0.400000X-0.625000X0.400000X0.625000X-0.400000X0.625000X0*%
%TD*%
%TA.AperFunction,SMDPad,CuDef*%
%ADD19RoundRect,0.250000X-0.475000X0.337500X-0.475000X-0.337500X0.475000X-0.337500X0.475000X0.337500X0*%
%TD*%
%TA.AperFunction,SMDPad,CuDef*%
%ADD20RoundRect,0.250000X0.625000X-0.400000X0.625000X0.400000X-0.625000X0.400000X-0.625000X-0.400000X0*%
%TD*%
%TA.AperFunction,SMDPad,CuDef*%
%ADD21RoundRect,0.237500X0.237500X-0.300000X0.237500X0.300000X-0.237500X0.300000X-0.237500X-0.300000X0*%
%TD*%
%TA.AperFunction,SMDPad,CuDef*%
%ADD22R,1.500000X0.900000*%
%TD*%
%TA.AperFunction,SMDPad,CuDef*%
%ADD23R,0.900000X1.500000*%
%TD*%
%TA.AperFunction,HeatsinkPad*%
%ADD24C,1.400000*%
%TD*%
%TA.AperFunction,HeatsinkPad*%
%ADD25C,1.300000*%
%TD*%
%TA.AperFunction,SMDPad,CuDef*%
%ADD26R,3.900000X3.900000*%
%TD*%
%TA.AperFunction,SMDPad,CuDef*%
%ADD27RoundRect,0.250000X0.400000X0.625000X-0.400000X0.625000X-0.400000X-0.625000X0.400000X-0.625000X0*%
%TD*%
%TA.AperFunction,SMDPad,CuDef*%
%ADD28RoundRect,0.150000X0.675000X0.150000X-0.675000X0.150000X-0.675000X-0.150000X0.675000X-0.150000X0*%
%TD*%
%TA.AperFunction,SMDPad,CuDef*%
%ADD29RoundRect,0.237500X-0.300000X-0.237500X0.300000X-0.237500X0.300000X0.237500X-0.300000X0.237500X0*%
%TD*%
%TA.AperFunction,SMDPad,CuDef*%
%ADD30RoundRect,0.250000X-0.337500X-0.475000X0.337500X-0.475000X0.337500X0.475000X-0.337500X0.475000X0*%
%TD*%
%TA.AperFunction,SMDPad,CuDef*%
%ADD31R,1.200000X0.700000*%
%TD*%
%TA.AperFunction,SMDPad,CuDef*%
%ADD32R,0.800000X1.000000*%
%TD*%
%TA.AperFunction,SMDPad,CuDef*%
%ADD33R,2.800000X1.000000*%
%TD*%
%TA.AperFunction,SMDPad,CuDef*%
%ADD34R,1.200000X1.000000*%
%TD*%
%TA.AperFunction,SMDPad,CuDef*%
%ADD35R,1.900000X1.300000*%
%TD*%
%TA.AperFunction,SMDPad,CuDef*%
%ADD36R,1.200000X0.400000*%
%TD*%
%TA.AperFunction,SMDPad,CuDef*%
%ADD37RoundRect,0.150000X-0.512500X-0.150000X0.512500X-0.150000X0.512500X0.150000X-0.512500X0.150000X0*%
%TD*%
%TA.AperFunction,SMDPad,CuDef*%
%ADD38RoundRect,0.237500X0.300000X0.237500X-0.300000X0.237500X-0.300000X-0.237500X0.300000X-0.237500X0*%
%TD*%
%TA.AperFunction,SMDPad,CuDef*%
%ADD39R,1.269581X2.362200*%
%TD*%
%TA.AperFunction,SMDPad,CuDef*%
%ADD40RoundRect,0.250000X0.650000X-0.250000X0.650000X0.250000X-0.650000X0.250000X-0.650000X-0.250000X0*%
%TD*%
%TA.AperFunction,SMDPad,CuDef*%
%ADD41RoundRect,0.225000X-0.225000X-0.375000X0.225000X-0.375000X0.225000X0.375000X-0.225000X0.375000X0*%
%TD*%
%TA.AperFunction,ViaPad*%
%ADD42C,0.450000*%
%TD*%
%TA.AperFunction,ViaPad*%
%ADD43C,0.600000*%
%TD*%
%TA.AperFunction,Conductor*%
%ADD44C,0.152400*%
%TD*%
%TA.AperFunction,Conductor*%
%ADD45C,1.000000*%
%TD*%
%TA.AperFunction,Conductor*%
%ADD46C,0.800000*%
%TD*%
%TA.AperFunction,Conductor*%
%ADD47C,0.300000*%
%TD*%
%TA.AperFunction,Conductor*%
%ADD48C,0.600000*%
%TD*%
%TA.AperFunction,Conductor*%
%ADD49C,0.400000*%
%TD*%
%TA.AperFunction,Conductor*%
%ADD50C,0.200000*%
%TD*%
%TA.AperFunction,Conductor*%
%ADD51C,0.500000*%
%TD*%
G04 APERTURE END LIST*
D10*
%TO.P,U6,1,VO*%
%TO.N,unconnected-(U6-VO-Pad1)*%
X124300000Y-91525000D03*
%TO.P,U6,2,VOUT*%
%TO.N,Net-(U6-VOUT)*%
X125800000Y-91525000D03*
%TO.P,U6,3,CAP1N*%
%TO.N,Net-(U6-CAP1N)*%
X127300000Y-91525000D03*
%TO.P,U6,4,CAP1P*%
%TO.N,Net-(U6-CAP1P)*%
X128800000Y-91525000D03*
%TO.P,U6,5,VDD*%
%TO.N,+3V3*%
X130300000Y-91525000D03*
%TO.P,U6,6,VSS*%
%TO.N,GND*%
X131800000Y-91525000D03*
%TO.P,U6,7,SDA*%
%TO.N,ESP32_IO18_SDA*%
X133300000Y-91525000D03*
%TO.P,U6,8,SCL*%
%TO.N,ESP32_IO17_SCL*%
X134800000Y-91525000D03*
%TO.P,U6,9,XRSETB*%
%TO.N,ESP32_IO47*%
X136300000Y-91525000D03*
%TD*%
D11*
%TO.P,U1,1,SDO*%
%TO.N,GND*%
X136880000Y-96300000D03*
%TO.P,U1,2,SCK*%
%TO.N,ESP32_IO17_SCL*%
X136880000Y-98840000D03*
%TO.P,U1,3,SDI*%
%TO.N,ESP32_IO18_SDA*%
X136880000Y-101380000D03*
%TO.P,U1,4,CSB*%
%TO.N,+3V3*%
X136880000Y-103920000D03*
%TO.P,U1,5,GND*%
%TO.N,GND*%
X136880000Y-106460000D03*
%TO.P,U1,6,V_core*%
%TO.N,+3V3*%
X136880000Y-109000000D03*
%TO.P,U1,7,V_io*%
X136880000Y-111540000D03*
%TD*%
D12*
%TO.P,U5,1,SCL*%
%TO.N,ESP32_IO17_SCL*%
X127290000Y-112390000D03*
%TO.P,U5,2,SDA*%
%TO.N,ESP32_IO18_SDA*%
X124750000Y-112390000D03*
%TO.P,U5,3,IO4*%
%TO.N,unconnected-(U5-IO4-Pad3)*%
X122210000Y-112390000D03*
%TO.P,U5,4,GND*%
%TO.N,GND*%
X119670000Y-112390000D03*
%TO.P,U5,5,3V3*%
%TO.N,+3V3*%
X117130000Y-112390000D03*
%TD*%
D13*
%TO.P,J1,S1,SHIELD*%
%TO.N,unconnected-(J1-SHIELD-PadS1)_2*%
X94480000Y-81430000D03*
D14*
%TO.N,unconnected-(J1-SHIELD-PadS1)*%
X90300000Y-81430000D03*
D13*
%TO.N,unconnected-(J1-SHIELD-PadS1)_3*%
X94480000Y-90070000D03*
D14*
%TO.N,unconnected-(J1-SHIELD-PadS1)_1*%
X90300000Y-90070000D03*
%TD*%
D15*
%TO.P,C2,1*%
%TO.N,VDD*%
X97000000Y-102937500D03*
%TO.P,C2,2*%
%TO.N,GND*%
X97000000Y-104662500D03*
%TD*%
%TO.P,C1,1*%
%TO.N,SW_1*%
X106600000Y-103237500D03*
%TO.P,C1,2*%
%TO.N,GND*%
X106600000Y-104962500D03*
%TD*%
D16*
%TO.P,R4,1*%
%TO.N,Net-(D1-A)*%
X107300000Y-107450000D03*
%TO.P,R4,2*%
%TO.N,+3V3*%
X107300000Y-110550000D03*
%TD*%
D15*
%TO.P,C8,1*%
%TO.N,ESP32_IO16*%
X133300000Y-82237500D03*
%TO.P,C8,2*%
%TO.N,GND*%
X133300000Y-83962500D03*
%TD*%
%TO.P,C11,1*%
%TO.N,VBUS*%
X96700000Y-93637500D03*
%TO.P,C11,2*%
%TO.N,GND*%
X96700000Y-95362500D03*
%TD*%
D17*
%TO.P,D8,1,K*%
%TO.N,VDD*%
X96650000Y-98200000D03*
%TO.P,D8,2,A*%
%TO.N,Net-(D8-A)*%
X93350000Y-98200000D03*
%TD*%
D18*
%TO.P,R14,1*%
%TO.N,Net-(D5-A)*%
X111350000Y-101300000D03*
%TO.P,R14,2*%
%TO.N,ESP32_IO4*%
X114450000Y-101300000D03*
%TD*%
D19*
%TO.P,C4,1*%
%TO.N,GND*%
X132800000Y-71462500D03*
%TO.P,C4,2*%
%TO.N,+3V3*%
X132800000Y-73537500D03*
%TD*%
D20*
%TO.P,R10,1*%
%TO.N,ESP32_IO0*%
X106800000Y-87550000D03*
%TO.P,R10,2*%
%TO.N,+3V3*%
X106800000Y-84450000D03*
%TD*%
D21*
%TO.P,C9,1*%
%TO.N,+3V3*%
X123550000Y-97612500D03*
%TO.P,C9,2*%
%TO.N,Net-(U6-VOUT)*%
X123550000Y-95887500D03*
%TD*%
D16*
%TO.P,R7,1*%
%TO.N,Net-(Q1-B)*%
X101300000Y-78700000D03*
%TO.P,R7,2*%
%TO.N,DTR*%
X101300000Y-81800000D03*
%TD*%
D22*
%TO.P,U4,1,GND*%
%TO.N,GND*%
X128450000Y-71240000D03*
%TO.P,U4,2,3V3*%
%TO.N,+3V3*%
X128450000Y-72510000D03*
%TO.P,U4,3,EN*%
%TO.N,ESP32_EN*%
X128450000Y-73780000D03*
%TO.P,U4,4,IO4*%
%TO.N,ESP32_IO4*%
X128450000Y-75050000D03*
%TO.P,U4,5,IO5*%
%TO.N,ESP32_IO5*%
X128450000Y-76320000D03*
%TO.P,U4,6,IO6*%
%TO.N,unconnected-(U4-IO6-Pad6)*%
X128450000Y-77590000D03*
%TO.P,U4,7,IO7*%
%TO.N,unconnected-(U4-IO7-Pad7)*%
X128450000Y-78860000D03*
%TO.P,U4,8,IO15*%
%TO.N,ESP32_IO15*%
X128450000Y-80130000D03*
%TO.P,U4,9,IO16*%
%TO.N,ESP32_IO16*%
X128450000Y-81400000D03*
%TO.P,U4,10,IO17*%
%TO.N,ESP32_IO17_SCL*%
X128450000Y-82670000D03*
%TO.P,U4,11,IO18*%
%TO.N,ESP32_IO18_SDA*%
X128450000Y-83940000D03*
%TO.P,U4,12,IO8*%
%TO.N,unconnected-(U4-IO8-Pad12)*%
X128450000Y-85210000D03*
%TO.P,U4,13,IO19*%
%TO.N,unconnected-(U4-IO19-Pad13)*%
X128450000Y-86480000D03*
%TO.P,U4,14,IO20*%
%TO.N,unconnected-(U4-IO20-Pad14)*%
X128450000Y-87750000D03*
D23*
%TO.P,U4,15,IO3*%
%TO.N,ESP32_IO3*%
X126685000Y-89000000D03*
%TO.P,U4,16,IO46*%
%TO.N,ESP32_IO46*%
X125415000Y-89000000D03*
%TO.P,U4,17,IO9*%
%TO.N,unconnected-(U4-IO9-Pad17)*%
X124145000Y-89000000D03*
%TO.P,U4,18,IO10*%
%TO.N,ESP32_IO10_SPI_CS*%
X122875000Y-89000000D03*
%TO.P,U4,19,IO11*%
%TO.N,ESP32_IO11_SPI_MOSI*%
X121605000Y-89000000D03*
%TO.P,U4,20,IO12*%
%TO.N,ESP32_IO12_SPI_SCK*%
X120335000Y-89000000D03*
%TO.P,U4,21,IO13*%
%TO.N,ESP32_IO13_SPI_MISO*%
X119065000Y-89000000D03*
%TO.P,U4,22,IO14*%
%TO.N,unconnected-(U4-IO14-Pad22)*%
X117795000Y-89000000D03*
%TO.P,U4,23,IO21*%
%TO.N,unconnected-(U4-IO21-Pad23)*%
X116525000Y-89000000D03*
%TO.P,U4,24,IO47*%
%TO.N,ESP32_IO47*%
X115255000Y-89000000D03*
%TO.P,U4,25,IO48*%
%TO.N,unconnected-(U4-IO48-Pad25)*%
X113985000Y-89000000D03*
%TO.P,U4,26,IO45*%
%TO.N,unconnected-(U4-IO45-Pad26)*%
X112715000Y-89000000D03*
D22*
%TO.P,U4,27,IO0*%
%TO.N,ESP32_IO0*%
X110950000Y-87750000D03*
%TO.P,U4,28,IO35*%
%TO.N,unconnected-(U4-IO35-Pad28)*%
X110950000Y-86480000D03*
%TO.P,U4,29,IO36*%
%TO.N,unconnected-(U4-IO36-Pad29)*%
X110950000Y-85210000D03*
%TO.P,U4,30,IO37*%
%TO.N,unconnected-(U4-IO37-Pad30)*%
X110950000Y-83940000D03*
%TO.P,U4,31,IO38*%
%TO.N,unconnected-(U4-IO38-Pad31)*%
X110950000Y-82670000D03*
%TO.P,U4,32,IO39*%
%TO.N,unconnected-(U4-IO39-Pad32)*%
X110950000Y-81400000D03*
%TO.P,U4,33,IO40*%
%TO.N,unconnected-(U4-IO40-Pad33)*%
X110950000Y-80130000D03*
%TO.P,U4,34,IO41*%
%TO.N,unconnected-(U4-IO41-Pad34)*%
X110950000Y-78860000D03*
%TO.P,U4,35,IO42*%
%TO.N,unconnected-(U4-IO42-Pad35)*%
X110950000Y-77590000D03*
%TO.P,U4,36,RXD0*%
%TO.N,ESP32_RXD*%
X110950000Y-76320000D03*
%TO.P,U4,37,TXD0*%
%TO.N,ESP32_TXD*%
X110950000Y-75050000D03*
%TO.P,U4,38,IO2*%
%TO.N,unconnected-(U4-IO2-Pad38)*%
X110950000Y-73780000D03*
%TO.P,U4,39,IO1*%
%TO.N,unconnected-(U4-IO1-Pad39)*%
X110950000Y-72510000D03*
%TO.P,U4,40,GND*%
%TO.N,GND*%
X110950000Y-71240000D03*
D24*
%TO.P,U4,41,GND*%
X122400000Y-80200000D03*
X122400000Y-77700000D03*
D25*
X121200000Y-79000000D03*
D26*
X121200000Y-78960000D03*
D24*
X120000000Y-77700000D03*
X119950000Y-80200000D03*
%TD*%
D20*
%TO.P,R6,1*%
%TO.N,Net-(D3-A)*%
X99550000Y-99800000D03*
%TO.P,R6,2*%
%TO.N,+3V3*%
X99550000Y-96700000D03*
%TD*%
%TO.P,R2,1*%
%TO.N,Net-(J1-CC1)*%
X92300000Y-83000000D03*
%TO.P,R2,2*%
%TO.N,GND*%
X92300000Y-79900000D03*
%TD*%
D27*
%TO.P,R11,1*%
%TO.N,GND*%
X134600000Y-88500000D03*
%TO.P,R11,2*%
%TO.N,ESP32_IO46*%
X131500000Y-88500000D03*
%TD*%
D16*
%TO.P,R12,1*%
%TO.N,ESP32_IO47*%
X120800000Y-94450000D03*
%TO.P,R12,2*%
%TO.N,+3V3*%
X120800000Y-97550000D03*
%TD*%
D18*
%TO.P,R13,1*%
%TO.N,Net-(D4-A)*%
X111300000Y-104800000D03*
%TO.P,R13,2*%
%TO.N,ESP32_IO3*%
X114400000Y-104800000D03*
%TD*%
D28*
%TO.P,U3,1,OUT*%
%TO.N,SW_1*%
X104425000Y-103095000D03*
%TO.P,U3,2,SENSE/ADJ*%
X104425000Y-104365000D03*
%TO.P,U3,3,GND*%
%TO.N,GND*%
X104425000Y-105635000D03*
%TO.P,U3,4,NC*%
%TO.N,unconnected-(U3-NC-Pad4)*%
X104425000Y-106905000D03*
%TO.P,U3,5,\u002ASHDN*%
%TO.N,VDD*%
X99175000Y-106905000D03*
%TO.P,U3,6,GND*%
%TO.N,GND*%
X99175000Y-105635000D03*
%TO.P,U3,7,GND*%
X99175000Y-104365000D03*
%TO.P,U3,8,IN*%
%TO.N,VDD*%
X99175000Y-103095000D03*
%TD*%
D29*
%TO.P,C10,1*%
%TO.N,Net-(U6-CAP1N)*%
X126137500Y-93700000D03*
%TO.P,C10,2*%
%TO.N,Net-(U6-CAP1P)*%
X127862500Y-93700000D03*
%TD*%
D30*
%TO.P,C3,1*%
%TO.N,+3V3*%
X98762500Y-94200000D03*
%TO.P,C3,2*%
%TO.N,GND*%
X100837500Y-94200000D03*
%TD*%
D31*
%TO.P,J4,1,DAT2*%
%TO.N,unconnected-(J4-DAT2-Pad1)*%
X138360000Y-88495000D03*
%TO.P,J4,2,DAT3/CD*%
%TO.N,ESP32_IO10_SPI_CS*%
X138360000Y-87395000D03*
%TO.P,J4,3,CMD*%
%TO.N,ESP32_IO11_SPI_MOSI*%
X138360000Y-86295000D03*
%TO.P,J4,4,VDD*%
%TO.N,+3V3*%
X138360000Y-85195000D03*
%TO.P,J4,5,CLK*%
%TO.N,ESP32_IO12_SPI_SCK*%
X138360000Y-84095000D03*
%TO.P,J4,6,VSS*%
%TO.N,GND*%
X138360000Y-82995000D03*
%TO.P,J4,7,DAT0*%
%TO.N,ESP32_IO13_SPI_MISO*%
X138360000Y-81895000D03*
%TO.P,J4,8,DAT1*%
%TO.N,unconnected-(J4-DAT1-Pad8)*%
X138360000Y-80795000D03*
%TO.P,J4,9,DET_B*%
%TO.N,unconnected-(J4-DET_B-Pad9)*%
X138360000Y-79845000D03*
D32*
%TO.P,J4,10,DET_A*%
%TO.N,unconnected-(J4-DET_A-Pad10)*%
X148860000Y-78895000D03*
D33*
%TO.P,J4,11,SHIELD*%
%TO.N,unconnected-(J4-SHIELD-Pad11)_2*%
X153010000Y-78895000D03*
D34*
%TO.N,unconnected-(J4-SHIELD-Pad11)_3*%
X142660000Y-78895000D03*
%TO.N,unconnected-(J4-SHIELD-Pad11)*%
X138360000Y-90045000D03*
D35*
%TO.N,unconnected-(J4-SHIELD-Pad11)_1*%
X153460000Y-92395000D03*
%TD*%
D36*
%TO.P,U2,1,~{DTR}*%
%TO.N,DTR*%
X103500000Y-85035000D03*
%TO.P,U2,2,~{RTS}*%
%TO.N,RTS*%
X103500000Y-85670000D03*
%TO.P,U2,3,VCCIO*%
%TO.N,+3V3*%
X103500000Y-86305000D03*
%TO.P,U2,4,RXD*%
%TO.N,ESP32_TXD*%
X103500000Y-86940000D03*
%TO.P,U2,5,~{RI}*%
%TO.N,unconnected-(U2-~{RI}-Pad5)*%
X103500000Y-87575000D03*
%TO.P,U2,6,GND*%
%TO.N,GND*%
X103500000Y-88210000D03*
%TO.P,U2,7,~{DSR}*%
%TO.N,unconnected-(U2-~{DSR}-Pad7)*%
X103500000Y-88845000D03*
%TO.P,U2,8,~{DCD}*%
%TO.N,unconnected-(U2-~{DCD}-Pad8)*%
X103500000Y-89480000D03*
%TO.P,U2,9,~{CTS}*%
%TO.N,unconnected-(U2-~{CTS}-Pad9)*%
X103500000Y-90115000D03*
%TO.P,U2,10,CBUS2*%
%TO.N,CBUS2*%
X103500000Y-90750000D03*
%TO.P,U2,11,USBDP*%
%TO.N,USB_DP*%
X98300000Y-90750000D03*
%TO.P,U2,12,USBDM*%
%TO.N,USB_DM*%
X98300000Y-90115000D03*
%TO.P,U2,13,3V3OUT*%
%TO.N,+3V3*%
X98300000Y-89480000D03*
%TO.P,U2,14,~{RESET}*%
X98300000Y-88845000D03*
%TO.P,U2,15,VCC*%
X98300000Y-88210000D03*
%TO.P,U2,16,GND*%
%TO.N,GND*%
X98300000Y-87575000D03*
%TO.P,U2,17,CBUS1*%
%TO.N,CBUS1*%
X98300000Y-86940000D03*
%TO.P,U2,18,CBUS0*%
%TO.N,unconnected-(U2-CBUS0-Pad18)*%
X98300000Y-86305000D03*
%TO.P,U2,19,CBUS3*%
%TO.N,unconnected-(U2-CBUS3-Pad19)*%
X98300000Y-85670000D03*
%TO.P,U2,20,TXD*%
%TO.N,Net-(U2-TXD)*%
X98300000Y-85035000D03*
%TD*%
D20*
%TO.P,R5,1*%
%TO.N,Net-(D2-A)*%
X102300000Y-100550000D03*
%TO.P,R5,2*%
%TO.N,+3V3*%
X102300000Y-97450000D03*
%TD*%
D16*
%TO.P,R1,1*%
%TO.N,Net-(J1-CC2)*%
X92300000Y-88450000D03*
%TO.P,R1,2*%
%TO.N,GND*%
X92300000Y-91550000D03*
%TD*%
D37*
%TO.P,U7,1,OUT*%
%TO.N,Net-(D8-A)*%
X92225000Y-95700000D03*
%TO.P,U7,2,GND*%
%TO.N,GND*%
X92225000Y-94750000D03*
%TO.P,U7,3,FLT_N*%
%TO.N,unconnected-(U7-FLT_N-Pad3)*%
X92225000Y-93800000D03*
%TO.P,U7,4,EN*%
%TO.N,VBUS*%
X94500000Y-93800000D03*
%TO.P,U7,5,IN*%
X94500000Y-95700000D03*
%TD*%
D18*
%TO.P,R3,1*%
%TO.N,Net-(U2-TXD)*%
X100300000Y-74250000D03*
%TO.P,R3,2*%
%TO.N,ESP32_RXD*%
X103400000Y-74250000D03*
%TD*%
D15*
%TO.P,C5,1*%
%TO.N,GND*%
X130550000Y-71275000D03*
%TO.P,C5,2*%
%TO.N,+3V3*%
X130550000Y-73000000D03*
%TD*%
D27*
%TO.P,R9,1*%
%TO.N,ESP32_EN*%
X108800000Y-92000000D03*
%TO.P,R9,2*%
%TO.N,+3V3*%
X105700000Y-92000000D03*
%TD*%
D38*
%TO.P,C6,1*%
%TO.N,ESP32_EN*%
X108800000Y-94500000D03*
%TO.P,C6,2*%
%TO.N,GND*%
X107075000Y-94500000D03*
%TD*%
D39*
%TO.P,C12,1*%
%TO.N,VDD*%
X94791220Y-101600000D03*
%TO.P,C12,2*%
%TO.N,GND*%
X92200000Y-101600000D03*
%TD*%
D21*
%TO.P,C7,1*%
%TO.N,ESP32_IO15*%
X133300000Y-79762500D03*
%TO.P,C7,2*%
%TO.N,GND*%
X133300000Y-78037500D03*
%TD*%
D18*
%TO.P,R15,1*%
%TO.N,Net-(D6-A)*%
X111350000Y-98550000D03*
%TO.P,R15,2*%
%TO.N,ESP32_IO5*%
X114450000Y-98550000D03*
%TD*%
D16*
%TO.P,R8,1*%
%TO.N,Net-(Q2-B)*%
X104050000Y-78700000D03*
%TO.P,R8,2*%
%TO.N,RTS*%
X104050000Y-81800000D03*
%TD*%
D40*
%TO.P,Y1,1,1*%
%TO.N,ESP32_IO16*%
X131300000Y-82250000D03*
%TO.P,Y1,2,2*%
%TO.N,ESP32_IO15*%
X131300000Y-79750000D03*
%TD*%
D41*
%TO.P,D7,1,K*%
%TO.N,VDD*%
X98850000Y-109800000D03*
%TO.P,D7,2,A*%
%TO.N,SW_1*%
X102150000Y-109800000D03*
%TD*%
D42*
%TO.N,GND*%
X95950000Y-82550000D03*
X101000000Y-88500000D03*
D43*
X92200000Y-101600000D03*
D42*
X96700000Y-95362500D03*
X92300000Y-91550000D03*
X100837500Y-94200000D03*
X99925000Y-104500000D03*
X99100000Y-87650000D03*
X97000000Y-104662500D03*
X107075000Y-94500000D03*
X96800000Y-86150000D03*
X105200000Y-88500000D03*
X107500000Y-105300000D03*
D43*
%TO.N,SW_1*%
X102400000Y-107300000D03*
X102400000Y-111600000D03*
%TO.N,+3V3*%
X115900000Y-110100000D03*
X105300000Y-111100000D03*
X106800000Y-84450000D03*
X108300000Y-89600000D03*
X123300000Y-100000000D03*
X132800000Y-73537500D03*
X140400000Y-86100000D03*
%TO.N,ESP32_EN*%
X127300000Y-73750000D03*
X108800000Y-92000000D03*
%TO.N,Net-(D1-A)*%
X106669000Y-105952400D03*
%TO.N,CBUS1*%
X101150000Y-96300000D03*
%TO.N,Net-(D2-A)*%
X99925000Y-101500000D03*
%TO.N,CBUS2*%
X103800000Y-91050000D03*
%TO.N,Net-(D3-A)*%
X99550000Y-99800000D03*
%TO.N,Net-(D4-A)*%
X111300000Y-104800000D03*
%TO.N,Net-(D5-A)*%
X111350000Y-101300000D03*
%TO.N,Net-(D6-A)*%
X111350000Y-98550000D03*
%TO.N,USB_DP*%
X98100000Y-91150000D03*
%TO.N,Net-(J1-CC1)*%
X92300000Y-83000000D03*
%TO.N,Net-(J1-CC2)*%
X92300000Y-88450000D03*
%TO.N,USB_DM*%
X97328600Y-90110700D03*
%TO.N,ESP32_IO11_SPI_MOSI*%
X137100000Y-85800000D03*
X121600000Y-87800000D03*
%TO.N,ESP32_IO10_SPI_CS*%
X122800000Y-87800000D03*
X137000000Y-86800000D03*
%TO.N,ESP32_IO12_SPI_SCK*%
X137100000Y-83700000D03*
X120300000Y-87800000D03*
%TO.N,ESP32_IO13_SPI_MISO*%
X137400000Y-81900000D03*
X119100000Y-87900000D03*
%TO.N,RTS*%
X104050000Y-81800000D03*
%TO.N,Net-(Q1-B)*%
X106950000Y-76800000D03*
%TO.N,DTR*%
X101300000Y-81800000D03*
%TO.N,ESP32_IO0*%
X109450000Y-87550000D03*
X105650000Y-79550000D03*
X106800000Y-87550000D03*
X105750000Y-83200000D03*
%TO.N,Net-(Q2-B)*%
X105000000Y-78600000D03*
%TO.N,ESP32_RXD*%
X109800000Y-75850000D03*
X108850000Y-74450000D03*
%TO.N,ESP32_IO46*%
X131500000Y-88500000D03*
X125600000Y-87700000D03*
%TO.N,ESP32_IO47*%
X120800000Y-94450000D03*
%TO.N,ESP32_IO3*%
X126500000Y-90100000D03*
X114400000Y-104800000D03*
%TO.N,ESP32_IO4*%
X114450000Y-101300000D03*
X127400000Y-75100000D03*
%TO.N,ESP32_IO5*%
X114450000Y-98550000D03*
X127400000Y-76400000D03*
%TO.N,VBUS*%
X96200000Y-83600000D03*
X95900000Y-88200000D03*
%TD*%
D44*
%TO.N,GND*%
X131400000Y-94300000D02*
X130500000Y-94300000D01*
X91250000Y-91550000D02*
X90850000Y-91950000D01*
X117700000Y-71240000D02*
X110950000Y-71240000D01*
X131800000Y-91525000D02*
X131800000Y-93900000D01*
X104425000Y-105635000D02*
X105927500Y-105635000D01*
X91550000Y-101550000D02*
X90850000Y-100850000D01*
X107162500Y-104962500D02*
X107500000Y-105300000D01*
X97000000Y-78400000D02*
X95500000Y-79900000D01*
X97547600Y-87575000D02*
X98300000Y-87575000D01*
X134300000Y-88500000D02*
X134600000Y-88500000D01*
X132800000Y-71462500D02*
X133862500Y-71462500D01*
X96800000Y-86827400D02*
X97547600Y-87575000D01*
X92200000Y-101600000D02*
X92150000Y-101550000D01*
X134905000Y-78505000D02*
X134905000Y-82995000D01*
X110950000Y-71240000D02*
X100760000Y-71240000D01*
X134437500Y-78037500D02*
X134905000Y-78505000D01*
X117700000Y-71240000D02*
X128450000Y-71240000D01*
X99175000Y-104365000D02*
X99790000Y-104365000D01*
X97000000Y-75000000D02*
X97000000Y-78400000D01*
X133300000Y-83962500D02*
X133937500Y-83962500D01*
X92150000Y-101550000D02*
X91550000Y-101550000D01*
X96100000Y-82400000D02*
X95950000Y-82550000D01*
X139695000Y-82995000D02*
X138360000Y-82995000D01*
X99025000Y-87575000D02*
X99100000Y-87650000D01*
X139540000Y-106460000D02*
X141500000Y-104500000D01*
X97900000Y-104662500D02*
X98202500Y-104662500D01*
X104910000Y-88210000D02*
X105200000Y-88500000D01*
X103500000Y-88210000D02*
X104910000Y-88210000D01*
X134800000Y-83100000D02*
X134850000Y-83050000D01*
X90850000Y-95150000D02*
X90850000Y-94950000D01*
X138300000Y-96300000D02*
X141500000Y-93100000D01*
X141500000Y-84800000D02*
X139695000Y-82995000D01*
X132612500Y-71275000D02*
X132800000Y-71462500D01*
X96100000Y-80500000D02*
X96100000Y-82400000D01*
X133300000Y-78037500D02*
X134437500Y-78037500D01*
X120000000Y-73450000D02*
X117790000Y-71240000D01*
X98202500Y-104662500D02*
X99175000Y-105635000D01*
X90850000Y-94950000D02*
X91050000Y-94750000D01*
X104425000Y-105635000D02*
X99175000Y-105635000D01*
X130550000Y-71275000D02*
X132612500Y-71275000D01*
X130515000Y-71240000D02*
X130550000Y-71275000D01*
X98877500Y-104662500D02*
X99175000Y-104365000D01*
X134905000Y-82995000D02*
X138360000Y-82995000D01*
X105927500Y-105635000D02*
X106600000Y-104962500D01*
X130500000Y-94300000D02*
X119670000Y-105130000D01*
X136880000Y-96300000D02*
X138300000Y-96300000D01*
X90850000Y-100850000D02*
X90850000Y-95150000D01*
X103500000Y-88210000D02*
X101290000Y-88210000D01*
X136880000Y-106460000D02*
X139540000Y-106460000D01*
X92300000Y-91550000D02*
X91250000Y-91550000D01*
X141500000Y-93100000D02*
X141500000Y-84800000D01*
X141500000Y-104500000D02*
X141500000Y-93100000D01*
X131800000Y-93900000D02*
X131400000Y-94300000D01*
X134850000Y-83050000D02*
X134905000Y-82995000D01*
X134400000Y-72000000D02*
X134400000Y-78000000D01*
X131800000Y-91525000D02*
X131800000Y-91000000D01*
X97900000Y-104662500D02*
X98877500Y-104662500D01*
X128450000Y-71240000D02*
X130515000Y-71240000D01*
X96800000Y-86150000D02*
X96800000Y-86827400D01*
X133862500Y-71462500D02*
X134400000Y-72000000D01*
X90850000Y-91950000D02*
X90850000Y-95150000D01*
X120000000Y-77700000D02*
X120000000Y-73450000D01*
X119670000Y-105130000D02*
X119670000Y-112390000D01*
X106600000Y-104962500D02*
X107162500Y-104962500D01*
X91050000Y-94750000D02*
X92225000Y-94750000D01*
X134800000Y-88300000D02*
X134800000Y-83100000D01*
X98300000Y-87575000D02*
X99025000Y-87575000D01*
X97000000Y-104662500D02*
X97900000Y-104662500D01*
X100760000Y-71240000D02*
X97000000Y-75000000D01*
X99790000Y-104365000D02*
X99925000Y-104500000D01*
X95500000Y-79900000D02*
X96100000Y-80500000D01*
X134600000Y-88500000D02*
X134800000Y-88300000D01*
X101290000Y-88210000D02*
X101000000Y-88500000D01*
X134400000Y-78000000D02*
X134437500Y-78037500D01*
X92300000Y-79900000D02*
X95500000Y-79900000D01*
X117790000Y-71240000D02*
X117700000Y-71240000D01*
X133937500Y-83962500D02*
X134850000Y-83050000D01*
D45*
%TO.N,VDD*%
X94750000Y-105500000D02*
X94750000Y-104400000D01*
X97000000Y-102100000D02*
X97000000Y-102937500D01*
X94750000Y-104400000D02*
X96212500Y-102937500D01*
X96150000Y-101250000D02*
X97000000Y-102100000D01*
X97995000Y-103095000D02*
X99175000Y-103095000D01*
X94791220Y-101557598D02*
X95098818Y-101250000D01*
X99175000Y-106905000D02*
X96155000Y-106905000D01*
X99175000Y-109475000D02*
X98850000Y-109800000D01*
X95098818Y-101250000D02*
X96150000Y-101250000D01*
X94791220Y-101600000D02*
X94791220Y-101557598D01*
X99175000Y-106905000D02*
X99175000Y-109475000D01*
X96650000Y-100750000D02*
X96650000Y-98200000D01*
X96212500Y-102937500D02*
X97000000Y-102937500D01*
X96155000Y-106905000D02*
X94750000Y-105500000D01*
X96150000Y-101250000D02*
X96650000Y-100750000D01*
X97837500Y-102937500D02*
X97995000Y-103095000D01*
X97000000Y-102937500D02*
X97837500Y-102937500D01*
D46*
%TO.N,SW_1*%
X109650000Y-112700000D02*
X110450000Y-111900000D01*
X105695000Y-103095000D02*
X105750000Y-103095000D01*
X104425000Y-104365000D02*
X105695000Y-103095000D01*
X105750000Y-103095000D02*
X106457500Y-103095000D01*
X102150000Y-107550000D02*
X102400000Y-107300000D01*
X107187500Y-103237500D02*
X106600000Y-103237500D01*
X108400000Y-104400000D02*
X108350000Y-104400000D01*
X102150000Y-111350000D02*
X102400000Y-111600000D01*
X108350000Y-104400000D02*
X107187500Y-103237500D01*
X106457500Y-103095000D02*
X106600000Y-103237500D01*
X102150000Y-109800000D02*
X102150000Y-107550000D01*
X102400000Y-111600000D02*
X103500000Y-112700000D01*
X110450000Y-111900000D02*
X110450000Y-107450000D01*
X108400000Y-105400000D02*
X108400000Y-104400000D01*
X104425000Y-103095000D02*
X105750000Y-103095000D01*
X103500000Y-112700000D02*
X109650000Y-112700000D01*
X102150000Y-109800000D02*
X102150000Y-111350000D01*
X110450000Y-107450000D02*
X108400000Y-105400000D01*
D47*
%TO.N,+3V3*%
X99110000Y-88210000D02*
X98300000Y-88210000D01*
D48*
X98762500Y-95912500D02*
X99550000Y-96700000D01*
X99550000Y-96700000D02*
X99550000Y-96750000D01*
D49*
X127900000Y-94900000D02*
X128800000Y-94900000D01*
D48*
X132800000Y-73537500D02*
X131087500Y-73537500D01*
X118400000Y-103500000D02*
X120800000Y-101100000D01*
X120800000Y-101100000D02*
X120800000Y-97550000D01*
X118400000Y-107600000D02*
X118400000Y-103500000D01*
X118400000Y-99100000D02*
X116100000Y-96800000D01*
D47*
X99500000Y-88600000D02*
X99110000Y-88210000D01*
D49*
X108300000Y-89600000D02*
X105900000Y-92000000D01*
D48*
X105300000Y-111100000D02*
X106750000Y-111100000D01*
X103450000Y-97450000D02*
X102300000Y-97450000D01*
D49*
X103500000Y-86305000D02*
X104645000Y-86305000D01*
D47*
X99500000Y-89100000D02*
X99500000Y-88600000D01*
D49*
X102300000Y-97450000D02*
X102300000Y-95400000D01*
D47*
X99069800Y-89480000D02*
X99500000Y-89910200D01*
D48*
X140400000Y-86100000D02*
X139495000Y-85195000D01*
D47*
X99500000Y-89100000D02*
X99245000Y-88845000D01*
D48*
X104100000Y-96800000D02*
X103450000Y-97450000D01*
X116100000Y-96800000D02*
X104100000Y-96800000D01*
X118400000Y-103500000D02*
X118400000Y-99100000D01*
D49*
X104645000Y-86305000D02*
X106500000Y-84450000D01*
D48*
X130060000Y-72510000D02*
X130550000Y-73000000D01*
X99550000Y-96750000D02*
X100250000Y-97450000D01*
X120800000Y-97550000D02*
X123487500Y-97550000D01*
X120800000Y-101100000D02*
X121900000Y-100000000D01*
X106750000Y-111100000D02*
X107300000Y-110550000D01*
X128450000Y-72510000D02*
X130060000Y-72510000D01*
D50*
X130300000Y-91525000D02*
X130300000Y-92200000D01*
D48*
X100250000Y-97450000D02*
X102300000Y-97450000D01*
D47*
X99500000Y-89910200D02*
X99500000Y-89100000D01*
X99500000Y-91500000D02*
X98762500Y-92237500D01*
D49*
X123550000Y-97612500D02*
X125187500Y-97612500D01*
D47*
X99500000Y-89910200D02*
X99500000Y-91500000D01*
X98762500Y-92237500D02*
X98762500Y-94200000D01*
D49*
X102300000Y-95400000D02*
X105700000Y-92000000D01*
X130300000Y-93400000D02*
X130300000Y-91525000D01*
X125187500Y-97612500D02*
X127900000Y-94900000D01*
X106500000Y-84450000D02*
X106800000Y-84450000D01*
D48*
X123487500Y-97550000D02*
X123550000Y-97612500D01*
X131087500Y-73537500D02*
X130550000Y-73000000D01*
X115900000Y-110100000D02*
X118400000Y-107600000D01*
X139495000Y-85195000D02*
X138360000Y-85195000D01*
X98762500Y-94200000D02*
X98762500Y-95912500D01*
D49*
X128800000Y-94900000D02*
X130300000Y-93400000D01*
X105900000Y-92000000D02*
X105700000Y-92000000D01*
D48*
X121900000Y-100000000D02*
X123300000Y-100000000D01*
D47*
X98300000Y-89480000D02*
X99069800Y-89480000D01*
X99245000Y-88845000D02*
X98300000Y-88845000D01*
D50*
%TO.N,ESP32_EN*%
X127330000Y-73780000D02*
X128450000Y-73780000D01*
X127300000Y-73750000D02*
X127330000Y-73780000D01*
X108800000Y-94500000D02*
X108800000Y-92000000D01*
%TO.N,ESP32_IO15*%
X131300000Y-79750000D02*
X133287500Y-79750000D01*
X129470000Y-80130000D02*
X129850000Y-79750000D01*
X133287500Y-79750000D02*
X133300000Y-79762500D01*
X128450000Y-80130000D02*
X129470000Y-80130000D01*
X129850000Y-79750000D02*
X131300000Y-79750000D01*
%TO.N,ESP32_IO16*%
X131450000Y-82250000D02*
X131462500Y-82237500D01*
X129100000Y-81400000D02*
X129950000Y-82250000D01*
X131300000Y-82250000D02*
X131450000Y-82250000D01*
X129950000Y-82250000D02*
X131300000Y-82250000D01*
X131462500Y-82237500D02*
X133300000Y-82237500D01*
X128450000Y-81400000D02*
X129100000Y-81400000D01*
%TO.N,Net-(U6-VOUT)*%
X123550000Y-94450000D02*
X123550000Y-95887500D01*
X125800000Y-91525000D02*
X125800000Y-92200000D01*
X125800000Y-92200000D02*
X123550000Y-94450000D01*
%TO.N,Net-(U6-CAP1N)*%
X127300000Y-92000000D02*
X126137500Y-93162500D01*
X126137500Y-93162500D02*
X126137500Y-93700000D01*
X127300000Y-91525000D02*
X127300000Y-92000000D01*
%TO.N,Net-(U6-CAP1P)*%
X127862500Y-93700000D02*
X127862500Y-93237500D01*
X127862500Y-93237500D02*
X128800000Y-92300000D01*
X128800000Y-92300000D02*
X128800000Y-91525000D01*
%TO.N,Net-(D1-A)*%
X106669000Y-105952400D02*
X107047600Y-105952400D01*
X107300000Y-106200000D02*
X107300000Y-107450000D01*
X107050000Y-105950000D02*
X107300000Y-106200000D01*
X107047600Y-105952400D02*
X107050000Y-105950000D01*
%TO.N,CBUS1*%
X98300000Y-86940000D02*
X99100000Y-86940000D01*
X99800000Y-95100000D02*
X101000000Y-96300000D01*
X100200000Y-88040000D02*
X100200000Y-91750000D01*
X100200000Y-91750000D02*
X99800000Y-92150000D01*
X99100000Y-86940000D02*
X100200000Y-88040000D01*
X101000000Y-96300000D02*
X101150000Y-96300000D01*
X99800000Y-92150000D02*
X99800000Y-95100000D01*
%TO.N,Net-(D2-A)*%
X100875000Y-100550000D02*
X99925000Y-101500000D01*
X102300000Y-100550000D02*
X100875000Y-100550000D01*
%TO.N,CBUS2*%
X103800000Y-91050000D02*
X103500000Y-90750000D01*
D44*
%TO.N,USB_DP*%
X98100000Y-90950000D02*
X98300000Y-90750000D01*
X98100000Y-91150000D02*
X98100000Y-90950000D01*
%TO.N,USB_DM*%
X97332900Y-90115000D02*
X98300000Y-90115000D01*
X97328600Y-90110700D02*
X97332900Y-90115000D01*
D50*
%TO.N,ESP32_IO11_SPI_MOSI*%
X138360000Y-86295000D02*
X137595000Y-86295000D01*
X121600000Y-88995000D02*
X121605000Y-89000000D01*
X137595000Y-86295000D02*
X137100000Y-85800000D01*
X121600000Y-87800000D02*
X121600000Y-88995000D01*
%TO.N,ESP32_IO10_SPI_CS*%
X122800000Y-88925000D02*
X122875000Y-89000000D01*
X137595000Y-87395000D02*
X137000000Y-86800000D01*
X138360000Y-87395000D02*
X137595000Y-87395000D01*
X122800000Y-87800000D02*
X122800000Y-88925000D01*
%TO.N,ESP32_IO12_SPI_SCK*%
X138360000Y-84095000D02*
X137495000Y-84095000D01*
X120300000Y-87800000D02*
X120300000Y-88965000D01*
X120300000Y-88965000D02*
X120335000Y-89000000D01*
X137495000Y-84095000D02*
X137100000Y-83700000D01*
%TO.N,ESP32_IO13_SPI_MISO*%
X119100000Y-88965000D02*
X119065000Y-89000000D01*
X119100000Y-87900000D02*
X119100000Y-88965000D01*
X138360000Y-81895000D02*
X137405000Y-81895000D01*
X137405000Y-81895000D02*
X137400000Y-81900000D01*
%TO.N,RTS*%
X103500000Y-85670000D02*
X104280000Y-85670000D01*
X104550000Y-85400000D02*
X104550000Y-82300000D01*
X104550000Y-82300000D02*
X104050000Y-81800000D01*
X104280000Y-85670000D02*
X104550000Y-85400000D01*
%TO.N,Net-(Q1-B)*%
X101300000Y-78700000D02*
X102500000Y-77500000D01*
X105700000Y-77500000D02*
X106250000Y-77500000D01*
X106250000Y-77500000D02*
X106950000Y-76800000D01*
X102500000Y-77500000D02*
X105700000Y-77500000D01*
%TO.N,DTR*%
X101300000Y-81800000D02*
X101300000Y-83700000D01*
X102635000Y-85035000D02*
X103500000Y-85035000D01*
X101300000Y-83700000D02*
X102635000Y-85035000D01*
%TO.N,ESP32_IO0*%
X109450000Y-87550000D02*
X110750000Y-87550000D01*
X110750000Y-87550000D02*
X110950000Y-87750000D01*
X105650000Y-79550000D02*
X105650000Y-83100000D01*
X106800000Y-87550000D02*
X109450000Y-87550000D01*
X105650000Y-83100000D02*
X105750000Y-83200000D01*
%TO.N,Net-(Q2-B)*%
X104150000Y-78600000D02*
X104050000Y-78700000D01*
X105000000Y-78600000D02*
X104150000Y-78600000D01*
%TO.N,Net-(U2-TXD)*%
X98750000Y-74250000D02*
X100300000Y-74250000D01*
X97550000Y-75450000D02*
X98750000Y-74250000D01*
X97550000Y-84700000D02*
X97550000Y-75450000D01*
X98300000Y-85035000D02*
X97885000Y-85035000D01*
X97885000Y-85035000D02*
X97550000Y-84700000D01*
%TO.N,ESP32_RXD*%
X110870000Y-76400000D02*
X110950000Y-76320000D01*
X108850000Y-74450000D02*
X108650000Y-74250000D01*
X108650000Y-74250000D02*
X103400000Y-74250000D01*
X109800000Y-75850000D02*
X109800000Y-76250000D01*
X109950000Y-76400000D02*
X110870000Y-76400000D01*
X109800000Y-76250000D02*
X109950000Y-76400000D01*
%TO.N,ESP32_IO46*%
X125415000Y-89000000D02*
X125415000Y-87885000D01*
X125415000Y-87885000D02*
X125600000Y-87700000D01*
%TO.N,ESP32_IO47*%
X115255000Y-92955000D02*
X116750000Y-94450000D01*
X116750000Y-94450000D02*
X120800000Y-94450000D01*
X115255000Y-89000000D02*
X115255000Y-92955000D01*
%TO.N,ESP32_IO3*%
X126685000Y-89000000D02*
X126685000Y-89915000D01*
X126685000Y-89915000D02*
X126500000Y-90100000D01*
%TO.N,ESP32_IO4*%
X128450000Y-75050000D02*
X127450000Y-75050000D01*
X127450000Y-75050000D02*
X127400000Y-75100000D01*
%TO.N,ESP32_IO5*%
X127480000Y-76320000D02*
X127400000Y-76400000D01*
X128450000Y-76320000D02*
X127480000Y-76320000D01*
%TO.N,ESP32_IO18_SDA*%
X133300000Y-100000000D02*
X134680000Y-101380000D01*
X132700000Y-86800000D02*
X132700000Y-89800000D01*
X133300000Y-90400000D02*
X133300000Y-91525000D01*
X133300000Y-91525000D02*
X133300000Y-100000000D01*
X134680000Y-101380000D02*
X136880000Y-101380000D01*
X133300000Y-100000000D02*
X124750000Y-108550000D01*
X124750000Y-108550000D02*
X124750000Y-112390000D01*
X129840000Y-83940000D02*
X132700000Y-86800000D01*
X128450000Y-83940000D02*
X129840000Y-83940000D01*
X132700000Y-89800000D02*
X133300000Y-90400000D01*
%TO.N,ESP32_IO17_SCL*%
X134800000Y-97800000D02*
X135840000Y-98840000D01*
X128450000Y-82670000D02*
X129470000Y-82670000D01*
X133300000Y-89400000D02*
X134800000Y-90900000D01*
X129470000Y-82670000D02*
X133300000Y-86500000D01*
X135840000Y-98840000D02*
X136880000Y-98840000D01*
X133300000Y-86500000D02*
X133300000Y-89400000D01*
X134800000Y-91525000D02*
X134800000Y-97800000D01*
X134800000Y-90900000D02*
X134800000Y-91525000D01*
%TO.N,ESP32_TXD*%
X108150000Y-85450000D02*
X108150000Y-75600000D01*
X108150000Y-75600000D02*
X108700000Y-75050000D01*
X105650000Y-86300000D02*
X107300000Y-86300000D01*
X105010000Y-86940000D02*
X105650000Y-86300000D01*
X108700000Y-75050000D02*
X110950000Y-75050000D01*
X107300000Y-86300000D02*
X108150000Y-85450000D01*
X103500000Y-86940000D02*
X105010000Y-86940000D01*
D48*
%TO.N,VBUS*%
X94500000Y-93800000D02*
X96537500Y-93800000D01*
D51*
X96200000Y-83600000D02*
X96200000Y-85500000D01*
X95900000Y-85800000D02*
X95900000Y-88200000D01*
D50*
X96562500Y-93637500D02*
X96700000Y-93637500D01*
D51*
X95900000Y-89100000D02*
X96200000Y-89400000D01*
D48*
X94500000Y-95700000D02*
X96562500Y-93637500D01*
D51*
X95900000Y-88200000D02*
X95900000Y-89100000D01*
X96200000Y-85500000D02*
X95900000Y-85800000D01*
D50*
X96537500Y-93800000D02*
X96700000Y-93637500D01*
X94662500Y-93637500D02*
X94500000Y-93800000D01*
D51*
X96200000Y-89400000D02*
X96200000Y-93137500D01*
X96200000Y-93137500D02*
X96700000Y-93637500D01*
D46*
%TO.N,Net-(D8-A)*%
X92225000Y-95700000D02*
X92700000Y-95700000D01*
X93350000Y-96350000D02*
X93350000Y-98200000D01*
X92700000Y-95700000D02*
X93350000Y-96350000D01*
D50*
X92700000Y-95700000D02*
X92800000Y-95800000D01*
%TD*%
%TA.AperFunction,Conductor*%
%TO.N,GND*%
G36*
X92923000Y-89620184D02*
G01*
X92968755Y-89672988D01*
X92978699Y-89742146D01*
X92970524Y-89771946D01*
X92967951Y-89778157D01*
X92967947Y-89778170D01*
X92929500Y-89971456D01*
X92929500Y-89971459D01*
X92929500Y-90168541D01*
X92929500Y-90168543D01*
X92929499Y-90168543D01*
X92946063Y-90251808D01*
X92939836Y-90321400D01*
X92896973Y-90376577D01*
X92831084Y-90399822D01*
X92824446Y-90400000D01*
X92550000Y-90400000D01*
X92550000Y-91300000D01*
X93674999Y-91300000D01*
X93674999Y-91190472D01*
X93694684Y-91123433D01*
X93747488Y-91077678D01*
X93816646Y-91067734D01*
X93823170Y-91068851D01*
X93831459Y-91070500D01*
X93831460Y-91070500D01*
X95128543Y-91070500D01*
X95286443Y-91039091D01*
X95301308Y-91036134D01*
X95370900Y-91042361D01*
X95426077Y-91085224D01*
X95449322Y-91151113D01*
X95449500Y-91157751D01*
X95449500Y-92875500D01*
X95429815Y-92942539D01*
X95377011Y-92988294D01*
X95325500Y-92999500D01*
X93921798Y-92999500D01*
X93884932Y-93002401D01*
X93884926Y-93002402D01*
X93727106Y-93048254D01*
X93727103Y-93048255D01*
X93585637Y-93131917D01*
X93585629Y-93131923D01*
X93469423Y-93248129D01*
X93469414Y-93248140D01*
X93469229Y-93248455D01*
X93469019Y-93248650D01*
X93464639Y-93254298D01*
X93463727Y-93253591D01*
X93418157Y-93296136D01*
X93349415Y-93308637D01*
X93284827Y-93281988D01*
X93260643Y-93254078D01*
X93260361Y-93254298D01*
X93256323Y-93249092D01*
X93255771Y-93248455D01*
X93255585Y-93248140D01*
X93255576Y-93248129D01*
X93139370Y-93131923D01*
X93139362Y-93131917D01*
X93037585Y-93071727D01*
X92997898Y-93048256D01*
X92997897Y-93048255D01*
X92997896Y-93048255D01*
X92997893Y-93048254D01*
X92840073Y-93002402D01*
X92840067Y-93002401D01*
X92803201Y-92999500D01*
X92803194Y-92999500D01*
X91646806Y-92999500D01*
X91646798Y-92999500D01*
X91609932Y-93002401D01*
X91609926Y-93002402D01*
X91452106Y-93048254D01*
X91452103Y-93048255D01*
X91310637Y-93131917D01*
X91310629Y-93131923D01*
X91194423Y-93248129D01*
X91194417Y-93248137D01*
X91110755Y-93389603D01*
X91110754Y-93389606D01*
X91064902Y-93547426D01*
X91064901Y-93547432D01*
X91062000Y-93584298D01*
X91062000Y-94015701D01*
X91064901Y-94052567D01*
X91064902Y-94052573D01*
X91110754Y-94210393D01*
X91110756Y-94210399D01*
X91111926Y-94212377D01*
X91112369Y-94214126D01*
X91113853Y-94217554D01*
X91113299Y-94217793D01*
X91129103Y-94280102D01*
X91113749Y-94332395D01*
X91114317Y-94332641D01*
X91112327Y-94337239D01*
X91111928Y-94338599D01*
X91111222Y-94339791D01*
X91111216Y-94339806D01*
X91065400Y-94497505D01*
X91065399Y-94497511D01*
X91065204Y-94499998D01*
X91065205Y-94500000D01*
X91330685Y-94500000D01*
X91393806Y-94517268D01*
X91452102Y-94551744D01*
X91478075Y-94559290D01*
X91609926Y-94597597D01*
X91609929Y-94597597D01*
X91609931Y-94597598D01*
X91646806Y-94600500D01*
X91646814Y-94600500D01*
X91902920Y-94600500D01*
X91969959Y-94620185D01*
X92015714Y-94672989D01*
X92025658Y-94742147D01*
X91996633Y-94805703D01*
X91950372Y-94839060D01*
X91920908Y-94851265D01*
X91827245Y-94890061D01*
X91779793Y-94899500D01*
X91646798Y-94899500D01*
X91609932Y-94902401D01*
X91609926Y-94902402D01*
X91452106Y-94948254D01*
X91452103Y-94948255D01*
X91393806Y-94982732D01*
X91330685Y-95000000D01*
X91065205Y-95000000D01*
X91065204Y-95000001D01*
X91065399Y-95002488D01*
X91065400Y-95002494D01*
X91111216Y-95160193D01*
X91111220Y-95160203D01*
X91111927Y-95161398D01*
X91112195Y-95162454D01*
X91114316Y-95167356D01*
X91113524Y-95167698D01*
X91129103Y-95229123D01*
X91113493Y-95282284D01*
X91113855Y-95282441D01*
X91112587Y-95285369D01*
X91111927Y-95287620D01*
X91110759Y-95289594D01*
X91110754Y-95289607D01*
X91064902Y-95447426D01*
X91064901Y-95447432D01*
X91062000Y-95484298D01*
X91062000Y-95915701D01*
X91064901Y-95952567D01*
X91064902Y-95952573D01*
X91110754Y-96110393D01*
X91110755Y-96110396D01*
X91110756Y-96110398D01*
X91147676Y-96172826D01*
X91194417Y-96251862D01*
X91194423Y-96251870D01*
X91310629Y-96368076D01*
X91310633Y-96368079D01*
X91310635Y-96368081D01*
X91452102Y-96451744D01*
X91468741Y-96456578D01*
X91609926Y-96497597D01*
X91609929Y-96497597D01*
X91609931Y-96497598D01*
X91646806Y-96500500D01*
X91779793Y-96500500D01*
X91827245Y-96509939D01*
X91962334Y-96565894D01*
X91962336Y-96565894D01*
X91962341Y-96565896D01*
X92136304Y-96600499D01*
X92136307Y-96600500D01*
X92136309Y-96600500D01*
X92275638Y-96600500D01*
X92342677Y-96620185D01*
X92363319Y-96636819D01*
X92413181Y-96686681D01*
X92446666Y-96748004D01*
X92449500Y-96774362D01*
X92449500Y-97537024D01*
X92443206Y-97576028D01*
X92409651Y-97677290D01*
X92399500Y-97776647D01*
X92399500Y-98623337D01*
X92399501Y-98623355D01*
X92409650Y-98722707D01*
X92409651Y-98722710D01*
X92462996Y-98883694D01*
X92463001Y-98883705D01*
X92552029Y-99028040D01*
X92552032Y-99028044D01*
X92671955Y-99147967D01*
X92671959Y-99147970D01*
X92816294Y-99236998D01*
X92816297Y-99236999D01*
X92816303Y-99237003D01*
X92977292Y-99290349D01*
X93076655Y-99300500D01*
X93623344Y-99300499D01*
X93623352Y-99300498D01*
X93623355Y-99300498D01*
X93677760Y-99294940D01*
X93722708Y-99290349D01*
X93883697Y-99237003D01*
X94028044Y-99147968D01*
X94147968Y-99028044D01*
X94237003Y-98883697D01*
X94290349Y-98722708D01*
X94300500Y-98623345D01*
X94300499Y-97776656D01*
X94299155Y-97763502D01*
X94290349Y-97677292D01*
X94290348Y-97677288D01*
X94256794Y-97576028D01*
X94250500Y-97537024D01*
X94250500Y-96624500D01*
X94270185Y-96557461D01*
X94322989Y-96511706D01*
X94374500Y-96500500D01*
X95078186Y-96500500D01*
X95078194Y-96500500D01*
X95115069Y-96497598D01*
X95115071Y-96497597D01*
X95115073Y-96497597D01*
X95170192Y-96481583D01*
X95272898Y-96451744D01*
X95414365Y-96368081D01*
X95530581Y-96251865D01*
X95614244Y-96110398D01*
X95618914Y-96094323D01*
X95656517Y-96035440D01*
X95719988Y-96006232D01*
X95789175Y-96015975D01*
X95842111Y-96061577D01*
X95843528Y-96063820D01*
X95880054Y-96123037D01*
X96001961Y-96244944D01*
X96001965Y-96244947D01*
X96148688Y-96335448D01*
X96148699Y-96335453D01*
X96312347Y-96389680D01*
X96413352Y-96399999D01*
X96450000Y-96399999D01*
X96950000Y-96399999D01*
X96986640Y-96399999D01*
X96986654Y-96399998D01*
X97087652Y-96389680D01*
X97251300Y-96335453D01*
X97251311Y-96335448D01*
X97398034Y-96244947D01*
X97398038Y-96244944D01*
X97519944Y-96123038D01*
X97519947Y-96123034D01*
X97610448Y-95976311D01*
X97610453Y-95976300D01*
X97664680Y-95812652D01*
X97674999Y-95711654D01*
X97675000Y-95711641D01*
X97675000Y-95612500D01*
X96950000Y-95612500D01*
X96950000Y-96399999D01*
X96450000Y-96399999D01*
X96450000Y-95236500D01*
X96469685Y-95169461D01*
X96522489Y-95123706D01*
X96574000Y-95112500D01*
X97695319Y-95112500D01*
X97711870Y-95103462D01*
X97781562Y-95108443D01*
X97825377Y-95140352D01*
X97827181Y-95138549D01*
X97925681Y-95237049D01*
X97959166Y-95298372D01*
X97962000Y-95324730D01*
X97962000Y-95991346D01*
X97992761Y-96145989D01*
X97992764Y-96146001D01*
X98053102Y-96291672D01*
X98053109Y-96291685D01*
X98140710Y-96422788D01*
X98144576Y-96427499D01*
X98142889Y-96428883D01*
X98171666Y-96481583D01*
X98174500Y-96507941D01*
X98174500Y-97150001D01*
X98174501Y-97150019D01*
X98185000Y-97252796D01*
X98185001Y-97252799D01*
X98224486Y-97371955D01*
X98240186Y-97419334D01*
X98332288Y-97568656D01*
X98456344Y-97692712D01*
X98605666Y-97784814D01*
X98772203Y-97839999D01*
X98874991Y-97850500D01*
X99467059Y-97850499D01*
X99534098Y-97870183D01*
X99554740Y-97886818D01*
X99628211Y-97960289D01*
X99699707Y-98031785D01*
X99739712Y-98071790D01*
X99870814Y-98159390D01*
X99870827Y-98159397D01*
X99970006Y-98200478D01*
X99970007Y-98200478D01*
X100016502Y-98219737D01*
X100135926Y-98243492D01*
X100171152Y-98250499D01*
X100171155Y-98250500D01*
X100171157Y-98250500D01*
X100171158Y-98250500D01*
X100971042Y-98250500D01*
X101038081Y-98270185D01*
X101076580Y-98309402D01*
X101082288Y-98318656D01*
X101206344Y-98442712D01*
X101355666Y-98534814D01*
X101522203Y-98589999D01*
X101624991Y-98600500D01*
X102975008Y-98600499D01*
X103077797Y-98589999D01*
X103244334Y-98534814D01*
X103393656Y-98442712D01*
X103517712Y-98318656D01*
X103535713Y-98289471D01*
X103587658Y-98242748D01*
X103617051Y-98232953D01*
X103683497Y-98219737D01*
X103806674Y-98168716D01*
X103829172Y-98159397D01*
X103829172Y-98159396D01*
X103829179Y-98159394D01*
X103960289Y-98071789D01*
X104395259Y-97636819D01*
X104456582Y-97603334D01*
X104482940Y-97600500D01*
X110095178Y-97600500D01*
X110162217Y-97620185D01*
X110207972Y-97672989D01*
X110217916Y-97742147D01*
X110212885Y-97763499D01*
X110211752Y-97766916D01*
X110210000Y-97772204D01*
X110199500Y-97874983D01*
X110199500Y-99225001D01*
X110199501Y-99225018D01*
X110210000Y-99327796D01*
X110210001Y-99327799D01*
X110265185Y-99494331D01*
X110265187Y-99494336D01*
X110279678Y-99517829D01*
X110357288Y-99643656D01*
X110481344Y-99767712D01*
X110565243Y-99819461D01*
X110611967Y-99871409D01*
X110623190Y-99940372D01*
X110595346Y-100004454D01*
X110565243Y-100030539D01*
X110481342Y-100082289D01*
X110357289Y-100206342D01*
X110265187Y-100355663D01*
X110265185Y-100355668D01*
X110250607Y-100399661D01*
X110210001Y-100522203D01*
X110210001Y-100522204D01*
X110210000Y-100522204D01*
X110199500Y-100624983D01*
X110199500Y-101975001D01*
X110199501Y-101975018D01*
X110210000Y-102077796D01*
X110210001Y-102077799D01*
X110265185Y-102244331D01*
X110265187Y-102244336D01*
X110290306Y-102285061D01*
X110357288Y-102393656D01*
X110481344Y-102517712D01*
X110630666Y-102609814D01*
X110797203Y-102664999D01*
X110899991Y-102675500D01*
X111800008Y-102675499D01*
X111800016Y-102675498D01*
X111800019Y-102675498D01*
X111856302Y-102669748D01*
X111902797Y-102664999D01*
X112069334Y-102609814D01*
X112218656Y-102517712D01*
X112342712Y-102393656D01*
X112434814Y-102244334D01*
X112489999Y-102077797D01*
X112500500Y-101975009D01*
X112500499Y-100624992D01*
X112489999Y-100522203D01*
X112434814Y-100355666D01*
X112342712Y-100206344D01*
X112218656Y-100082288D01*
X112218655Y-100082287D01*
X112134757Y-100030539D01*
X112088032Y-99978591D01*
X112076809Y-99909629D01*
X112104653Y-99845546D01*
X112134757Y-99819461D01*
X112218656Y-99767712D01*
X112342712Y-99643656D01*
X112434814Y-99494334D01*
X112489999Y-99327797D01*
X112500500Y-99225009D01*
X112500499Y-97874992D01*
X112496924Y-97839999D01*
X112489999Y-97772203D01*
X112487133Y-97763553D01*
X112487116Y-97763502D01*
X112484716Y-97693674D01*
X112520448Y-97633632D01*
X112582969Y-97602441D01*
X112604823Y-97600500D01*
X113195178Y-97600500D01*
X113262217Y-97620185D01*
X113307972Y-97672989D01*
X113317916Y-97742147D01*
X113312885Y-97763499D01*
X113311752Y-97766916D01*
X113310000Y-97772204D01*
X113299500Y-97874983D01*
X113299500Y-99225001D01*
X113299501Y-99225018D01*
X113310000Y-99327796D01*
X113310001Y-99327799D01*
X113365185Y-99494331D01*
X113365187Y-99494336D01*
X113379678Y-99517829D01*
X113457288Y-99643656D01*
X113581344Y-99767712D01*
X113665243Y-99819461D01*
X113711967Y-99871409D01*
X113723190Y-99940372D01*
X113695346Y-100004454D01*
X113665243Y-100030539D01*
X113581342Y-100082289D01*
X113457289Y-100206342D01*
X113365187Y-100355663D01*
X113365185Y-100355668D01*
X113350607Y-100399661D01*
X113310001Y-100522203D01*
X113310001Y-100522204D01*
X113310000Y-100522204D01*
X113299500Y-100624983D01*
X113299500Y-101975001D01*
X113299501Y-101975018D01*
X113310000Y-102077796D01*
X113310001Y-102077799D01*
X113365185Y-102244331D01*
X113365187Y-102244336D01*
X113390306Y-102285061D01*
X113457288Y-102393656D01*
X113581344Y-102517712D01*
X113730666Y-102609814D01*
X113897203Y-102664999D01*
X113999991Y-102675500D01*
X114900008Y-102675499D01*
X114900016Y-102675498D01*
X114900019Y-102675498D01*
X114956302Y-102669748D01*
X115002797Y-102664999D01*
X115169334Y-102609814D01*
X115318656Y-102517712D01*
X115442712Y-102393656D01*
X115534814Y-102244334D01*
X115589999Y-102077797D01*
X115600500Y-101975009D01*
X115600499Y-100624992D01*
X115589999Y-100522203D01*
X115534814Y-100355666D01*
X115442712Y-100206344D01*
X115318656Y-100082288D01*
X115318655Y-100082287D01*
X115234757Y-100030539D01*
X115188032Y-99978591D01*
X115176809Y-99909629D01*
X115204653Y-99845546D01*
X115234757Y-99819461D01*
X115318656Y-99767712D01*
X115442712Y-99643656D01*
X115534814Y-99494334D01*
X115589999Y-99327797D01*
X115600500Y-99225009D01*
X115600499Y-97874992D01*
X115596924Y-97839999D01*
X115589999Y-97772203D01*
X115587133Y-97763553D01*
X115587116Y-97763502D01*
X115584716Y-97693674D01*
X115620448Y-97633632D01*
X115682969Y-97602441D01*
X115704823Y-97600500D01*
X115717060Y-97600500D01*
X115784099Y-97620185D01*
X115804741Y-97636819D01*
X117563181Y-99395259D01*
X117596666Y-99456582D01*
X117599500Y-99482940D01*
X117599500Y-107217060D01*
X117579815Y-107284099D01*
X117563181Y-107304741D01*
X115270186Y-109597735D01*
X115270180Y-109597742D01*
X115229092Y-109663132D01*
X115227204Y-109666047D01*
X115190604Y-109720824D01*
X115190600Y-109720832D01*
X115190266Y-109721639D01*
X115180713Y-109740127D01*
X115174212Y-109750474D01*
X115174210Y-109750477D01*
X115152982Y-109811140D01*
X115150504Y-109817631D01*
X115130264Y-109866496D01*
X115130263Y-109866502D01*
X115127550Y-109880140D01*
X115122975Y-109896898D01*
X115114634Y-109920735D01*
X115114632Y-109920742D01*
X115108890Y-109971696D01*
X115107288Y-109981994D01*
X115099500Y-110021152D01*
X115099500Y-110048085D01*
X115098720Y-110061969D01*
X115094435Y-110099998D01*
X115094435Y-110100001D01*
X115098720Y-110138029D01*
X115099500Y-110151914D01*
X115099500Y-110178844D01*
X115107288Y-110218003D01*
X115108890Y-110228303D01*
X115111054Y-110247500D01*
X115114251Y-110275876D01*
X115114632Y-110279252D01*
X115114633Y-110279260D01*
X115122976Y-110303104D01*
X115127550Y-110319860D01*
X115130262Y-110333496D01*
X115150509Y-110382377D01*
X115152986Y-110388867D01*
X115166401Y-110427204D01*
X115174212Y-110449524D01*
X115180709Y-110459865D01*
X115190268Y-110478365D01*
X115190603Y-110479173D01*
X115190605Y-110479179D01*
X115227223Y-110533982D01*
X115229114Y-110536900D01*
X115270180Y-110602257D01*
X115270182Y-110602260D01*
X115270184Y-110602262D01*
X115397738Y-110729816D01*
X115463096Y-110770883D01*
X115463131Y-110770905D01*
X115466040Y-110772790D01*
X115520821Y-110809394D01*
X115521606Y-110809719D01*
X115540134Y-110819289D01*
X115550478Y-110825789D01*
X115611175Y-110847028D01*
X115617607Y-110849484D01*
X115646021Y-110861253D01*
X115666497Y-110869735D01*
X115666498Y-110869735D01*
X115666503Y-110869737D01*
X115680139Y-110872449D01*
X115696898Y-110877023D01*
X115720745Y-110885368D01*
X115771714Y-110891110D01*
X115781992Y-110892709D01*
X115803050Y-110896898D01*
X115821157Y-110900500D01*
X115821158Y-110900500D01*
X115848085Y-110900500D01*
X115861969Y-110901280D01*
X115899998Y-110905565D01*
X115900000Y-110905565D01*
X115900002Y-110905565D01*
X115938031Y-110901280D01*
X115951915Y-110900500D01*
X115978841Y-110900500D01*
X115978842Y-110900500D01*
X116018017Y-110892707D01*
X116028283Y-110891110D01*
X116079255Y-110885368D01*
X116103100Y-110877023D01*
X116119862Y-110872448D01*
X116133497Y-110869737D01*
X116182389Y-110849484D01*
X116188837Y-110847023D01*
X116249522Y-110825789D01*
X116259868Y-110819287D01*
X116278390Y-110809720D01*
X116279179Y-110809394D01*
X116333987Y-110772771D01*
X116336825Y-110770931D01*
X116402262Y-110729816D01*
X116529816Y-110602262D01*
X119021789Y-108110289D01*
X119109394Y-107979179D01*
X119169737Y-107833497D01*
X119200500Y-107678842D01*
X119200500Y-107521158D01*
X119200500Y-103882940D01*
X119220185Y-103815901D01*
X119236819Y-103795259D01*
X122195259Y-100836819D01*
X122256582Y-100803334D01*
X122282940Y-100800500D01*
X123248085Y-100800500D01*
X123261969Y-100801280D01*
X123299998Y-100805565D01*
X123300000Y-100805565D01*
X123300002Y-100805565D01*
X123338031Y-100801280D01*
X123351915Y-100800500D01*
X123378841Y-100800500D01*
X123378842Y-100800500D01*
X123418017Y-100792707D01*
X123428283Y-100791110D01*
X123479255Y-100785368D01*
X123503100Y-100777023D01*
X123519862Y-100772448D01*
X123533497Y-100769737D01*
X123582389Y-100749484D01*
X123588837Y-100747023D01*
X123649522Y-100725789D01*
X123659868Y-100719287D01*
X123678390Y-100709720D01*
X123679179Y-100709394D01*
X123733987Y-100672771D01*
X123736825Y-100670931D01*
X123802262Y-100629816D01*
X123929816Y-100502262D01*
X123970928Y-100436831D01*
X123972780Y-100433975D01*
X123995708Y-100399661D01*
X124009394Y-100379179D01*
X124009720Y-100378390D01*
X124019287Y-100359868D01*
X124025789Y-100349522D01*
X124047023Y-100288837D01*
X124049484Y-100282389D01*
X124069737Y-100233497D01*
X124072448Y-100219862D01*
X124077023Y-100203100D01*
X124085368Y-100179255D01*
X124091110Y-100128283D01*
X124092707Y-100118017D01*
X124100500Y-100078842D01*
X124100500Y-100051914D01*
X124101280Y-100038029D01*
X124105565Y-100000001D01*
X124105565Y-99999998D01*
X124101280Y-99961969D01*
X124100500Y-99948085D01*
X124100500Y-99921157D01*
X124092711Y-99882003D01*
X124091110Y-99871714D01*
X124085368Y-99820745D01*
X124077023Y-99796898D01*
X124072449Y-99780139D01*
X124069737Y-99766503D01*
X124049484Y-99717607D01*
X124047028Y-99711175D01*
X124025789Y-99650478D01*
X124019289Y-99640134D01*
X124009719Y-99621606D01*
X124009394Y-99620821D01*
X123972790Y-99566040D01*
X123970905Y-99563131D01*
X123942443Y-99517834D01*
X123929816Y-99497738D01*
X123802262Y-99370184D01*
X123802260Y-99370182D01*
X123802257Y-99370180D01*
X123736900Y-99329114D01*
X123733982Y-99327223D01*
X123679179Y-99290605D01*
X123679173Y-99290603D01*
X123678365Y-99290268D01*
X123659865Y-99280709D01*
X123649524Y-99274212D01*
X123649523Y-99274211D01*
X123649522Y-99274211D01*
X123588867Y-99252986D01*
X123582377Y-99250509D01*
X123533496Y-99230262D01*
X123519860Y-99227550D01*
X123503104Y-99222976D01*
X123479260Y-99214633D01*
X123479256Y-99214632D01*
X123479255Y-99214632D01*
X123458575Y-99212301D01*
X123428303Y-99208890D01*
X123418003Y-99207288D01*
X123378844Y-99199500D01*
X123378842Y-99199500D01*
X123351915Y-99199500D01*
X123338031Y-99198720D01*
X123300002Y-99194435D01*
X123299998Y-99194435D01*
X123261969Y-99198720D01*
X123248085Y-99199500D01*
X121821155Y-99199500D01*
X121748691Y-99213914D01*
X121679100Y-99207687D01*
X121623922Y-99164824D01*
X121600678Y-99098934D01*
X121600500Y-99092297D01*
X121600500Y-98772016D01*
X121620185Y-98704977D01*
X121672989Y-98659222D01*
X121685488Y-98654313D01*
X121744334Y-98634814D01*
X121893656Y-98542712D01*
X122017712Y-98418656D01*
X122023420Y-98409402D01*
X122075368Y-98362678D01*
X122128958Y-98350500D01*
X122655448Y-98350500D01*
X122722487Y-98370185D01*
X122743129Y-98386819D01*
X122851650Y-98495340D01*
X122998484Y-98585908D01*
X123162247Y-98640174D01*
X123263323Y-98650500D01*
X123836676Y-98650499D01*
X123836684Y-98650498D01*
X123836687Y-98650498D01*
X123892030Y-98644844D01*
X123937753Y-98640174D01*
X124101516Y-98585908D01*
X124248350Y-98495340D01*
X124370340Y-98373350D01*
X124371233Y-98371901D01*
X124372104Y-98371117D01*
X124374821Y-98367683D01*
X124375407Y-98368147D01*
X124423180Y-98325179D01*
X124476771Y-98313000D01*
X125256496Y-98313000D01*
X125374765Y-98289474D01*
X125391828Y-98286080D01*
X125477726Y-98250500D01*
X125519307Y-98233277D01*
X125519308Y-98233276D01*
X125519311Y-98233275D01*
X125634043Y-98156614D01*
X128009080Y-95781577D01*
X129849500Y-95781577D01*
X129849500Y-95978422D01*
X129880290Y-96172826D01*
X129941117Y-96360029D01*
X130018401Y-96511706D01*
X130030476Y-96535405D01*
X130146172Y-96694646D01*
X130285354Y-96833828D01*
X130444595Y-96949524D01*
X130527455Y-96991743D01*
X130619970Y-97038882D01*
X130619972Y-97038882D01*
X130619975Y-97038884D01*
X130689189Y-97061373D01*
X130807173Y-97099709D01*
X131001578Y-97130500D01*
X131001583Y-97130500D01*
X131198422Y-97130500D01*
X131392826Y-97099709D01*
X131433685Y-97086433D01*
X131580025Y-97038884D01*
X131755405Y-96949524D01*
X131914646Y-96833828D01*
X132053828Y-96694646D01*
X132169524Y-96535405D01*
X132258884Y-96360025D01*
X132319709Y-96172826D01*
X132329597Y-96110396D01*
X132350500Y-95978422D01*
X132350500Y-95781577D01*
X132319709Y-95587173D01*
X132283261Y-95474999D01*
X132258884Y-95399975D01*
X132258882Y-95399972D01*
X132258882Y-95399970D01*
X132202649Y-95289607D01*
X132169524Y-95224595D01*
X132053828Y-95065354D01*
X131914646Y-94926172D01*
X131755405Y-94810476D01*
X131580029Y-94721117D01*
X131392826Y-94660290D01*
X131198422Y-94629500D01*
X131198417Y-94629500D01*
X131001583Y-94629500D01*
X131001578Y-94629500D01*
X130807173Y-94660290D01*
X130619970Y-94721117D01*
X130444594Y-94810476D01*
X130408849Y-94836447D01*
X130285354Y-94926172D01*
X130285352Y-94926174D01*
X130285351Y-94926174D01*
X130146174Y-95065351D01*
X130146174Y-95065352D01*
X130146172Y-95065354D01*
X130103777Y-95123706D01*
X130030476Y-95224594D01*
X129941117Y-95399970D01*
X129880290Y-95587173D01*
X129849500Y-95781577D01*
X128009080Y-95781577D01*
X128153838Y-95636819D01*
X128215161Y-95603334D01*
X128241519Y-95600500D01*
X128868996Y-95600500D01*
X128960040Y-95582389D01*
X129004328Y-95573580D01*
X129088717Y-95538625D01*
X129131807Y-95520777D01*
X129131808Y-95520776D01*
X129131811Y-95520775D01*
X129246543Y-95444114D01*
X130844113Y-93846543D01*
X130850287Y-93837304D01*
X130920775Y-93731811D01*
X130973580Y-93604328D01*
X130989359Y-93525001D01*
X131000500Y-93468995D01*
X131000500Y-92925469D01*
X131020185Y-92858430D01*
X131072989Y-92812675D01*
X131142147Y-92802731D01*
X131193391Y-92822367D01*
X131326316Y-92911185D01*
X131326328Y-92911192D01*
X131508308Y-92986569D01*
X131550000Y-92994862D01*
X131550000Y-91769975D01*
X131585095Y-91805070D01*
X131664905Y-91851148D01*
X131753922Y-91875000D01*
X131846078Y-91875000D01*
X131935095Y-91851148D01*
X132014905Y-91805070D01*
X132050000Y-91769975D01*
X132050000Y-92994862D01*
X132091690Y-92986569D01*
X132091692Y-92986569D01*
X132273671Y-92911192D01*
X132273684Y-92911185D01*
X132437458Y-92801754D01*
X132461963Y-92777249D01*
X132523286Y-92743763D01*
X132592978Y-92748746D01*
X132637327Y-92777248D01*
X132663181Y-92803102D01*
X132696666Y-92864425D01*
X132699500Y-92890783D01*
X132699500Y-99699902D01*
X132679815Y-99766941D01*
X132663181Y-99787583D01*
X124269481Y-108181282D01*
X124269475Y-108181290D01*
X124230117Y-108249462D01*
X124230117Y-108249464D01*
X124190423Y-108318214D01*
X124189363Y-108322171D01*
X124149499Y-108470943D01*
X124149499Y-108470945D01*
X124149499Y-108639046D01*
X124149500Y-108639059D01*
X124149500Y-111219345D01*
X124129815Y-111286384D01*
X124096623Y-111320920D01*
X123943121Y-111428402D01*
X123788402Y-111583121D01*
X123662900Y-111762357D01*
X123662898Y-111762361D01*
X123592382Y-111913583D01*
X123546209Y-111966022D01*
X123479016Y-111985174D01*
X123412135Y-111964958D01*
X123367618Y-111913583D01*
X123319033Y-111809394D01*
X123297102Y-111762362D01*
X123297099Y-111762358D01*
X123297099Y-111762357D01*
X123171599Y-111583124D01*
X123115475Y-111527000D01*
X123016877Y-111428402D01*
X122861863Y-111319860D01*
X122837638Y-111302897D01*
X122677669Y-111228303D01*
X122639330Y-111210425D01*
X122639326Y-111210424D01*
X122639322Y-111210422D01*
X122427977Y-111153793D01*
X122210002Y-111134723D01*
X122209998Y-111134723D01*
X122093067Y-111144953D01*
X121992023Y-111153793D01*
X121992020Y-111153793D01*
X121780677Y-111210422D01*
X121780670Y-111210424D01*
X121780670Y-111210425D01*
X121761543Y-111219344D01*
X121582361Y-111302898D01*
X121582357Y-111302900D01*
X121403121Y-111428402D01*
X121248402Y-111583121D01*
X121122900Y-111762357D01*
X121122900Y-111762358D01*
X121122898Y-111762361D01*
X121122898Y-111762362D01*
X121113528Y-111782456D01*
X121052105Y-111914176D01*
X121005932Y-111966615D01*
X120938738Y-111985766D01*
X120871857Y-111965550D01*
X120827341Y-111914175D01*
X120756667Y-111762614D01*
X120756666Y-111762612D01*
X120713124Y-111700428D01*
X120713124Y-111700427D01*
X120193787Y-112219764D01*
X120182518Y-112177708D01*
X120110110Y-112052292D01*
X120007708Y-111949890D01*
X119882292Y-111877482D01*
X119840234Y-111866212D01*
X120359571Y-111346874D01*
X120297387Y-111303333D01*
X120099159Y-111210898D01*
X120099150Y-111210894D01*
X119887894Y-111154289D01*
X119887884Y-111154287D01*
X119670001Y-111135225D01*
X119669999Y-111135225D01*
X119452115Y-111154287D01*
X119452105Y-111154289D01*
X119240849Y-111210894D01*
X119240840Y-111210898D01*
X119042613Y-111303333D01*
X118980428Y-111346874D01*
X119499766Y-111866212D01*
X119457708Y-111877482D01*
X119332292Y-111949890D01*
X119229890Y-112052292D01*
X119157482Y-112177708D01*
X119146212Y-112219766D01*
X118626874Y-111700428D01*
X118583333Y-111762613D01*
X118512658Y-111914175D01*
X118466485Y-111966614D01*
X118399292Y-111985766D01*
X118332411Y-111965550D01*
X118287894Y-111914175D01*
X118239033Y-111809394D01*
X118217102Y-111762362D01*
X118217099Y-111762358D01*
X118217099Y-111762357D01*
X118091599Y-111583124D01*
X118035475Y-111527000D01*
X117936877Y-111428402D01*
X117781863Y-111319860D01*
X117757638Y-111302897D01*
X117597669Y-111228303D01*
X117559330Y-111210425D01*
X117559326Y-111210424D01*
X117559322Y-111210422D01*
X117347977Y-111153793D01*
X117130002Y-111134723D01*
X117129998Y-111134723D01*
X117013067Y-111144953D01*
X116912023Y-111153793D01*
X116912020Y-111153793D01*
X116700677Y-111210422D01*
X116700670Y-111210424D01*
X116700670Y-111210425D01*
X116681543Y-111219344D01*
X116502361Y-111302898D01*
X116502357Y-111302900D01*
X116323121Y-111428402D01*
X116168402Y-111583121D01*
X116042900Y-111762357D01*
X116042898Y-111762361D01*
X115950426Y-111960668D01*
X115950422Y-111960677D01*
X115893793Y-112172020D01*
X115893793Y-112172024D01*
X115874723Y-112389997D01*
X115874723Y-112390002D01*
X115893793Y-112607975D01*
X115893793Y-112607979D01*
X115950422Y-112819322D01*
X115950424Y-112819326D01*
X115950425Y-112819330D01*
X116036330Y-113003553D01*
X116042898Y-113017639D01*
X116042902Y-113017645D01*
X116103632Y-113104376D01*
X116125960Y-113170582D01*
X116108950Y-113238349D01*
X116058002Y-113286163D01*
X116002058Y-113299500D01*
X110623362Y-113299500D01*
X110556323Y-113279815D01*
X110510568Y-113227011D01*
X110500624Y-113157853D01*
X110529649Y-113094297D01*
X110535681Y-113087819D01*
X111149461Y-112474039D01*
X111149464Y-112474036D01*
X111248013Y-112326547D01*
X111315895Y-112162666D01*
X111350500Y-111988692D01*
X111350500Y-111811308D01*
X111350500Y-107361309D01*
X111338305Y-107300000D01*
X111338305Y-107299996D01*
X111315896Y-107187341D01*
X111315895Y-107187334D01*
X111267895Y-107071452D01*
X111248013Y-107023453D01*
X111159247Y-106890606D01*
X111159246Y-106890604D01*
X111149466Y-106875966D01*
X110649835Y-106376335D01*
X110616350Y-106315012D01*
X110621334Y-106245320D01*
X110663206Y-106189387D01*
X110728670Y-106164970D01*
X110750108Y-106165295D01*
X110849991Y-106175500D01*
X111750008Y-106175499D01*
X111750016Y-106175498D01*
X111750019Y-106175498D01*
X111806302Y-106169748D01*
X111852797Y-106164999D01*
X112019334Y-106109814D01*
X112168656Y-106017712D01*
X112292712Y-105893656D01*
X112384814Y-105744334D01*
X112439999Y-105577797D01*
X112450500Y-105475009D01*
X112450499Y-104124992D01*
X112450498Y-104124983D01*
X113249500Y-104124983D01*
X113249500Y-105475001D01*
X113249501Y-105475018D01*
X113260000Y-105577796D01*
X113260001Y-105577799D01*
X113315185Y-105744331D01*
X113315187Y-105744336D01*
X113332957Y-105773145D01*
X113407288Y-105893656D01*
X113531344Y-106017712D01*
X113680666Y-106109814D01*
X113847203Y-106164999D01*
X113949991Y-106175500D01*
X114850008Y-106175499D01*
X114850016Y-106175498D01*
X114850019Y-106175498D01*
X114906302Y-106169748D01*
X114952797Y-106164999D01*
X115119334Y-106109814D01*
X115268656Y-106017712D01*
X115392712Y-105893656D01*
X115484814Y-105744334D01*
X115539999Y-105577797D01*
X115550500Y-105475009D01*
X115550499Y-104124992D01*
X115539999Y-104022203D01*
X115484814Y-103855666D01*
X115392712Y-103706344D01*
X115268656Y-103582288D01*
X115143997Y-103505398D01*
X115119336Y-103490187D01*
X115119331Y-103490185D01*
X115109116Y-103486800D01*
X114952797Y-103435001D01*
X114952795Y-103435000D01*
X114850010Y-103424500D01*
X113949998Y-103424500D01*
X113949980Y-103424501D01*
X113847203Y-103435000D01*
X113847200Y-103435001D01*
X113680668Y-103490185D01*
X113680663Y-103490187D01*
X113531342Y-103582289D01*
X113407289Y-103706342D01*
X113315187Y-103855663D01*
X113315186Y-103855666D01*
X113260001Y-104022203D01*
X113260001Y-104022204D01*
X113260000Y-104022204D01*
X113249500Y-104124983D01*
X112450498Y-104124983D01*
X112439999Y-104022203D01*
X112384814Y-103855666D01*
X112292712Y-103706344D01*
X112168656Y-103582288D01*
X112043997Y-103505398D01*
X112019336Y-103490187D01*
X112019331Y-103490185D01*
X112009116Y-103486800D01*
X111852797Y-103435001D01*
X111852795Y-103435000D01*
X111750010Y-103424500D01*
X110849998Y-103424500D01*
X110849980Y-103424501D01*
X110747203Y-103435000D01*
X110747200Y-103435001D01*
X110580668Y-103490185D01*
X110580663Y-103490187D01*
X110431342Y-103582289D01*
X110307289Y-103706342D01*
X110215187Y-103855663D01*
X110215186Y-103855666D01*
X110160001Y-104022203D01*
X110160001Y-104022204D01*
X110160000Y-104022204D01*
X110149500Y-104124983D01*
X110149500Y-105475001D01*
X110149501Y-105475019D01*
X110159703Y-105574882D01*
X110146933Y-105643575D01*
X110099052Y-105694459D01*
X110031262Y-105711379D01*
X109965086Y-105688963D01*
X109948664Y-105675164D01*
X109336819Y-105063319D01*
X109303334Y-105001996D01*
X109300500Y-104975638D01*
X109300500Y-104311306D01*
X109300499Y-104311304D01*
X109265896Y-104137341D01*
X109265893Y-104137332D01*
X109253811Y-104108164D01*
X109245924Y-104089121D01*
X109198016Y-103973459D01*
X109198009Y-103973446D01*
X109099464Y-103825965D01*
X109099461Y-103825961D01*
X108974035Y-103700535D01*
X108857784Y-103622859D01*
X108833504Y-103606635D01*
X108814717Y-103591217D01*
X107761539Y-102538038D01*
X107761538Y-102538037D01*
X107731116Y-102517710D01*
X107684604Y-102486632D01*
X107614047Y-102439487D01*
X107614040Y-102439483D01*
X107507940Y-102395536D01*
X107450166Y-102371605D01*
X107450158Y-102371603D01*
X107288539Y-102339455D01*
X107247634Y-102323377D01*
X107151522Y-102264095D01*
X107151517Y-102264093D01*
X107151516Y-102264092D01*
X106987753Y-102209826D01*
X106987751Y-102209825D01*
X106886684Y-102199500D01*
X106886677Y-102199500D01*
X106583543Y-102199500D01*
X106559355Y-102197118D01*
X106546192Y-102194500D01*
X106546191Y-102194500D01*
X105838691Y-102194500D01*
X104336309Y-102194500D01*
X104336306Y-102194500D01*
X104162341Y-102229103D01*
X104162332Y-102229106D01*
X104027245Y-102285061D01*
X103979793Y-102294500D01*
X103684298Y-102294500D01*
X103647432Y-102297401D01*
X103647426Y-102297402D01*
X103489606Y-102343254D01*
X103489603Y-102343255D01*
X103348137Y-102426917D01*
X103348129Y-102426923D01*
X103231923Y-102543129D01*
X103231917Y-102543137D01*
X103148255Y-102684603D01*
X103148254Y-102684606D01*
X103102402Y-102842426D01*
X103102401Y-102842432D01*
X103099500Y-102879298D01*
X103099500Y-103310701D01*
X103102401Y-103347567D01*
X103102402Y-103347573D01*
X103148254Y-103505393D01*
X103148255Y-103505396D01*
X103231917Y-103646862D01*
X103236702Y-103653031D01*
X103234256Y-103654927D01*
X103260857Y-103703642D01*
X103255873Y-103773334D01*
X103235069Y-103805703D01*
X103236702Y-103806969D01*
X103231917Y-103813137D01*
X103148255Y-103954603D01*
X103148254Y-103954606D01*
X103102402Y-104112426D01*
X103102401Y-104112432D01*
X103099500Y-104149298D01*
X103099500Y-104580701D01*
X103102401Y-104617567D01*
X103102402Y-104617573D01*
X103148254Y-104775393D01*
X103148255Y-104775396D01*
X103148256Y-104775398D01*
X103176407Y-104822999D01*
X103231917Y-104916862D01*
X103236702Y-104923031D01*
X103234369Y-104924840D01*
X103261210Y-104973995D01*
X103256226Y-105043687D01*
X103235470Y-105076021D01*
X103237097Y-105077283D01*
X103232313Y-105083449D01*
X103148718Y-105224801D01*
X103102899Y-105382513D01*
X103102704Y-105384998D01*
X103102705Y-105385000D01*
X104551000Y-105385000D01*
X104618039Y-105404685D01*
X104663794Y-105457489D01*
X104675000Y-105509000D01*
X104675000Y-105761000D01*
X104655315Y-105828039D01*
X104602511Y-105873794D01*
X104551000Y-105885000D01*
X103102705Y-105885000D01*
X103102704Y-105885001D01*
X103102899Y-105887486D01*
X103148718Y-106045198D01*
X103232314Y-106186552D01*
X103237100Y-106192722D01*
X103234640Y-106194629D01*
X103261210Y-106243288D01*
X103256226Y-106312980D01*
X103235162Y-106345781D01*
X103236699Y-106346974D01*
X103231915Y-106353140D01*
X103148255Y-106494603D01*
X103148253Y-106494606D01*
X103141384Y-106518253D01*
X103103778Y-106577139D01*
X103040305Y-106606345D01*
X102971118Y-106596599D01*
X102953417Y-106586760D01*
X102826552Y-106501991D01*
X102826542Y-106501986D01*
X102662666Y-106434106D01*
X102662658Y-106434104D01*
X102488694Y-106399500D01*
X102488691Y-106399500D01*
X102311308Y-106399500D01*
X102311306Y-106399500D01*
X102137339Y-106434104D01*
X102137333Y-106434106D01*
X101973455Y-106501986D01*
X101973446Y-106501991D01*
X101825964Y-106600536D01*
X101825960Y-106600539D01*
X101450540Y-106975958D01*
X101450537Y-106975961D01*
X101432110Y-107003541D01*
X101351988Y-107123449D01*
X101337856Y-107157569D01*
X101284105Y-107287333D01*
X101284103Y-107287341D01*
X101250392Y-107456819D01*
X101250384Y-107456864D01*
X101249500Y-107461308D01*
X101249500Y-109137024D01*
X101243206Y-109176028D01*
X101209651Y-109277290D01*
X101199500Y-109376647D01*
X101199500Y-110223337D01*
X101199501Y-110223355D01*
X101209650Y-110322707D01*
X101209651Y-110322710D01*
X101243206Y-110423971D01*
X101249500Y-110462975D01*
X101249500Y-111438696D01*
X101284103Y-111612658D01*
X101284105Y-111612666D01*
X101315596Y-111688691D01*
X101315596Y-111688692D01*
X101351984Y-111776542D01*
X101351985Y-111776544D01*
X101373935Y-111809394D01*
X101373935Y-111809395D01*
X101450532Y-111924031D01*
X101450534Y-111924034D01*
X101450535Y-111924035D01*
X101450536Y-111924036D01*
X101696205Y-112169704D01*
X101696224Y-112169725D01*
X102614319Y-113087819D01*
X102647804Y-113149142D01*
X102642820Y-113218833D01*
X102600948Y-113274767D01*
X102535484Y-113299184D01*
X102526638Y-113299500D01*
X89324500Y-113299500D01*
X89257461Y-113279815D01*
X89211706Y-113227011D01*
X89200500Y-113175500D01*
X89200500Y-109885258D01*
X91549500Y-109885258D01*
X91549500Y-110114741D01*
X91573723Y-110298720D01*
X91579452Y-110342238D01*
X91617358Y-110483705D01*
X91638842Y-110563887D01*
X91726650Y-110775876D01*
X91726657Y-110775890D01*
X91747009Y-110811140D01*
X91839705Y-110971696D01*
X91841392Y-110974617D01*
X91981081Y-111156661D01*
X91981089Y-111156670D01*
X92143330Y-111318911D01*
X92143338Y-111318918D01*
X92143339Y-111318919D01*
X92193962Y-111357764D01*
X92325382Y-111458607D01*
X92325385Y-111458608D01*
X92325388Y-111458611D01*
X92524112Y-111573344D01*
X92524117Y-111573346D01*
X92524123Y-111573349D01*
X92588525Y-111600025D01*
X92736113Y-111661158D01*
X92957762Y-111720548D01*
X93185266Y-111750500D01*
X93185273Y-111750500D01*
X93414727Y-111750500D01*
X93414734Y-111750500D01*
X93642238Y-111720548D01*
X93863887Y-111661158D01*
X94075888Y-111573344D01*
X94274612Y-111458611D01*
X94456661Y-111318919D01*
X94456665Y-111318914D01*
X94456670Y-111318911D01*
X94618911Y-111156670D01*
X94618914Y-111156665D01*
X94618919Y-111156661D01*
X94758611Y-110974612D01*
X94873344Y-110775888D01*
X94961158Y-110563887D01*
X95020548Y-110342238D01*
X95050500Y-110114734D01*
X95050500Y-109885266D01*
X95020548Y-109657762D01*
X94961158Y-109436113D01*
X94873344Y-109224112D01*
X94758611Y-109025388D01*
X94758608Y-109025385D01*
X94758607Y-109025382D01*
X94618918Y-108843338D01*
X94618911Y-108843330D01*
X94456670Y-108681089D01*
X94456661Y-108681081D01*
X94274617Y-108541392D01*
X94265861Y-108536337D01*
X94103698Y-108442712D01*
X94075890Y-108426657D01*
X94075876Y-108426650D01*
X93863887Y-108338842D01*
X93801669Y-108322171D01*
X93642238Y-108279452D01*
X93604215Y-108274446D01*
X93414741Y-108249500D01*
X93414734Y-108249500D01*
X93185266Y-108249500D01*
X93185258Y-108249500D01*
X92968715Y-108278009D01*
X92957762Y-108279452D01*
X92864076Y-108304554D01*
X92736112Y-108338842D01*
X92524123Y-108426650D01*
X92524109Y-108426657D01*
X92325382Y-108541392D01*
X92143338Y-108681081D01*
X91981081Y-108843338D01*
X91841392Y-109025382D01*
X91726657Y-109224109D01*
X91726650Y-109224123D01*
X91638842Y-109436112D01*
X91579453Y-109657759D01*
X91579451Y-109657770D01*
X91549500Y-109885258D01*
X89200500Y-109885258D01*
X89200500Y-100371055D01*
X91065209Y-100371055D01*
X91065209Y-101350000D01*
X91950000Y-101350000D01*
X91950000Y-100466700D01*
X91969685Y-100399661D01*
X92022489Y-100353906D01*
X92074000Y-100342700D01*
X92326000Y-100342700D01*
X92393039Y-100362385D01*
X92438794Y-100415189D01*
X92450000Y-100466700D01*
X92450000Y-102733300D01*
X92430315Y-102800339D01*
X92377511Y-102846094D01*
X92326000Y-102857300D01*
X92074000Y-102857300D01*
X92006961Y-102837615D01*
X91961206Y-102784811D01*
X91950000Y-102733300D01*
X91950000Y-101850000D01*
X91065209Y-101850000D01*
X91065209Y-102828944D01*
X91071610Y-102888472D01*
X91071612Y-102888479D01*
X91121854Y-103023186D01*
X91121858Y-103023193D01*
X91208018Y-103138287D01*
X91208021Y-103138290D01*
X91323115Y-103224450D01*
X91323122Y-103224454D01*
X91457829Y-103274696D01*
X91457836Y-103274698D01*
X91517364Y-103281099D01*
X91517381Y-103281100D01*
X91950000Y-103281100D01*
X91950000Y-103171800D01*
X91969685Y-103104761D01*
X92022489Y-103059006D01*
X92074000Y-103047800D01*
X92326000Y-103047800D01*
X92393039Y-103067485D01*
X92438794Y-103120289D01*
X92450000Y-103171800D01*
X92450000Y-103281100D01*
X92882619Y-103281100D01*
X92882635Y-103281099D01*
X92942163Y-103274698D01*
X92942170Y-103274696D01*
X93076877Y-103224454D01*
X93076884Y-103224450D01*
X93191977Y-103138291D01*
X93222522Y-103097489D01*
X93278456Y-103055618D01*
X93321789Y-103047800D01*
X93668806Y-103047800D01*
X93735845Y-103067485D01*
X93768072Y-103097488D01*
X93798616Y-103138290D01*
X93798884Y-103138647D01*
X93914093Y-103224893D01*
X93914100Y-103224897D01*
X93959047Y-103241661D01*
X94048946Y-103275191D01*
X94108556Y-103281600D01*
X94154115Y-103281599D01*
X94221153Y-103301282D01*
X94266909Y-103354085D01*
X94276854Y-103423244D01*
X94247831Y-103486800D01*
X94241798Y-103493280D01*
X94192192Y-103542886D01*
X94112220Y-103622859D01*
X94112218Y-103622861D01*
X94050493Y-103684586D01*
X93972859Y-103762219D01*
X93863371Y-103926080D01*
X93863364Y-103926093D01*
X93823033Y-104023464D01*
X93823033Y-104023465D01*
X93787949Y-104108163D01*
X93787947Y-104108170D01*
X93772207Y-104187304D01*
X93772207Y-104187305D01*
X93749500Y-104301456D01*
X93749500Y-105598544D01*
X93773782Y-105720617D01*
X93787946Y-105791828D01*
X93787949Y-105791837D01*
X93863364Y-105973907D01*
X93863371Y-105973920D01*
X93972860Y-106137781D01*
X93972863Y-106137785D01*
X94116537Y-106281459D01*
X94116559Y-106281479D01*
X95374735Y-107539655D01*
X95374764Y-107539686D01*
X95517214Y-107682136D01*
X95517218Y-107682139D01*
X95681079Y-107791628D01*
X95681081Y-107791629D01*
X95681086Y-107791632D01*
X95782158Y-107833497D01*
X95863164Y-107867051D01*
X95910904Y-107876547D01*
X95947292Y-107883785D01*
X96056456Y-107905500D01*
X96056459Y-107905500D01*
X96056460Y-107905500D01*
X96253540Y-107905500D01*
X98050500Y-107905500D01*
X98117539Y-107925185D01*
X98163294Y-107977989D01*
X98174500Y-108029500D01*
X98174500Y-108798125D01*
X98154815Y-108865164D01*
X98138182Y-108885806D01*
X98052029Y-108971959D01*
X97963001Y-109116294D01*
X97962996Y-109116305D01*
X97909651Y-109277290D01*
X97899500Y-109376647D01*
X97899500Y-109455613D01*
X97890062Y-109503063D01*
X97887949Y-109508163D01*
X97887946Y-109508171D01*
X97849500Y-109701455D01*
X97849500Y-109898544D01*
X97887947Y-110091832D01*
X97887950Y-110091840D01*
X97890061Y-110096936D01*
X97899500Y-110144386D01*
X97899500Y-110223336D01*
X97899501Y-110223355D01*
X97909650Y-110322707D01*
X97909651Y-110322710D01*
X97962996Y-110483694D01*
X97963001Y-110483705D01*
X98052029Y-110628040D01*
X98052032Y-110628044D01*
X98171955Y-110747967D01*
X98171959Y-110747970D01*
X98316294Y-110836998D01*
X98316297Y-110836999D01*
X98316303Y-110837003D01*
X98477292Y-110890349D01*
X98576655Y-110900500D01*
X99123344Y-110900499D01*
X99123352Y-110900498D01*
X99123355Y-110900498D01*
X99199585Y-110892711D01*
X99222708Y-110890349D01*
X99383697Y-110837003D01*
X99528044Y-110747968D01*
X99647968Y-110628044D01*
X99737003Y-110483697D01*
X99790349Y-110322708D01*
X99791342Y-110312982D01*
X99817734Y-110248293D01*
X99827008Y-110237911D01*
X99952139Y-110112782D01*
X99976417Y-110076447D01*
X100061632Y-109948914D01*
X100137051Y-109766835D01*
X100154057Y-109681344D01*
X100175500Y-109573541D01*
X100175500Y-109376460D01*
X100175500Y-107688970D01*
X100195185Y-107621931D01*
X100236380Y-107582238D01*
X100251865Y-107573081D01*
X100368081Y-107456865D01*
X100451744Y-107315398D01*
X100497598Y-107157569D01*
X100500500Y-107120694D01*
X100500500Y-106689306D01*
X100497598Y-106652431D01*
X100482521Y-106600537D01*
X100462728Y-106532409D01*
X100451744Y-106494602D01*
X100368081Y-106353135D01*
X100368078Y-106353132D01*
X100363298Y-106346969D01*
X100365635Y-106345155D01*
X100338798Y-106296050D01*
X100343756Y-106226356D01*
X100364554Y-106193998D01*
X100362903Y-106192717D01*
X100367686Y-106186550D01*
X100451281Y-106045198D01*
X100497100Y-105887486D01*
X100497295Y-105885001D01*
X100497295Y-105885000D01*
X97837510Y-105885000D01*
X97811533Y-105900538D01*
X97780440Y-105904500D01*
X97507796Y-105904500D01*
X97440757Y-105884815D01*
X97395002Y-105832011D01*
X97385058Y-105762853D01*
X97414083Y-105699297D01*
X97468792Y-105662794D01*
X97551300Y-105635453D01*
X97551311Y-105635448D01*
X97698034Y-105544947D01*
X97698038Y-105544944D01*
X97821664Y-105421319D01*
X97882987Y-105387834D01*
X97909345Y-105385000D01*
X98925000Y-105385000D01*
X99425000Y-105385000D01*
X100497295Y-105385000D01*
X100497295Y-105384998D01*
X100497100Y-105382513D01*
X100451281Y-105224801D01*
X100367685Y-105083447D01*
X100362900Y-105077278D01*
X100365252Y-105075453D01*
X100338445Y-105026405D01*
X100343402Y-104956712D01*
X100364465Y-104923936D01*
X100362900Y-104922722D01*
X100367685Y-104916552D01*
X100451281Y-104775198D01*
X100497100Y-104617486D01*
X100497295Y-104615001D01*
X100497295Y-104615000D01*
X99425000Y-104615000D01*
X99425000Y-105385000D01*
X98925000Y-105385000D01*
X98925000Y-104239000D01*
X98944685Y-104171961D01*
X98997489Y-104126206D01*
X99049000Y-104115000D01*
X100497295Y-104115000D01*
X100497295Y-104114998D01*
X100497100Y-104112513D01*
X100451281Y-103954801D01*
X100367685Y-103813447D01*
X100362900Y-103807278D01*
X100365366Y-103805364D01*
X100338802Y-103756776D01*
X100343749Y-103687082D01*
X100364856Y-103654232D01*
X100363301Y-103653026D01*
X100368077Y-103646868D01*
X100368081Y-103646865D01*
X100451744Y-103505398D01*
X100497598Y-103347569D01*
X100500500Y-103310694D01*
X100500500Y-102879306D01*
X100497598Y-102842431D01*
X100451744Y-102684602D01*
X100368081Y-102543135D01*
X100368079Y-102543133D01*
X100368076Y-102543129D01*
X100247039Y-102422092D01*
X100213554Y-102360769D01*
X100218538Y-102291077D01*
X100260410Y-102235144D01*
X100268748Y-102229417D01*
X100299927Y-102209826D01*
X100427262Y-102129816D01*
X100554816Y-102002262D01*
X100650789Y-101849522D01*
X100710368Y-101679255D01*
X100720161Y-101592329D01*
X100747226Y-101527918D01*
X100755690Y-101518543D01*
X100884909Y-101389324D01*
X100946230Y-101355841D01*
X101015922Y-101360825D01*
X101071855Y-101402697D01*
X101078125Y-101411907D01*
X101082288Y-101418656D01*
X101206344Y-101542712D01*
X101355666Y-101634814D01*
X101522203Y-101689999D01*
X101624991Y-101700500D01*
X102975008Y-101700499D01*
X103077797Y-101689999D01*
X103244334Y-101634814D01*
X103393656Y-101542712D01*
X103517712Y-101418656D01*
X103609814Y-101269334D01*
X103664999Y-101102797D01*
X103675500Y-101000009D01*
X103675499Y-100099992D01*
X103675013Y-100095239D01*
X103664999Y-99997203D01*
X103664998Y-99997200D01*
X103658832Y-99978591D01*
X103609814Y-99830666D01*
X103517712Y-99681344D01*
X103393656Y-99557288D01*
X103244334Y-99465186D01*
X103077797Y-99410001D01*
X103077795Y-99410000D01*
X102975010Y-99399500D01*
X101624998Y-99399500D01*
X101624981Y-99399501D01*
X101522203Y-99410000D01*
X101522200Y-99410001D01*
X101355668Y-99465185D01*
X101355663Y-99465187D01*
X101206345Y-99557287D01*
X101137180Y-99626452D01*
X101075856Y-99659936D01*
X101006165Y-99654951D01*
X100950231Y-99613080D01*
X100925815Y-99547615D01*
X100925499Y-99538770D01*
X100925499Y-99349998D01*
X100925498Y-99349980D01*
X100914999Y-99247203D01*
X100914998Y-99247200D01*
X100902303Y-99208890D01*
X100859814Y-99080666D01*
X100767712Y-98931344D01*
X100643656Y-98807288D01*
X100550888Y-98750069D01*
X100494336Y-98715187D01*
X100494331Y-98715185D01*
X100430643Y-98694081D01*
X100327797Y-98660001D01*
X100327795Y-98660000D01*
X100225010Y-98649500D01*
X98874998Y-98649500D01*
X98874981Y-98649501D01*
X98772203Y-98660000D01*
X98772200Y-98660001D01*
X98605668Y-98715185D01*
X98605663Y-98715187D01*
X98456342Y-98807289D01*
X98332289Y-98931342D01*
X98240187Y-99080663D01*
X98240185Y-99080668D01*
X98217885Y-99147967D01*
X98185001Y-99247203D01*
X98185001Y-99247204D01*
X98185000Y-99247204D01*
X98174500Y-99349983D01*
X98174500Y-99349996D01*
X98174501Y-100249995D01*
X98174501Y-100250019D01*
X98185000Y-100352796D01*
X98185001Y-100352799D01*
X98240185Y-100519331D01*
X98240187Y-100519336D01*
X98241956Y-100522204D01*
X98332288Y-100668656D01*
X98456344Y-100792712D01*
X98605666Y-100884814D01*
X98772203Y-100939999D01*
X98874991Y-100950500D01*
X99100504Y-100950499D01*
X99167543Y-100970183D01*
X99213298Y-101022987D01*
X99223242Y-101092146D01*
X99205499Y-101140469D01*
X99199211Y-101150475D01*
X99139631Y-101320745D01*
X99139630Y-101320750D01*
X99119435Y-101499996D01*
X99119435Y-101500003D01*
X99139630Y-101679249D01*
X99139631Y-101679254D01*
X99199211Y-101849524D01*
X99233773Y-101904527D01*
X99252774Y-101971764D01*
X99232407Y-102038599D01*
X99179139Y-102083813D01*
X99128780Y-102094500D01*
X98414329Y-102094500D01*
X98347290Y-102074815D01*
X98345480Y-102073630D01*
X98311414Y-102050868D01*
X98311411Y-102050866D01*
X98228183Y-102016392D01*
X98182665Y-101997538D01*
X98141531Y-101980500D01*
X98129337Y-101975449D01*
X98129334Y-101975448D01*
X98071067Y-101963858D01*
X98009156Y-101931473D01*
X97974582Y-101870757D01*
X97973650Y-101866474D01*
X97962052Y-101808165D01*
X97890247Y-101634814D01*
X97886633Y-101626088D01*
X97886628Y-101626079D01*
X97777140Y-101462219D01*
X97777137Y-101462215D01*
X97595863Y-101280942D01*
X97562378Y-101219619D01*
X97567362Y-101149928D01*
X97568961Y-101145861D01*
X97612051Y-101041835D01*
X97637013Y-100916344D01*
X97650500Y-100848543D01*
X97650500Y-98101456D01*
X97612052Y-97908170D01*
X97612051Y-97908166D01*
X97612051Y-97908165D01*
X97609938Y-97903063D01*
X97600499Y-97855611D01*
X97600499Y-97776662D01*
X97600498Y-97776644D01*
X97590349Y-97677292D01*
X97590348Y-97677289D01*
X97576938Y-97636819D01*
X97537003Y-97516303D01*
X97536999Y-97516297D01*
X97536998Y-97516294D01*
X97447970Y-97371959D01*
X97447967Y-97371955D01*
X97328044Y-97252032D01*
X97328040Y-97252029D01*
X97183705Y-97163001D01*
X97183699Y-97162998D01*
X97183697Y-97162997D01*
X97144532Y-97150019D01*
X97022709Y-97109651D01*
X96923346Y-97099500D01*
X96376662Y-97099500D01*
X96376644Y-97099501D01*
X96277292Y-97109650D01*
X96277289Y-97109651D01*
X96116305Y-97162996D01*
X96116294Y-97163001D01*
X95971959Y-97252029D01*
X95971955Y-97252032D01*
X95852032Y-97371955D01*
X95852029Y-97371959D01*
X95763001Y-97516294D01*
X95762996Y-97516305D01*
X95709651Y-97677290D01*
X95699500Y-97776647D01*
X95699500Y-97855612D01*
X95690063Y-97903060D01*
X95687949Y-97908163D01*
X95687948Y-97908166D01*
X95649500Y-98101456D01*
X95649500Y-99799235D01*
X95629815Y-99866274D01*
X95577011Y-99912029D01*
X95512247Y-99922524D01*
X95473884Y-99918400D01*
X95473875Y-99918400D01*
X94108558Y-99918400D01*
X94108552Y-99918401D01*
X94048945Y-99924808D01*
X93914100Y-99975102D01*
X93914093Y-99975106D01*
X93798884Y-100061352D01*
X93768072Y-100102512D01*
X93712138Y-100144382D01*
X93668806Y-100152200D01*
X93321789Y-100152200D01*
X93254750Y-100132515D01*
X93222522Y-100102511D01*
X93191977Y-100061708D01*
X93076884Y-99975549D01*
X93076877Y-99975545D01*
X92942170Y-99925303D01*
X92942163Y-99925301D01*
X92882635Y-99918900D01*
X92450000Y-99918900D01*
X92450000Y-100028200D01*
X92430315Y-100095239D01*
X92377511Y-100140994D01*
X92326000Y-100152200D01*
X92074000Y-100152200D01*
X92006961Y-100132515D01*
X91961206Y-100079711D01*
X91950000Y-100028200D01*
X91950000Y-99918900D01*
X91517364Y-99918900D01*
X91457836Y-99925301D01*
X91457829Y-99925303D01*
X91323122Y-99975545D01*
X91323115Y-99975549D01*
X91208021Y-100061709D01*
X91208018Y-100061712D01*
X91121858Y-100176806D01*
X91121854Y-100176813D01*
X91071612Y-100311520D01*
X91071610Y-100311527D01*
X91065209Y-100371055D01*
X89200500Y-100371055D01*
X89200500Y-91999986D01*
X90925001Y-91999986D01*
X90935494Y-92102697D01*
X90990641Y-92269119D01*
X90990643Y-92269124D01*
X91082684Y-92418345D01*
X91206654Y-92542315D01*
X91355875Y-92634356D01*
X91355880Y-92634358D01*
X91522302Y-92689505D01*
X91522309Y-92689506D01*
X91625019Y-92699999D01*
X92049999Y-92699999D01*
X92550000Y-92699999D01*
X92974972Y-92699999D01*
X92974986Y-92699998D01*
X93077697Y-92689505D01*
X93244119Y-92634358D01*
X93244124Y-92634356D01*
X93393345Y-92542315D01*
X93517315Y-92418345D01*
X93609356Y-92269124D01*
X93609358Y-92269119D01*
X93664505Y-92102697D01*
X93664506Y-92102690D01*
X93674999Y-91999986D01*
X93675000Y-91999973D01*
X93675000Y-91800000D01*
X92550000Y-91800000D01*
X92550000Y-92699999D01*
X92049999Y-92699999D01*
X92050000Y-92699998D01*
X92050000Y-91800000D01*
X90925001Y-91800000D01*
X90925001Y-91999986D01*
X89200500Y-91999986D01*
X89200500Y-91037888D01*
X89220185Y-90970849D01*
X89272989Y-90925094D01*
X89342147Y-90915150D01*
X89393389Y-90934785D01*
X89426086Y-90956632D01*
X89426088Y-90956633D01*
X89426092Y-90956635D01*
X89547459Y-91006906D01*
X89608165Y-91032051D01*
X89608169Y-91032051D01*
X89608170Y-91032052D01*
X89801456Y-91070500D01*
X90801000Y-91070500D01*
X90868039Y-91090185D01*
X90913794Y-91142989D01*
X90925000Y-91194500D01*
X90925000Y-91300000D01*
X92050000Y-91300000D01*
X92050000Y-90400000D01*
X91805554Y-90400000D01*
X91738515Y-90380315D01*
X91692760Y-90327511D01*
X91682816Y-90258353D01*
X91683937Y-90251808D01*
X91700500Y-90168543D01*
X91700500Y-89971456D01*
X91662052Y-89778170D01*
X91662051Y-89778169D01*
X91662051Y-89778165D01*
X91659477Y-89771952D01*
X91652008Y-89702485D01*
X91683281Y-89640005D01*
X91743369Y-89604351D01*
X91774030Y-89600499D01*
X92855961Y-89600499D01*
X92923000Y-89620184D01*
G37*
%TD.AperFunction*%
%TA.AperFunction,Conductor*%
G36*
X109643039Y-70720185D02*
G01*
X109688794Y-70772989D01*
X109700000Y-70824500D01*
X109700000Y-70990000D01*
X112200000Y-70990000D01*
X112200000Y-70824500D01*
X112219685Y-70757461D01*
X112272489Y-70711706D01*
X112324000Y-70700500D01*
X127076000Y-70700500D01*
X127143039Y-70720185D01*
X127188794Y-70772989D01*
X127200000Y-70824500D01*
X127200000Y-70990000D01*
X129656638Y-70990000D01*
X129723677Y-71009685D01*
X129742682Y-71025000D01*
X131451000Y-71025000D01*
X131518039Y-71044685D01*
X131563794Y-71097489D01*
X131575000Y-71149000D01*
X131575000Y-71212500D01*
X134024999Y-71212500D01*
X134024999Y-71075028D01*
X134024998Y-71075013D01*
X134014505Y-70972302D01*
X133978453Y-70863504D01*
X133976051Y-70793676D01*
X134011783Y-70733634D01*
X134074303Y-70702441D01*
X134096159Y-70700500D01*
X154375500Y-70700500D01*
X154442539Y-70720185D01*
X154488294Y-70772989D01*
X154499500Y-70824500D01*
X154499500Y-77770500D01*
X154479815Y-77837539D01*
X154427011Y-77883294D01*
X154375500Y-77894500D01*
X151562129Y-77894500D01*
X151562123Y-77894501D01*
X151502516Y-77900908D01*
X151367671Y-77951202D01*
X151367664Y-77951206D01*
X151252455Y-78037452D01*
X151252452Y-78037455D01*
X151166206Y-78152664D01*
X151166202Y-78152671D01*
X151115908Y-78287517D01*
X151111144Y-78331835D01*
X151109501Y-78347123D01*
X151109500Y-78347135D01*
X151109500Y-79442870D01*
X151109501Y-79442874D01*
X151111100Y-79457746D01*
X151098694Y-79526505D01*
X151051083Y-79577642D01*
X150987810Y-79595000D01*
X149882190Y-79595000D01*
X149815151Y-79575315D01*
X149769396Y-79522511D01*
X149758901Y-79457744D01*
X149759554Y-79451669D01*
X149760500Y-79442873D01*
X149760499Y-78347128D01*
X149754091Y-78287517D01*
X149746936Y-78268334D01*
X149703797Y-78152671D01*
X149703793Y-78152664D01*
X149617547Y-78037455D01*
X149617544Y-78037452D01*
X149502335Y-77951206D01*
X149502328Y-77951202D01*
X149367482Y-77900908D01*
X149367483Y-77900908D01*
X149307883Y-77894501D01*
X149307881Y-77894500D01*
X149307873Y-77894500D01*
X149307864Y-77894500D01*
X148412129Y-77894500D01*
X148412123Y-77894501D01*
X148352516Y-77900908D01*
X148217671Y-77951202D01*
X148217664Y-77951206D01*
X148102455Y-78037452D01*
X148102452Y-78037455D01*
X148016206Y-78152664D01*
X148016202Y-78152671D01*
X147965908Y-78287517D01*
X147961144Y-78331835D01*
X147959501Y-78347123D01*
X147959500Y-78347135D01*
X147959500Y-79442870D01*
X147959501Y-79442874D01*
X147961100Y-79457746D01*
X147948694Y-79526505D01*
X147901083Y-79577642D01*
X147837810Y-79595000D01*
X144660000Y-79595000D01*
X144660000Y-80171000D01*
X144640315Y-80238039D01*
X144587511Y-80283794D01*
X144536000Y-80295000D01*
X143360000Y-80295000D01*
X143360000Y-88995000D01*
X144960000Y-88995000D01*
X144960000Y-80419000D01*
X144979685Y-80351961D01*
X145032489Y-80306206D01*
X145084000Y-80295000D01*
X152260000Y-80295000D01*
X152260000Y-80019499D01*
X152279685Y-79952460D01*
X152332489Y-79906705D01*
X152384000Y-79895499D01*
X154375500Y-79895499D01*
X154442539Y-79915184D01*
X154488294Y-79967988D01*
X154499500Y-80019499D01*
X154499500Y-88521000D01*
X154479815Y-88588039D01*
X154427011Y-88633794D01*
X154375500Y-88645000D01*
X153060000Y-88645000D01*
X153060000Y-91120500D01*
X153040315Y-91187539D01*
X152987511Y-91233294D01*
X152936000Y-91244500D01*
X152462129Y-91244500D01*
X152462123Y-91244501D01*
X152402516Y-91250908D01*
X152267671Y-91301202D01*
X152267664Y-91301206D01*
X152152455Y-91387452D01*
X152152452Y-91387455D01*
X152066206Y-91502664D01*
X152066202Y-91502671D01*
X152015908Y-91637517D01*
X152009501Y-91697116D01*
X152009500Y-91697135D01*
X152009500Y-93092870D01*
X152009501Y-93092876D01*
X152015908Y-93152483D01*
X152066202Y-93287328D01*
X152066206Y-93287335D01*
X152152452Y-93402544D01*
X152152455Y-93402547D01*
X152267664Y-93488793D01*
X152267671Y-93488797D01*
X152402517Y-93539091D01*
X152402516Y-93539091D01*
X152409444Y-93539835D01*
X152462127Y-93545500D01*
X154375500Y-93545499D01*
X154442539Y-93565184D01*
X154488294Y-93617987D01*
X154499500Y-93669499D01*
X154499500Y-113175500D01*
X154479815Y-113242539D01*
X154427011Y-113288294D01*
X154375500Y-113299500D01*
X128417942Y-113299500D01*
X128350903Y-113279815D01*
X128305148Y-113227011D01*
X128295204Y-113157853D01*
X128316368Y-113104376D01*
X128327961Y-113087819D01*
X128377102Y-113017639D01*
X128469575Y-112819330D01*
X128526207Y-112607977D01*
X128545277Y-112390000D01*
X128526207Y-112172023D01*
X128477084Y-111988693D01*
X128469577Y-111960677D01*
X128469576Y-111960676D01*
X128469575Y-111960670D01*
X128377102Y-111762362D01*
X128377099Y-111762358D01*
X128377099Y-111762357D01*
X128251599Y-111583124D01*
X128195475Y-111527000D01*
X128096877Y-111428402D01*
X127941863Y-111319860D01*
X127917638Y-111302897D01*
X127757669Y-111228303D01*
X127719330Y-111210425D01*
X127719326Y-111210424D01*
X127719322Y-111210422D01*
X127507977Y-111153793D01*
X127290002Y-111134723D01*
X127289998Y-111134723D01*
X127173067Y-111144953D01*
X127072023Y-111153793D01*
X127072020Y-111153793D01*
X126860677Y-111210422D01*
X126860670Y-111210424D01*
X126860670Y-111210425D01*
X126841543Y-111219344D01*
X126662361Y-111302898D01*
X126662357Y-111302900D01*
X126483121Y-111428402D01*
X126328402Y-111583121D01*
X126202900Y-111762357D01*
X126202898Y-111762361D01*
X126132382Y-111913583D01*
X126086209Y-111966022D01*
X126019016Y-111985174D01*
X125952135Y-111964958D01*
X125907618Y-111913583D01*
X125859033Y-111809394D01*
X125837102Y-111762362D01*
X125837099Y-111762358D01*
X125837099Y-111762357D01*
X125711599Y-111583124D01*
X125655475Y-111527000D01*
X125556877Y-111428402D01*
X125534632Y-111412826D01*
X125403376Y-111320918D01*
X125359751Y-111266341D01*
X125350500Y-111219344D01*
X125350500Y-111021577D01*
X129849500Y-111021577D01*
X129849500Y-111218422D01*
X129880290Y-111412826D01*
X129941117Y-111600029D01*
X130002524Y-111720546D01*
X130030476Y-111775405D01*
X130146172Y-111934646D01*
X130285354Y-112073828D01*
X130444595Y-112189524D01*
X130500149Y-112217830D01*
X130619970Y-112278882D01*
X130619972Y-112278882D01*
X130619975Y-112278884D01*
X130720317Y-112311487D01*
X130807173Y-112339709D01*
X131001578Y-112370500D01*
X131001583Y-112370500D01*
X131198422Y-112370500D01*
X131392826Y-112339709D01*
X131580025Y-112278884D01*
X131755405Y-112189524D01*
X131914646Y-112073828D01*
X132053828Y-111934646D01*
X132169524Y-111775405D01*
X132258884Y-111600025D01*
X132319709Y-111412826D01*
X132330155Y-111346874D01*
X132350500Y-111218422D01*
X132350500Y-111021577D01*
X132319709Y-110827173D01*
X132285153Y-110720821D01*
X132258884Y-110639975D01*
X132258882Y-110639972D01*
X132258882Y-110639970D01*
X132179255Y-110483694D01*
X132169524Y-110464595D01*
X132053828Y-110305354D01*
X131914646Y-110166172D01*
X131755405Y-110050476D01*
X131697865Y-110021158D01*
X131580029Y-109961117D01*
X131392826Y-109900290D01*
X131198422Y-109869500D01*
X131198417Y-109869500D01*
X131001583Y-109869500D01*
X131001578Y-109869500D01*
X130807173Y-109900290D01*
X130619970Y-109961117D01*
X130444594Y-110050476D01*
X130376459Y-110099980D01*
X130285354Y-110166172D01*
X130285352Y-110166174D01*
X130285351Y-110166174D01*
X130146174Y-110305351D01*
X130146174Y-110305352D01*
X130146172Y-110305354D01*
X130112399Y-110351838D01*
X130030476Y-110464594D01*
X129941117Y-110639970D01*
X129880290Y-110827173D01*
X129849500Y-111021577D01*
X125350500Y-111021577D01*
X125350500Y-108850096D01*
X125370185Y-108783057D01*
X125386814Y-108762420D01*
X133212318Y-100936915D01*
X133273641Y-100903431D01*
X133343333Y-100908415D01*
X133387680Y-100936916D01*
X134311284Y-101860520D01*
X134311286Y-101860521D01*
X134311290Y-101860524D01*
X134387507Y-101904527D01*
X134448216Y-101939577D01*
X134600943Y-101980501D01*
X134600945Y-101980501D01*
X134766654Y-101980501D01*
X134766670Y-101980500D01*
X135590909Y-101980500D01*
X135657948Y-102000185D01*
X135703292Y-102052097D01*
X135705965Y-102057830D01*
X135812393Y-102209825D01*
X135841501Y-102251395D01*
X135841506Y-102251402D01*
X136008597Y-102418493D01*
X136008603Y-102418498D01*
X136194158Y-102548425D01*
X136237783Y-102603002D01*
X136244977Y-102672500D01*
X136213454Y-102734855D01*
X136194158Y-102751575D01*
X136008597Y-102881505D01*
X135841505Y-103048597D01*
X135705965Y-103242169D01*
X135705964Y-103242171D01*
X135606098Y-103456335D01*
X135606094Y-103456344D01*
X135544938Y-103684586D01*
X135544936Y-103684596D01*
X135524341Y-103919999D01*
X135524341Y-103920000D01*
X135544936Y-104155403D01*
X135544938Y-104155413D01*
X135606094Y-104383655D01*
X135606096Y-104383659D01*
X135606097Y-104383663D01*
X135697974Y-104580694D01*
X135705965Y-104597830D01*
X135705967Y-104597834D01*
X135719786Y-104617569D01*
X135841505Y-104791401D01*
X136008599Y-104958495D01*
X136178239Y-105077278D01*
X136194594Y-105088730D01*
X136238218Y-105143307D01*
X136245411Y-105212806D01*
X136213889Y-105275160D01*
X136194593Y-105291880D01*
X136118626Y-105345072D01*
X136118625Y-105345072D01*
X136709765Y-105936212D01*
X136667708Y-105947482D01*
X136542292Y-106019890D01*
X136439890Y-106122292D01*
X136367482Y-106247708D01*
X136356212Y-106289764D01*
X135765073Y-105698625D01*
X135765072Y-105698625D01*
X135706401Y-105782419D01*
X135606570Y-105996507D01*
X135606566Y-105996516D01*
X135545432Y-106224673D01*
X135545430Y-106224684D01*
X135524843Y-106459998D01*
X135524843Y-106460001D01*
X135545430Y-106695315D01*
X135545432Y-106695326D01*
X135606566Y-106923483D01*
X135606570Y-106923492D01*
X135706400Y-107137579D01*
X135706402Y-107137583D01*
X135765072Y-107221373D01*
X135765073Y-107221373D01*
X136356212Y-106630234D01*
X136367482Y-106672292D01*
X136439890Y-106797708D01*
X136542292Y-106900110D01*
X136667708Y-106972518D01*
X136709765Y-106983787D01*
X136118625Y-107574925D01*
X136194594Y-107628119D01*
X136238219Y-107682696D01*
X136245413Y-107752194D01*
X136213890Y-107814549D01*
X136194595Y-107831269D01*
X136008594Y-107961508D01*
X135841505Y-108128597D01*
X135705965Y-108322169D01*
X135705964Y-108322171D01*
X135606098Y-108536335D01*
X135606094Y-108536344D01*
X135544938Y-108764586D01*
X135544936Y-108764596D01*
X135524341Y-108999999D01*
X135524341Y-109000000D01*
X135544936Y-109235403D01*
X135544938Y-109235413D01*
X135606094Y-109463655D01*
X135606096Y-109463659D01*
X135606097Y-109463663D01*
X135705965Y-109677830D01*
X135705967Y-109677834D01*
X135803855Y-109817631D01*
X135838075Y-109866503D01*
X135841501Y-109871395D01*
X135841506Y-109871402D01*
X136008597Y-110038493D01*
X136008603Y-110038498D01*
X136194158Y-110168425D01*
X136237783Y-110223002D01*
X136244977Y-110292500D01*
X136213454Y-110354855D01*
X136194158Y-110371575D01*
X136008597Y-110501505D01*
X135841505Y-110668597D01*
X135705965Y-110862169D01*
X135705964Y-110862171D01*
X135606098Y-111076335D01*
X135606094Y-111076344D01*
X135544938Y-111304586D01*
X135544936Y-111304596D01*
X135524341Y-111539999D01*
X135524341Y-111540000D01*
X135544936Y-111775403D01*
X135544938Y-111775413D01*
X135606094Y-112003655D01*
X135606096Y-112003659D01*
X135606097Y-112003663D01*
X135687256Y-112177708D01*
X135705965Y-112217830D01*
X135705967Y-112217834D01*
X135791306Y-112339709D01*
X135841505Y-112411401D01*
X136008599Y-112578495D01*
X136105384Y-112646265D01*
X136202165Y-112714032D01*
X136202167Y-112714033D01*
X136202170Y-112714035D01*
X136416337Y-112813903D01*
X136416343Y-112813904D01*
X136416344Y-112813905D01*
X136420584Y-112815041D01*
X136644592Y-112875063D01*
X136832918Y-112891539D01*
X136879999Y-112895659D01*
X136880000Y-112895659D01*
X136880001Y-112895659D01*
X136919234Y-112892226D01*
X137115408Y-112875063D01*
X137343663Y-112813903D01*
X137557830Y-112714035D01*
X137751401Y-112578495D01*
X137918495Y-112411401D01*
X138054035Y-112217830D01*
X138153903Y-112003663D01*
X138215063Y-111775408D01*
X138235659Y-111540000D01*
X138235132Y-111533982D01*
X138230337Y-111479173D01*
X138225326Y-111421902D01*
X142999500Y-111421902D01*
X142999500Y-111658097D01*
X143036446Y-111891368D01*
X143109433Y-112115996D01*
X143212152Y-112317591D01*
X143216657Y-112326433D01*
X143355483Y-112517510D01*
X143522490Y-112684517D01*
X143713567Y-112823343D01*
X143796941Y-112865824D01*
X143924003Y-112930566D01*
X143924005Y-112930566D01*
X143924008Y-112930568D01*
X143953037Y-112940000D01*
X144148631Y-113003553D01*
X144381903Y-113040500D01*
X144381908Y-113040500D01*
X144618097Y-113040500D01*
X144851368Y-113003553D01*
X145075992Y-112930568D01*
X145286433Y-112823343D01*
X145477510Y-112684517D01*
X145644517Y-112517510D01*
X145783343Y-112326433D01*
X145890568Y-112115992D01*
X145963553Y-111891368D01*
X145976536Y-111809395D01*
X146000500Y-111658097D01*
X146000500Y-111421902D01*
X145963553Y-111188631D01*
X145926093Y-111073342D01*
X145890568Y-110964008D01*
X145890566Y-110964005D01*
X145890566Y-110964003D01*
X145825853Y-110836998D01*
X145783343Y-110753567D01*
X145644517Y-110562490D01*
X145477510Y-110395483D01*
X145286433Y-110256657D01*
X145270018Y-110248293D01*
X145075996Y-110149433D01*
X144851368Y-110076446D01*
X144618097Y-110039500D01*
X144618092Y-110039500D01*
X144381908Y-110039500D01*
X144381903Y-110039500D01*
X144148631Y-110076446D01*
X143924003Y-110149433D01*
X143713566Y-110256657D01*
X143607806Y-110333497D01*
X143522490Y-110395483D01*
X143522488Y-110395485D01*
X143522487Y-110395485D01*
X143355485Y-110562487D01*
X143355485Y-110562488D01*
X143355483Y-110562490D01*
X143326587Y-110602262D01*
X143216657Y-110753566D01*
X143109433Y-110964003D01*
X143036446Y-111188631D01*
X142999500Y-111421902D01*
X138225326Y-111421902D01*
X138215063Y-111304592D01*
X138153903Y-111076337D01*
X138054035Y-110862171D01*
X138045158Y-110849492D01*
X137918494Y-110668597D01*
X137751402Y-110501506D01*
X137751396Y-110501501D01*
X137565842Y-110371575D01*
X137522217Y-110316998D01*
X137515023Y-110247500D01*
X137546546Y-110185145D01*
X137565842Y-110168425D01*
X137635394Y-110119724D01*
X137751401Y-110038495D01*
X137918495Y-109871401D01*
X138054035Y-109677830D01*
X138153903Y-109463663D01*
X138174911Y-109385258D01*
X149049500Y-109385258D01*
X149049500Y-109614741D01*
X149067371Y-109750474D01*
X149079452Y-109842238D01*
X149120974Y-109997203D01*
X149138842Y-110063887D01*
X149226650Y-110275876D01*
X149226657Y-110275890D01*
X149236247Y-110292500D01*
X149326904Y-110449524D01*
X149341392Y-110474617D01*
X149481081Y-110656661D01*
X149481089Y-110656670D01*
X149643330Y-110818911D01*
X149643338Y-110818918D01*
X149643339Y-110818919D01*
X149679948Y-110847010D01*
X149825382Y-110958607D01*
X149825385Y-110958608D01*
X149825388Y-110958611D01*
X150024112Y-111073344D01*
X150024117Y-111073346D01*
X150024123Y-111073349D01*
X150115480Y-111111190D01*
X150236113Y-111161158D01*
X150457762Y-111220548D01*
X150685266Y-111250500D01*
X150685273Y-111250500D01*
X150914727Y-111250500D01*
X150914734Y-111250500D01*
X151142238Y-111220548D01*
X151363887Y-111161158D01*
X151575888Y-111073344D01*
X151774612Y-110958611D01*
X151956661Y-110818919D01*
X151956665Y-110818914D01*
X151956670Y-110818911D01*
X152118911Y-110656670D01*
X152118914Y-110656665D01*
X152118919Y-110656661D01*
X152258611Y-110474612D01*
X152373344Y-110275888D01*
X152461158Y-110063887D01*
X152520548Y-109842238D01*
X152550500Y-109614734D01*
X152550500Y-109385266D01*
X152520548Y-109157762D01*
X152461158Y-108936113D01*
X152390113Y-108764596D01*
X152373349Y-108724123D01*
X152373346Y-108724117D01*
X152373344Y-108724112D01*
X152258611Y-108525388D01*
X152258608Y-108525385D01*
X152258607Y-108525382D01*
X152118918Y-108343338D01*
X152118911Y-108343330D01*
X151956670Y-108181089D01*
X151956661Y-108181081D01*
X151774617Y-108041392D01*
X151754019Y-108029500D01*
X151636250Y-107961506D01*
X151575890Y-107926657D01*
X151575876Y-107926650D01*
X151363887Y-107838842D01*
X151335624Y-107831269D01*
X151142238Y-107779452D01*
X151104215Y-107774446D01*
X150914741Y-107749500D01*
X150914734Y-107749500D01*
X150685266Y-107749500D01*
X150685258Y-107749500D01*
X150478726Y-107776692D01*
X150457762Y-107779452D01*
X150430783Y-107786681D01*
X150236112Y-107838842D01*
X150024123Y-107926650D01*
X150024109Y-107926657D01*
X149825382Y-108041392D01*
X149643338Y-108181081D01*
X149481081Y-108343338D01*
X149341392Y-108525382D01*
X149226657Y-108724109D01*
X149226650Y-108724123D01*
X149138842Y-108936112D01*
X149079453Y-109157759D01*
X149079451Y-109157770D01*
X149049500Y-109385258D01*
X138174911Y-109385258D01*
X138215063Y-109235408D01*
X138235659Y-109000000D01*
X138215063Y-108764592D01*
X138168281Y-108589998D01*
X138153905Y-108536344D01*
X138153904Y-108536343D01*
X138153903Y-108536337D01*
X138054035Y-108322171D01*
X138051575Y-108318657D01*
X137918494Y-108128597D01*
X137751402Y-107961506D01*
X137751401Y-107961505D01*
X137565405Y-107831269D01*
X137521781Y-107776692D01*
X137514588Y-107707193D01*
X137546110Y-107644839D01*
X137565405Y-107628119D01*
X137641373Y-107574925D01*
X137050234Y-106983787D01*
X137092292Y-106972518D01*
X137217708Y-106900110D01*
X137320110Y-106797708D01*
X137392518Y-106672292D01*
X137403787Y-106630235D01*
X137994925Y-107221373D01*
X137994926Y-107221373D01*
X138053598Y-107137582D01*
X138053600Y-107137578D01*
X138153429Y-106923492D01*
X138153433Y-106923483D01*
X138214567Y-106695326D01*
X138214569Y-106695315D01*
X138235157Y-106460001D01*
X138235157Y-106459998D01*
X138214569Y-106224684D01*
X138214567Y-106224673D01*
X138153433Y-105996516D01*
X138153429Y-105996507D01*
X138053600Y-105782423D01*
X138053599Y-105782421D01*
X137994925Y-105698626D01*
X137994925Y-105698625D01*
X137403787Y-106289764D01*
X137392518Y-106247708D01*
X137320110Y-106122292D01*
X137217708Y-106019890D01*
X137092292Y-105947482D01*
X137050234Y-105936212D01*
X137641373Y-105345073D01*
X137641373Y-105345072D01*
X137565405Y-105291880D01*
X137521780Y-105237304D01*
X137514586Y-105167805D01*
X137546108Y-105105451D01*
X137565399Y-105088734D01*
X137751401Y-104958495D01*
X137918495Y-104791401D01*
X138054035Y-104597830D01*
X138153903Y-104383663D01*
X138215063Y-104155408D01*
X138235659Y-103920000D01*
X138233515Y-103895500D01*
X138226551Y-103815901D01*
X138215063Y-103684592D01*
X138153903Y-103456337D01*
X138054035Y-103242171D01*
X138041630Y-103224454D01*
X137918494Y-103048597D01*
X137751402Y-102881506D01*
X137751396Y-102881501D01*
X137565842Y-102751575D01*
X137522217Y-102696998D01*
X137515023Y-102627500D01*
X137546546Y-102565145D01*
X137565842Y-102548425D01*
X137588026Y-102532891D01*
X137751401Y-102418495D01*
X137918495Y-102251401D01*
X138054035Y-102057830D01*
X138153903Y-101843663D01*
X138215063Y-101615408D01*
X138235659Y-101380000D01*
X138215063Y-101144592D01*
X138153903Y-100916337D01*
X138054035Y-100702171D01*
X138054034Y-100702169D01*
X137918494Y-100508597D01*
X137751402Y-100341506D01*
X137751396Y-100341501D01*
X137565842Y-100211575D01*
X137522217Y-100156998D01*
X137515023Y-100087500D01*
X137546546Y-100025145D01*
X137565842Y-100008425D01*
X137652016Y-99948085D01*
X137751401Y-99878495D01*
X137918495Y-99711401D01*
X138054035Y-99517830D01*
X138153903Y-99303663D01*
X138215063Y-99075408D01*
X138235659Y-98840000D01*
X138215063Y-98604592D01*
X138168626Y-98431285D01*
X138153905Y-98376344D01*
X138153904Y-98376343D01*
X138153903Y-98376337D01*
X138054035Y-98162171D01*
X138012463Y-98102799D01*
X137918494Y-97968597D01*
X137751402Y-97801506D01*
X137751401Y-97801505D01*
X137565405Y-97671269D01*
X137521781Y-97616692D01*
X137514588Y-97547193D01*
X137546110Y-97484839D01*
X137565405Y-97468119D01*
X137641373Y-97414925D01*
X137050234Y-96823787D01*
X137092292Y-96812518D01*
X137217708Y-96740110D01*
X137320110Y-96637708D01*
X137392518Y-96512292D01*
X137403787Y-96470235D01*
X137994925Y-97061373D01*
X137994926Y-97061373D01*
X138053598Y-96977582D01*
X138053600Y-96977578D01*
X138153429Y-96763492D01*
X138153433Y-96763483D01*
X138214567Y-96535326D01*
X138214569Y-96535315D01*
X138235157Y-96300001D01*
X138235157Y-96299998D01*
X138224825Y-96181902D01*
X142999500Y-96181902D01*
X142999500Y-96418097D01*
X143036446Y-96651368D01*
X143109433Y-96875996D01*
X143203888Y-97061373D01*
X143216657Y-97086433D01*
X143355483Y-97277510D01*
X143522490Y-97444517D01*
X143713567Y-97583343D01*
X143779018Y-97616692D01*
X143924003Y-97690566D01*
X143924005Y-97690566D01*
X143924008Y-97690568D01*
X144044412Y-97729689D01*
X144148631Y-97763553D01*
X144381903Y-97800500D01*
X144381908Y-97800500D01*
X144618097Y-97800500D01*
X144851368Y-97763553D01*
X144851525Y-97763502D01*
X145075992Y-97690568D01*
X145286433Y-97583343D01*
X145477510Y-97444517D01*
X145644517Y-97277510D01*
X145783343Y-97086433D01*
X145890568Y-96875992D01*
X145963553Y-96651368D01*
X145967286Y-96627796D01*
X146000500Y-96418097D01*
X146000500Y-96181902D01*
X145963553Y-95948631D01*
X145906000Y-95771503D01*
X145890568Y-95724008D01*
X145890566Y-95724005D01*
X145890566Y-95724003D01*
X145829082Y-95603334D01*
X145783343Y-95513567D01*
X145644517Y-95322490D01*
X145477510Y-95155483D01*
X145286433Y-95016657D01*
X145259231Y-95002797D01*
X145075996Y-94909433D01*
X144851368Y-94836446D01*
X144618097Y-94799500D01*
X144618092Y-94799500D01*
X144381908Y-94799500D01*
X144381903Y-94799500D01*
X144148631Y-94836446D01*
X143924003Y-94909433D01*
X143713566Y-95016657D01*
X143639892Y-95070185D01*
X143522490Y-95155483D01*
X143522488Y-95155485D01*
X143522487Y-95155485D01*
X143355485Y-95322487D01*
X143355485Y-95322488D01*
X143355483Y-95322490D01*
X143299190Y-95399970D01*
X143216657Y-95513566D01*
X143109433Y-95724003D01*
X143036446Y-95948631D01*
X142999500Y-96181902D01*
X138224825Y-96181902D01*
X138214569Y-96064684D01*
X138214567Y-96064673D01*
X138153433Y-95836516D01*
X138153429Y-95836507D01*
X138053600Y-95622423D01*
X138053599Y-95622421D01*
X137994925Y-95538626D01*
X137994925Y-95538625D01*
X137403787Y-96129764D01*
X137392518Y-96087708D01*
X137320110Y-95962292D01*
X137217708Y-95859890D01*
X137092292Y-95787482D01*
X137050234Y-95776212D01*
X137641373Y-95185073D01*
X137641373Y-95185072D01*
X137557583Y-95126402D01*
X137557579Y-95126400D01*
X137343492Y-95026570D01*
X137343483Y-95026566D01*
X137115326Y-94965432D01*
X137115315Y-94965430D01*
X136880002Y-94944843D01*
X136879998Y-94944843D01*
X136644684Y-94965430D01*
X136644673Y-94965432D01*
X136416516Y-95026566D01*
X136416507Y-95026570D01*
X136202419Y-95126401D01*
X136118625Y-95185072D01*
X136709765Y-95776212D01*
X136667708Y-95787482D01*
X136542292Y-95859890D01*
X136439890Y-95962292D01*
X136367482Y-96087708D01*
X136356212Y-96129764D01*
X135765073Y-95538625D01*
X135765072Y-95538625D01*
X135706401Y-95622419D01*
X135636882Y-95771503D01*
X135590709Y-95823942D01*
X135523516Y-95843094D01*
X135456635Y-95822878D01*
X135411300Y-95769713D01*
X135400500Y-95719098D01*
X135400500Y-92890783D01*
X135420185Y-92823744D01*
X135436819Y-92803102D01*
X135462319Y-92777602D01*
X135523642Y-92744117D01*
X135593334Y-92749101D01*
X135637680Y-92777601D01*
X135661833Y-92801754D01*
X135662219Y-92802140D01*
X135826079Y-92911628D01*
X135826092Y-92911635D01*
X136004406Y-92985494D01*
X136008165Y-92987051D01*
X136008169Y-92987051D01*
X136008170Y-92987052D01*
X136201456Y-93025500D01*
X136201459Y-93025500D01*
X136398543Y-93025500D01*
X136552567Y-92994862D01*
X136591835Y-92987051D01*
X136773914Y-92911632D01*
X136937782Y-92802139D01*
X137077139Y-92662782D01*
X137186632Y-92498914D01*
X137262051Y-92316835D01*
X137300500Y-92123541D01*
X137300500Y-91073945D01*
X137320185Y-91006906D01*
X137372989Y-90961151D01*
X137442147Y-90951207D01*
X137498811Y-90974679D01*
X137504810Y-90979170D01*
X137517667Y-90988795D01*
X137517671Y-90988797D01*
X137652517Y-91039091D01*
X137652516Y-91039091D01*
X137659444Y-91039835D01*
X137712127Y-91045500D01*
X139007872Y-91045499D01*
X139067483Y-91039091D01*
X139202331Y-90988796D01*
X139317546Y-90902546D01*
X139403796Y-90787331D01*
X139454091Y-90652483D01*
X139460500Y-90592873D01*
X139460499Y-89497128D01*
X139454824Y-89444334D01*
X139454091Y-89437516D01*
X139403797Y-89302670D01*
X139385178Y-89277799D01*
X139378823Y-89269310D01*
X139354406Y-89203849D01*
X139369257Y-89135575D01*
X139378823Y-89120690D01*
X139403796Y-89087331D01*
X139416797Y-89052475D01*
X139428724Y-89020495D01*
X139454091Y-88952483D01*
X139460500Y-88892873D01*
X139460499Y-88097128D01*
X139454091Y-88037517D01*
X139447836Y-88020747D01*
X139435747Y-87988334D01*
X139430762Y-87918643D01*
X139435747Y-87901665D01*
X139437412Y-87897200D01*
X139454091Y-87852483D01*
X139460500Y-87792873D01*
X139460499Y-86997128D01*
X139454091Y-86937517D01*
X139448801Y-86923334D01*
X139435747Y-86888334D01*
X139430762Y-86818643D01*
X139435747Y-86801665D01*
X139446504Y-86772825D01*
X139454091Y-86752483D01*
X139460500Y-86692873D01*
X139460499Y-86591936D01*
X139480183Y-86524900D01*
X139532986Y-86479144D01*
X139602145Y-86469200D01*
X139665701Y-86498224D01*
X139672180Y-86504257D01*
X139765843Y-86597920D01*
X139765853Y-86597931D01*
X139770183Y-86602261D01*
X139770184Y-86602262D01*
X139897738Y-86729816D01*
X139963166Y-86770926D01*
X139966043Y-86772791D01*
X140020815Y-86809389D01*
X140020820Y-86809392D01*
X140020823Y-86809394D01*
X140021603Y-86809717D01*
X140040132Y-86819287D01*
X140050478Y-86825789D01*
X140111160Y-86847022D01*
X140117627Y-86849492D01*
X140166494Y-86869734D01*
X140166498Y-86869735D01*
X140166503Y-86869737D01*
X140180139Y-86872449D01*
X140196898Y-86877023D01*
X140220745Y-86885368D01*
X140271713Y-86891110D01*
X140281991Y-86892709D01*
X140309139Y-86898109D01*
X140321156Y-86900500D01*
X140321157Y-86900500D01*
X140348085Y-86900500D01*
X140361969Y-86901280D01*
X140399998Y-86905565D01*
X140400000Y-86905565D01*
X140400002Y-86905565D01*
X140438031Y-86901280D01*
X140451915Y-86900500D01*
X140478841Y-86900500D01*
X140478842Y-86900500D01*
X140518017Y-86892707D01*
X140528283Y-86891110D01*
X140579255Y-86885368D01*
X140603107Y-86877020D01*
X140619852Y-86872450D01*
X140633497Y-86869737D01*
X140682382Y-86849487D01*
X140688852Y-86847017D01*
X140749522Y-86825789D01*
X140759860Y-86819292D01*
X140778389Y-86809719D01*
X140779179Y-86809393D01*
X140833965Y-86772784D01*
X140836827Y-86770930D01*
X140836878Y-86770898D01*
X140902262Y-86729816D01*
X141029816Y-86602262D01*
X141070939Y-86536811D01*
X141072784Y-86533965D01*
X141109393Y-86479179D01*
X141109719Y-86478389D01*
X141119293Y-86459859D01*
X141119534Y-86459475D01*
X141125789Y-86449522D01*
X141147017Y-86388852D01*
X141149493Y-86382368D01*
X141169737Y-86333497D01*
X141172450Y-86319852D01*
X141177020Y-86303107D01*
X141185368Y-86279255D01*
X141191110Y-86228283D01*
X141192707Y-86218017D01*
X141200500Y-86178842D01*
X141200500Y-86151914D01*
X141201280Y-86138029D01*
X141205565Y-86100001D01*
X141205565Y-86099998D01*
X141201280Y-86061969D01*
X141200500Y-86048085D01*
X141200500Y-86021156D01*
X141196442Y-86000755D01*
X141192709Y-85981991D01*
X141191110Y-85971713D01*
X141185368Y-85920745D01*
X141177023Y-85896898D01*
X141172449Y-85880139D01*
X141169737Y-85866503D01*
X141169735Y-85866498D01*
X141169734Y-85866494D01*
X141149492Y-85817627D01*
X141147022Y-85811160D01*
X141125789Y-85750478D01*
X141119287Y-85740132D01*
X141109717Y-85721603D01*
X141109394Y-85720823D01*
X141109392Y-85720820D01*
X141108120Y-85718917D01*
X141083313Y-85681790D01*
X141072791Y-85666043D01*
X141070926Y-85663166D01*
X141029816Y-85597738D01*
X140902262Y-85470184D01*
X140902261Y-85470183D01*
X140897931Y-85465853D01*
X140897920Y-85465843D01*
X140005292Y-84573213D01*
X140005288Y-84573210D01*
X139874185Y-84485609D01*
X139874172Y-84485602D01*
X139728501Y-84425264D01*
X139728489Y-84425261D01*
X139573840Y-84394499D01*
X139572338Y-84394351D01*
X139571601Y-84394053D01*
X139567868Y-84393311D01*
X139568008Y-84392602D01*
X139507552Y-84368187D01*
X139467197Y-84311150D01*
X139460499Y-84270953D01*
X139460499Y-83697128D01*
X139454091Y-83637517D01*
X139435480Y-83587618D01*
X139430495Y-83517927D01*
X139435480Y-83500949D01*
X139453597Y-83452375D01*
X139453598Y-83452372D01*
X139459999Y-83392844D01*
X139460000Y-83392827D01*
X139460000Y-83245000D01*
X139019167Y-83245000D01*
X139011188Y-83244572D01*
X139011183Y-83244678D01*
X139007879Y-83244500D01*
X139007873Y-83244500D01*
X139007866Y-83244500D01*
X138234000Y-83244500D01*
X138166961Y-83224815D01*
X138121206Y-83172011D01*
X138110000Y-83120500D01*
X138110000Y-82869499D01*
X138129685Y-82802460D01*
X138182489Y-82756705D01*
X138233997Y-82745499D01*
X139007872Y-82745499D01*
X139007872Y-82745498D01*
X139011196Y-82745321D01*
X139011201Y-82745426D01*
X139019163Y-82745000D01*
X139460000Y-82745000D01*
X139460000Y-82597172D01*
X139459999Y-82597155D01*
X139453598Y-82537627D01*
X139435479Y-82489048D01*
X139430495Y-82419356D01*
X139435476Y-82402391D01*
X139454091Y-82352483D01*
X139460500Y-82292873D01*
X139460499Y-81497128D01*
X139454091Y-81437517D01*
X139443828Y-81410000D01*
X139435747Y-81388334D01*
X139430762Y-81318643D01*
X139435747Y-81301665D01*
X139447489Y-81270184D01*
X139454091Y-81252483D01*
X139460500Y-81192873D01*
X139460499Y-80397128D01*
X139454091Y-80337517D01*
X139454089Y-80337513D01*
X139453632Y-80333255D01*
X139453633Y-80306745D01*
X139458528Y-80261212D01*
X139460500Y-80242873D01*
X139460499Y-79447128D01*
X139454091Y-79387517D01*
X139454090Y-79387515D01*
X139453525Y-79382254D01*
X139465932Y-79313494D01*
X139513543Y-79262358D01*
X139576815Y-79245000D01*
X141435501Y-79245000D01*
X141502540Y-79264685D01*
X141548295Y-79317489D01*
X141559501Y-79369000D01*
X141559501Y-79442876D01*
X141565908Y-79502483D01*
X141616202Y-79637328D01*
X141616206Y-79637335D01*
X141702452Y-79752544D01*
X141702455Y-79752547D01*
X141817664Y-79838793D01*
X141817671Y-79838797D01*
X141952517Y-79889091D01*
X141952516Y-79889091D01*
X141959444Y-79889835D01*
X142012127Y-79895500D01*
X143307872Y-79895499D01*
X143367483Y-79889091D01*
X143502331Y-79838796D01*
X143617546Y-79752546D01*
X143703796Y-79637331D01*
X143754091Y-79502483D01*
X143760500Y-79442873D01*
X143760500Y-79369000D01*
X143780185Y-79301961D01*
X143832989Y-79256206D01*
X143884500Y-79245000D01*
X146860000Y-79245000D01*
X146860000Y-78495000D01*
X143884499Y-78495000D01*
X143817460Y-78475315D01*
X143771705Y-78422511D01*
X143760499Y-78371000D01*
X143760499Y-78347129D01*
X143760498Y-78347123D01*
X143760497Y-78347116D01*
X143754091Y-78287517D01*
X143746936Y-78268334D01*
X143703797Y-78152671D01*
X143703793Y-78152664D01*
X143617547Y-78037455D01*
X143617544Y-78037452D01*
X143502335Y-77951206D01*
X143502328Y-77951202D01*
X143367482Y-77900908D01*
X143367483Y-77900908D01*
X143307883Y-77894501D01*
X143307881Y-77894500D01*
X143307873Y-77894500D01*
X143307864Y-77894500D01*
X142012129Y-77894500D01*
X142012123Y-77894501D01*
X141952516Y-77900908D01*
X141817671Y-77951202D01*
X141817664Y-77951206D01*
X141702455Y-78037452D01*
X141702452Y-78037455D01*
X141616206Y-78152664D01*
X141616202Y-78152671D01*
X141565908Y-78287517D01*
X141561144Y-78331835D01*
X141559501Y-78347123D01*
X141559500Y-78347135D01*
X141559500Y-78371000D01*
X141539815Y-78438039D01*
X141487011Y-78483794D01*
X141435500Y-78495000D01*
X138810000Y-78495000D01*
X138810000Y-78870500D01*
X138790315Y-78937539D01*
X138737511Y-78983294D01*
X138686000Y-78994500D01*
X137712129Y-78994500D01*
X137712123Y-78994501D01*
X137652516Y-79000908D01*
X137517671Y-79051202D01*
X137517664Y-79051206D01*
X137402455Y-79137452D01*
X137402452Y-79137455D01*
X137316206Y-79252664D01*
X137316202Y-79252671D01*
X137265908Y-79387517D01*
X137259956Y-79442883D01*
X137259501Y-79447125D01*
X137259500Y-79447135D01*
X137259500Y-80242870D01*
X137259501Y-80242879D01*
X137266367Y-80306751D01*
X137266367Y-80333257D01*
X137265909Y-80337516D01*
X137265909Y-80337517D01*
X137259500Y-80397127D01*
X137259500Y-80397128D01*
X137259500Y-80397132D01*
X137259500Y-81013088D01*
X137239815Y-81080127D01*
X137187011Y-81125882D01*
X137176454Y-81130130D01*
X137050478Y-81174210D01*
X136897737Y-81270184D01*
X136770184Y-81397737D01*
X136674211Y-81550476D01*
X136614631Y-81720745D01*
X136614630Y-81720750D01*
X136594435Y-81899996D01*
X136594435Y-81900003D01*
X136614630Y-82079249D01*
X136614631Y-82079254D01*
X136674211Y-82249523D01*
X136716378Y-82316631D01*
X136770184Y-82402262D01*
X136897738Y-82529816D01*
X137013487Y-82602546D01*
X137050478Y-82625789D01*
X137130491Y-82653787D01*
X137187268Y-82694509D01*
X137213015Y-82759462D01*
X137199559Y-82828023D01*
X137151172Y-82878426D01*
X137103420Y-82894049D01*
X136920750Y-82914630D01*
X136920745Y-82914631D01*
X136750476Y-82974211D01*
X136597737Y-83070184D01*
X136470184Y-83197737D01*
X136374211Y-83350476D01*
X136314631Y-83520745D01*
X136314630Y-83520750D01*
X136294435Y-83699996D01*
X136294435Y-83700003D01*
X136314630Y-83879249D01*
X136314631Y-83879254D01*
X136374211Y-84049523D01*
X136456523Y-84180521D01*
X136470184Y-84202262D01*
X136597738Y-84329816D01*
X136658805Y-84368187D01*
X136749640Y-84425263D01*
X136750478Y-84425789D01*
X136920745Y-84485368D01*
X137007668Y-84495161D01*
X137072079Y-84522226D01*
X137081464Y-84530700D01*
X137126284Y-84575520D01*
X137204226Y-84620519D01*
X137252442Y-84671086D01*
X137265666Y-84739693D01*
X137265517Y-84741160D01*
X137259500Y-84797130D01*
X137259500Y-84873650D01*
X137239815Y-84940689D01*
X137187011Y-84986444D01*
X137121617Y-84996870D01*
X137100004Y-84994435D01*
X137099996Y-84994435D01*
X136920750Y-85014630D01*
X136920745Y-85014631D01*
X136750476Y-85074211D01*
X136597737Y-85170184D01*
X136470184Y-85297737D01*
X136374211Y-85450476D01*
X136314631Y-85620745D01*
X136314630Y-85620750D01*
X136294435Y-85799996D01*
X136294435Y-85800003D01*
X136314630Y-85979249D01*
X136314631Y-85979254D01*
X136374211Y-86149523D01*
X136377715Y-86155099D01*
X136396715Y-86222335D01*
X136376347Y-86289171D01*
X136370491Y-86297249D01*
X136274211Y-86450476D01*
X136214631Y-86620745D01*
X136214630Y-86620750D01*
X136194435Y-86799996D01*
X136194435Y-86800003D01*
X136214630Y-86979249D01*
X136214631Y-86979254D01*
X136274211Y-87149523D01*
X136345970Y-87263726D01*
X136370184Y-87302262D01*
X136497738Y-87429816D01*
X136650478Y-87525789D01*
X136820745Y-87585368D01*
X136907669Y-87595161D01*
X136972080Y-87622226D01*
X136981465Y-87630700D01*
X137110139Y-87759374D01*
X137110149Y-87759385D01*
X137114479Y-87763715D01*
X137114480Y-87763716D01*
X137226284Y-87875520D01*
X137226288Y-87875522D01*
X137231336Y-87879396D01*
X137272538Y-87935825D01*
X137276692Y-88005571D01*
X137272031Y-88021102D01*
X137265908Y-88037517D01*
X137261079Y-88082438D01*
X137259501Y-88097123D01*
X137259500Y-88097135D01*
X137259500Y-88892870D01*
X137259501Y-88892876D01*
X137265908Y-88952483D01*
X137316202Y-89087328D01*
X137316203Y-89087330D01*
X137341176Y-89120690D01*
X137365592Y-89186155D01*
X137350740Y-89254428D01*
X137341176Y-89269310D01*
X137316203Y-89302669D01*
X137316202Y-89302671D01*
X137265908Y-89437517D01*
X137259501Y-89497116D01*
X137259501Y-89497123D01*
X137259500Y-89497135D01*
X137259500Y-90270216D01*
X137239815Y-90337255D01*
X137187011Y-90383010D01*
X137117853Y-90392954D01*
X137054297Y-90363929D01*
X137047819Y-90357897D01*
X136937785Y-90247863D01*
X136937781Y-90247860D01*
X136773920Y-90138371D01*
X136773907Y-90138364D01*
X136591839Y-90062950D01*
X136591829Y-90062947D01*
X136398543Y-90024500D01*
X136398541Y-90024500D01*
X136201459Y-90024500D01*
X136201457Y-90024500D01*
X136008170Y-90062947D01*
X136008160Y-90062950D01*
X135826092Y-90138364D01*
X135826079Y-90138371D01*
X135662218Y-90247860D01*
X135662214Y-90247863D01*
X135637681Y-90272397D01*
X135576358Y-90305882D01*
X135506666Y-90300898D01*
X135462319Y-90272397D01*
X135437785Y-90247863D01*
X135437781Y-90247860D01*
X135273920Y-90138371D01*
X135273910Y-90138366D01*
X135160495Y-90091388D01*
X135106092Y-90047547D01*
X135084027Y-89981253D01*
X135101306Y-89913553D01*
X135152444Y-89865943D01*
X135168944Y-89859121D01*
X135319119Y-89809358D01*
X135319124Y-89809356D01*
X135468345Y-89717315D01*
X135592315Y-89593345D01*
X135684356Y-89444124D01*
X135684358Y-89444119D01*
X135739505Y-89277697D01*
X135739506Y-89277690D01*
X135749999Y-89174986D01*
X135750000Y-89174973D01*
X135750000Y-88750000D01*
X134474000Y-88750000D01*
X134406961Y-88730315D01*
X134361206Y-88677511D01*
X134350000Y-88626000D01*
X134350000Y-88250000D01*
X134850000Y-88250000D01*
X135749999Y-88250000D01*
X135749999Y-87825028D01*
X135749998Y-87825013D01*
X135739505Y-87722302D01*
X135684358Y-87555880D01*
X135684356Y-87555875D01*
X135592315Y-87406654D01*
X135468345Y-87282684D01*
X135319124Y-87190643D01*
X135319119Y-87190641D01*
X135152697Y-87135494D01*
X135152690Y-87135493D01*
X135049986Y-87125000D01*
X134850000Y-87125000D01*
X134850000Y-88250000D01*
X134350000Y-88250000D01*
X134350000Y-87125000D01*
X134150029Y-87125000D01*
X134150012Y-87125001D01*
X134040570Y-87136182D01*
X134040353Y-87134065D01*
X133980769Y-87129599D01*
X133924979Y-87087536D01*
X133900786Y-87021989D01*
X133900500Y-87013566D01*
X133900500Y-86589059D01*
X133900501Y-86589046D01*
X133900501Y-86420945D01*
X133900501Y-86420943D01*
X133859577Y-86268215D01*
X133819904Y-86199500D01*
X133798386Y-86162230D01*
X133780521Y-86131285D01*
X133664385Y-86015149D01*
X133664374Y-86015139D01*
X132854266Y-85205031D01*
X132820781Y-85143708D01*
X132825765Y-85074016D01*
X132867637Y-85018083D01*
X132933101Y-84993666D01*
X132954551Y-84993992D01*
X133013353Y-84999999D01*
X133050000Y-84999999D01*
X133550000Y-84999999D01*
X133586640Y-84999999D01*
X133586654Y-84999998D01*
X133687652Y-84989680D01*
X133851300Y-84935453D01*
X133851311Y-84935448D01*
X133998034Y-84844947D01*
X133998038Y-84844944D01*
X134119944Y-84723038D01*
X134119947Y-84723034D01*
X134210448Y-84576311D01*
X134210453Y-84576300D01*
X134264680Y-84412652D01*
X134274999Y-84311654D01*
X134275000Y-84311641D01*
X134275000Y-84212500D01*
X133550000Y-84212500D01*
X133550000Y-84999999D01*
X133050000Y-84999999D01*
X133050000Y-84212500D01*
X132325001Y-84212500D01*
X132325001Y-84311656D01*
X132331008Y-84370452D01*
X132318238Y-84439144D01*
X132270357Y-84490029D01*
X132202568Y-84506949D01*
X132136391Y-84484533D01*
X132119969Y-84470734D01*
X131111415Y-83462180D01*
X131077930Y-83400857D01*
X131082914Y-83331165D01*
X131124786Y-83275232D01*
X131190250Y-83250815D01*
X131199096Y-83250499D01*
X132000002Y-83250499D01*
X132000008Y-83250499D01*
X132102797Y-83239999D01*
X132231008Y-83197513D01*
X132300832Y-83195112D01*
X132360875Y-83230843D01*
X132392068Y-83293363D01*
X132387715Y-83354223D01*
X132335319Y-83512345D01*
X132335319Y-83512346D01*
X132325001Y-83613339D01*
X132325000Y-83613358D01*
X132325000Y-83712500D01*
X134274999Y-83712500D01*
X134274999Y-83613360D01*
X134274997Y-83613330D01*
X134264680Y-83512347D01*
X134210453Y-83348699D01*
X134210448Y-83348688D01*
X134119947Y-83201965D01*
X134119944Y-83201961D01*
X134106017Y-83188034D01*
X134072532Y-83126711D01*
X134077516Y-83057019D01*
X134106017Y-83012672D01*
X134120340Y-82998350D01*
X134210908Y-82851516D01*
X134265174Y-82687753D01*
X134275500Y-82586677D01*
X134275499Y-81888324D01*
X134265174Y-81787247D01*
X134210908Y-81623484D01*
X134120340Y-81476650D01*
X133998350Y-81354660D01*
X133851516Y-81264092D01*
X133687753Y-81209826D01*
X133687751Y-81209825D01*
X133586678Y-81199500D01*
X133013330Y-81199500D01*
X133013312Y-81199501D01*
X132912247Y-81209825D01*
X132748484Y-81264092D01*
X132748481Y-81264093D01*
X132601648Y-81354661D01*
X132568616Y-81387693D01*
X132507293Y-81421178D01*
X132437601Y-81416192D01*
X132415840Y-81405550D01*
X132269340Y-81315189D01*
X132269335Y-81315187D01*
X132269334Y-81315186D01*
X132102797Y-81260001D01*
X132102795Y-81260000D01*
X132000010Y-81249500D01*
X130599998Y-81249500D01*
X130599981Y-81249501D01*
X130497203Y-81260000D01*
X130497200Y-81260001D01*
X130330668Y-81315185D01*
X130330663Y-81315187D01*
X130268785Y-81353354D01*
X130181344Y-81407288D01*
X130181343Y-81407289D01*
X130156613Y-81432019D01*
X130095289Y-81465503D01*
X130025597Y-81460517D01*
X129981252Y-81432017D01*
X129736818Y-81187583D01*
X129703333Y-81126260D01*
X129700499Y-81099902D01*
X129700499Y-80902129D01*
X129700498Y-80902123D01*
X129700497Y-80902116D01*
X129694091Y-80842517D01*
X129685172Y-80818606D01*
X129680187Y-80748915D01*
X129713672Y-80687592D01*
X129739356Y-80667885D01*
X129753012Y-80660001D01*
X129765376Y-80652863D01*
X129838709Y-80610524D01*
X129838708Y-80610524D01*
X129838716Y-80610520D01*
X129931255Y-80517980D01*
X129992574Y-80484498D01*
X130062266Y-80489482D01*
X130106614Y-80517982D01*
X130181344Y-80592712D01*
X130330666Y-80684814D01*
X130497203Y-80739999D01*
X130599991Y-80750500D01*
X132000008Y-80750499D01*
X132102797Y-80739999D01*
X132269334Y-80684814D01*
X132415840Y-80594448D01*
X132483232Y-80576009D01*
X132549895Y-80596932D01*
X132568617Y-80612307D01*
X132601650Y-80645340D01*
X132748484Y-80735908D01*
X132912247Y-80790174D01*
X133013323Y-80800500D01*
X133586676Y-80800499D01*
X133586684Y-80800498D01*
X133586687Y-80800498D01*
X133667782Y-80792214D01*
X133687753Y-80790174D01*
X133851516Y-80735908D01*
X133998350Y-80645340D01*
X134120340Y-80523350D01*
X134210908Y-80376516D01*
X134265174Y-80212753D01*
X134275500Y-80111677D01*
X134275499Y-79413324D01*
X134271353Y-79372741D01*
X134265174Y-79312247D01*
X134210908Y-79148484D01*
X134120340Y-79001650D01*
X134106017Y-78987327D01*
X134072532Y-78926004D01*
X134077516Y-78856312D01*
X134106021Y-78811960D01*
X134119947Y-78798035D01*
X134210448Y-78651311D01*
X134210453Y-78651300D01*
X134264680Y-78487652D01*
X134274999Y-78386654D01*
X134275000Y-78386641D01*
X134275000Y-78287500D01*
X132325001Y-78287500D01*
X132325001Y-78386654D01*
X132335319Y-78487653D01*
X132387715Y-78645776D01*
X132390117Y-78715604D01*
X132354385Y-78775646D01*
X132291864Y-78806838D01*
X132231005Y-78802485D01*
X132217576Y-78798035D01*
X132102797Y-78760001D01*
X132102795Y-78760000D01*
X132000010Y-78749500D01*
X130599998Y-78749500D01*
X130599981Y-78749501D01*
X130497203Y-78760000D01*
X130497200Y-78760001D01*
X130330668Y-78815185D01*
X130330663Y-78815187D01*
X130181342Y-78907289D01*
X130057289Y-79031342D01*
X130057288Y-79031344D01*
X130029121Y-79077011D01*
X130020741Y-79090597D01*
X129968793Y-79137321D01*
X129915202Y-79149500D01*
X129824499Y-79149500D01*
X129757460Y-79129815D01*
X129711705Y-79077011D01*
X129700499Y-79025500D01*
X129700499Y-78362129D01*
X129700498Y-78362123D01*
X129700497Y-78362116D01*
X129694091Y-78302517D01*
X129681340Y-78268332D01*
X129676357Y-78198642D01*
X129681340Y-78181669D01*
X129694091Y-78147483D01*
X129700500Y-78087873D01*
X129700500Y-77688345D01*
X132325000Y-77688345D01*
X132325000Y-77787500D01*
X133050000Y-77787500D01*
X133550000Y-77787500D01*
X134274999Y-77787500D01*
X134274999Y-77688360D01*
X134274998Y-77688345D01*
X134264680Y-77587347D01*
X134210453Y-77423699D01*
X134210448Y-77423688D01*
X134119947Y-77276965D01*
X134119944Y-77276961D01*
X133998038Y-77155055D01*
X133998034Y-77155052D01*
X133851311Y-77064551D01*
X133851300Y-77064546D01*
X133687652Y-77010319D01*
X133586654Y-77000000D01*
X133550000Y-77000000D01*
X133550000Y-77787500D01*
X133050000Y-77787500D01*
X133050000Y-77000000D01*
X133013361Y-77000000D01*
X133013343Y-77000001D01*
X132912347Y-77010319D01*
X132748699Y-77064546D01*
X132748688Y-77064551D01*
X132601965Y-77155052D01*
X132601961Y-77155055D01*
X132480055Y-77276961D01*
X132480052Y-77276965D01*
X132389551Y-77423688D01*
X132389546Y-77423699D01*
X132335319Y-77587347D01*
X132325000Y-77688345D01*
X129700500Y-77688345D01*
X129700499Y-77092128D01*
X129694091Y-77032517D01*
X129681340Y-76998332D01*
X129676357Y-76928642D01*
X129681338Y-76911672D01*
X129694091Y-76877483D01*
X129700500Y-76817873D01*
X129700499Y-75822128D01*
X129694091Y-75762517D01*
X129681340Y-75728332D01*
X129676357Y-75658642D01*
X129681338Y-75641672D01*
X129694091Y-75607483D01*
X129700500Y-75547873D01*
X129700499Y-74552128D01*
X129694091Y-74492517D01*
X129681340Y-74458332D01*
X129676357Y-74388642D01*
X129681338Y-74371672D01*
X129694091Y-74337483D01*
X129700500Y-74277873D01*
X129700499Y-74011782D01*
X129720183Y-73944745D01*
X129772987Y-73898990D01*
X129842146Y-73889046D01*
X129889594Y-73906244D01*
X129998484Y-73973408D01*
X130162247Y-74027674D01*
X130263323Y-74038000D01*
X130404557Y-74037999D01*
X130471597Y-74057683D01*
X130492239Y-74074318D01*
X130577207Y-74159286D01*
X130577211Y-74159289D01*
X130708314Y-74246890D01*
X130708327Y-74246897D01*
X130853998Y-74307235D01*
X130854003Y-74307237D01*
X131006049Y-74337481D01*
X131008653Y-74337999D01*
X131008656Y-74338000D01*
X131008658Y-74338000D01*
X131166343Y-74338000D01*
X131675270Y-74338000D01*
X131742309Y-74357685D01*
X131762951Y-74374319D01*
X131856344Y-74467712D01*
X132005666Y-74559814D01*
X132172203Y-74614999D01*
X132274991Y-74625500D01*
X133325008Y-74625499D01*
X133325016Y-74625498D01*
X133325019Y-74625498D01*
X133381302Y-74619748D01*
X133427797Y-74614999D01*
X133594334Y-74559814D01*
X133743656Y-74467712D01*
X133867712Y-74343656D01*
X133959814Y-74194334D01*
X134014999Y-74027797D01*
X134025500Y-73925009D01*
X134025500Y-73885258D01*
X149049500Y-73885258D01*
X149049500Y-74114741D01*
X149070977Y-74277864D01*
X149079452Y-74342238D01*
X149137750Y-74559812D01*
X149138842Y-74563887D01*
X149226650Y-74775876D01*
X149226657Y-74775890D01*
X149341392Y-74974617D01*
X149481081Y-75156661D01*
X149481089Y-75156670D01*
X149643330Y-75318911D01*
X149643338Y-75318918D01*
X149825382Y-75458607D01*
X149825385Y-75458608D01*
X149825388Y-75458611D01*
X150024112Y-75573344D01*
X150024117Y-75573346D01*
X150024123Y-75573349D01*
X150115480Y-75611190D01*
X150236113Y-75661158D01*
X150457762Y-75720548D01*
X150685266Y-75750500D01*
X150685273Y-75750500D01*
X150914727Y-75750500D01*
X150914734Y-75750500D01*
X151142238Y-75720548D01*
X151363887Y-75661158D01*
X151575888Y-75573344D01*
X151774612Y-75458611D01*
X151956661Y-75318919D01*
X151956665Y-75318914D01*
X151956670Y-75318911D01*
X152118911Y-75156670D01*
X152118914Y-75156665D01*
X152118919Y-75156661D01*
X152258611Y-74974612D01*
X152373344Y-74775888D01*
X152461158Y-74563887D01*
X152520548Y-74342238D01*
X152550500Y-74114734D01*
X152550500Y-73885266D01*
X152520548Y-73657762D01*
X152461158Y-73436113D01*
X152397370Y-73282116D01*
X152373349Y-73224123D01*
X152373346Y-73224117D01*
X152373344Y-73224112D01*
X152258611Y-73025388D01*
X152258608Y-73025385D01*
X152258607Y-73025382D01*
X152118918Y-72843338D01*
X152118911Y-72843330D01*
X151956670Y-72681089D01*
X151956661Y-72681081D01*
X151774617Y-72541392D01*
X151575890Y-72426657D01*
X151575876Y-72426650D01*
X151363887Y-72338842D01*
X151142238Y-72279452D01*
X151104215Y-72274446D01*
X150914741Y-72249500D01*
X150914734Y-72249500D01*
X150685266Y-72249500D01*
X150685258Y-72249500D01*
X150468715Y-72278009D01*
X150457762Y-72279452D01*
X150364076Y-72304554D01*
X150236112Y-72338842D01*
X150024123Y-72426650D01*
X150024109Y-72426657D01*
X149825382Y-72541392D01*
X149643338Y-72681081D01*
X149481081Y-72843338D01*
X149341392Y-73025382D01*
X149226657Y-73224109D01*
X149226650Y-73224123D01*
X149138842Y-73436112D01*
X149129171Y-73472205D01*
X149081512Y-73650076D01*
X149079453Y-73657759D01*
X149079451Y-73657770D01*
X149049500Y-73885258D01*
X134025500Y-73885258D01*
X134025499Y-73149992D01*
X134020562Y-73101666D01*
X134014999Y-73047203D01*
X134014998Y-73047200D01*
X134007380Y-73024210D01*
X133959814Y-72880666D01*
X133867712Y-72731344D01*
X133743656Y-72607288D01*
X133740342Y-72605243D01*
X133738546Y-72603248D01*
X133737989Y-72602807D01*
X133738064Y-72602711D01*
X133693618Y-72553297D01*
X133682397Y-72484334D01*
X133710240Y-72420252D01*
X133740348Y-72394165D01*
X133743342Y-72392318D01*
X133867315Y-72268345D01*
X133959356Y-72119124D01*
X133959358Y-72119119D01*
X134014505Y-71952697D01*
X134014506Y-71952690D01*
X134024999Y-71849986D01*
X134025000Y-71849973D01*
X134025000Y-71712500D01*
X131649000Y-71712500D01*
X131581961Y-71692815D01*
X131536206Y-71640011D01*
X131525000Y-71588500D01*
X131525000Y-71525000D01*
X129618362Y-71525000D01*
X129551323Y-71505315D01*
X129532318Y-71490000D01*
X127200000Y-71490000D01*
X127200000Y-71737844D01*
X127206401Y-71797372D01*
X127206403Y-71797379D01*
X127218925Y-71830952D01*
X127223909Y-71900643D01*
X127218925Y-71917617D01*
X127205909Y-71952514D01*
X127205908Y-71952516D01*
X127203440Y-71975478D01*
X127199501Y-72012123D01*
X127199500Y-72012135D01*
X127199500Y-72849092D01*
X127179815Y-72916131D01*
X127127011Y-72961886D01*
X127116463Y-72966130D01*
X127060093Y-72985854D01*
X126950478Y-73024210D01*
X126797737Y-73120184D01*
X126670184Y-73247737D01*
X126574211Y-73400476D01*
X126514631Y-73570745D01*
X126514630Y-73570750D01*
X126494435Y-73749996D01*
X126494435Y-73750003D01*
X126514630Y-73929249D01*
X126514631Y-73929254D01*
X126574211Y-74099523D01*
X126670184Y-74252262D01*
X126802662Y-74384740D01*
X126801133Y-74386268D01*
X126835304Y-74434952D01*
X126838153Y-74504763D01*
X126805532Y-74562389D01*
X126770184Y-74597737D01*
X126674211Y-74750476D01*
X126614631Y-74920745D01*
X126614630Y-74920750D01*
X126594435Y-75099996D01*
X126594435Y-75100003D01*
X126614630Y-75279249D01*
X126614631Y-75279254D01*
X126674211Y-75449523D01*
X126770184Y-75602262D01*
X126830241Y-75662319D01*
X126863726Y-75723642D01*
X126858742Y-75793334D01*
X126830241Y-75837681D01*
X126770184Y-75897737D01*
X126674211Y-76050476D01*
X126614631Y-76220745D01*
X126614630Y-76220750D01*
X126594435Y-76399996D01*
X126594435Y-76400003D01*
X126614630Y-76579249D01*
X126614631Y-76579254D01*
X126674211Y-76749523D01*
X126756523Y-76880521D01*
X126770184Y-76902262D01*
X126897738Y-77029816D01*
X126996918Y-77092135D01*
X127050478Y-77125789D01*
X127116454Y-77148875D01*
X127173230Y-77189597D01*
X127198978Y-77254549D01*
X127199500Y-77265917D01*
X127199500Y-78087870D01*
X127199501Y-78087876D01*
X127205908Y-78147481D01*
X127218659Y-78181669D01*
X127223642Y-78251361D01*
X127218659Y-78268331D01*
X127205908Y-78302518D01*
X127201112Y-78347135D01*
X127199501Y-78362123D01*
X127199500Y-78362135D01*
X127199500Y-79357870D01*
X127199501Y-79357876D01*
X127205908Y-79417481D01*
X127218659Y-79451669D01*
X127223642Y-79521361D01*
X127218659Y-79538331D01*
X127205908Y-79572518D01*
X127202572Y-79603552D01*
X127199501Y-79632123D01*
X127199500Y-79632135D01*
X127199500Y-80627870D01*
X127199501Y-80627876D01*
X127205908Y-80687481D01*
X127218659Y-80721669D01*
X127223642Y-80791361D01*
X127218659Y-80808331D01*
X127205908Y-80842518D01*
X127199501Y-80902116D01*
X127199501Y-80902123D01*
X127199500Y-80902135D01*
X127199500Y-81897870D01*
X127199501Y-81897876D01*
X127205908Y-81957481D01*
X127218659Y-81991669D01*
X127223642Y-82061361D01*
X127218659Y-82078331D01*
X127205908Y-82112518D01*
X127202371Y-82145421D01*
X127199501Y-82172123D01*
X127199500Y-82172135D01*
X127199500Y-83167870D01*
X127199501Y-83167876D01*
X127205908Y-83227481D01*
X127218659Y-83261669D01*
X127223642Y-83331361D01*
X127218659Y-83348331D01*
X127205908Y-83382518D01*
X127200558Y-83432288D01*
X127199501Y-83442123D01*
X127199500Y-83442135D01*
X127199500Y-84437870D01*
X127199501Y-84437876D01*
X127205908Y-84497481D01*
X127218659Y-84531669D01*
X127223642Y-84601361D01*
X127218659Y-84618331D01*
X127205908Y-84652518D01*
X127199501Y-84712116D01*
X127199501Y-84712123D01*
X127199500Y-84712135D01*
X127199501Y-85707865D01*
X127199501Y-85707876D01*
X127205908Y-85767481D01*
X127218659Y-85801669D01*
X127223642Y-85871361D01*
X127218659Y-85888331D01*
X127205908Y-85922518D01*
X127200347Y-85974249D01*
X127199501Y-85982123D01*
X127199500Y-85982135D01*
X127199500Y-86977870D01*
X127199501Y-86977876D01*
X127205908Y-87037481D01*
X127218659Y-87071669D01*
X127223642Y-87141361D01*
X127218659Y-87158331D01*
X127205908Y-87192518D01*
X127201853Y-87230241D01*
X127199501Y-87252123D01*
X127199500Y-87252135D01*
X127199500Y-87625500D01*
X127179815Y-87692539D01*
X127127011Y-87738294D01*
X127075500Y-87749500D01*
X126521956Y-87749500D01*
X126454917Y-87729815D01*
X126409162Y-87677011D01*
X126398736Y-87639384D01*
X126385369Y-87520749D01*
X126385368Y-87520745D01*
X126363163Y-87457288D01*
X126325789Y-87350478D01*
X126311120Y-87327133D01*
X126282942Y-87282288D01*
X126229816Y-87197738D01*
X126102262Y-87070184D01*
X126068126Y-87048735D01*
X125949523Y-86974211D01*
X125779254Y-86914631D01*
X125779249Y-86914630D01*
X125600004Y-86894435D01*
X125599996Y-86894435D01*
X125420750Y-86914630D01*
X125420745Y-86914631D01*
X125250476Y-86974211D01*
X125097737Y-87070184D01*
X124970184Y-87197737D01*
X124874211Y-87350476D01*
X124814631Y-87520745D01*
X124814630Y-87520749D01*
X124800922Y-87642414D01*
X124773855Y-87706828D01*
X124716260Y-87746383D01*
X124664450Y-87751819D01*
X124642873Y-87749500D01*
X124642869Y-87749500D01*
X123710688Y-87749500D01*
X123643649Y-87729815D01*
X123597894Y-87677011D01*
X123587467Y-87639383D01*
X123585368Y-87620745D01*
X123525789Y-87450478D01*
X123498056Y-87406342D01*
X123462955Y-87350478D01*
X123429816Y-87297738D01*
X123302262Y-87170184D01*
X123256391Y-87141361D01*
X123149523Y-87074211D01*
X122979254Y-87014631D01*
X122979249Y-87014630D01*
X122800004Y-86994435D01*
X122799996Y-86994435D01*
X122620750Y-87014630D01*
X122620745Y-87014631D01*
X122450476Y-87074211D01*
X122297737Y-87170184D01*
X122287681Y-87180241D01*
X122226358Y-87213726D01*
X122156666Y-87208742D01*
X122112319Y-87180241D01*
X122102262Y-87170184D01*
X121949523Y-87074211D01*
X121779254Y-87014631D01*
X121779249Y-87014630D01*
X121600004Y-86994435D01*
X121599996Y-86994435D01*
X121420750Y-87014630D01*
X121420745Y-87014631D01*
X121250476Y-87074211D01*
X121097737Y-87170184D01*
X121037681Y-87230241D01*
X120976358Y-87263726D01*
X120906666Y-87258742D01*
X120862319Y-87230241D01*
X120802262Y-87170184D01*
X120649523Y-87074211D01*
X120479254Y-87014631D01*
X120479249Y-87014630D01*
X120300004Y-86994435D01*
X120299996Y-86994435D01*
X120120750Y-87014630D01*
X120120745Y-87014631D01*
X119950476Y-87074211D01*
X119797739Y-87170183D01*
X119730819Y-87237103D01*
X119669495Y-87270587D01*
X119599804Y-87265602D01*
X119577166Y-87254415D01*
X119449523Y-87174211D01*
X119279254Y-87114631D01*
X119279249Y-87114630D01*
X119100004Y-87094435D01*
X119099996Y-87094435D01*
X118920750Y-87114630D01*
X118920745Y-87114631D01*
X118750476Y-87174211D01*
X118597737Y-87270184D01*
X118470184Y-87397737D01*
X118374211Y-87550476D01*
X118333629Y-87666455D01*
X118292907Y-87723231D01*
X118227954Y-87748978D01*
X118216587Y-87749500D01*
X117297129Y-87749500D01*
X117297123Y-87749501D01*
X117237518Y-87755908D01*
X117203331Y-87768659D01*
X117133639Y-87773642D01*
X117116669Y-87768659D01*
X117082480Y-87755908D01*
X117082482Y-87755908D01*
X117022883Y-87749501D01*
X117022881Y-87749500D01*
X117022873Y-87749500D01*
X117022864Y-87749500D01*
X116027129Y-87749500D01*
X116027123Y-87749501D01*
X115967518Y-87755908D01*
X115933331Y-87768659D01*
X115863639Y-87773642D01*
X115846669Y-87768659D01*
X115812480Y-87755908D01*
X115812482Y-87755908D01*
X115752883Y-87749501D01*
X115752881Y-87749500D01*
X115752873Y-87749500D01*
X115752864Y-87749500D01*
X114757129Y-87749500D01*
X114757123Y-87749501D01*
X114697518Y-87755908D01*
X114663331Y-87768659D01*
X114593639Y-87773642D01*
X114576669Y-87768659D01*
X114542480Y-87755908D01*
X114542482Y-87755908D01*
X114482883Y-87749501D01*
X114482881Y-87749500D01*
X114482873Y-87749500D01*
X114482864Y-87749500D01*
X113487129Y-87749500D01*
X113487123Y-87749501D01*
X113427518Y-87755908D01*
X113393331Y-87768659D01*
X113323639Y-87773642D01*
X113306669Y-87768659D01*
X113272480Y-87755908D01*
X113272482Y-87755908D01*
X113212883Y-87749501D01*
X113212881Y-87749500D01*
X113212873Y-87749500D01*
X113212865Y-87749500D01*
X112324499Y-87749500D01*
X112257460Y-87729815D01*
X112211705Y-87677011D01*
X112200499Y-87625500D01*
X112200499Y-87252129D01*
X112200498Y-87252123D01*
X112200497Y-87252116D01*
X112194091Y-87192517D01*
X112181340Y-87158332D01*
X112176357Y-87088642D01*
X112181340Y-87071669D01*
X112194091Y-87037483D01*
X112200500Y-86977873D01*
X112200499Y-85982128D01*
X112194091Y-85922517D01*
X112181340Y-85888332D01*
X112176357Y-85818642D01*
X112181340Y-85801669D01*
X112194091Y-85767483D01*
X112200500Y-85707873D01*
X112200499Y-84712128D01*
X112194091Y-84652517D01*
X112181340Y-84618332D01*
X112176357Y-84548642D01*
X112181340Y-84531669D01*
X112194091Y-84497483D01*
X112200500Y-84437873D01*
X112200499Y-83442128D01*
X112194091Y-83382517D01*
X112181340Y-83348332D01*
X112176357Y-83278642D01*
X112181340Y-83261669D01*
X112194091Y-83227483D01*
X112200500Y-83167873D01*
X112200499Y-82172128D01*
X112194091Y-82112517D01*
X112181340Y-82078332D01*
X112176357Y-82008642D01*
X112181340Y-81991669D01*
X112194091Y-81957483D01*
X112200500Y-81897873D01*
X112200499Y-80902128D01*
X112194091Y-80842517D01*
X112181340Y-80808332D01*
X112176357Y-80738642D01*
X112181340Y-80721669D01*
X112194091Y-80687483D01*
X112200500Y-80627873D01*
X112200500Y-80199999D01*
X118744859Y-80199999D01*
X118749471Y-80249770D01*
X118750000Y-80261212D01*
X118750000Y-80957844D01*
X118756401Y-81017372D01*
X118756403Y-81017379D01*
X118806645Y-81152086D01*
X118806649Y-81152093D01*
X118892809Y-81267187D01*
X118892812Y-81267190D01*
X119007906Y-81353350D01*
X119007913Y-81353354D01*
X119142620Y-81403596D01*
X119142627Y-81403598D01*
X119202155Y-81409999D01*
X119202172Y-81410000D01*
X120950000Y-81410000D01*
X120950000Y-79603553D01*
X120949999Y-79603552D01*
X121450000Y-79603552D01*
X121450000Y-81410000D01*
X123197828Y-81410000D01*
X123197844Y-81409999D01*
X123257372Y-81403598D01*
X123257379Y-81403596D01*
X123392086Y-81353354D01*
X123392093Y-81353350D01*
X123507187Y-81267190D01*
X123507190Y-81267187D01*
X123593350Y-81152093D01*
X123593354Y-81152086D01*
X123643596Y-81017379D01*
X123643598Y-81017372D01*
X123649999Y-80957844D01*
X123650000Y-80957827D01*
X123650000Y-79210000D01*
X121763552Y-79210000D01*
X122353552Y-79800000D01*
X122347339Y-79800000D01*
X122245606Y-79827259D01*
X122154394Y-79879920D01*
X122079920Y-79954394D01*
X122027259Y-80045606D01*
X122000000Y-80147339D01*
X122000000Y-80153553D01*
X121866802Y-80020355D01*
X121450000Y-79603552D01*
X120949999Y-79603552D01*
X120594518Y-79959035D01*
X120533195Y-79992520D01*
X120508361Y-79995190D01*
X120350000Y-80153551D01*
X120350000Y-80147339D01*
X120322741Y-80045606D01*
X120270080Y-79954394D01*
X120195606Y-79879920D01*
X120104394Y-79827259D01*
X120002661Y-79800000D01*
X119996447Y-79800000D01*
X120586447Y-79210000D01*
X118750000Y-79210000D01*
X118750000Y-80138787D01*
X118749471Y-80150228D01*
X118744859Y-80199999D01*
X112200500Y-80199999D01*
X112200499Y-79632128D01*
X112194091Y-79572517D01*
X112181340Y-79538332D01*
X112176357Y-79468642D01*
X112181340Y-79451669D01*
X112194091Y-79417483D01*
X112200500Y-79357873D01*
X112200500Y-78947339D01*
X120800000Y-78947339D01*
X120800000Y-79052661D01*
X120827259Y-79154394D01*
X120879920Y-79245606D01*
X120954394Y-79320080D01*
X121045606Y-79372741D01*
X121147339Y-79400000D01*
X121252661Y-79400000D01*
X121354394Y-79372741D01*
X121445606Y-79320080D01*
X121520080Y-79245606D01*
X121572741Y-79154394D01*
X121600000Y-79052661D01*
X121600000Y-78947339D01*
X121572741Y-78845606D01*
X121520080Y-78754394D01*
X121445606Y-78679920D01*
X121354394Y-78627259D01*
X121252661Y-78600000D01*
X121147339Y-78600000D01*
X121045606Y-78627259D01*
X120954394Y-78679920D01*
X120879920Y-78754394D01*
X120827259Y-78845606D01*
X120800000Y-78947339D01*
X112200500Y-78947339D01*
X112200499Y-78362128D01*
X112194091Y-78302517D01*
X112181340Y-78268332D01*
X112176357Y-78198642D01*
X112181340Y-78181669D01*
X112194091Y-78147483D01*
X112200500Y-78087873D01*
X112200499Y-77092128D01*
X112194091Y-77032517D01*
X112181340Y-76998332D01*
X112178753Y-76962155D01*
X118750000Y-76962155D01*
X118750000Y-78710000D01*
X120556447Y-78710000D01*
X120556447Y-78709999D01*
X120265964Y-78419516D01*
X120232479Y-78358193D01*
X120229645Y-78331835D01*
X120229645Y-78283198D01*
X120046447Y-78100000D01*
X120052661Y-78100000D01*
X120154394Y-78072741D01*
X120245606Y-78020080D01*
X120320080Y-77945606D01*
X120372741Y-77854394D01*
X120400000Y-77752661D01*
X120400000Y-77746448D01*
X120949999Y-78296447D01*
X120950000Y-78296446D01*
X120950000Y-76510000D01*
X121450000Y-76510000D01*
X121450000Y-78296447D01*
X122000000Y-77746447D01*
X122000000Y-77752661D01*
X122027259Y-77854394D01*
X122079920Y-77945606D01*
X122154394Y-78020080D01*
X122245606Y-78072741D01*
X122347339Y-78100000D01*
X122353551Y-78100000D01*
X122170354Y-78283197D01*
X122170354Y-78331836D01*
X122150669Y-78398875D01*
X122134035Y-78419517D01*
X121843552Y-78709999D01*
X121843553Y-78710000D01*
X123650000Y-78710000D01*
X123650000Y-76962172D01*
X123649999Y-76962155D01*
X123643598Y-76902627D01*
X123643596Y-76902620D01*
X123593354Y-76767913D01*
X123593350Y-76767906D01*
X123507190Y-76652812D01*
X123507187Y-76652809D01*
X123392093Y-76566649D01*
X123392086Y-76566645D01*
X123257379Y-76516403D01*
X123257372Y-76516401D01*
X123197844Y-76510000D01*
X122576183Y-76510000D01*
X122553399Y-76507889D01*
X122511194Y-76500000D01*
X122288806Y-76500000D01*
X122246601Y-76507889D01*
X122223817Y-76510000D01*
X121450000Y-76510000D01*
X120950000Y-76510000D01*
X120176183Y-76510000D01*
X120153399Y-76507889D01*
X120111194Y-76500000D01*
X119888806Y-76500000D01*
X119846601Y-76507889D01*
X119823817Y-76510000D01*
X119202155Y-76510000D01*
X119142627Y-76516401D01*
X119142620Y-76516403D01*
X119007913Y-76566645D01*
X119007906Y-76566649D01*
X118892812Y-76652809D01*
X118892809Y-76652812D01*
X118806649Y-76767906D01*
X118806645Y-76767913D01*
X118756403Y-76902620D01*
X118756401Y-76902627D01*
X118750000Y-76962155D01*
X112178753Y-76962155D01*
X112176357Y-76928642D01*
X112181338Y-76911672D01*
X112194091Y-76877483D01*
X112200500Y-76817873D01*
X112200499Y-75822128D01*
X112194091Y-75762517D01*
X112181340Y-75728332D01*
X112176357Y-75658642D01*
X112181338Y-75641672D01*
X112194091Y-75607483D01*
X112200500Y-75547873D01*
X112200499Y-74552128D01*
X112194091Y-74492517D01*
X112181340Y-74458332D01*
X112176357Y-74388642D01*
X112181338Y-74371672D01*
X112194091Y-74337483D01*
X112200500Y-74277873D01*
X112200499Y-73282128D01*
X112194091Y-73222517D01*
X112181340Y-73188332D01*
X112176357Y-73118642D01*
X112181340Y-73101669D01*
X112194091Y-73067483D01*
X112200500Y-73007873D01*
X112200499Y-72012128D01*
X112194091Y-71952517D01*
X112181073Y-71917616D01*
X112176090Y-71847926D01*
X112181075Y-71830949D01*
X112193597Y-71797375D01*
X112193598Y-71797372D01*
X112199999Y-71737844D01*
X112200000Y-71737827D01*
X112200000Y-71490000D01*
X109700000Y-71490000D01*
X109700000Y-71737844D01*
X109706401Y-71797372D01*
X109706403Y-71797379D01*
X109718925Y-71830952D01*
X109723909Y-71900643D01*
X109718925Y-71917617D01*
X109705909Y-71952514D01*
X109705908Y-71952516D01*
X109703440Y-71975478D01*
X109699501Y-72012123D01*
X109699500Y-72012135D01*
X109699500Y-73007870D01*
X109699501Y-73007876D01*
X109705908Y-73067481D01*
X109718659Y-73101669D01*
X109723642Y-73171361D01*
X109718659Y-73188331D01*
X109705908Y-73222518D01*
X109703197Y-73247737D01*
X109699501Y-73282123D01*
X109699500Y-73282135D01*
X109699500Y-73868842D01*
X109679815Y-73935881D01*
X109627011Y-73981636D01*
X109557853Y-73991580D01*
X109494297Y-73962555D01*
X109484770Y-73952631D01*
X109484740Y-73952662D01*
X109352262Y-73820184D01*
X109199523Y-73724211D01*
X109029254Y-73664631D01*
X109029249Y-73664630D01*
X108850004Y-73644435D01*
X108849996Y-73644435D01*
X108774867Y-73652899D01*
X108737177Y-73650076D01*
X108737114Y-73650560D01*
X108729057Y-73649499D01*
X108570943Y-73649499D01*
X108563347Y-73649499D01*
X108563331Y-73649500D01*
X104670089Y-73649500D01*
X104603050Y-73629815D01*
X104557295Y-73577011D01*
X104546731Y-73538102D01*
X104544839Y-73519591D01*
X104539999Y-73472203D01*
X104484814Y-73305666D01*
X104392712Y-73156344D01*
X104268656Y-73032288D01*
X104154516Y-72961886D01*
X104119336Y-72940187D01*
X104119331Y-72940185D01*
X104117862Y-72939698D01*
X103952797Y-72885001D01*
X103952795Y-72885000D01*
X103850010Y-72874500D01*
X102949998Y-72874500D01*
X102949980Y-72874501D01*
X102847203Y-72885000D01*
X102847200Y-72885001D01*
X102680668Y-72940185D01*
X102680663Y-72940187D01*
X102531342Y-73032289D01*
X102407289Y-73156342D01*
X102315187Y-73305663D01*
X102315186Y-73305666D01*
X102260001Y-73472203D01*
X102260001Y-73472204D01*
X102260000Y-73472204D01*
X102249500Y-73574983D01*
X102249500Y-74925001D01*
X102249501Y-74925018D01*
X102260000Y-75027796D01*
X102260001Y-75027799D01*
X102315185Y-75194331D01*
X102315187Y-75194336D01*
X102337977Y-75231284D01*
X102407288Y-75343656D01*
X102531344Y-75467712D01*
X102680666Y-75559814D01*
X102847203Y-75614999D01*
X102949991Y-75625500D01*
X103850008Y-75625499D01*
X103850016Y-75625498D01*
X103850019Y-75625498D01*
X103906302Y-75619748D01*
X103952797Y-75614999D01*
X104119334Y-75559814D01*
X104268656Y-75467712D01*
X104392712Y-75343656D01*
X104484814Y-75194334D01*
X104539999Y-75027797D01*
X104543641Y-74992147D01*
X104546732Y-74961897D01*
X104573129Y-74897205D01*
X104630310Y-74857054D01*
X104670090Y-74850500D01*
X107750902Y-74850500D01*
X107817941Y-74870185D01*
X107863696Y-74922989D01*
X107873640Y-74992147D01*
X107844615Y-75055703D01*
X107838583Y-75062181D01*
X107669481Y-75231282D01*
X107669477Y-75231287D01*
X107623620Y-75310716D01*
X107623620Y-75310717D01*
X107590423Y-75368214D01*
X107590423Y-75368215D01*
X107549499Y-75520943D01*
X107549499Y-75520945D01*
X107549499Y-75689046D01*
X107549500Y-75689059D01*
X107549500Y-76006921D01*
X107529815Y-76073960D01*
X107477011Y-76119715D01*
X107407853Y-76129659D01*
X107359528Y-76111915D01*
X107299523Y-76074211D01*
X107129254Y-76014631D01*
X107129249Y-76014630D01*
X106950004Y-75994435D01*
X106949996Y-75994435D01*
X106770750Y-76014630D01*
X106770745Y-76014631D01*
X106600476Y-76074211D01*
X106447737Y-76170184D01*
X106320184Y-76297737D01*
X106224210Y-76450478D01*
X106164630Y-76620750D01*
X106154837Y-76707667D01*
X106127770Y-76772081D01*
X106119299Y-76781463D01*
X106037584Y-76863180D01*
X105976262Y-76896666D01*
X105949902Y-76899500D01*
X105779057Y-76899500D01*
X102579057Y-76899500D01*
X102420942Y-76899500D01*
X102268215Y-76940423D01*
X102242967Y-76955000D01*
X102235038Y-76959578D01*
X102235037Y-76959577D01*
X102131287Y-77019477D01*
X102131282Y-77019481D01*
X102019478Y-77131286D01*
X101637582Y-77513181D01*
X101576259Y-77546666D01*
X101549901Y-77549500D01*
X100624998Y-77549500D01*
X100624980Y-77549501D01*
X100522203Y-77560000D01*
X100522200Y-77560001D01*
X100355668Y-77615185D01*
X100355663Y-77615187D01*
X100206342Y-77707289D01*
X100082289Y-77831342D01*
X99990187Y-77980663D01*
X99990185Y-77980668D01*
X99971369Y-78037452D01*
X99935001Y-78147203D01*
X99935001Y-78147204D01*
X99935000Y-78147204D01*
X99924500Y-78249983D01*
X99924500Y-79150001D01*
X99924501Y-79150019D01*
X99935000Y-79252796D01*
X99935001Y-79252799D01*
X99990185Y-79419331D01*
X99990187Y-79419336D01*
X100020599Y-79468642D01*
X100082288Y-79568656D01*
X100206344Y-79692712D01*
X100355666Y-79784814D01*
X100522203Y-79839999D01*
X100624991Y-79850500D01*
X101975008Y-79850499D01*
X102077797Y-79839999D01*
X102244334Y-79784814D01*
X102393656Y-79692712D01*
X102517712Y-79568656D01*
X102569461Y-79484756D01*
X102621409Y-79438032D01*
X102690371Y-79426809D01*
X102754454Y-79454653D01*
X102780539Y-79484757D01*
X102813583Y-79538331D01*
X102832288Y-79568656D01*
X102956344Y-79692712D01*
X103105666Y-79784814D01*
X103272203Y-79839999D01*
X103374991Y-79850500D01*
X104725008Y-79850499D01*
X104806630Y-79842161D01*
X104875323Y-79854931D01*
X104924225Y-79899546D01*
X105020183Y-80052261D01*
X105022445Y-80055097D01*
X105023335Y-80057276D01*
X105023888Y-80058157D01*
X105023733Y-80058253D01*
X105048855Y-80119783D01*
X105049500Y-80132412D01*
X105049500Y-80561746D01*
X105029815Y-80628785D01*
X104977011Y-80674540D01*
X104907853Y-80684484D01*
X104886497Y-80679452D01*
X104827799Y-80660001D01*
X104827795Y-80660000D01*
X104725010Y-80649500D01*
X103374998Y-80649500D01*
X103374981Y-80649501D01*
X103272203Y-80660000D01*
X103272200Y-80660001D01*
X103105668Y-80715185D01*
X103105663Y-80715187D01*
X102956342Y-80807289D01*
X102832289Y-80931342D01*
X102780539Y-81015243D01*
X102728591Y-81061967D01*
X102659628Y-81073190D01*
X102595546Y-81045346D01*
X102569461Y-81015243D01*
X102534057Y-80957844D01*
X102517712Y-80931344D01*
X102393656Y-80807288D01*
X102284561Y-80739998D01*
X102244336Y-80715187D01*
X102244331Y-80715185D01*
X102242502Y-80714579D01*
X102077797Y-80660001D01*
X102077795Y-80660000D01*
X101975010Y-80649500D01*
X100624998Y-80649500D01*
X100624981Y-80649501D01*
X100522203Y-80660000D01*
X100522200Y-80660001D01*
X100355668Y-80715185D01*
X100355663Y-80715187D01*
X100206342Y-80807289D01*
X100082289Y-80931342D01*
X99990187Y-81080663D01*
X99990185Y-81080668D01*
X99973795Y-81130130D01*
X99935001Y-81247203D01*
X99935001Y-81247204D01*
X99935000Y-81247204D01*
X99924500Y-81349983D01*
X99924500Y-82250001D01*
X99924501Y-82250019D01*
X99935000Y-82352796D01*
X99935001Y-82352799D01*
X99990185Y-82519331D01*
X99990187Y-82519336D01*
X99996651Y-82529815D01*
X100082288Y-82668656D01*
X100206344Y-82792712D01*
X100355666Y-82884814D01*
X100522203Y-82939999D01*
X100588103Y-82946731D01*
X100652794Y-82973127D01*
X100692945Y-83030307D01*
X100699500Y-83070089D01*
X100699500Y-83613330D01*
X100699499Y-83613348D01*
X100699499Y-83779054D01*
X100699498Y-83779054D01*
X100740423Y-83931787D01*
X100749634Y-83947739D01*
X100749633Y-83947739D01*
X100749635Y-83947741D01*
X100819475Y-84068709D01*
X100819481Y-84068717D01*
X100938349Y-84187585D01*
X100938355Y-84187590D01*
X102150139Y-85399374D01*
X102150149Y-85399385D01*
X102266285Y-85515521D01*
X102289727Y-85529055D01*
X102337500Y-85556636D01*
X102385715Y-85607202D01*
X102399500Y-85664023D01*
X102399500Y-85917869D01*
X102399501Y-85917876D01*
X102405561Y-85974249D01*
X102405561Y-86000753D01*
X102399500Y-86057127D01*
X102399500Y-86057129D01*
X102399500Y-86057133D01*
X102399500Y-86552870D01*
X102399501Y-86552876D01*
X102405561Y-86609249D01*
X102405561Y-86635753D01*
X102399500Y-86692127D01*
X102399500Y-86692132D01*
X102399500Y-86692133D01*
X102399500Y-87187870D01*
X102399501Y-87187876D01*
X102405561Y-87244249D01*
X102405561Y-87270753D01*
X102399500Y-87327127D01*
X102399500Y-87327132D01*
X102399500Y-87327133D01*
X102399500Y-87822870D01*
X102399501Y-87822876D01*
X102405813Y-87881592D01*
X102405813Y-87908099D01*
X102400000Y-87962169D01*
X102400000Y-88010000D01*
X102404719Y-88014719D01*
X102455686Y-88029685D01*
X102487911Y-88059686D01*
X102539834Y-88129046D01*
X102544807Y-88135689D01*
X102569224Y-88201154D01*
X102554372Y-88269427D01*
X102544807Y-88284311D01*
X102542454Y-88287453D01*
X102542454Y-88287454D01*
X102487912Y-88360312D01*
X102431980Y-88402182D01*
X102402499Y-88407500D01*
X102400000Y-88410000D01*
X102400000Y-88457842D01*
X102405813Y-88511897D01*
X102405813Y-88538409D01*
X102403755Y-88557547D01*
X102399501Y-88597125D01*
X102399500Y-88597136D01*
X102399500Y-89092870D01*
X102399501Y-89092876D01*
X102405561Y-89149249D01*
X102405561Y-89175753D01*
X102399500Y-89232127D01*
X102399500Y-89232129D01*
X102399500Y-89232133D01*
X102399500Y-89727870D01*
X102399501Y-89727876D01*
X102405561Y-89784249D01*
X102405561Y-89810753D01*
X102399500Y-89867127D01*
X102399500Y-89867134D01*
X102399500Y-89867135D01*
X102399500Y-90362870D01*
X102399501Y-90362876D01*
X102405561Y-90419249D01*
X102405561Y-90445753D01*
X102399500Y-90502127D01*
X102399500Y-90502129D01*
X102399500Y-90502133D01*
X102399500Y-90997870D01*
X102399501Y-90997876D01*
X102405908Y-91057483D01*
X102456202Y-91192328D01*
X102456206Y-91192335D01*
X102542452Y-91307544D01*
X102542455Y-91307547D01*
X102657664Y-91393793D01*
X102657671Y-91393797D01*
X102673021Y-91399522D01*
X102792517Y-91444091D01*
X102852127Y-91450500D01*
X103037708Y-91450499D01*
X103104748Y-91470183D01*
X103142702Y-91508526D01*
X103162804Y-91540517D01*
X103170184Y-91552262D01*
X103297738Y-91679816D01*
X103450478Y-91775789D01*
X103602712Y-91829058D01*
X103620745Y-91835368D01*
X103620750Y-91835369D01*
X103799996Y-91855565D01*
X103800000Y-91855565D01*
X103800004Y-91855565D01*
X103979249Y-91835369D01*
X103979252Y-91835368D01*
X103979255Y-91835368D01*
X104149522Y-91775789D01*
X104302262Y-91679816D01*
X104337819Y-91644259D01*
X104399142Y-91610774D01*
X104468834Y-91615758D01*
X104524767Y-91657630D01*
X104549184Y-91723094D01*
X104549500Y-91731940D01*
X104549500Y-92108480D01*
X104529815Y-92175519D01*
X104513181Y-92196161D01*
X102136681Y-94572661D01*
X102075358Y-94606146D01*
X102005666Y-94601162D01*
X101949733Y-94559290D01*
X101925316Y-94493826D01*
X101925000Y-94484980D01*
X101925000Y-94450000D01*
X100711500Y-94450000D01*
X100644461Y-94430315D01*
X100598706Y-94377511D01*
X100587500Y-94326000D01*
X100587500Y-93950000D01*
X101087500Y-93950000D01*
X101924999Y-93950000D01*
X101924999Y-93675028D01*
X101924998Y-93675013D01*
X101914505Y-93572302D01*
X101859358Y-93405880D01*
X101859356Y-93405875D01*
X101767315Y-93256654D01*
X101643345Y-93132684D01*
X101494124Y-93040643D01*
X101494119Y-93040641D01*
X101327697Y-92985494D01*
X101327690Y-92985493D01*
X101224986Y-92975000D01*
X101087500Y-92975000D01*
X101087500Y-93950000D01*
X100587500Y-93950000D01*
X100587500Y-92975000D01*
X100524500Y-92975000D01*
X100457461Y-92955315D01*
X100411706Y-92902511D01*
X100400500Y-92851000D01*
X100400500Y-92450097D01*
X100420185Y-92383058D01*
X100436814Y-92362420D01*
X100558506Y-92240727D01*
X100558510Y-92240725D01*
X100568714Y-92230520D01*
X100568716Y-92230520D01*
X100680520Y-92118716D01*
X100759577Y-91981784D01*
X100798808Y-91835372D01*
X100798809Y-91835370D01*
X100800500Y-91829059D01*
X100800500Y-88129059D01*
X100800501Y-88129046D01*
X100800501Y-87960945D01*
X100800501Y-87960943D01*
X100759577Y-87808215D01*
X100711077Y-87724211D01*
X100692791Y-87692539D01*
X100680521Y-87671285D01*
X100564385Y-87555149D01*
X100564374Y-87555139D01*
X99587590Y-86578355D01*
X99587588Y-86578352D01*
X99468717Y-86459481D01*
X99468709Y-86459475D01*
X99462498Y-86455889D01*
X99414283Y-86405322D01*
X99400499Y-86348503D01*
X99400499Y-86057129D01*
X99400497Y-86057110D01*
X99394439Y-86000755D01*
X99394439Y-85974244D01*
X99394714Y-85971690D01*
X99400500Y-85917873D01*
X99400499Y-85422128D01*
X99394439Y-85365754D01*
X99394439Y-85339244D01*
X99400499Y-85282880D01*
X99400500Y-85282873D01*
X99400499Y-84787128D01*
X99394091Y-84727517D01*
X99392420Y-84723038D01*
X99343797Y-84592671D01*
X99343793Y-84592664D01*
X99257547Y-84477455D01*
X99257544Y-84477452D01*
X99142335Y-84391206D01*
X99142328Y-84391202D01*
X99007482Y-84340908D01*
X99007483Y-84340908D01*
X98947883Y-84334501D01*
X98947881Y-84334500D01*
X98947873Y-84334500D01*
X98947865Y-84334500D01*
X98274500Y-84334500D01*
X98207461Y-84314815D01*
X98161706Y-84262011D01*
X98150500Y-84210500D01*
X98150500Y-75750097D01*
X98170185Y-75683058D01*
X98186819Y-75662416D01*
X98538519Y-75310716D01*
X98944103Y-74905131D01*
X99005424Y-74871648D01*
X99075115Y-74876632D01*
X99131049Y-74918504D01*
X99155140Y-74980212D01*
X99160001Y-75027797D01*
X99160001Y-75027799D01*
X99215185Y-75194331D01*
X99215187Y-75194336D01*
X99237977Y-75231284D01*
X99307288Y-75343656D01*
X99431344Y-75467712D01*
X99580666Y-75559814D01*
X99747203Y-75614999D01*
X99849991Y-75625500D01*
X100750008Y-75625499D01*
X100750016Y-75625498D01*
X100750019Y-75625498D01*
X100806302Y-75619748D01*
X100852797Y-75614999D01*
X101019334Y-75559814D01*
X101168656Y-75467712D01*
X101292712Y-75343656D01*
X101384814Y-75194334D01*
X101439999Y-75027797D01*
X101450500Y-74925009D01*
X101450499Y-73574992D01*
X101439999Y-73472203D01*
X101384814Y-73305666D01*
X101292712Y-73156344D01*
X101168656Y-73032288D01*
X101054516Y-72961886D01*
X101019336Y-72940187D01*
X101019331Y-72940185D01*
X101017862Y-72939698D01*
X100852797Y-72885001D01*
X100852795Y-72885000D01*
X100750010Y-72874500D01*
X99849998Y-72874500D01*
X99849980Y-72874501D01*
X99747203Y-72885000D01*
X99747200Y-72885001D01*
X99580668Y-72940185D01*
X99580663Y-72940187D01*
X99431342Y-73032289D01*
X99307289Y-73156342D01*
X99215187Y-73305663D01*
X99215186Y-73305666D01*
X99160002Y-73472202D01*
X99160001Y-73472204D01*
X99160000Y-73472205D01*
X99153268Y-73538103D01*
X99126871Y-73602795D01*
X99069690Y-73642946D01*
X99029910Y-73649500D01*
X98829057Y-73649500D01*
X98670942Y-73649500D01*
X98518215Y-73690423D01*
X98492300Y-73705385D01*
X98485355Y-73709395D01*
X98485354Y-73709394D01*
X98381287Y-73769477D01*
X98381282Y-73769481D01*
X97069481Y-75081282D01*
X97069479Y-75081285D01*
X97047429Y-75119478D01*
X97025962Y-75156661D01*
X97019361Y-75168094D01*
X97019359Y-75168096D01*
X96990425Y-75218209D01*
X96990424Y-75218210D01*
X96986921Y-75231284D01*
X96949499Y-75370943D01*
X96949499Y-75370945D01*
X96949499Y-75539046D01*
X96949500Y-75539059D01*
X96949500Y-82918060D01*
X96929815Y-82985099D01*
X96877011Y-83030854D01*
X96807853Y-83040798D01*
X96744297Y-83011773D01*
X96737819Y-83005741D01*
X96702262Y-82970184D01*
X96549523Y-82874211D01*
X96379254Y-82814631D01*
X96379249Y-82814630D01*
X96200004Y-82794435D01*
X96199996Y-82794435D01*
X96020750Y-82814630D01*
X96020745Y-82814631D01*
X95850476Y-82874211D01*
X95697737Y-82970184D01*
X95570184Y-83097737D01*
X95474211Y-83250476D01*
X95414631Y-83420745D01*
X95414630Y-83420750D01*
X95394435Y-83599996D01*
X95394435Y-83600003D01*
X95414630Y-83779249D01*
X95414631Y-83779254D01*
X95442542Y-83859017D01*
X95449500Y-83899972D01*
X95449500Y-85137770D01*
X95429815Y-85204809D01*
X95413181Y-85225451D01*
X95317050Y-85321581D01*
X95317047Y-85321585D01*
X95287724Y-85365469D01*
X95287725Y-85365470D01*
X95234914Y-85444508D01*
X95178343Y-85581082D01*
X95178340Y-85581092D01*
X95149500Y-85726079D01*
X95149500Y-87900028D01*
X95142542Y-87940982D01*
X95114631Y-88020747D01*
X95094435Y-88199996D01*
X95094435Y-88200003D01*
X95114630Y-88379249D01*
X95114631Y-88379254D01*
X95142542Y-88459017D01*
X95149500Y-88499972D01*
X95149500Y-88945500D01*
X95129815Y-89012539D01*
X95077011Y-89058294D01*
X95025500Y-89069500D01*
X94495863Y-89069500D01*
X94428824Y-89049815D01*
X94383069Y-88997011D01*
X94373125Y-88927853D01*
X94388475Y-88883501D01*
X94396295Y-88869955D01*
X94423095Y-88823536D01*
X94455500Y-88702601D01*
X94455500Y-88577399D01*
X94423095Y-88456464D01*
X94360495Y-88348036D01*
X94271964Y-88259505D01*
X94163536Y-88196905D01*
X94163537Y-88196905D01*
X94123224Y-88186103D01*
X94042601Y-88164500D01*
X93917399Y-88164500D01*
X93831593Y-88187492D01*
X93761743Y-88185829D01*
X93703880Y-88146667D01*
X93676376Y-88082438D01*
X93675499Y-88067717D01*
X93675499Y-87999998D01*
X93675498Y-87999981D01*
X93664999Y-87897203D01*
X93664998Y-87897200D01*
X93650179Y-87852480D01*
X93609814Y-87730666D01*
X93517712Y-87581344D01*
X93393656Y-87457288D01*
X93260245Y-87375000D01*
X93244336Y-87365187D01*
X93244331Y-87365185D01*
X93199942Y-87350476D01*
X93077797Y-87310001D01*
X93077795Y-87310000D01*
X92975010Y-87299500D01*
X91624998Y-87299500D01*
X91624981Y-87299501D01*
X91522203Y-87310000D01*
X91522200Y-87310001D01*
X91355668Y-87365185D01*
X91355663Y-87365187D01*
X91206342Y-87457289D01*
X91082289Y-87581342D01*
X90990187Y-87730663D01*
X90990185Y-87730668D01*
X90969573Y-87792873D01*
X90935001Y-87897203D01*
X90935001Y-87897204D01*
X90935000Y-87897204D01*
X90924500Y-87999983D01*
X90924500Y-88900001D01*
X90924501Y-88900016D01*
X90927065Y-88925116D01*
X90927765Y-88931964D01*
X90927861Y-88932898D01*
X90915092Y-89001590D01*
X90867211Y-89052475D01*
X90804503Y-89069500D01*
X89801457Y-89069500D01*
X89608170Y-89107947D01*
X89608160Y-89107950D01*
X89426092Y-89183364D01*
X89426081Y-89183370D01*
X89393390Y-89205214D01*
X89326712Y-89226091D01*
X89259332Y-89207606D01*
X89212643Y-89155627D01*
X89200500Y-89102111D01*
X89200500Y-82397888D01*
X89220185Y-82330849D01*
X89272989Y-82285094D01*
X89342147Y-82275150D01*
X89393389Y-82294785D01*
X89426086Y-82316632D01*
X89426088Y-82316633D01*
X89426092Y-82316635D01*
X89608160Y-82392049D01*
X89608165Y-82392051D01*
X89608169Y-82392051D01*
X89608170Y-82392052D01*
X89801456Y-82430500D01*
X90800500Y-82430500D01*
X90867539Y-82450185D01*
X90913294Y-82502989D01*
X90924500Y-82554500D01*
X90924500Y-83450001D01*
X90924501Y-83450019D01*
X90935000Y-83552796D01*
X90935001Y-83552799D01*
X90957581Y-83620939D01*
X90990186Y-83719334D01*
X91082288Y-83868656D01*
X91206344Y-83992712D01*
X91355666Y-84084814D01*
X91522203Y-84139999D01*
X91624991Y-84150500D01*
X92975008Y-84150499D01*
X93077797Y-84139999D01*
X93244334Y-84084814D01*
X93393656Y-83992712D01*
X93517712Y-83868656D01*
X93609814Y-83719334D01*
X93664999Y-83552797D01*
X93675500Y-83450009D01*
X93675499Y-83432284D01*
X93695180Y-83365248D01*
X93747982Y-83319490D01*
X93817140Y-83309543D01*
X93831590Y-83312507D01*
X93917399Y-83335500D01*
X93917400Y-83335500D01*
X94042599Y-83335500D01*
X94042601Y-83335500D01*
X94163536Y-83303095D01*
X94271964Y-83240495D01*
X94360495Y-83151964D01*
X94423095Y-83043536D01*
X94455500Y-82922601D01*
X94455500Y-82797399D01*
X94423095Y-82676464D01*
X94388475Y-82616499D01*
X94372004Y-82548598D01*
X94394857Y-82482572D01*
X94449778Y-82439382D01*
X94495863Y-82430500D01*
X95128543Y-82430500D01*
X95280556Y-82400262D01*
X95321835Y-82392051D01*
X95503914Y-82316632D01*
X95667782Y-82207139D01*
X95807139Y-82067782D01*
X95916632Y-81903914D01*
X95919136Y-81897870D01*
X95939245Y-81849322D01*
X95992051Y-81721835D01*
X96004632Y-81658582D01*
X96030500Y-81528543D01*
X96030500Y-81331456D01*
X95992052Y-81138170D01*
X95992051Y-81138169D01*
X95992051Y-81138165D01*
X95986963Y-81125882D01*
X95916635Y-80956092D01*
X95916628Y-80956079D01*
X95807139Y-80792218D01*
X95807136Y-80792214D01*
X95667785Y-80652863D01*
X95667781Y-80652860D01*
X95503920Y-80543371D01*
X95503907Y-80543364D01*
X95321839Y-80467950D01*
X95321829Y-80467947D01*
X95128543Y-80429500D01*
X95128541Y-80429500D01*
X93831459Y-80429500D01*
X93823189Y-80431144D01*
X93753599Y-80424916D01*
X93698422Y-80382053D01*
X93675178Y-80316163D01*
X93675000Y-80309527D01*
X93675000Y-80150000D01*
X92550000Y-80150000D01*
X92550000Y-81049999D01*
X92834392Y-81049999D01*
X92901431Y-81069684D01*
X92947186Y-81122488D01*
X92957130Y-81191646D01*
X92956009Y-81198191D01*
X92929500Y-81331456D01*
X92929500Y-81528545D01*
X92963865Y-81701309D01*
X92957638Y-81770900D01*
X92914775Y-81826078D01*
X92848885Y-81849322D01*
X92842248Y-81849500D01*
X91787751Y-81849500D01*
X91720712Y-81829815D01*
X91674957Y-81777011D01*
X91665013Y-81707853D01*
X91666134Y-81701308D01*
X91700500Y-81528543D01*
X91700500Y-81331456D01*
X91673991Y-81198191D01*
X91680218Y-81128599D01*
X91723081Y-81073422D01*
X91788970Y-81050177D01*
X91795608Y-81049999D01*
X92050000Y-81049999D01*
X92050000Y-80150000D01*
X90925001Y-80150000D01*
X90925001Y-80305500D01*
X90905316Y-80372539D01*
X90852512Y-80418294D01*
X90801001Y-80429500D01*
X89801457Y-80429500D01*
X89608170Y-80467947D01*
X89608160Y-80467950D01*
X89426092Y-80543364D01*
X89426081Y-80543370D01*
X89393390Y-80565214D01*
X89326712Y-80586091D01*
X89259332Y-80567606D01*
X89212643Y-80515627D01*
X89200500Y-80462111D01*
X89200500Y-79450013D01*
X90925000Y-79450013D01*
X90925000Y-79650000D01*
X92050000Y-79650000D01*
X92550000Y-79650000D01*
X93674999Y-79650000D01*
X93674999Y-79450028D01*
X93674998Y-79450013D01*
X93664505Y-79347302D01*
X93609358Y-79180880D01*
X93609356Y-79180875D01*
X93517315Y-79031654D01*
X93393345Y-78907684D01*
X93244124Y-78815643D01*
X93244119Y-78815641D01*
X93077697Y-78760494D01*
X93077690Y-78760493D01*
X92974986Y-78750000D01*
X92550000Y-78750000D01*
X92550000Y-79650000D01*
X92050000Y-79650000D01*
X92050000Y-78750000D01*
X91625028Y-78750000D01*
X91625012Y-78750001D01*
X91522302Y-78760494D01*
X91355880Y-78815641D01*
X91355875Y-78815643D01*
X91206654Y-78907684D01*
X91082684Y-79031654D01*
X90990643Y-79180875D01*
X90990641Y-79180880D01*
X90935494Y-79347302D01*
X90935493Y-79347309D01*
X90925000Y-79450013D01*
X89200500Y-79450013D01*
X89200500Y-73885258D01*
X91549500Y-73885258D01*
X91549500Y-74114741D01*
X91570977Y-74277864D01*
X91579452Y-74342238D01*
X91637750Y-74559812D01*
X91638842Y-74563887D01*
X91726650Y-74775876D01*
X91726657Y-74775890D01*
X91841392Y-74974617D01*
X91981081Y-75156661D01*
X91981089Y-75156670D01*
X92143330Y-75318911D01*
X92143338Y-75318918D01*
X92325382Y-75458607D01*
X92325385Y-75458608D01*
X92325388Y-75458611D01*
X92524112Y-75573344D01*
X92524117Y-75573346D01*
X92524123Y-75573349D01*
X92615480Y-75611190D01*
X92736113Y-75661158D01*
X92957762Y-75720548D01*
X93185266Y-75750500D01*
X93185273Y-75750500D01*
X93414727Y-75750500D01*
X93414734Y-75750500D01*
X93642238Y-75720548D01*
X93863887Y-75661158D01*
X94075888Y-75573344D01*
X94274612Y-75458611D01*
X94456661Y-75318919D01*
X94456665Y-75318914D01*
X94456670Y-75318911D01*
X94618911Y-75156670D01*
X94618914Y-75156665D01*
X94618919Y-75156661D01*
X94758611Y-74974612D01*
X94873344Y-74775888D01*
X94961158Y-74563887D01*
X95020548Y-74342238D01*
X95050500Y-74114734D01*
X95050500Y-73885266D01*
X95020548Y-73657762D01*
X94961158Y-73436113D01*
X94897370Y-73282116D01*
X94873349Y-73224123D01*
X94873346Y-73224117D01*
X94873344Y-73224112D01*
X94758611Y-73025388D01*
X94758608Y-73025385D01*
X94758607Y-73025382D01*
X94618918Y-72843338D01*
X94618911Y-72843330D01*
X94456670Y-72681089D01*
X94456661Y-72681081D01*
X94274617Y-72541392D01*
X94075890Y-72426657D01*
X94075876Y-72426650D01*
X93863887Y-72338842D01*
X93642238Y-72279452D01*
X93604215Y-72274446D01*
X93414741Y-72249500D01*
X93414734Y-72249500D01*
X93185266Y-72249500D01*
X93185258Y-72249500D01*
X92968715Y-72278009D01*
X92957762Y-72279452D01*
X92864076Y-72304554D01*
X92736112Y-72338842D01*
X92524123Y-72426650D01*
X92524109Y-72426657D01*
X92325382Y-72541392D01*
X92143338Y-72681081D01*
X91981081Y-72843338D01*
X91841392Y-73025382D01*
X91726657Y-73224109D01*
X91726650Y-73224123D01*
X91638842Y-73436112D01*
X91629171Y-73472205D01*
X91581512Y-73650076D01*
X91579453Y-73657759D01*
X91579451Y-73657770D01*
X91549500Y-73885258D01*
X89200500Y-73885258D01*
X89200500Y-70824500D01*
X89220185Y-70757461D01*
X89272989Y-70711706D01*
X89324500Y-70700500D01*
X109576000Y-70700500D01*
X109643039Y-70720185D01*
G37*
%TD.AperFunction*%
%TA.AperFunction,Conductor*%
G36*
X105372403Y-87507835D02*
G01*
X105415607Y-87562746D01*
X105424500Y-87608860D01*
X105424500Y-88000001D01*
X105424501Y-88000019D01*
X105435000Y-88102796D01*
X105435001Y-88102799D01*
X105490185Y-88269331D01*
X105490187Y-88269336D01*
X105525069Y-88325888D01*
X105582288Y-88418656D01*
X105706344Y-88542712D01*
X105855666Y-88634814D01*
X106022203Y-88689999D01*
X106124991Y-88700500D01*
X107475008Y-88700499D01*
X107492512Y-88698711D01*
X107492895Y-88698671D01*
X107577797Y-88689999D01*
X107744334Y-88634814D01*
X107893656Y-88542712D01*
X108017712Y-88418656D01*
X108109814Y-88269334D01*
X108121028Y-88235494D01*
X108160801Y-88178050D01*
X108225317Y-88151228D01*
X108238733Y-88150500D01*
X108867588Y-88150500D01*
X108934627Y-88170185D01*
X108944903Y-88177555D01*
X108947736Y-88179814D01*
X108947738Y-88179816D01*
X108995776Y-88210000D01*
X109074560Y-88259504D01*
X109100478Y-88275789D01*
X109193738Y-88308422D01*
X109270745Y-88335368D01*
X109270750Y-88335369D01*
X109449996Y-88355565D01*
X109450000Y-88355565D01*
X109450003Y-88355565D01*
X109616572Y-88336797D01*
X109685394Y-88348851D01*
X109736774Y-88396200D01*
X109746638Y-88416684D01*
X109756202Y-88442328D01*
X109756206Y-88442335D01*
X109842452Y-88557544D01*
X109842455Y-88557547D01*
X109957664Y-88643793D01*
X109957671Y-88643797D01*
X110092517Y-88694091D01*
X110092516Y-88694091D01*
X110099444Y-88694835D01*
X110152127Y-88700500D01*
X111640500Y-88700499D01*
X111707539Y-88720184D01*
X111753294Y-88772987D01*
X111764500Y-88824499D01*
X111764500Y-89797870D01*
X111764501Y-89797876D01*
X111770908Y-89857483D01*
X111821202Y-89992328D01*
X111821206Y-89992335D01*
X111907452Y-90107544D01*
X111907455Y-90107547D01*
X112022664Y-90193793D01*
X112022671Y-90193797D01*
X112157517Y-90244091D01*
X112157516Y-90244091D01*
X112164444Y-90244835D01*
X112217127Y-90250500D01*
X113212872Y-90250499D01*
X113272483Y-90244091D01*
X113306667Y-90231340D01*
X113376358Y-90226357D01*
X113393327Y-90231338D01*
X113427517Y-90244091D01*
X113487127Y-90250500D01*
X114482872Y-90250499D01*
X114482874Y-90250498D01*
X114482887Y-90250498D01*
X114511803Y-90247388D01*
X114517244Y-90246804D01*
X114586003Y-90259208D01*
X114637141Y-90306818D01*
X114654500Y-90370093D01*
X114654500Y-92868330D01*
X114654499Y-92868348D01*
X114654499Y-93034054D01*
X114654498Y-93034054D01*
X114658303Y-93048254D01*
X114689273Y-93163834D01*
X114695424Y-93186787D01*
X114709644Y-93211416D01*
X114709645Y-93211418D01*
X114774477Y-93323712D01*
X114774481Y-93323717D01*
X114893349Y-93442585D01*
X114893355Y-93442590D01*
X116265139Y-94814374D01*
X116265149Y-94814385D01*
X116269479Y-94818715D01*
X116269480Y-94818716D01*
X116381284Y-94930520D01*
X116447922Y-94968993D01*
X116518215Y-95009577D01*
X116670942Y-95050500D01*
X116670943Y-95050500D01*
X119361267Y-95050500D01*
X119428306Y-95070185D01*
X119474061Y-95122989D01*
X119478972Y-95135494D01*
X119490184Y-95169328D01*
X119490187Y-95169336D01*
X119499893Y-95185072D01*
X119582288Y-95318656D01*
X119706344Y-95442712D01*
X119855666Y-95534814D01*
X120022203Y-95589999D01*
X120124991Y-95600500D01*
X121475008Y-95600499D01*
X121577797Y-95589999D01*
X121744334Y-95534814D01*
X121893656Y-95442712D01*
X122017712Y-95318656D01*
X122109814Y-95169334D01*
X122164999Y-95002797D01*
X122175500Y-94900009D01*
X122175499Y-93999992D01*
X122175138Y-93996462D01*
X122164999Y-93897203D01*
X122164998Y-93897200D01*
X122149192Y-93849500D01*
X122109814Y-93730666D01*
X122017712Y-93581344D01*
X121893656Y-93457288D01*
X121783925Y-93389606D01*
X121744336Y-93365187D01*
X121744331Y-93365185D01*
X121696064Y-93349191D01*
X121577797Y-93310001D01*
X121577795Y-93310000D01*
X121475010Y-93299500D01*
X120124998Y-93299500D01*
X120124981Y-93299501D01*
X120022203Y-93310000D01*
X120022200Y-93310001D01*
X119855668Y-93365185D01*
X119855663Y-93365187D01*
X119706342Y-93457289D01*
X119582289Y-93581342D01*
X119490187Y-93730663D01*
X119490184Y-93730671D01*
X119478972Y-93764506D01*
X119439199Y-93821950D01*
X119374683Y-93848772D01*
X119361267Y-93849500D01*
X117050097Y-93849500D01*
X116983058Y-93829815D01*
X116962416Y-93813181D01*
X115891819Y-92742584D01*
X115858334Y-92681261D01*
X115855500Y-92654903D01*
X115855500Y-90370093D01*
X115875185Y-90303054D01*
X115927989Y-90257299D01*
X115992754Y-90246804D01*
X116027127Y-90250500D01*
X117022872Y-90250499D01*
X117082483Y-90244091D01*
X117116667Y-90231340D01*
X117186358Y-90226357D01*
X117203327Y-90231338D01*
X117237517Y-90244091D01*
X117297127Y-90250500D01*
X118292872Y-90250499D01*
X118352483Y-90244091D01*
X118386667Y-90231340D01*
X118456358Y-90226357D01*
X118473327Y-90231338D01*
X118507517Y-90244091D01*
X118567127Y-90250500D01*
X119562872Y-90250499D01*
X119622483Y-90244091D01*
X119656667Y-90231340D01*
X119726358Y-90226357D01*
X119743327Y-90231338D01*
X119777517Y-90244091D01*
X119837127Y-90250500D01*
X120832872Y-90250499D01*
X120892483Y-90244091D01*
X120926667Y-90231340D01*
X120996358Y-90226357D01*
X121013327Y-90231338D01*
X121047517Y-90244091D01*
X121107127Y-90250500D01*
X122102872Y-90250499D01*
X122162483Y-90244091D01*
X122196667Y-90231340D01*
X122266358Y-90226357D01*
X122283327Y-90231338D01*
X122317517Y-90244091D01*
X122377127Y-90250500D01*
X123372872Y-90250499D01*
X123372876Y-90250498D01*
X123375818Y-90250341D01*
X123443815Y-90266413D01*
X123492328Y-90316695D01*
X123505955Y-90385223D01*
X123485551Y-90443055D01*
X123413371Y-90551079D01*
X123413364Y-90551092D01*
X123337950Y-90733160D01*
X123337947Y-90733170D01*
X123299500Y-90926456D01*
X123299500Y-90926459D01*
X123299500Y-92123541D01*
X123299500Y-92123543D01*
X123299499Y-92123543D01*
X123337947Y-92316829D01*
X123337950Y-92316839D01*
X123413364Y-92498907D01*
X123413371Y-92498920D01*
X123522860Y-92662781D01*
X123522863Y-92662785D01*
X123662214Y-92802136D01*
X123662218Y-92802139D01*
X123826079Y-92911628D01*
X123826092Y-92911635D01*
X123946700Y-92961592D01*
X124001104Y-93005433D01*
X124023169Y-93071727D01*
X124005890Y-93139426D01*
X123986929Y-93163834D01*
X123181286Y-93969478D01*
X123069481Y-94081282D01*
X123069479Y-94081285D01*
X123065745Y-94087753D01*
X123031083Y-94147790D01*
X122999016Y-94203330D01*
X122990667Y-94217793D01*
X122990423Y-94218215D01*
X122949499Y-94370943D01*
X122949499Y-94370945D01*
X122949499Y-94539046D01*
X122949500Y-94539059D01*
X122949500Y-94875098D01*
X122929815Y-94942137D01*
X122890598Y-94980636D01*
X122851650Y-95004659D01*
X122729661Y-95126648D01*
X122639093Y-95273481D01*
X122639091Y-95273486D01*
X122622853Y-95322490D01*
X122584826Y-95437247D01*
X122584826Y-95437248D01*
X122584825Y-95437248D01*
X122574500Y-95538315D01*
X122574500Y-96236669D01*
X122574501Y-96236687D01*
X122584825Y-96337752D01*
X122613004Y-96422788D01*
X122638755Y-96500500D01*
X122639092Y-96501515D01*
X122639095Y-96501522D01*
X122675414Y-96560404D01*
X122693854Y-96627796D01*
X122672931Y-96694460D01*
X122619289Y-96739229D01*
X122569875Y-96749500D01*
X122128958Y-96749500D01*
X122061919Y-96729815D01*
X122023420Y-96690598D01*
X122017712Y-96681344D01*
X121893657Y-96557289D01*
X121893656Y-96557288D01*
X121744334Y-96465186D01*
X121577797Y-96410001D01*
X121577795Y-96410000D01*
X121475010Y-96399500D01*
X120124998Y-96399500D01*
X120124981Y-96399501D01*
X120022203Y-96410000D01*
X120022200Y-96410001D01*
X119855668Y-96465185D01*
X119855663Y-96465187D01*
X119706342Y-96557289D01*
X119582289Y-96681342D01*
X119490187Y-96830663D01*
X119490185Y-96830668D01*
X119464174Y-96909166D01*
X119435001Y-96997203D01*
X119435001Y-96997204D01*
X119435000Y-96997204D01*
X119424500Y-97099983D01*
X119424500Y-98000001D01*
X119424501Y-98000019D01*
X119435000Y-98102796D01*
X119435001Y-98102799D01*
X119490185Y-98269331D01*
X119490187Y-98269336D01*
X119501443Y-98287585D01*
X119582288Y-98418656D01*
X119706344Y-98542712D01*
X119837088Y-98623355D01*
X119855668Y-98634815D01*
X119876110Y-98641588D01*
X119914502Y-98654310D01*
X119971947Y-98694081D01*
X119998772Y-98758596D01*
X119999500Y-98772016D01*
X119999500Y-100717060D01*
X119979815Y-100784099D01*
X119963181Y-100804741D01*
X119412181Y-101355741D01*
X119350858Y-101389226D01*
X119281166Y-101384242D01*
X119225233Y-101342370D01*
X119200816Y-101276906D01*
X119200500Y-101268060D01*
X119200500Y-99021158D01*
X119195184Y-98994437D01*
X119195184Y-98994433D01*
X119182373Y-98930030D01*
X119169737Y-98866503D01*
X119158759Y-98840000D01*
X119145209Y-98807288D01*
X119130599Y-98772016D01*
X119109394Y-98720821D01*
X119109392Y-98720819D01*
X119109392Y-98720817D01*
X119021790Y-98589712D01*
X118966890Y-98534812D01*
X118910289Y-98478211D01*
X117804033Y-97371955D01*
X116610292Y-96178213D01*
X116610288Y-96178210D01*
X116479185Y-96090609D01*
X116479172Y-96090602D01*
X116333501Y-96030264D01*
X116333489Y-96030261D01*
X116178845Y-95999500D01*
X116178842Y-95999500D01*
X104178843Y-95999500D01*
X104021158Y-95999500D01*
X104021155Y-95999500D01*
X103866510Y-96030261D01*
X103866498Y-96030264D01*
X103720827Y-96090602D01*
X103720814Y-96090609D01*
X103589711Y-96178210D01*
X103589707Y-96178213D01*
X103411634Y-96356286D01*
X103350311Y-96389771D01*
X103280619Y-96384787D01*
X103258858Y-96374144D01*
X103249028Y-96368081D01*
X103244338Y-96365188D01*
X103244335Y-96365186D01*
X103244334Y-96365186D01*
X103154591Y-96335448D01*
X103085496Y-96312552D01*
X103028051Y-96272779D01*
X103001228Y-96208263D01*
X103000500Y-96194846D01*
X103000500Y-95741518D01*
X103020185Y-95674479D01*
X103036814Y-95653842D01*
X103904001Y-94786654D01*
X106037501Y-94786654D01*
X106047819Y-94887652D01*
X106102046Y-95051300D01*
X106102051Y-95051311D01*
X106192552Y-95198034D01*
X106192555Y-95198038D01*
X106314461Y-95319944D01*
X106314465Y-95319947D01*
X106461188Y-95410448D01*
X106461199Y-95410453D01*
X106624847Y-95464680D01*
X106725851Y-95474999D01*
X106825000Y-95474998D01*
X106825000Y-94750000D01*
X106037501Y-94750000D01*
X106037501Y-94786654D01*
X103904001Y-94786654D01*
X104477310Y-94213345D01*
X106037500Y-94213345D01*
X106037500Y-94250000D01*
X106825000Y-94250000D01*
X106825000Y-93524999D01*
X106725860Y-93525000D01*
X106725844Y-93525001D01*
X106624847Y-93535319D01*
X106461199Y-93589546D01*
X106461188Y-93589551D01*
X106314465Y-93680052D01*
X106314461Y-93680055D01*
X106192555Y-93801961D01*
X106192552Y-93801965D01*
X106102051Y-93948688D01*
X106102046Y-93948699D01*
X106047819Y-94112347D01*
X106037500Y-94213345D01*
X104477310Y-94213345D01*
X105278838Y-93411817D01*
X105340161Y-93378333D01*
X105366519Y-93375499D01*
X106150002Y-93375499D01*
X106150008Y-93375499D01*
X106252797Y-93364999D01*
X106419334Y-93309814D01*
X106568656Y-93217712D01*
X106692712Y-93093656D01*
X106784814Y-92944334D01*
X106839999Y-92777797D01*
X106850500Y-92675009D01*
X106850499Y-92091517D01*
X106870183Y-92024479D01*
X106886813Y-92003842D01*
X107437821Y-91452834D01*
X107499142Y-91419351D01*
X107568834Y-91424335D01*
X107624767Y-91466207D01*
X107649184Y-91531671D01*
X107649500Y-91540517D01*
X107649500Y-92675001D01*
X107649501Y-92675018D01*
X107660000Y-92777796D01*
X107660001Y-92777799D01*
X107715185Y-92944331D01*
X107715187Y-92944336D01*
X107742301Y-92988294D01*
X107807288Y-93093656D01*
X107931344Y-93217712D01*
X108080666Y-93309814D01*
X108114500Y-93321025D01*
X108171947Y-93360796D01*
X108198772Y-93425311D01*
X108199500Y-93438732D01*
X108199500Y-93511548D01*
X108179815Y-93578587D01*
X108140597Y-93617086D01*
X108039153Y-93679657D01*
X108039148Y-93679661D01*
X108024825Y-93693984D01*
X107963501Y-93727468D01*
X107893809Y-93722482D01*
X107849465Y-93693982D01*
X107835538Y-93680055D01*
X107835534Y-93680052D01*
X107688811Y-93589551D01*
X107688800Y-93589546D01*
X107525152Y-93535319D01*
X107424154Y-93525000D01*
X107325000Y-93525000D01*
X107325000Y-95474999D01*
X107424140Y-95474999D01*
X107424154Y-95474998D01*
X107525152Y-95464680D01*
X107688800Y-95410453D01*
X107688811Y-95410448D01*
X107835535Y-95319947D01*
X107849460Y-95306021D01*
X107910782Y-95272533D01*
X107980473Y-95277514D01*
X108024827Y-95306017D01*
X108039150Y-95320340D01*
X108185984Y-95410908D01*
X108349747Y-95465174D01*
X108450823Y-95475500D01*
X109149176Y-95475499D01*
X109149184Y-95475498D01*
X109149187Y-95475498D01*
X109204530Y-95469844D01*
X109250253Y-95465174D01*
X109414016Y-95410908D01*
X109560850Y-95320340D01*
X109682840Y-95198350D01*
X109773408Y-95051516D01*
X109827674Y-94887753D01*
X109838000Y-94786677D01*
X109837999Y-94213324D01*
X109827674Y-94112247D01*
X109773408Y-93948484D01*
X109682840Y-93801650D01*
X109560850Y-93679660D01*
X109560846Y-93679657D01*
X109459403Y-93617086D01*
X109412678Y-93565138D01*
X109400500Y-93511548D01*
X109400500Y-93438732D01*
X109420185Y-93371693D01*
X109472989Y-93325938D01*
X109485495Y-93321026D01*
X109519334Y-93309814D01*
X109668656Y-93217712D01*
X109792712Y-93093656D01*
X109884814Y-92944334D01*
X109939999Y-92777797D01*
X109950500Y-92675009D01*
X109950499Y-91324992D01*
X109939999Y-91222203D01*
X109884814Y-91055666D01*
X109792712Y-90906344D01*
X109668656Y-90782288D01*
X109519334Y-90690186D01*
X109352797Y-90635001D01*
X109352795Y-90635000D01*
X109250016Y-90624500D01*
X108565517Y-90624500D01*
X108498478Y-90604815D01*
X108452723Y-90552011D01*
X108442779Y-90482853D01*
X108471804Y-90419297D01*
X108477822Y-90412833D01*
X108499290Y-90391365D01*
X108546013Y-90362007D01*
X108649522Y-90325789D01*
X108802262Y-90229816D01*
X108929816Y-90102262D01*
X109025789Y-89949522D01*
X109085368Y-89779255D01*
X109085369Y-89779249D01*
X109105565Y-89600003D01*
X109105565Y-89599996D01*
X109085369Y-89420750D01*
X109085368Y-89420745D01*
X109071355Y-89380697D01*
X109025789Y-89250478D01*
X108929816Y-89097738D01*
X108802262Y-88970184D01*
X108774091Y-88952483D01*
X108649523Y-88874211D01*
X108479254Y-88814631D01*
X108479249Y-88814630D01*
X108300004Y-88794435D01*
X108299996Y-88794435D01*
X108120750Y-88814630D01*
X108120745Y-88814631D01*
X107950476Y-88874211D01*
X107797737Y-88970184D01*
X107670184Y-89097737D01*
X107574212Y-89250475D01*
X107574211Y-89250476D01*
X107537992Y-89353984D01*
X107508632Y-89400709D01*
X106314009Y-90595332D01*
X106252686Y-90628817D01*
X106213726Y-90631009D01*
X106150011Y-90624500D01*
X105249998Y-90624500D01*
X105249980Y-90624501D01*
X105147203Y-90635000D01*
X105147200Y-90635001D01*
X104980668Y-90690185D01*
X104980663Y-90690187D01*
X104831342Y-90782289D01*
X104812178Y-90801453D01*
X104750855Y-90834937D01*
X104681163Y-90829951D01*
X104625230Y-90788078D01*
X104600815Y-90722614D01*
X104600499Y-90713770D01*
X104600499Y-90502129D01*
X104600497Y-90502109D01*
X104594439Y-90445755D01*
X104594439Y-90419244D01*
X104597436Y-90391367D01*
X104600500Y-90362873D01*
X104600499Y-89867128D01*
X104594439Y-89810754D01*
X104594439Y-89784244D01*
X104600500Y-89727873D01*
X104600499Y-89232128D01*
X104594439Y-89175754D01*
X104594439Y-89149244D01*
X104597509Y-89120688D01*
X104600500Y-89092873D01*
X104600499Y-88597128D01*
X104594186Y-88538400D01*
X104594187Y-88511894D01*
X104599999Y-88457841D01*
X104600000Y-88457827D01*
X104600000Y-88410000D01*
X104595280Y-88405280D01*
X104544314Y-88390315D01*
X104512088Y-88360313D01*
X104457546Y-88287454D01*
X104457545Y-88287453D01*
X104455193Y-88284311D01*
X104430776Y-88218846D01*
X104445628Y-88150573D01*
X104455193Y-88135689D01*
X104460166Y-88129046D01*
X104512087Y-88059687D01*
X104568020Y-88017818D01*
X104597500Y-88012499D01*
X104600000Y-88010000D01*
X104600000Y-87962172D01*
X104599999Y-87962157D01*
X104594187Y-87908103D01*
X104594187Y-87881591D01*
X104594840Y-87875520D01*
X104600500Y-87822873D01*
X104600499Y-87664499D01*
X104620183Y-87597461D01*
X104672987Y-87551706D01*
X104724499Y-87540500D01*
X104923331Y-87540500D01*
X104923347Y-87540501D01*
X104930943Y-87540501D01*
X105089054Y-87540501D01*
X105089057Y-87540501D01*
X105241785Y-87499577D01*
X105241787Y-87499576D01*
X105249296Y-87496466D01*
X105250196Y-87498641D01*
X105306370Y-87484999D01*
X105372403Y-87507835D01*
G37*
%TD.AperFunction*%
%TA.AperFunction,Conductor*%
G36*
X136367482Y-96512292D02*
G01*
X136439890Y-96637708D01*
X136542292Y-96740110D01*
X136667708Y-96812518D01*
X136709765Y-96823787D01*
X136118625Y-97414925D01*
X136194594Y-97468119D01*
X136238219Y-97522696D01*
X136245413Y-97592194D01*
X136213890Y-97654549D01*
X136194595Y-97671269D01*
X136008594Y-97801508D01*
X135917350Y-97892753D01*
X135856027Y-97926238D01*
X135786335Y-97921254D01*
X135741988Y-97892753D01*
X135436819Y-97587584D01*
X135403334Y-97526261D01*
X135400500Y-97499903D01*
X135400500Y-96880901D01*
X135420185Y-96813862D01*
X135472989Y-96768107D01*
X135542147Y-96758163D01*
X135605703Y-96787188D01*
X135636882Y-96828496D01*
X135706400Y-96977579D01*
X135706402Y-96977583D01*
X135765072Y-97061373D01*
X135765073Y-97061373D01*
X136356212Y-96470234D01*
X136367482Y-96512292D01*
G37*
%TD.AperFunction*%
%TA.AperFunction,Conductor*%
G36*
X93538852Y-94440129D02*
G01*
X93578512Y-94464530D01*
X93579469Y-94463298D01*
X93585632Y-94468078D01*
X93585635Y-94468081D01*
X93727102Y-94551744D01*
X93753075Y-94559290D01*
X93884926Y-94597597D01*
X93884929Y-94597597D01*
X93884931Y-94597598D01*
X93921806Y-94600500D01*
X94168060Y-94600500D01*
X94235099Y-94620185D01*
X94280854Y-94672989D01*
X94290798Y-94742147D01*
X94261773Y-94805703D01*
X94255741Y-94812181D01*
X94204741Y-94863181D01*
X94143418Y-94896666D01*
X94117060Y-94899500D01*
X93921798Y-94899500D01*
X93884932Y-94902401D01*
X93884926Y-94902402D01*
X93727106Y-94948254D01*
X93727103Y-94948255D01*
X93585637Y-95031917D01*
X93579469Y-95036702D01*
X93578164Y-95035019D01*
X93526454Y-95063246D01*
X93456763Y-95058251D01*
X93409058Y-95026247D01*
X93384796Y-95000000D01*
X93310848Y-95000000D01*
X93243809Y-94980315D01*
X93242010Y-94979137D01*
X93169249Y-94930520D01*
X93169247Y-94930519D01*
X93169247Y-94930518D01*
X93126544Y-94901985D01*
X93126542Y-94901984D01*
X93044607Y-94868046D01*
X93044606Y-94868046D01*
X92962666Y-94834105D01*
X92962658Y-94834103D01*
X92904623Y-94822559D01*
X92842712Y-94790174D01*
X92808138Y-94729459D01*
X92811877Y-94659689D01*
X92852744Y-94603017D01*
X92894219Y-94581866D01*
X92925902Y-94572661D01*
X92997898Y-94551744D01*
X93056194Y-94517268D01*
X93119315Y-94500000D01*
X93384794Y-94500000D01*
X93409057Y-94473752D01*
X93469018Y-94437885D01*
X93538852Y-94440129D01*
G37*
%TD.AperFunction*%
%TA.AperFunction,Conductor*%
G36*
X97155703Y-85155385D02*
G01*
X97162181Y-85161417D01*
X97163181Y-85162417D01*
X97196666Y-85223740D01*
X97199500Y-85250095D01*
X97199500Y-85282867D01*
X97199501Y-85282877D01*
X97205561Y-85339249D01*
X97205561Y-85365753D01*
X97199500Y-85422127D01*
X97199500Y-85422129D01*
X97199500Y-85422133D01*
X97199500Y-85917870D01*
X97199501Y-85917876D01*
X97205561Y-85974249D01*
X97205561Y-86000753D01*
X97199500Y-86057127D01*
X97199500Y-86057129D01*
X97199500Y-86057133D01*
X97199500Y-86552870D01*
X97199501Y-86552876D01*
X97205561Y-86609249D01*
X97205561Y-86635753D01*
X97199500Y-86692127D01*
X97199500Y-86692132D01*
X97199500Y-86692133D01*
X97199500Y-87187870D01*
X97199501Y-87187876D01*
X97205813Y-87246592D01*
X97205813Y-87273099D01*
X97200000Y-87327169D01*
X97200000Y-87375000D01*
X97204719Y-87379719D01*
X97255686Y-87394685D01*
X97287911Y-87424686D01*
X97341646Y-87496466D01*
X97344807Y-87500689D01*
X97369224Y-87566154D01*
X97354372Y-87634427D01*
X97344807Y-87649311D01*
X97342454Y-87652453D01*
X97342454Y-87652454D01*
X97287912Y-87725312D01*
X97231980Y-87767182D01*
X97202499Y-87772500D01*
X97200000Y-87775000D01*
X97200000Y-87822842D01*
X97205813Y-87876897D01*
X97205813Y-87903409D01*
X97199501Y-87962117D01*
X97199500Y-87962136D01*
X97199500Y-88457870D01*
X97199501Y-88457876D01*
X97205561Y-88514249D01*
X97205561Y-88540753D01*
X97199500Y-88597127D01*
X97199500Y-88597129D01*
X97199500Y-88597133D01*
X97199500Y-89092870D01*
X97199501Y-89092876D01*
X97205561Y-89149249D01*
X97205561Y-89175753D01*
X97199500Y-89232127D01*
X97199500Y-89232133D01*
X97199425Y-89232832D01*
X97172687Y-89297383D01*
X97117089Y-89336619D01*
X97098024Y-89343290D01*
X97028245Y-89346851D01*
X96967618Y-89312122D01*
X96935453Y-89250441D01*
X96921658Y-89181087D01*
X96919450Y-89175756D01*
X96865087Y-89044511D01*
X96865085Y-89044507D01*
X96865084Y-89044505D01*
X96825570Y-88985368D01*
X96787141Y-88927853D01*
X96782956Y-88921589D01*
X96782952Y-88921584D01*
X96686819Y-88825451D01*
X96653334Y-88764128D01*
X96650500Y-88737770D01*
X96650500Y-88499972D01*
X96657458Y-88459017D01*
X96657869Y-88457842D01*
X96685368Y-88379255D01*
X96685369Y-88379249D01*
X96705565Y-88200003D01*
X96705565Y-88199996D01*
X96685368Y-88020747D01*
X96685368Y-88020745D01*
X96657458Y-87940982D01*
X96650500Y-87900028D01*
X96650500Y-86162230D01*
X96670185Y-86095191D01*
X96686819Y-86074549D01*
X96713283Y-86048085D01*
X96782952Y-85978416D01*
X96849340Y-85879057D01*
X96865084Y-85855495D01*
X96921658Y-85718913D01*
X96932756Y-85663122D01*
X96950500Y-85573920D01*
X96950500Y-85249098D01*
X96970185Y-85182059D01*
X97022989Y-85136304D01*
X97092147Y-85126360D01*
X97155703Y-85155385D01*
G37*
%TD.AperFunction*%
%TD*%
M02*
