%TF.GenerationSoftware,KiCad,Pcbnew,8.0.8*%
%TF.CreationDate,2025-02-02T16:15:29+09:00*%
%TF.ProjectId,PCB,5043422e-6b69-4636-9164-5f7063625858,rev?*%
%TF.SameCoordinates,Original*%
%TF.FileFunction,Legend,Bot*%
%TF.FilePolarity,Positive*%
%FSLAX46Y46*%
G04 Gerber Fmt 4.6, Leading zero omitted, Abs format (unit mm)*
G04 Created by KiCad (PCBNEW 8.0.8) date 2025-02-02 16:15:29*
%MOMM*%
%LPD*%
G01*
G04 APERTURE LIST*
%ADD10C,0.150000*%
%ADD11C,0.100000*%
%ADD12C,0.120000*%
%ADD13C,0.152400*%
%ADD14C,0.508000*%
G04 APERTURE END LIST*
D10*
X158030357Y-92779580D02*
X158077976Y-92827200D01*
X158077976Y-92827200D02*
X158220833Y-92874819D01*
X158220833Y-92874819D02*
X158316071Y-92874819D01*
X158316071Y-92874819D02*
X158458928Y-92827200D01*
X158458928Y-92827200D02*
X158554166Y-92731961D01*
X158554166Y-92731961D02*
X158601785Y-92636723D01*
X158601785Y-92636723D02*
X158649404Y-92446247D01*
X158649404Y-92446247D02*
X158649404Y-92303390D01*
X158649404Y-92303390D02*
X158601785Y-92112914D01*
X158601785Y-92112914D02*
X158554166Y-92017676D01*
X158554166Y-92017676D02*
X158458928Y-91922438D01*
X158458928Y-91922438D02*
X158316071Y-91874819D01*
X158316071Y-91874819D02*
X158220833Y-91874819D01*
X158220833Y-91874819D02*
X158077976Y-91922438D01*
X158077976Y-91922438D02*
X158030357Y-91970057D01*
X157077976Y-92874819D02*
X157649404Y-92874819D01*
X157363690Y-92874819D02*
X157363690Y-91874819D01*
X157363690Y-91874819D02*
X157458928Y-92017676D01*
X157458928Y-92017676D02*
X157554166Y-92112914D01*
X157554166Y-92112914D02*
X157649404Y-92160533D01*
X156601785Y-92874819D02*
X156411309Y-92874819D01*
X156411309Y-92874819D02*
X156316071Y-92827200D01*
X156316071Y-92827200D02*
X156268452Y-92779580D01*
X156268452Y-92779580D02*
X156173214Y-92636723D01*
X156173214Y-92636723D02*
X156125595Y-92446247D01*
X156125595Y-92446247D02*
X156125595Y-92065295D01*
X156125595Y-92065295D02*
X156173214Y-91970057D01*
X156173214Y-91970057D02*
X156220833Y-91922438D01*
X156220833Y-91922438D02*
X156316071Y-91874819D01*
X156316071Y-91874819D02*
X156506547Y-91874819D01*
X156506547Y-91874819D02*
X156601785Y-91922438D01*
X156601785Y-91922438D02*
X156649404Y-91970057D01*
X156649404Y-91970057D02*
X156697023Y-92065295D01*
X156697023Y-92065295D02*
X156697023Y-92303390D01*
X156697023Y-92303390D02*
X156649404Y-92398628D01*
X156649404Y-92398628D02*
X156601785Y-92446247D01*
X156601785Y-92446247D02*
X156506547Y-92493866D01*
X156506547Y-92493866D02*
X156316071Y-92493866D01*
X156316071Y-92493866D02*
X156220833Y-92446247D01*
X156220833Y-92446247D02*
X156173214Y-92398628D01*
X156173214Y-92398628D02*
X156125595Y-92303390D01*
X111754819Y-80816666D02*
X112469104Y-80816666D01*
X112469104Y-80816666D02*
X112611961Y-80769047D01*
X112611961Y-80769047D02*
X112707200Y-80673809D01*
X112707200Y-80673809D02*
X112754819Y-80530952D01*
X112754819Y-80530952D02*
X112754819Y-80435714D01*
X112088152Y-81721428D02*
X112754819Y-81721428D01*
X111707200Y-81483333D02*
X112421485Y-81245238D01*
X112421485Y-81245238D02*
X112421485Y-81864285D01*
D11*
X104233332Y-97909800D02*
X104090475Y-97957419D01*
X104090475Y-97957419D02*
X103852380Y-97957419D01*
X103852380Y-97957419D02*
X103757142Y-97909800D01*
X103757142Y-97909800D02*
X103709523Y-97862180D01*
X103709523Y-97862180D02*
X103661904Y-97766942D01*
X103661904Y-97766942D02*
X103661904Y-97671704D01*
X103661904Y-97671704D02*
X103709523Y-97576466D01*
X103709523Y-97576466D02*
X103757142Y-97528847D01*
X103757142Y-97528847D02*
X103852380Y-97481228D01*
X103852380Y-97481228D02*
X104042856Y-97433609D01*
X104042856Y-97433609D02*
X104138094Y-97385990D01*
X104138094Y-97385990D02*
X104185713Y-97338371D01*
X104185713Y-97338371D02*
X104233332Y-97243133D01*
X104233332Y-97243133D02*
X104233332Y-97147895D01*
X104233332Y-97147895D02*
X104185713Y-97052657D01*
X104185713Y-97052657D02*
X104138094Y-97005038D01*
X104138094Y-97005038D02*
X104042856Y-96957419D01*
X104042856Y-96957419D02*
X103804761Y-96957419D01*
X103804761Y-96957419D02*
X103661904Y-97005038D01*
X103328570Y-96957419D02*
X103090475Y-97957419D01*
X103090475Y-97957419D02*
X102899999Y-97243133D01*
X102899999Y-97243133D02*
X102709523Y-97957419D01*
X102709523Y-97957419D02*
X102471428Y-96957419D01*
X101566666Y-97957419D02*
X102138094Y-97957419D01*
X101852380Y-97957419D02*
X101852380Y-96957419D01*
X101852380Y-96957419D02*
X101947618Y-97100276D01*
X101947618Y-97100276D02*
X102042856Y-97195514D01*
X102042856Y-97195514D02*
X102138094Y-97243133D01*
D10*
X123266666Y-99797080D02*
X123314285Y-99844700D01*
X123314285Y-99844700D02*
X123457142Y-99892319D01*
X123457142Y-99892319D02*
X123552380Y-99892319D01*
X123552380Y-99892319D02*
X123695237Y-99844700D01*
X123695237Y-99844700D02*
X123790475Y-99749461D01*
X123790475Y-99749461D02*
X123838094Y-99654223D01*
X123838094Y-99654223D02*
X123885713Y-99463747D01*
X123885713Y-99463747D02*
X123885713Y-99320890D01*
X123885713Y-99320890D02*
X123838094Y-99130414D01*
X123838094Y-99130414D02*
X123790475Y-99035176D01*
X123790475Y-99035176D02*
X123695237Y-98939938D01*
X123695237Y-98939938D02*
X123552380Y-98892319D01*
X123552380Y-98892319D02*
X123457142Y-98892319D01*
X123457142Y-98892319D02*
X123314285Y-98939938D01*
X123314285Y-98939938D02*
X123266666Y-98987557D01*
X122885713Y-98987557D02*
X122838094Y-98939938D01*
X122838094Y-98939938D02*
X122742856Y-98892319D01*
X122742856Y-98892319D02*
X122504761Y-98892319D01*
X122504761Y-98892319D02*
X122409523Y-98939938D01*
X122409523Y-98939938D02*
X122361904Y-98987557D01*
X122361904Y-98987557D02*
X122314285Y-99082795D01*
X122314285Y-99082795D02*
X122314285Y-99178033D01*
X122314285Y-99178033D02*
X122361904Y-99320890D01*
X122361904Y-99320890D02*
X122933332Y-99892319D01*
X122933332Y-99892319D02*
X122314285Y-99892319D01*
X112091666Y-100754580D02*
X112139285Y-100802200D01*
X112139285Y-100802200D02*
X112282142Y-100849819D01*
X112282142Y-100849819D02*
X112377380Y-100849819D01*
X112377380Y-100849819D02*
X112520237Y-100802200D01*
X112520237Y-100802200D02*
X112615475Y-100706961D01*
X112615475Y-100706961D02*
X112663094Y-100611723D01*
X112663094Y-100611723D02*
X112710713Y-100421247D01*
X112710713Y-100421247D02*
X112710713Y-100278390D01*
X112710713Y-100278390D02*
X112663094Y-100087914D01*
X112663094Y-100087914D02*
X112615475Y-99992676D01*
X112615475Y-99992676D02*
X112520237Y-99897438D01*
X112520237Y-99897438D02*
X112377380Y-99849819D01*
X112377380Y-99849819D02*
X112282142Y-99849819D01*
X112282142Y-99849819D02*
X112139285Y-99897438D01*
X112139285Y-99897438D02*
X112091666Y-99945057D01*
X111139285Y-100849819D02*
X111710713Y-100849819D01*
X111424999Y-100849819D02*
X111424999Y-99849819D01*
X111424999Y-99849819D02*
X111520237Y-99992676D01*
X111520237Y-99992676D02*
X111615475Y-100087914D01*
X111615475Y-100087914D02*
X111710713Y-100135533D01*
X101766666Y-101654819D02*
X102099999Y-101178628D01*
X102338094Y-101654819D02*
X102338094Y-100654819D01*
X102338094Y-100654819D02*
X101957142Y-100654819D01*
X101957142Y-100654819D02*
X101861904Y-100702438D01*
X101861904Y-100702438D02*
X101814285Y-100750057D01*
X101814285Y-100750057D02*
X101766666Y-100845295D01*
X101766666Y-100845295D02*
X101766666Y-100988152D01*
X101766666Y-100988152D02*
X101814285Y-101083390D01*
X101814285Y-101083390D02*
X101861904Y-101131009D01*
X101861904Y-101131009D02*
X101957142Y-101178628D01*
X101957142Y-101178628D02*
X102338094Y-101178628D01*
X100909523Y-100988152D02*
X100909523Y-101654819D01*
X101147618Y-100607200D02*
X101385713Y-101321485D01*
X101385713Y-101321485D02*
X100766666Y-101321485D01*
X127842857Y-84959580D02*
X127890476Y-85007200D01*
X127890476Y-85007200D02*
X128033333Y-85054819D01*
X128033333Y-85054819D02*
X128128571Y-85054819D01*
X128128571Y-85054819D02*
X128271428Y-85007200D01*
X128271428Y-85007200D02*
X128366666Y-84911961D01*
X128366666Y-84911961D02*
X128414285Y-84816723D01*
X128414285Y-84816723D02*
X128461904Y-84626247D01*
X128461904Y-84626247D02*
X128461904Y-84483390D01*
X128461904Y-84483390D02*
X128414285Y-84292914D01*
X128414285Y-84292914D02*
X128366666Y-84197676D01*
X128366666Y-84197676D02*
X128271428Y-84102438D01*
X128271428Y-84102438D02*
X128128571Y-84054819D01*
X128128571Y-84054819D02*
X128033333Y-84054819D01*
X128033333Y-84054819D02*
X127890476Y-84102438D01*
X127890476Y-84102438D02*
X127842857Y-84150057D01*
X126890476Y-85054819D02*
X127461904Y-85054819D01*
X127176190Y-85054819D02*
X127176190Y-84054819D01*
X127176190Y-84054819D02*
X127271428Y-84197676D01*
X127271428Y-84197676D02*
X127366666Y-84292914D01*
X127366666Y-84292914D02*
X127461904Y-84340533D01*
X125938095Y-85054819D02*
X126509523Y-85054819D01*
X126223809Y-85054819D02*
X126223809Y-84054819D01*
X126223809Y-84054819D02*
X126319047Y-84197676D01*
X126319047Y-84197676D02*
X126414285Y-84292914D01*
X126414285Y-84292914D02*
X126509523Y-84340533D01*
X126204819Y-90661905D02*
X125204819Y-90661905D01*
X125204819Y-90661905D02*
X125204819Y-90900000D01*
X125204819Y-90900000D02*
X125252438Y-91042857D01*
X125252438Y-91042857D02*
X125347676Y-91138095D01*
X125347676Y-91138095D02*
X125442914Y-91185714D01*
X125442914Y-91185714D02*
X125633390Y-91233333D01*
X125633390Y-91233333D02*
X125776247Y-91233333D01*
X125776247Y-91233333D02*
X125966723Y-91185714D01*
X125966723Y-91185714D02*
X126061961Y-91138095D01*
X126061961Y-91138095D02*
X126157200Y-91042857D01*
X126157200Y-91042857D02*
X126204819Y-90900000D01*
X126204819Y-90900000D02*
X126204819Y-90661905D01*
X125633390Y-91804762D02*
X125585771Y-91709524D01*
X125585771Y-91709524D02*
X125538152Y-91661905D01*
X125538152Y-91661905D02*
X125442914Y-91614286D01*
X125442914Y-91614286D02*
X125395295Y-91614286D01*
X125395295Y-91614286D02*
X125300057Y-91661905D01*
X125300057Y-91661905D02*
X125252438Y-91709524D01*
X125252438Y-91709524D02*
X125204819Y-91804762D01*
X125204819Y-91804762D02*
X125204819Y-91995238D01*
X125204819Y-91995238D02*
X125252438Y-92090476D01*
X125252438Y-92090476D02*
X125300057Y-92138095D01*
X125300057Y-92138095D02*
X125395295Y-92185714D01*
X125395295Y-92185714D02*
X125442914Y-92185714D01*
X125442914Y-92185714D02*
X125538152Y-92138095D01*
X125538152Y-92138095D02*
X125585771Y-92090476D01*
X125585771Y-92090476D02*
X125633390Y-91995238D01*
X125633390Y-91995238D02*
X125633390Y-91804762D01*
X125633390Y-91804762D02*
X125681009Y-91709524D01*
X125681009Y-91709524D02*
X125728628Y-91661905D01*
X125728628Y-91661905D02*
X125823866Y-91614286D01*
X125823866Y-91614286D02*
X126014342Y-91614286D01*
X126014342Y-91614286D02*
X126109580Y-91661905D01*
X126109580Y-91661905D02*
X126157200Y-91709524D01*
X126157200Y-91709524D02*
X126204819Y-91804762D01*
X126204819Y-91804762D02*
X126204819Y-91995238D01*
X126204819Y-91995238D02*
X126157200Y-92090476D01*
X126157200Y-92090476D02*
X126109580Y-92138095D01*
X126109580Y-92138095D02*
X126014342Y-92185714D01*
X126014342Y-92185714D02*
X125823866Y-92185714D01*
X125823866Y-92185714D02*
X125728628Y-92138095D01*
X125728628Y-92138095D02*
X125681009Y-92090476D01*
X125681009Y-92090476D02*
X125633390Y-91995238D01*
X164838094Y-96704819D02*
X164838094Y-95704819D01*
X164838094Y-95704819D02*
X164599999Y-95704819D01*
X164599999Y-95704819D02*
X164457142Y-95752438D01*
X164457142Y-95752438D02*
X164361904Y-95847676D01*
X164361904Y-95847676D02*
X164314285Y-95942914D01*
X164314285Y-95942914D02*
X164266666Y-96133390D01*
X164266666Y-96133390D02*
X164266666Y-96276247D01*
X164266666Y-96276247D02*
X164314285Y-96466723D01*
X164314285Y-96466723D02*
X164361904Y-96561961D01*
X164361904Y-96561961D02*
X164457142Y-96657200D01*
X164457142Y-96657200D02*
X164599999Y-96704819D01*
X164599999Y-96704819D02*
X164838094Y-96704819D01*
X163790475Y-96704819D02*
X163599999Y-96704819D01*
X163599999Y-96704819D02*
X163504761Y-96657200D01*
X163504761Y-96657200D02*
X163457142Y-96609580D01*
X163457142Y-96609580D02*
X163361904Y-96466723D01*
X163361904Y-96466723D02*
X163314285Y-96276247D01*
X163314285Y-96276247D02*
X163314285Y-95895295D01*
X163314285Y-95895295D02*
X163361904Y-95800057D01*
X163361904Y-95800057D02*
X163409523Y-95752438D01*
X163409523Y-95752438D02*
X163504761Y-95704819D01*
X163504761Y-95704819D02*
X163695237Y-95704819D01*
X163695237Y-95704819D02*
X163790475Y-95752438D01*
X163790475Y-95752438D02*
X163838094Y-95800057D01*
X163838094Y-95800057D02*
X163885713Y-95895295D01*
X163885713Y-95895295D02*
X163885713Y-96133390D01*
X163885713Y-96133390D02*
X163838094Y-96228628D01*
X163838094Y-96228628D02*
X163790475Y-96276247D01*
X163790475Y-96276247D02*
X163695237Y-96323866D01*
X163695237Y-96323866D02*
X163504761Y-96323866D01*
X163504761Y-96323866D02*
X163409523Y-96276247D01*
X163409523Y-96276247D02*
X163361904Y-96228628D01*
X163361904Y-96228628D02*
X163314285Y-96133390D01*
X164988094Y-92304819D02*
X164988094Y-91304819D01*
X164988094Y-91304819D02*
X164749999Y-91304819D01*
X164749999Y-91304819D02*
X164607142Y-91352438D01*
X164607142Y-91352438D02*
X164511904Y-91447676D01*
X164511904Y-91447676D02*
X164464285Y-91542914D01*
X164464285Y-91542914D02*
X164416666Y-91733390D01*
X164416666Y-91733390D02*
X164416666Y-91876247D01*
X164416666Y-91876247D02*
X164464285Y-92066723D01*
X164464285Y-92066723D02*
X164511904Y-92161961D01*
X164511904Y-92161961D02*
X164607142Y-92257200D01*
X164607142Y-92257200D02*
X164749999Y-92304819D01*
X164749999Y-92304819D02*
X164988094Y-92304819D01*
X164083332Y-91304819D02*
X163464285Y-91304819D01*
X163464285Y-91304819D02*
X163797618Y-91685771D01*
X163797618Y-91685771D02*
X163654761Y-91685771D01*
X163654761Y-91685771D02*
X163559523Y-91733390D01*
X163559523Y-91733390D02*
X163511904Y-91781009D01*
X163511904Y-91781009D02*
X163464285Y-91876247D01*
X163464285Y-91876247D02*
X163464285Y-92114342D01*
X163464285Y-92114342D02*
X163511904Y-92209580D01*
X163511904Y-92209580D02*
X163559523Y-92257200D01*
X163559523Y-92257200D02*
X163654761Y-92304819D01*
X163654761Y-92304819D02*
X163940475Y-92304819D01*
X163940475Y-92304819D02*
X164035713Y-92257200D01*
X164035713Y-92257200D02*
X164083332Y-92209580D01*
X157916666Y-84204819D02*
X158249999Y-83728628D01*
X158488094Y-84204819D02*
X158488094Y-83204819D01*
X158488094Y-83204819D02*
X158107142Y-83204819D01*
X158107142Y-83204819D02*
X158011904Y-83252438D01*
X158011904Y-83252438D02*
X157964285Y-83300057D01*
X157964285Y-83300057D02*
X157916666Y-83395295D01*
X157916666Y-83395295D02*
X157916666Y-83538152D01*
X157916666Y-83538152D02*
X157964285Y-83633390D01*
X157964285Y-83633390D02*
X158011904Y-83681009D01*
X158011904Y-83681009D02*
X158107142Y-83728628D01*
X158107142Y-83728628D02*
X158488094Y-83728628D01*
X157583332Y-83204819D02*
X156916666Y-83204819D01*
X156916666Y-83204819D02*
X157345237Y-84204819D01*
X175359580Y-62107142D02*
X175407200Y-62059523D01*
X175407200Y-62059523D02*
X175454819Y-61916666D01*
X175454819Y-61916666D02*
X175454819Y-61821428D01*
X175454819Y-61821428D02*
X175407200Y-61678571D01*
X175407200Y-61678571D02*
X175311961Y-61583333D01*
X175311961Y-61583333D02*
X175216723Y-61535714D01*
X175216723Y-61535714D02*
X175026247Y-61488095D01*
X175026247Y-61488095D02*
X174883390Y-61488095D01*
X174883390Y-61488095D02*
X174692914Y-61535714D01*
X174692914Y-61535714D02*
X174597676Y-61583333D01*
X174597676Y-61583333D02*
X174502438Y-61678571D01*
X174502438Y-61678571D02*
X174454819Y-61821428D01*
X174454819Y-61821428D02*
X174454819Y-61916666D01*
X174454819Y-61916666D02*
X174502438Y-62059523D01*
X174502438Y-62059523D02*
X174550057Y-62107142D01*
X175454819Y-63059523D02*
X175454819Y-62488095D01*
X175454819Y-62773809D02*
X174454819Y-62773809D01*
X174454819Y-62773809D02*
X174597676Y-62678571D01*
X174597676Y-62678571D02*
X174692914Y-62583333D01*
X174692914Y-62583333D02*
X174740533Y-62488095D01*
X174454819Y-63392857D02*
X174454819Y-64059523D01*
X174454819Y-64059523D02*
X175454819Y-63630952D01*
X148686904Y-56954819D02*
X148686904Y-57764342D01*
X148686904Y-57764342D02*
X148639285Y-57859580D01*
X148639285Y-57859580D02*
X148591666Y-57907200D01*
X148591666Y-57907200D02*
X148496428Y-57954819D01*
X148496428Y-57954819D02*
X148305952Y-57954819D01*
X148305952Y-57954819D02*
X148210714Y-57907200D01*
X148210714Y-57907200D02*
X148163095Y-57859580D01*
X148163095Y-57859580D02*
X148115476Y-57764342D01*
X148115476Y-57764342D02*
X148115476Y-56954819D01*
X147210714Y-57288152D02*
X147210714Y-57954819D01*
X147448809Y-56907200D02*
X147686904Y-57621485D01*
X147686904Y-57621485D02*
X147067857Y-57621485D01*
X164892857Y-65629580D02*
X164940476Y-65677200D01*
X164940476Y-65677200D02*
X165083333Y-65724819D01*
X165083333Y-65724819D02*
X165178571Y-65724819D01*
X165178571Y-65724819D02*
X165321428Y-65677200D01*
X165321428Y-65677200D02*
X165416666Y-65581961D01*
X165416666Y-65581961D02*
X165464285Y-65486723D01*
X165464285Y-65486723D02*
X165511904Y-65296247D01*
X165511904Y-65296247D02*
X165511904Y-65153390D01*
X165511904Y-65153390D02*
X165464285Y-64962914D01*
X165464285Y-64962914D02*
X165416666Y-64867676D01*
X165416666Y-64867676D02*
X165321428Y-64772438D01*
X165321428Y-64772438D02*
X165178571Y-64724819D01*
X165178571Y-64724819D02*
X165083333Y-64724819D01*
X165083333Y-64724819D02*
X164940476Y-64772438D01*
X164940476Y-64772438D02*
X164892857Y-64820057D01*
X163940476Y-65724819D02*
X164511904Y-65724819D01*
X164226190Y-65724819D02*
X164226190Y-64724819D01*
X164226190Y-64724819D02*
X164321428Y-64867676D01*
X164321428Y-64867676D02*
X164416666Y-64962914D01*
X164416666Y-64962914D02*
X164511904Y-65010533D01*
X163035714Y-64724819D02*
X163511904Y-64724819D01*
X163511904Y-64724819D02*
X163559523Y-65201009D01*
X163559523Y-65201009D02*
X163511904Y-65153390D01*
X163511904Y-65153390D02*
X163416666Y-65105771D01*
X163416666Y-65105771D02*
X163178571Y-65105771D01*
X163178571Y-65105771D02*
X163083333Y-65153390D01*
X163083333Y-65153390D02*
X163035714Y-65201009D01*
X163035714Y-65201009D02*
X162988095Y-65296247D01*
X162988095Y-65296247D02*
X162988095Y-65534342D01*
X162988095Y-65534342D02*
X163035714Y-65629580D01*
X163035714Y-65629580D02*
X163083333Y-65677200D01*
X163083333Y-65677200D02*
X163178571Y-65724819D01*
X163178571Y-65724819D02*
X163416666Y-65724819D01*
X163416666Y-65724819D02*
X163511904Y-65677200D01*
X163511904Y-65677200D02*
X163559523Y-65629580D01*
X143566666Y-91854819D02*
X143899999Y-91378628D01*
X144138094Y-91854819D02*
X144138094Y-90854819D01*
X144138094Y-90854819D02*
X143757142Y-90854819D01*
X143757142Y-90854819D02*
X143661904Y-90902438D01*
X143661904Y-90902438D02*
X143614285Y-90950057D01*
X143614285Y-90950057D02*
X143566666Y-91045295D01*
X143566666Y-91045295D02*
X143566666Y-91188152D01*
X143566666Y-91188152D02*
X143614285Y-91283390D01*
X143614285Y-91283390D02*
X143661904Y-91331009D01*
X143661904Y-91331009D02*
X143757142Y-91378628D01*
X143757142Y-91378628D02*
X144138094Y-91378628D01*
X143185713Y-90950057D02*
X143138094Y-90902438D01*
X143138094Y-90902438D02*
X143042856Y-90854819D01*
X143042856Y-90854819D02*
X142804761Y-90854819D01*
X142804761Y-90854819D02*
X142709523Y-90902438D01*
X142709523Y-90902438D02*
X142661904Y-90950057D01*
X142661904Y-90950057D02*
X142614285Y-91045295D01*
X142614285Y-91045295D02*
X142614285Y-91140533D01*
X142614285Y-91140533D02*
X142661904Y-91283390D01*
X142661904Y-91283390D02*
X143233332Y-91854819D01*
X143233332Y-91854819D02*
X142614285Y-91854819D01*
X160916666Y-83954819D02*
X161249999Y-83478628D01*
X161488094Y-83954819D02*
X161488094Y-82954819D01*
X161488094Y-82954819D02*
X161107142Y-82954819D01*
X161107142Y-82954819D02*
X161011904Y-83002438D01*
X161011904Y-83002438D02*
X160964285Y-83050057D01*
X160964285Y-83050057D02*
X160916666Y-83145295D01*
X160916666Y-83145295D02*
X160916666Y-83288152D01*
X160916666Y-83288152D02*
X160964285Y-83383390D01*
X160964285Y-83383390D02*
X161011904Y-83431009D01*
X161011904Y-83431009D02*
X161107142Y-83478628D01*
X161107142Y-83478628D02*
X161488094Y-83478628D01*
X160059523Y-82954819D02*
X160249999Y-82954819D01*
X160249999Y-82954819D02*
X160345237Y-83002438D01*
X160345237Y-83002438D02*
X160392856Y-83050057D01*
X160392856Y-83050057D02*
X160488094Y-83192914D01*
X160488094Y-83192914D02*
X160535713Y-83383390D01*
X160535713Y-83383390D02*
X160535713Y-83764342D01*
X160535713Y-83764342D02*
X160488094Y-83859580D01*
X160488094Y-83859580D02*
X160440475Y-83907200D01*
X160440475Y-83907200D02*
X160345237Y-83954819D01*
X160345237Y-83954819D02*
X160154761Y-83954819D01*
X160154761Y-83954819D02*
X160059523Y-83907200D01*
X160059523Y-83907200D02*
X160011904Y-83859580D01*
X160011904Y-83859580D02*
X159964285Y-83764342D01*
X159964285Y-83764342D02*
X159964285Y-83526247D01*
X159964285Y-83526247D02*
X160011904Y-83431009D01*
X160011904Y-83431009D02*
X160059523Y-83383390D01*
X160059523Y-83383390D02*
X160154761Y-83335771D01*
X160154761Y-83335771D02*
X160345237Y-83335771D01*
X160345237Y-83335771D02*
X160440475Y-83383390D01*
X160440475Y-83383390D02*
X160488094Y-83431009D01*
X160488094Y-83431009D02*
X160535713Y-83526247D01*
X118311904Y-94754819D02*
X118311904Y-95564342D01*
X118311904Y-95564342D02*
X118264285Y-95659580D01*
X118264285Y-95659580D02*
X118216666Y-95707200D01*
X118216666Y-95707200D02*
X118121428Y-95754819D01*
X118121428Y-95754819D02*
X117930952Y-95754819D01*
X117930952Y-95754819D02*
X117835714Y-95707200D01*
X117835714Y-95707200D02*
X117788095Y-95659580D01*
X117788095Y-95659580D02*
X117740476Y-95564342D01*
X117740476Y-95564342D02*
X117740476Y-94754819D01*
X117359523Y-94754819D02*
X116740476Y-94754819D01*
X116740476Y-94754819D02*
X117073809Y-95135771D01*
X117073809Y-95135771D02*
X116930952Y-95135771D01*
X116930952Y-95135771D02*
X116835714Y-95183390D01*
X116835714Y-95183390D02*
X116788095Y-95231009D01*
X116788095Y-95231009D02*
X116740476Y-95326247D01*
X116740476Y-95326247D02*
X116740476Y-95564342D01*
X116740476Y-95564342D02*
X116788095Y-95659580D01*
X116788095Y-95659580D02*
X116835714Y-95707200D01*
X116835714Y-95707200D02*
X116930952Y-95754819D01*
X116930952Y-95754819D02*
X117216666Y-95754819D01*
X117216666Y-95754819D02*
X117311904Y-95707200D01*
X117311904Y-95707200D02*
X117359523Y-95659580D01*
X97138094Y-101954819D02*
X97138094Y-100954819D01*
X97138094Y-100954819D02*
X96899999Y-100954819D01*
X96899999Y-100954819D02*
X96757142Y-101002438D01*
X96757142Y-101002438D02*
X96661904Y-101097676D01*
X96661904Y-101097676D02*
X96614285Y-101192914D01*
X96614285Y-101192914D02*
X96566666Y-101383390D01*
X96566666Y-101383390D02*
X96566666Y-101526247D01*
X96566666Y-101526247D02*
X96614285Y-101716723D01*
X96614285Y-101716723D02*
X96661904Y-101811961D01*
X96661904Y-101811961D02*
X96757142Y-101907200D01*
X96757142Y-101907200D02*
X96899999Y-101954819D01*
X96899999Y-101954819D02*
X97138094Y-101954819D01*
X95614285Y-101954819D02*
X96185713Y-101954819D01*
X95899999Y-101954819D02*
X95899999Y-100954819D01*
X95899999Y-100954819D02*
X95995237Y-101097676D01*
X95995237Y-101097676D02*
X96090475Y-101192914D01*
X96090475Y-101192914D02*
X96185713Y-101240533D01*
X171592857Y-87459580D02*
X171640476Y-87507200D01*
X171640476Y-87507200D02*
X171783333Y-87554819D01*
X171783333Y-87554819D02*
X171878571Y-87554819D01*
X171878571Y-87554819D02*
X172021428Y-87507200D01*
X172021428Y-87507200D02*
X172116666Y-87411961D01*
X172116666Y-87411961D02*
X172164285Y-87316723D01*
X172164285Y-87316723D02*
X172211904Y-87126247D01*
X172211904Y-87126247D02*
X172211904Y-86983390D01*
X172211904Y-86983390D02*
X172164285Y-86792914D01*
X172164285Y-86792914D02*
X172116666Y-86697676D01*
X172116666Y-86697676D02*
X172021428Y-86602438D01*
X172021428Y-86602438D02*
X171878571Y-86554819D01*
X171878571Y-86554819D02*
X171783333Y-86554819D01*
X171783333Y-86554819D02*
X171640476Y-86602438D01*
X171640476Y-86602438D02*
X171592857Y-86650057D01*
X171211904Y-86650057D02*
X171164285Y-86602438D01*
X171164285Y-86602438D02*
X171069047Y-86554819D01*
X171069047Y-86554819D02*
X170830952Y-86554819D01*
X170830952Y-86554819D02*
X170735714Y-86602438D01*
X170735714Y-86602438D02*
X170688095Y-86650057D01*
X170688095Y-86650057D02*
X170640476Y-86745295D01*
X170640476Y-86745295D02*
X170640476Y-86840533D01*
X170640476Y-86840533D02*
X170688095Y-86983390D01*
X170688095Y-86983390D02*
X171259523Y-87554819D01*
X171259523Y-87554819D02*
X170640476Y-87554819D01*
X170021428Y-86554819D02*
X169926190Y-86554819D01*
X169926190Y-86554819D02*
X169830952Y-86602438D01*
X169830952Y-86602438D02*
X169783333Y-86650057D01*
X169783333Y-86650057D02*
X169735714Y-86745295D01*
X169735714Y-86745295D02*
X169688095Y-86935771D01*
X169688095Y-86935771D02*
X169688095Y-87173866D01*
X169688095Y-87173866D02*
X169735714Y-87364342D01*
X169735714Y-87364342D02*
X169783333Y-87459580D01*
X169783333Y-87459580D02*
X169830952Y-87507200D01*
X169830952Y-87507200D02*
X169926190Y-87554819D01*
X169926190Y-87554819D02*
X170021428Y-87554819D01*
X170021428Y-87554819D02*
X170116666Y-87507200D01*
X170116666Y-87507200D02*
X170164285Y-87459580D01*
X170164285Y-87459580D02*
X170211904Y-87364342D01*
X170211904Y-87364342D02*
X170259523Y-87173866D01*
X170259523Y-87173866D02*
X170259523Y-86935771D01*
X170259523Y-86935771D02*
X170211904Y-86745295D01*
X170211904Y-86745295D02*
X170164285Y-86650057D01*
X170164285Y-86650057D02*
X170116666Y-86602438D01*
X170116666Y-86602438D02*
X170021428Y-86554819D01*
X169859580Y-61719642D02*
X169907200Y-61672023D01*
X169907200Y-61672023D02*
X169954819Y-61529166D01*
X169954819Y-61529166D02*
X169954819Y-61433928D01*
X169954819Y-61433928D02*
X169907200Y-61291071D01*
X169907200Y-61291071D02*
X169811961Y-61195833D01*
X169811961Y-61195833D02*
X169716723Y-61148214D01*
X169716723Y-61148214D02*
X169526247Y-61100595D01*
X169526247Y-61100595D02*
X169383390Y-61100595D01*
X169383390Y-61100595D02*
X169192914Y-61148214D01*
X169192914Y-61148214D02*
X169097676Y-61195833D01*
X169097676Y-61195833D02*
X169002438Y-61291071D01*
X169002438Y-61291071D02*
X168954819Y-61433928D01*
X168954819Y-61433928D02*
X168954819Y-61529166D01*
X168954819Y-61529166D02*
X169002438Y-61672023D01*
X169002438Y-61672023D02*
X169050057Y-61719642D01*
X169954819Y-62672023D02*
X169954819Y-62100595D01*
X169954819Y-62386309D02*
X168954819Y-62386309D01*
X168954819Y-62386309D02*
X169097676Y-62291071D01*
X169097676Y-62291071D02*
X169192914Y-62195833D01*
X169192914Y-62195833D02*
X169240533Y-62100595D01*
X168954819Y-63529166D02*
X168954819Y-63338690D01*
X168954819Y-63338690D02*
X169002438Y-63243452D01*
X169002438Y-63243452D02*
X169050057Y-63195833D01*
X169050057Y-63195833D02*
X169192914Y-63100595D01*
X169192914Y-63100595D02*
X169383390Y-63052976D01*
X169383390Y-63052976D02*
X169764342Y-63052976D01*
X169764342Y-63052976D02*
X169859580Y-63100595D01*
X169859580Y-63100595D02*
X169907200Y-63148214D01*
X169907200Y-63148214D02*
X169954819Y-63243452D01*
X169954819Y-63243452D02*
X169954819Y-63433928D01*
X169954819Y-63433928D02*
X169907200Y-63529166D01*
X169907200Y-63529166D02*
X169859580Y-63576785D01*
X169859580Y-63576785D02*
X169764342Y-63624404D01*
X169764342Y-63624404D02*
X169526247Y-63624404D01*
X169526247Y-63624404D02*
X169431009Y-63576785D01*
X169431009Y-63576785D02*
X169383390Y-63529166D01*
X169383390Y-63529166D02*
X169335771Y-63433928D01*
X169335771Y-63433928D02*
X169335771Y-63243452D01*
X169335771Y-63243452D02*
X169383390Y-63148214D01*
X169383390Y-63148214D02*
X169431009Y-63100595D01*
X169431009Y-63100595D02*
X169526247Y-63052976D01*
D11*
X157816666Y-101907419D02*
X158292856Y-101907419D01*
X158292856Y-101907419D02*
X158292856Y-100907419D01*
X156959523Y-101907419D02*
X157530951Y-101907419D01*
X157245237Y-101907419D02*
X157245237Y-100907419D01*
X157245237Y-100907419D02*
X157340475Y-101050276D01*
X157340475Y-101050276D02*
X157435713Y-101145514D01*
X157435713Y-101145514D02*
X157530951Y-101193133D01*
D10*
X158045238Y-87150057D02*
X158140476Y-87102438D01*
X158140476Y-87102438D02*
X158235714Y-87007200D01*
X158235714Y-87007200D02*
X158378571Y-86864342D01*
X158378571Y-86864342D02*
X158473809Y-86816723D01*
X158473809Y-86816723D02*
X158569047Y-86816723D01*
X158521428Y-87054819D02*
X158616666Y-87007200D01*
X158616666Y-87007200D02*
X158711904Y-86911961D01*
X158711904Y-86911961D02*
X158759523Y-86721485D01*
X158759523Y-86721485D02*
X158759523Y-86388152D01*
X158759523Y-86388152D02*
X158711904Y-86197676D01*
X158711904Y-86197676D02*
X158616666Y-86102438D01*
X158616666Y-86102438D02*
X158521428Y-86054819D01*
X158521428Y-86054819D02*
X158330952Y-86054819D01*
X158330952Y-86054819D02*
X158235714Y-86102438D01*
X158235714Y-86102438D02*
X158140476Y-86197676D01*
X158140476Y-86197676D02*
X158092857Y-86388152D01*
X158092857Y-86388152D02*
X158092857Y-86721485D01*
X158092857Y-86721485D02*
X158140476Y-86911961D01*
X158140476Y-86911961D02*
X158235714Y-87007200D01*
X158235714Y-87007200D02*
X158330952Y-87054819D01*
X158330952Y-87054819D02*
X158521428Y-87054819D01*
X157711904Y-86150057D02*
X157664285Y-86102438D01*
X157664285Y-86102438D02*
X157569047Y-86054819D01*
X157569047Y-86054819D02*
X157330952Y-86054819D01*
X157330952Y-86054819D02*
X157235714Y-86102438D01*
X157235714Y-86102438D02*
X157188095Y-86150057D01*
X157188095Y-86150057D02*
X157140476Y-86245295D01*
X157140476Y-86245295D02*
X157140476Y-86340533D01*
X157140476Y-86340533D02*
X157188095Y-86483390D01*
X157188095Y-86483390D02*
X157759523Y-87054819D01*
X157759523Y-87054819D02*
X157140476Y-87054819D01*
X153816666Y-97504819D02*
X154149999Y-97028628D01*
X154388094Y-97504819D02*
X154388094Y-96504819D01*
X154388094Y-96504819D02*
X154007142Y-96504819D01*
X154007142Y-96504819D02*
X153911904Y-96552438D01*
X153911904Y-96552438D02*
X153864285Y-96600057D01*
X153864285Y-96600057D02*
X153816666Y-96695295D01*
X153816666Y-96695295D02*
X153816666Y-96838152D01*
X153816666Y-96838152D02*
X153864285Y-96933390D01*
X153864285Y-96933390D02*
X153911904Y-96981009D01*
X153911904Y-96981009D02*
X154007142Y-97028628D01*
X154007142Y-97028628D02*
X154388094Y-97028628D01*
X152911904Y-96504819D02*
X153388094Y-96504819D01*
X153388094Y-96504819D02*
X153435713Y-96981009D01*
X153435713Y-96981009D02*
X153388094Y-96933390D01*
X153388094Y-96933390D02*
X153292856Y-96885771D01*
X153292856Y-96885771D02*
X153054761Y-96885771D01*
X153054761Y-96885771D02*
X152959523Y-96933390D01*
X152959523Y-96933390D02*
X152911904Y-96981009D01*
X152911904Y-96981009D02*
X152864285Y-97076247D01*
X152864285Y-97076247D02*
X152864285Y-97314342D01*
X152864285Y-97314342D02*
X152911904Y-97409580D01*
X152911904Y-97409580D02*
X152959523Y-97457200D01*
X152959523Y-97457200D02*
X153054761Y-97504819D01*
X153054761Y-97504819D02*
X153292856Y-97504819D01*
X153292856Y-97504819D02*
X153388094Y-97457200D01*
X153388094Y-97457200D02*
X153435713Y-97409580D01*
X135366666Y-96854819D02*
X135699999Y-96378628D01*
X135938094Y-96854819D02*
X135938094Y-95854819D01*
X135938094Y-95854819D02*
X135557142Y-95854819D01*
X135557142Y-95854819D02*
X135461904Y-95902438D01*
X135461904Y-95902438D02*
X135414285Y-95950057D01*
X135414285Y-95950057D02*
X135366666Y-96045295D01*
X135366666Y-96045295D02*
X135366666Y-96188152D01*
X135366666Y-96188152D02*
X135414285Y-96283390D01*
X135414285Y-96283390D02*
X135461904Y-96331009D01*
X135461904Y-96331009D02*
X135557142Y-96378628D01*
X135557142Y-96378628D02*
X135938094Y-96378628D01*
X134414285Y-96854819D02*
X134985713Y-96854819D01*
X134699999Y-96854819D02*
X134699999Y-95854819D01*
X134699999Y-95854819D02*
X134795237Y-95997676D01*
X134795237Y-95997676D02*
X134890475Y-96092914D01*
X134890475Y-96092914D02*
X134985713Y-96140533D01*
X164988094Y-87304819D02*
X164988094Y-86304819D01*
X164988094Y-86304819D02*
X164749999Y-86304819D01*
X164749999Y-86304819D02*
X164607142Y-86352438D01*
X164607142Y-86352438D02*
X164511904Y-86447676D01*
X164511904Y-86447676D02*
X164464285Y-86542914D01*
X164464285Y-86542914D02*
X164416666Y-86733390D01*
X164416666Y-86733390D02*
X164416666Y-86876247D01*
X164416666Y-86876247D02*
X164464285Y-87066723D01*
X164464285Y-87066723D02*
X164511904Y-87161961D01*
X164511904Y-87161961D02*
X164607142Y-87257200D01*
X164607142Y-87257200D02*
X164749999Y-87304819D01*
X164749999Y-87304819D02*
X164988094Y-87304819D01*
X164035713Y-86400057D02*
X163988094Y-86352438D01*
X163988094Y-86352438D02*
X163892856Y-86304819D01*
X163892856Y-86304819D02*
X163654761Y-86304819D01*
X163654761Y-86304819D02*
X163559523Y-86352438D01*
X163559523Y-86352438D02*
X163511904Y-86400057D01*
X163511904Y-86400057D02*
X163464285Y-86495295D01*
X163464285Y-86495295D02*
X163464285Y-86590533D01*
X163464285Y-86590533D02*
X163511904Y-86733390D01*
X163511904Y-86733390D02*
X164083332Y-87304819D01*
X164083332Y-87304819D02*
X163464285Y-87304819D01*
X122699404Y-84204819D02*
X122699404Y-85014342D01*
X122699404Y-85014342D02*
X122651785Y-85109580D01*
X122651785Y-85109580D02*
X122604166Y-85157200D01*
X122604166Y-85157200D02*
X122508928Y-85204819D01*
X122508928Y-85204819D02*
X122318452Y-85204819D01*
X122318452Y-85204819D02*
X122223214Y-85157200D01*
X122223214Y-85157200D02*
X122175595Y-85109580D01*
X122175595Y-85109580D02*
X122127976Y-85014342D01*
X122127976Y-85014342D02*
X122127976Y-84204819D01*
X121747023Y-84204819D02*
X121080357Y-84204819D01*
X121080357Y-84204819D02*
X121508928Y-85204819D01*
X152966666Y-90254819D02*
X153299999Y-89778628D01*
X153538094Y-90254819D02*
X153538094Y-89254819D01*
X153538094Y-89254819D02*
X153157142Y-89254819D01*
X153157142Y-89254819D02*
X153061904Y-89302438D01*
X153061904Y-89302438D02*
X153014285Y-89350057D01*
X153014285Y-89350057D02*
X152966666Y-89445295D01*
X152966666Y-89445295D02*
X152966666Y-89588152D01*
X152966666Y-89588152D02*
X153014285Y-89683390D01*
X153014285Y-89683390D02*
X153061904Y-89731009D01*
X153061904Y-89731009D02*
X153157142Y-89778628D01*
X153157142Y-89778628D02*
X153538094Y-89778628D01*
X152633332Y-89254819D02*
X152014285Y-89254819D01*
X152014285Y-89254819D02*
X152347618Y-89635771D01*
X152347618Y-89635771D02*
X152204761Y-89635771D01*
X152204761Y-89635771D02*
X152109523Y-89683390D01*
X152109523Y-89683390D02*
X152061904Y-89731009D01*
X152061904Y-89731009D02*
X152014285Y-89826247D01*
X152014285Y-89826247D02*
X152014285Y-90064342D01*
X152014285Y-90064342D02*
X152061904Y-90159580D01*
X152061904Y-90159580D02*
X152109523Y-90207200D01*
X152109523Y-90207200D02*
X152204761Y-90254819D01*
X152204761Y-90254819D02*
X152490475Y-90254819D01*
X152490475Y-90254819D02*
X152585713Y-90207200D01*
X152585713Y-90207200D02*
X152633332Y-90159580D01*
X127342857Y-99863970D02*
X127390476Y-99911590D01*
X127390476Y-99911590D02*
X127533333Y-99959209D01*
X127533333Y-99959209D02*
X127628571Y-99959209D01*
X127628571Y-99959209D02*
X127771428Y-99911590D01*
X127771428Y-99911590D02*
X127866666Y-99816351D01*
X127866666Y-99816351D02*
X127914285Y-99721113D01*
X127914285Y-99721113D02*
X127961904Y-99530637D01*
X127961904Y-99530637D02*
X127961904Y-99387780D01*
X127961904Y-99387780D02*
X127914285Y-99197304D01*
X127914285Y-99197304D02*
X127866666Y-99102066D01*
X127866666Y-99102066D02*
X127771428Y-99006828D01*
X127771428Y-99006828D02*
X127628571Y-98959209D01*
X127628571Y-98959209D02*
X127533333Y-98959209D01*
X127533333Y-98959209D02*
X127390476Y-99006828D01*
X127390476Y-99006828D02*
X127342857Y-99054447D01*
X126390476Y-99959209D02*
X126961904Y-99959209D01*
X126676190Y-99959209D02*
X126676190Y-98959209D01*
X126676190Y-98959209D02*
X126771428Y-99102066D01*
X126771428Y-99102066D02*
X126866666Y-99197304D01*
X126866666Y-99197304D02*
X126961904Y-99244923D01*
X126009523Y-99054447D02*
X125961904Y-99006828D01*
X125961904Y-99006828D02*
X125866666Y-98959209D01*
X125866666Y-98959209D02*
X125628571Y-98959209D01*
X125628571Y-98959209D02*
X125533333Y-99006828D01*
X125533333Y-99006828D02*
X125485714Y-99054447D01*
X125485714Y-99054447D02*
X125438095Y-99149685D01*
X125438095Y-99149685D02*
X125438095Y-99244923D01*
X125438095Y-99244923D02*
X125485714Y-99387780D01*
X125485714Y-99387780D02*
X126057142Y-99959209D01*
X126057142Y-99959209D02*
X125438095Y-99959209D01*
X153167857Y-101809580D02*
X153215476Y-101857200D01*
X153215476Y-101857200D02*
X153358333Y-101904819D01*
X153358333Y-101904819D02*
X153453571Y-101904819D01*
X153453571Y-101904819D02*
X153596428Y-101857200D01*
X153596428Y-101857200D02*
X153691666Y-101761961D01*
X153691666Y-101761961D02*
X153739285Y-101666723D01*
X153739285Y-101666723D02*
X153786904Y-101476247D01*
X153786904Y-101476247D02*
X153786904Y-101333390D01*
X153786904Y-101333390D02*
X153739285Y-101142914D01*
X153739285Y-101142914D02*
X153691666Y-101047676D01*
X153691666Y-101047676D02*
X153596428Y-100952438D01*
X153596428Y-100952438D02*
X153453571Y-100904819D01*
X153453571Y-100904819D02*
X153358333Y-100904819D01*
X153358333Y-100904819D02*
X153215476Y-100952438D01*
X153215476Y-100952438D02*
X153167857Y-101000057D01*
X152215476Y-101904819D02*
X152786904Y-101904819D01*
X152501190Y-101904819D02*
X152501190Y-100904819D01*
X152501190Y-100904819D02*
X152596428Y-101047676D01*
X152596428Y-101047676D02*
X152691666Y-101142914D01*
X152691666Y-101142914D02*
X152786904Y-101190533D01*
X151644047Y-101333390D02*
X151739285Y-101285771D01*
X151739285Y-101285771D02*
X151786904Y-101238152D01*
X151786904Y-101238152D02*
X151834523Y-101142914D01*
X151834523Y-101142914D02*
X151834523Y-101095295D01*
X151834523Y-101095295D02*
X151786904Y-101000057D01*
X151786904Y-101000057D02*
X151739285Y-100952438D01*
X151739285Y-100952438D02*
X151644047Y-100904819D01*
X151644047Y-100904819D02*
X151453571Y-100904819D01*
X151453571Y-100904819D02*
X151358333Y-100952438D01*
X151358333Y-100952438D02*
X151310714Y-101000057D01*
X151310714Y-101000057D02*
X151263095Y-101095295D01*
X151263095Y-101095295D02*
X151263095Y-101142914D01*
X151263095Y-101142914D02*
X151310714Y-101238152D01*
X151310714Y-101238152D02*
X151358333Y-101285771D01*
X151358333Y-101285771D02*
X151453571Y-101333390D01*
X151453571Y-101333390D02*
X151644047Y-101333390D01*
X151644047Y-101333390D02*
X151739285Y-101381009D01*
X151739285Y-101381009D02*
X151786904Y-101428628D01*
X151786904Y-101428628D02*
X151834523Y-101523866D01*
X151834523Y-101523866D02*
X151834523Y-101714342D01*
X151834523Y-101714342D02*
X151786904Y-101809580D01*
X151786904Y-101809580D02*
X151739285Y-101857200D01*
X151739285Y-101857200D02*
X151644047Y-101904819D01*
X151644047Y-101904819D02*
X151453571Y-101904819D01*
X151453571Y-101904819D02*
X151358333Y-101857200D01*
X151358333Y-101857200D02*
X151310714Y-101809580D01*
X151310714Y-101809580D02*
X151263095Y-101714342D01*
X151263095Y-101714342D02*
X151263095Y-101523866D01*
X151263095Y-101523866D02*
X151310714Y-101428628D01*
X151310714Y-101428628D02*
X151358333Y-101381009D01*
X151358333Y-101381009D02*
X151453571Y-101333390D01*
D11*
X139533333Y-83057419D02*
X139533333Y-83771704D01*
X139533333Y-83771704D02*
X139580952Y-83914561D01*
X139580952Y-83914561D02*
X139676190Y-84009800D01*
X139676190Y-84009800D02*
X139819047Y-84057419D01*
X139819047Y-84057419D02*
X139914285Y-84057419D01*
X138533333Y-84057419D02*
X139104761Y-84057419D01*
X138819047Y-84057419D02*
X138819047Y-83057419D01*
X138819047Y-83057419D02*
X138914285Y-83200276D01*
X138914285Y-83200276D02*
X139009523Y-83295514D01*
X139009523Y-83295514D02*
X139104761Y-83343133D01*
D10*
X120788094Y-104254819D02*
X120788094Y-103254819D01*
X120788094Y-103254819D02*
X120549999Y-103254819D01*
X120549999Y-103254819D02*
X120407142Y-103302438D01*
X120407142Y-103302438D02*
X120311904Y-103397676D01*
X120311904Y-103397676D02*
X120264285Y-103492914D01*
X120264285Y-103492914D02*
X120216666Y-103683390D01*
X120216666Y-103683390D02*
X120216666Y-103826247D01*
X120216666Y-103826247D02*
X120264285Y-104016723D01*
X120264285Y-104016723D02*
X120311904Y-104111961D01*
X120311904Y-104111961D02*
X120407142Y-104207200D01*
X120407142Y-104207200D02*
X120549999Y-104254819D01*
X120549999Y-104254819D02*
X120788094Y-104254819D01*
X119883332Y-103254819D02*
X119216666Y-103254819D01*
X119216666Y-103254819D02*
X119645237Y-104254819D01*
X176166666Y-52359580D02*
X176214285Y-52407200D01*
X176214285Y-52407200D02*
X176357142Y-52454819D01*
X176357142Y-52454819D02*
X176452380Y-52454819D01*
X176452380Y-52454819D02*
X176595237Y-52407200D01*
X176595237Y-52407200D02*
X176690475Y-52311961D01*
X176690475Y-52311961D02*
X176738094Y-52216723D01*
X176738094Y-52216723D02*
X176785713Y-52026247D01*
X176785713Y-52026247D02*
X176785713Y-51883390D01*
X176785713Y-51883390D02*
X176738094Y-51692914D01*
X176738094Y-51692914D02*
X176690475Y-51597676D01*
X176690475Y-51597676D02*
X176595237Y-51502438D01*
X176595237Y-51502438D02*
X176452380Y-51454819D01*
X176452380Y-51454819D02*
X176357142Y-51454819D01*
X176357142Y-51454819D02*
X176214285Y-51502438D01*
X176214285Y-51502438D02*
X176166666Y-51550057D01*
X175309523Y-51454819D02*
X175499999Y-51454819D01*
X175499999Y-51454819D02*
X175595237Y-51502438D01*
X175595237Y-51502438D02*
X175642856Y-51550057D01*
X175642856Y-51550057D02*
X175738094Y-51692914D01*
X175738094Y-51692914D02*
X175785713Y-51883390D01*
X175785713Y-51883390D02*
X175785713Y-52264342D01*
X175785713Y-52264342D02*
X175738094Y-52359580D01*
X175738094Y-52359580D02*
X175690475Y-52407200D01*
X175690475Y-52407200D02*
X175595237Y-52454819D01*
X175595237Y-52454819D02*
X175404761Y-52454819D01*
X175404761Y-52454819D02*
X175309523Y-52407200D01*
X175309523Y-52407200D02*
X175261904Y-52359580D01*
X175261904Y-52359580D02*
X175214285Y-52264342D01*
X175214285Y-52264342D02*
X175214285Y-52026247D01*
X175214285Y-52026247D02*
X175261904Y-51931009D01*
X175261904Y-51931009D02*
X175309523Y-51883390D01*
X175309523Y-51883390D02*
X175404761Y-51835771D01*
X175404761Y-51835771D02*
X175595237Y-51835771D01*
X175595237Y-51835771D02*
X175690475Y-51883390D01*
X175690475Y-51883390D02*
X175738094Y-51931009D01*
X175738094Y-51931009D02*
X175785713Y-52026247D01*
X164892857Y-71609580D02*
X164940476Y-71657200D01*
X164940476Y-71657200D02*
X165083333Y-71704819D01*
X165083333Y-71704819D02*
X165178571Y-71704819D01*
X165178571Y-71704819D02*
X165321428Y-71657200D01*
X165321428Y-71657200D02*
X165416666Y-71561961D01*
X165416666Y-71561961D02*
X165464285Y-71466723D01*
X165464285Y-71466723D02*
X165511904Y-71276247D01*
X165511904Y-71276247D02*
X165511904Y-71133390D01*
X165511904Y-71133390D02*
X165464285Y-70942914D01*
X165464285Y-70942914D02*
X165416666Y-70847676D01*
X165416666Y-70847676D02*
X165321428Y-70752438D01*
X165321428Y-70752438D02*
X165178571Y-70704819D01*
X165178571Y-70704819D02*
X165083333Y-70704819D01*
X165083333Y-70704819D02*
X164940476Y-70752438D01*
X164940476Y-70752438D02*
X164892857Y-70800057D01*
X163940476Y-71704819D02*
X164511904Y-71704819D01*
X164226190Y-71704819D02*
X164226190Y-70704819D01*
X164226190Y-70704819D02*
X164321428Y-70847676D01*
X164321428Y-70847676D02*
X164416666Y-70942914D01*
X164416666Y-70942914D02*
X164511904Y-70990533D01*
X163321428Y-70704819D02*
X163226190Y-70704819D01*
X163226190Y-70704819D02*
X163130952Y-70752438D01*
X163130952Y-70752438D02*
X163083333Y-70800057D01*
X163083333Y-70800057D02*
X163035714Y-70895295D01*
X163035714Y-70895295D02*
X162988095Y-71085771D01*
X162988095Y-71085771D02*
X162988095Y-71323866D01*
X162988095Y-71323866D02*
X163035714Y-71514342D01*
X163035714Y-71514342D02*
X163083333Y-71609580D01*
X163083333Y-71609580D02*
X163130952Y-71657200D01*
X163130952Y-71657200D02*
X163226190Y-71704819D01*
X163226190Y-71704819D02*
X163321428Y-71704819D01*
X163321428Y-71704819D02*
X163416666Y-71657200D01*
X163416666Y-71657200D02*
X163464285Y-71609580D01*
X163464285Y-71609580D02*
X163511904Y-71514342D01*
X163511904Y-71514342D02*
X163559523Y-71323866D01*
X163559523Y-71323866D02*
X163559523Y-71085771D01*
X163559523Y-71085771D02*
X163511904Y-70895295D01*
X163511904Y-70895295D02*
X163464285Y-70800057D01*
X163464285Y-70800057D02*
X163416666Y-70752438D01*
X163416666Y-70752438D02*
X163321428Y-70704819D01*
X167642857Y-61954819D02*
X167976190Y-61478628D01*
X168214285Y-61954819D02*
X168214285Y-60954819D01*
X168214285Y-60954819D02*
X167833333Y-60954819D01*
X167833333Y-60954819D02*
X167738095Y-61002438D01*
X167738095Y-61002438D02*
X167690476Y-61050057D01*
X167690476Y-61050057D02*
X167642857Y-61145295D01*
X167642857Y-61145295D02*
X167642857Y-61288152D01*
X167642857Y-61288152D02*
X167690476Y-61383390D01*
X167690476Y-61383390D02*
X167738095Y-61431009D01*
X167738095Y-61431009D02*
X167833333Y-61478628D01*
X167833333Y-61478628D02*
X168214285Y-61478628D01*
X166690476Y-61954819D02*
X167261904Y-61954819D01*
X166976190Y-61954819D02*
X166976190Y-60954819D01*
X166976190Y-60954819D02*
X167071428Y-61097676D01*
X167071428Y-61097676D02*
X167166666Y-61192914D01*
X167166666Y-61192914D02*
X167261904Y-61240533D01*
X165785714Y-60954819D02*
X166261904Y-60954819D01*
X166261904Y-60954819D02*
X166309523Y-61431009D01*
X166309523Y-61431009D02*
X166261904Y-61383390D01*
X166261904Y-61383390D02*
X166166666Y-61335771D01*
X166166666Y-61335771D02*
X165928571Y-61335771D01*
X165928571Y-61335771D02*
X165833333Y-61383390D01*
X165833333Y-61383390D02*
X165785714Y-61431009D01*
X165785714Y-61431009D02*
X165738095Y-61526247D01*
X165738095Y-61526247D02*
X165738095Y-61764342D01*
X165738095Y-61764342D02*
X165785714Y-61859580D01*
X165785714Y-61859580D02*
X165833333Y-61907200D01*
X165833333Y-61907200D02*
X165928571Y-61954819D01*
X165928571Y-61954819D02*
X166166666Y-61954819D01*
X166166666Y-61954819D02*
X166261904Y-61907200D01*
X166261904Y-61907200D02*
X166309523Y-61859580D01*
X169142857Y-51954819D02*
X169476190Y-51478628D01*
X169714285Y-51954819D02*
X169714285Y-50954819D01*
X169714285Y-50954819D02*
X169333333Y-50954819D01*
X169333333Y-50954819D02*
X169238095Y-51002438D01*
X169238095Y-51002438D02*
X169190476Y-51050057D01*
X169190476Y-51050057D02*
X169142857Y-51145295D01*
X169142857Y-51145295D02*
X169142857Y-51288152D01*
X169142857Y-51288152D02*
X169190476Y-51383390D01*
X169190476Y-51383390D02*
X169238095Y-51431009D01*
X169238095Y-51431009D02*
X169333333Y-51478628D01*
X169333333Y-51478628D02*
X169714285Y-51478628D01*
X168190476Y-51954819D02*
X168761904Y-51954819D01*
X168476190Y-51954819D02*
X168476190Y-50954819D01*
X168476190Y-50954819D02*
X168571428Y-51097676D01*
X168571428Y-51097676D02*
X168666666Y-51192914D01*
X168666666Y-51192914D02*
X168761904Y-51240533D01*
X167333333Y-51288152D02*
X167333333Y-51954819D01*
X167571428Y-50907200D02*
X167809523Y-51621485D01*
X167809523Y-51621485D02*
X167190476Y-51621485D01*
X164892857Y-69609580D02*
X164940476Y-69657200D01*
X164940476Y-69657200D02*
X165083333Y-69704819D01*
X165083333Y-69704819D02*
X165178571Y-69704819D01*
X165178571Y-69704819D02*
X165321428Y-69657200D01*
X165321428Y-69657200D02*
X165416666Y-69561961D01*
X165416666Y-69561961D02*
X165464285Y-69466723D01*
X165464285Y-69466723D02*
X165511904Y-69276247D01*
X165511904Y-69276247D02*
X165511904Y-69133390D01*
X165511904Y-69133390D02*
X165464285Y-68942914D01*
X165464285Y-68942914D02*
X165416666Y-68847676D01*
X165416666Y-68847676D02*
X165321428Y-68752438D01*
X165321428Y-68752438D02*
X165178571Y-68704819D01*
X165178571Y-68704819D02*
X165083333Y-68704819D01*
X165083333Y-68704819D02*
X164940476Y-68752438D01*
X164940476Y-68752438D02*
X164892857Y-68800057D01*
X164511904Y-68800057D02*
X164464285Y-68752438D01*
X164464285Y-68752438D02*
X164369047Y-68704819D01*
X164369047Y-68704819D02*
X164130952Y-68704819D01*
X164130952Y-68704819D02*
X164035714Y-68752438D01*
X164035714Y-68752438D02*
X163988095Y-68800057D01*
X163988095Y-68800057D02*
X163940476Y-68895295D01*
X163940476Y-68895295D02*
X163940476Y-68990533D01*
X163940476Y-68990533D02*
X163988095Y-69133390D01*
X163988095Y-69133390D02*
X164559523Y-69704819D01*
X164559523Y-69704819D02*
X163940476Y-69704819D01*
X163559523Y-68800057D02*
X163511904Y-68752438D01*
X163511904Y-68752438D02*
X163416666Y-68704819D01*
X163416666Y-68704819D02*
X163178571Y-68704819D01*
X163178571Y-68704819D02*
X163083333Y-68752438D01*
X163083333Y-68752438D02*
X163035714Y-68800057D01*
X163035714Y-68800057D02*
X162988095Y-68895295D01*
X162988095Y-68895295D02*
X162988095Y-68990533D01*
X162988095Y-68990533D02*
X163035714Y-69133390D01*
X163035714Y-69133390D02*
X163607142Y-69704819D01*
X163607142Y-69704819D02*
X162988095Y-69704819D01*
D11*
X183933332Y-49909800D02*
X183790475Y-49957419D01*
X183790475Y-49957419D02*
X183552380Y-49957419D01*
X183552380Y-49957419D02*
X183457142Y-49909800D01*
X183457142Y-49909800D02*
X183409523Y-49862180D01*
X183409523Y-49862180D02*
X183361904Y-49766942D01*
X183361904Y-49766942D02*
X183361904Y-49671704D01*
X183361904Y-49671704D02*
X183409523Y-49576466D01*
X183409523Y-49576466D02*
X183457142Y-49528847D01*
X183457142Y-49528847D02*
X183552380Y-49481228D01*
X183552380Y-49481228D02*
X183742856Y-49433609D01*
X183742856Y-49433609D02*
X183838094Y-49385990D01*
X183838094Y-49385990D02*
X183885713Y-49338371D01*
X183885713Y-49338371D02*
X183933332Y-49243133D01*
X183933332Y-49243133D02*
X183933332Y-49147895D01*
X183933332Y-49147895D02*
X183885713Y-49052657D01*
X183885713Y-49052657D02*
X183838094Y-49005038D01*
X183838094Y-49005038D02*
X183742856Y-48957419D01*
X183742856Y-48957419D02*
X183504761Y-48957419D01*
X183504761Y-48957419D02*
X183361904Y-49005038D01*
X183028570Y-48957419D02*
X182790475Y-49957419D01*
X182790475Y-49957419D02*
X182599999Y-49243133D01*
X182599999Y-49243133D02*
X182409523Y-49957419D01*
X182409523Y-49957419D02*
X182171428Y-48957419D01*
X181838094Y-49052657D02*
X181790475Y-49005038D01*
X181790475Y-49005038D02*
X181695237Y-48957419D01*
X181695237Y-48957419D02*
X181457142Y-48957419D01*
X181457142Y-48957419D02*
X181361904Y-49005038D01*
X181361904Y-49005038D02*
X181314285Y-49052657D01*
X181314285Y-49052657D02*
X181266666Y-49147895D01*
X181266666Y-49147895D02*
X181266666Y-49243133D01*
X181266666Y-49243133D02*
X181314285Y-49385990D01*
X181314285Y-49385990D02*
X181885713Y-49957419D01*
X181885713Y-49957419D02*
X181266666Y-49957419D01*
D10*
X165666666Y-51954819D02*
X165999999Y-51478628D01*
X166238094Y-51954819D02*
X166238094Y-50954819D01*
X166238094Y-50954819D02*
X165857142Y-50954819D01*
X165857142Y-50954819D02*
X165761904Y-51002438D01*
X165761904Y-51002438D02*
X165714285Y-51050057D01*
X165714285Y-51050057D02*
X165666666Y-51145295D01*
X165666666Y-51145295D02*
X165666666Y-51288152D01*
X165666666Y-51288152D02*
X165714285Y-51383390D01*
X165714285Y-51383390D02*
X165761904Y-51431009D01*
X165761904Y-51431009D02*
X165857142Y-51478628D01*
X165857142Y-51478628D02*
X166238094Y-51478628D01*
X165190475Y-51954819D02*
X164999999Y-51954819D01*
X164999999Y-51954819D02*
X164904761Y-51907200D01*
X164904761Y-51907200D02*
X164857142Y-51859580D01*
X164857142Y-51859580D02*
X164761904Y-51716723D01*
X164761904Y-51716723D02*
X164714285Y-51526247D01*
X164714285Y-51526247D02*
X164714285Y-51145295D01*
X164714285Y-51145295D02*
X164761904Y-51050057D01*
X164761904Y-51050057D02*
X164809523Y-51002438D01*
X164809523Y-51002438D02*
X164904761Y-50954819D01*
X164904761Y-50954819D02*
X165095237Y-50954819D01*
X165095237Y-50954819D02*
X165190475Y-51002438D01*
X165190475Y-51002438D02*
X165238094Y-51050057D01*
X165238094Y-51050057D02*
X165285713Y-51145295D01*
X165285713Y-51145295D02*
X165285713Y-51383390D01*
X165285713Y-51383390D02*
X165238094Y-51478628D01*
X165238094Y-51478628D02*
X165190475Y-51526247D01*
X165190475Y-51526247D02*
X165095237Y-51573866D01*
X165095237Y-51573866D02*
X164904761Y-51573866D01*
X164904761Y-51573866D02*
X164809523Y-51526247D01*
X164809523Y-51526247D02*
X164761904Y-51478628D01*
X164761904Y-51478628D02*
X164714285Y-51383390D01*
D11*
X181416667Y-55340200D02*
X181559524Y-55292580D01*
X181559524Y-55292580D02*
X181797619Y-55292580D01*
X181797619Y-55292580D02*
X181892857Y-55340200D01*
X181892857Y-55340200D02*
X181940476Y-55387819D01*
X181940476Y-55387819D02*
X181988095Y-55483057D01*
X181988095Y-55483057D02*
X181988095Y-55578295D01*
X181988095Y-55578295D02*
X181940476Y-55673533D01*
X181940476Y-55673533D02*
X181892857Y-55721152D01*
X181892857Y-55721152D02*
X181797619Y-55768771D01*
X181797619Y-55768771D02*
X181607143Y-55816390D01*
X181607143Y-55816390D02*
X181511905Y-55864009D01*
X181511905Y-55864009D02*
X181464286Y-55911628D01*
X181464286Y-55911628D02*
X181416667Y-56006866D01*
X181416667Y-56006866D02*
X181416667Y-56102104D01*
X181416667Y-56102104D02*
X181464286Y-56197342D01*
X181464286Y-56197342D02*
X181511905Y-56244961D01*
X181511905Y-56244961D02*
X181607143Y-56292580D01*
X181607143Y-56292580D02*
X181845238Y-56292580D01*
X181845238Y-56292580D02*
X181988095Y-56244961D01*
X182321429Y-56292580D02*
X182559524Y-55292580D01*
X182559524Y-55292580D02*
X182750000Y-56006866D01*
X182750000Y-56006866D02*
X182940476Y-55292580D01*
X182940476Y-55292580D02*
X183178572Y-56292580D01*
X183464286Y-56292580D02*
X184083333Y-56292580D01*
X184083333Y-56292580D02*
X183750000Y-55911628D01*
X183750000Y-55911628D02*
X183892857Y-55911628D01*
X183892857Y-55911628D02*
X183988095Y-55864009D01*
X183988095Y-55864009D02*
X184035714Y-55816390D01*
X184035714Y-55816390D02*
X184083333Y-55721152D01*
X184083333Y-55721152D02*
X184083333Y-55483057D01*
X184083333Y-55483057D02*
X184035714Y-55387819D01*
X184035714Y-55387819D02*
X183988095Y-55340200D01*
X183988095Y-55340200D02*
X183892857Y-55292580D01*
X183892857Y-55292580D02*
X183607143Y-55292580D01*
X183607143Y-55292580D02*
X183511905Y-55340200D01*
X183511905Y-55340200D02*
X183464286Y-55387819D01*
X159976190Y-60743728D02*
X159976190Y-61219919D01*
X160309523Y-60219919D02*
X159976190Y-60743728D01*
X159976190Y-60743728D02*
X159642857Y-60219919D01*
X158785714Y-61219919D02*
X159357142Y-61219919D01*
X159071428Y-61219919D02*
X159071428Y-60219919D01*
X159071428Y-60219919D02*
X159166666Y-60362776D01*
X159166666Y-60362776D02*
X159261904Y-60458014D01*
X159261904Y-60458014D02*
X159357142Y-60505633D01*
D10*
X162166666Y-68359580D02*
X162214285Y-68407200D01*
X162214285Y-68407200D02*
X162357142Y-68454819D01*
X162357142Y-68454819D02*
X162452380Y-68454819D01*
X162452380Y-68454819D02*
X162595237Y-68407200D01*
X162595237Y-68407200D02*
X162690475Y-68311961D01*
X162690475Y-68311961D02*
X162738094Y-68216723D01*
X162738094Y-68216723D02*
X162785713Y-68026247D01*
X162785713Y-68026247D02*
X162785713Y-67883390D01*
X162785713Y-67883390D02*
X162738094Y-67692914D01*
X162738094Y-67692914D02*
X162690475Y-67597676D01*
X162690475Y-67597676D02*
X162595237Y-67502438D01*
X162595237Y-67502438D02*
X162452380Y-67454819D01*
X162452380Y-67454819D02*
X162357142Y-67454819D01*
X162357142Y-67454819D02*
X162214285Y-67502438D01*
X162214285Y-67502438D02*
X162166666Y-67550057D01*
X161595237Y-67883390D02*
X161690475Y-67835771D01*
X161690475Y-67835771D02*
X161738094Y-67788152D01*
X161738094Y-67788152D02*
X161785713Y-67692914D01*
X161785713Y-67692914D02*
X161785713Y-67645295D01*
X161785713Y-67645295D02*
X161738094Y-67550057D01*
X161738094Y-67550057D02*
X161690475Y-67502438D01*
X161690475Y-67502438D02*
X161595237Y-67454819D01*
X161595237Y-67454819D02*
X161404761Y-67454819D01*
X161404761Y-67454819D02*
X161309523Y-67502438D01*
X161309523Y-67502438D02*
X161261904Y-67550057D01*
X161261904Y-67550057D02*
X161214285Y-67645295D01*
X161214285Y-67645295D02*
X161214285Y-67692914D01*
X161214285Y-67692914D02*
X161261904Y-67788152D01*
X161261904Y-67788152D02*
X161309523Y-67835771D01*
X161309523Y-67835771D02*
X161404761Y-67883390D01*
X161404761Y-67883390D02*
X161595237Y-67883390D01*
X161595237Y-67883390D02*
X161690475Y-67931009D01*
X161690475Y-67931009D02*
X161738094Y-67978628D01*
X161738094Y-67978628D02*
X161785713Y-68073866D01*
X161785713Y-68073866D02*
X161785713Y-68264342D01*
X161785713Y-68264342D02*
X161738094Y-68359580D01*
X161738094Y-68359580D02*
X161690475Y-68407200D01*
X161690475Y-68407200D02*
X161595237Y-68454819D01*
X161595237Y-68454819D02*
X161404761Y-68454819D01*
X161404761Y-68454819D02*
X161309523Y-68407200D01*
X161309523Y-68407200D02*
X161261904Y-68359580D01*
X161261904Y-68359580D02*
X161214285Y-68264342D01*
X161214285Y-68264342D02*
X161214285Y-68073866D01*
X161214285Y-68073866D02*
X161261904Y-67978628D01*
X161261904Y-67978628D02*
X161309523Y-67931009D01*
X161309523Y-67931009D02*
X161404761Y-67883390D01*
X186304819Y-59686905D02*
X185304819Y-59686905D01*
X185304819Y-59686905D02*
X185304819Y-59925000D01*
X185304819Y-59925000D02*
X185352438Y-60067857D01*
X185352438Y-60067857D02*
X185447676Y-60163095D01*
X185447676Y-60163095D02*
X185542914Y-60210714D01*
X185542914Y-60210714D02*
X185733390Y-60258333D01*
X185733390Y-60258333D02*
X185876247Y-60258333D01*
X185876247Y-60258333D02*
X186066723Y-60210714D01*
X186066723Y-60210714D02*
X186161961Y-60163095D01*
X186161961Y-60163095D02*
X186257200Y-60067857D01*
X186257200Y-60067857D02*
X186304819Y-59925000D01*
X186304819Y-59925000D02*
X186304819Y-59686905D01*
X185638152Y-61115476D02*
X186304819Y-61115476D01*
X185257200Y-60877381D02*
X185971485Y-60639286D01*
X185971485Y-60639286D02*
X185971485Y-61258333D01*
X179854819Y-60607142D02*
X179378628Y-60273809D01*
X179854819Y-60035714D02*
X178854819Y-60035714D01*
X178854819Y-60035714D02*
X178854819Y-60416666D01*
X178854819Y-60416666D02*
X178902438Y-60511904D01*
X178902438Y-60511904D02*
X178950057Y-60559523D01*
X178950057Y-60559523D02*
X179045295Y-60607142D01*
X179045295Y-60607142D02*
X179188152Y-60607142D01*
X179188152Y-60607142D02*
X179283390Y-60559523D01*
X179283390Y-60559523D02*
X179331009Y-60511904D01*
X179331009Y-60511904D02*
X179378628Y-60416666D01*
X179378628Y-60416666D02*
X179378628Y-60035714D01*
X179854819Y-61559523D02*
X179854819Y-60988095D01*
X179854819Y-61273809D02*
X178854819Y-61273809D01*
X178854819Y-61273809D02*
X178997676Y-61178571D01*
X178997676Y-61178571D02*
X179092914Y-61083333D01*
X179092914Y-61083333D02*
X179140533Y-60988095D01*
X178854819Y-61892857D02*
X178854819Y-62511904D01*
X178854819Y-62511904D02*
X179235771Y-62178571D01*
X179235771Y-62178571D02*
X179235771Y-62321428D01*
X179235771Y-62321428D02*
X179283390Y-62416666D01*
X179283390Y-62416666D02*
X179331009Y-62464285D01*
X179331009Y-62464285D02*
X179426247Y-62511904D01*
X179426247Y-62511904D02*
X179664342Y-62511904D01*
X179664342Y-62511904D02*
X179759580Y-62464285D01*
X179759580Y-62464285D02*
X179807200Y-62416666D01*
X179807200Y-62416666D02*
X179854819Y-62321428D01*
X179854819Y-62321428D02*
X179854819Y-62035714D01*
X179854819Y-62035714D02*
X179807200Y-61940476D01*
X179807200Y-61940476D02*
X179759580Y-61892857D01*
X163859580Y-60833333D02*
X163907200Y-60785714D01*
X163907200Y-60785714D02*
X163954819Y-60642857D01*
X163954819Y-60642857D02*
X163954819Y-60547619D01*
X163954819Y-60547619D02*
X163907200Y-60404762D01*
X163907200Y-60404762D02*
X163811961Y-60309524D01*
X163811961Y-60309524D02*
X163716723Y-60261905D01*
X163716723Y-60261905D02*
X163526247Y-60214286D01*
X163526247Y-60214286D02*
X163383390Y-60214286D01*
X163383390Y-60214286D02*
X163192914Y-60261905D01*
X163192914Y-60261905D02*
X163097676Y-60309524D01*
X163097676Y-60309524D02*
X163002438Y-60404762D01*
X163002438Y-60404762D02*
X162954819Y-60547619D01*
X162954819Y-60547619D02*
X162954819Y-60642857D01*
X162954819Y-60642857D02*
X163002438Y-60785714D01*
X163002438Y-60785714D02*
X163050057Y-60833333D01*
X162954819Y-61166667D02*
X162954819Y-61833333D01*
X162954819Y-61833333D02*
X163954819Y-61404762D01*
X153392857Y-83704819D02*
X153726190Y-83228628D01*
X153964285Y-83704819D02*
X153964285Y-82704819D01*
X153964285Y-82704819D02*
X153583333Y-82704819D01*
X153583333Y-82704819D02*
X153488095Y-82752438D01*
X153488095Y-82752438D02*
X153440476Y-82800057D01*
X153440476Y-82800057D02*
X153392857Y-82895295D01*
X153392857Y-82895295D02*
X153392857Y-83038152D01*
X153392857Y-83038152D02*
X153440476Y-83133390D01*
X153440476Y-83133390D02*
X153488095Y-83181009D01*
X153488095Y-83181009D02*
X153583333Y-83228628D01*
X153583333Y-83228628D02*
X153964285Y-83228628D01*
X152440476Y-83704819D02*
X153011904Y-83704819D01*
X152726190Y-83704819D02*
X152726190Y-82704819D01*
X152726190Y-82704819D02*
X152821428Y-82847676D01*
X152821428Y-82847676D02*
X152916666Y-82942914D01*
X152916666Y-82942914D02*
X153011904Y-82990533D01*
X151488095Y-83704819D02*
X152059523Y-83704819D01*
X151773809Y-83704819D02*
X151773809Y-82704819D01*
X151773809Y-82704819D02*
X151869047Y-82847676D01*
X151869047Y-82847676D02*
X151964285Y-82942914D01*
X151964285Y-82942914D02*
X152059523Y-82990533D01*
X164892857Y-81359580D02*
X164940476Y-81407200D01*
X164940476Y-81407200D02*
X165083333Y-81454819D01*
X165083333Y-81454819D02*
X165178571Y-81454819D01*
X165178571Y-81454819D02*
X165321428Y-81407200D01*
X165321428Y-81407200D02*
X165416666Y-81311961D01*
X165416666Y-81311961D02*
X165464285Y-81216723D01*
X165464285Y-81216723D02*
X165511904Y-81026247D01*
X165511904Y-81026247D02*
X165511904Y-80883390D01*
X165511904Y-80883390D02*
X165464285Y-80692914D01*
X165464285Y-80692914D02*
X165416666Y-80597676D01*
X165416666Y-80597676D02*
X165321428Y-80502438D01*
X165321428Y-80502438D02*
X165178571Y-80454819D01*
X165178571Y-80454819D02*
X165083333Y-80454819D01*
X165083333Y-80454819D02*
X164940476Y-80502438D01*
X164940476Y-80502438D02*
X164892857Y-80550057D01*
X164511904Y-80550057D02*
X164464285Y-80502438D01*
X164464285Y-80502438D02*
X164369047Y-80454819D01*
X164369047Y-80454819D02*
X164130952Y-80454819D01*
X164130952Y-80454819D02*
X164035714Y-80502438D01*
X164035714Y-80502438D02*
X163988095Y-80550057D01*
X163988095Y-80550057D02*
X163940476Y-80645295D01*
X163940476Y-80645295D02*
X163940476Y-80740533D01*
X163940476Y-80740533D02*
X163988095Y-80883390D01*
X163988095Y-80883390D02*
X164559523Y-81454819D01*
X164559523Y-81454819D02*
X163940476Y-81454819D01*
X162988095Y-81454819D02*
X163559523Y-81454819D01*
X163273809Y-81454819D02*
X163273809Y-80454819D01*
X163273809Y-80454819D02*
X163369047Y-80597676D01*
X163369047Y-80597676D02*
X163464285Y-80692914D01*
X163464285Y-80692914D02*
X163559523Y-80740533D01*
X133134819Y-71357142D02*
X132658628Y-71023809D01*
X133134819Y-70785714D02*
X132134819Y-70785714D01*
X132134819Y-70785714D02*
X132134819Y-71166666D01*
X132134819Y-71166666D02*
X132182438Y-71261904D01*
X132182438Y-71261904D02*
X132230057Y-71309523D01*
X132230057Y-71309523D02*
X132325295Y-71357142D01*
X132325295Y-71357142D02*
X132468152Y-71357142D01*
X132468152Y-71357142D02*
X132563390Y-71309523D01*
X132563390Y-71309523D02*
X132611009Y-71261904D01*
X132611009Y-71261904D02*
X132658628Y-71166666D01*
X132658628Y-71166666D02*
X132658628Y-70785714D01*
X133134819Y-72309523D02*
X133134819Y-71738095D01*
X133134819Y-72023809D02*
X132134819Y-72023809D01*
X132134819Y-72023809D02*
X132277676Y-71928571D01*
X132277676Y-71928571D02*
X132372914Y-71833333D01*
X132372914Y-71833333D02*
X132420533Y-71738095D01*
X132134819Y-72928571D02*
X132134819Y-73023809D01*
X132134819Y-73023809D02*
X132182438Y-73119047D01*
X132182438Y-73119047D02*
X132230057Y-73166666D01*
X132230057Y-73166666D02*
X132325295Y-73214285D01*
X132325295Y-73214285D02*
X132515771Y-73261904D01*
X132515771Y-73261904D02*
X132753866Y-73261904D01*
X132753866Y-73261904D02*
X132944342Y-73214285D01*
X132944342Y-73214285D02*
X133039580Y-73166666D01*
X133039580Y-73166666D02*
X133087200Y-73119047D01*
X133087200Y-73119047D02*
X133134819Y-73023809D01*
X133134819Y-73023809D02*
X133134819Y-72928571D01*
X133134819Y-72928571D02*
X133087200Y-72833333D01*
X133087200Y-72833333D02*
X133039580Y-72785714D01*
X133039580Y-72785714D02*
X132944342Y-72738095D01*
X132944342Y-72738095D02*
X132753866Y-72690476D01*
X132753866Y-72690476D02*
X132515771Y-72690476D01*
X132515771Y-72690476D02*
X132325295Y-72738095D01*
X132325295Y-72738095D02*
X132230057Y-72785714D01*
X132230057Y-72785714D02*
X132182438Y-72833333D01*
X132182438Y-72833333D02*
X132134819Y-72928571D01*
X172688094Y-58204819D02*
X172688094Y-57204819D01*
X172688094Y-57204819D02*
X172449999Y-57204819D01*
X172449999Y-57204819D02*
X172307142Y-57252438D01*
X172307142Y-57252438D02*
X172211904Y-57347676D01*
X172211904Y-57347676D02*
X172164285Y-57442914D01*
X172164285Y-57442914D02*
X172116666Y-57633390D01*
X172116666Y-57633390D02*
X172116666Y-57776247D01*
X172116666Y-57776247D02*
X172164285Y-57966723D01*
X172164285Y-57966723D02*
X172211904Y-58061961D01*
X172211904Y-58061961D02*
X172307142Y-58157200D01*
X172307142Y-58157200D02*
X172449999Y-58204819D01*
X172449999Y-58204819D02*
X172688094Y-58204819D01*
X171259523Y-57204819D02*
X171449999Y-57204819D01*
X171449999Y-57204819D02*
X171545237Y-57252438D01*
X171545237Y-57252438D02*
X171592856Y-57300057D01*
X171592856Y-57300057D02*
X171688094Y-57442914D01*
X171688094Y-57442914D02*
X171735713Y-57633390D01*
X171735713Y-57633390D02*
X171735713Y-58014342D01*
X171735713Y-58014342D02*
X171688094Y-58109580D01*
X171688094Y-58109580D02*
X171640475Y-58157200D01*
X171640475Y-58157200D02*
X171545237Y-58204819D01*
X171545237Y-58204819D02*
X171354761Y-58204819D01*
X171354761Y-58204819D02*
X171259523Y-58157200D01*
X171259523Y-58157200D02*
X171211904Y-58109580D01*
X171211904Y-58109580D02*
X171164285Y-58014342D01*
X171164285Y-58014342D02*
X171164285Y-57776247D01*
X171164285Y-57776247D02*
X171211904Y-57681009D01*
X171211904Y-57681009D02*
X171259523Y-57633390D01*
X171259523Y-57633390D02*
X171354761Y-57585771D01*
X171354761Y-57585771D02*
X171545237Y-57585771D01*
X171545237Y-57585771D02*
X171640475Y-57633390D01*
X171640475Y-57633390D02*
X171688094Y-57681009D01*
X171688094Y-57681009D02*
X171735713Y-57776247D01*
X164916666Y-79109580D02*
X164964285Y-79157200D01*
X164964285Y-79157200D02*
X165107142Y-79204819D01*
X165107142Y-79204819D02*
X165202380Y-79204819D01*
X165202380Y-79204819D02*
X165345237Y-79157200D01*
X165345237Y-79157200D02*
X165440475Y-79061961D01*
X165440475Y-79061961D02*
X165488094Y-78966723D01*
X165488094Y-78966723D02*
X165535713Y-78776247D01*
X165535713Y-78776247D02*
X165535713Y-78633390D01*
X165535713Y-78633390D02*
X165488094Y-78442914D01*
X165488094Y-78442914D02*
X165440475Y-78347676D01*
X165440475Y-78347676D02*
X165345237Y-78252438D01*
X165345237Y-78252438D02*
X165202380Y-78204819D01*
X165202380Y-78204819D02*
X165107142Y-78204819D01*
X165107142Y-78204819D02*
X164964285Y-78252438D01*
X164964285Y-78252438D02*
X164916666Y-78300057D01*
X164583332Y-78204819D02*
X163964285Y-78204819D01*
X163964285Y-78204819D02*
X164297618Y-78585771D01*
X164297618Y-78585771D02*
X164154761Y-78585771D01*
X164154761Y-78585771D02*
X164059523Y-78633390D01*
X164059523Y-78633390D02*
X164011904Y-78681009D01*
X164011904Y-78681009D02*
X163964285Y-78776247D01*
X163964285Y-78776247D02*
X163964285Y-79014342D01*
X163964285Y-79014342D02*
X164011904Y-79109580D01*
X164011904Y-79109580D02*
X164059523Y-79157200D01*
X164059523Y-79157200D02*
X164154761Y-79204819D01*
X164154761Y-79204819D02*
X164440475Y-79204819D01*
X164440475Y-79204819D02*
X164535713Y-79157200D01*
X164535713Y-79157200D02*
X164583332Y-79109580D01*
X164916666Y-73609580D02*
X164964285Y-73657200D01*
X164964285Y-73657200D02*
X165107142Y-73704819D01*
X165107142Y-73704819D02*
X165202380Y-73704819D01*
X165202380Y-73704819D02*
X165345237Y-73657200D01*
X165345237Y-73657200D02*
X165440475Y-73561961D01*
X165440475Y-73561961D02*
X165488094Y-73466723D01*
X165488094Y-73466723D02*
X165535713Y-73276247D01*
X165535713Y-73276247D02*
X165535713Y-73133390D01*
X165535713Y-73133390D02*
X165488094Y-72942914D01*
X165488094Y-72942914D02*
X165440475Y-72847676D01*
X165440475Y-72847676D02*
X165345237Y-72752438D01*
X165345237Y-72752438D02*
X165202380Y-72704819D01*
X165202380Y-72704819D02*
X165107142Y-72704819D01*
X165107142Y-72704819D02*
X164964285Y-72752438D01*
X164964285Y-72752438D02*
X164916666Y-72800057D01*
X164440475Y-73704819D02*
X164249999Y-73704819D01*
X164249999Y-73704819D02*
X164154761Y-73657200D01*
X164154761Y-73657200D02*
X164107142Y-73609580D01*
X164107142Y-73609580D02*
X164011904Y-73466723D01*
X164011904Y-73466723D02*
X163964285Y-73276247D01*
X163964285Y-73276247D02*
X163964285Y-72895295D01*
X163964285Y-72895295D02*
X164011904Y-72800057D01*
X164011904Y-72800057D02*
X164059523Y-72752438D01*
X164059523Y-72752438D02*
X164154761Y-72704819D01*
X164154761Y-72704819D02*
X164345237Y-72704819D01*
X164345237Y-72704819D02*
X164440475Y-72752438D01*
X164440475Y-72752438D02*
X164488094Y-72800057D01*
X164488094Y-72800057D02*
X164535713Y-72895295D01*
X164535713Y-72895295D02*
X164535713Y-73133390D01*
X164535713Y-73133390D02*
X164488094Y-73228628D01*
X164488094Y-73228628D02*
X164440475Y-73276247D01*
X164440475Y-73276247D02*
X164345237Y-73323866D01*
X164345237Y-73323866D02*
X164154761Y-73323866D01*
X164154761Y-73323866D02*
X164059523Y-73276247D01*
X164059523Y-73276247D02*
X164011904Y-73228628D01*
X164011904Y-73228628D02*
X163964285Y-73133390D01*
X165030357Y-67609580D02*
X165077976Y-67657200D01*
X165077976Y-67657200D02*
X165220833Y-67704819D01*
X165220833Y-67704819D02*
X165316071Y-67704819D01*
X165316071Y-67704819D02*
X165458928Y-67657200D01*
X165458928Y-67657200D02*
X165554166Y-67561961D01*
X165554166Y-67561961D02*
X165601785Y-67466723D01*
X165601785Y-67466723D02*
X165649404Y-67276247D01*
X165649404Y-67276247D02*
X165649404Y-67133390D01*
X165649404Y-67133390D02*
X165601785Y-66942914D01*
X165601785Y-66942914D02*
X165554166Y-66847676D01*
X165554166Y-66847676D02*
X165458928Y-66752438D01*
X165458928Y-66752438D02*
X165316071Y-66704819D01*
X165316071Y-66704819D02*
X165220833Y-66704819D01*
X165220833Y-66704819D02*
X165077976Y-66752438D01*
X165077976Y-66752438D02*
X165030357Y-66800057D01*
X164077976Y-67704819D02*
X164649404Y-67704819D01*
X164363690Y-67704819D02*
X164363690Y-66704819D01*
X164363690Y-66704819D02*
X164458928Y-66847676D01*
X164458928Y-66847676D02*
X164554166Y-66942914D01*
X164554166Y-66942914D02*
X164649404Y-66990533D01*
X163744642Y-66704819D02*
X163125595Y-66704819D01*
X163125595Y-66704819D02*
X163458928Y-67085771D01*
X163458928Y-67085771D02*
X163316071Y-67085771D01*
X163316071Y-67085771D02*
X163220833Y-67133390D01*
X163220833Y-67133390D02*
X163173214Y-67181009D01*
X163173214Y-67181009D02*
X163125595Y-67276247D01*
X163125595Y-67276247D02*
X163125595Y-67514342D01*
X163125595Y-67514342D02*
X163173214Y-67609580D01*
X163173214Y-67609580D02*
X163220833Y-67657200D01*
X163220833Y-67657200D02*
X163316071Y-67704819D01*
X163316071Y-67704819D02*
X163601785Y-67704819D01*
X163601785Y-67704819D02*
X163697023Y-67657200D01*
X163697023Y-67657200D02*
X163744642Y-67609580D01*
X162166666Y-51359580D02*
X162214285Y-51407200D01*
X162214285Y-51407200D02*
X162357142Y-51454819D01*
X162357142Y-51454819D02*
X162452380Y-51454819D01*
X162452380Y-51454819D02*
X162595237Y-51407200D01*
X162595237Y-51407200D02*
X162690475Y-51311961D01*
X162690475Y-51311961D02*
X162738094Y-51216723D01*
X162738094Y-51216723D02*
X162785713Y-51026247D01*
X162785713Y-51026247D02*
X162785713Y-50883390D01*
X162785713Y-50883390D02*
X162738094Y-50692914D01*
X162738094Y-50692914D02*
X162690475Y-50597676D01*
X162690475Y-50597676D02*
X162595237Y-50502438D01*
X162595237Y-50502438D02*
X162452380Y-50454819D01*
X162452380Y-50454819D02*
X162357142Y-50454819D01*
X162357142Y-50454819D02*
X162214285Y-50502438D01*
X162214285Y-50502438D02*
X162166666Y-50550057D01*
X161309523Y-50788152D02*
X161309523Y-51454819D01*
X161547618Y-50407200D02*
X161785713Y-51121485D01*
X161785713Y-51121485D02*
X161166666Y-51121485D01*
X159666666Y-51859580D02*
X159714285Y-51907200D01*
X159714285Y-51907200D02*
X159857142Y-51954819D01*
X159857142Y-51954819D02*
X159952380Y-51954819D01*
X159952380Y-51954819D02*
X160095237Y-51907200D01*
X160095237Y-51907200D02*
X160190475Y-51811961D01*
X160190475Y-51811961D02*
X160238094Y-51716723D01*
X160238094Y-51716723D02*
X160285713Y-51526247D01*
X160285713Y-51526247D02*
X160285713Y-51383390D01*
X160285713Y-51383390D02*
X160238094Y-51192914D01*
X160238094Y-51192914D02*
X160190475Y-51097676D01*
X160190475Y-51097676D02*
X160095237Y-51002438D01*
X160095237Y-51002438D02*
X159952380Y-50954819D01*
X159952380Y-50954819D02*
X159857142Y-50954819D01*
X159857142Y-50954819D02*
X159714285Y-51002438D01*
X159714285Y-51002438D02*
X159666666Y-51050057D01*
X158761904Y-50954819D02*
X159238094Y-50954819D01*
X159238094Y-50954819D02*
X159285713Y-51431009D01*
X159285713Y-51431009D02*
X159238094Y-51383390D01*
X159238094Y-51383390D02*
X159142856Y-51335771D01*
X159142856Y-51335771D02*
X158904761Y-51335771D01*
X158904761Y-51335771D02*
X158809523Y-51383390D01*
X158809523Y-51383390D02*
X158761904Y-51431009D01*
X158761904Y-51431009D02*
X158714285Y-51526247D01*
X158714285Y-51526247D02*
X158714285Y-51764342D01*
X158714285Y-51764342D02*
X158761904Y-51859580D01*
X158761904Y-51859580D02*
X158809523Y-51907200D01*
X158809523Y-51907200D02*
X158904761Y-51954819D01*
X158904761Y-51954819D02*
X159142856Y-51954819D01*
X159142856Y-51954819D02*
X159238094Y-51907200D01*
X159238094Y-51907200D02*
X159285713Y-51859580D01*
X173363094Y-52454819D02*
X173363094Y-51454819D01*
X173363094Y-51454819D02*
X173124999Y-51454819D01*
X173124999Y-51454819D02*
X172982142Y-51502438D01*
X172982142Y-51502438D02*
X172886904Y-51597676D01*
X172886904Y-51597676D02*
X172839285Y-51692914D01*
X172839285Y-51692914D02*
X172791666Y-51883390D01*
X172791666Y-51883390D02*
X172791666Y-52026247D01*
X172791666Y-52026247D02*
X172839285Y-52216723D01*
X172839285Y-52216723D02*
X172886904Y-52311961D01*
X172886904Y-52311961D02*
X172982142Y-52407200D01*
X172982142Y-52407200D02*
X173124999Y-52454819D01*
X173124999Y-52454819D02*
X173363094Y-52454819D01*
X171886904Y-51454819D02*
X172363094Y-51454819D01*
X172363094Y-51454819D02*
X172410713Y-51931009D01*
X172410713Y-51931009D02*
X172363094Y-51883390D01*
X172363094Y-51883390D02*
X172267856Y-51835771D01*
X172267856Y-51835771D02*
X172029761Y-51835771D01*
X172029761Y-51835771D02*
X171934523Y-51883390D01*
X171934523Y-51883390D02*
X171886904Y-51931009D01*
X171886904Y-51931009D02*
X171839285Y-52026247D01*
X171839285Y-52026247D02*
X171839285Y-52264342D01*
X171839285Y-52264342D02*
X171886904Y-52359580D01*
X171886904Y-52359580D02*
X171934523Y-52407200D01*
X171934523Y-52407200D02*
X172029761Y-52454819D01*
X172029761Y-52454819D02*
X172267856Y-52454819D01*
X172267856Y-52454819D02*
X172363094Y-52407200D01*
X172363094Y-52407200D02*
X172410713Y-52359580D01*
X176454819Y-74838095D02*
X177264342Y-74838095D01*
X177264342Y-74838095D02*
X177359580Y-74885714D01*
X177359580Y-74885714D02*
X177407200Y-74933333D01*
X177407200Y-74933333D02*
X177454819Y-75028571D01*
X177454819Y-75028571D02*
X177454819Y-75219047D01*
X177454819Y-75219047D02*
X177407200Y-75314285D01*
X177407200Y-75314285D02*
X177359580Y-75361904D01*
X177359580Y-75361904D02*
X177264342Y-75409523D01*
X177264342Y-75409523D02*
X176454819Y-75409523D01*
X176550057Y-75838095D02*
X176502438Y-75885714D01*
X176502438Y-75885714D02*
X176454819Y-75980952D01*
X176454819Y-75980952D02*
X176454819Y-76219047D01*
X176454819Y-76219047D02*
X176502438Y-76314285D01*
X176502438Y-76314285D02*
X176550057Y-76361904D01*
X176550057Y-76361904D02*
X176645295Y-76409523D01*
X176645295Y-76409523D02*
X176740533Y-76409523D01*
X176740533Y-76409523D02*
X176883390Y-76361904D01*
X176883390Y-76361904D02*
X177454819Y-75790476D01*
X177454819Y-75790476D02*
X177454819Y-76409523D01*
D12*
%TO.C,C19*%
X157241233Y-93340000D02*
X157533767Y-93340000D01*
X157241233Y-94360000D02*
X157533767Y-94360000D01*
%TO.C,J4*%
X94390000Y-78070000D02*
X94390000Y-75760000D01*
X94390000Y-85160000D02*
X94390000Y-87020000D01*
X94590000Y-75300000D02*
X94590000Y-75560000D01*
X94590000Y-75560000D02*
X94390000Y-75760000D01*
X94590000Y-84950000D02*
X94390000Y-85160000D01*
X94590000Y-84950000D02*
X94740000Y-84950000D01*
X94590000Y-87220000D02*
X94390000Y-87020000D01*
X94740000Y-78580000D02*
X94390000Y-78070000D01*
X94740000Y-78580000D02*
X94740000Y-84950000D01*
X96650000Y-74080000D02*
X110660000Y-74080000D01*
X97550000Y-88050000D02*
X99350000Y-88050000D01*
X100650000Y-88050000D02*
X105350000Y-88050000D01*
X107050000Y-88050000D02*
X110660000Y-88050000D01*
X110660000Y-74080000D02*
X110660000Y-76000000D01*
X110660000Y-88050000D02*
X110660000Y-87600000D01*
D11*
%TO.C,SW1*%
X99300000Y-94600000D02*
X107300000Y-94600000D01*
X99300000Y-99600000D02*
X99300000Y-94600000D01*
X107300000Y-94600000D02*
X107300000Y-99600000D01*
X107300000Y-99600000D02*
X99300000Y-99600000D01*
D12*
%TO.C,C2*%
X122590000Y-96791233D02*
X122590000Y-97083767D01*
X123610000Y-96791233D02*
X123610000Y-97083767D01*
%TO.C,C1*%
X111415000Y-97748733D02*
X111415000Y-98041267D01*
X112435000Y-97748733D02*
X112435000Y-98041267D01*
%TO.C,R4*%
X102327064Y-102190000D02*
X100872936Y-102190000D01*
X102327064Y-104010000D02*
X100872936Y-104010000D01*
%TO.C,C11*%
X127910000Y-87146267D02*
X127910000Y-86853733D01*
X126890000Y-87146267D02*
X126890000Y-86853733D01*
%TO.C,D8*%
X120950000Y-90400000D02*
X124960000Y-90400000D01*
X120950000Y-92400000D02*
X124960000Y-92400000D01*
X124960000Y-92400000D02*
X124960000Y-90400000D01*
%TO.C,D9*%
X162450000Y-97250000D02*
X166460000Y-97250000D01*
X162450000Y-99250000D02*
X166460000Y-99250000D01*
X166460000Y-99250000D02*
X166460000Y-97250000D01*
%TO.C,D3*%
X161840000Y-92750000D02*
X161840000Y-94750000D01*
X165850000Y-92750000D02*
X161840000Y-92750000D01*
X165850000Y-94750000D02*
X161840000Y-94750000D01*
%TO.C,R7*%
X156590000Y-79272936D02*
X156590000Y-80727064D01*
X158410000Y-79272936D02*
X158410000Y-80727064D01*
%TO.C,C17*%
X173760000Y-62896267D02*
X173760000Y-62603733D01*
X172740000Y-62896267D02*
X172740000Y-62603733D01*
%TO.C,U4*%
X157450000Y-52475000D02*
X156950000Y-52475000D01*
X156950000Y-51975000D01*
X157450000Y-52475000D01*
G36*
X157450000Y-52475000D02*
G01*
X156950000Y-52475000D01*
X156950000Y-51975000D01*
X157450000Y-52475000D01*
G37*
X156950000Y-71450000D02*
X156950000Y-70450000D01*
X155450000Y-71450000D02*
X156950000Y-71450000D01*
X140050000Y-71450000D02*
X138550000Y-71450000D01*
X138550000Y-70450000D02*
X138550000Y-71450000D01*
%TO.C,C15*%
X167646267Y-64740000D02*
X167353733Y-64740000D01*
X167646267Y-65760000D02*
X167353733Y-65760000D01*
%TO.C,R2*%
X142490000Y-88927064D02*
X142490000Y-87472936D01*
X144310000Y-88927064D02*
X144310000Y-87472936D01*
%TO.C,R6*%
X159840000Y-79272936D02*
X159840000Y-80727064D01*
X161660000Y-79272936D02*
X161660000Y-80727064D01*
%TO.C,U3*%
X115425000Y-94285000D02*
X117425000Y-94285000D01*
X115425000Y-99505000D02*
X117425000Y-99505000D01*
X119425000Y-94285000D02*
X117425000Y-94285000D01*
X119425000Y-99505000D02*
X117425000Y-99505000D01*
X114940000Y-99690000D02*
X114460000Y-99690000D01*
X114700000Y-99360000D01*
X114940000Y-99690000D01*
G36*
X114940000Y-99690000D02*
G01*
X114460000Y-99690000D01*
X114700000Y-99360000D01*
X114940000Y-99690000D01*
G37*
%TO.C,D1*%
X94840000Y-102465000D02*
X94840000Y-103935000D01*
X94840000Y-103935000D02*
X97300000Y-103935000D01*
X97300000Y-102465000D02*
X94840000Y-102465000D01*
%TO.C,C20*%
X170803733Y-89360000D02*
X171096267Y-89360000D01*
X170803733Y-88340000D02*
X171096267Y-88340000D01*
%TO.C,C16*%
X171510000Y-62896267D02*
X171510000Y-62603733D01*
X170490000Y-62896267D02*
X170490000Y-62603733D01*
D11*
%TO.C,L1*%
X155700000Y-95550000D02*
X155700000Y-98050000D01*
X155700000Y-100550000D02*
X155700000Y-98050000D01*
X156450000Y-100550000D02*
X155700000Y-100550000D01*
X156600000Y-95550000D02*
X155700000Y-95550000D01*
X159050000Y-100550000D02*
X159800000Y-100550000D01*
X159800000Y-95550000D02*
X158900000Y-95550000D01*
X159800000Y-96450000D02*
X159800000Y-95550000D01*
X159800000Y-100550000D02*
X159800000Y-96450000D01*
D12*
%TO.C,Q2*%
X158647500Y-87690000D02*
X157237500Y-87690000D01*
X158647500Y-87690000D02*
X158647500Y-88350000D01*
X158647500Y-89350000D02*
X158647500Y-90020000D01*
X158647500Y-90020000D02*
X157237500Y-90020000D01*
X157107500Y-90330000D02*
X156627500Y-90330000D01*
X156867500Y-90000000D01*
X157107500Y-90330000D01*
G36*
X157107500Y-90330000D02*
G01*
X156627500Y-90330000D01*
X156867500Y-90000000D01*
X157107500Y-90330000D01*
G37*
%TO.C,R5*%
X152740000Y-94577064D02*
X152740000Y-93122936D01*
X154560000Y-94577064D02*
X154560000Y-93122936D01*
%TO.C,R1*%
X134272936Y-93490000D02*
X135727064Y-93490000D01*
X134272936Y-95310000D02*
X135727064Y-95310000D01*
%TO.C,D2*%
X162600000Y-87850000D02*
X166610000Y-87850000D01*
X162600000Y-89850000D02*
X166610000Y-89850000D01*
X166610000Y-89850000D02*
X166610000Y-87850000D01*
%TO.C,U7*%
X119940000Y-89040000D02*
X119460000Y-89040000D01*
X119700000Y-88710000D01*
X119940000Y-89040000D01*
G36*
X119940000Y-89040000D02*
G01*
X119460000Y-89040000D01*
X119700000Y-88710000D01*
X119940000Y-89040000D01*
G37*
X121800000Y-88760000D02*
X121000000Y-88760000D01*
X121800000Y-85640000D02*
X121000000Y-85640000D01*
X120200000Y-88760000D02*
X121000000Y-88760000D01*
X120200000Y-85640000D02*
X121000000Y-85640000D01*
%TO.C,R3*%
X151872936Y-87140000D02*
X153327064Y-87140000D01*
X151872936Y-88960000D02*
X153327064Y-88960000D01*
D13*
%TO.C,C12*%
X125074400Y-94318800D02*
X125074400Y-98281200D01*
X128325600Y-98281200D02*
X128325600Y-94318800D01*
D12*
%TO.C,C18*%
X152633767Y-99340000D02*
X152341233Y-99340000D01*
X152633767Y-100360000D02*
X152341233Y-100360000D01*
D11*
%TO.C,J1*%
X140250000Y-90700000D02*
X140250000Y-85900000D01*
X138450000Y-91900000D02*
X132250000Y-91900000D01*
X132250000Y-84700000D02*
X138450000Y-84700000D01*
X130450000Y-90700000D02*
X130450000Y-85900000D01*
D12*
%TO.C,D7*%
X116900000Y-100800000D02*
X120910000Y-100800000D01*
X116900000Y-102800000D02*
X120910000Y-102800000D01*
X120910000Y-102800000D02*
X120910000Y-100800000D01*
%TO.C,C6*%
X175490000Y-54353733D02*
X175490000Y-54646267D01*
X176510000Y-54353733D02*
X176510000Y-54646267D01*
%TO.C,C10*%
X167646267Y-70740000D02*
X167353733Y-70740000D01*
X167646267Y-71760000D02*
X167353733Y-71760000D01*
%TO.C,R15*%
X166272936Y-58590000D02*
X167727064Y-58590000D01*
X166272936Y-60410000D02*
X167727064Y-60410000D01*
%TO.C,R14*%
X167590000Y-55727064D02*
X167590000Y-54272936D01*
X169410000Y-55727064D02*
X169410000Y-54272936D01*
%TO.C,C22*%
X167646267Y-68740000D02*
X167353733Y-68740000D01*
X167646267Y-69760000D02*
X167353733Y-69760000D01*
D11*
%TO.C,SW2*%
X180500000Y-52400000D02*
X180500000Y-51300000D01*
X181200000Y-50800000D02*
X184000000Y-50800000D01*
X184000000Y-53000000D02*
X181200000Y-53000000D01*
X184700000Y-51300000D02*
X184700000Y-52400000D01*
D12*
%TO.C,R9*%
X164590000Y-54272936D02*
X164590000Y-55727064D01*
X166410000Y-54272936D02*
X166410000Y-55727064D01*
D11*
%TO.C,SW3*%
X184700000Y-57300000D02*
X184700000Y-58400000D01*
X184000000Y-59000000D02*
X181200000Y-59000000D01*
X181200000Y-56800000D02*
X184000000Y-56800000D01*
X180500000Y-58400000D02*
X180500000Y-57300000D01*
%TO.C,Y1*%
X158500000Y-61962500D02*
X160500000Y-61962500D01*
X158500000Y-64262500D02*
X158500000Y-61962500D01*
X160500000Y-61962500D02*
X160500000Y-64262500D01*
X160500000Y-64262500D02*
X158500000Y-64262500D01*
D12*
%TO.C,C8*%
X161490000Y-65508767D02*
X161490000Y-65216233D01*
X162510000Y-65508767D02*
X162510000Y-65216233D01*
%TO.C,D4*%
X187985000Y-61300000D02*
X187985000Y-58840000D01*
X186515000Y-58840000D02*
X186515000Y-61300000D01*
X187985000Y-58840000D02*
X186515000Y-58840000D01*
%TO.C,R13*%
X181772936Y-60340000D02*
X183227064Y-60340000D01*
X181772936Y-62160000D02*
X183227064Y-62160000D01*
%TO.C,C7*%
X161490000Y-60853733D02*
X161490000Y-61146267D01*
X162510000Y-60853733D02*
X162510000Y-61146267D01*
%TO.C,R11*%
X151840000Y-79272936D02*
X151840000Y-80727064D01*
X153660000Y-79272936D02*
X153660000Y-80727064D01*
%TO.C,C21*%
X167646267Y-80490000D02*
X167353733Y-80490000D01*
X167646267Y-81510000D02*
X167353733Y-81510000D01*
%TO.C,R10*%
X133590000Y-72727064D02*
X133590000Y-71272936D01*
X135410000Y-72727064D02*
X135410000Y-71272936D01*
%TO.C,D6*%
X171075000Y-59985000D02*
X173535000Y-59985000D01*
X173535000Y-58515000D02*
X171075000Y-58515000D01*
X173535000Y-59985000D02*
X173535000Y-58515000D01*
%TO.C,C3*%
X167646267Y-78240000D02*
X167353733Y-78240000D01*
X167646267Y-79260000D02*
X167353733Y-79260000D01*
%TO.C,C9*%
X167646267Y-72740000D02*
X167353733Y-72740000D01*
X167646267Y-73760000D02*
X167353733Y-73760000D01*
%TO.C,C13*%
X167646267Y-66740000D02*
X167353733Y-66740000D01*
X167646267Y-67760000D02*
X167353733Y-67760000D01*
%TO.C,C4*%
X161265000Y-54261252D02*
X161265000Y-53738748D01*
X162735000Y-54261252D02*
X162735000Y-53738748D01*
%TO.C,C5*%
X158990000Y-54146267D02*
X158990000Y-53853733D01*
X160010000Y-54146267D02*
X160010000Y-53853733D01*
%TO.C,D5*%
X171700000Y-54235000D02*
X174160000Y-54235000D01*
X174160000Y-52765000D02*
X171700000Y-52765000D01*
X174160000Y-54235000D02*
X174160000Y-52765000D01*
D13*
%TO.C,U2*%
X171873000Y-66972999D02*
X171873000Y-82726998D01*
X171873000Y-82726998D02*
X175817260Y-82726998D01*
X175817260Y-66972999D02*
X171873000Y-66972999D01*
X178027001Y-82726998D02*
X178027001Y-66972999D01*
D14*
X173381000Y-66337999D02*
G75*
G02*
X172619000Y-66337999I-381000J0D01*
G01*
X172619000Y-66337999D02*
G75*
G02*
X173381000Y-66337999I381000J0D01*
G01*
%TD*%
M02*
