M48
; DRILL file {KiCad 8.0.8} date 2025-02-02T16:15:37+0900
; FORMAT={-:-/ absolute / metric / decimal}
; #@! TF.CreationDate,2025-02-02T16:15:37+09:00
; #@! TF.GenerationSoftware,Kicad,Pcbnew,8.0.8
; #@! TF.FileFunction,MixedPlating,1,2
FMAT,2
METRIC
; #@! TA.AperFunction,Plated,PTH,ViaDrill
T1C0.300
; #@! TA.AperFunction,Plated,PTH,ComponentDrill
T2C0.550
; #@! TA.AperFunction,Plated,PTH,ComponentDrill
T3C0.800
; #@! TA.AperFunction,Plated,PTH,ComponentDrill
T4C1.100
; #@! TA.AperFunction,NonPlated,NPTH,ComponentDrill
T5C2.200
; #@! TA.AperFunction,NonPlated,NPTH,ComponentDrill
T6C2.700
%
G90
G05
T1
X101.0Y-101.0
X104.0Y-59.75
X104.0Y-62.0
X111.925Y-97.032
X112.75Y-83.75
X118.5Y-87.25
X126.7Y-95.004
X133.45Y-94.4
X134.25Y-83.0
X134.5Y-73.55
X134.75Y-87.75
X135.75Y-89.0
X136.5Y-57.25
X136.5Y-58.5
X136.529Y-84.5
X140.75Y-58.25
X140.75Y-59.25
X141.0Y-65.75
X147.0Y-75.0
X148.5Y-76.25
X149.0Y-74.25
X151.0Y-74.0
X151.25Y-76.221
X152.0Y-65.5
X152.5Y-73.25
X152.75Y-78.45
X154.25Y-73.571
X154.25Y-77.5
X155.0Y-77.75
X155.625Y-72.625
X155.75Y-71.0
X157.5Y-81.55
X162.0Y-60.137
X164.25Y-78.25
X165.5Y-53.45
X165.75Y-98.25
X166.637Y-81.0
X168.362Y-73.25
X171.812Y-88.85
X174.5Y-59.5
X180.95Y-61.25
X187.25Y-59.625
T3
X148.0Y-62.2
X148.05Y-59.7
X149.25Y-61.0
X150.45Y-59.7
X150.45Y-62.2
T4
X99.445Y-50.26
X99.445Y-52.8
X99.445Y-55.34
X99.445Y-57.88
X99.445Y-60.42
X99.445Y-62.96
X99.445Y-65.5
X121.89Y-53.115
X121.89Y-55.655
X121.89Y-58.195
X121.89Y-60.735
X121.89Y-63.275
T5
X105.38Y-49.305
X120.62Y-49.305
T6
X91.825Y-50.26
X91.825Y-65.5
T2
G00X131.675Y-88.3
M15
G01X131.275Y-88.3
M16
G05
G00X139.225Y-88.3
M15
G01X138.825Y-88.3
M16
G05
T3
G00X131.49Y-85.23
M15
G01X130.99Y-85.23
M16
G05
G00X131.49Y-91.37
M15
G01X130.99Y-91.37
M16
G05
G00X139.6Y-85.23
M15
G01X139.1Y-85.23
M16
G05
G00X139.6Y-91.37
M15
G01X139.1Y-91.37
M16
G05
M30
