%TF.GenerationSoftware,KiCad,Pcbnew,8.0.6*%
%TF.CreationDate,2024-11-30T14:10:35+09:00*%
%TF.ProjectId,PCB,5043422e-6b69-4636-9164-5f7063625858,rev?*%
%TF.SameCoordinates,Original*%
%TF.FileFunction,Legend,Top*%
%TF.FilePolarity,Positive*%
%FSLAX46Y46*%
G04 Gerber Fmt 4.6, Leading zero omitted, Abs format (unit mm)*
G04 Created by KiCad (PCBNEW 8.0.6) date 2024-11-30 14:10:35*
%MOMM*%
%LPD*%
G01*
G04 APERTURE LIST*
%ADD10C,0.100000*%
%ADD11C,0.150000*%
%ADD12C,0.120000*%
G04 APERTURE END LIST*
D10*
X147742580Y-94818095D02*
X146933057Y-94818095D01*
X146933057Y-94818095D02*
X146837819Y-94865714D01*
X146837819Y-94865714D02*
X146790200Y-94913333D01*
X146790200Y-94913333D02*
X146742580Y-95008571D01*
X146742580Y-95008571D02*
X146742580Y-95199047D01*
X146742580Y-95199047D02*
X146790200Y-95294285D01*
X146790200Y-95294285D02*
X146837819Y-95341904D01*
X146837819Y-95341904D02*
X146933057Y-95389523D01*
X146933057Y-95389523D02*
X147742580Y-95389523D01*
X146742580Y-96389523D02*
X146742580Y-95818095D01*
X146742580Y-96103809D02*
X147742580Y-96103809D01*
X147742580Y-96103809D02*
X147599723Y-96008571D01*
X147599723Y-96008571D02*
X147504485Y-95913333D01*
X147504485Y-95913333D02*
X147456866Y-95818095D01*
X100866667Y-109959800D02*
X101009524Y-110007419D01*
X101009524Y-110007419D02*
X101247619Y-110007419D01*
X101247619Y-110007419D02*
X101342857Y-109959800D01*
X101342857Y-109959800D02*
X101390476Y-109912180D01*
X101390476Y-109912180D02*
X101438095Y-109816942D01*
X101438095Y-109816942D02*
X101438095Y-109721704D01*
X101438095Y-109721704D02*
X101390476Y-109626466D01*
X101390476Y-109626466D02*
X101342857Y-109578847D01*
X101342857Y-109578847D02*
X101247619Y-109531228D01*
X101247619Y-109531228D02*
X101057143Y-109483609D01*
X101057143Y-109483609D02*
X100961905Y-109435990D01*
X100961905Y-109435990D02*
X100914286Y-109388371D01*
X100914286Y-109388371D02*
X100866667Y-109293133D01*
X100866667Y-109293133D02*
X100866667Y-109197895D01*
X100866667Y-109197895D02*
X100914286Y-109102657D01*
X100914286Y-109102657D02*
X100961905Y-109055038D01*
X100961905Y-109055038D02*
X101057143Y-109007419D01*
X101057143Y-109007419D02*
X101295238Y-109007419D01*
X101295238Y-109007419D02*
X101438095Y-109055038D01*
X101771429Y-109007419D02*
X102009524Y-110007419D01*
X102009524Y-110007419D02*
X102200000Y-109293133D01*
X102200000Y-109293133D02*
X102390476Y-110007419D01*
X102390476Y-110007419D02*
X102628572Y-109007419D01*
X103533333Y-110007419D02*
X102961905Y-110007419D01*
X103247619Y-110007419D02*
X103247619Y-109007419D01*
X103247619Y-109007419D02*
X103152381Y-109150276D01*
X103152381Y-109150276D02*
X103057143Y-109245514D01*
X103057143Y-109245514D02*
X102961905Y-109293133D01*
D11*
X100186905Y-97454819D02*
X100186905Y-96454819D01*
X100186905Y-96454819D02*
X100425000Y-96454819D01*
X100425000Y-96454819D02*
X100567857Y-96502438D01*
X100567857Y-96502438D02*
X100663095Y-96597676D01*
X100663095Y-96597676D02*
X100710714Y-96692914D01*
X100710714Y-96692914D02*
X100758333Y-96883390D01*
X100758333Y-96883390D02*
X100758333Y-97026247D01*
X100758333Y-97026247D02*
X100710714Y-97216723D01*
X100710714Y-97216723D02*
X100663095Y-97311961D01*
X100663095Y-97311961D02*
X100567857Y-97407200D01*
X100567857Y-97407200D02*
X100425000Y-97454819D01*
X100425000Y-97454819D02*
X100186905Y-97454819D01*
X101091667Y-96454819D02*
X101710714Y-96454819D01*
X101710714Y-96454819D02*
X101377381Y-96835771D01*
X101377381Y-96835771D02*
X101520238Y-96835771D01*
X101520238Y-96835771D02*
X101615476Y-96883390D01*
X101615476Y-96883390D02*
X101663095Y-96931009D01*
X101663095Y-96931009D02*
X101710714Y-97026247D01*
X101710714Y-97026247D02*
X101710714Y-97264342D01*
X101710714Y-97264342D02*
X101663095Y-97359580D01*
X101663095Y-97359580D02*
X101615476Y-97407200D01*
X101615476Y-97407200D02*
X101520238Y-97454819D01*
X101520238Y-97454819D02*
X101234524Y-97454819D01*
X101234524Y-97454819D02*
X101139286Y-97407200D01*
X101139286Y-97407200D02*
X101091667Y-97359580D01*
X92588095Y-105254819D02*
X92588095Y-104254819D01*
X92588095Y-104731009D02*
X93159523Y-104731009D01*
X93159523Y-105254819D02*
X93159523Y-104254819D01*
X94064285Y-104588152D02*
X94064285Y-105254819D01*
X93826190Y-104207200D02*
X93588095Y-104921485D01*
X93588095Y-104921485D02*
X94207142Y-104921485D01*
X104561905Y-97524819D02*
X104561905Y-96524819D01*
X104561905Y-96524819D02*
X104800000Y-96524819D01*
X104800000Y-96524819D02*
X104942857Y-96572438D01*
X104942857Y-96572438D02*
X105038095Y-96667676D01*
X105038095Y-96667676D02*
X105085714Y-96762914D01*
X105085714Y-96762914D02*
X105133333Y-96953390D01*
X105133333Y-96953390D02*
X105133333Y-97096247D01*
X105133333Y-97096247D02*
X105085714Y-97286723D01*
X105085714Y-97286723D02*
X105038095Y-97381961D01*
X105038095Y-97381961D02*
X104942857Y-97477200D01*
X104942857Y-97477200D02*
X104800000Y-97524819D01*
X104800000Y-97524819D02*
X104561905Y-97524819D01*
X105990476Y-96524819D02*
X105800000Y-96524819D01*
X105800000Y-96524819D02*
X105704762Y-96572438D01*
X105704762Y-96572438D02*
X105657143Y-96620057D01*
X105657143Y-96620057D02*
X105561905Y-96762914D01*
X105561905Y-96762914D02*
X105514286Y-96953390D01*
X105514286Y-96953390D02*
X105514286Y-97334342D01*
X105514286Y-97334342D02*
X105561905Y-97429580D01*
X105561905Y-97429580D02*
X105609524Y-97477200D01*
X105609524Y-97477200D02*
X105704762Y-97524819D01*
X105704762Y-97524819D02*
X105895238Y-97524819D01*
X105895238Y-97524819D02*
X105990476Y-97477200D01*
X105990476Y-97477200D02*
X106038095Y-97429580D01*
X106038095Y-97429580D02*
X106085714Y-97334342D01*
X106085714Y-97334342D02*
X106085714Y-97096247D01*
X106085714Y-97096247D02*
X106038095Y-97001009D01*
X106038095Y-97001009D02*
X105990476Y-96953390D01*
X105990476Y-96953390D02*
X105895238Y-96905771D01*
X105895238Y-96905771D02*
X105704762Y-96905771D01*
X105704762Y-96905771D02*
X105609524Y-96953390D01*
X105609524Y-96953390D02*
X105561905Y-97001009D01*
X105561905Y-97001009D02*
X105514286Y-97096247D01*
D10*
X101666667Y-83909800D02*
X101809524Y-83957419D01*
X101809524Y-83957419D02*
X102047619Y-83957419D01*
X102047619Y-83957419D02*
X102142857Y-83909800D01*
X102142857Y-83909800D02*
X102190476Y-83862180D01*
X102190476Y-83862180D02*
X102238095Y-83766942D01*
X102238095Y-83766942D02*
X102238095Y-83671704D01*
X102238095Y-83671704D02*
X102190476Y-83576466D01*
X102190476Y-83576466D02*
X102142857Y-83528847D01*
X102142857Y-83528847D02*
X102047619Y-83481228D01*
X102047619Y-83481228D02*
X101857143Y-83433609D01*
X101857143Y-83433609D02*
X101761905Y-83385990D01*
X101761905Y-83385990D02*
X101714286Y-83338371D01*
X101714286Y-83338371D02*
X101666667Y-83243133D01*
X101666667Y-83243133D02*
X101666667Y-83147895D01*
X101666667Y-83147895D02*
X101714286Y-83052657D01*
X101714286Y-83052657D02*
X101761905Y-83005038D01*
X101761905Y-83005038D02*
X101857143Y-82957419D01*
X101857143Y-82957419D02*
X102095238Y-82957419D01*
X102095238Y-82957419D02*
X102238095Y-83005038D01*
X102571429Y-82957419D02*
X102809524Y-83957419D01*
X102809524Y-83957419D02*
X103000000Y-83243133D01*
X103000000Y-83243133D02*
X103190476Y-83957419D01*
X103190476Y-83957419D02*
X103428572Y-82957419D01*
X103761905Y-83052657D02*
X103809524Y-83005038D01*
X103809524Y-83005038D02*
X103904762Y-82957419D01*
X103904762Y-82957419D02*
X104142857Y-82957419D01*
X104142857Y-82957419D02*
X104238095Y-83005038D01*
X104238095Y-83005038D02*
X104285714Y-83052657D01*
X104285714Y-83052657D02*
X104333333Y-83147895D01*
X104333333Y-83147895D02*
X104333333Y-83243133D01*
X104333333Y-83243133D02*
X104285714Y-83385990D01*
X104285714Y-83385990D02*
X103714286Y-83957419D01*
X103714286Y-83957419D02*
X104333333Y-83957419D01*
D11*
X97261905Y-104954819D02*
X97261905Y-103954819D01*
X97261905Y-103954819D02*
X97500000Y-103954819D01*
X97500000Y-103954819D02*
X97642857Y-104002438D01*
X97642857Y-104002438D02*
X97738095Y-104097676D01*
X97738095Y-104097676D02*
X97785714Y-104192914D01*
X97785714Y-104192914D02*
X97833333Y-104383390D01*
X97833333Y-104383390D02*
X97833333Y-104526247D01*
X97833333Y-104526247D02*
X97785714Y-104716723D01*
X97785714Y-104716723D02*
X97738095Y-104811961D01*
X97738095Y-104811961D02*
X97642857Y-104907200D01*
X97642857Y-104907200D02*
X97500000Y-104954819D01*
X97500000Y-104954819D02*
X97261905Y-104954819D01*
X98785714Y-104954819D02*
X98214286Y-104954819D01*
X98500000Y-104954819D02*
X98500000Y-103954819D01*
X98500000Y-103954819D02*
X98404762Y-104097676D01*
X98404762Y-104097676D02*
X98309524Y-104192914D01*
X98309524Y-104192914D02*
X98214286Y-104240533D01*
X104436905Y-100524819D02*
X104436905Y-99524819D01*
X104436905Y-99524819D02*
X104675000Y-99524819D01*
X104675000Y-99524819D02*
X104817857Y-99572438D01*
X104817857Y-99572438D02*
X104913095Y-99667676D01*
X104913095Y-99667676D02*
X104960714Y-99762914D01*
X104960714Y-99762914D02*
X105008333Y-99953390D01*
X105008333Y-99953390D02*
X105008333Y-100096247D01*
X105008333Y-100096247D02*
X104960714Y-100286723D01*
X104960714Y-100286723D02*
X104913095Y-100381961D01*
X104913095Y-100381961D02*
X104817857Y-100477200D01*
X104817857Y-100477200D02*
X104675000Y-100524819D01*
X104675000Y-100524819D02*
X104436905Y-100524819D01*
X105913095Y-99524819D02*
X105436905Y-99524819D01*
X105436905Y-99524819D02*
X105389286Y-100001009D01*
X105389286Y-100001009D02*
X105436905Y-99953390D01*
X105436905Y-99953390D02*
X105532143Y-99905771D01*
X105532143Y-99905771D02*
X105770238Y-99905771D01*
X105770238Y-99905771D02*
X105865476Y-99953390D01*
X105865476Y-99953390D02*
X105913095Y-100001009D01*
X105913095Y-100001009D02*
X105960714Y-100096247D01*
X105960714Y-100096247D02*
X105960714Y-100334342D01*
X105960714Y-100334342D02*
X105913095Y-100429580D01*
X105913095Y-100429580D02*
X105865476Y-100477200D01*
X105865476Y-100477200D02*
X105770238Y-100524819D01*
X105770238Y-100524819D02*
X105532143Y-100524819D01*
X105532143Y-100524819D02*
X105436905Y-100477200D01*
X105436905Y-100477200D02*
X105389286Y-100429580D01*
X96904761Y-79050057D02*
X96809523Y-79002438D01*
X96809523Y-79002438D02*
X96714285Y-78907200D01*
X96714285Y-78907200D02*
X96571428Y-78764342D01*
X96571428Y-78764342D02*
X96476190Y-78716723D01*
X96476190Y-78716723D02*
X96380952Y-78716723D01*
X96428571Y-78954819D02*
X96333333Y-78907200D01*
X96333333Y-78907200D02*
X96238095Y-78811961D01*
X96238095Y-78811961D02*
X96190476Y-78621485D01*
X96190476Y-78621485D02*
X96190476Y-78288152D01*
X96190476Y-78288152D02*
X96238095Y-78097676D01*
X96238095Y-78097676D02*
X96333333Y-78002438D01*
X96333333Y-78002438D02*
X96428571Y-77954819D01*
X96428571Y-77954819D02*
X96619047Y-77954819D01*
X96619047Y-77954819D02*
X96714285Y-78002438D01*
X96714285Y-78002438D02*
X96809523Y-78097676D01*
X96809523Y-78097676D02*
X96857142Y-78288152D01*
X96857142Y-78288152D02*
X96857142Y-78621485D01*
X96857142Y-78621485D02*
X96809523Y-78811961D01*
X96809523Y-78811961D02*
X96714285Y-78907200D01*
X96714285Y-78907200D02*
X96619047Y-78954819D01*
X96619047Y-78954819D02*
X96428571Y-78954819D01*
X97238095Y-78050057D02*
X97285714Y-78002438D01*
X97285714Y-78002438D02*
X97380952Y-77954819D01*
X97380952Y-77954819D02*
X97619047Y-77954819D01*
X97619047Y-77954819D02*
X97714285Y-78002438D01*
X97714285Y-78002438D02*
X97761904Y-78050057D01*
X97761904Y-78050057D02*
X97809523Y-78145295D01*
X97809523Y-78145295D02*
X97809523Y-78240533D01*
X97809523Y-78240533D02*
X97761904Y-78383390D01*
X97761904Y-78383390D02*
X97190476Y-78954819D01*
X97190476Y-78954819D02*
X97809523Y-78954819D01*
X100061905Y-100454819D02*
X100061905Y-99454819D01*
X100061905Y-99454819D02*
X100300000Y-99454819D01*
X100300000Y-99454819D02*
X100442857Y-99502438D01*
X100442857Y-99502438D02*
X100538095Y-99597676D01*
X100538095Y-99597676D02*
X100585714Y-99692914D01*
X100585714Y-99692914D02*
X100633333Y-99883390D01*
X100633333Y-99883390D02*
X100633333Y-100026247D01*
X100633333Y-100026247D02*
X100585714Y-100216723D01*
X100585714Y-100216723D02*
X100538095Y-100311961D01*
X100538095Y-100311961D02*
X100442857Y-100407200D01*
X100442857Y-100407200D02*
X100300000Y-100454819D01*
X100300000Y-100454819D02*
X100061905Y-100454819D01*
X101014286Y-99550057D02*
X101061905Y-99502438D01*
X101061905Y-99502438D02*
X101157143Y-99454819D01*
X101157143Y-99454819D02*
X101395238Y-99454819D01*
X101395238Y-99454819D02*
X101490476Y-99502438D01*
X101490476Y-99502438D02*
X101538095Y-99550057D01*
X101538095Y-99550057D02*
X101585714Y-99645295D01*
X101585714Y-99645295D02*
X101585714Y-99740533D01*
X101585714Y-99740533D02*
X101538095Y-99883390D01*
X101538095Y-99883390D02*
X100966667Y-100454819D01*
X100966667Y-100454819D02*
X101585714Y-100454819D01*
D10*
X101816667Y-88909800D02*
X101959524Y-88957419D01*
X101959524Y-88957419D02*
X102197619Y-88957419D01*
X102197619Y-88957419D02*
X102292857Y-88909800D01*
X102292857Y-88909800D02*
X102340476Y-88862180D01*
X102340476Y-88862180D02*
X102388095Y-88766942D01*
X102388095Y-88766942D02*
X102388095Y-88671704D01*
X102388095Y-88671704D02*
X102340476Y-88576466D01*
X102340476Y-88576466D02*
X102292857Y-88528847D01*
X102292857Y-88528847D02*
X102197619Y-88481228D01*
X102197619Y-88481228D02*
X102007143Y-88433609D01*
X102007143Y-88433609D02*
X101911905Y-88385990D01*
X101911905Y-88385990D02*
X101864286Y-88338371D01*
X101864286Y-88338371D02*
X101816667Y-88243133D01*
X101816667Y-88243133D02*
X101816667Y-88147895D01*
X101816667Y-88147895D02*
X101864286Y-88052657D01*
X101864286Y-88052657D02*
X101911905Y-88005038D01*
X101911905Y-88005038D02*
X102007143Y-87957419D01*
X102007143Y-87957419D02*
X102245238Y-87957419D01*
X102245238Y-87957419D02*
X102388095Y-88005038D01*
X102721429Y-87957419D02*
X102959524Y-88957419D01*
X102959524Y-88957419D02*
X103150000Y-88243133D01*
X103150000Y-88243133D02*
X103340476Y-88957419D01*
X103340476Y-88957419D02*
X103578572Y-87957419D01*
X103864286Y-87957419D02*
X104483333Y-87957419D01*
X104483333Y-87957419D02*
X104150000Y-88338371D01*
X104150000Y-88338371D02*
X104292857Y-88338371D01*
X104292857Y-88338371D02*
X104388095Y-88385990D01*
X104388095Y-88385990D02*
X104435714Y-88433609D01*
X104435714Y-88433609D02*
X104483333Y-88528847D01*
X104483333Y-88528847D02*
X104483333Y-88766942D01*
X104483333Y-88766942D02*
X104435714Y-88862180D01*
X104435714Y-88862180D02*
X104388095Y-88909800D01*
X104388095Y-88909800D02*
X104292857Y-88957419D01*
X104292857Y-88957419D02*
X104007143Y-88957419D01*
X104007143Y-88957419D02*
X103911905Y-88909800D01*
X103911905Y-88909800D02*
X103864286Y-88862180D01*
X95966666Y-95207419D02*
X95966666Y-95921704D01*
X95966666Y-95921704D02*
X95919047Y-96064561D01*
X95919047Y-96064561D02*
X95823809Y-96159800D01*
X95823809Y-96159800D02*
X95680952Y-96207419D01*
X95680952Y-96207419D02*
X95585714Y-96207419D01*
X96395238Y-95302657D02*
X96442857Y-95255038D01*
X96442857Y-95255038D02*
X96538095Y-95207419D01*
X96538095Y-95207419D02*
X96776190Y-95207419D01*
X96776190Y-95207419D02*
X96871428Y-95255038D01*
X96871428Y-95255038D02*
X96919047Y-95302657D01*
X96919047Y-95302657D02*
X96966666Y-95397895D01*
X96966666Y-95397895D02*
X96966666Y-95493133D01*
X96966666Y-95493133D02*
X96919047Y-95635990D01*
X96919047Y-95635990D02*
X96347619Y-96207419D01*
X96347619Y-96207419D02*
X96966666Y-96207419D01*
D11*
X105404761Y-79050057D02*
X105309523Y-79002438D01*
X105309523Y-79002438D02*
X105214285Y-78907200D01*
X105214285Y-78907200D02*
X105071428Y-78764342D01*
X105071428Y-78764342D02*
X104976190Y-78716723D01*
X104976190Y-78716723D02*
X104880952Y-78716723D01*
X104928571Y-78954819D02*
X104833333Y-78907200D01*
X104833333Y-78907200D02*
X104738095Y-78811961D01*
X104738095Y-78811961D02*
X104690476Y-78621485D01*
X104690476Y-78621485D02*
X104690476Y-78288152D01*
X104690476Y-78288152D02*
X104738095Y-78097676D01*
X104738095Y-78097676D02*
X104833333Y-78002438D01*
X104833333Y-78002438D02*
X104928571Y-77954819D01*
X104928571Y-77954819D02*
X105119047Y-77954819D01*
X105119047Y-77954819D02*
X105214285Y-78002438D01*
X105214285Y-78002438D02*
X105309523Y-78097676D01*
X105309523Y-78097676D02*
X105357142Y-78288152D01*
X105357142Y-78288152D02*
X105357142Y-78621485D01*
X105357142Y-78621485D02*
X105309523Y-78811961D01*
X105309523Y-78811961D02*
X105214285Y-78907200D01*
X105214285Y-78907200D02*
X105119047Y-78954819D01*
X105119047Y-78954819D02*
X104928571Y-78954819D01*
X106309523Y-78954819D02*
X105738095Y-78954819D01*
X106023809Y-78954819D02*
X106023809Y-77954819D01*
X106023809Y-77954819D02*
X105928571Y-78097676D01*
X105928571Y-78097676D02*
X105833333Y-78192914D01*
X105833333Y-78192914D02*
X105738095Y-78240533D01*
D10*
X132092580Y-107738095D02*
X131283057Y-107738095D01*
X131283057Y-107738095D02*
X131187819Y-107785714D01*
X131187819Y-107785714D02*
X131140200Y-107833333D01*
X131140200Y-107833333D02*
X131092580Y-107928571D01*
X131092580Y-107928571D02*
X131092580Y-108119047D01*
X131092580Y-108119047D02*
X131140200Y-108214285D01*
X131140200Y-108214285D02*
X131187819Y-108261904D01*
X131187819Y-108261904D02*
X131283057Y-108309523D01*
X131283057Y-108309523D02*
X132092580Y-108309523D01*
X132092580Y-109261904D02*
X132092580Y-108785714D01*
X132092580Y-108785714D02*
X131616390Y-108738095D01*
X131616390Y-108738095D02*
X131664009Y-108785714D01*
X131664009Y-108785714D02*
X131711628Y-108880952D01*
X131711628Y-108880952D02*
X131711628Y-109119047D01*
X131711628Y-109119047D02*
X131664009Y-109214285D01*
X131664009Y-109214285D02*
X131616390Y-109261904D01*
X131616390Y-109261904D02*
X131521152Y-109309523D01*
X131521152Y-109309523D02*
X131283057Y-109309523D01*
X131283057Y-109309523D02*
X131187819Y-109261904D01*
X131187819Y-109261904D02*
X131140200Y-109214285D01*
X131140200Y-109214285D02*
X131092580Y-109119047D01*
X131092580Y-109119047D02*
X131092580Y-108880952D01*
X131092580Y-108880952D02*
X131140200Y-108785714D01*
X131140200Y-108785714D02*
X131187819Y-108738095D01*
D11*
X90845180Y-88166666D02*
X90130895Y-88166666D01*
X90130895Y-88166666D02*
X89988038Y-88119047D01*
X89988038Y-88119047D02*
X89892800Y-88023809D01*
X89892800Y-88023809D02*
X89845180Y-87880952D01*
X89845180Y-87880952D02*
X89845180Y-87785714D01*
X89845180Y-89166666D02*
X89845180Y-88595238D01*
X89845180Y-88880952D02*
X90845180Y-88880952D01*
X90845180Y-88880952D02*
X90702323Y-88785714D01*
X90702323Y-88785714D02*
X90607085Y-88690476D01*
X90607085Y-88690476D02*
X90559466Y-88595238D01*
X104436905Y-103524819D02*
X104436905Y-102524819D01*
X104436905Y-102524819D02*
X104675000Y-102524819D01*
X104675000Y-102524819D02*
X104817857Y-102572438D01*
X104817857Y-102572438D02*
X104913095Y-102667676D01*
X104913095Y-102667676D02*
X104960714Y-102762914D01*
X104960714Y-102762914D02*
X105008333Y-102953390D01*
X105008333Y-102953390D02*
X105008333Y-103096247D01*
X105008333Y-103096247D02*
X104960714Y-103286723D01*
X104960714Y-103286723D02*
X104913095Y-103381961D01*
X104913095Y-103381961D02*
X104817857Y-103477200D01*
X104817857Y-103477200D02*
X104675000Y-103524819D01*
X104675000Y-103524819D02*
X104436905Y-103524819D01*
X105865476Y-102858152D02*
X105865476Y-103524819D01*
X105627381Y-102477200D02*
X105389286Y-103191485D01*
X105389286Y-103191485D02*
X106008333Y-103191485D01*
D10*
X117038095Y-72482419D02*
X117038095Y-73291942D01*
X117038095Y-73291942D02*
X117085714Y-73387180D01*
X117085714Y-73387180D02*
X117133333Y-73434800D01*
X117133333Y-73434800D02*
X117228571Y-73482419D01*
X117228571Y-73482419D02*
X117419047Y-73482419D01*
X117419047Y-73482419D02*
X117514285Y-73434800D01*
X117514285Y-73434800D02*
X117561904Y-73387180D01*
X117561904Y-73387180D02*
X117609523Y-73291942D01*
X117609523Y-73291942D02*
X117609523Y-72482419D01*
X118514285Y-72482419D02*
X118323809Y-72482419D01*
X118323809Y-72482419D02*
X118228571Y-72530038D01*
X118228571Y-72530038D02*
X118180952Y-72577657D01*
X118180952Y-72577657D02*
X118085714Y-72720514D01*
X118085714Y-72720514D02*
X118038095Y-72910990D01*
X118038095Y-72910990D02*
X118038095Y-73291942D01*
X118038095Y-73291942D02*
X118085714Y-73387180D01*
X118085714Y-73387180D02*
X118133333Y-73434800D01*
X118133333Y-73434800D02*
X118228571Y-73482419D01*
X118228571Y-73482419D02*
X118419047Y-73482419D01*
X118419047Y-73482419D02*
X118514285Y-73434800D01*
X118514285Y-73434800D02*
X118561904Y-73387180D01*
X118561904Y-73387180D02*
X118609523Y-73291942D01*
X118609523Y-73291942D02*
X118609523Y-73053847D01*
X118609523Y-73053847D02*
X118561904Y-72958609D01*
X118561904Y-72958609D02*
X118514285Y-72910990D01*
X118514285Y-72910990D02*
X118419047Y-72863371D01*
X118419047Y-72863371D02*
X118228571Y-72863371D01*
X118228571Y-72863371D02*
X118133333Y-72910990D01*
X118133333Y-72910990D02*
X118085714Y-72958609D01*
X118085714Y-72958609D02*
X118038095Y-73053847D01*
%TO.C,U1*%
X146360000Y-114580000D02*
X134930000Y-114580000D01*
X134930000Y-93580000D02*
X134930000Y-114580000D01*
X134930000Y-93580000D02*
X146360000Y-93580000D01*
X146360000Y-93580000D02*
X146360000Y-114580000D01*
%TO.C,SW1*%
X105800000Y-111650000D02*
X97800000Y-111650000D01*
X105800000Y-106650000D02*
X105800000Y-111650000D01*
X97800000Y-111650000D02*
X97800000Y-106650000D01*
X97800000Y-106650000D02*
X105800000Y-106650000D01*
D12*
%TO.C,D3*%
X102460000Y-99235000D02*
X102460000Y-97765000D01*
X102460000Y-97765000D02*
X100000000Y-97765000D01*
X100000000Y-99235000D02*
X102460000Y-99235000D01*
%TO.C,D6*%
X106100000Y-97765000D02*
X103640000Y-97765000D01*
X103640000Y-99235000D02*
X106100000Y-99235000D01*
X103640000Y-97765000D02*
X103640000Y-99235000D01*
D10*
%TO.C,SW2*%
X107650000Y-87250000D02*
X98650000Y-87250000D01*
X107650000Y-82750000D02*
X107650000Y-87250000D01*
X99650000Y-82750000D02*
X107650000Y-82750000D01*
X98650000Y-87250000D02*
X98650000Y-82750000D01*
X98650000Y-82750000D02*
X99650000Y-82750000D01*
D12*
%TO.C,D1*%
X101600000Y-103765000D02*
X99140000Y-103765000D01*
X99140000Y-105235000D02*
X101600000Y-105235000D01*
X99140000Y-103765000D02*
X99140000Y-105235000D01*
%TO.C,D5*%
X105975000Y-100765000D02*
X103515000Y-100765000D01*
X103515000Y-102235000D02*
X105975000Y-102235000D01*
X103515000Y-100765000D02*
X103515000Y-102235000D01*
%TO.C,Q2*%
X101030000Y-77615000D02*
X100700000Y-77375000D01*
X101030000Y-77135000D01*
X101030000Y-77615000D01*
G36*
X101030000Y-77615000D02*
G01*
X100700000Y-77375000D01*
X101030000Y-77135000D01*
X101030000Y-77615000D01*
G37*
X100720000Y-79155000D02*
X100050000Y-79155000D01*
X100720000Y-77745000D02*
X100720000Y-79155000D01*
X99050000Y-79155000D02*
X98390000Y-79155000D01*
X98390000Y-77745000D02*
X98390000Y-79155000D01*
%TO.C,D2*%
X102460000Y-102235000D02*
X102460000Y-100765000D01*
X102460000Y-100765000D02*
X100000000Y-100765000D01*
X100000000Y-102235000D02*
X102460000Y-102235000D01*
D10*
%TO.C,SW3*%
X107650000Y-93600000D02*
X98650000Y-93600000D01*
X107650000Y-89100000D02*
X107650000Y-93600000D01*
X99650000Y-89100000D02*
X107650000Y-89100000D01*
X98650000Y-93600000D02*
X98650000Y-89100000D01*
X98650000Y-89100000D02*
X99650000Y-89100000D01*
%TO.C,J2*%
X97550000Y-104625000D02*
X97550000Y-99625000D01*
X97550000Y-99625000D02*
X97550000Y-94625000D01*
X97550000Y-94625000D02*
X84050000Y-94625000D01*
X84050000Y-104625000D02*
X97550000Y-104625000D01*
X84050000Y-94625000D02*
X84050000Y-104625000D01*
D12*
%TO.C,Q1*%
X104780000Y-77615000D02*
X104450000Y-77375000D01*
X104780000Y-77135000D01*
X104780000Y-77615000D01*
G36*
X104780000Y-77615000D02*
G01*
X104450000Y-77375000D01*
X104780000Y-77135000D01*
X104780000Y-77615000D01*
G37*
X104470000Y-79155000D02*
X103800000Y-79155000D01*
X104470000Y-77745000D02*
X104470000Y-79155000D01*
X102800000Y-79155000D02*
X102140000Y-79155000D01*
X102140000Y-77745000D02*
X102140000Y-79155000D01*
D10*
%TO.C,U5*%
X132605000Y-113510000D02*
X132605000Y-93490000D01*
X111995000Y-113510000D02*
X132605000Y-113510000D01*
X111995000Y-93490000D02*
X132605000Y-93490000D01*
X111995000Y-93490000D02*
X111995000Y-113510000D01*
D12*
%TO.C,J1*%
X91475000Y-90420000D02*
X93175000Y-90420000D01*
X91475000Y-81080000D02*
X93175000Y-81080000D01*
%TO.C,D4*%
X105975000Y-103765000D02*
X103515000Y-103765000D01*
X103515000Y-105235000D02*
X105975000Y-105235000D01*
X103515000Y-103765000D02*
X103515000Y-105235000D01*
D10*
%TO.C,U6*%
X115300000Y-71525000D02*
X115300000Y-91525000D01*
X115300000Y-91525000D02*
X145300000Y-91525000D01*
X145300000Y-71525000D02*
X115300000Y-71525000D01*
X145300000Y-91525000D02*
X145300000Y-71525000D01*
%TD*%
M02*
