%TF.GenerationSoftware,KiCad,Pcbnew,8.0.6*%
%TF.CreationDate,2024-12-20T11:49:08+09:00*%
%TF.ProjectId,PCB,5043422e-6b69-4636-9164-5f7063625858,rev?*%
%TF.SameCoordinates,Original*%
%TF.FileFunction,Legend,Top*%
%TF.FilePolarity,Positive*%
%FSLAX46Y46*%
G04 Gerber Fmt 4.6, Leading zero omitted, Abs format (unit mm)*
G04 Created by KiCad (PCBNEW 8.0.6) date 2024-12-20 11:49:08*
%MOMM*%
%LPD*%
G01*
G04 APERTURE LIST*
%ADD10C,0.100000*%
%ADD11C,0.150000*%
%ADD12C,0.120000*%
G04 APERTURE END LIST*
D10*
X103966667Y-110259800D02*
X104109524Y-110307419D01*
X104109524Y-110307419D02*
X104347619Y-110307419D01*
X104347619Y-110307419D02*
X104442857Y-110259800D01*
X104442857Y-110259800D02*
X104490476Y-110212180D01*
X104490476Y-110212180D02*
X104538095Y-110116942D01*
X104538095Y-110116942D02*
X104538095Y-110021704D01*
X104538095Y-110021704D02*
X104490476Y-109926466D01*
X104490476Y-109926466D02*
X104442857Y-109878847D01*
X104442857Y-109878847D02*
X104347619Y-109831228D01*
X104347619Y-109831228D02*
X104157143Y-109783609D01*
X104157143Y-109783609D02*
X104061905Y-109735990D01*
X104061905Y-109735990D02*
X104014286Y-109688371D01*
X104014286Y-109688371D02*
X103966667Y-109593133D01*
X103966667Y-109593133D02*
X103966667Y-109497895D01*
X103966667Y-109497895D02*
X104014286Y-109402657D01*
X104014286Y-109402657D02*
X104061905Y-109355038D01*
X104061905Y-109355038D02*
X104157143Y-109307419D01*
X104157143Y-109307419D02*
X104395238Y-109307419D01*
X104395238Y-109307419D02*
X104538095Y-109355038D01*
X104871429Y-109307419D02*
X105109524Y-110307419D01*
X105109524Y-110307419D02*
X105300000Y-109593133D01*
X105300000Y-109593133D02*
X105490476Y-110307419D01*
X105490476Y-110307419D02*
X105728572Y-109307419D01*
X106633333Y-110307419D02*
X106061905Y-110307419D01*
X106347619Y-110307419D02*
X106347619Y-109307419D01*
X106347619Y-109307419D02*
X106252381Y-109450276D01*
X106252381Y-109450276D02*
X106157143Y-109545514D01*
X106157143Y-109545514D02*
X106061905Y-109593133D01*
D11*
X100186905Y-97454819D02*
X100186905Y-96454819D01*
X100186905Y-96454819D02*
X100425000Y-96454819D01*
X100425000Y-96454819D02*
X100567857Y-96502438D01*
X100567857Y-96502438D02*
X100663095Y-96597676D01*
X100663095Y-96597676D02*
X100710714Y-96692914D01*
X100710714Y-96692914D02*
X100758333Y-96883390D01*
X100758333Y-96883390D02*
X100758333Y-97026247D01*
X100758333Y-97026247D02*
X100710714Y-97216723D01*
X100710714Y-97216723D02*
X100663095Y-97311961D01*
X100663095Y-97311961D02*
X100567857Y-97407200D01*
X100567857Y-97407200D02*
X100425000Y-97454819D01*
X100425000Y-97454819D02*
X100186905Y-97454819D01*
X101091667Y-96454819D02*
X101710714Y-96454819D01*
X101710714Y-96454819D02*
X101377381Y-96835771D01*
X101377381Y-96835771D02*
X101520238Y-96835771D01*
X101520238Y-96835771D02*
X101615476Y-96883390D01*
X101615476Y-96883390D02*
X101663095Y-96931009D01*
X101663095Y-96931009D02*
X101710714Y-97026247D01*
X101710714Y-97026247D02*
X101710714Y-97264342D01*
X101710714Y-97264342D02*
X101663095Y-97359580D01*
X101663095Y-97359580D02*
X101615476Y-97407200D01*
X101615476Y-97407200D02*
X101520238Y-97454819D01*
X101520238Y-97454819D02*
X101234524Y-97454819D01*
X101234524Y-97454819D02*
X101139286Y-97407200D01*
X101139286Y-97407200D02*
X101091667Y-97359580D01*
D10*
X117038095Y-72482419D02*
X117038095Y-73291942D01*
X117038095Y-73291942D02*
X117085714Y-73387180D01*
X117085714Y-73387180D02*
X117133333Y-73434800D01*
X117133333Y-73434800D02*
X117228571Y-73482419D01*
X117228571Y-73482419D02*
X117419047Y-73482419D01*
X117419047Y-73482419D02*
X117514285Y-73434800D01*
X117514285Y-73434800D02*
X117561904Y-73387180D01*
X117561904Y-73387180D02*
X117609523Y-73291942D01*
X117609523Y-73291942D02*
X117609523Y-72482419D01*
X118514285Y-72482419D02*
X118323809Y-72482419D01*
X118323809Y-72482419D02*
X118228571Y-72530038D01*
X118228571Y-72530038D02*
X118180952Y-72577657D01*
X118180952Y-72577657D02*
X118085714Y-72720514D01*
X118085714Y-72720514D02*
X118038095Y-72910990D01*
X118038095Y-72910990D02*
X118038095Y-73291942D01*
X118038095Y-73291942D02*
X118085714Y-73387180D01*
X118085714Y-73387180D02*
X118133333Y-73434800D01*
X118133333Y-73434800D02*
X118228571Y-73482419D01*
X118228571Y-73482419D02*
X118419047Y-73482419D01*
X118419047Y-73482419D02*
X118514285Y-73434800D01*
X118514285Y-73434800D02*
X118561904Y-73387180D01*
X118561904Y-73387180D02*
X118609523Y-73291942D01*
X118609523Y-73291942D02*
X118609523Y-73053847D01*
X118609523Y-73053847D02*
X118561904Y-72958609D01*
X118561904Y-72958609D02*
X118514285Y-72910990D01*
X118514285Y-72910990D02*
X118419047Y-72863371D01*
X118419047Y-72863371D02*
X118228571Y-72863371D01*
X118228571Y-72863371D02*
X118133333Y-72910990D01*
X118133333Y-72910990D02*
X118085714Y-72958609D01*
X118085714Y-72958609D02*
X118038095Y-73053847D01*
D11*
X104561905Y-97524819D02*
X104561905Y-96524819D01*
X104561905Y-96524819D02*
X104800000Y-96524819D01*
X104800000Y-96524819D02*
X104942857Y-96572438D01*
X104942857Y-96572438D02*
X105038095Y-96667676D01*
X105038095Y-96667676D02*
X105085714Y-96762914D01*
X105085714Y-96762914D02*
X105133333Y-96953390D01*
X105133333Y-96953390D02*
X105133333Y-97096247D01*
X105133333Y-97096247D02*
X105085714Y-97286723D01*
X105085714Y-97286723D02*
X105038095Y-97381961D01*
X105038095Y-97381961D02*
X104942857Y-97477200D01*
X104942857Y-97477200D02*
X104800000Y-97524819D01*
X104800000Y-97524819D02*
X104561905Y-97524819D01*
X105990476Y-96524819D02*
X105800000Y-96524819D01*
X105800000Y-96524819D02*
X105704762Y-96572438D01*
X105704762Y-96572438D02*
X105657143Y-96620057D01*
X105657143Y-96620057D02*
X105561905Y-96762914D01*
X105561905Y-96762914D02*
X105514286Y-96953390D01*
X105514286Y-96953390D02*
X105514286Y-97334342D01*
X105514286Y-97334342D02*
X105561905Y-97429580D01*
X105561905Y-97429580D02*
X105609524Y-97477200D01*
X105609524Y-97477200D02*
X105704762Y-97524819D01*
X105704762Y-97524819D02*
X105895238Y-97524819D01*
X105895238Y-97524819D02*
X105990476Y-97477200D01*
X105990476Y-97477200D02*
X106038095Y-97429580D01*
X106038095Y-97429580D02*
X106085714Y-97334342D01*
X106085714Y-97334342D02*
X106085714Y-97096247D01*
X106085714Y-97096247D02*
X106038095Y-97001009D01*
X106038095Y-97001009D02*
X105990476Y-96953390D01*
X105990476Y-96953390D02*
X105895238Y-96905771D01*
X105895238Y-96905771D02*
X105704762Y-96905771D01*
X105704762Y-96905771D02*
X105609524Y-96953390D01*
X105609524Y-96953390D02*
X105561905Y-97001009D01*
X105561905Y-97001009D02*
X105514286Y-97096247D01*
D10*
X148422580Y-94658095D02*
X147613057Y-94658095D01*
X147613057Y-94658095D02*
X147517819Y-94705714D01*
X147517819Y-94705714D02*
X147470200Y-94753333D01*
X147470200Y-94753333D02*
X147422580Y-94848571D01*
X147422580Y-94848571D02*
X147422580Y-95039047D01*
X147422580Y-95039047D02*
X147470200Y-95134285D01*
X147470200Y-95134285D02*
X147517819Y-95181904D01*
X147517819Y-95181904D02*
X147613057Y-95229523D01*
X147613057Y-95229523D02*
X148422580Y-95229523D01*
X147422580Y-96229523D02*
X147422580Y-95658095D01*
X147422580Y-95943809D02*
X148422580Y-95943809D01*
X148422580Y-95943809D02*
X148279723Y-95848571D01*
X148279723Y-95848571D02*
X148184485Y-95753333D01*
X148184485Y-95753333D02*
X148136866Y-95658095D01*
D11*
X97261905Y-104954819D02*
X97261905Y-103954819D01*
X97261905Y-103954819D02*
X97500000Y-103954819D01*
X97500000Y-103954819D02*
X97642857Y-104002438D01*
X97642857Y-104002438D02*
X97738095Y-104097676D01*
X97738095Y-104097676D02*
X97785714Y-104192914D01*
X97785714Y-104192914D02*
X97833333Y-104383390D01*
X97833333Y-104383390D02*
X97833333Y-104526247D01*
X97833333Y-104526247D02*
X97785714Y-104716723D01*
X97785714Y-104716723D02*
X97738095Y-104811961D01*
X97738095Y-104811961D02*
X97642857Y-104907200D01*
X97642857Y-104907200D02*
X97500000Y-104954819D01*
X97500000Y-104954819D02*
X97261905Y-104954819D01*
X98785714Y-104954819D02*
X98214286Y-104954819D01*
X98500000Y-104954819D02*
X98500000Y-103954819D01*
X98500000Y-103954819D02*
X98404762Y-104097676D01*
X98404762Y-104097676D02*
X98309524Y-104192914D01*
X98309524Y-104192914D02*
X98214286Y-104240533D01*
X104436905Y-100524819D02*
X104436905Y-99524819D01*
X104436905Y-99524819D02*
X104675000Y-99524819D01*
X104675000Y-99524819D02*
X104817857Y-99572438D01*
X104817857Y-99572438D02*
X104913095Y-99667676D01*
X104913095Y-99667676D02*
X104960714Y-99762914D01*
X104960714Y-99762914D02*
X105008333Y-99953390D01*
X105008333Y-99953390D02*
X105008333Y-100096247D01*
X105008333Y-100096247D02*
X104960714Y-100286723D01*
X104960714Y-100286723D02*
X104913095Y-100381961D01*
X104913095Y-100381961D02*
X104817857Y-100477200D01*
X104817857Y-100477200D02*
X104675000Y-100524819D01*
X104675000Y-100524819D02*
X104436905Y-100524819D01*
X105913095Y-99524819D02*
X105436905Y-99524819D01*
X105436905Y-99524819D02*
X105389286Y-100001009D01*
X105389286Y-100001009D02*
X105436905Y-99953390D01*
X105436905Y-99953390D02*
X105532143Y-99905771D01*
X105532143Y-99905771D02*
X105770238Y-99905771D01*
X105770238Y-99905771D02*
X105865476Y-99953390D01*
X105865476Y-99953390D02*
X105913095Y-100001009D01*
X105913095Y-100001009D02*
X105960714Y-100096247D01*
X105960714Y-100096247D02*
X105960714Y-100334342D01*
X105960714Y-100334342D02*
X105913095Y-100429580D01*
X105913095Y-100429580D02*
X105865476Y-100477200D01*
X105865476Y-100477200D02*
X105770238Y-100524819D01*
X105770238Y-100524819D02*
X105532143Y-100524819D01*
X105532143Y-100524819D02*
X105436905Y-100477200D01*
X105436905Y-100477200D02*
X105389286Y-100429580D01*
X101204761Y-77800057D02*
X101109523Y-77752438D01*
X101109523Y-77752438D02*
X101014285Y-77657200D01*
X101014285Y-77657200D02*
X100871428Y-77514342D01*
X100871428Y-77514342D02*
X100776190Y-77466723D01*
X100776190Y-77466723D02*
X100680952Y-77466723D01*
X100728571Y-77704819D02*
X100633333Y-77657200D01*
X100633333Y-77657200D02*
X100538095Y-77561961D01*
X100538095Y-77561961D02*
X100490476Y-77371485D01*
X100490476Y-77371485D02*
X100490476Y-77038152D01*
X100490476Y-77038152D02*
X100538095Y-76847676D01*
X100538095Y-76847676D02*
X100633333Y-76752438D01*
X100633333Y-76752438D02*
X100728571Y-76704819D01*
X100728571Y-76704819D02*
X100919047Y-76704819D01*
X100919047Y-76704819D02*
X101014285Y-76752438D01*
X101014285Y-76752438D02*
X101109523Y-76847676D01*
X101109523Y-76847676D02*
X101157142Y-77038152D01*
X101157142Y-77038152D02*
X101157142Y-77371485D01*
X101157142Y-77371485D02*
X101109523Y-77561961D01*
X101109523Y-77561961D02*
X101014285Y-77657200D01*
X101014285Y-77657200D02*
X100919047Y-77704819D01*
X100919047Y-77704819D02*
X100728571Y-77704819D01*
X101538095Y-76800057D02*
X101585714Y-76752438D01*
X101585714Y-76752438D02*
X101680952Y-76704819D01*
X101680952Y-76704819D02*
X101919047Y-76704819D01*
X101919047Y-76704819D02*
X102014285Y-76752438D01*
X102014285Y-76752438D02*
X102061904Y-76800057D01*
X102061904Y-76800057D02*
X102109523Y-76895295D01*
X102109523Y-76895295D02*
X102109523Y-76990533D01*
X102109523Y-76990533D02*
X102061904Y-77133390D01*
X102061904Y-77133390D02*
X101490476Y-77704819D01*
X101490476Y-77704819D02*
X102109523Y-77704819D01*
X100061905Y-100454819D02*
X100061905Y-99454819D01*
X100061905Y-99454819D02*
X100300000Y-99454819D01*
X100300000Y-99454819D02*
X100442857Y-99502438D01*
X100442857Y-99502438D02*
X100538095Y-99597676D01*
X100538095Y-99597676D02*
X100585714Y-99692914D01*
X100585714Y-99692914D02*
X100633333Y-99883390D01*
X100633333Y-99883390D02*
X100633333Y-100026247D01*
X100633333Y-100026247D02*
X100585714Y-100216723D01*
X100585714Y-100216723D02*
X100538095Y-100311961D01*
X100538095Y-100311961D02*
X100442857Y-100407200D01*
X100442857Y-100407200D02*
X100300000Y-100454819D01*
X100300000Y-100454819D02*
X100061905Y-100454819D01*
X101014286Y-99550057D02*
X101061905Y-99502438D01*
X101061905Y-99502438D02*
X101157143Y-99454819D01*
X101157143Y-99454819D02*
X101395238Y-99454819D01*
X101395238Y-99454819D02*
X101490476Y-99502438D01*
X101490476Y-99502438D02*
X101538095Y-99550057D01*
X101538095Y-99550057D02*
X101585714Y-99645295D01*
X101585714Y-99645295D02*
X101585714Y-99740533D01*
X101585714Y-99740533D02*
X101538095Y-99883390D01*
X101538095Y-99883390D02*
X100966667Y-100454819D01*
X100966667Y-100454819D02*
X101585714Y-100454819D01*
D10*
X101816667Y-91759800D02*
X101959524Y-91807419D01*
X101959524Y-91807419D02*
X102197619Y-91807419D01*
X102197619Y-91807419D02*
X102292857Y-91759800D01*
X102292857Y-91759800D02*
X102340476Y-91712180D01*
X102340476Y-91712180D02*
X102388095Y-91616942D01*
X102388095Y-91616942D02*
X102388095Y-91521704D01*
X102388095Y-91521704D02*
X102340476Y-91426466D01*
X102340476Y-91426466D02*
X102292857Y-91378847D01*
X102292857Y-91378847D02*
X102197619Y-91331228D01*
X102197619Y-91331228D02*
X102007143Y-91283609D01*
X102007143Y-91283609D02*
X101911905Y-91235990D01*
X101911905Y-91235990D02*
X101864286Y-91188371D01*
X101864286Y-91188371D02*
X101816667Y-91093133D01*
X101816667Y-91093133D02*
X101816667Y-90997895D01*
X101816667Y-90997895D02*
X101864286Y-90902657D01*
X101864286Y-90902657D02*
X101911905Y-90855038D01*
X101911905Y-90855038D02*
X102007143Y-90807419D01*
X102007143Y-90807419D02*
X102245238Y-90807419D01*
X102245238Y-90807419D02*
X102388095Y-90855038D01*
X102721429Y-90807419D02*
X102959524Y-91807419D01*
X102959524Y-91807419D02*
X103150000Y-91093133D01*
X103150000Y-91093133D02*
X103340476Y-91807419D01*
X103340476Y-91807419D02*
X103578572Y-90807419D01*
X103864286Y-90807419D02*
X104483333Y-90807419D01*
X104483333Y-90807419D02*
X104150000Y-91188371D01*
X104150000Y-91188371D02*
X104292857Y-91188371D01*
X104292857Y-91188371D02*
X104388095Y-91235990D01*
X104388095Y-91235990D02*
X104435714Y-91283609D01*
X104435714Y-91283609D02*
X104483333Y-91378847D01*
X104483333Y-91378847D02*
X104483333Y-91616942D01*
X104483333Y-91616942D02*
X104435714Y-91712180D01*
X104435714Y-91712180D02*
X104388095Y-91759800D01*
X104388095Y-91759800D02*
X104292857Y-91807419D01*
X104292857Y-91807419D02*
X104007143Y-91807419D01*
X104007143Y-91807419D02*
X103911905Y-91759800D01*
X103911905Y-91759800D02*
X103864286Y-91712180D01*
D11*
X109704761Y-77800057D02*
X109609523Y-77752438D01*
X109609523Y-77752438D02*
X109514285Y-77657200D01*
X109514285Y-77657200D02*
X109371428Y-77514342D01*
X109371428Y-77514342D02*
X109276190Y-77466723D01*
X109276190Y-77466723D02*
X109180952Y-77466723D01*
X109228571Y-77704819D02*
X109133333Y-77657200D01*
X109133333Y-77657200D02*
X109038095Y-77561961D01*
X109038095Y-77561961D02*
X108990476Y-77371485D01*
X108990476Y-77371485D02*
X108990476Y-77038152D01*
X108990476Y-77038152D02*
X109038095Y-76847676D01*
X109038095Y-76847676D02*
X109133333Y-76752438D01*
X109133333Y-76752438D02*
X109228571Y-76704819D01*
X109228571Y-76704819D02*
X109419047Y-76704819D01*
X109419047Y-76704819D02*
X109514285Y-76752438D01*
X109514285Y-76752438D02*
X109609523Y-76847676D01*
X109609523Y-76847676D02*
X109657142Y-77038152D01*
X109657142Y-77038152D02*
X109657142Y-77371485D01*
X109657142Y-77371485D02*
X109609523Y-77561961D01*
X109609523Y-77561961D02*
X109514285Y-77657200D01*
X109514285Y-77657200D02*
X109419047Y-77704819D01*
X109419047Y-77704819D02*
X109228571Y-77704819D01*
X110609523Y-77704819D02*
X110038095Y-77704819D01*
X110323809Y-77704819D02*
X110323809Y-76704819D01*
X110323809Y-76704819D02*
X110228571Y-76847676D01*
X110228571Y-76847676D02*
X110133333Y-76942914D01*
X110133333Y-76942914D02*
X110038095Y-76990533D01*
D10*
X132297580Y-107738095D02*
X131488057Y-107738095D01*
X131488057Y-107738095D02*
X131392819Y-107785714D01*
X131392819Y-107785714D02*
X131345200Y-107833333D01*
X131345200Y-107833333D02*
X131297580Y-107928571D01*
X131297580Y-107928571D02*
X131297580Y-108119047D01*
X131297580Y-108119047D02*
X131345200Y-108214285D01*
X131345200Y-108214285D02*
X131392819Y-108261904D01*
X131392819Y-108261904D02*
X131488057Y-108309523D01*
X131488057Y-108309523D02*
X132297580Y-108309523D01*
X132297580Y-109261904D02*
X132297580Y-108785714D01*
X132297580Y-108785714D02*
X131821390Y-108738095D01*
X131821390Y-108738095D02*
X131869009Y-108785714D01*
X131869009Y-108785714D02*
X131916628Y-108880952D01*
X131916628Y-108880952D02*
X131916628Y-109119047D01*
X131916628Y-109119047D02*
X131869009Y-109214285D01*
X131869009Y-109214285D02*
X131821390Y-109261904D01*
X131821390Y-109261904D02*
X131726152Y-109309523D01*
X131726152Y-109309523D02*
X131488057Y-109309523D01*
X131488057Y-109309523D02*
X131392819Y-109261904D01*
X131392819Y-109261904D02*
X131345200Y-109214285D01*
X131345200Y-109214285D02*
X131297580Y-109119047D01*
X131297580Y-109119047D02*
X131297580Y-108880952D01*
X131297580Y-108880952D02*
X131345200Y-108785714D01*
X131345200Y-108785714D02*
X131392819Y-108738095D01*
X101766667Y-87809800D02*
X101909524Y-87857419D01*
X101909524Y-87857419D02*
X102147619Y-87857419D01*
X102147619Y-87857419D02*
X102242857Y-87809800D01*
X102242857Y-87809800D02*
X102290476Y-87762180D01*
X102290476Y-87762180D02*
X102338095Y-87666942D01*
X102338095Y-87666942D02*
X102338095Y-87571704D01*
X102338095Y-87571704D02*
X102290476Y-87476466D01*
X102290476Y-87476466D02*
X102242857Y-87428847D01*
X102242857Y-87428847D02*
X102147619Y-87381228D01*
X102147619Y-87381228D02*
X101957143Y-87333609D01*
X101957143Y-87333609D02*
X101861905Y-87285990D01*
X101861905Y-87285990D02*
X101814286Y-87238371D01*
X101814286Y-87238371D02*
X101766667Y-87143133D01*
X101766667Y-87143133D02*
X101766667Y-87047895D01*
X101766667Y-87047895D02*
X101814286Y-86952657D01*
X101814286Y-86952657D02*
X101861905Y-86905038D01*
X101861905Y-86905038D02*
X101957143Y-86857419D01*
X101957143Y-86857419D02*
X102195238Y-86857419D01*
X102195238Y-86857419D02*
X102338095Y-86905038D01*
X102671429Y-86857419D02*
X102909524Y-87857419D01*
X102909524Y-87857419D02*
X103100000Y-87143133D01*
X103100000Y-87143133D02*
X103290476Y-87857419D01*
X103290476Y-87857419D02*
X103528572Y-86857419D01*
X103861905Y-86952657D02*
X103909524Y-86905038D01*
X103909524Y-86905038D02*
X104004762Y-86857419D01*
X104004762Y-86857419D02*
X104242857Y-86857419D01*
X104242857Y-86857419D02*
X104338095Y-86905038D01*
X104338095Y-86905038D02*
X104385714Y-86952657D01*
X104385714Y-86952657D02*
X104433333Y-87047895D01*
X104433333Y-87047895D02*
X104433333Y-87143133D01*
X104433333Y-87143133D02*
X104385714Y-87285990D01*
X104385714Y-87285990D02*
X103814286Y-87857419D01*
X103814286Y-87857419D02*
X104433333Y-87857419D01*
D11*
X90845180Y-88166666D02*
X90130895Y-88166666D01*
X90130895Y-88166666D02*
X89988038Y-88119047D01*
X89988038Y-88119047D02*
X89892800Y-88023809D01*
X89892800Y-88023809D02*
X89845180Y-87880952D01*
X89845180Y-87880952D02*
X89845180Y-87785714D01*
X89845180Y-89166666D02*
X89845180Y-88595238D01*
X89845180Y-88880952D02*
X90845180Y-88880952D01*
X90845180Y-88880952D02*
X90702323Y-88785714D01*
X90702323Y-88785714D02*
X90607085Y-88690476D01*
X90607085Y-88690476D02*
X90559466Y-88595238D01*
X104436905Y-103524819D02*
X104436905Y-102524819D01*
X104436905Y-102524819D02*
X104675000Y-102524819D01*
X104675000Y-102524819D02*
X104817857Y-102572438D01*
X104817857Y-102572438D02*
X104913095Y-102667676D01*
X104913095Y-102667676D02*
X104960714Y-102762914D01*
X104960714Y-102762914D02*
X105008333Y-102953390D01*
X105008333Y-102953390D02*
X105008333Y-103096247D01*
X105008333Y-103096247D02*
X104960714Y-103286723D01*
X104960714Y-103286723D02*
X104913095Y-103381961D01*
X104913095Y-103381961D02*
X104817857Y-103477200D01*
X104817857Y-103477200D02*
X104675000Y-103524819D01*
X104675000Y-103524819D02*
X104436905Y-103524819D01*
X105865476Y-102858152D02*
X105865476Y-103524819D01*
X105627381Y-102477200D02*
X105389286Y-103191485D01*
X105389286Y-103191485D02*
X106008333Y-103191485D01*
D10*
%TO.C,SW1*%
X100900000Y-106950000D02*
X108900000Y-106950000D01*
X100900000Y-111950000D02*
X100900000Y-106950000D01*
X108900000Y-106950000D02*
X108900000Y-111950000D01*
X108900000Y-111950000D02*
X100900000Y-111950000D01*
D12*
%TO.C,D3*%
X100000000Y-99235000D02*
X102460000Y-99235000D01*
X102460000Y-97765000D02*
X100000000Y-97765000D01*
X102460000Y-99235000D02*
X102460000Y-97765000D01*
D10*
%TO.C,U6*%
X115300000Y-71525000D02*
X115300000Y-91525000D01*
X115300000Y-91525000D02*
X145300000Y-91525000D01*
X145300000Y-71525000D02*
X115300000Y-71525000D01*
X145300000Y-91525000D02*
X145300000Y-71525000D01*
D12*
%TO.C,D6*%
X103640000Y-97765000D02*
X103640000Y-99235000D01*
X103640000Y-99235000D02*
X106100000Y-99235000D01*
X106100000Y-97765000D02*
X103640000Y-97765000D01*
D10*
%TO.C,U1*%
X135610000Y-93420000D02*
X135610000Y-114420000D01*
X135610000Y-93420000D02*
X147040000Y-93420000D01*
X147040000Y-93420000D02*
X147040000Y-114420000D01*
X147040000Y-114420000D02*
X135610000Y-114420000D01*
D12*
%TO.C,D1*%
X99140000Y-103765000D02*
X99140000Y-105235000D01*
X99140000Y-105235000D02*
X101600000Y-105235000D01*
X101600000Y-103765000D02*
X99140000Y-103765000D01*
%TO.C,D5*%
X103515000Y-100765000D02*
X103515000Y-102235000D01*
X103515000Y-102235000D02*
X105975000Y-102235000D01*
X105975000Y-100765000D02*
X103515000Y-100765000D01*
%TO.C,Q2*%
X102690000Y-76495000D02*
X102690000Y-77905000D01*
X103350000Y-77905000D02*
X102690000Y-77905000D01*
X105020000Y-76495000D02*
X105020000Y-77905000D01*
X105020000Y-77905000D02*
X104350000Y-77905000D01*
X105330000Y-76365000D02*
X105000000Y-76125000D01*
X105330000Y-75885000D01*
X105330000Y-76365000D01*
G36*
X105330000Y-76365000D02*
G01*
X105000000Y-76125000D01*
X105330000Y-75885000D01*
X105330000Y-76365000D01*
G37*
%TO.C,D2*%
X100000000Y-102235000D02*
X102460000Y-102235000D01*
X102460000Y-100765000D02*
X100000000Y-100765000D01*
X102460000Y-102235000D02*
X102460000Y-100765000D01*
D10*
%TO.C,SW3*%
X101050000Y-91950000D02*
X101050000Y-90850000D01*
X101750000Y-90250000D02*
X104550000Y-90250000D01*
X104550000Y-92450000D02*
X101750000Y-92450000D01*
X105250000Y-90850000D02*
X105250000Y-91950000D01*
D12*
%TO.C,Q1*%
X106440000Y-76495000D02*
X106440000Y-77905000D01*
X107100000Y-77905000D02*
X106440000Y-77905000D01*
X108770000Y-76495000D02*
X108770000Y-77905000D01*
X108770000Y-77905000D02*
X108100000Y-77905000D01*
X109080000Y-76365000D02*
X108750000Y-76125000D01*
X109080000Y-75885000D01*
X109080000Y-76365000D01*
G36*
X109080000Y-76365000D02*
G01*
X108750000Y-76125000D01*
X109080000Y-75885000D01*
X109080000Y-76365000D01*
G37*
D10*
%TO.C,U5*%
X112200000Y-93490000D02*
X112200000Y-113510000D01*
X112200000Y-93490000D02*
X132810000Y-93490000D01*
X112200000Y-113510000D02*
X132810000Y-113510000D01*
X132810000Y-113510000D02*
X132810000Y-93490000D01*
%TO.C,SW2*%
X101000000Y-88000000D02*
X101000000Y-86900000D01*
X101700000Y-86300000D02*
X104500000Y-86300000D01*
X104500000Y-88500000D02*
X101700000Y-88500000D01*
X105200000Y-86900000D02*
X105200000Y-88000000D01*
D12*
%TO.C,J1*%
X91475000Y-81080000D02*
X93175000Y-81080000D01*
X91475000Y-90420000D02*
X93175000Y-90420000D01*
%TO.C,D4*%
X103515000Y-103765000D02*
X103515000Y-105235000D01*
X103515000Y-105235000D02*
X105975000Y-105235000D01*
X105975000Y-103765000D02*
X103515000Y-103765000D01*
%TD*%
M02*
