M48
; DRILL file {KiCad 8.0.8} date 2025-02-16T18:41:12+0900
; FORMAT={-:-/ absolute / metric / decimal}
; #@! TF.CreationDate,2025-02-16T18:41:12+09:00
; #@! TF.GenerationSoftware,Kicad,Pcbnew,8.0.8
; #@! TF.FileFunction,MixedPlating,1,2
FMAT,2
METRIC
; #@! TA.AperFunction,Plated,PTH,ViaDrill
T1C0.300
; #@! TA.AperFunction,Plated,PTH,ComponentDrill
T2C0.500
; #@! TA.AperFunction,Plated,PTH,ComponentDrill
T3C0.550
; #@! TA.AperFunction,Plated,PTH,ComponentDrill
T4C0.800
; #@! TA.AperFunction,Plated,PTH,ComponentDrill
T5C1.100
; #@! TA.AperFunction,NonPlated,NPTH,ComponentDrill
T6C2.200
; #@! TA.AperFunction,NonPlated,NPTH,ComponentDrill
T7C2.700
%
G90
G05
T1
X92.9Y-101.5
X107.2Y-97.5
X107.59Y-87.155
X112.3Y-79.45
X112.3Y-82.55
X113.6Y-104.062
X113.8Y-95.938
X127.4Y-86.138
X131.8Y-69.4
X133.2Y-83.0
X133.2Y-93.0
X134.75Y-87.75
X135.75Y-89.0
X135.9Y-80.6
X136.4Y-92.6
X136.55Y-81.25
X136.8Y-83.2
X138.0Y-70.85
X145.8Y-84.6
X150.5Y-77.8
X150.5Y-80.9
X152.7Y-72.6
X153.35Y-99.85
X155.25Y-80.9
X155.7Y-56.9
X155.7Y-59.4
X155.7Y-69.58
X155.7Y-70.85
X159.2Y-59.2
X163.475Y-72.6
X163.8Y-54.362
X165.1Y-60.5
X165.2Y-72.6
X165.85Y-93.75
X165.9Y-88.85
X168.6Y-57.15
X168.8Y-70.4
X170.6Y-63.612
X172.2Y-55.737
X172.2Y-57.462
X174.7Y-51.8
X178.5Y-71.1
X183.5Y-54.0
X183.6Y-60.4
T2
X126.1Y-54.8
X126.2Y-58.6
X126.2Y-62.6
X130.8Y-54.4
X174.0Y-102.4
X179.0Y-97.0
X179.0Y-102.4
X184.0Y-97.0
X184.0Y-102.5
X189.0Y-97.0
X189.0Y-102.5
T4
X147.2Y-63.3
X147.25Y-60.8
X148.45Y-62.1
X149.65Y-60.8
X149.65Y-63.3
T5
X99.2Y-50.26
X99.2Y-52.8
X99.2Y-55.34
X99.2Y-57.88
X99.2Y-60.42
X99.2Y-62.96
X99.2Y-65.5
X103.49Y-52.81
X103.49Y-55.35
X103.49Y-57.89
X103.49Y-60.43
X103.49Y-62.97
T6
X104.76Y-49.0
X120.0Y-49.0
T7
X91.58Y-50.26
X91.58Y-65.5
T3
G00X131.675Y-88.3
M15
G01X131.275Y-88.3
M16
G05
G00X139.225Y-88.3
M15
G01X138.825Y-88.3
M16
G05
T4
G00X131.49Y-85.23
M15
G01X130.99Y-85.23
M16
G05
G00X131.49Y-91.37
M15
G01X130.99Y-91.37
M16
G05
G00X139.6Y-85.23
M15
G01X139.1Y-85.23
M16
G05
G00X139.6Y-91.37
M15
G01X139.1Y-91.37
M16
G05
M30
