M48
; DRILL file {KiCad 8.0.6} date 2024-11-30T14:11:20+0900
; FORMAT={-:-/ absolute / metric / decimal}
; #@! TF.CreationDate,2024-11-30T14:11:20+09:00
; #@! TF.GenerationSoftware,Kicad,Pcbnew,8.0.6
; #@! TF.FileFunction,MixedPlating,1,2
FMAT,2
METRIC
; #@! TA.AperFunction,Plated,PTH,ViaDrill
T1C0.300
; #@! TA.AperFunction,Plated,PTH,ViaDrill
T2C0.500
; #@! TA.AperFunction,Plated,PTH,ComponentDrill
T3C0.600
; #@! TA.AperFunction,Plated,PTH,ComponentDrill
T4C0.700
; #@! TA.AperFunction,Plated,PTH,ComponentDrill
T5C1.000
; #@! TA.AperFunction,Plated,PTH,ComponentDrill
T6C1.100
; #@! TA.AperFunction,NonPlated,NPTH,ComponentDrill
T7C0.650
; #@! TA.AperFunction,NonPlated,NPTH,ComponentDrill
T8C2.200
; #@! TA.AperFunction,NonPlated,NPTH,ComponentDrill
T9C2.700
; #@! TA.AperFunction,NonPlated,NPTH,ComponentDrill
T10C3.200
%
G90
G05
T1
X92.7Y-84.0
X93.9Y-91.5
X94.05Y-87.3
X96.213Y-86.932
X96.275Y-82.55
X96.4Y-85.6
X97.1Y-92.5
X97.25Y-90.75
X97.27Y-87.021
X97.308Y-90.0
X97.4Y-83.675
X97.65Y-73.425
X98.5Y-92.5
X98.5Y-98.5
X99.4Y-85.2
X100.4Y-108.9
X100.6Y-105.7
X101.1Y-80.6
X101.195Y-86.305
X101.5Y-105.6
X101.65Y-102.8
X102.0Y-77.4
X102.2Y-75.8
X102.2Y-96.1
X102.9Y-98.6
X102.925Y-93.325
X103.1Y-102.0
X104.0Y-80.7
X105.3Y-88.4
X105.55Y-110.15
X106.0Y-94.2
X106.1Y-85.7
X106.75Y-106.3
X107.9Y-81.9
X108.1Y-88.4
X108.5Y-75.1
X108.5Y-83.3
X109.225Y-77.3
X109.225Y-82.6
X109.275Y-72.05
X109.45Y-101.5
X110.052Y-104.8
X110.3Y-98.5
X110.8Y-88.5
X113.0Y-103.2
X116.4Y-101.2
X117.252Y-97.8
X117.9Y-110.5
X119.1Y-87.8
X120.4Y-87.7
X120.9Y-99.4
X121.6Y-87.5
X122.0Y-93.2
X122.875Y-87.45
X125.975Y-86.45
X126.438Y-97.612
X127.1Y-73.8
X127.1Y-75.1
X127.1Y-76.4
X129.1Y-89.8
X130.525Y-86.7
X131.6Y-101.8
X132.7Y-99.5
X134.5Y-86.8
X134.6Y-73.6
X135.9Y-81.9
X137.1Y-87.4
X137.2Y-84.1
X137.3Y-86.3
T2
X96.8Y-107.0
T4
X121.2Y-79.0
X124.3Y-91.525
X125.8Y-91.525
X127.3Y-91.525
X128.8Y-91.525
X130.3Y-91.525
X131.8Y-91.525
X133.3Y-91.525
X134.8Y-91.525
X136.3Y-91.525
T5
X119.95Y-80.2
X120.0Y-77.7
X122.4Y-77.7
X122.4Y-80.2
T6
X116.925Y-112.39
X119.465Y-112.39
X122.005Y-112.39
X124.545Y-112.39
X127.085Y-112.39
X136.2Y-96.46
X136.2Y-99.0
X136.2Y-101.54
X136.2Y-104.08
X136.2Y-106.62
X136.2Y-109.16
X136.2Y-111.7
T7
X93.98Y-82.86
X93.98Y-88.64
T8
X130.895Y-95.88
X130.895Y-111.12
T9
X143.82Y-96.46
X143.82Y-111.7
T10
X93.3Y-74.0
X93.3Y-110.0
X150.8Y-74.0
X150.8Y-109.5
T3
G00X90.7Y-81.43
M15
G01X89.9Y-81.43
M16
G05
G00X90.7Y-90.07
M15
G01X89.9Y-90.07
M16
G05
G00X95.03Y-81.43
M15
G01X93.93Y-81.43
M16
G05
G00X95.03Y-90.07
M15
G01X93.93Y-90.07
M16
G05
T5
G00X90.55Y-100.875
M15
G01X90.55Y-98.375
M16
G05
G00X92.25Y-104.525
M15
G01X94.75Y-104.525
M16
G05
G00X96.55Y-98.375
M15
G01X96.55Y-100.875
M16
G05
M30
