%TF.GenerationSoftware,KiCad,Pcbnew,8.0.8*%
%TF.CreationDate,2025-02-02T16:15:28+09:00*%
%TF.ProjectId,PCB,5043422e-6b69-4636-9164-5f7063625858,rev?*%
%TF.SameCoordinates,Original*%
%TF.FileFunction,Copper,L1,Top*%
%TF.FilePolarity,Positive*%
%FSLAX46Y46*%
G04 Gerber Fmt 4.6, Leading zero omitted, Abs format (unit mm)*
G04 Created by KiCad (PCBNEW 8.0.8) date 2025-02-02 16:15:28*
%MOMM*%
%LPD*%
G01*
G04 APERTURE LIST*
%TA.AperFunction,ComponentPad*%
%ADD10C,1.700000*%
%TD*%
%TA.AperFunction,ComponentPad*%
%ADD11C,1.500000*%
%TD*%
%TA.AperFunction,HeatsinkPad*%
%ADD12C,1.400000*%
%TD*%
%TA.AperFunction,HeatsinkPad*%
%ADD13C,1.300000*%
%TD*%
%TA.AperFunction,ComponentPad*%
%ADD14O,1.700000X1.200000*%
%TD*%
%TA.AperFunction,ComponentPad*%
%ADD15O,1.350000X0.950000*%
%TD*%
%TA.AperFunction,ViaPad*%
%ADD16C,0.450000*%
%TD*%
%TA.AperFunction,ViaPad*%
%ADD17C,0.600000*%
%TD*%
%TA.AperFunction,Conductor*%
%ADD18C,0.152400*%
%TD*%
%TA.AperFunction,Conductor*%
%ADD19C,0.200000*%
%TD*%
%TA.AperFunction,Conductor*%
%ADD20C,0.600000*%
%TD*%
G04 APERTURE END LIST*
D10*
%TO.P,U1,1,SDO*%
%TO.N,GND*%
X99445000Y-65500000D03*
%TO.P,U1,2,SCK*%
%TO.N,ESP32_IO17_SCL*%
X99445000Y-62960000D03*
%TO.P,U1,3,SDI*%
%TO.N,ESP32_IO18_SDA*%
X99445000Y-60420000D03*
%TO.P,U1,4,CSB*%
%TO.N,+3V3*%
X99445000Y-57880000D03*
%TO.P,U1,5,GND*%
%TO.N,GND*%
X99445000Y-55340000D03*
%TO.P,U1,6,V_core*%
%TO.N,+3V3*%
X99445000Y-52800000D03*
%TO.P,U1,7,V_io*%
X99445000Y-50260000D03*
%TD*%
D11*
%TO.P,U5,1,SCL*%
%TO.N,ESP32_IO17_SCL*%
X121890000Y-53115000D03*
%TO.P,U5,2,SDA*%
%TO.N,ESP32_IO18_SDA*%
X121890000Y-55655000D03*
%TO.P,U5,3,IO4*%
%TO.N,unconnected-(U5-IO4-Pad3)*%
X121890000Y-58195000D03*
%TO.P,U5,4,GND*%
%TO.N,GND*%
X121890000Y-60735000D03*
%TO.P,U5,5,3V3*%
%TO.N,+3V3*%
X121890000Y-63275000D03*
%TD*%
D12*
%TO.P,U4,41,GND*%
%TO.N,GND*%
X148000000Y-62200000D03*
X148050000Y-59700000D03*
D13*
X149250000Y-61000000D03*
D12*
X150450000Y-59700000D03*
X150450000Y-62200000D03*
%TD*%
D14*
%TO.P,J1,*%
%TO.N,*%
X131240000Y-85230000D03*
X131240000Y-91370000D03*
D15*
X131475000Y-88300000D03*
X139025000Y-88300000D03*
D14*
X139350000Y-85230000D03*
X139350000Y-91370000D03*
%TD*%
D16*
%TO.N,GND*%
X187250000Y-59625000D03*
X166637500Y-81000000D03*
X171812500Y-88850000D03*
X165750000Y-98250000D03*
D17*
%TO.N,ESP32_IO3*%
X155750000Y-71000000D03*
X180950000Y-61250000D03*
%TO.N,ESP32_IO0*%
X152000000Y-65500000D03*
X174500000Y-59500000D03*
%TO.N,+3V3*%
X165500000Y-53450000D03*
X134500000Y-73550000D03*
X157500000Y-81550000D03*
X168362500Y-73250000D03*
X164250000Y-78250000D03*
D16*
%TO.N,GND*%
X118500000Y-87250000D03*
X112750000Y-83750000D03*
X133450000Y-94400000D03*
X126700000Y-95004390D03*
X111925000Y-97032500D03*
X101000000Y-101000000D03*
D17*
%TO.N,VBUS*%
X134250000Y-83000000D03*
X136528600Y-84500000D03*
%TO.N,ESP32_IO19*%
X135750000Y-89000000D03*
X134750000Y-87750000D03*
D16*
%TO.N,GND*%
X162000000Y-60137500D03*
D17*
%TO.N,ESP32_IO17_SCL*%
X104000000Y-59750000D03*
X104000000Y-62000000D03*
X140750000Y-58250000D03*
X136500000Y-57250000D03*
%TO.N,ESP32_IO18_SDA*%
X136500000Y-58500000D03*
X140750000Y-59250000D03*
%TO.N,ESP32_IO19*%
X154250000Y-73571398D03*
X154250000Y-77500000D03*
%TO.N,ESP32_IO20*%
X155000000Y-77750000D03*
X155625000Y-72625000D03*
%TO.N,ESP32_IO46*%
X152500000Y-73250000D03*
X152750000Y-78450000D03*
%TO.N,ESP32_IO38_EPAPER_RST*%
X151250000Y-76221400D03*
X141000000Y-65750000D03*
%TO.N,ESP32_IO47_EPAPER_BUSY*%
X147000000Y-75000000D03*
X148500000Y-76250000D03*
%TO.N,ESP32_IO13_EPAPER_MOSI*%
X151000000Y-74000000D03*
X149000000Y-74250000D03*
%TD*%
D18*
%TO.N,GND*%
X179000000Y-66750000D02*
X185000000Y-60750000D01*
X179000000Y-86000000D02*
X179000000Y-66750000D01*
X185000000Y-60750000D02*
X186125000Y-60750000D01*
X171812500Y-88850000D02*
X176150000Y-88850000D01*
X176150000Y-88850000D02*
X179000000Y-86000000D01*
X186125000Y-60750000D02*
X187250000Y-59625000D01*
X166637500Y-81000000D02*
X166637500Y-83675000D01*
X166637500Y-83675000D02*
X171812500Y-88850000D01*
X165750000Y-98250000D02*
X169250000Y-98250000D01*
X169250000Y-98250000D02*
X171812500Y-95687500D01*
X171812500Y-95687500D02*
X171812500Y-88850000D01*
D19*
%TO.N,ESP32_IO3*%
X179250000Y-62000000D02*
X180000000Y-61250000D01*
X155750000Y-71000000D02*
X157500000Y-71000000D01*
X157500000Y-71000000D02*
X166500000Y-62000000D01*
X166500000Y-62000000D02*
X179250000Y-62000000D01*
X180000000Y-61250000D02*
X180950000Y-61250000D01*
D18*
%TO.N,ESP32_IO0*%
X152000000Y-65500000D02*
X152250000Y-65500000D01*
X156500000Y-61250000D02*
X159750000Y-61250000D01*
X155000000Y-62750000D02*
X156000000Y-61750000D01*
X156250000Y-61500000D02*
X156500000Y-61250000D01*
X156000000Y-61750000D02*
X156250000Y-61500000D01*
X159750000Y-61250000D02*
X172750000Y-61250000D01*
X172750000Y-61250000D02*
X174500000Y-59500000D01*
X152250000Y-65500000D02*
X155000000Y-62750000D01*
D20*
%TO.N,+3V3*%
X134500000Y-73550000D02*
X134700000Y-73550000D01*
X136000000Y-72250000D02*
X136000000Y-71750000D01*
X134700000Y-73550000D02*
X136000000Y-72250000D01*
X164500000Y-58000000D02*
X165500000Y-57000000D01*
X136000000Y-71750000D02*
X136250000Y-71500000D01*
X136250000Y-71500000D02*
X136250000Y-65750000D01*
X136250000Y-65750000D02*
X141000000Y-61000000D01*
X141000000Y-61000000D02*
X143500000Y-61000000D01*
X143500000Y-61000000D02*
X146500000Y-58000000D01*
X146500000Y-58000000D02*
X164500000Y-58000000D01*
X165500000Y-57000000D02*
X165500000Y-53450000D01*
X157500000Y-81550000D02*
X157050000Y-81550000D01*
X149750000Y-77500000D02*
X138450000Y-77500000D01*
X157050000Y-81550000D02*
X155500000Y-80000000D01*
X155500000Y-80000000D02*
X152250000Y-80000000D01*
X152250000Y-80000000D02*
X149750000Y-77500000D01*
X138450000Y-77500000D02*
X134500000Y-73550000D01*
X164250000Y-78250000D02*
X168362500Y-74137500D01*
X168362500Y-74137500D02*
X168362500Y-73250000D01*
D18*
%TO.N,GND*%
X116250000Y-87250000D02*
X118500000Y-87250000D01*
X112750000Y-83750000D02*
X116250000Y-87250000D01*
X126700000Y-95004390D02*
X132845610Y-95004390D01*
X132845610Y-95004390D02*
X133450000Y-94400000D01*
X101000000Y-101000000D02*
X107000000Y-101000000D01*
X107000000Y-101000000D02*
X110967500Y-97032500D01*
X110967500Y-97032500D02*
X111925000Y-97032500D01*
%TO.N,VBUS*%
X136528600Y-84500000D02*
X136528600Y-84278600D01*
X136528600Y-84278600D02*
X135250000Y-83000000D01*
X135250000Y-83000000D02*
X134250000Y-83000000D01*
%TO.N,ESP32_IO19*%
X135750000Y-88750000D02*
X135750000Y-89000000D01*
X134750000Y-87750000D02*
X135750000Y-88750000D01*
%TO.N,GND*%
X152150000Y-60500000D02*
X160500000Y-60500000D01*
X150450000Y-62200000D02*
X152150000Y-60500000D01*
X160500000Y-60500000D02*
X161000000Y-60000000D01*
X161000000Y-60000000D02*
X161862500Y-60000000D01*
X161862500Y-60000000D02*
X162000000Y-60137500D01*
X99445000Y-65500000D02*
X102750000Y-65500000D01*
X102750000Y-65500000D02*
X109000000Y-59250000D01*
X109000000Y-59250000D02*
X109000000Y-59000000D01*
X121890000Y-60735000D02*
X120155000Y-59000000D01*
X120155000Y-59000000D02*
X109000000Y-59000000D01*
X109000000Y-59000000D02*
X105340000Y-55340000D01*
X105340000Y-55340000D02*
X99445000Y-55340000D01*
%TO.N,ESP32_IO17_SCL*%
X104000000Y-62000000D02*
X104000000Y-59750000D01*
X136500000Y-57250000D02*
X139750000Y-57250000D01*
X139750000Y-57250000D02*
X140750000Y-58250000D01*
%TO.N,ESP32_IO18_SDA*%
X140750000Y-59250000D02*
X137250000Y-59250000D01*
X137250000Y-59250000D02*
X136500000Y-58500000D01*
%TO.N,ESP32_IO20*%
X155625000Y-72625000D02*
X155000000Y-73250000D01*
X155000000Y-73250000D02*
X155000000Y-77750000D01*
%TO.N,ESP32_IO19*%
X154250000Y-77500000D02*
X154250000Y-73571398D01*
%TO.N,ESP32_IO46*%
X152500000Y-73250000D02*
X152750000Y-73500000D01*
X152750000Y-73500000D02*
X152750000Y-78450000D01*
%TO.N,ESP32_IO38_EPAPER_RST*%
X150971400Y-76221400D02*
X151250000Y-76221400D01*
X150500000Y-75750000D02*
X150971400Y-76221400D01*
X141000000Y-65750000D02*
X141000000Y-69750000D01*
X141000000Y-69750000D02*
X142000000Y-70750000D01*
X142000000Y-70750000D02*
X145500000Y-74250000D01*
X146250000Y-74250000D02*
X147500000Y-74250000D01*
X147500000Y-74250000D02*
X148500000Y-75250000D01*
X148500000Y-75250000D02*
X150000000Y-75250000D01*
X150000000Y-75250000D02*
X150500000Y-75750000D01*
X145500000Y-74250000D02*
X146250000Y-74250000D01*
%TO.N,ESP32_IO47_EPAPER_BUSY*%
X148500000Y-76250000D02*
X148250000Y-76250000D01*
X148250000Y-76250000D02*
X147000000Y-75000000D01*
%TO.N,ESP32_IO13_EPAPER_MOSI*%
X150750000Y-74250000D02*
X151000000Y-74000000D01*
X149000000Y-74250000D02*
X150750000Y-74250000D01*
%TD*%
%TA.AperFunction,Conductor*%
%TO.N,GND*%
G36*
X150403554Y-61800000D02*
G01*
X150397339Y-61800000D01*
X150295606Y-61827259D01*
X150204394Y-61879920D01*
X150129920Y-61954394D01*
X150077259Y-62045606D01*
X150050000Y-62147339D01*
X150050000Y-62153554D01*
X149350212Y-61453766D01*
X149350210Y-61453763D01*
X149296447Y-61400000D01*
X149302661Y-61400000D01*
X149404394Y-61372741D01*
X149495606Y-61320080D01*
X149570080Y-61245606D01*
X149622741Y-61154394D01*
X149650000Y-61052661D01*
X149650000Y-61046446D01*
X150403554Y-61800000D01*
G37*
%TD.AperFunction*%
%TA.AperFunction,Conductor*%
G36*
X148850000Y-61052661D02*
G01*
X148877259Y-61154394D01*
X148929920Y-61245606D01*
X149004394Y-61320080D01*
X149095606Y-61372741D01*
X149197339Y-61400000D01*
X149203553Y-61400000D01*
X148582999Y-62020554D01*
X148521676Y-62054039D01*
X148496844Y-62056708D01*
X148400000Y-62153553D01*
X148400000Y-62147339D01*
X148372741Y-62045606D01*
X148320080Y-61954394D01*
X148245606Y-61879920D01*
X148154394Y-61827259D01*
X148052661Y-61800000D01*
X148046445Y-61800000D01*
X148702356Y-61144090D01*
X148763679Y-61110605D01*
X148788511Y-61107935D01*
X148850000Y-61046446D01*
X148850000Y-61052661D01*
G37*
%TD.AperFunction*%
%TA.AperFunction,Conductor*%
G36*
X149080909Y-60377355D02*
G01*
X149114394Y-60438678D01*
X149117228Y-60465036D01*
X149117228Y-60513674D01*
X149203554Y-60600000D01*
X149197339Y-60600000D01*
X149095606Y-60627259D01*
X149004394Y-60679920D01*
X148929920Y-60754394D01*
X148877259Y-60845606D01*
X148850000Y-60947339D01*
X148850000Y-60953553D01*
X148254445Y-60357998D01*
X148220960Y-60296675D01*
X148218126Y-60270317D01*
X148218126Y-60221679D01*
X148096447Y-60100000D01*
X148102661Y-60100000D01*
X148204394Y-60072741D01*
X148295606Y-60020080D01*
X148370080Y-59945606D01*
X148422741Y-59854394D01*
X148450000Y-59752661D01*
X148450000Y-59746446D01*
X149080909Y-60377355D01*
G37*
%TD.AperFunction*%
%TA.AperFunction,Conductor*%
G36*
X150050000Y-59752661D02*
G01*
X150077259Y-59854394D01*
X150129920Y-59945606D01*
X150204394Y-60020080D01*
X150295606Y-60072741D01*
X150397339Y-60100000D01*
X150403554Y-60100000D01*
X150281873Y-60221680D01*
X150281873Y-60270318D01*
X150262188Y-60337357D01*
X150245554Y-60357999D01*
X149650000Y-60953552D01*
X149650000Y-60947339D01*
X149622741Y-60845606D01*
X149570080Y-60754394D01*
X149495606Y-60679920D01*
X149404394Y-60627259D01*
X149302661Y-60600000D01*
X149296446Y-60600000D01*
X149382771Y-60513675D01*
X149382771Y-60465037D01*
X149402456Y-60397998D01*
X149419090Y-60377356D01*
X150050000Y-59746446D01*
X150050000Y-59752661D01*
G37*
%TD.AperFunction*%
%TA.AperFunction,Conductor*%
G36*
X149815861Y-58472585D02*
G01*
X149861616Y-58525389D01*
X149871560Y-58594547D01*
X149842535Y-58658103D01*
X149814099Y-58682327D01*
X149796672Y-58693117D01*
X149796671Y-58693118D01*
X150403554Y-59300000D01*
X150397339Y-59300000D01*
X150295606Y-59327259D01*
X150204394Y-59379920D01*
X150129920Y-59454394D01*
X150077259Y-59545606D01*
X150050000Y-59647339D01*
X150050000Y-59653553D01*
X149441138Y-59044691D01*
X149441137Y-59044691D01*
X149425369Y-59065571D01*
X149361000Y-59194842D01*
X149313497Y-59246079D01*
X149245834Y-59263500D01*
X149179494Y-59241574D01*
X149139000Y-59194842D01*
X149074633Y-59065577D01*
X149074631Y-59065574D01*
X149058860Y-59044691D01*
X148450000Y-59653552D01*
X148450000Y-59647339D01*
X148422741Y-59545606D01*
X148370080Y-59454394D01*
X148295606Y-59379920D01*
X148204394Y-59327259D01*
X148102661Y-59300000D01*
X148096447Y-59300000D01*
X148703327Y-58693118D01*
X148703326Y-58693117D01*
X148685899Y-58682327D01*
X148639263Y-58630299D01*
X148628159Y-58561318D01*
X148656112Y-58497283D01*
X148714247Y-58458527D01*
X148751176Y-58452900D01*
X149748822Y-58452900D01*
X149815861Y-58472585D01*
G37*
%TD.AperFunction*%
%TA.AperFunction,Conductor*%
G36*
X123693039Y-47720185D02*
G01*
X123738794Y-47772989D01*
X123750000Y-47824500D01*
X123750000Y-51750000D01*
X171750000Y-51750000D01*
X171750000Y-47824500D01*
X171769685Y-47757461D01*
X171822489Y-47711706D01*
X171874000Y-47700500D01*
X190175500Y-47700500D01*
X190242539Y-47720185D01*
X190288294Y-47772989D01*
X190299500Y-47824500D01*
X190299500Y-106175500D01*
X190279815Y-106242539D01*
X190227011Y-106288294D01*
X190175500Y-106299500D01*
X166431005Y-106299500D01*
X166295677Y-106326418D01*
X166295667Y-106326421D01*
X166168195Y-106379221D01*
X166168182Y-106379228D01*
X166053458Y-106455885D01*
X166053454Y-106455888D01*
X165955888Y-106553454D01*
X165955885Y-106553458D01*
X165879228Y-106668182D01*
X165879221Y-106668195D01*
X165826421Y-106795667D01*
X165826418Y-106795677D01*
X165799500Y-106931004D01*
X165799500Y-113175500D01*
X165779815Y-113242539D01*
X165727011Y-113288294D01*
X165675500Y-113299500D01*
X115824500Y-113299500D01*
X115757461Y-113279815D01*
X115711706Y-113227011D01*
X115700500Y-113175500D01*
X115700500Y-106931004D01*
X115673581Y-106795677D01*
X115673580Y-106795676D01*
X115673580Y-106795672D01*
X115673578Y-106795667D01*
X115620778Y-106668195D01*
X115620771Y-106668182D01*
X115544114Y-106553458D01*
X115544111Y-106553454D01*
X115446545Y-106455888D01*
X115446541Y-106455885D01*
X115331817Y-106379228D01*
X115331804Y-106379221D01*
X115204332Y-106326421D01*
X115204322Y-106326418D01*
X115068995Y-106299500D01*
X115068993Y-106299500D01*
X89324500Y-106299500D01*
X89257461Y-106279815D01*
X89211706Y-106227011D01*
X89200500Y-106175500D01*
X89200500Y-91295841D01*
X130237100Y-91295841D01*
X130237100Y-91444158D01*
X130266031Y-91589605D01*
X130266033Y-91589613D01*
X130322789Y-91726633D01*
X130405182Y-91849944D01*
X130405188Y-91849951D01*
X130510048Y-91954811D01*
X130510055Y-91954817D01*
X130633366Y-92037210D01*
X130633367Y-92037210D01*
X130633368Y-92037211D01*
X130770387Y-92093967D01*
X130915841Y-92122899D01*
X130915845Y-92122900D01*
X130915846Y-92122900D01*
X131564155Y-92122900D01*
X131564156Y-92122899D01*
X131709613Y-92093967D01*
X131846632Y-92037211D01*
X131969946Y-91954816D01*
X132074816Y-91849946D01*
X132157211Y-91726632D01*
X132213967Y-91589613D01*
X132242900Y-91444154D01*
X132242900Y-91295846D01*
X132242899Y-91295841D01*
X138347100Y-91295841D01*
X138347100Y-91444158D01*
X138376031Y-91589605D01*
X138376033Y-91589613D01*
X138432789Y-91726633D01*
X138515182Y-91849944D01*
X138515188Y-91849951D01*
X138620048Y-91954811D01*
X138620055Y-91954817D01*
X138743366Y-92037210D01*
X138743367Y-92037210D01*
X138743368Y-92037211D01*
X138880387Y-92093967D01*
X139025841Y-92122899D01*
X139025845Y-92122900D01*
X139025846Y-92122900D01*
X139674155Y-92122900D01*
X139674156Y-92122899D01*
X139819613Y-92093967D01*
X139956632Y-92037211D01*
X140079946Y-91954816D01*
X140184816Y-91849946D01*
X140267211Y-91726632D01*
X140323967Y-91589613D01*
X140352900Y-91444154D01*
X140352900Y-91295846D01*
X140323967Y-91150387D01*
X140267211Y-91013368D01*
X140184816Y-90890054D01*
X140184811Y-90890048D01*
X140079951Y-90785188D01*
X140079944Y-90785182D01*
X139956633Y-90702789D01*
X139819613Y-90646033D01*
X139819605Y-90646031D01*
X139674158Y-90617100D01*
X139674154Y-90617100D01*
X139025846Y-90617100D01*
X139025841Y-90617100D01*
X138880394Y-90646031D01*
X138880386Y-90646033D01*
X138743366Y-90702789D01*
X138620055Y-90785182D01*
X138620048Y-90785188D01*
X138515188Y-90890048D01*
X138515182Y-90890055D01*
X138432789Y-91013366D01*
X138376033Y-91150386D01*
X138376031Y-91150394D01*
X138347100Y-91295841D01*
X132242899Y-91295841D01*
X132213967Y-91150387D01*
X132157211Y-91013368D01*
X132074816Y-90890054D01*
X132074811Y-90890048D01*
X131969951Y-90785188D01*
X131969944Y-90785182D01*
X131846633Y-90702789D01*
X131709613Y-90646033D01*
X131709605Y-90646031D01*
X131564158Y-90617100D01*
X131564154Y-90617100D01*
X130915846Y-90617100D01*
X130915841Y-90617100D01*
X130770394Y-90646031D01*
X130770386Y-90646033D01*
X130633366Y-90702789D01*
X130510055Y-90785182D01*
X130510048Y-90785188D01*
X130405188Y-90890048D01*
X130405182Y-90890055D01*
X130322789Y-91013366D01*
X130266033Y-91150386D01*
X130266031Y-91150394D01*
X130237100Y-91295841D01*
X89200500Y-91295841D01*
X89200500Y-88238152D01*
X130647100Y-88238152D01*
X130647100Y-88361847D01*
X130671228Y-88483144D01*
X130671231Y-88483156D01*
X130718560Y-88597420D01*
X130718562Y-88597423D01*
X130787274Y-88700258D01*
X130787280Y-88700266D01*
X130874733Y-88787719D01*
X130874741Y-88787725D01*
X130977576Y-88856437D01*
X130977579Y-88856439D01*
X131091843Y-88903768D01*
X131091848Y-88903770D01*
X131213152Y-88927899D01*
X131213155Y-88927900D01*
X131213157Y-88927900D01*
X131736845Y-88927900D01*
X131736846Y-88927899D01*
X131858152Y-88903770D01*
X131972422Y-88856438D01*
X132075263Y-88787722D01*
X132162722Y-88700263D01*
X132231438Y-88597422D01*
X132278770Y-88483152D01*
X132302900Y-88361843D01*
X132302900Y-88238157D01*
X132302900Y-88238154D01*
X132302899Y-88238152D01*
X132278771Y-88116855D01*
X132278770Y-88116848D01*
X132270051Y-88095799D01*
X132231439Y-88002579D01*
X132231437Y-88002576D01*
X132162725Y-87899741D01*
X132162719Y-87899733D01*
X132075266Y-87812280D01*
X132075258Y-87812274D01*
X131982058Y-87750000D01*
X134292443Y-87750000D01*
X134310976Y-87878908D01*
X134365078Y-87997372D01*
X134365079Y-87997374D01*
X134450364Y-88095799D01*
X134450366Y-88095800D01*
X134450366Y-88095801D01*
X134483117Y-88116848D01*
X134559924Y-88166208D01*
X134661765Y-88196112D01*
X134684882Y-88202900D01*
X134823986Y-88202900D01*
X134823986Y-88205806D01*
X134878601Y-88213656D01*
X134914775Y-88238772D01*
X135324124Y-88648120D01*
X135357609Y-88709443D01*
X135352625Y-88779134D01*
X135349237Y-88787312D01*
X135310977Y-88871089D01*
X135310977Y-88871090D01*
X135292443Y-89000000D01*
X135310976Y-89128908D01*
X135365078Y-89247372D01*
X135365079Y-89247374D01*
X135450364Y-89345799D01*
X135450366Y-89345800D01*
X135450366Y-89345801D01*
X135494188Y-89373962D01*
X135559924Y-89416208D01*
X135661765Y-89446112D01*
X135684882Y-89452900D01*
X135684883Y-89452900D01*
X135815118Y-89452900D01*
X135834625Y-89447171D01*
X135940076Y-89416208D01*
X136049636Y-89345799D01*
X136134921Y-89247374D01*
X136189023Y-89128909D01*
X136207557Y-89000000D01*
X136189023Y-88871091D01*
X136134921Y-88752626D01*
X136049636Y-88654201D01*
X136049633Y-88654199D01*
X136049633Y-88654198D01*
X135983900Y-88611955D01*
X135940076Y-88583792D01*
X135934530Y-88582163D01*
X135924728Y-88579285D01*
X135871986Y-88547990D01*
X135562148Y-88238152D01*
X138197100Y-88238152D01*
X138197100Y-88361847D01*
X138221228Y-88483144D01*
X138221231Y-88483156D01*
X138268560Y-88597420D01*
X138268562Y-88597423D01*
X138337274Y-88700258D01*
X138337280Y-88700266D01*
X138424733Y-88787719D01*
X138424741Y-88787725D01*
X138527576Y-88856437D01*
X138527579Y-88856439D01*
X138641843Y-88903768D01*
X138641848Y-88903770D01*
X138763152Y-88927899D01*
X138763155Y-88927900D01*
X138763157Y-88927900D01*
X139286845Y-88927900D01*
X139286846Y-88927899D01*
X139408152Y-88903770D01*
X139522422Y-88856438D01*
X139625263Y-88787722D01*
X139712722Y-88700263D01*
X139781438Y-88597422D01*
X139828770Y-88483152D01*
X139852900Y-88361843D01*
X139852900Y-88238157D01*
X139852900Y-88238154D01*
X139852899Y-88238152D01*
X139828771Y-88116855D01*
X139828770Y-88116848D01*
X139820051Y-88095799D01*
X139781439Y-88002579D01*
X139781437Y-88002576D01*
X139712725Y-87899741D01*
X139712719Y-87899733D01*
X139625266Y-87812280D01*
X139625258Y-87812274D01*
X139522423Y-87743562D01*
X139522420Y-87743560D01*
X139408156Y-87696231D01*
X139408144Y-87696228D01*
X139286846Y-87672100D01*
X139286843Y-87672100D01*
X138763157Y-87672100D01*
X138763154Y-87672100D01*
X138641855Y-87696228D01*
X138641843Y-87696231D01*
X138527579Y-87743560D01*
X138527576Y-87743562D01*
X138424741Y-87812274D01*
X138424733Y-87812280D01*
X138337280Y-87899733D01*
X138337274Y-87899741D01*
X138268562Y-88002576D01*
X138268560Y-88002579D01*
X138221231Y-88116843D01*
X138221228Y-88116855D01*
X138197100Y-88238152D01*
X135562148Y-88238152D01*
X135234658Y-87910661D01*
X135201173Y-87849338D01*
X135199601Y-87805333D01*
X135207557Y-87750000D01*
X135189023Y-87621091D01*
X135134921Y-87502626D01*
X135049636Y-87404201D01*
X135049633Y-87404199D01*
X135049633Y-87404198D01*
X134983900Y-87361955D01*
X134940076Y-87333792D01*
X134856770Y-87309330D01*
X134815118Y-87297100D01*
X134815117Y-87297100D01*
X134684883Y-87297100D01*
X134684882Y-87297100D01*
X134622403Y-87315446D01*
X134559924Y-87333792D01*
X134559921Y-87333794D01*
X134450366Y-87404198D01*
X134450366Y-87404199D01*
X134365079Y-87502625D01*
X134365078Y-87502627D01*
X134310976Y-87621091D01*
X134292443Y-87750000D01*
X131982058Y-87750000D01*
X131972423Y-87743562D01*
X131972420Y-87743560D01*
X131858156Y-87696231D01*
X131858144Y-87696228D01*
X131736846Y-87672100D01*
X131736843Y-87672100D01*
X131213157Y-87672100D01*
X131213154Y-87672100D01*
X131091855Y-87696228D01*
X131091843Y-87696231D01*
X130977579Y-87743560D01*
X130977576Y-87743562D01*
X130874741Y-87812274D01*
X130874733Y-87812280D01*
X130787280Y-87899733D01*
X130787274Y-87899741D01*
X130718562Y-88002576D01*
X130718560Y-88002579D01*
X130671231Y-88116843D01*
X130671228Y-88116855D01*
X130647100Y-88238152D01*
X89200500Y-88238152D01*
X89200500Y-85155841D01*
X130237100Y-85155841D01*
X130237100Y-85304158D01*
X130266031Y-85449605D01*
X130266033Y-85449613D01*
X130322789Y-85586633D01*
X130405182Y-85709944D01*
X130405188Y-85709951D01*
X130510048Y-85814811D01*
X130510055Y-85814817D01*
X130633366Y-85897210D01*
X130633367Y-85897210D01*
X130633368Y-85897211D01*
X130770387Y-85953967D01*
X130915841Y-85982899D01*
X130915845Y-85982900D01*
X130915846Y-85982900D01*
X131564155Y-85982900D01*
X131564156Y-85982899D01*
X131709613Y-85953967D01*
X131846632Y-85897211D01*
X131969946Y-85814816D01*
X132074816Y-85709946D01*
X132157211Y-85586632D01*
X132213967Y-85449613D01*
X132242900Y-85304154D01*
X132242900Y-85155846D01*
X132242899Y-85155841D01*
X138347100Y-85155841D01*
X138347100Y-85304158D01*
X138376031Y-85449605D01*
X138376033Y-85449613D01*
X138432789Y-85586633D01*
X138515182Y-85709944D01*
X138515188Y-85709951D01*
X138620048Y-85814811D01*
X138620055Y-85814817D01*
X138743366Y-85897210D01*
X138743367Y-85897210D01*
X138743368Y-85897211D01*
X138880387Y-85953967D01*
X139025841Y-85982899D01*
X139025845Y-85982900D01*
X139025846Y-85982900D01*
X139674155Y-85982900D01*
X139674156Y-85982899D01*
X139819613Y-85953967D01*
X139956632Y-85897211D01*
X140079946Y-85814816D01*
X140184816Y-85709946D01*
X140267211Y-85586632D01*
X140323967Y-85449613D01*
X140352900Y-85304154D01*
X140352900Y-85155846D01*
X140323967Y-85010387D01*
X140267211Y-84873368D01*
X140248791Y-84845801D01*
X140184817Y-84750055D01*
X140184811Y-84750048D01*
X140079951Y-84645188D01*
X140079944Y-84645182D01*
X139956633Y-84562789D01*
X139819613Y-84506033D01*
X139819605Y-84506031D01*
X139674158Y-84477100D01*
X139674154Y-84477100D01*
X139025846Y-84477100D01*
X139025841Y-84477100D01*
X138880394Y-84506031D01*
X138880386Y-84506033D01*
X138743366Y-84562789D01*
X138620055Y-84645182D01*
X138620048Y-84645188D01*
X138515188Y-84750048D01*
X138515182Y-84750055D01*
X138432789Y-84873366D01*
X138376033Y-85010386D01*
X138376031Y-85010394D01*
X138347100Y-85155841D01*
X132242899Y-85155841D01*
X132213967Y-85010387D01*
X132157211Y-84873368D01*
X132138791Y-84845801D01*
X132074817Y-84750055D01*
X132074811Y-84750048D01*
X131969951Y-84645188D01*
X131969944Y-84645182D01*
X131846633Y-84562789D01*
X131709613Y-84506033D01*
X131709605Y-84506031D01*
X131564158Y-84477100D01*
X131564154Y-84477100D01*
X130915846Y-84477100D01*
X130915841Y-84477100D01*
X130770394Y-84506031D01*
X130770386Y-84506033D01*
X130633366Y-84562789D01*
X130510055Y-84645182D01*
X130510048Y-84645188D01*
X130405188Y-84750048D01*
X130405182Y-84750055D01*
X130322789Y-84873366D01*
X130266033Y-85010386D01*
X130266031Y-85010394D01*
X130237100Y-85155841D01*
X89200500Y-85155841D01*
X89200500Y-83000000D01*
X133792443Y-83000000D01*
X133810976Y-83128908D01*
X133856733Y-83229100D01*
X133865079Y-83247374D01*
X133950364Y-83345799D01*
X133950366Y-83345800D01*
X133950366Y-83345801D01*
X133994188Y-83373962D01*
X134059924Y-83416208D01*
X134161765Y-83446112D01*
X134184882Y-83452900D01*
X134184883Y-83452900D01*
X134315118Y-83452900D01*
X134334625Y-83447171D01*
X134440076Y-83416208D01*
X134549636Y-83345799D01*
X134613671Y-83271897D01*
X134672449Y-83234123D01*
X134707384Y-83229100D01*
X135103741Y-83229100D01*
X135170780Y-83248785D01*
X135191422Y-83265419D01*
X136093758Y-84167754D01*
X136127243Y-84229077D01*
X136122259Y-84298768D01*
X136118871Y-84306947D01*
X136089576Y-84371091D01*
X136071043Y-84500000D01*
X136089576Y-84628908D01*
X136097011Y-84645188D01*
X136143679Y-84747374D01*
X136228964Y-84845799D01*
X136228966Y-84845800D01*
X136228966Y-84845801D01*
X136271860Y-84873366D01*
X136338524Y-84916208D01*
X136440365Y-84946112D01*
X136463482Y-84952900D01*
X136463483Y-84952900D01*
X136593718Y-84952900D01*
X136613225Y-84947171D01*
X136718676Y-84916208D01*
X136828236Y-84845799D01*
X136913521Y-84747374D01*
X136967623Y-84628909D01*
X136986157Y-84500000D01*
X136967623Y-84371091D01*
X136913521Y-84252626D01*
X136828236Y-84154201D01*
X136828233Y-84154199D01*
X136828233Y-84154198D01*
X136762500Y-84111955D01*
X136718676Y-84083792D01*
X136662840Y-84067396D01*
X136610097Y-84036101D01*
X135379775Y-82805778D01*
X135320233Y-82781115D01*
X135320232Y-82781114D01*
X135295571Y-82770900D01*
X134707384Y-82770900D01*
X134640345Y-82751215D01*
X134613671Y-82728102D01*
X134549637Y-82654202D01*
X134549633Y-82654198D01*
X134483900Y-82611955D01*
X134440076Y-82583792D01*
X134356770Y-82559330D01*
X134315118Y-82547100D01*
X134315117Y-82547100D01*
X134184883Y-82547100D01*
X134184882Y-82547100D01*
X134122403Y-82565446D01*
X134059924Y-82583792D01*
X134059921Y-82583794D01*
X133950366Y-82654198D01*
X133950366Y-82654199D01*
X133865079Y-82752625D01*
X133865078Y-82752627D01*
X133810976Y-82871091D01*
X133792443Y-83000000D01*
X89200500Y-83000000D01*
X89200500Y-73549999D01*
X134042443Y-73549999D01*
X134045838Y-73573612D01*
X134047100Y-73591259D01*
X134047100Y-73609625D01*
X134053637Y-73634024D01*
X134056598Y-73648462D01*
X134060976Y-73678905D01*
X134060978Y-73678913D01*
X134068016Y-73694322D01*
X134074996Y-73713737D01*
X134077963Y-73724811D01*
X134077966Y-73724817D01*
X134094041Y-73752661D01*
X134099447Y-73763146D01*
X134115078Y-73797373D01*
X134121647Y-73804954D01*
X134135312Y-73824142D01*
X134137590Y-73828087D01*
X134137591Y-73828088D01*
X134165176Y-73855673D01*
X134171207Y-73862151D01*
X134178954Y-73871091D01*
X134200364Y-73895799D01*
X134202971Y-73897474D01*
X134223609Y-73914106D01*
X138171913Y-77862410D01*
X138246811Y-77905653D01*
X138265087Y-77916205D01*
X138275187Y-77922036D01*
X138390375Y-77952900D01*
X138509626Y-77952900D01*
X149511041Y-77952900D01*
X149578080Y-77972585D01*
X149598722Y-77989219D01*
X151971913Y-80362410D01*
X152075187Y-80422036D01*
X152190375Y-80452900D01*
X152309625Y-80452900D01*
X155261041Y-80452900D01*
X155328080Y-80472585D01*
X155348722Y-80489219D01*
X156771913Y-81912410D01*
X156861348Y-81964046D01*
X156875183Y-81972034D01*
X156875187Y-81972036D01*
X156990375Y-82002900D01*
X156990377Y-82002900D01*
X157565115Y-82002900D01*
X157565117Y-82002900D01*
X157621081Y-81986466D01*
X157623722Y-81985724D01*
X157674813Y-81972036D01*
X157674817Y-81972033D01*
X157679826Y-81969959D01*
X157688772Y-81966803D01*
X157690070Y-81966209D01*
X157690076Y-81966208D01*
X157733296Y-81938431D01*
X157738330Y-81935363D01*
X157778087Y-81912410D01*
X157778091Y-81912405D01*
X157784538Y-81907460D01*
X157784577Y-81907510D01*
X157797036Y-81897469D01*
X157799636Y-81895799D01*
X157828793Y-81862148D01*
X157834798Y-81855697D01*
X157862410Y-81828087D01*
X157864681Y-81824153D01*
X157878348Y-81804958D01*
X157884921Y-81797374D01*
X157900561Y-81763124D01*
X157905953Y-81752668D01*
X157922036Y-81724813D01*
X157924999Y-81713749D01*
X157931982Y-81694324D01*
X157939023Y-81678909D01*
X157943401Y-81648451D01*
X157946359Y-81634033D01*
X157952900Y-81609625D01*
X157952900Y-81591259D01*
X157954162Y-81573612D01*
X157957557Y-81549999D01*
X157954162Y-81526385D01*
X157952900Y-81508739D01*
X157952900Y-81490376D01*
X157946361Y-81465973D01*
X157943398Y-81451523D01*
X157939023Y-81421093D01*
X157939022Y-81421089D01*
X157931983Y-81405676D01*
X157925000Y-81386251D01*
X157922036Y-81375187D01*
X157905953Y-81347332D01*
X157900553Y-81336855D01*
X157884920Y-81302624D01*
X157884919Y-81302623D01*
X157878353Y-81295045D01*
X157864677Y-81275839D01*
X157862411Y-81271915D01*
X157862411Y-81271914D01*
X157862410Y-81271913D01*
X157834803Y-81244306D01*
X157828799Y-81237858D01*
X157799636Y-81204201D01*
X157799635Y-81204200D01*
X157797028Y-81202525D01*
X157784571Y-81192486D01*
X157784533Y-81192537D01*
X157778091Y-81187594D01*
X157778087Y-81187590D01*
X157761355Y-81177929D01*
X157738331Y-81164636D01*
X157733295Y-81161566D01*
X157690078Y-81133793D01*
X157688779Y-81133199D01*
X157679838Y-81130046D01*
X157674814Y-81127965D01*
X157674813Y-81127964D01*
X157674810Y-81127963D01*
X157674805Y-81127961D01*
X157623822Y-81114300D01*
X157620982Y-81113503D01*
X157565119Y-81097100D01*
X157565117Y-81097100D01*
X157559625Y-81097100D01*
X157288959Y-81097100D01*
X157221920Y-81077415D01*
X157201278Y-81060781D01*
X155778089Y-79637592D01*
X155778087Y-79637590D01*
X155726450Y-79607777D01*
X155674814Y-79577964D01*
X155617219Y-79562532D01*
X155559625Y-79547100D01*
X155559624Y-79547100D01*
X152488959Y-79547100D01*
X152421920Y-79527415D01*
X152401278Y-79510781D01*
X150028089Y-77137592D01*
X150028087Y-77137590D01*
X149950286Y-77092671D01*
X149924814Y-77077964D01*
X149867219Y-77062532D01*
X149809625Y-77047100D01*
X149809624Y-77047100D01*
X138688959Y-77047100D01*
X138621920Y-77027415D01*
X138601278Y-77010781D01*
X135328178Y-73737681D01*
X135294693Y-73676358D01*
X135299677Y-73606666D01*
X135328178Y-73562319D01*
X135843155Y-73047342D01*
X136362410Y-72528087D01*
X136422036Y-72424813D01*
X136452900Y-72309625D01*
X136452900Y-72190374D01*
X136452900Y-71988960D01*
X136472585Y-71921921D01*
X136489219Y-71901278D01*
X136612410Y-71778088D01*
X136672036Y-71674813D01*
X136698730Y-71575187D01*
X136702900Y-71559625D01*
X136702900Y-65988959D01*
X136722585Y-65921920D01*
X136739219Y-65901278D01*
X136890497Y-65750000D01*
X140542443Y-65750000D01*
X140560976Y-65878908D01*
X140587779Y-65937597D01*
X140615079Y-65997374D01*
X140700364Y-66095799D01*
X140713938Y-66104522D01*
X140759693Y-66157323D01*
X140770900Y-66208838D01*
X140770900Y-69795568D01*
X140770901Y-69795573D01*
X140805775Y-69879769D01*
X140805776Y-69879771D01*
X140805778Y-69879775D01*
X140805779Y-69879776D01*
X140805780Y-69879777D01*
X141798707Y-70872703D01*
X141798710Y-70872707D01*
X141805777Y-70879774D01*
X141805778Y-70879775D01*
X145305779Y-74379775D01*
X145370225Y-74444221D01*
X145454429Y-74479100D01*
X146204429Y-74479100D01*
X146580568Y-74479100D01*
X146647607Y-74498785D01*
X146693362Y-74551589D01*
X146703306Y-74620747D01*
X146674281Y-74684302D01*
X146615081Y-74752621D01*
X146615078Y-74752627D01*
X146560976Y-74871091D01*
X146542443Y-75000000D01*
X146560976Y-75128908D01*
X146615078Y-75247372D01*
X146615079Y-75247374D01*
X146700364Y-75345799D01*
X146700366Y-75345800D01*
X146700366Y-75345801D01*
X146744188Y-75373962D01*
X146809924Y-75416208D01*
X146905322Y-75444220D01*
X146934882Y-75452900D01*
X147073986Y-75452900D01*
X147073986Y-75455806D01*
X147128601Y-75463656D01*
X147164775Y-75488772D01*
X148050255Y-76374252D01*
X148075368Y-76410421D01*
X148115078Y-76497372D01*
X148115079Y-76497374D01*
X148200364Y-76595799D01*
X148200366Y-76595800D01*
X148200366Y-76595801D01*
X148244188Y-76623962D01*
X148309924Y-76666208D01*
X148411765Y-76696112D01*
X148434882Y-76702900D01*
X148434883Y-76702900D01*
X148565118Y-76702900D01*
X148584625Y-76697171D01*
X148690076Y-76666208D01*
X148799636Y-76595799D01*
X148884921Y-76497374D01*
X148939023Y-76378909D01*
X148957557Y-76250000D01*
X148939023Y-76121091D01*
X148884921Y-76002626D01*
X148799636Y-75904201D01*
X148799633Y-75904199D01*
X148799633Y-75904198D01*
X148729257Y-75858972D01*
X148690076Y-75833792D01*
X148592679Y-75805193D01*
X148565118Y-75797100D01*
X148565117Y-75797100D01*
X148434883Y-75797100D01*
X148309924Y-75833792D01*
X148309922Y-75833792D01*
X148309919Y-75833794D01*
X148301365Y-75839291D01*
X148234324Y-75858972D01*
X148167286Y-75839284D01*
X148146650Y-75822653D01*
X147484658Y-75160661D01*
X147451173Y-75099338D01*
X147449601Y-75055333D01*
X147453083Y-75031115D01*
X147457557Y-75000000D01*
X147439023Y-74871091D01*
X147423552Y-74837216D01*
X147413609Y-74768061D01*
X147442633Y-74704504D01*
X147501411Y-74666729D01*
X147571280Y-74666728D01*
X147624028Y-74698025D01*
X148370223Y-75444220D01*
X148370224Y-75444220D01*
X148370226Y-75444222D01*
X148419546Y-75464650D01*
X148419549Y-75464652D01*
X148419550Y-75464652D01*
X148433998Y-75470636D01*
X148454429Y-75479100D01*
X148454430Y-75479100D01*
X148545571Y-75479100D01*
X149853741Y-75479100D01*
X149920780Y-75498785D01*
X149941422Y-75515419D01*
X150298707Y-75872703D01*
X150298710Y-75872707D01*
X150824294Y-76398291D01*
X150849406Y-76434458D01*
X150865077Y-76468770D01*
X150865079Y-76468774D01*
X150950364Y-76567199D01*
X150950366Y-76567200D01*
X150950366Y-76567201D01*
X150994188Y-76595362D01*
X151059924Y-76637608D01*
X151157325Y-76666208D01*
X151184882Y-76674300D01*
X151184883Y-76674300D01*
X151315118Y-76674300D01*
X151342675Y-76666208D01*
X151440076Y-76637608D01*
X151549636Y-76567199D01*
X151634921Y-76468774D01*
X151689023Y-76350309D01*
X151707557Y-76221400D01*
X151689023Y-76092491D01*
X151634921Y-75974026D01*
X151549636Y-75875601D01*
X151549633Y-75875599D01*
X151549633Y-75875598D01*
X151467246Y-75822653D01*
X151440076Y-75805192D01*
X151356770Y-75780730D01*
X151315118Y-75768500D01*
X151315117Y-75768500D01*
X151184883Y-75768500D01*
X151184882Y-75768500D01*
X151122403Y-75786846D01*
X151059924Y-75805192D01*
X151059922Y-75805192D01*
X151059922Y-75805193D01*
X151033958Y-75821879D01*
X150966919Y-75841562D01*
X150899879Y-75821876D01*
X150879240Y-75805243D01*
X150622710Y-75548713D01*
X150622703Y-75548707D01*
X150129775Y-75055778D01*
X150128701Y-75055333D01*
X150070233Y-75031115D01*
X150070232Y-75031114D01*
X150045571Y-75020900D01*
X148646258Y-75020900D01*
X148579219Y-75001215D01*
X148558577Y-74984581D01*
X148095894Y-74521898D01*
X147823997Y-74250000D01*
X148542443Y-74250000D01*
X148560976Y-74378908D01*
X148602068Y-74468884D01*
X148615079Y-74497374D01*
X148700364Y-74595799D01*
X148700366Y-74595800D01*
X148700366Y-74595801D01*
X148739184Y-74620747D01*
X148809924Y-74666208D01*
X148911765Y-74696112D01*
X148934882Y-74702900D01*
X148934883Y-74702900D01*
X149065118Y-74702900D01*
X149084625Y-74697171D01*
X149190076Y-74666208D01*
X149299636Y-74595799D01*
X149363671Y-74521897D01*
X149422449Y-74484123D01*
X149457384Y-74479100D01*
X150795569Y-74479100D01*
X150795570Y-74479100D01*
X150795571Y-74479100D01*
X150820233Y-74468884D01*
X150849961Y-74456570D01*
X150919428Y-74449102D01*
X150932333Y-74452151D01*
X150934883Y-74452900D01*
X150934886Y-74452900D01*
X151065118Y-74452900D01*
X151084625Y-74447171D01*
X151190076Y-74416208D01*
X151299636Y-74345799D01*
X151384921Y-74247374D01*
X151439023Y-74128909D01*
X151457557Y-74000000D01*
X151439023Y-73871091D01*
X151384921Y-73752626D01*
X151299636Y-73654201D01*
X151299633Y-73654199D01*
X151299633Y-73654198D01*
X151225669Y-73606666D01*
X151190076Y-73583792D01*
X151106770Y-73559330D01*
X151065118Y-73547100D01*
X151065117Y-73547100D01*
X150934883Y-73547100D01*
X150934882Y-73547100D01*
X150883053Y-73562319D01*
X150809924Y-73583792D01*
X150809921Y-73583794D01*
X150700366Y-73654198D01*
X150700366Y-73654199D01*
X150615079Y-73752625D01*
X150615078Y-73752627D01*
X150560976Y-73871091D01*
X150554729Y-73914547D01*
X150525704Y-73978103D01*
X150466926Y-74015877D01*
X150431991Y-74020900D01*
X149457384Y-74020900D01*
X149390345Y-74001215D01*
X149363671Y-73978102D01*
X149299637Y-73904202D01*
X149299633Y-73904198D01*
X149224124Y-73855673D01*
X149190076Y-73833792D01*
X149091865Y-73804954D01*
X149065118Y-73797100D01*
X149065117Y-73797100D01*
X148934883Y-73797100D01*
X148934882Y-73797100D01*
X148908135Y-73804954D01*
X148809924Y-73833792D01*
X148809921Y-73833794D01*
X148700366Y-73904198D01*
X148700366Y-73904199D01*
X148615079Y-74002625D01*
X148615078Y-74002627D01*
X148560976Y-74121091D01*
X148542443Y-74250000D01*
X147823997Y-74250000D01*
X147629775Y-74055778D01*
X147553775Y-74024298D01*
X147553774Y-74024298D01*
X147545571Y-74020900D01*
X147545569Y-74020900D01*
X145646258Y-74020900D01*
X145579219Y-74001215D01*
X145558577Y-73984581D01*
X144823996Y-73250000D01*
X152042443Y-73250000D01*
X152060976Y-73378908D01*
X152111880Y-73490369D01*
X152115079Y-73497374D01*
X152200364Y-73595799D01*
X152200366Y-73595800D01*
X152200366Y-73595801D01*
X152244188Y-73623962D01*
X152309924Y-73666208D01*
X152431836Y-73702005D01*
X152490613Y-73739780D01*
X152519638Y-73803336D01*
X152520900Y-73820982D01*
X152520900Y-77991161D01*
X152501215Y-78058200D01*
X152463942Y-78095474D01*
X152455566Y-78100857D01*
X152450362Y-78104202D01*
X152450358Y-78104206D01*
X152365081Y-78202621D01*
X152365078Y-78202627D01*
X152310976Y-78321091D01*
X152292443Y-78450000D01*
X152310976Y-78578908D01*
X152360110Y-78686494D01*
X152365079Y-78697374D01*
X152450364Y-78795799D01*
X152450366Y-78795800D01*
X152450366Y-78795801D01*
X152494188Y-78823962D01*
X152559924Y-78866208D01*
X152661765Y-78896112D01*
X152684882Y-78902900D01*
X152684883Y-78902900D01*
X152815118Y-78902900D01*
X152834625Y-78897171D01*
X152940076Y-78866208D01*
X153049636Y-78795799D01*
X153134921Y-78697374D01*
X153189023Y-78578909D01*
X153207557Y-78450000D01*
X153189023Y-78321091D01*
X153156556Y-78249999D01*
X163792443Y-78249999D01*
X163795838Y-78273612D01*
X163797100Y-78291259D01*
X163797100Y-78309625D01*
X163803637Y-78334024D01*
X163806598Y-78348462D01*
X163810976Y-78378905D01*
X163810978Y-78378913D01*
X163818016Y-78394322D01*
X163824996Y-78413737D01*
X163827963Y-78424811D01*
X163827966Y-78424817D01*
X163844041Y-78452661D01*
X163849447Y-78463146D01*
X163865078Y-78497373D01*
X163871647Y-78504954D01*
X163885312Y-78524142D01*
X163887590Y-78528087D01*
X163887591Y-78528088D01*
X163915176Y-78555673D01*
X163921207Y-78562151D01*
X163950361Y-78595796D01*
X163950364Y-78595799D01*
X163952971Y-78597474D01*
X163965428Y-78607513D01*
X163965467Y-78607463D01*
X163971908Y-78612405D01*
X163971913Y-78612410D01*
X164011695Y-78635378D01*
X164016670Y-78638411D01*
X164059924Y-78666208D01*
X164059927Y-78666209D01*
X164059929Y-78666210D01*
X164061220Y-78666800D01*
X164070152Y-78669951D01*
X164075181Y-78672034D01*
X164075185Y-78672035D01*
X164075187Y-78672036D01*
X164126209Y-78685706D01*
X164128985Y-78686486D01*
X164138994Y-78689424D01*
X164184883Y-78702900D01*
X164184885Y-78702900D01*
X164315115Y-78702900D01*
X164315117Y-78702900D01*
X164371081Y-78686466D01*
X164373722Y-78685724D01*
X164424813Y-78672036D01*
X164424817Y-78672033D01*
X164429826Y-78669959D01*
X164438772Y-78666803D01*
X164440070Y-78666209D01*
X164440076Y-78666208D01*
X164483296Y-78638431D01*
X164488330Y-78635363D01*
X164488344Y-78635355D01*
X164528087Y-78612410D01*
X164528091Y-78612405D01*
X164534538Y-78607460D01*
X164534577Y-78607510D01*
X164547036Y-78597469D01*
X164549636Y-78595799D01*
X164578791Y-78562150D01*
X164584810Y-78555685D01*
X168724910Y-74415588D01*
X168784536Y-74312313D01*
X168815400Y-74197126D01*
X168815400Y-74077875D01*
X168815400Y-73291259D01*
X168816662Y-73273612D01*
X168820057Y-73249999D01*
X168816662Y-73226385D01*
X168815400Y-73208739D01*
X168815400Y-73190376D01*
X168814654Y-73187591D01*
X168808859Y-73165967D01*
X168805898Y-73151523D01*
X168803349Y-73133792D01*
X168801523Y-73121091D01*
X168794483Y-73105676D01*
X168787500Y-73086251D01*
X168785621Y-73079237D01*
X168784536Y-73075187D01*
X168768453Y-73047332D01*
X168763053Y-73036855D01*
X168747420Y-73002624D01*
X168747419Y-73002623D01*
X168740853Y-72995045D01*
X168727177Y-72975839D01*
X168724911Y-72971915D01*
X168724911Y-72971914D01*
X168723796Y-72970799D01*
X168697303Y-72944306D01*
X168691299Y-72937858D01*
X168662136Y-72904201D01*
X168662135Y-72904200D01*
X168659528Y-72902525D01*
X168647071Y-72892486D01*
X168647033Y-72892537D01*
X168640591Y-72887594D01*
X168640587Y-72887590D01*
X168600841Y-72864642D01*
X168600831Y-72864636D01*
X168595795Y-72861566D01*
X168552578Y-72833793D01*
X168551279Y-72833199D01*
X168542338Y-72830046D01*
X168537314Y-72827965D01*
X168537313Y-72827964D01*
X168537310Y-72827963D01*
X168537305Y-72827961D01*
X168486322Y-72814300D01*
X168483482Y-72813503D01*
X168427619Y-72797100D01*
X168427617Y-72797100D01*
X168297383Y-72797100D01*
X168297379Y-72797100D01*
X168241526Y-72813500D01*
X168238687Y-72814297D01*
X168187686Y-72827963D01*
X168182637Y-72830054D01*
X168173723Y-72833198D01*
X168172418Y-72833794D01*
X168129190Y-72861574D01*
X168124158Y-72864642D01*
X168084413Y-72887590D01*
X168084412Y-72887591D01*
X168077963Y-72892539D01*
X168077925Y-72892490D01*
X168065477Y-72902520D01*
X168062868Y-72904196D01*
X168062865Y-72904199D01*
X168033712Y-72937842D01*
X168027686Y-72944315D01*
X168000090Y-72971911D01*
X168000086Y-72971917D01*
X167997810Y-72975859D01*
X167984155Y-72995034D01*
X167977580Y-73002623D01*
X167977577Y-73002626D01*
X167961941Y-73036863D01*
X167956539Y-73047342D01*
X167940464Y-73075187D01*
X167937497Y-73086259D01*
X167930519Y-73105670D01*
X167923477Y-73121089D01*
X167923476Y-73121091D01*
X167919099Y-73151532D01*
X167916138Y-73165969D01*
X167909600Y-73190369D01*
X167909600Y-73208739D01*
X167908338Y-73226385D01*
X167904943Y-73249999D01*
X167908338Y-73273612D01*
X167909600Y-73291259D01*
X167909600Y-73898540D01*
X167889915Y-73965579D01*
X167873281Y-73986221D01*
X163973608Y-77885893D01*
X163952974Y-77902523D01*
X163950364Y-77904199D01*
X163921214Y-77937840D01*
X163915187Y-77944314D01*
X163887590Y-77971911D01*
X163887586Y-77971917D01*
X163885310Y-77975859D01*
X163871655Y-77995034D01*
X163865080Y-78002623D01*
X163865077Y-78002626D01*
X163849441Y-78036863D01*
X163844039Y-78047342D01*
X163827964Y-78075187D01*
X163824997Y-78086259D01*
X163818019Y-78105670D01*
X163810977Y-78121089D01*
X163810976Y-78121091D01*
X163806599Y-78151532D01*
X163803638Y-78165969D01*
X163797100Y-78190369D01*
X163797100Y-78208739D01*
X163795838Y-78226385D01*
X163792443Y-78249999D01*
X153156556Y-78249999D01*
X153134921Y-78202626D01*
X153134919Y-78202624D01*
X153134918Y-78202621D01*
X153049641Y-78104206D01*
X153049637Y-78104202D01*
X153049636Y-78104201D01*
X153036058Y-78095474D01*
X152990305Y-78042671D01*
X152979100Y-77991161D01*
X152979100Y-73571398D01*
X153792443Y-73571398D01*
X153810976Y-73700306D01*
X153858768Y-73804954D01*
X153865079Y-73818772D01*
X153950364Y-73917197D01*
X153963938Y-73925920D01*
X154009693Y-73978721D01*
X154020900Y-74030236D01*
X154020900Y-77041161D01*
X154001215Y-77108200D01*
X153963942Y-77145474D01*
X153955566Y-77150857D01*
X153950362Y-77154202D01*
X153950358Y-77154206D01*
X153865081Y-77252621D01*
X153865078Y-77252627D01*
X153810976Y-77371091D01*
X153792443Y-77500000D01*
X153810976Y-77628908D01*
X153865078Y-77747372D01*
X153865079Y-77747374D01*
X153950364Y-77845799D01*
X153950366Y-77845800D01*
X153950366Y-77845801D01*
X153994188Y-77873962D01*
X154059924Y-77916208D01*
X154161765Y-77946112D01*
X154184882Y-77952900D01*
X154184883Y-77952900D01*
X154315118Y-77952900D01*
X154356770Y-77940669D01*
X154440076Y-77916208D01*
X154440080Y-77916204D01*
X154441410Y-77915598D01*
X154442863Y-77915388D01*
X154448585Y-77913709D01*
X154448826Y-77914531D01*
X154510568Y-77905653D01*
X154574125Y-77934676D01*
X154605719Y-77976879D01*
X154614010Y-77995034D01*
X154615079Y-77997374D01*
X154700364Y-78095799D01*
X154700366Y-78095800D01*
X154700366Y-78095801D01*
X154739720Y-78121091D01*
X154809924Y-78166208D01*
X154892228Y-78190375D01*
X154934882Y-78202900D01*
X154934883Y-78202900D01*
X155065118Y-78202900D01*
X155084625Y-78197171D01*
X155190076Y-78166208D01*
X155299636Y-78095799D01*
X155384921Y-77997374D01*
X155439023Y-77878909D01*
X155457557Y-77750000D01*
X155439023Y-77621091D01*
X155384921Y-77502626D01*
X155384919Y-77502624D01*
X155384918Y-77502621D01*
X155299641Y-77404206D01*
X155299637Y-77404202D01*
X155299636Y-77404201D01*
X155286058Y-77395474D01*
X155240305Y-77342671D01*
X155229100Y-77291161D01*
X155229100Y-73396257D01*
X155248785Y-73329218D01*
X155265415Y-73308580D01*
X155460225Y-73113769D01*
X155521546Y-73080286D01*
X155551014Y-73079237D01*
X155551014Y-73077900D01*
X155690118Y-73077900D01*
X155709625Y-73072171D01*
X155815076Y-73041208D01*
X155922896Y-72971917D01*
X155924633Y-72970801D01*
X155924633Y-72970800D01*
X155924636Y-72970799D01*
X156009921Y-72872374D01*
X156064023Y-72753909D01*
X156082557Y-72625000D01*
X156064023Y-72496091D01*
X156009921Y-72377626D01*
X155924636Y-72279201D01*
X155924633Y-72279199D01*
X155924633Y-72279198D01*
X155858900Y-72236955D01*
X155815076Y-72208792D01*
X155731770Y-72184330D01*
X155690118Y-72172100D01*
X155690117Y-72172100D01*
X155559883Y-72172100D01*
X155559882Y-72172100D01*
X155497649Y-72190374D01*
X155434924Y-72208792D01*
X155434921Y-72208794D01*
X155325366Y-72279198D01*
X155325366Y-72279199D01*
X155240079Y-72377625D01*
X155240078Y-72377627D01*
X155185976Y-72496091D01*
X155167443Y-72625000D01*
X155175398Y-72680333D01*
X155165454Y-72749492D01*
X155140341Y-72785660D01*
X154805779Y-73120223D01*
X154805777Y-73120226D01*
X154781115Y-73179761D01*
X154781116Y-73179762D01*
X154770226Y-73206056D01*
X154726387Y-73260461D01*
X154660094Y-73282529D01*
X154592394Y-73265253D01*
X154561952Y-73239812D01*
X154549636Y-73225599D01*
X154549633Y-73225597D01*
X154549633Y-73225596D01*
X154483900Y-73183353D01*
X154440076Y-73155190D01*
X154323955Y-73121093D01*
X154315118Y-73118498D01*
X154315117Y-73118498D01*
X154184883Y-73118498D01*
X154184882Y-73118498D01*
X154122403Y-73136844D01*
X154059924Y-73155190D01*
X154059921Y-73155192D01*
X153950366Y-73225596D01*
X153950366Y-73225597D01*
X153950364Y-73225598D01*
X153950364Y-73225599D01*
X153938049Y-73239811D01*
X153865079Y-73324023D01*
X153865078Y-73324025D01*
X153810976Y-73442489D01*
X153792443Y-73571398D01*
X152979100Y-73571398D01*
X152979100Y-73454430D01*
X152979098Y-73454424D01*
X152954308Y-73394576D01*
X152946130Y-73329475D01*
X152949135Y-73308576D01*
X152957557Y-73250000D01*
X152939023Y-73121091D01*
X152884921Y-73002626D01*
X152799636Y-72904201D01*
X152799633Y-72904199D01*
X152799633Y-72904198D01*
X152733294Y-72861566D01*
X152690076Y-72833792D01*
X152606770Y-72809330D01*
X152565118Y-72797100D01*
X152565117Y-72797100D01*
X152434883Y-72797100D01*
X152434882Y-72797100D01*
X152376306Y-72814300D01*
X152309924Y-72833792D01*
X152309921Y-72833794D01*
X152200366Y-72904198D01*
X152200366Y-72904199D01*
X152115079Y-73002625D01*
X152115078Y-73002627D01*
X152060976Y-73121091D01*
X152042443Y-73250000D01*
X144823996Y-73250000D01*
X143853197Y-72279201D01*
X142573997Y-71000000D01*
X155292443Y-71000000D01*
X155310976Y-71128908D01*
X155360318Y-71236949D01*
X155365079Y-71247374D01*
X155450364Y-71345799D01*
X155450366Y-71345800D01*
X155450366Y-71345801D01*
X155494188Y-71373962D01*
X155559924Y-71416208D01*
X155661765Y-71446112D01*
X155684882Y-71452900D01*
X155684883Y-71452900D01*
X155815118Y-71452900D01*
X155834625Y-71447171D01*
X155940076Y-71416208D01*
X156049636Y-71345799D01*
X156093049Y-71295696D01*
X156151827Y-71257923D01*
X156186762Y-71252900D01*
X157435253Y-71252900D01*
X157435261Y-71252901D01*
X157449695Y-71252901D01*
X157550305Y-71252901D01*
X157577529Y-71241623D01*
X157588807Y-71236952D01*
X157588809Y-71236950D01*
X157643257Y-71214399D01*
X157714399Y-71143257D01*
X157714399Y-71143254D01*
X157726314Y-71131340D01*
X157726317Y-71131335D01*
X166568435Y-62289219D01*
X166629758Y-62255734D01*
X166656116Y-62252900D01*
X179185253Y-62252900D01*
X179185261Y-62252901D01*
X179199695Y-62252901D01*
X179300305Y-62252901D01*
X179327529Y-62241623D01*
X179338807Y-62236952D01*
X179338809Y-62236950D01*
X179393257Y-62214399D01*
X179464399Y-62143257D01*
X179464399Y-62143254D01*
X179476314Y-62131340D01*
X179476317Y-62131335D01*
X180068435Y-61539219D01*
X180129758Y-61505734D01*
X180156116Y-61502900D01*
X180513238Y-61502900D01*
X180580277Y-61522585D01*
X180606949Y-61545695D01*
X180650364Y-61595799D01*
X180650366Y-61595800D01*
X180650366Y-61595801D01*
X180670703Y-61608870D01*
X180759924Y-61666208D01*
X180855329Y-61694222D01*
X180884882Y-61702900D01*
X180884883Y-61702900D01*
X181015118Y-61702900D01*
X181034625Y-61697171D01*
X181140076Y-61666208D01*
X181249636Y-61595799D01*
X181334921Y-61497374D01*
X181389023Y-61378909D01*
X181407557Y-61250000D01*
X181389023Y-61121091D01*
X181334921Y-61002626D01*
X181249636Y-60904201D01*
X181249633Y-60904199D01*
X181249633Y-60904198D01*
X181158459Y-60845606D01*
X181140076Y-60833792D01*
X181044232Y-60805649D01*
X181015118Y-60797100D01*
X181015117Y-60797100D01*
X180884883Y-60797100D01*
X180884882Y-60797100D01*
X180849774Y-60807409D01*
X180759924Y-60833792D01*
X180759921Y-60833794D01*
X180650366Y-60904198D01*
X180650366Y-60904199D01*
X180650364Y-60904200D01*
X180650364Y-60904201D01*
X180608181Y-60952884D01*
X180606951Y-60954303D01*
X180548173Y-60992077D01*
X180513238Y-60997100D01*
X180064747Y-60997100D01*
X180064739Y-60997099D01*
X180050305Y-60997099D01*
X179949695Y-60997099D01*
X179949693Y-60997099D01*
X179911193Y-61013047D01*
X179856743Y-61035600D01*
X179781270Y-61111074D01*
X179781260Y-61111084D01*
X179181565Y-61710781D01*
X179120242Y-61744266D01*
X179093884Y-61747100D01*
X166564747Y-61747100D01*
X166564739Y-61747099D01*
X166550305Y-61747099D01*
X166449695Y-61747099D01*
X166449693Y-61747099D01*
X166411193Y-61763047D01*
X166356743Y-61785600D01*
X166281270Y-61861074D01*
X166281260Y-61861084D01*
X157431565Y-70710781D01*
X157370242Y-70744266D01*
X157343884Y-70747100D01*
X156186762Y-70747100D01*
X156119723Y-70727415D01*
X156093049Y-70704303D01*
X156049636Y-70654201D01*
X156049633Y-70654199D01*
X156049633Y-70654198D01*
X155983900Y-70611955D01*
X155940076Y-70583792D01*
X155844668Y-70555777D01*
X155815118Y-70547100D01*
X155815117Y-70547100D01*
X155684883Y-70547100D01*
X155684882Y-70547100D01*
X155655332Y-70555777D01*
X155559924Y-70583792D01*
X155559921Y-70583794D01*
X155450366Y-70654198D01*
X155450366Y-70654199D01*
X155365079Y-70752625D01*
X155365078Y-70752627D01*
X155310976Y-70871091D01*
X155292443Y-71000000D01*
X142573997Y-71000000D01*
X142129775Y-70555778D01*
X142129774Y-70555777D01*
X142122710Y-70548713D01*
X142122703Y-70548707D01*
X141265419Y-69691422D01*
X141231934Y-69630099D01*
X141229100Y-69603741D01*
X141229100Y-66208838D01*
X141248785Y-66141799D01*
X141286061Y-66104522D01*
X141299636Y-66095799D01*
X141384921Y-65997374D01*
X141439023Y-65878909D01*
X141457557Y-65750000D01*
X141439023Y-65621091D01*
X141384921Y-65502626D01*
X141382646Y-65500000D01*
X151542443Y-65500000D01*
X151560976Y-65628908D01*
X151589048Y-65690375D01*
X151615079Y-65747374D01*
X151700364Y-65845799D01*
X151700366Y-65845800D01*
X151700366Y-65845801D01*
X151744188Y-65873962D01*
X151809924Y-65916208D01*
X151911765Y-65946112D01*
X151934882Y-65952900D01*
X151934883Y-65952900D01*
X152065118Y-65952900D01*
X152084625Y-65947171D01*
X152190076Y-65916208D01*
X152299636Y-65845799D01*
X152384921Y-65747374D01*
X152424633Y-65660415D01*
X152449740Y-65624255D01*
X155194222Y-62879775D01*
X155194222Y-62879774D01*
X156112332Y-61961662D01*
X156112336Y-61961660D01*
X156129774Y-61944222D01*
X156129775Y-61944222D01*
X156362333Y-61711661D01*
X156362336Y-61711660D01*
X156379774Y-61694222D01*
X156379775Y-61694222D01*
X156558578Y-61515417D01*
X156619899Y-61481934D01*
X156646258Y-61479100D01*
X172795570Y-61479100D01*
X172795571Y-61479100D01*
X172831061Y-61464399D01*
X172831063Y-61464399D01*
X172858826Y-61452899D01*
X172879775Y-61444222D01*
X174335225Y-59988769D01*
X174396546Y-59955286D01*
X174426014Y-59954237D01*
X174426014Y-59952900D01*
X174565118Y-59952900D01*
X174584625Y-59947171D01*
X174690076Y-59916208D01*
X174799636Y-59845799D01*
X174884921Y-59747374D01*
X174939023Y-59628909D01*
X174957557Y-59500000D01*
X174939023Y-59371091D01*
X174884921Y-59252626D01*
X174799636Y-59154201D01*
X174799633Y-59154199D01*
X174799633Y-59154198D01*
X174733900Y-59111955D01*
X174690076Y-59083792D01*
X174603727Y-59058437D01*
X174565118Y-59047100D01*
X174565117Y-59047100D01*
X174434883Y-59047100D01*
X174434882Y-59047100D01*
X174372403Y-59065446D01*
X174309924Y-59083792D01*
X174309921Y-59083794D01*
X174200366Y-59154198D01*
X174200366Y-59154199D01*
X174115079Y-59252625D01*
X174115078Y-59252627D01*
X174060976Y-59371091D01*
X174042443Y-59500000D01*
X174050398Y-59555333D01*
X174040454Y-59624492D01*
X174015341Y-59660660D01*
X172691422Y-60984581D01*
X172630099Y-61018066D01*
X172603741Y-61020900D01*
X156454428Y-61020900D01*
X156378634Y-61052296D01*
X156378633Y-61052296D01*
X156370229Y-61055777D01*
X156370226Y-61055778D01*
X156370225Y-61055779D01*
X156370224Y-61055779D01*
X156370222Y-61055781D01*
X155805777Y-61620226D01*
X154852784Y-62573218D01*
X154852783Y-62573219D01*
X152353348Y-65072653D01*
X152292025Y-65106138D01*
X152222333Y-65101154D01*
X152198632Y-65089290D01*
X152190081Y-65083795D01*
X152190080Y-65083794D01*
X152190076Y-65083792D01*
X152065117Y-65047100D01*
X151934883Y-65047100D01*
X151934882Y-65047100D01*
X151891325Y-65059890D01*
X151809924Y-65083792D01*
X151809921Y-65083794D01*
X151700366Y-65154198D01*
X151700366Y-65154199D01*
X151615079Y-65252625D01*
X151615078Y-65252627D01*
X151560976Y-65371091D01*
X151542443Y-65500000D01*
X141382646Y-65500000D01*
X141299636Y-65404201D01*
X141299633Y-65404199D01*
X141299633Y-65404198D01*
X141233900Y-65361955D01*
X141190076Y-65333792D01*
X141106770Y-65309330D01*
X141065118Y-65297100D01*
X141065117Y-65297100D01*
X140934883Y-65297100D01*
X140934882Y-65297100D01*
X140872403Y-65315446D01*
X140809924Y-65333792D01*
X140809921Y-65333794D01*
X140700366Y-65404198D01*
X140700366Y-65404199D01*
X140615079Y-65502625D01*
X140615078Y-65502627D01*
X140560976Y-65621091D01*
X140542443Y-65750000D01*
X136890497Y-65750000D01*
X141151279Y-61489219D01*
X141212602Y-61455734D01*
X141238960Y-61452900D01*
X143559623Y-61452900D01*
X143559625Y-61452900D01*
X143674813Y-61422036D01*
X143778087Y-61362410D01*
X146651278Y-58489219D01*
X146712601Y-58455734D01*
X146738959Y-58452900D01*
X147348822Y-58452900D01*
X147415861Y-58472585D01*
X147461616Y-58525389D01*
X147471560Y-58594547D01*
X147442535Y-58658103D01*
X147414099Y-58682327D01*
X147396672Y-58693117D01*
X147396671Y-58693118D01*
X148003554Y-59300000D01*
X147997339Y-59300000D01*
X147895606Y-59327259D01*
X147804394Y-59379920D01*
X147729920Y-59454394D01*
X147677259Y-59545606D01*
X147650000Y-59647339D01*
X147650000Y-59653553D01*
X147041138Y-59044691D01*
X147041137Y-59044691D01*
X147025369Y-59065571D01*
X146926240Y-59264649D01*
X146865378Y-59478560D01*
X146844859Y-59699999D01*
X146844859Y-59700000D01*
X146865378Y-59921439D01*
X146926240Y-60135350D01*
X147025364Y-60334419D01*
X147025366Y-60334421D01*
X147041138Y-60355306D01*
X147650000Y-59746445D01*
X147650000Y-59752661D01*
X147677259Y-59854394D01*
X147729920Y-59945606D01*
X147804394Y-60020080D01*
X147895606Y-60072741D01*
X147997339Y-60100000D01*
X148003554Y-60100000D01*
X147396671Y-60706880D01*
X147512823Y-60778798D01*
X147512827Y-60778800D01*
X147631276Y-60824687D01*
X147686678Y-60867260D01*
X147710269Y-60933026D01*
X147694558Y-61001107D01*
X147644534Y-61049886D01*
X147631278Y-61055940D01*
X147462830Y-61121198D01*
X147462818Y-61121204D01*
X147346672Y-61193117D01*
X147346671Y-61193118D01*
X147953553Y-61800000D01*
X147947339Y-61800000D01*
X147845606Y-61827259D01*
X147754394Y-61879920D01*
X147679920Y-61954394D01*
X147627259Y-62045606D01*
X147600000Y-62147339D01*
X147600000Y-62153553D01*
X146991138Y-61544691D01*
X146991137Y-61544691D01*
X146975369Y-61565571D01*
X146876240Y-61764649D01*
X146815378Y-61978560D01*
X146794859Y-62199999D01*
X146794859Y-62200000D01*
X146815378Y-62421439D01*
X146876240Y-62635350D01*
X146975364Y-62834419D01*
X146975366Y-62834421D01*
X146991138Y-62855306D01*
X147600000Y-62246445D01*
X147600000Y-62252661D01*
X147627259Y-62354394D01*
X147679920Y-62445606D01*
X147754394Y-62520080D01*
X147845606Y-62572741D01*
X147947339Y-62600000D01*
X147953554Y-62600000D01*
X147346671Y-63206880D01*
X147462823Y-63278798D01*
X147462824Y-63278799D01*
X147670195Y-63359134D01*
X147888807Y-63400000D01*
X148111193Y-63400000D01*
X148329804Y-63359134D01*
X148537177Y-63278798D01*
X148537178Y-63278797D01*
X148653327Y-63206880D01*
X148046447Y-62600000D01*
X148052661Y-62600000D01*
X148154394Y-62572741D01*
X148245606Y-62520080D01*
X148320080Y-62445606D01*
X148372741Y-62354394D01*
X148400000Y-62252661D01*
X148400000Y-62246446D01*
X149008860Y-62855306D01*
X149008861Y-62855306D01*
X149024631Y-62834425D01*
X149024635Y-62834419D01*
X149113999Y-62654951D01*
X149161501Y-62603714D01*
X149229164Y-62586292D01*
X149295505Y-62608217D01*
X149335999Y-62654950D01*
X149425364Y-62834418D01*
X149425366Y-62834421D01*
X149441138Y-62855306D01*
X150050000Y-62246445D01*
X150050000Y-62252661D01*
X150077259Y-62354394D01*
X150129920Y-62445606D01*
X150204394Y-62520080D01*
X150295606Y-62572741D01*
X150397339Y-62600000D01*
X150403554Y-62600000D01*
X149796671Y-63206880D01*
X149912823Y-63278798D01*
X149912824Y-63278799D01*
X150120195Y-63359134D01*
X150338807Y-63400000D01*
X150561193Y-63400000D01*
X150779804Y-63359134D01*
X150987177Y-63278798D01*
X150987178Y-63278797D01*
X151103327Y-63206880D01*
X150496447Y-62600000D01*
X150502661Y-62600000D01*
X150604394Y-62572741D01*
X150695606Y-62520080D01*
X150770080Y-62445606D01*
X150822741Y-62354394D01*
X150850000Y-62252661D01*
X150850000Y-62246446D01*
X151458860Y-62855306D01*
X151458861Y-62855306D01*
X151474631Y-62834425D01*
X151474632Y-62834422D01*
X151573759Y-62635350D01*
X151634621Y-62421439D01*
X151655141Y-62200000D01*
X151655141Y-62199999D01*
X151634621Y-61978560D01*
X151573759Y-61764649D01*
X151474633Y-61565577D01*
X151474631Y-61565574D01*
X151458860Y-61544691D01*
X150850000Y-62153552D01*
X150850000Y-62147339D01*
X150822741Y-62045606D01*
X150770080Y-61954394D01*
X150695606Y-61879920D01*
X150604394Y-61827259D01*
X150502661Y-61800000D01*
X150496447Y-61800000D01*
X151103327Y-61193118D01*
X151103326Y-61193117D01*
X150987181Y-61121203D01*
X150987175Y-61121200D01*
X150843722Y-61065627D01*
X150788321Y-61023054D01*
X150764730Y-60957287D01*
X150780441Y-60889207D01*
X150830465Y-60840428D01*
X150843722Y-60834373D01*
X150987177Y-60778798D01*
X150987178Y-60778797D01*
X151103327Y-60706880D01*
X150496447Y-60100000D01*
X150502661Y-60100000D01*
X150604394Y-60072741D01*
X150695606Y-60020080D01*
X150770080Y-59945606D01*
X150822741Y-59854394D01*
X150850000Y-59752661D01*
X150850000Y-59746446D01*
X151458860Y-60355306D01*
X151458861Y-60355306D01*
X151474631Y-60334425D01*
X151474632Y-60334422D01*
X151573759Y-60135350D01*
X151634621Y-59921439D01*
X151655141Y-59700000D01*
X151655141Y-59699999D01*
X151634621Y-59478560D01*
X151573759Y-59264649D01*
X151474633Y-59065577D01*
X151474631Y-59065574D01*
X151458860Y-59044691D01*
X150850000Y-59653552D01*
X150850000Y-59647339D01*
X150822741Y-59545606D01*
X150770080Y-59454394D01*
X150695606Y-59379920D01*
X150604394Y-59327259D01*
X150502661Y-59300000D01*
X150496447Y-59300000D01*
X151103327Y-58693118D01*
X151103326Y-58693117D01*
X151085899Y-58682327D01*
X151039263Y-58630299D01*
X151028159Y-58561318D01*
X151056112Y-58497283D01*
X151114247Y-58458527D01*
X151151176Y-58452900D01*
X164559623Y-58452900D01*
X164559625Y-58452900D01*
X164674813Y-58422036D01*
X164778087Y-58362410D01*
X165862410Y-57278087D01*
X165922036Y-57174813D01*
X165952900Y-57059625D01*
X165952900Y-56940374D01*
X165952900Y-53491259D01*
X165954162Y-53473612D01*
X165957557Y-53449999D01*
X165954162Y-53426385D01*
X165952900Y-53408739D01*
X165952900Y-53390376D01*
X165946361Y-53365973D01*
X165943398Y-53351523D01*
X165939023Y-53321093D01*
X165939022Y-53321089D01*
X165931983Y-53305676D01*
X165925000Y-53286251D01*
X165922036Y-53275187D01*
X165905953Y-53247332D01*
X165900553Y-53236855D01*
X165884920Y-53202624D01*
X165884919Y-53202623D01*
X165878353Y-53195045D01*
X165864677Y-53175839D01*
X165862411Y-53171915D01*
X165862411Y-53171914D01*
X165862408Y-53171911D01*
X165834803Y-53144306D01*
X165828799Y-53137858D01*
X165799636Y-53104201D01*
X165799635Y-53104200D01*
X165797028Y-53102525D01*
X165784571Y-53092486D01*
X165784533Y-53092537D01*
X165778091Y-53087594D01*
X165778087Y-53087590D01*
X165738341Y-53064642D01*
X165738331Y-53064636D01*
X165733295Y-53061566D01*
X165690078Y-53033793D01*
X165688779Y-53033199D01*
X165679838Y-53030046D01*
X165674814Y-53027965D01*
X165674813Y-53027964D01*
X165674810Y-53027963D01*
X165674805Y-53027961D01*
X165623822Y-53014300D01*
X165620982Y-53013503D01*
X165565119Y-52997100D01*
X165565117Y-52997100D01*
X165434883Y-52997100D01*
X165434879Y-52997100D01*
X165379026Y-53013500D01*
X165376187Y-53014297D01*
X165325186Y-53027963D01*
X165320137Y-53030054D01*
X165311223Y-53033198D01*
X165309918Y-53033794D01*
X165266690Y-53061574D01*
X165261658Y-53064642D01*
X165221913Y-53087590D01*
X165221912Y-53087591D01*
X165215463Y-53092539D01*
X165215425Y-53092490D01*
X165202977Y-53102520D01*
X165200368Y-53104196D01*
X165200365Y-53104199D01*
X165171212Y-53137842D01*
X165165186Y-53144315D01*
X165137590Y-53171911D01*
X165137586Y-53171917D01*
X165135310Y-53175859D01*
X165121655Y-53195034D01*
X165115080Y-53202623D01*
X165115077Y-53202626D01*
X165099441Y-53236863D01*
X165094039Y-53247342D01*
X165077964Y-53275187D01*
X165074997Y-53286259D01*
X165068019Y-53305670D01*
X165060977Y-53321089D01*
X165060976Y-53321091D01*
X165056599Y-53351532D01*
X165053638Y-53365969D01*
X165047100Y-53390369D01*
X165047100Y-53408739D01*
X165045838Y-53426385D01*
X165042443Y-53449999D01*
X165045838Y-53473612D01*
X165047100Y-53491259D01*
X165047100Y-56761041D01*
X165027415Y-56828080D01*
X165010781Y-56848722D01*
X164348722Y-57510781D01*
X164287399Y-57544266D01*
X164261041Y-57547100D01*
X146440375Y-57547100D01*
X146325185Y-57577964D01*
X146221913Y-57637590D01*
X146221910Y-57637592D01*
X143348722Y-60510781D01*
X143287399Y-60544266D01*
X143261041Y-60547100D01*
X140940375Y-60547100D01*
X140825187Y-60577964D01*
X140825184Y-60577965D01*
X140721915Y-60637588D01*
X140721909Y-60637592D01*
X135971913Y-65387590D01*
X135887592Y-65471910D01*
X135887590Y-65471913D01*
X135827964Y-65575185D01*
X135797100Y-65690375D01*
X135797100Y-71261039D01*
X135777415Y-71328078D01*
X135760782Y-71348719D01*
X135721913Y-71387589D01*
X135721913Y-71387590D01*
X135637589Y-71471913D01*
X135577964Y-71575185D01*
X135547100Y-71690375D01*
X135547100Y-72011041D01*
X135527415Y-72078080D01*
X135510781Y-72098722D01*
X134548722Y-73060781D01*
X134487399Y-73094266D01*
X134461041Y-73097100D01*
X134434879Y-73097100D01*
X134379026Y-73113500D01*
X134376187Y-73114297D01*
X134325186Y-73127963D01*
X134320137Y-73130054D01*
X134311223Y-73133198D01*
X134309918Y-73133794D01*
X134266690Y-73161574D01*
X134261658Y-73164642D01*
X134221913Y-73187590D01*
X134221912Y-73187591D01*
X134215463Y-73192539D01*
X134215425Y-73192490D01*
X134202977Y-73202520D01*
X134200368Y-73204196D01*
X134200365Y-73204199D01*
X134171212Y-73237842D01*
X134165186Y-73244315D01*
X134137590Y-73271911D01*
X134137586Y-73271917D01*
X134135310Y-73275859D01*
X134121655Y-73295034D01*
X134115080Y-73302623D01*
X134115077Y-73302626D01*
X134099441Y-73336863D01*
X134094039Y-73347342D01*
X134077964Y-73375187D01*
X134074997Y-73386259D01*
X134068019Y-73405670D01*
X134060977Y-73421089D01*
X134060976Y-73421091D01*
X134056599Y-73451532D01*
X134053638Y-73465969D01*
X134047100Y-73490369D01*
X134047100Y-73508739D01*
X134045838Y-73526385D01*
X134042443Y-73549999D01*
X89200500Y-73549999D01*
X89200500Y-65381902D01*
X90324500Y-65381902D01*
X90324500Y-65618097D01*
X90361446Y-65851368D01*
X90434433Y-66075996D01*
X90502120Y-66208838D01*
X90541657Y-66286433D01*
X90680483Y-66477510D01*
X90847490Y-66644517D01*
X91038567Y-66783343D01*
X91137991Y-66834002D01*
X91249003Y-66890566D01*
X91249005Y-66890566D01*
X91249008Y-66890568D01*
X91369412Y-66929689D01*
X91473631Y-66963553D01*
X91706903Y-67000500D01*
X91706908Y-67000500D01*
X91943097Y-67000500D01*
X92176368Y-66963553D01*
X92400992Y-66890568D01*
X92611433Y-66783343D01*
X92802510Y-66644517D01*
X92969517Y-66477510D01*
X93108343Y-66286433D01*
X93215568Y-66075992D01*
X93288553Y-65851368D01*
X93305024Y-65747374D01*
X93325500Y-65618097D01*
X93325500Y-65499998D01*
X98089843Y-65499998D01*
X98089843Y-65500001D01*
X98110430Y-65735315D01*
X98110432Y-65735326D01*
X98171566Y-65963483D01*
X98171570Y-65963492D01*
X98271398Y-66177576D01*
X98330073Y-66261372D01*
X98921212Y-65670233D01*
X98932482Y-65712292D01*
X99004890Y-65837708D01*
X99107292Y-65940110D01*
X99232708Y-66012518D01*
X99274766Y-66023787D01*
X98683626Y-66614926D01*
X98767417Y-66673598D01*
X98767421Y-66673600D01*
X98981507Y-66773429D01*
X98981516Y-66773433D01*
X99209673Y-66834567D01*
X99209684Y-66834569D01*
X99444998Y-66855157D01*
X99445002Y-66855157D01*
X99680315Y-66834569D01*
X99680326Y-66834567D01*
X99908483Y-66773433D01*
X99908492Y-66773429D01*
X100122580Y-66673599D01*
X100206371Y-66614925D01*
X99615233Y-66023787D01*
X99657292Y-66012518D01*
X99782708Y-65940110D01*
X99885110Y-65837708D01*
X99957518Y-65712292D01*
X99968787Y-65670233D01*
X100559925Y-66261371D01*
X100618599Y-66177580D01*
X100718429Y-65963492D01*
X100718433Y-65963483D01*
X100779567Y-65735326D01*
X100779569Y-65735315D01*
X100800157Y-65500001D01*
X100800157Y-65499998D01*
X100779569Y-65264684D01*
X100779567Y-65264673D01*
X100718433Y-65036516D01*
X100718429Y-65036507D01*
X100618601Y-64822424D01*
X100559925Y-64738626D01*
X99968787Y-65329765D01*
X99957518Y-65287708D01*
X99885110Y-65162292D01*
X99782708Y-65059890D01*
X99657292Y-64987482D01*
X99615234Y-64976212D01*
X100206372Y-64385073D01*
X100122576Y-64326398D01*
X99908492Y-64226570D01*
X99908486Y-64226567D01*
X99699280Y-64170511D01*
X99639620Y-64134146D01*
X99609091Y-64071299D01*
X99617386Y-64001923D01*
X99661871Y-63948045D01*
X99695372Y-63932078D01*
X99830650Y-63891042D01*
X100004878Y-63797916D01*
X100157589Y-63672589D01*
X100282916Y-63519878D01*
X100376042Y-63345650D01*
X100397474Y-63275000D01*
X120982127Y-63275000D01*
X121001966Y-63463757D01*
X121001967Y-63463760D01*
X121060614Y-63644258D01*
X121060619Y-63644270D01*
X121155511Y-63808629D01*
X121155513Y-63808632D01*
X121281351Y-63948389D01*
X121282514Y-63949681D01*
X121351084Y-63999500D01*
X121436063Y-64061241D01*
X121609447Y-64138437D01*
X121609452Y-64138439D01*
X121795101Y-64177900D01*
X121984899Y-64177900D01*
X122170548Y-64138439D01*
X122343937Y-64061241D01*
X122497486Y-63949681D01*
X122624485Y-63808634D01*
X122719383Y-63644265D01*
X122778034Y-63463757D01*
X122797873Y-63275000D01*
X122778034Y-63086243D01*
X122719383Y-62905735D01*
X122719380Y-62905729D01*
X122624488Y-62741370D01*
X122624486Y-62741367D01*
X122497487Y-62600320D01*
X122478179Y-62586292D01*
X122343937Y-62488759D01*
X122343936Y-62488758D01*
X122170552Y-62411562D01*
X122170547Y-62411560D01*
X121984899Y-62372100D01*
X121795101Y-62372100D01*
X121609452Y-62411560D01*
X121609447Y-62411562D01*
X121436064Y-62488758D01*
X121436059Y-62488761D01*
X121282515Y-62600317D01*
X121282508Y-62600323D01*
X121155514Y-62741367D01*
X121155511Y-62741370D01*
X121060619Y-62905729D01*
X121060614Y-62905741D01*
X121001967Y-63086239D01*
X121001966Y-63086243D01*
X120982127Y-63275000D01*
X100397474Y-63275000D01*
X100433389Y-63156603D01*
X100452753Y-62960000D01*
X100433389Y-62763397D01*
X100376042Y-62574350D01*
X100282916Y-62400122D01*
X100238335Y-62345800D01*
X100157589Y-62247410D01*
X100004881Y-62122086D01*
X100004879Y-62122085D01*
X100004878Y-62122084D01*
X99830650Y-62028958D01*
X99641603Y-61971611D01*
X99641601Y-61971610D01*
X99641599Y-61971610D01*
X99445000Y-61952247D01*
X99248400Y-61971610D01*
X99059350Y-62028958D01*
X98885118Y-62122086D01*
X98732410Y-62247410D01*
X98607086Y-62400118D01*
X98513958Y-62574350D01*
X98456610Y-62763400D01*
X98437247Y-62960000D01*
X98456610Y-63156599D01*
X98456610Y-63156601D01*
X98456611Y-63156603D01*
X98513958Y-63345650D01*
X98577087Y-63463757D01*
X98607086Y-63519881D01*
X98732410Y-63672589D01*
X98885118Y-63797913D01*
X98885122Y-63797916D01*
X99059350Y-63891042D01*
X99194622Y-63932076D01*
X99253059Y-63970373D01*
X99281515Y-64034185D01*
X99270955Y-64103252D01*
X99224731Y-64155646D01*
X99190719Y-64170511D01*
X98981513Y-64226567D01*
X98981507Y-64226570D01*
X98767423Y-64326399D01*
X98767421Y-64326400D01*
X98683627Y-64385073D01*
X98683626Y-64385073D01*
X99274766Y-64976212D01*
X99232708Y-64987482D01*
X99107292Y-65059890D01*
X99004890Y-65162292D01*
X98932482Y-65287708D01*
X98921212Y-65329765D01*
X98330073Y-64738626D01*
X98330073Y-64738627D01*
X98271400Y-64822421D01*
X98271399Y-64822423D01*
X98171570Y-65036507D01*
X98171566Y-65036516D01*
X98110432Y-65264673D01*
X98110430Y-65264684D01*
X98089843Y-65499998D01*
X93325500Y-65499998D01*
X93325500Y-65381902D01*
X93288553Y-65148631D01*
X93215566Y-64924003D01*
X93159002Y-64812991D01*
X93108343Y-64713567D01*
X92969517Y-64522490D01*
X92802510Y-64355483D01*
X92611433Y-64216657D01*
X92400996Y-64109433D01*
X92176368Y-64036446D01*
X91943097Y-63999500D01*
X91943092Y-63999500D01*
X91706908Y-63999500D01*
X91706903Y-63999500D01*
X91473631Y-64036446D01*
X91249003Y-64109433D01*
X91038566Y-64216657D01*
X90929550Y-64295862D01*
X90847490Y-64355483D01*
X90847488Y-64355485D01*
X90847487Y-64355485D01*
X90680485Y-64522487D01*
X90680485Y-64522488D01*
X90680483Y-64522490D01*
X90620862Y-64604550D01*
X90541657Y-64713566D01*
X90434433Y-64924003D01*
X90361446Y-65148631D01*
X90324500Y-65381902D01*
X89200500Y-65381902D01*
X89200500Y-60420000D01*
X98437247Y-60420000D01*
X98456610Y-60616599D01*
X98456610Y-60616601D01*
X98456611Y-60616603D01*
X98513958Y-60805650D01*
X98589667Y-60947292D01*
X98607086Y-60979881D01*
X98732410Y-61132589D01*
X98870122Y-61245606D01*
X98885122Y-61257916D01*
X99059350Y-61351042D01*
X99248397Y-61408389D01*
X99445000Y-61427753D01*
X99641603Y-61408389D01*
X99830650Y-61351042D01*
X100004878Y-61257916D01*
X100157589Y-61132589D01*
X100282916Y-60979878D01*
X100376042Y-60805650D01*
X100433389Y-60616603D01*
X100452753Y-60420000D01*
X100433389Y-60223397D01*
X100376042Y-60034350D01*
X100282916Y-59860122D01*
X100271163Y-59845801D01*
X100192542Y-59750000D01*
X103542443Y-59750000D01*
X103560976Y-59878908D01*
X103595858Y-59955286D01*
X103615079Y-59997374D01*
X103700364Y-60095799D01*
X103713938Y-60104522D01*
X103759693Y-60157323D01*
X103770900Y-60208838D01*
X103770900Y-61541161D01*
X103751215Y-61608200D01*
X103713942Y-61645474D01*
X103705566Y-61650857D01*
X103700362Y-61654202D01*
X103700358Y-61654206D01*
X103615081Y-61752621D01*
X103615078Y-61752627D01*
X103560976Y-61871091D01*
X103542443Y-62000000D01*
X103560976Y-62128908D01*
X103610318Y-62236949D01*
X103615079Y-62247374D01*
X103700364Y-62345799D01*
X103700366Y-62345800D01*
X103700366Y-62345801D01*
X103741290Y-62372100D01*
X103809924Y-62416208D01*
X103910042Y-62445606D01*
X103934882Y-62452900D01*
X103934883Y-62452900D01*
X104065118Y-62452900D01*
X104084625Y-62447171D01*
X104190076Y-62416208D01*
X104299636Y-62345799D01*
X104384921Y-62247374D01*
X104439023Y-62128909D01*
X104457557Y-62000000D01*
X104439023Y-61871091D01*
X104384921Y-61752626D01*
X104384919Y-61752624D01*
X104384918Y-61752621D01*
X104299641Y-61654206D01*
X104299637Y-61654202D01*
X104299636Y-61654201D01*
X104286058Y-61645474D01*
X104240305Y-61592671D01*
X104229100Y-61541161D01*
X104229100Y-60734999D01*
X120635225Y-60734999D01*
X120635225Y-60735000D01*
X120654287Y-60952884D01*
X120654289Y-60952894D01*
X120710894Y-61164150D01*
X120710898Y-61164159D01*
X120803333Y-61362387D01*
X120846874Y-61424571D01*
X121366212Y-60905233D01*
X121377482Y-60947292D01*
X121449890Y-61072708D01*
X121552292Y-61175110D01*
X121677708Y-61247518D01*
X121719765Y-61258787D01*
X121200427Y-61778124D01*
X121262612Y-61821666D01*
X121460840Y-61914101D01*
X121460849Y-61914105D01*
X121672105Y-61970710D01*
X121672115Y-61970712D01*
X121889999Y-61989775D01*
X121890001Y-61989775D01*
X122107884Y-61970712D01*
X122107894Y-61970710D01*
X122319150Y-61914105D01*
X122319164Y-61914100D01*
X122517383Y-61821669D01*
X122517385Y-61821668D01*
X122579571Y-61778124D01*
X122060235Y-61258787D01*
X122102292Y-61247518D01*
X122227708Y-61175110D01*
X122330110Y-61072708D01*
X122402518Y-60947292D01*
X122413787Y-60905234D01*
X122933124Y-61424570D01*
X122976668Y-61362385D01*
X122976669Y-61362383D01*
X123069100Y-61164164D01*
X123069105Y-61164150D01*
X123125710Y-60952894D01*
X123125712Y-60952884D01*
X123144775Y-60735000D01*
X123144775Y-60734999D01*
X123125712Y-60517115D01*
X123125710Y-60517105D01*
X123069105Y-60305849D01*
X123069101Y-60305840D01*
X122976668Y-60107615D01*
X122933123Y-60045428D01*
X122413787Y-60564764D01*
X122402518Y-60522708D01*
X122330110Y-60397292D01*
X122227708Y-60294890D01*
X122102292Y-60222482D01*
X122060234Y-60211212D01*
X122579571Y-59691874D01*
X122517387Y-59648333D01*
X122319159Y-59555898D01*
X122319150Y-59555894D01*
X122107894Y-59499289D01*
X122107884Y-59499287D01*
X121890001Y-59480225D01*
X121889999Y-59480225D01*
X121672115Y-59499287D01*
X121672105Y-59499289D01*
X121460849Y-59555894D01*
X121460840Y-59555898D01*
X121262614Y-59648332D01*
X121262612Y-59648333D01*
X121200428Y-59691875D01*
X121200427Y-59691875D01*
X121719765Y-60211212D01*
X121677708Y-60222482D01*
X121552292Y-60294890D01*
X121449890Y-60397292D01*
X121377482Y-60522708D01*
X121366212Y-60564765D01*
X120846875Y-60045427D01*
X120846875Y-60045428D01*
X120803333Y-60107612D01*
X120803332Y-60107614D01*
X120710898Y-60305840D01*
X120710894Y-60305849D01*
X120654289Y-60517105D01*
X120654287Y-60517115D01*
X120635225Y-60734999D01*
X104229100Y-60734999D01*
X104229100Y-60208838D01*
X104248785Y-60141799D01*
X104286061Y-60104522D01*
X104299636Y-60095799D01*
X104384921Y-59997374D01*
X104439023Y-59878909D01*
X104457557Y-59750000D01*
X104439023Y-59621091D01*
X104384921Y-59502626D01*
X104299636Y-59404201D01*
X104299633Y-59404199D01*
X104299633Y-59404198D01*
X104209766Y-59346446D01*
X104190076Y-59333792D01*
X104106770Y-59309330D01*
X104065118Y-59297100D01*
X104065117Y-59297100D01*
X103934883Y-59297100D01*
X103934882Y-59297100D01*
X103872403Y-59315446D01*
X103809924Y-59333792D01*
X103809921Y-59333794D01*
X103700366Y-59404198D01*
X103700366Y-59404199D01*
X103615079Y-59502625D01*
X103615078Y-59502627D01*
X103560976Y-59621091D01*
X103542443Y-59750000D01*
X100192542Y-59750000D01*
X100157589Y-59707410D01*
X100004881Y-59582086D01*
X100004879Y-59582085D01*
X100004878Y-59582084D01*
X99830650Y-59488958D01*
X99641603Y-59431611D01*
X99641601Y-59431610D01*
X99641599Y-59431610D01*
X99445000Y-59412247D01*
X99248400Y-59431610D01*
X99059350Y-59488958D01*
X98885118Y-59582086D01*
X98732410Y-59707410D01*
X98607086Y-59860118D01*
X98513958Y-60034350D01*
X98456610Y-60223400D01*
X98437247Y-60420000D01*
X89200500Y-60420000D01*
X89200500Y-55339998D01*
X98089843Y-55339998D01*
X98089843Y-55340001D01*
X98110430Y-55575315D01*
X98110432Y-55575326D01*
X98171566Y-55803483D01*
X98171570Y-55803492D01*
X98271398Y-56017576D01*
X98330073Y-56101372D01*
X98921212Y-55510233D01*
X98932482Y-55552292D01*
X99004890Y-55677708D01*
X99107292Y-55780110D01*
X99232708Y-55852518D01*
X99274766Y-55863787D01*
X98683626Y-56454926D01*
X98767417Y-56513598D01*
X98767421Y-56513600D01*
X98981507Y-56613429D01*
X98981516Y-56613433D01*
X99190718Y-56669488D01*
X99250379Y-56705853D01*
X99280908Y-56768700D01*
X99272613Y-56838075D01*
X99228128Y-56891953D01*
X99194621Y-56907923D01*
X99059354Y-56948956D01*
X98885118Y-57042086D01*
X98732410Y-57167410D01*
X98607086Y-57320118D01*
X98513958Y-57494350D01*
X98456610Y-57683400D01*
X98437247Y-57880000D01*
X98456610Y-58076599D01*
X98456610Y-58076601D01*
X98456611Y-58076603D01*
X98513958Y-58265650D01*
X98607084Y-58439878D01*
X98607086Y-58439881D01*
X98732410Y-58592589D01*
X98861449Y-58698488D01*
X98885122Y-58717916D01*
X99059350Y-58811042D01*
X99248397Y-58868389D01*
X99445000Y-58887753D01*
X99641603Y-58868389D01*
X99830650Y-58811042D01*
X100004878Y-58717916D01*
X100157589Y-58592589D01*
X100282916Y-58439878D01*
X100376042Y-58265650D01*
X100397474Y-58195000D01*
X120982127Y-58195000D01*
X121001966Y-58383757D01*
X121001967Y-58383760D01*
X121060614Y-58564258D01*
X121060619Y-58564270D01*
X121155511Y-58728629D01*
X121155513Y-58728632D01*
X121281351Y-58868389D01*
X121282514Y-58869681D01*
X121397055Y-58952900D01*
X121436063Y-58981241D01*
X121609447Y-59058437D01*
X121609452Y-59058439D01*
X121795101Y-59097900D01*
X121984899Y-59097900D01*
X122170548Y-59058439D01*
X122343937Y-58981241D01*
X122497486Y-58869681D01*
X122624485Y-58728634D01*
X122639343Y-58702900D01*
X122719380Y-58564270D01*
X122719379Y-58564270D01*
X122719383Y-58564265D01*
X122778034Y-58383757D01*
X122797873Y-58195000D01*
X122778034Y-58006243D01*
X122719383Y-57825735D01*
X122719380Y-57825729D01*
X122624488Y-57661370D01*
X122624486Y-57661367D01*
X122497487Y-57520320D01*
X122490741Y-57515419D01*
X122343937Y-57408759D01*
X122343936Y-57408758D01*
X122170552Y-57331562D01*
X122170547Y-57331560D01*
X121984899Y-57292100D01*
X121795101Y-57292100D01*
X121609452Y-57331560D01*
X121609447Y-57331562D01*
X121436064Y-57408758D01*
X121436059Y-57408761D01*
X121282515Y-57520317D01*
X121282508Y-57520323D01*
X121155514Y-57661367D01*
X121155511Y-57661370D01*
X121060619Y-57825729D01*
X121060614Y-57825741D01*
X121003141Y-58002626D01*
X121001966Y-58006243D01*
X120982127Y-58195000D01*
X100397474Y-58195000D01*
X100433389Y-58076603D01*
X100452753Y-57880000D01*
X100433389Y-57683397D01*
X100376042Y-57494350D01*
X100282916Y-57320122D01*
X100259919Y-57292100D01*
X100225369Y-57250000D01*
X136042443Y-57250000D01*
X136060976Y-57378908D01*
X136074609Y-57408759D01*
X136115079Y-57497374D01*
X136200364Y-57595799D01*
X136200366Y-57595800D01*
X136200366Y-57595801D01*
X136244188Y-57623962D01*
X136309924Y-57666208D01*
X136411765Y-57696112D01*
X136434882Y-57702900D01*
X136434883Y-57702900D01*
X136565118Y-57702900D01*
X136584625Y-57697171D01*
X136690076Y-57666208D01*
X136799636Y-57595799D01*
X136863671Y-57521897D01*
X136922449Y-57484123D01*
X136957384Y-57479100D01*
X139603741Y-57479100D01*
X139670780Y-57498785D01*
X139691422Y-57515419D01*
X140265341Y-58089338D01*
X140298826Y-58150661D01*
X140300398Y-58194664D01*
X140300350Y-58195000D01*
X140292443Y-58250000D01*
X140292821Y-58252626D01*
X140310976Y-58378908D01*
X140344768Y-58452900D01*
X140365079Y-58497374D01*
X140450364Y-58595799D01*
X140501885Y-58628909D01*
X140527988Y-58645684D01*
X140573743Y-58698488D01*
X140583687Y-58767646D01*
X140554662Y-58831202D01*
X140527988Y-58854316D01*
X140450363Y-58904201D01*
X140450362Y-58904202D01*
X140386329Y-58978102D01*
X140327551Y-59015877D01*
X140292616Y-59020900D01*
X137396259Y-59020900D01*
X137329220Y-59001215D01*
X137308578Y-58984581D01*
X136984658Y-58660661D01*
X136951173Y-58599338D01*
X136949601Y-58555333D01*
X136957557Y-58500000D01*
X136939023Y-58371091D01*
X136884921Y-58252626D01*
X136799636Y-58154201D01*
X136799633Y-58154199D01*
X136799633Y-58154198D01*
X136733900Y-58111955D01*
X136690076Y-58083792D01*
X136606770Y-58059330D01*
X136565118Y-58047100D01*
X136565117Y-58047100D01*
X136434883Y-58047100D01*
X136434882Y-58047100D01*
X136372403Y-58065446D01*
X136309924Y-58083792D01*
X136309921Y-58083794D01*
X136200366Y-58154198D01*
X136200366Y-58154199D01*
X136115079Y-58252625D01*
X136115078Y-58252627D01*
X136060976Y-58371091D01*
X136042443Y-58500000D01*
X136060976Y-58628908D01*
X136108219Y-58732354D01*
X136115079Y-58747374D01*
X136200364Y-58845799D01*
X136200366Y-58845800D01*
X136200366Y-58845801D01*
X136244188Y-58873962D01*
X136309924Y-58916208D01*
X136411765Y-58946112D01*
X136434882Y-58952900D01*
X136573986Y-58952900D01*
X136573986Y-58955806D01*
X136628601Y-58963656D01*
X136664775Y-58988772D01*
X137120225Y-59444222D01*
X137120230Y-59444224D01*
X137179766Y-59468885D01*
X137179767Y-59468885D01*
X137204426Y-59479099D01*
X137204427Y-59479099D01*
X137204429Y-59479100D01*
X137204430Y-59479100D01*
X137295570Y-59479100D01*
X140292616Y-59479100D01*
X140359655Y-59498785D01*
X140386329Y-59521898D01*
X140450362Y-59595797D01*
X140450366Y-59595801D01*
X140489720Y-59621091D01*
X140559924Y-59666208D01*
X140661765Y-59696112D01*
X140684882Y-59702900D01*
X140684883Y-59702900D01*
X140815118Y-59702900D01*
X140834625Y-59697171D01*
X140940076Y-59666208D01*
X141049636Y-59595799D01*
X141134921Y-59497374D01*
X141189023Y-59378909D01*
X141207557Y-59250000D01*
X141189023Y-59121091D01*
X141134921Y-59002626D01*
X141049636Y-58904201D01*
X141049633Y-58904199D01*
X141049633Y-58904198D01*
X140972012Y-58854316D01*
X140926256Y-58801513D01*
X140916312Y-58732354D01*
X140945336Y-58668798D01*
X140972012Y-58645684D01*
X140998117Y-58628908D01*
X141049636Y-58595799D01*
X141134921Y-58497374D01*
X141189023Y-58378909D01*
X141207557Y-58250000D01*
X141189023Y-58121091D01*
X141134921Y-58002626D01*
X141049636Y-57904201D01*
X141049633Y-57904199D01*
X141049633Y-57904198D01*
X140983900Y-57861955D01*
X140940076Y-57833792D01*
X140856770Y-57809330D01*
X140815118Y-57797100D01*
X140815117Y-57797100D01*
X140684883Y-57797100D01*
X140676015Y-57797100D01*
X140676015Y-57794196D01*
X140621388Y-57786339D01*
X140585224Y-57761228D01*
X140232757Y-57408761D01*
X139879775Y-57055778D01*
X139820233Y-57031115D01*
X139820232Y-57031114D01*
X139795571Y-57020900D01*
X136957384Y-57020900D01*
X136890345Y-57001215D01*
X136863671Y-56978102D01*
X136799637Y-56904202D01*
X136799633Y-56904198D01*
X136733900Y-56861955D01*
X136690076Y-56833792D01*
X136594794Y-56805814D01*
X136565118Y-56797100D01*
X136565117Y-56797100D01*
X136434883Y-56797100D01*
X136434882Y-56797100D01*
X136405206Y-56805814D01*
X136309924Y-56833792D01*
X136309921Y-56833794D01*
X136200366Y-56904198D01*
X136200366Y-56904199D01*
X136115079Y-57002625D01*
X136115078Y-57002627D01*
X136060976Y-57121091D01*
X136042443Y-57250000D01*
X100225369Y-57250000D01*
X100157589Y-57167410D01*
X100004881Y-57042086D01*
X100004879Y-57042085D01*
X100004878Y-57042084D01*
X99830650Y-56948958D01*
X99830647Y-56948957D01*
X99830645Y-56948956D01*
X99695378Y-56907923D01*
X99636940Y-56869626D01*
X99608483Y-56805814D01*
X99619044Y-56736747D01*
X99665269Y-56684353D01*
X99699281Y-56669488D01*
X99908483Y-56613433D01*
X99908492Y-56613429D01*
X100122580Y-56513599D01*
X100206371Y-56454925D01*
X99615233Y-55863787D01*
X99657292Y-55852518D01*
X99782708Y-55780110D01*
X99885110Y-55677708D01*
X99957518Y-55552292D01*
X99968787Y-55510233D01*
X100559925Y-56101371D01*
X100618599Y-56017580D01*
X100718429Y-55803492D01*
X100718433Y-55803483D01*
X100758219Y-55655000D01*
X120982127Y-55655000D01*
X121001966Y-55843757D01*
X121001967Y-55843760D01*
X121060614Y-56024258D01*
X121060619Y-56024270D01*
X121155511Y-56188629D01*
X121155513Y-56188632D01*
X121155515Y-56188634D01*
X121282514Y-56329681D01*
X121436063Y-56441241D01*
X121609447Y-56518437D01*
X121609452Y-56518439D01*
X121795101Y-56557900D01*
X121984899Y-56557900D01*
X122170548Y-56518439D01*
X122343937Y-56441241D01*
X122497486Y-56329681D01*
X122624485Y-56188634D01*
X122719383Y-56024265D01*
X122778034Y-55843757D01*
X122797873Y-55655000D01*
X122778034Y-55466243D01*
X122719383Y-55285735D01*
X122628147Y-55127708D01*
X122624488Y-55121370D01*
X122624486Y-55121367D01*
X122497487Y-54980320D01*
X122343936Y-54868758D01*
X122170552Y-54791562D01*
X122170547Y-54791560D01*
X121984899Y-54752100D01*
X121795101Y-54752100D01*
X121609452Y-54791560D01*
X121609447Y-54791562D01*
X121436064Y-54868758D01*
X121436059Y-54868761D01*
X121282515Y-54980317D01*
X121282508Y-54980323D01*
X121155514Y-55121367D01*
X121155511Y-55121370D01*
X121060619Y-55285729D01*
X121060614Y-55285741D01*
X121001967Y-55466239D01*
X121001966Y-55466243D01*
X120982127Y-55655000D01*
X100758219Y-55655000D01*
X100779567Y-55575326D01*
X100779569Y-55575315D01*
X100800157Y-55340001D01*
X100800157Y-55339998D01*
X100779569Y-55104684D01*
X100779567Y-55104673D01*
X100718433Y-54876516D01*
X100718429Y-54876507D01*
X100618601Y-54662424D01*
X100559925Y-54578626D01*
X99968787Y-55169765D01*
X99957518Y-55127708D01*
X99885110Y-55002292D01*
X99782708Y-54899890D01*
X99657292Y-54827482D01*
X99615234Y-54816212D01*
X100206372Y-54225073D01*
X100122576Y-54166398D01*
X99908492Y-54066570D01*
X99908486Y-54066567D01*
X99699280Y-54010511D01*
X99639620Y-53974146D01*
X99609091Y-53911299D01*
X99617386Y-53841923D01*
X99661871Y-53788045D01*
X99695372Y-53772078D01*
X99830650Y-53731042D01*
X100004878Y-53637916D01*
X100157589Y-53512589D01*
X100282916Y-53359878D01*
X100376042Y-53185650D01*
X100397474Y-53115000D01*
X120982127Y-53115000D01*
X121001966Y-53303757D01*
X121001967Y-53303760D01*
X121060614Y-53484258D01*
X121060619Y-53484270D01*
X121155511Y-53648629D01*
X121155513Y-53648632D01*
X121281351Y-53788389D01*
X121282514Y-53789681D01*
X121354419Y-53841923D01*
X121436063Y-53901241D01*
X121609447Y-53978437D01*
X121609452Y-53978439D01*
X121795101Y-54017900D01*
X121984899Y-54017900D01*
X122170548Y-53978439D01*
X122343937Y-53901241D01*
X122497486Y-53789681D01*
X122624485Y-53648634D01*
X122719383Y-53484265D01*
X122778034Y-53303757D01*
X122797873Y-53115000D01*
X122778034Y-52926243D01*
X122719383Y-52745735D01*
X122719380Y-52745729D01*
X122624488Y-52581370D01*
X122624486Y-52581367D01*
X122497487Y-52440320D01*
X122343936Y-52328758D01*
X122170552Y-52251562D01*
X122170547Y-52251560D01*
X121984899Y-52212100D01*
X121795101Y-52212100D01*
X121609452Y-52251560D01*
X121609447Y-52251562D01*
X121436064Y-52328758D01*
X121436059Y-52328761D01*
X121282515Y-52440317D01*
X121282508Y-52440323D01*
X121155514Y-52581367D01*
X121155511Y-52581370D01*
X121060619Y-52745729D01*
X121060614Y-52745741D01*
X121001967Y-52926239D01*
X121001966Y-52926243D01*
X120982127Y-53115000D01*
X100397474Y-53115000D01*
X100433389Y-52996603D01*
X100452753Y-52800000D01*
X100433389Y-52603397D01*
X100376042Y-52414350D01*
X100282916Y-52240122D01*
X100259919Y-52212100D01*
X100157589Y-52087410D01*
X100004881Y-51962086D01*
X100004879Y-51962085D01*
X100004878Y-51962084D01*
X99830650Y-51868958D01*
X99641603Y-51811611D01*
X99641601Y-51811610D01*
X99641599Y-51811610D01*
X99445000Y-51792247D01*
X99248400Y-51811610D01*
X99059350Y-51868958D01*
X98885118Y-51962086D01*
X98732410Y-52087410D01*
X98607086Y-52240118D01*
X98513958Y-52414350D01*
X98456610Y-52603400D01*
X98437247Y-52800000D01*
X98456610Y-52996599D01*
X98456610Y-52996601D01*
X98456611Y-52996603D01*
X98513958Y-53185650D01*
X98607084Y-53359878D01*
X98607086Y-53359881D01*
X98732410Y-53512589D01*
X98885118Y-53637913D01*
X98885122Y-53637916D01*
X99059350Y-53731042D01*
X99194622Y-53772076D01*
X99253059Y-53810373D01*
X99281515Y-53874185D01*
X99270955Y-53943252D01*
X99224731Y-53995646D01*
X99190719Y-54010511D01*
X98981513Y-54066567D01*
X98981507Y-54066570D01*
X98767423Y-54166399D01*
X98767421Y-54166400D01*
X98683627Y-54225073D01*
X98683626Y-54225073D01*
X99274766Y-54816212D01*
X99232708Y-54827482D01*
X99107292Y-54899890D01*
X99004890Y-55002292D01*
X98932482Y-55127708D01*
X98921212Y-55169765D01*
X98330073Y-54578626D01*
X98330073Y-54578627D01*
X98271400Y-54662421D01*
X98271399Y-54662423D01*
X98171570Y-54876507D01*
X98171566Y-54876516D01*
X98110432Y-55104673D01*
X98110430Y-55104684D01*
X98089843Y-55339998D01*
X89200500Y-55339998D01*
X89200500Y-50141902D01*
X90324500Y-50141902D01*
X90324500Y-50378097D01*
X90361446Y-50611368D01*
X90434433Y-50835996D01*
X90541657Y-51046433D01*
X90680483Y-51237510D01*
X90847490Y-51404517D01*
X91038567Y-51543343D01*
X91137991Y-51594002D01*
X91249003Y-51650566D01*
X91249005Y-51650566D01*
X91249008Y-51650568D01*
X91369412Y-51689689D01*
X91473631Y-51723553D01*
X91706903Y-51760500D01*
X91706908Y-51760500D01*
X91943097Y-51760500D01*
X92176368Y-51723553D01*
X92400992Y-51650568D01*
X92611433Y-51543343D01*
X92802510Y-51404517D01*
X92969517Y-51237510D01*
X93108343Y-51046433D01*
X93215568Y-50835992D01*
X93288553Y-50611368D01*
X93297402Y-50555500D01*
X93325500Y-50378097D01*
X93325500Y-50260000D01*
X98437247Y-50260000D01*
X98456610Y-50456599D01*
X98456610Y-50456601D01*
X98456611Y-50456603D01*
X98513958Y-50645650D01*
X98607084Y-50819878D01*
X98607086Y-50819881D01*
X98732410Y-50972589D01*
X98885118Y-51097913D01*
X98885122Y-51097916D01*
X99059350Y-51191042D01*
X99248397Y-51248389D01*
X99445000Y-51267753D01*
X99641603Y-51248389D01*
X99830650Y-51191042D01*
X100004878Y-51097916D01*
X100157589Y-50972589D01*
X100282916Y-50819878D01*
X100376042Y-50645650D01*
X100433389Y-50456603D01*
X100452753Y-50260000D01*
X100433389Y-50063397D01*
X100376042Y-49874350D01*
X100282916Y-49700122D01*
X100269692Y-49684008D01*
X100157589Y-49547410D01*
X100004881Y-49422086D01*
X100004879Y-49422085D01*
X100004878Y-49422084D01*
X99830650Y-49328958D01*
X99641603Y-49271611D01*
X99641601Y-49271610D01*
X99641599Y-49271610D01*
X99445000Y-49252247D01*
X99248400Y-49271610D01*
X99059350Y-49328958D01*
X98885118Y-49422086D01*
X98732410Y-49547410D01*
X98607086Y-49700118D01*
X98513958Y-49874350D01*
X98456610Y-50063400D01*
X98437247Y-50260000D01*
X93325500Y-50260000D01*
X93325500Y-50141902D01*
X93288553Y-49908631D01*
X93248392Y-49785029D01*
X93215568Y-49684008D01*
X93215566Y-49684005D01*
X93215566Y-49684003D01*
X93108342Y-49473566D01*
X92969517Y-49282490D01*
X92893604Y-49206577D01*
X104129500Y-49206577D01*
X104129500Y-49403422D01*
X104160290Y-49597826D01*
X104221117Y-49785029D01*
X104310476Y-49960405D01*
X104426172Y-50119646D01*
X104565354Y-50258828D01*
X104724595Y-50374524D01*
X104807455Y-50416743D01*
X104899970Y-50463882D01*
X104899972Y-50463882D01*
X104899975Y-50463884D01*
X105000317Y-50496487D01*
X105087173Y-50524709D01*
X105281578Y-50555500D01*
X105281583Y-50555500D01*
X105478422Y-50555500D01*
X105672826Y-50524709D01*
X105860025Y-50463884D01*
X106035405Y-50374524D01*
X106194646Y-50258828D01*
X106333828Y-50119646D01*
X106449524Y-49960405D01*
X106538884Y-49785025D01*
X106599709Y-49597826D01*
X106607694Y-49547410D01*
X106630500Y-49403422D01*
X106630500Y-49206577D01*
X119369500Y-49206577D01*
X119369500Y-49403422D01*
X119400290Y-49597826D01*
X119461117Y-49785029D01*
X119550476Y-49960405D01*
X119666172Y-50119646D01*
X119805354Y-50258828D01*
X119964595Y-50374524D01*
X120047455Y-50416743D01*
X120139970Y-50463882D01*
X120139972Y-50463882D01*
X120139975Y-50463884D01*
X120240317Y-50496487D01*
X120327173Y-50524709D01*
X120521578Y-50555500D01*
X120521583Y-50555500D01*
X120718422Y-50555500D01*
X120912826Y-50524709D01*
X121100025Y-50463884D01*
X121275405Y-50374524D01*
X121434646Y-50258828D01*
X121573828Y-50119646D01*
X121689524Y-49960405D01*
X121778884Y-49785025D01*
X121839709Y-49597826D01*
X121847694Y-49547410D01*
X121870500Y-49403422D01*
X121870500Y-49206577D01*
X121839709Y-49012173D01*
X121778882Y-48824970D01*
X121689523Y-48649594D01*
X121573828Y-48490354D01*
X121434646Y-48351172D01*
X121275405Y-48235476D01*
X121100029Y-48146117D01*
X120912826Y-48085290D01*
X120718422Y-48054500D01*
X120718417Y-48054500D01*
X120521583Y-48054500D01*
X120521578Y-48054500D01*
X120327173Y-48085290D01*
X120139970Y-48146117D01*
X119964594Y-48235476D01*
X119873741Y-48301485D01*
X119805354Y-48351172D01*
X119805352Y-48351174D01*
X119805351Y-48351174D01*
X119666174Y-48490351D01*
X119666174Y-48490352D01*
X119666172Y-48490354D01*
X119616485Y-48558741D01*
X119550476Y-48649594D01*
X119461117Y-48824970D01*
X119400290Y-49012173D01*
X119369500Y-49206577D01*
X106630500Y-49206577D01*
X106599709Y-49012173D01*
X106538882Y-48824970D01*
X106449523Y-48649594D01*
X106333828Y-48490354D01*
X106194646Y-48351172D01*
X106035405Y-48235476D01*
X105860029Y-48146117D01*
X105672826Y-48085290D01*
X105478422Y-48054500D01*
X105478417Y-48054500D01*
X105281583Y-48054500D01*
X105281578Y-48054500D01*
X105087173Y-48085290D01*
X104899970Y-48146117D01*
X104724594Y-48235476D01*
X104633741Y-48301485D01*
X104565354Y-48351172D01*
X104565352Y-48351174D01*
X104565351Y-48351174D01*
X104426174Y-48490351D01*
X104426174Y-48490352D01*
X104426172Y-48490354D01*
X104376485Y-48558741D01*
X104310476Y-48649594D01*
X104221117Y-48824970D01*
X104160290Y-49012173D01*
X104129500Y-49206577D01*
X92893604Y-49206577D01*
X92802510Y-49115483D01*
X92611433Y-48976657D01*
X92400996Y-48869433D01*
X92176368Y-48796446D01*
X91943097Y-48759500D01*
X91943092Y-48759500D01*
X91706908Y-48759500D01*
X91706903Y-48759500D01*
X91473631Y-48796446D01*
X91249003Y-48869433D01*
X91038566Y-48976657D01*
X90989682Y-49012174D01*
X90847490Y-49115483D01*
X90847488Y-49115485D01*
X90847487Y-49115485D01*
X90680485Y-49282487D01*
X90680485Y-49282488D01*
X90680483Y-49282490D01*
X90646722Y-49328958D01*
X90541657Y-49473566D01*
X90434433Y-49684003D01*
X90361446Y-49908631D01*
X90324500Y-50141902D01*
X89200500Y-50141902D01*
X89200500Y-47824500D01*
X89220185Y-47757461D01*
X89272989Y-47711706D01*
X89324500Y-47700500D01*
X123626000Y-47700500D01*
X123693039Y-47720185D01*
G37*
%TD.AperFunction*%
%TD*%
M02*
