M48
; DRILL file {KiCad 8.0.6} date 2024-11-09T23:49:38+0900
; FORMAT={-:-/ absolute / metric / decimal}
; #@! TF.CreationDate,2024-11-09T23:49:38+09:00
; #@! TF.GenerationSoftware,Kicad,Pcbnew,8.0.6
; #@! TF.FileFunction,MixedPlating,1,2
FMAT,2
METRIC
; #@! TA.AperFunction,Plated,PTH,ViaDrill
T1C0.300
; #@! TA.AperFunction,Plated,PTH,ComponentDrill
T2C0.300
; #@! TA.AperFunction,Plated,PTH,ComponentDrill
T3C0.600
; #@! TA.AperFunction,Plated,PTH,ComponentDrill
T4C0.700
; #@! TA.AperFunction,Plated,PTH,ComponentDrill
T5C1.000
; #@! TA.AperFunction,NonPlated,NPTH,ComponentDrill
T6C0.650
%
G90
G05
T1
X93.37Y-75.08
X95.5Y-80.0
X96.5Y-85.25
X97.15Y-73.77
X98.414Y-88.39
X99.43Y-90.38
X100.4Y-93.7
X100.423Y-94.553
X101.37Y-94.72
X102.25Y-77.25
X105.0Y-108.0
X107.0Y-83.5
X107.25Y-94.5
X107.75Y-109.75
X108.31Y-95.11
X109.75Y-86.25
X111.5Y-106.5
X111.5Y-110.75
X111.75Y-112.0
X113.75Y-85.75
X114.25Y-106.75
X114.5Y-73.0
X119.0Y-97.5
X123.8Y-76.3
X124.1Y-73.7
X124.9Y-91.0
X126.1Y-91.0
X126.25Y-98.25
X127.0Y-109.75
X127.4Y-91.0
X127.5Y-95.0
X128.7Y-91.1
X132.25Y-85.0
X136.5Y-76.5
X137.25Y-109.75
X140.75Y-104.5
X141.0Y-76.5
X142.0Y-75.462
X144.0Y-110.0
X144.262Y-82.362
X144.91Y-87.09
X145.9Y-99.3
X148.7Y-100.8
X149.0Y-98.75
X156.25Y-111.75
T2
X125.6Y-78.91
X125.6Y-80.31
X126.3Y-78.21
X126.3Y-79.61
X126.3Y-81.01
X127.0Y-78.91
X127.0Y-80.31
X127.7Y-78.21
X127.7Y-79.61
X127.7Y-81.01
X128.4Y-78.91
X128.4Y-80.31
T4
X139.6Y-92.775
X141.1Y-92.775
X142.6Y-92.775
X144.1Y-92.775
X145.6Y-92.775
X147.1Y-92.775
X148.6Y-92.775
X150.1Y-92.775
X151.6Y-92.775
T6
X97.285Y-92.6
X97.285Y-98.38
T3
G00X94.005Y-91.17
M15
G01X93.205Y-91.17
M16
G05
G00X94.005Y-99.81
M15
G01X93.205Y-99.81
M16
G05
G00X98.335Y-91.17
M15
G01X97.235Y-91.17
M16
G05
G00X98.335Y-99.81
M15
G01X97.235Y-99.81
M16
G05
T5
G00X97.25Y-108.375
M15
G01X97.25Y-105.875
M16
G05
G00X98.95Y-112.025
M15
G01X101.45Y-112.025
M16
G05
G00X103.25Y-105.875
M15
G01X103.25Y-108.375
M16
G05
M30
