%TF.GenerationSoftware,KiCad,Pcbnew,8.0.8*%
%TF.CreationDate,2025-02-02T16:15:29+09:00*%
%TF.ProjectId,PCB,5043422e-6b69-4636-9164-5f7063625858,rev?*%
%TF.SameCoordinates,Original*%
%TF.FileFunction,Soldermask,Bot*%
%TF.FilePolarity,Negative*%
%FSLAX46Y46*%
G04 Gerber Fmt 4.6, Leading zero omitted, Abs format (unit mm)*
G04 Created by KiCad (PCBNEW 8.0.8) date 2025-02-02 16:15:29*
%MOMM*%
%LPD*%
G01*
G04 APERTURE LIST*
G04 Aperture macros list*
%AMRoundRect*
0 Rectangle with rounded corners*
0 $1 Rounding radius*
0 $2 $3 $4 $5 $6 $7 $8 $9 X,Y pos of 4 corners*
0 Add a 4 corners polygon primitive as box body*
4,1,4,$2,$3,$4,$5,$6,$7,$8,$9,$2,$3,0*
0 Add four circle primitives for the rounded corners*
1,1,$1+$1,$2,$3*
1,1,$1+$1,$4,$5*
1,1,$1+$1,$6,$7*
1,1,$1+$1,$8,$9*
0 Add four rect primitives between the rounded corners*
20,1,$1+$1,$2,$3,$4,$5,0*
20,1,$1+$1,$4,$5,$6,$7,0*
20,1,$1+$1,$6,$7,$8,$9,0*
20,1,$1+$1,$8,$9,$2,$3,0*%
G04 Aperture macros list end*
%ADD10C,2.000000*%
%ADD11C,1.700000*%
%ADD12C,1.500000*%
%ADD13RoundRect,0.237500X0.300000X0.237500X-0.300000X0.237500X-0.300000X-0.237500X0.300000X-0.237500X0*%
%ADD14R,1.200000X0.700000*%
%ADD15R,0.800000X1.000000*%
%ADD16R,2.800000X1.000000*%
%ADD17R,1.200000X1.000000*%
%ADD18R,1.900000X1.300000*%
%ADD19RoundRect,0.300000X0.300000X0.450000X-0.300000X0.450000X-0.300000X-0.450000X0.300000X-0.450000X0*%
%ADD20RoundRect,0.237500X0.237500X-0.300000X0.237500X0.300000X-0.237500X0.300000X-0.237500X-0.300000X0*%
%ADD21RoundRect,0.250000X-0.400000X-0.625000X0.400000X-0.625000X0.400000X0.625000X-0.400000X0.625000X0*%
%ADD22RoundRect,0.237500X-0.237500X0.300000X-0.237500X-0.300000X0.237500X-0.300000X0.237500X0.300000X0*%
%ADD23RoundRect,0.225000X0.225000X0.375000X-0.225000X0.375000X-0.225000X-0.375000X0.225000X-0.375000X0*%
%ADD24RoundRect,0.225000X-0.225000X-0.375000X0.225000X-0.375000X0.225000X0.375000X-0.225000X0.375000X0*%
%ADD25RoundRect,0.250000X0.625000X-0.400000X0.625000X0.400000X-0.625000X0.400000X-0.625000X-0.400000X0*%
%ADD26C,1.400000*%
%ADD27R,3.900000X3.900000*%
%ADD28C,1.300000*%
%ADD29R,1.500000X0.900000*%
%ADD30R,0.900000X1.500000*%
%ADD31RoundRect,0.237500X-0.300000X-0.237500X0.300000X-0.237500X0.300000X0.237500X-0.300000X0.237500X0*%
%ADD32RoundRect,0.250000X-0.625000X0.400000X-0.625000X-0.400000X0.625000X-0.400000X0.625000X0.400000X0*%
%ADD33RoundRect,0.150000X-0.675000X-0.150000X0.675000X-0.150000X0.675000X0.150000X-0.675000X0.150000X0*%
%ADD34RoundRect,0.237500X-0.287500X-0.237500X0.287500X-0.237500X0.287500X0.237500X-0.287500X0.237500X0*%
%ADD35RoundRect,0.375000X0.875000X0.375000X-0.875000X0.375000X-0.875000X-0.375000X0.875000X-0.375000X0*%
%ADD36RoundRect,0.381000X0.762000X0.381000X-0.762000X0.381000X-0.762000X-0.381000X0.762000X-0.381000X0*%
%ADD37RoundRect,0.112500X0.637500X-0.112500X0.637500X0.112500X-0.637500X0.112500X-0.637500X-0.112500X0*%
%ADD38RoundRect,0.250000X0.400000X0.625000X-0.400000X0.625000X-0.400000X-0.625000X0.400000X-0.625000X0*%
%ADD39RoundRect,0.150000X-0.512500X-0.150000X0.512500X-0.150000X0.512500X0.150000X-0.512500X0.150000X0*%
%ADD40R,2.362200X1.269581*%
%ADD41RoundRect,0.062500X0.062500X0.737500X-0.062500X0.737500X-0.062500X-0.737500X0.062500X-0.737500X0*%
%ADD42O,1.700000X1.200000*%
%ADD43O,1.350000X0.950000*%
%ADD44RoundRect,0.200000X-0.350000X-0.200000X0.350000X-0.200000X0.350000X0.200000X-0.350000X0.200000X0*%
%ADD45RoundRect,0.250000X0.650000X-0.250000X0.650000X0.250000X-0.650000X0.250000X-0.650000X-0.250000X0*%
%ADD46RoundRect,0.237500X-0.237500X0.287500X-0.237500X-0.287500X0.237500X-0.287500X0.237500X0.287500X0*%
%ADD47RoundRect,0.237500X0.287500X0.237500X-0.287500X0.237500X-0.287500X-0.237500X0.287500X-0.237500X0*%
%ADD48RoundRect,0.250000X-0.475000X0.337500X-0.475000X-0.337500X0.475000X-0.337500X0.475000X0.337500X0*%
%ADD49R,1.100000X0.250000*%
%ADD50R,1.500000X1.700000*%
G04 APERTURE END LIST*
D10*
%TO.C,U1*%
X91825000Y-65500000D03*
X91825000Y-50260000D03*
D11*
X99445000Y-65500000D03*
X99445000Y-62960000D03*
X99445000Y-60420000D03*
X99445000Y-57880000D03*
X99445000Y-55340000D03*
X99445000Y-52800000D03*
X99445000Y-50260000D03*
%TD*%
D12*
%TO.C,U5*%
X105380000Y-49305000D03*
X120620000Y-49305000D03*
X121890000Y-53115000D03*
X121890000Y-55655000D03*
X121890000Y-58195000D03*
X121890000Y-60735000D03*
X121890000Y-63275000D03*
%TD*%
D13*
%TO.C,C19*%
X158250000Y-93850000D03*
X156525000Y-93850000D03*
%TD*%
D14*
%TO.C,J4*%
X110500000Y-78300000D03*
X110500000Y-79400000D03*
X110500000Y-80500000D03*
X110500000Y-81600000D03*
X110500000Y-82700000D03*
X110500000Y-83800000D03*
X110500000Y-84900000D03*
X110500000Y-86000000D03*
X110500000Y-86950000D03*
D15*
X100000000Y-87900000D03*
D16*
X95850000Y-87900000D03*
D17*
X106200000Y-87900000D03*
X110500000Y-76750000D03*
D18*
X95400000Y-74400000D03*
%TD*%
D19*
%TO.C,SW1*%
X105800000Y-94950000D03*
X103300000Y-94950000D03*
X100800000Y-94950000D03*
X100800000Y-99250000D03*
X103300000Y-99250000D03*
X105800000Y-99250000D03*
%TD*%
D20*
%TO.C,C2*%
X123100000Y-97800000D03*
X123100000Y-96075000D03*
%TD*%
%TO.C,C1*%
X111925000Y-98757500D03*
X111925000Y-97032500D03*
%TD*%
D21*
%TO.C,R4*%
X100050000Y-103100000D03*
X103150000Y-103100000D03*
%TD*%
D22*
%TO.C,C11*%
X127400000Y-87862500D03*
X127400000Y-86137500D03*
%TD*%
D23*
%TO.C,D8*%
X124250000Y-91400000D03*
X120950000Y-91400000D03*
%TD*%
%TO.C,D9*%
X165750000Y-98250000D03*
X162450000Y-98250000D03*
%TD*%
D24*
%TO.C,D3*%
X162550000Y-93750000D03*
X165850000Y-93750000D03*
%TD*%
D25*
%TO.C,R7*%
X157500000Y-81550000D03*
X157500000Y-78450000D03*
%TD*%
D22*
%TO.C,C17*%
X173250000Y-61887500D03*
X173250000Y-63612500D03*
%TD*%
D26*
%TO.C,U4*%
X148000000Y-62200000D03*
X148050000Y-59700000D03*
D27*
X149250000Y-60960000D03*
D28*
X149250000Y-61000000D03*
D26*
X150450000Y-59700000D03*
X150450000Y-62200000D03*
D29*
X139000000Y-53240000D03*
X139000000Y-54510000D03*
X139000000Y-55780000D03*
X139000000Y-57050000D03*
X139000000Y-58320000D03*
X139000000Y-59590000D03*
X139000000Y-60860000D03*
X139000000Y-62130000D03*
X139000000Y-63400000D03*
X139000000Y-64670000D03*
X139000000Y-65940000D03*
X139000000Y-67210000D03*
X139000000Y-68480000D03*
X139000000Y-69750000D03*
D30*
X140765000Y-71000000D03*
X142035000Y-71000000D03*
X143305000Y-71000000D03*
X144575000Y-71000000D03*
X145845000Y-71000000D03*
X147115000Y-71000000D03*
X148385000Y-71000000D03*
X149655000Y-71000000D03*
X150925000Y-71000000D03*
X152195000Y-71000000D03*
X153465000Y-71000000D03*
X154735000Y-71000000D03*
D29*
X156500000Y-69750000D03*
X156500000Y-68480000D03*
X156500000Y-67210000D03*
X156500000Y-65940000D03*
X156500000Y-64670000D03*
X156500000Y-63400000D03*
X156500000Y-62130000D03*
X156500000Y-60860000D03*
X156500000Y-59590000D03*
X156500000Y-58320000D03*
X156500000Y-57050000D03*
X156500000Y-55780000D03*
X156500000Y-54510000D03*
X156500000Y-53240000D03*
%TD*%
D31*
%TO.C,C15*%
X166637500Y-65250000D03*
X168362500Y-65250000D03*
%TD*%
D32*
%TO.C,R2*%
X143400000Y-86650000D03*
X143400000Y-89750000D03*
%TD*%
D25*
%TO.C,R6*%
X160750000Y-81550000D03*
X160750000Y-78450000D03*
%TD*%
D33*
%TO.C,U3*%
X114800000Y-98800000D03*
X114800000Y-97530000D03*
X114800000Y-96260000D03*
X114800000Y-94990000D03*
X120050000Y-94990000D03*
X120050000Y-96260000D03*
X120050000Y-97530000D03*
X120050000Y-98800000D03*
%TD*%
D34*
%TO.C,D1*%
X95625000Y-103200000D03*
X97375000Y-103200000D03*
%TD*%
D13*
%TO.C,C20*%
X171812500Y-88850000D03*
X170087500Y-88850000D03*
%TD*%
D22*
%TO.C,C16*%
X171000000Y-61887500D03*
X171000000Y-63612500D03*
%TD*%
D35*
%TO.C,L1*%
X157750000Y-99900000D03*
D36*
X157750000Y-96200000D03*
%TD*%
D37*
%TO.C,Q2*%
X156582500Y-89500000D03*
X156582500Y-88200000D03*
X159242500Y-88850000D03*
%TD*%
D32*
%TO.C,R5*%
X153650000Y-92300000D03*
X153650000Y-95400000D03*
%TD*%
D38*
%TO.C,R1*%
X136550000Y-94400000D03*
X133450000Y-94400000D03*
%TD*%
D23*
%TO.C,D2*%
X165900000Y-88850000D03*
X162600000Y-88850000D03*
%TD*%
D39*
%TO.C,U7*%
X122137500Y-88150000D03*
X122137500Y-86250000D03*
X119862500Y-86250000D03*
X119862500Y-87200000D03*
X119862500Y-88150000D03*
%TD*%
D38*
%TO.C,R3*%
X154150000Y-88050000D03*
X151050000Y-88050000D03*
%TD*%
D40*
%TO.C,C12*%
X126700000Y-97595610D03*
X126700000Y-95004390D03*
%TD*%
D31*
%TO.C,C18*%
X151625000Y-99850000D03*
X153350000Y-99850000D03*
%TD*%
D41*
%TO.C,J1*%
X138000000Y-90600000D03*
X137500000Y-90600000D03*
X137000000Y-90600000D03*
X136500000Y-90600000D03*
X136000000Y-90600000D03*
X135500000Y-90600000D03*
X135000000Y-90600000D03*
X134500000Y-90600000D03*
X134000000Y-90600000D03*
X133500000Y-90600000D03*
X133000000Y-90600000D03*
X132500000Y-90600000D03*
X132500000Y-86000000D03*
X133000000Y-86000000D03*
X133500000Y-86000000D03*
X134000000Y-86000000D03*
X134500000Y-86000000D03*
X135000000Y-86000000D03*
X135500000Y-86000000D03*
X136000000Y-86000000D03*
X136500000Y-86000000D03*
X137000000Y-86000000D03*
X137500000Y-86000000D03*
X138000000Y-86000000D03*
D42*
X131240000Y-85230000D03*
X131240000Y-91370000D03*
D43*
X131475000Y-88300000D03*
X139025000Y-88300000D03*
D42*
X139350000Y-85230000D03*
X139350000Y-91370000D03*
%TD*%
D23*
%TO.C,D7*%
X120200000Y-101800000D03*
X116900000Y-101800000D03*
%TD*%
D20*
%TO.C,C6*%
X176000000Y-55362500D03*
X176000000Y-53637500D03*
%TD*%
D31*
%TO.C,C10*%
X166637500Y-71250000D03*
X168362500Y-71250000D03*
%TD*%
D38*
%TO.C,R15*%
X168550000Y-59500000D03*
X165450000Y-59500000D03*
%TD*%
D32*
%TO.C,R14*%
X168500000Y-53450000D03*
X168500000Y-56550000D03*
%TD*%
D31*
%TO.C,C22*%
X166637500Y-69250000D03*
X168362500Y-69250000D03*
%TD*%
D44*
%TO.C,SW2*%
X180500000Y-53000000D03*
X184700000Y-53000000D03*
X180500000Y-50800000D03*
X184700000Y-50800000D03*
%TD*%
D25*
%TO.C,R9*%
X165500000Y-56550000D03*
X165500000Y-53450000D03*
%TD*%
D44*
%TO.C,SW3*%
X180500000Y-59000000D03*
X184700000Y-59000000D03*
X180500000Y-56800000D03*
X184700000Y-56800000D03*
%TD*%
D45*
%TO.C,Y1*%
X159500000Y-64512500D03*
X159500000Y-62012500D03*
%TD*%
D22*
%TO.C,C8*%
X162000000Y-64500000D03*
X162000000Y-66225000D03*
%TD*%
D46*
%TO.C,D4*%
X187250000Y-59625000D03*
X187250000Y-61375000D03*
%TD*%
D38*
%TO.C,R13*%
X184050000Y-61250000D03*
X180950000Y-61250000D03*
%TD*%
D20*
%TO.C,C7*%
X162000000Y-61862500D03*
X162000000Y-60137500D03*
%TD*%
D25*
%TO.C,R11*%
X152750000Y-81550000D03*
X152750000Y-78450000D03*
%TD*%
D31*
%TO.C,C21*%
X166637500Y-81000000D03*
X168362500Y-81000000D03*
%TD*%
D32*
%TO.C,R10*%
X134500000Y-70450000D03*
X134500000Y-73550000D03*
%TD*%
D47*
%TO.C,D6*%
X172750000Y-59250000D03*
X171000000Y-59250000D03*
%TD*%
D31*
%TO.C,C3*%
X166637500Y-78750000D03*
X168362500Y-78750000D03*
%TD*%
%TO.C,C9*%
X166637500Y-73250000D03*
X168362500Y-73250000D03*
%TD*%
%TO.C,C13*%
X166637500Y-67250000D03*
X168362500Y-67250000D03*
%TD*%
D48*
%TO.C,C4*%
X162000000Y-52962500D03*
X162000000Y-55037500D03*
%TD*%
D22*
%TO.C,C5*%
X159500000Y-53137500D03*
X159500000Y-54862500D03*
%TD*%
D47*
%TO.C,D5*%
X173375000Y-53500000D03*
X171625000Y-53500000D03*
%TD*%
D49*
%TO.C,U2*%
X173000000Y-69099997D03*
X173000000Y-69599999D03*
X173000000Y-70099998D03*
X173000000Y-70600000D03*
X173000000Y-71099999D03*
X173000000Y-71599998D03*
X173000000Y-72099999D03*
X173000000Y-72599998D03*
X173000000Y-73100000D03*
X173000000Y-73599999D03*
X173000000Y-74099998D03*
X173000000Y-74599999D03*
X173000000Y-75099998D03*
X173000000Y-75600000D03*
X173000000Y-76099999D03*
X173000000Y-76599998D03*
X173000000Y-77099999D03*
X173000000Y-77599998D03*
X173000000Y-78100000D03*
X173000000Y-78599999D03*
X173000000Y-79099998D03*
X173000000Y-79599999D03*
X173000000Y-80099998D03*
X173000000Y-80600000D03*
D50*
X176900000Y-67449998D03*
X176900000Y-82249999D03*
%TD*%
M02*
