M48
; DRILL file {KiCad 8.0.6} date 2024-12-20T11:49:15+0900
; FORMAT={-:-/ absolute / metric / decimal}
; #@! TF.CreationDate,2024-12-20T11:49:15+09:00
; #@! TF.GenerationSoftware,Kicad,Pcbnew,8.0.6
; #@! TF.FileFunction,MixedPlating,1,2
FMAT,2
METRIC
; #@! TA.AperFunction,Plated,PTH,ViaDrill
T1C0.300
; #@! TA.AperFunction,Plated,PTH,ComponentDrill
T2C0.600
; #@! TA.AperFunction,Plated,PTH,ComponentDrill
T3C0.700
; #@! TA.AperFunction,Plated,PTH,ComponentDrill
T4C0.800
; #@! TA.AperFunction,Plated,PTH,ComponentDrill
T5C1.100
; #@! TA.AperFunction,NonPlated,NPTH,ComponentDrill
T6C0.650
; #@! TA.AperFunction,NonPlated,NPTH,ComponentDrill
T7C2.200
; #@! TA.AperFunction,NonPlated,NPTH,ComponentDrill
T8C2.700
; #@! TA.AperFunction,NonPlated,NPTH,ComponentDrill
T9C3.200
%
G90
G05
T1
X92.2Y-101.6
X92.3Y-83.0
X92.3Y-88.45
X92.3Y-91.55
X95.9Y-88.2
X95.95Y-82.55
X96.2Y-83.6
X96.7Y-95.362
X96.8Y-86.15
X97.0Y-104.662
X97.329Y-90.111
X98.1Y-91.15
X99.1Y-87.65
X99.55Y-99.8
X99.925Y-101.5
X99.925Y-104.5
X100.837Y-94.2
X101.0Y-88.5
X101.15Y-96.3
X101.3Y-81.8
X102.4Y-107.3
X102.4Y-111.6
X103.8Y-91.05
X104.05Y-81.8
X105.0Y-78.6
X105.2Y-88.5
X105.3Y-111.1
X105.65Y-79.55
X105.75Y-83.2
X106.669Y-105.952
X106.8Y-84.45
X106.8Y-87.55
X106.95Y-76.8
X107.075Y-94.5
X107.5Y-105.3
X108.3Y-89.6
X108.8Y-92.0
X108.85Y-74.45
X109.45Y-87.55
X109.8Y-75.85
X111.3Y-104.8
X111.35Y-98.55
X111.35Y-101.3
X114.4Y-104.8
X114.45Y-98.55
X114.45Y-101.3
X115.9Y-110.1
X119.1Y-87.9
X120.3Y-87.8
X120.8Y-94.45
X121.6Y-87.8
X122.8Y-87.8
X123.3Y-100.0
X125.6Y-87.7
X126.5Y-90.1
X127.3Y-73.75
X127.4Y-75.1
X127.4Y-76.4
X131.5Y-88.5
X132.8Y-73.537
X137.0Y-86.8
X137.1Y-83.7
X137.1Y-85.8
X137.4Y-81.9
X140.4Y-86.1
T3
X124.3Y-91.525
X125.8Y-91.525
X127.3Y-91.525
X128.8Y-91.525
X130.3Y-91.525
X131.8Y-91.525
X133.3Y-91.525
X134.8Y-91.525
X136.3Y-91.525
T4
X119.95Y-80.2
X120.0Y-77.7
X121.2Y-79.0
X122.4Y-77.7
X122.4Y-80.2
T5
X117.13Y-112.39
X119.67Y-112.39
X122.21Y-112.39
X124.75Y-112.39
X127.29Y-112.39
X136.88Y-96.3
X136.88Y-98.84
X136.88Y-101.38
X136.88Y-103.92
X136.88Y-106.46
X136.88Y-109.0
X136.88Y-111.54
T6
X93.98Y-82.86
X93.98Y-88.64
T7
X131.1Y-95.88
X131.1Y-111.12
T8
X144.5Y-96.3
X144.5Y-111.54
T9
X93.3Y-74.0
X93.3Y-110.0
X150.8Y-74.0
X150.8Y-109.5
T2
G00X90.7Y-81.43
M15
G01X89.9Y-81.43
M16
G05
G00X90.7Y-90.07
M15
G01X89.9Y-90.07
M16
G05
G00X95.03Y-81.43
M15
G01X93.93Y-81.43
M16
G05
G00X95.03Y-90.07
M15
G01X93.93Y-90.07
M16
G05
M30
