%TF.GenerationSoftware,KiCad,Pcbnew,8.0.6*%
%TF.CreationDate,2024-11-30T14:10:35+09:00*%
%TF.ProjectId,PCB,5043422e-6b69-4636-9164-5f7063625858,rev?*%
%TF.SameCoordinates,Original*%
%TF.FileFunction,Soldermask,Bot*%
%TF.FilePolarity,Negative*%
%FSLAX46Y46*%
G04 Gerber Fmt 4.6, Leading zero omitted, Abs format (unit mm)*
G04 Created by KiCad (PCBNEW 8.0.6) date 2024-11-30 14:10:35*
%MOMM*%
%LPD*%
G01*
G04 APERTURE LIST*
G04 Aperture macros list*
%AMRoundRect*
0 Rectangle with rounded corners*
0 $1 Rounding radius*
0 $2 $3 $4 $5 $6 $7 $8 $9 X,Y pos of 4 corners*
0 Add a 4 corners polygon primitive as box body*
4,1,4,$2,$3,$4,$5,$6,$7,$8,$9,$2,$3,0*
0 Add four circle primitives for the rounded corners*
1,1,$1+$1,$2,$3*
1,1,$1+$1,$4,$5*
1,1,$1+$1,$6,$7*
1,1,$1+$1,$8,$9*
0 Add four rect primitives between the rounded corners*
20,1,$1+$1,$2,$3,$4,$5,0*
20,1,$1+$1,$4,$5,$6,$7,0*
20,1,$1+$1,$6,$7,$8,$9,0*
20,1,$1+$1,$8,$9,$2,$3,0*%
G04 Aperture macros list end*
%ADD10C,1.700000*%
%ADD11C,2.000000*%
%ADD12C,3.200000*%
%ADD13O,4.000000X1.800000*%
%ADD14O,1.800000X4.000000*%
%ADD15C,1.500000*%
%ADD16O,1.800000X1.000000*%
%ADD17O,2.100000X1.000000*%
%ADD18C,0.650000*%
%ADD19RoundRect,0.237500X-0.237500X0.300000X-0.237500X-0.300000X0.237500X-0.300000X0.237500X0.300000X0*%
%ADD20RoundRect,0.250000X-0.625000X0.400000X-0.625000X-0.400000X0.625000X-0.400000X0.625000X0.400000X0*%
%ADD21RoundRect,0.237500X-0.300000X-0.237500X0.300000X-0.237500X0.300000X0.237500X-0.300000X0.237500X0*%
%ADD22RoundRect,0.250000X-0.400000X-0.625000X0.400000X-0.625000X0.400000X0.625000X-0.400000X0.625000X0*%
%ADD23RoundRect,0.250000X0.475000X-0.337500X0.475000X0.337500X-0.475000X0.337500X-0.475000X-0.337500X0*%
%ADD24RoundRect,0.250000X0.625000X-0.400000X0.625000X0.400000X-0.625000X0.400000X-0.625000X-0.400000X0*%
%ADD25RoundRect,0.237500X0.237500X-0.300000X0.237500X0.300000X-0.237500X0.300000X-0.237500X-0.300000X0*%
%ADD26C,1.300000*%
%ADD27R,3.900000X3.900000*%
%ADD28C,1.000000*%
%ADD29R,1.500000X0.900000*%
%ADD30R,0.900000X1.500000*%
%ADD31RoundRect,0.250000X0.400000X0.625000X-0.400000X0.625000X-0.400000X-0.625000X0.400000X-0.625000X0*%
%ADD32RoundRect,0.150000X0.675000X0.150000X-0.675000X0.150000X-0.675000X-0.150000X0.675000X-0.150000X0*%
%ADD33RoundRect,0.250000X0.337500X0.475000X-0.337500X0.475000X-0.337500X-0.475000X0.337500X-0.475000X0*%
%ADD34R,1.900000X1.300000*%
%ADD35R,1.200000X1.000000*%
%ADD36R,2.800000X1.000000*%
%ADD37R,0.800000X1.000000*%
%ADD38R,1.200000X0.700000*%
%ADD39R,1.200000X0.400000*%
%ADD40RoundRect,0.237500X0.300000X0.237500X-0.300000X0.237500X-0.300000X-0.237500X0.300000X-0.237500X0*%
%ADD41RoundRect,0.250000X0.650000X-0.250000X0.650000X0.250000X-0.650000X0.250000X-0.650000X-0.250000X0*%
%ADD42O,1.000000X2.000000*%
G04 APERTURE END LIST*
D10*
%TO.C,U1*%
X136200000Y-111700000D03*
X136200000Y-109160000D03*
X136200000Y-106620000D03*
X136200000Y-104080000D03*
X136200000Y-101540000D03*
X136200000Y-99000000D03*
X136200000Y-96460000D03*
D11*
X143820000Y-111700000D03*
X143820000Y-96460000D03*
%TD*%
D12*
%TO.C,H2*%
X150800000Y-74000000D03*
%TD*%
%TO.C,H1*%
X93300000Y-74000000D03*
%TD*%
%TO.C,H4*%
X93300000Y-110000000D03*
%TD*%
D13*
%TO.C,J2*%
X93500000Y-104525000D03*
D14*
X90550000Y-99625000D03*
X96550000Y-99625000D03*
%TD*%
D15*
%TO.C,U5*%
X116925000Y-112390000D03*
X119465000Y-112390000D03*
X122005000Y-112390000D03*
X124545000Y-112390000D03*
X127085000Y-112390000D03*
X130895000Y-111120000D03*
X130895000Y-95880000D03*
%TD*%
D12*
%TO.C,H3*%
X150800000Y-109500000D03*
%TD*%
D16*
%TO.C,J1*%
X90300000Y-90070000D03*
D17*
X94480000Y-90070000D03*
D16*
X90300000Y-81430000D03*
D17*
X94480000Y-81430000D03*
D18*
X93980000Y-88640000D03*
X93980000Y-82860000D03*
%TD*%
D19*
%TO.C,C2*%
X106800000Y-104862500D03*
X106800000Y-103137500D03*
%TD*%
%TO.C,C1*%
X96800000Y-104862500D03*
X96800000Y-103137500D03*
%TD*%
D20*
%TO.C,R4*%
X107300000Y-110550000D03*
X107300000Y-107450000D03*
%TD*%
D21*
%TO.C,C8*%
X132912500Y-83750000D03*
X131187500Y-83750000D03*
%TD*%
D22*
%TO.C,R14*%
X114450000Y-101300000D03*
X111350000Y-101300000D03*
%TD*%
D23*
%TO.C,C4*%
X132800000Y-71462500D03*
X132800000Y-73537500D03*
%TD*%
D24*
%TO.C,R10*%
X106800000Y-84450000D03*
X106800000Y-87550000D03*
%TD*%
D25*
%TO.C,C9*%
X123550000Y-95887500D03*
X123550000Y-97612500D03*
%TD*%
D20*
%TO.C,R7*%
X101300000Y-81800000D03*
X101300000Y-78700000D03*
%TD*%
D26*
%TO.C,U4*%
X119950000Y-80200000D03*
X120000000Y-77700000D03*
D27*
X121200000Y-78960000D03*
D28*
X121200000Y-79000000D03*
D26*
X122400000Y-77700000D03*
X122400000Y-80200000D03*
D29*
X110950000Y-71240000D03*
X110950000Y-72510000D03*
X110950000Y-73780000D03*
X110950000Y-75050000D03*
X110950000Y-76320000D03*
X110950000Y-77590000D03*
X110950000Y-78860000D03*
X110950000Y-80130000D03*
X110950000Y-81400000D03*
X110950000Y-82670000D03*
X110950000Y-83940000D03*
X110950000Y-85210000D03*
X110950000Y-86480000D03*
X110950000Y-87750000D03*
D30*
X112715000Y-89000000D03*
X113985000Y-89000000D03*
X115255000Y-89000000D03*
X116525000Y-89000000D03*
X117795000Y-89000000D03*
X119065000Y-89000000D03*
X120335000Y-89000000D03*
X121605000Y-89000000D03*
X122875000Y-89000000D03*
X124145000Y-89000000D03*
X125415000Y-89000000D03*
X126685000Y-89000000D03*
D29*
X128450000Y-87750000D03*
X128450000Y-86480000D03*
X128450000Y-85210000D03*
X128450000Y-83940000D03*
X128450000Y-82670000D03*
X128450000Y-81400000D03*
X128450000Y-80130000D03*
X128450000Y-78860000D03*
X128450000Y-77590000D03*
X128450000Y-76320000D03*
X128450000Y-75050000D03*
X128450000Y-73780000D03*
X128450000Y-72510000D03*
X128450000Y-71240000D03*
%TD*%
D24*
%TO.C,R6*%
X99550000Y-96700000D03*
X99550000Y-99800000D03*
%TD*%
%TO.C,R2*%
X92300000Y-79900000D03*
X92300000Y-83000000D03*
%TD*%
D31*
%TO.C,R11*%
X131500000Y-88500000D03*
X134600000Y-88500000D03*
%TD*%
D20*
%TO.C,R12*%
X120800000Y-97550000D03*
X120800000Y-94450000D03*
%TD*%
D22*
%TO.C,R13*%
X114400000Y-104800000D03*
X111300000Y-104800000D03*
%TD*%
D32*
%TO.C,U3*%
X99175000Y-103095000D03*
X99175000Y-104365000D03*
X99175000Y-105635000D03*
X99175000Y-106905000D03*
X104425000Y-106905000D03*
X104425000Y-105635000D03*
X104425000Y-104365000D03*
X104425000Y-103095000D03*
%TD*%
D21*
%TO.C,C10*%
X128300000Y-94000000D03*
X126575000Y-94000000D03*
%TD*%
D33*
%TO.C,C3*%
X90800000Y-86000000D03*
X92875000Y-86000000D03*
%TD*%
D34*
%TO.C,J4*%
X153460000Y-92395000D03*
D35*
X138360000Y-90045000D03*
X142660000Y-78895000D03*
D36*
X153010000Y-78895000D03*
D37*
X148860000Y-78895000D03*
D38*
X138360000Y-79845000D03*
X138360000Y-80795000D03*
X138360000Y-81895000D03*
X138360000Y-82995000D03*
X138360000Y-84095000D03*
X138360000Y-85195000D03*
X138360000Y-86295000D03*
X138360000Y-87395000D03*
X138360000Y-88495000D03*
%TD*%
D39*
%TO.C,U2*%
X98300000Y-85035000D03*
X98300000Y-85670000D03*
X98300000Y-86305000D03*
X98300000Y-86940000D03*
X98300000Y-87575000D03*
X98300000Y-88210000D03*
X98300000Y-88845000D03*
X98300000Y-89480000D03*
X98300000Y-90115000D03*
X98300000Y-90750000D03*
X103500000Y-90750000D03*
X103500000Y-90115000D03*
X103500000Y-89480000D03*
X103500000Y-88845000D03*
X103500000Y-88210000D03*
X103500000Y-87575000D03*
X103500000Y-86940000D03*
X103500000Y-86305000D03*
X103500000Y-85670000D03*
X103500000Y-85035000D03*
%TD*%
D24*
%TO.C,R5*%
X102300000Y-97450000D03*
X102300000Y-100550000D03*
%TD*%
D20*
%TO.C,R1*%
X92300000Y-91550000D03*
X92300000Y-88450000D03*
%TD*%
D22*
%TO.C,R3*%
X103400000Y-74250000D03*
X100300000Y-74250000D03*
%TD*%
D25*
%TO.C,C5*%
X130550000Y-71275000D03*
X130550000Y-73000000D03*
%TD*%
D31*
%TO.C,R9*%
X105700000Y-92000000D03*
X108800000Y-92000000D03*
%TD*%
D40*
%TO.C,C6*%
X107075000Y-94500000D03*
X108800000Y-94500000D03*
%TD*%
D21*
%TO.C,C7*%
X133162500Y-78250000D03*
X131437500Y-78250000D03*
%TD*%
D22*
%TO.C,R15*%
X114450000Y-98550000D03*
X111350000Y-98550000D03*
%TD*%
D20*
%TO.C,R8*%
X104050000Y-81800000D03*
X104050000Y-78700000D03*
%TD*%
D41*
%TO.C,Y1*%
X131300000Y-79750000D03*
X131300000Y-82250000D03*
%TD*%
D42*
%TO.C,U6*%
X124300000Y-91525000D03*
X125800000Y-91525000D03*
X127300000Y-91525000D03*
X128800000Y-91525000D03*
X130300000Y-91525000D03*
X131800000Y-91525000D03*
X133300000Y-91525000D03*
X134800000Y-91525000D03*
X136300000Y-91525000D03*
%TD*%
M02*
