%TF.GenerationSoftware,KiCad,Pcbnew,8.0.8*%
%TF.CreationDate,2025-02-02T16:15:29+09:00*%
%TF.ProjectId,PCB,5043422e-6b69-4636-9164-5f7063625858,rev?*%
%TF.SameCoordinates,Original*%
%TF.FileFunction,Legend,Top*%
%TF.FilePolarity,Positive*%
%FSLAX46Y46*%
G04 Gerber Fmt 4.6, Leading zero omitted, Abs format (unit mm)*
G04 Created by KiCad (PCBNEW 8.0.8) date 2025-02-02 16:15:29*
%MOMM*%
%LPD*%
G01*
G04 APERTURE LIST*
%ADD10C,0.100000*%
%ADD11C,0.508000*%
G04 APERTURE END LIST*
D10*
X89957419Y-58761904D02*
X90766942Y-58761904D01*
X90766942Y-58761904D02*
X90862180Y-58714285D01*
X90862180Y-58714285D02*
X90909800Y-58666666D01*
X90909800Y-58666666D02*
X90957419Y-58571428D01*
X90957419Y-58571428D02*
X90957419Y-58380952D01*
X90957419Y-58380952D02*
X90909800Y-58285714D01*
X90909800Y-58285714D02*
X90862180Y-58238095D01*
X90862180Y-58238095D02*
X90766942Y-58190476D01*
X90766942Y-58190476D02*
X89957419Y-58190476D01*
X90957419Y-57190476D02*
X90957419Y-57761904D01*
X90957419Y-57476190D02*
X89957419Y-57476190D01*
X89957419Y-57476190D02*
X90100276Y-57571428D01*
X90100276Y-57571428D02*
X90195514Y-57666666D01*
X90195514Y-57666666D02*
X90243133Y-57761904D01*
X117238095Y-48107419D02*
X117238095Y-48916942D01*
X117238095Y-48916942D02*
X117285714Y-49012180D01*
X117285714Y-49012180D02*
X117333333Y-49059800D01*
X117333333Y-49059800D02*
X117428571Y-49107419D01*
X117428571Y-49107419D02*
X117619047Y-49107419D01*
X117619047Y-49107419D02*
X117714285Y-49059800D01*
X117714285Y-49059800D02*
X117761904Y-49012180D01*
X117761904Y-49012180D02*
X117809523Y-48916942D01*
X117809523Y-48916942D02*
X117809523Y-48107419D01*
X118761904Y-48107419D02*
X118285714Y-48107419D01*
X118285714Y-48107419D02*
X118238095Y-48583609D01*
X118238095Y-48583609D02*
X118285714Y-48535990D01*
X118285714Y-48535990D02*
X118380952Y-48488371D01*
X118380952Y-48488371D02*
X118619047Y-48488371D01*
X118619047Y-48488371D02*
X118714285Y-48535990D01*
X118714285Y-48535990D02*
X118761904Y-48583609D01*
X118761904Y-48583609D02*
X118809523Y-48678847D01*
X118809523Y-48678847D02*
X118809523Y-48916942D01*
X118809523Y-48916942D02*
X118761904Y-49012180D01*
X118761904Y-49012180D02*
X118714285Y-49059800D01*
X118714285Y-49059800D02*
X118619047Y-49107419D01*
X118619047Y-49107419D02*
X118380952Y-49107419D01*
X118380952Y-49107419D02*
X118285714Y-49059800D01*
X118285714Y-49059800D02*
X118238095Y-49012180D01*
%TO.C,U1*%
X89285000Y-47380000D02*
X100715000Y-47380000D01*
X89285000Y-68380000D02*
X89285000Y-47380000D01*
X100715000Y-68380000D02*
X89285000Y-68380000D01*
X100715000Y-68380000D02*
X100715000Y-47380000D01*
%TO.C,U5*%
X102990000Y-68205000D02*
X102990000Y-47595000D01*
X102990000Y-68205000D02*
X123010000Y-68205000D01*
X123010000Y-47595000D02*
X102990000Y-47595000D01*
X123010000Y-68205000D02*
X123010000Y-47595000D01*
D11*
%TO.C,U2*%
X173381000Y-66337999D02*
G75*
G02*
X172619000Y-66337999I-381000J0D01*
G01*
X172619000Y-66337999D02*
G75*
G02*
X173381000Y-66337999I381000J0D01*
G01*
%TD*%
M02*
