%TF.GenerationSoftware,KiCad,Pcbnew,8.0.6*%
%TF.CreationDate,2024-11-30T14:10:35+09:00*%
%TF.ProjectId,PCB,5043422e-6b69-4636-9164-5f7063625858,rev?*%
%TF.SameCoordinates,Original*%
%TF.FileFunction,Legend,Bot*%
%TF.FilePolarity,Positive*%
%FSLAX46Y46*%
G04 Gerber Fmt 4.6, Leading zero omitted, Abs format (unit mm)*
G04 Created by KiCad (PCBNEW 8.0.6) date 2024-11-30 14:10:35*
%MOMM*%
%LPD*%
G01*
G04 APERTURE LIST*
%ADD10C,0.150000*%
%ADD11C,0.100000*%
%ADD12C,0.120000*%
G04 APERTURE END LIST*
D10*
X108659580Y-103833333D02*
X108707200Y-103785714D01*
X108707200Y-103785714D02*
X108754819Y-103642857D01*
X108754819Y-103642857D02*
X108754819Y-103547619D01*
X108754819Y-103547619D02*
X108707200Y-103404762D01*
X108707200Y-103404762D02*
X108611961Y-103309524D01*
X108611961Y-103309524D02*
X108516723Y-103261905D01*
X108516723Y-103261905D02*
X108326247Y-103214286D01*
X108326247Y-103214286D02*
X108183390Y-103214286D01*
X108183390Y-103214286D02*
X107992914Y-103261905D01*
X107992914Y-103261905D02*
X107897676Y-103309524D01*
X107897676Y-103309524D02*
X107802438Y-103404762D01*
X107802438Y-103404762D02*
X107754819Y-103547619D01*
X107754819Y-103547619D02*
X107754819Y-103642857D01*
X107754819Y-103642857D02*
X107802438Y-103785714D01*
X107802438Y-103785714D02*
X107850057Y-103833333D01*
X107850057Y-104214286D02*
X107802438Y-104261905D01*
X107802438Y-104261905D02*
X107754819Y-104357143D01*
X107754819Y-104357143D02*
X107754819Y-104595238D01*
X107754819Y-104595238D02*
X107802438Y-104690476D01*
X107802438Y-104690476D02*
X107850057Y-104738095D01*
X107850057Y-104738095D02*
X107945295Y-104785714D01*
X107945295Y-104785714D02*
X108040533Y-104785714D01*
X108040533Y-104785714D02*
X108183390Y-104738095D01*
X108183390Y-104738095D02*
X108754819Y-104166667D01*
X108754819Y-104166667D02*
X108754819Y-104785714D01*
X95659580Y-102583333D02*
X95707200Y-102535714D01*
X95707200Y-102535714D02*
X95754819Y-102392857D01*
X95754819Y-102392857D02*
X95754819Y-102297619D01*
X95754819Y-102297619D02*
X95707200Y-102154762D01*
X95707200Y-102154762D02*
X95611961Y-102059524D01*
X95611961Y-102059524D02*
X95516723Y-102011905D01*
X95516723Y-102011905D02*
X95326247Y-101964286D01*
X95326247Y-101964286D02*
X95183390Y-101964286D01*
X95183390Y-101964286D02*
X94992914Y-102011905D01*
X94992914Y-102011905D02*
X94897676Y-102059524D01*
X94897676Y-102059524D02*
X94802438Y-102154762D01*
X94802438Y-102154762D02*
X94754819Y-102297619D01*
X94754819Y-102297619D02*
X94754819Y-102392857D01*
X94754819Y-102392857D02*
X94802438Y-102535714D01*
X94802438Y-102535714D02*
X94850057Y-102583333D01*
X95754819Y-103535714D02*
X95754819Y-102964286D01*
X95754819Y-103250000D02*
X94754819Y-103250000D01*
X94754819Y-103250000D02*
X94897676Y-103154762D01*
X94897676Y-103154762D02*
X94992914Y-103059524D01*
X94992914Y-103059524D02*
X95040533Y-102964286D01*
X107466666Y-109454819D02*
X107799999Y-108978628D01*
X108038094Y-109454819D02*
X108038094Y-108454819D01*
X108038094Y-108454819D02*
X107657142Y-108454819D01*
X107657142Y-108454819D02*
X107561904Y-108502438D01*
X107561904Y-108502438D02*
X107514285Y-108550057D01*
X107514285Y-108550057D02*
X107466666Y-108645295D01*
X107466666Y-108645295D02*
X107466666Y-108788152D01*
X107466666Y-108788152D02*
X107514285Y-108883390D01*
X107514285Y-108883390D02*
X107561904Y-108931009D01*
X107561904Y-108931009D02*
X107657142Y-108978628D01*
X107657142Y-108978628D02*
X108038094Y-108978628D01*
X106609523Y-108788152D02*
X106609523Y-109454819D01*
X106847618Y-108407200D02*
X107085713Y-109121485D01*
X107085713Y-109121485D02*
X106466666Y-109121485D01*
X134909580Y-83583333D02*
X134957200Y-83535714D01*
X134957200Y-83535714D02*
X135004819Y-83392857D01*
X135004819Y-83392857D02*
X135004819Y-83297619D01*
X135004819Y-83297619D02*
X134957200Y-83154762D01*
X134957200Y-83154762D02*
X134861961Y-83059524D01*
X134861961Y-83059524D02*
X134766723Y-83011905D01*
X134766723Y-83011905D02*
X134576247Y-82964286D01*
X134576247Y-82964286D02*
X134433390Y-82964286D01*
X134433390Y-82964286D02*
X134242914Y-83011905D01*
X134242914Y-83011905D02*
X134147676Y-83059524D01*
X134147676Y-83059524D02*
X134052438Y-83154762D01*
X134052438Y-83154762D02*
X134004819Y-83297619D01*
X134004819Y-83297619D02*
X134004819Y-83392857D01*
X134004819Y-83392857D02*
X134052438Y-83535714D01*
X134052438Y-83535714D02*
X134100057Y-83583333D01*
X134433390Y-84154762D02*
X134385771Y-84059524D01*
X134385771Y-84059524D02*
X134338152Y-84011905D01*
X134338152Y-84011905D02*
X134242914Y-83964286D01*
X134242914Y-83964286D02*
X134195295Y-83964286D01*
X134195295Y-83964286D02*
X134100057Y-84011905D01*
X134100057Y-84011905D02*
X134052438Y-84059524D01*
X134052438Y-84059524D02*
X134004819Y-84154762D01*
X134004819Y-84154762D02*
X134004819Y-84345238D01*
X134004819Y-84345238D02*
X134052438Y-84440476D01*
X134052438Y-84440476D02*
X134100057Y-84488095D01*
X134100057Y-84488095D02*
X134195295Y-84535714D01*
X134195295Y-84535714D02*
X134242914Y-84535714D01*
X134242914Y-84535714D02*
X134338152Y-84488095D01*
X134338152Y-84488095D02*
X134385771Y-84440476D01*
X134385771Y-84440476D02*
X134433390Y-84345238D01*
X134433390Y-84345238D02*
X134433390Y-84154762D01*
X134433390Y-84154762D02*
X134481009Y-84059524D01*
X134481009Y-84059524D02*
X134528628Y-84011905D01*
X134528628Y-84011905D02*
X134623866Y-83964286D01*
X134623866Y-83964286D02*
X134814342Y-83964286D01*
X134814342Y-83964286D02*
X134909580Y-84011905D01*
X134909580Y-84011905D02*
X134957200Y-84059524D01*
X134957200Y-84059524D02*
X135004819Y-84154762D01*
X135004819Y-84154762D02*
X135004819Y-84345238D01*
X135004819Y-84345238D02*
X134957200Y-84440476D01*
X134957200Y-84440476D02*
X134909580Y-84488095D01*
X134909580Y-84488095D02*
X134814342Y-84535714D01*
X134814342Y-84535714D02*
X134623866Y-84535714D01*
X134623866Y-84535714D02*
X134528628Y-84488095D01*
X134528628Y-84488095D02*
X134481009Y-84440476D01*
X134481009Y-84440476D02*
X134433390Y-84345238D01*
X113542857Y-103574819D02*
X113876190Y-103098628D01*
X114114285Y-103574819D02*
X114114285Y-102574819D01*
X114114285Y-102574819D02*
X113733333Y-102574819D01*
X113733333Y-102574819D02*
X113638095Y-102622438D01*
X113638095Y-102622438D02*
X113590476Y-102670057D01*
X113590476Y-102670057D02*
X113542857Y-102765295D01*
X113542857Y-102765295D02*
X113542857Y-102908152D01*
X113542857Y-102908152D02*
X113590476Y-103003390D01*
X113590476Y-103003390D02*
X113638095Y-103051009D01*
X113638095Y-103051009D02*
X113733333Y-103098628D01*
X113733333Y-103098628D02*
X114114285Y-103098628D01*
X112590476Y-103574819D02*
X113161904Y-103574819D01*
X112876190Y-103574819D02*
X112876190Y-102574819D01*
X112876190Y-102574819D02*
X112971428Y-102717676D01*
X112971428Y-102717676D02*
X113066666Y-102812914D01*
X113066666Y-102812914D02*
X113161904Y-102860533D01*
X111733333Y-102908152D02*
X111733333Y-103574819D01*
X111971428Y-102527200D02*
X112209523Y-103241485D01*
X112209523Y-103241485D02*
X111590476Y-103241485D01*
X133116666Y-75409580D02*
X133164285Y-75457200D01*
X133164285Y-75457200D02*
X133307142Y-75504819D01*
X133307142Y-75504819D02*
X133402380Y-75504819D01*
X133402380Y-75504819D02*
X133545237Y-75457200D01*
X133545237Y-75457200D02*
X133640475Y-75361961D01*
X133640475Y-75361961D02*
X133688094Y-75266723D01*
X133688094Y-75266723D02*
X133735713Y-75076247D01*
X133735713Y-75076247D02*
X133735713Y-74933390D01*
X133735713Y-74933390D02*
X133688094Y-74742914D01*
X133688094Y-74742914D02*
X133640475Y-74647676D01*
X133640475Y-74647676D02*
X133545237Y-74552438D01*
X133545237Y-74552438D02*
X133402380Y-74504819D01*
X133402380Y-74504819D02*
X133307142Y-74504819D01*
X133307142Y-74504819D02*
X133164285Y-74552438D01*
X133164285Y-74552438D02*
X133116666Y-74600057D01*
X132259523Y-74838152D02*
X132259523Y-75504819D01*
X132497618Y-74457200D02*
X132735713Y-75171485D01*
X132735713Y-75171485D02*
X132116666Y-75171485D01*
X109074819Y-85357142D02*
X108598628Y-85023809D01*
X109074819Y-84785714D02*
X108074819Y-84785714D01*
X108074819Y-84785714D02*
X108074819Y-85166666D01*
X108074819Y-85166666D02*
X108122438Y-85261904D01*
X108122438Y-85261904D02*
X108170057Y-85309523D01*
X108170057Y-85309523D02*
X108265295Y-85357142D01*
X108265295Y-85357142D02*
X108408152Y-85357142D01*
X108408152Y-85357142D02*
X108503390Y-85309523D01*
X108503390Y-85309523D02*
X108551009Y-85261904D01*
X108551009Y-85261904D02*
X108598628Y-85166666D01*
X108598628Y-85166666D02*
X108598628Y-84785714D01*
X109074819Y-86309523D02*
X109074819Y-85738095D01*
X109074819Y-86023809D02*
X108074819Y-86023809D01*
X108074819Y-86023809D02*
X108217676Y-85928571D01*
X108217676Y-85928571D02*
X108312914Y-85833333D01*
X108312914Y-85833333D02*
X108360533Y-85738095D01*
X108074819Y-86928571D02*
X108074819Y-87023809D01*
X108074819Y-87023809D02*
X108122438Y-87119047D01*
X108122438Y-87119047D02*
X108170057Y-87166666D01*
X108170057Y-87166666D02*
X108265295Y-87214285D01*
X108265295Y-87214285D02*
X108455771Y-87261904D01*
X108455771Y-87261904D02*
X108693866Y-87261904D01*
X108693866Y-87261904D02*
X108884342Y-87214285D01*
X108884342Y-87214285D02*
X108979580Y-87166666D01*
X108979580Y-87166666D02*
X109027200Y-87119047D01*
X109027200Y-87119047D02*
X109074819Y-87023809D01*
X109074819Y-87023809D02*
X109074819Y-86928571D01*
X109074819Y-86928571D02*
X109027200Y-86833333D01*
X109027200Y-86833333D02*
X108979580Y-86785714D01*
X108979580Y-86785714D02*
X108884342Y-86738095D01*
X108884342Y-86738095D02*
X108693866Y-86690476D01*
X108693866Y-86690476D02*
X108455771Y-86690476D01*
X108455771Y-86690476D02*
X108265295Y-86738095D01*
X108265295Y-86738095D02*
X108170057Y-86785714D01*
X108170057Y-86785714D02*
X108122438Y-86833333D01*
X108122438Y-86833333D02*
X108074819Y-86928571D01*
X123716666Y-99472080D02*
X123764285Y-99519700D01*
X123764285Y-99519700D02*
X123907142Y-99567319D01*
X123907142Y-99567319D02*
X124002380Y-99567319D01*
X124002380Y-99567319D02*
X124145237Y-99519700D01*
X124145237Y-99519700D02*
X124240475Y-99424461D01*
X124240475Y-99424461D02*
X124288094Y-99329223D01*
X124288094Y-99329223D02*
X124335713Y-99138747D01*
X124335713Y-99138747D02*
X124335713Y-98995890D01*
X124335713Y-98995890D02*
X124288094Y-98805414D01*
X124288094Y-98805414D02*
X124240475Y-98710176D01*
X124240475Y-98710176D02*
X124145237Y-98614938D01*
X124145237Y-98614938D02*
X124002380Y-98567319D01*
X124002380Y-98567319D02*
X123907142Y-98567319D01*
X123907142Y-98567319D02*
X123764285Y-98614938D01*
X123764285Y-98614938D02*
X123716666Y-98662557D01*
X123240475Y-99567319D02*
X123049999Y-99567319D01*
X123049999Y-99567319D02*
X122954761Y-99519700D01*
X122954761Y-99519700D02*
X122907142Y-99472080D01*
X122907142Y-99472080D02*
X122811904Y-99329223D01*
X122811904Y-99329223D02*
X122764285Y-99138747D01*
X122764285Y-99138747D02*
X122764285Y-98757795D01*
X122764285Y-98757795D02*
X122811904Y-98662557D01*
X122811904Y-98662557D02*
X122859523Y-98614938D01*
X122859523Y-98614938D02*
X122954761Y-98567319D01*
X122954761Y-98567319D02*
X123145237Y-98567319D01*
X123145237Y-98567319D02*
X123240475Y-98614938D01*
X123240475Y-98614938D02*
X123288094Y-98662557D01*
X123288094Y-98662557D02*
X123335713Y-98757795D01*
X123335713Y-98757795D02*
X123335713Y-98995890D01*
X123335713Y-98995890D02*
X123288094Y-99091128D01*
X123288094Y-99091128D02*
X123240475Y-99138747D01*
X123240475Y-99138747D02*
X123145237Y-99186366D01*
X123145237Y-99186366D02*
X122954761Y-99186366D01*
X122954761Y-99186366D02*
X122859523Y-99138747D01*
X122859523Y-99138747D02*
X122811904Y-99091128D01*
X122811904Y-99091128D02*
X122764285Y-98995890D01*
X99954819Y-80083333D02*
X99478628Y-79750000D01*
X99954819Y-79511905D02*
X98954819Y-79511905D01*
X98954819Y-79511905D02*
X98954819Y-79892857D01*
X98954819Y-79892857D02*
X99002438Y-79988095D01*
X99002438Y-79988095D02*
X99050057Y-80035714D01*
X99050057Y-80035714D02*
X99145295Y-80083333D01*
X99145295Y-80083333D02*
X99288152Y-80083333D01*
X99288152Y-80083333D02*
X99383390Y-80035714D01*
X99383390Y-80035714D02*
X99431009Y-79988095D01*
X99431009Y-79988095D02*
X99478628Y-79892857D01*
X99478628Y-79892857D02*
X99478628Y-79511905D01*
X98954819Y-80416667D02*
X98954819Y-81083333D01*
X98954819Y-81083333D02*
X99954819Y-80654762D01*
X120636904Y-74954819D02*
X120636904Y-75764342D01*
X120636904Y-75764342D02*
X120589285Y-75859580D01*
X120589285Y-75859580D02*
X120541666Y-75907200D01*
X120541666Y-75907200D02*
X120446428Y-75954819D01*
X120446428Y-75954819D02*
X120255952Y-75954819D01*
X120255952Y-75954819D02*
X120160714Y-75907200D01*
X120160714Y-75907200D02*
X120113095Y-75859580D01*
X120113095Y-75859580D02*
X120065476Y-75764342D01*
X120065476Y-75764342D02*
X120065476Y-74954819D01*
X119160714Y-75288152D02*
X119160714Y-75954819D01*
X119398809Y-74907200D02*
X119636904Y-75621485D01*
X119636904Y-75621485D02*
X119017857Y-75621485D01*
X99716666Y-101704819D02*
X100049999Y-101228628D01*
X100288094Y-101704819D02*
X100288094Y-100704819D01*
X100288094Y-100704819D02*
X99907142Y-100704819D01*
X99907142Y-100704819D02*
X99811904Y-100752438D01*
X99811904Y-100752438D02*
X99764285Y-100800057D01*
X99764285Y-100800057D02*
X99716666Y-100895295D01*
X99716666Y-100895295D02*
X99716666Y-101038152D01*
X99716666Y-101038152D02*
X99764285Y-101133390D01*
X99764285Y-101133390D02*
X99811904Y-101181009D01*
X99811904Y-101181009D02*
X99907142Y-101228628D01*
X99907142Y-101228628D02*
X100288094Y-101228628D01*
X98859523Y-100704819D02*
X99049999Y-100704819D01*
X99049999Y-100704819D02*
X99145237Y-100752438D01*
X99145237Y-100752438D02*
X99192856Y-100800057D01*
X99192856Y-100800057D02*
X99288094Y-100942914D01*
X99288094Y-100942914D02*
X99335713Y-101133390D01*
X99335713Y-101133390D02*
X99335713Y-101514342D01*
X99335713Y-101514342D02*
X99288094Y-101609580D01*
X99288094Y-101609580D02*
X99240475Y-101657200D01*
X99240475Y-101657200D02*
X99145237Y-101704819D01*
X99145237Y-101704819D02*
X98954761Y-101704819D01*
X98954761Y-101704819D02*
X98859523Y-101657200D01*
X98859523Y-101657200D02*
X98811904Y-101609580D01*
X98811904Y-101609580D02*
X98764285Y-101514342D01*
X98764285Y-101514342D02*
X98764285Y-101276247D01*
X98764285Y-101276247D02*
X98811904Y-101181009D01*
X98811904Y-101181009D02*
X98859523Y-101133390D01*
X98859523Y-101133390D02*
X98954761Y-101085771D01*
X98954761Y-101085771D02*
X99145237Y-101085771D01*
X99145237Y-101085771D02*
X99240475Y-101133390D01*
X99240475Y-101133390D02*
X99288094Y-101181009D01*
X99288094Y-101181009D02*
X99335713Y-101276247D01*
X92666666Y-78954819D02*
X92999999Y-78478628D01*
X93238094Y-78954819D02*
X93238094Y-77954819D01*
X93238094Y-77954819D02*
X92857142Y-77954819D01*
X92857142Y-77954819D02*
X92761904Y-78002438D01*
X92761904Y-78002438D02*
X92714285Y-78050057D01*
X92714285Y-78050057D02*
X92666666Y-78145295D01*
X92666666Y-78145295D02*
X92666666Y-78288152D01*
X92666666Y-78288152D02*
X92714285Y-78383390D01*
X92714285Y-78383390D02*
X92761904Y-78431009D01*
X92761904Y-78431009D02*
X92857142Y-78478628D01*
X92857142Y-78478628D02*
X93238094Y-78478628D01*
X92285713Y-78050057D02*
X92238094Y-78002438D01*
X92238094Y-78002438D02*
X92142856Y-77954819D01*
X92142856Y-77954819D02*
X91904761Y-77954819D01*
X91904761Y-77954819D02*
X91809523Y-78002438D01*
X91809523Y-78002438D02*
X91761904Y-78050057D01*
X91761904Y-78050057D02*
X91714285Y-78145295D01*
X91714285Y-78145295D02*
X91714285Y-78240533D01*
X91714285Y-78240533D02*
X91761904Y-78383390D01*
X91761904Y-78383390D02*
X92333332Y-78954819D01*
X92333332Y-78954819D02*
X91714285Y-78954819D01*
X136754819Y-87857142D02*
X136278628Y-87523809D01*
X136754819Y-87285714D02*
X135754819Y-87285714D01*
X135754819Y-87285714D02*
X135754819Y-87666666D01*
X135754819Y-87666666D02*
X135802438Y-87761904D01*
X135802438Y-87761904D02*
X135850057Y-87809523D01*
X135850057Y-87809523D02*
X135945295Y-87857142D01*
X135945295Y-87857142D02*
X136088152Y-87857142D01*
X136088152Y-87857142D02*
X136183390Y-87809523D01*
X136183390Y-87809523D02*
X136231009Y-87761904D01*
X136231009Y-87761904D02*
X136278628Y-87666666D01*
X136278628Y-87666666D02*
X136278628Y-87285714D01*
X136754819Y-88809523D02*
X136754819Y-88238095D01*
X136754819Y-88523809D02*
X135754819Y-88523809D01*
X135754819Y-88523809D02*
X135897676Y-88428571D01*
X135897676Y-88428571D02*
X135992914Y-88333333D01*
X135992914Y-88333333D02*
X136040533Y-88238095D01*
X136754819Y-89761904D02*
X136754819Y-89190476D01*
X136754819Y-89476190D02*
X135754819Y-89476190D01*
X135754819Y-89476190D02*
X135897676Y-89380952D01*
X135897676Y-89380952D02*
X135992914Y-89285714D01*
X135992914Y-89285714D02*
X136040533Y-89190476D01*
X121442857Y-99704819D02*
X121776190Y-99228628D01*
X122014285Y-99704819D02*
X122014285Y-98704819D01*
X122014285Y-98704819D02*
X121633333Y-98704819D01*
X121633333Y-98704819D02*
X121538095Y-98752438D01*
X121538095Y-98752438D02*
X121490476Y-98800057D01*
X121490476Y-98800057D02*
X121442857Y-98895295D01*
X121442857Y-98895295D02*
X121442857Y-99038152D01*
X121442857Y-99038152D02*
X121490476Y-99133390D01*
X121490476Y-99133390D02*
X121538095Y-99181009D01*
X121538095Y-99181009D02*
X121633333Y-99228628D01*
X121633333Y-99228628D02*
X122014285Y-99228628D01*
X120490476Y-99704819D02*
X121061904Y-99704819D01*
X120776190Y-99704819D02*
X120776190Y-98704819D01*
X120776190Y-98704819D02*
X120871428Y-98847676D01*
X120871428Y-98847676D02*
X120966666Y-98942914D01*
X120966666Y-98942914D02*
X121061904Y-98990533D01*
X120109523Y-98800057D02*
X120061904Y-98752438D01*
X120061904Y-98752438D02*
X119966666Y-98704819D01*
X119966666Y-98704819D02*
X119728571Y-98704819D01*
X119728571Y-98704819D02*
X119633333Y-98752438D01*
X119633333Y-98752438D02*
X119585714Y-98800057D01*
X119585714Y-98800057D02*
X119538095Y-98895295D01*
X119538095Y-98895295D02*
X119538095Y-98990533D01*
X119538095Y-98990533D02*
X119585714Y-99133390D01*
X119585714Y-99133390D02*
X120157142Y-99704819D01*
X120157142Y-99704819D02*
X119538095Y-99704819D01*
X113492857Y-107004819D02*
X113826190Y-106528628D01*
X114064285Y-107004819D02*
X114064285Y-106004819D01*
X114064285Y-106004819D02*
X113683333Y-106004819D01*
X113683333Y-106004819D02*
X113588095Y-106052438D01*
X113588095Y-106052438D02*
X113540476Y-106100057D01*
X113540476Y-106100057D02*
X113492857Y-106195295D01*
X113492857Y-106195295D02*
X113492857Y-106338152D01*
X113492857Y-106338152D02*
X113540476Y-106433390D01*
X113540476Y-106433390D02*
X113588095Y-106481009D01*
X113588095Y-106481009D02*
X113683333Y-106528628D01*
X113683333Y-106528628D02*
X114064285Y-106528628D01*
X112540476Y-107004819D02*
X113111904Y-107004819D01*
X112826190Y-107004819D02*
X112826190Y-106004819D01*
X112826190Y-106004819D02*
X112921428Y-106147676D01*
X112921428Y-106147676D02*
X113016666Y-106242914D01*
X113016666Y-106242914D02*
X113111904Y-106290533D01*
X112207142Y-106004819D02*
X111588095Y-106004819D01*
X111588095Y-106004819D02*
X111921428Y-106385771D01*
X111921428Y-106385771D02*
X111778571Y-106385771D01*
X111778571Y-106385771D02*
X111683333Y-106433390D01*
X111683333Y-106433390D02*
X111635714Y-106481009D01*
X111635714Y-106481009D02*
X111588095Y-106576247D01*
X111588095Y-106576247D02*
X111588095Y-106814342D01*
X111588095Y-106814342D02*
X111635714Y-106909580D01*
X111635714Y-106909580D02*
X111683333Y-106957200D01*
X111683333Y-106957200D02*
X111778571Y-107004819D01*
X111778571Y-107004819D02*
X112064285Y-107004819D01*
X112064285Y-107004819D02*
X112159523Y-106957200D01*
X112159523Y-106957200D02*
X112207142Y-106909580D01*
X101261904Y-102454819D02*
X101261904Y-103264342D01*
X101261904Y-103264342D02*
X101214285Y-103359580D01*
X101214285Y-103359580D02*
X101166666Y-103407200D01*
X101166666Y-103407200D02*
X101071428Y-103454819D01*
X101071428Y-103454819D02*
X100880952Y-103454819D01*
X100880952Y-103454819D02*
X100785714Y-103407200D01*
X100785714Y-103407200D02*
X100738095Y-103359580D01*
X100738095Y-103359580D02*
X100690476Y-103264342D01*
X100690476Y-103264342D02*
X100690476Y-102454819D01*
X100309523Y-102454819D02*
X99690476Y-102454819D01*
X99690476Y-102454819D02*
X100023809Y-102835771D01*
X100023809Y-102835771D02*
X99880952Y-102835771D01*
X99880952Y-102835771D02*
X99785714Y-102883390D01*
X99785714Y-102883390D02*
X99738095Y-102931009D01*
X99738095Y-102931009D02*
X99690476Y-103026247D01*
X99690476Y-103026247D02*
X99690476Y-103264342D01*
X99690476Y-103264342D02*
X99738095Y-103359580D01*
X99738095Y-103359580D02*
X99785714Y-103407200D01*
X99785714Y-103407200D02*
X99880952Y-103454819D01*
X99880952Y-103454819D02*
X100166666Y-103454819D01*
X100166666Y-103454819D02*
X100261904Y-103407200D01*
X100261904Y-103407200D02*
X100309523Y-103359580D01*
X128080357Y-96109580D02*
X128127976Y-96157200D01*
X128127976Y-96157200D02*
X128270833Y-96204819D01*
X128270833Y-96204819D02*
X128366071Y-96204819D01*
X128366071Y-96204819D02*
X128508928Y-96157200D01*
X128508928Y-96157200D02*
X128604166Y-96061961D01*
X128604166Y-96061961D02*
X128651785Y-95966723D01*
X128651785Y-95966723D02*
X128699404Y-95776247D01*
X128699404Y-95776247D02*
X128699404Y-95633390D01*
X128699404Y-95633390D02*
X128651785Y-95442914D01*
X128651785Y-95442914D02*
X128604166Y-95347676D01*
X128604166Y-95347676D02*
X128508928Y-95252438D01*
X128508928Y-95252438D02*
X128366071Y-95204819D01*
X128366071Y-95204819D02*
X128270833Y-95204819D01*
X128270833Y-95204819D02*
X128127976Y-95252438D01*
X128127976Y-95252438D02*
X128080357Y-95300057D01*
X127127976Y-96204819D02*
X127699404Y-96204819D01*
X127413690Y-96204819D02*
X127413690Y-95204819D01*
X127413690Y-95204819D02*
X127508928Y-95347676D01*
X127508928Y-95347676D02*
X127604166Y-95442914D01*
X127604166Y-95442914D02*
X127699404Y-95490533D01*
X126508928Y-95204819D02*
X126413690Y-95204819D01*
X126413690Y-95204819D02*
X126318452Y-95252438D01*
X126318452Y-95252438D02*
X126270833Y-95300057D01*
X126270833Y-95300057D02*
X126223214Y-95395295D01*
X126223214Y-95395295D02*
X126175595Y-95585771D01*
X126175595Y-95585771D02*
X126175595Y-95823866D01*
X126175595Y-95823866D02*
X126223214Y-96014342D01*
X126223214Y-96014342D02*
X126270833Y-96109580D01*
X126270833Y-96109580D02*
X126318452Y-96157200D01*
X126318452Y-96157200D02*
X126413690Y-96204819D01*
X126413690Y-96204819D02*
X126508928Y-96204819D01*
X126508928Y-96204819D02*
X126604166Y-96157200D01*
X126604166Y-96157200D02*
X126651785Y-96109580D01*
X126651785Y-96109580D02*
X126699404Y-96014342D01*
X126699404Y-96014342D02*
X126747023Y-95823866D01*
X126747023Y-95823866D02*
X126747023Y-95585771D01*
X126747023Y-95585771D02*
X126699404Y-95395295D01*
X126699404Y-95395295D02*
X126651785Y-95300057D01*
X126651785Y-95300057D02*
X126604166Y-95252438D01*
X126604166Y-95252438D02*
X126508928Y-95204819D01*
X90466666Y-84859580D02*
X90514285Y-84907200D01*
X90514285Y-84907200D02*
X90657142Y-84954819D01*
X90657142Y-84954819D02*
X90752380Y-84954819D01*
X90752380Y-84954819D02*
X90895237Y-84907200D01*
X90895237Y-84907200D02*
X90990475Y-84811961D01*
X90990475Y-84811961D02*
X91038094Y-84716723D01*
X91038094Y-84716723D02*
X91085713Y-84526247D01*
X91085713Y-84526247D02*
X91085713Y-84383390D01*
X91085713Y-84383390D02*
X91038094Y-84192914D01*
X91038094Y-84192914D02*
X90990475Y-84097676D01*
X90990475Y-84097676D02*
X90895237Y-84002438D01*
X90895237Y-84002438D02*
X90752380Y-83954819D01*
X90752380Y-83954819D02*
X90657142Y-83954819D01*
X90657142Y-83954819D02*
X90514285Y-84002438D01*
X90514285Y-84002438D02*
X90466666Y-84050057D01*
X90133332Y-83954819D02*
X89514285Y-83954819D01*
X89514285Y-83954819D02*
X89847618Y-84335771D01*
X89847618Y-84335771D02*
X89704761Y-84335771D01*
X89704761Y-84335771D02*
X89609523Y-84383390D01*
X89609523Y-84383390D02*
X89561904Y-84431009D01*
X89561904Y-84431009D02*
X89514285Y-84526247D01*
X89514285Y-84526247D02*
X89514285Y-84764342D01*
X89514285Y-84764342D02*
X89561904Y-84859580D01*
X89561904Y-84859580D02*
X89609523Y-84907200D01*
X89609523Y-84907200D02*
X89704761Y-84954819D01*
X89704761Y-84954819D02*
X89990475Y-84954819D01*
X89990475Y-84954819D02*
X90085713Y-84907200D01*
X90085713Y-84907200D02*
X90133332Y-84859580D01*
X145914819Y-85061666D02*
X146629104Y-85061666D01*
X146629104Y-85061666D02*
X146771961Y-85014047D01*
X146771961Y-85014047D02*
X146867200Y-84918809D01*
X146867200Y-84918809D02*
X146914819Y-84775952D01*
X146914819Y-84775952D02*
X146914819Y-84680714D01*
X146248152Y-85966428D02*
X146914819Y-85966428D01*
X145867200Y-85728333D02*
X146581485Y-85490238D01*
X146581485Y-85490238D02*
X146581485Y-86109285D01*
X101761904Y-83654819D02*
X101761904Y-84464342D01*
X101761904Y-84464342D02*
X101714285Y-84559580D01*
X101714285Y-84559580D02*
X101666666Y-84607200D01*
X101666666Y-84607200D02*
X101571428Y-84654819D01*
X101571428Y-84654819D02*
X101380952Y-84654819D01*
X101380952Y-84654819D02*
X101285714Y-84607200D01*
X101285714Y-84607200D02*
X101238095Y-84559580D01*
X101238095Y-84559580D02*
X101190476Y-84464342D01*
X101190476Y-84464342D02*
X101190476Y-83654819D01*
X100761904Y-83750057D02*
X100714285Y-83702438D01*
X100714285Y-83702438D02*
X100619047Y-83654819D01*
X100619047Y-83654819D02*
X100380952Y-83654819D01*
X100380952Y-83654819D02*
X100285714Y-83702438D01*
X100285714Y-83702438D02*
X100238095Y-83750057D01*
X100238095Y-83750057D02*
X100190476Y-83845295D01*
X100190476Y-83845295D02*
X100190476Y-83940533D01*
X100190476Y-83940533D02*
X100238095Y-84083390D01*
X100238095Y-84083390D02*
X100809523Y-84654819D01*
X100809523Y-84654819D02*
X100190476Y-84654819D01*
X102754819Y-98833333D02*
X102278628Y-98500000D01*
X102754819Y-98261905D02*
X101754819Y-98261905D01*
X101754819Y-98261905D02*
X101754819Y-98642857D01*
X101754819Y-98642857D02*
X101802438Y-98738095D01*
X101802438Y-98738095D02*
X101850057Y-98785714D01*
X101850057Y-98785714D02*
X101945295Y-98833333D01*
X101945295Y-98833333D02*
X102088152Y-98833333D01*
X102088152Y-98833333D02*
X102183390Y-98785714D01*
X102183390Y-98785714D02*
X102231009Y-98738095D01*
X102231009Y-98738095D02*
X102278628Y-98642857D01*
X102278628Y-98642857D02*
X102278628Y-98261905D01*
X101754819Y-99738095D02*
X101754819Y-99261905D01*
X101754819Y-99261905D02*
X102231009Y-99214286D01*
X102231009Y-99214286D02*
X102183390Y-99261905D01*
X102183390Y-99261905D02*
X102135771Y-99357143D01*
X102135771Y-99357143D02*
X102135771Y-99595238D01*
X102135771Y-99595238D02*
X102183390Y-99690476D01*
X102183390Y-99690476D02*
X102231009Y-99738095D01*
X102231009Y-99738095D02*
X102326247Y-99785714D01*
X102326247Y-99785714D02*
X102564342Y-99785714D01*
X102564342Y-99785714D02*
X102659580Y-99738095D01*
X102659580Y-99738095D02*
X102707200Y-99690476D01*
X102707200Y-99690476D02*
X102754819Y-99595238D01*
X102754819Y-99595238D02*
X102754819Y-99357143D01*
X102754819Y-99357143D02*
X102707200Y-99261905D01*
X102707200Y-99261905D02*
X102659580Y-99214286D01*
X92466666Y-93654819D02*
X92799999Y-93178628D01*
X93038094Y-93654819D02*
X93038094Y-92654819D01*
X93038094Y-92654819D02*
X92657142Y-92654819D01*
X92657142Y-92654819D02*
X92561904Y-92702438D01*
X92561904Y-92702438D02*
X92514285Y-92750057D01*
X92514285Y-92750057D02*
X92466666Y-92845295D01*
X92466666Y-92845295D02*
X92466666Y-92988152D01*
X92466666Y-92988152D02*
X92514285Y-93083390D01*
X92514285Y-93083390D02*
X92561904Y-93131009D01*
X92561904Y-93131009D02*
X92657142Y-93178628D01*
X92657142Y-93178628D02*
X93038094Y-93178628D01*
X91514285Y-93654819D02*
X92085713Y-93654819D01*
X91799999Y-93654819D02*
X91799999Y-92654819D01*
X91799999Y-92654819D02*
X91895237Y-92797676D01*
X91895237Y-92797676D02*
X91990475Y-92892914D01*
X91990475Y-92892914D02*
X92085713Y-92940533D01*
X101816666Y-72954819D02*
X102149999Y-72478628D01*
X102388094Y-72954819D02*
X102388094Y-71954819D01*
X102388094Y-71954819D02*
X102007142Y-71954819D01*
X102007142Y-71954819D02*
X101911904Y-72002438D01*
X101911904Y-72002438D02*
X101864285Y-72050057D01*
X101864285Y-72050057D02*
X101816666Y-72145295D01*
X101816666Y-72145295D02*
X101816666Y-72288152D01*
X101816666Y-72288152D02*
X101864285Y-72383390D01*
X101864285Y-72383390D02*
X101911904Y-72431009D01*
X101911904Y-72431009D02*
X102007142Y-72478628D01*
X102007142Y-72478628D02*
X102388094Y-72478628D01*
X101483332Y-71954819D02*
X100864285Y-71954819D01*
X100864285Y-71954819D02*
X101197618Y-72335771D01*
X101197618Y-72335771D02*
X101054761Y-72335771D01*
X101054761Y-72335771D02*
X100959523Y-72383390D01*
X100959523Y-72383390D02*
X100911904Y-72431009D01*
X100911904Y-72431009D02*
X100864285Y-72526247D01*
X100864285Y-72526247D02*
X100864285Y-72764342D01*
X100864285Y-72764342D02*
X100911904Y-72859580D01*
X100911904Y-72859580D02*
X100959523Y-72907200D01*
X100959523Y-72907200D02*
X101054761Y-72954819D01*
X101054761Y-72954819D02*
X101340475Y-72954819D01*
X101340475Y-72954819D02*
X101435713Y-72907200D01*
X101435713Y-72907200D02*
X101483332Y-72859580D01*
X130716666Y-75109580D02*
X130764285Y-75157200D01*
X130764285Y-75157200D02*
X130907142Y-75204819D01*
X130907142Y-75204819D02*
X131002380Y-75204819D01*
X131002380Y-75204819D02*
X131145237Y-75157200D01*
X131145237Y-75157200D02*
X131240475Y-75061961D01*
X131240475Y-75061961D02*
X131288094Y-74966723D01*
X131288094Y-74966723D02*
X131335713Y-74776247D01*
X131335713Y-74776247D02*
X131335713Y-74633390D01*
X131335713Y-74633390D02*
X131288094Y-74442914D01*
X131288094Y-74442914D02*
X131240475Y-74347676D01*
X131240475Y-74347676D02*
X131145237Y-74252438D01*
X131145237Y-74252438D02*
X131002380Y-74204819D01*
X131002380Y-74204819D02*
X130907142Y-74204819D01*
X130907142Y-74204819D02*
X130764285Y-74252438D01*
X130764285Y-74252438D02*
X130716666Y-74300057D01*
X129811904Y-74204819D02*
X130288094Y-74204819D01*
X130288094Y-74204819D02*
X130335713Y-74681009D01*
X130335713Y-74681009D02*
X130288094Y-74633390D01*
X130288094Y-74633390D02*
X130192856Y-74585771D01*
X130192856Y-74585771D02*
X129954761Y-74585771D01*
X129954761Y-74585771D02*
X129859523Y-74633390D01*
X129859523Y-74633390D02*
X129811904Y-74681009D01*
X129811904Y-74681009D02*
X129764285Y-74776247D01*
X129764285Y-74776247D02*
X129764285Y-75014342D01*
X129764285Y-75014342D02*
X129811904Y-75109580D01*
X129811904Y-75109580D02*
X129859523Y-75157200D01*
X129859523Y-75157200D02*
X129954761Y-75204819D01*
X129954761Y-75204819D02*
X130192856Y-75204819D01*
X130192856Y-75204819D02*
X130288094Y-75157200D01*
X130288094Y-75157200D02*
X130335713Y-75109580D01*
X107416666Y-92454819D02*
X107749999Y-91978628D01*
X107988094Y-92454819D02*
X107988094Y-91454819D01*
X107988094Y-91454819D02*
X107607142Y-91454819D01*
X107607142Y-91454819D02*
X107511904Y-91502438D01*
X107511904Y-91502438D02*
X107464285Y-91550057D01*
X107464285Y-91550057D02*
X107416666Y-91645295D01*
X107416666Y-91645295D02*
X107416666Y-91788152D01*
X107416666Y-91788152D02*
X107464285Y-91883390D01*
X107464285Y-91883390D02*
X107511904Y-91931009D01*
X107511904Y-91931009D02*
X107607142Y-91978628D01*
X107607142Y-91978628D02*
X107988094Y-91978628D01*
X106940475Y-92454819D02*
X106749999Y-92454819D01*
X106749999Y-92454819D02*
X106654761Y-92407200D01*
X106654761Y-92407200D02*
X106607142Y-92359580D01*
X106607142Y-92359580D02*
X106511904Y-92216723D01*
X106511904Y-92216723D02*
X106464285Y-92026247D01*
X106464285Y-92026247D02*
X106464285Y-91645295D01*
X106464285Y-91645295D02*
X106511904Y-91550057D01*
X106511904Y-91550057D02*
X106559523Y-91502438D01*
X106559523Y-91502438D02*
X106654761Y-91454819D01*
X106654761Y-91454819D02*
X106845237Y-91454819D01*
X106845237Y-91454819D02*
X106940475Y-91502438D01*
X106940475Y-91502438D02*
X106988094Y-91550057D01*
X106988094Y-91550057D02*
X107035713Y-91645295D01*
X107035713Y-91645295D02*
X107035713Y-91883390D01*
X107035713Y-91883390D02*
X106988094Y-91978628D01*
X106988094Y-91978628D02*
X106940475Y-92026247D01*
X106940475Y-92026247D02*
X106845237Y-92073866D01*
X106845237Y-92073866D02*
X106654761Y-92073866D01*
X106654761Y-92073866D02*
X106559523Y-92026247D01*
X106559523Y-92026247D02*
X106511904Y-91978628D01*
X106511904Y-91978628D02*
X106464285Y-91883390D01*
X105797080Y-94333333D02*
X105844700Y-94285714D01*
X105844700Y-94285714D02*
X105892319Y-94142857D01*
X105892319Y-94142857D02*
X105892319Y-94047619D01*
X105892319Y-94047619D02*
X105844700Y-93904762D01*
X105844700Y-93904762D02*
X105749461Y-93809524D01*
X105749461Y-93809524D02*
X105654223Y-93761905D01*
X105654223Y-93761905D02*
X105463747Y-93714286D01*
X105463747Y-93714286D02*
X105320890Y-93714286D01*
X105320890Y-93714286D02*
X105130414Y-93761905D01*
X105130414Y-93761905D02*
X105035176Y-93809524D01*
X105035176Y-93809524D02*
X104939938Y-93904762D01*
X104939938Y-93904762D02*
X104892319Y-94047619D01*
X104892319Y-94047619D02*
X104892319Y-94142857D01*
X104892319Y-94142857D02*
X104939938Y-94285714D01*
X104939938Y-94285714D02*
X104987557Y-94333333D01*
X104892319Y-95190476D02*
X104892319Y-95000000D01*
X104892319Y-95000000D02*
X104939938Y-94904762D01*
X104939938Y-94904762D02*
X104987557Y-94857143D01*
X104987557Y-94857143D02*
X105130414Y-94761905D01*
X105130414Y-94761905D02*
X105320890Y-94714286D01*
X105320890Y-94714286D02*
X105701842Y-94714286D01*
X105701842Y-94714286D02*
X105797080Y-94761905D01*
X105797080Y-94761905D02*
X105844700Y-94809524D01*
X105844700Y-94809524D02*
X105892319Y-94904762D01*
X105892319Y-94904762D02*
X105892319Y-95095238D01*
X105892319Y-95095238D02*
X105844700Y-95190476D01*
X105844700Y-95190476D02*
X105797080Y-95238095D01*
X105797080Y-95238095D02*
X105701842Y-95285714D01*
X105701842Y-95285714D02*
X105463747Y-95285714D01*
X105463747Y-95285714D02*
X105368509Y-95238095D01*
X105368509Y-95238095D02*
X105320890Y-95190476D01*
X105320890Y-95190476D02*
X105273271Y-95095238D01*
X105273271Y-95095238D02*
X105273271Y-94904762D01*
X105273271Y-94904762D02*
X105320890Y-94809524D01*
X105320890Y-94809524D02*
X105368509Y-94761905D01*
X105368509Y-94761905D02*
X105463747Y-94714286D01*
X135409580Y-77833333D02*
X135457200Y-77785714D01*
X135457200Y-77785714D02*
X135504819Y-77642857D01*
X135504819Y-77642857D02*
X135504819Y-77547619D01*
X135504819Y-77547619D02*
X135457200Y-77404762D01*
X135457200Y-77404762D02*
X135361961Y-77309524D01*
X135361961Y-77309524D02*
X135266723Y-77261905D01*
X135266723Y-77261905D02*
X135076247Y-77214286D01*
X135076247Y-77214286D02*
X134933390Y-77214286D01*
X134933390Y-77214286D02*
X134742914Y-77261905D01*
X134742914Y-77261905D02*
X134647676Y-77309524D01*
X134647676Y-77309524D02*
X134552438Y-77404762D01*
X134552438Y-77404762D02*
X134504819Y-77547619D01*
X134504819Y-77547619D02*
X134504819Y-77642857D01*
X134504819Y-77642857D02*
X134552438Y-77785714D01*
X134552438Y-77785714D02*
X134600057Y-77833333D01*
X134504819Y-78166667D02*
X134504819Y-78833333D01*
X134504819Y-78833333D02*
X135504819Y-78404762D01*
X113492857Y-97004819D02*
X113826190Y-96528628D01*
X114064285Y-97004819D02*
X114064285Y-96004819D01*
X114064285Y-96004819D02*
X113683333Y-96004819D01*
X113683333Y-96004819D02*
X113588095Y-96052438D01*
X113588095Y-96052438D02*
X113540476Y-96100057D01*
X113540476Y-96100057D02*
X113492857Y-96195295D01*
X113492857Y-96195295D02*
X113492857Y-96338152D01*
X113492857Y-96338152D02*
X113540476Y-96433390D01*
X113540476Y-96433390D02*
X113588095Y-96481009D01*
X113588095Y-96481009D02*
X113683333Y-96528628D01*
X113683333Y-96528628D02*
X114064285Y-96528628D01*
X112540476Y-97004819D02*
X113111904Y-97004819D01*
X112826190Y-97004819D02*
X112826190Y-96004819D01*
X112826190Y-96004819D02*
X112921428Y-96147676D01*
X112921428Y-96147676D02*
X113016666Y-96242914D01*
X113016666Y-96242914D02*
X113111904Y-96290533D01*
X111635714Y-96004819D02*
X112111904Y-96004819D01*
X112111904Y-96004819D02*
X112159523Y-96481009D01*
X112159523Y-96481009D02*
X112111904Y-96433390D01*
X112111904Y-96433390D02*
X112016666Y-96385771D01*
X112016666Y-96385771D02*
X111778571Y-96385771D01*
X111778571Y-96385771D02*
X111683333Y-96433390D01*
X111683333Y-96433390D02*
X111635714Y-96481009D01*
X111635714Y-96481009D02*
X111588095Y-96576247D01*
X111588095Y-96576247D02*
X111588095Y-96814342D01*
X111588095Y-96814342D02*
X111635714Y-96909580D01*
X111635714Y-96909580D02*
X111683333Y-96957200D01*
X111683333Y-96957200D02*
X111778571Y-97004819D01*
X111778571Y-97004819D02*
X112016666Y-97004819D01*
X112016666Y-97004819D02*
X112111904Y-96957200D01*
X112111904Y-96957200D02*
X112159523Y-96909580D01*
X106454819Y-80133333D02*
X105978628Y-79800000D01*
X106454819Y-79561905D02*
X105454819Y-79561905D01*
X105454819Y-79561905D02*
X105454819Y-79942857D01*
X105454819Y-79942857D02*
X105502438Y-80038095D01*
X105502438Y-80038095D02*
X105550057Y-80085714D01*
X105550057Y-80085714D02*
X105645295Y-80133333D01*
X105645295Y-80133333D02*
X105788152Y-80133333D01*
X105788152Y-80133333D02*
X105883390Y-80085714D01*
X105883390Y-80085714D02*
X105931009Y-80038095D01*
X105931009Y-80038095D02*
X105978628Y-79942857D01*
X105978628Y-79942857D02*
X105978628Y-79561905D01*
X105883390Y-80704762D02*
X105835771Y-80609524D01*
X105835771Y-80609524D02*
X105788152Y-80561905D01*
X105788152Y-80561905D02*
X105692914Y-80514286D01*
X105692914Y-80514286D02*
X105645295Y-80514286D01*
X105645295Y-80514286D02*
X105550057Y-80561905D01*
X105550057Y-80561905D02*
X105502438Y-80609524D01*
X105502438Y-80609524D02*
X105454819Y-80704762D01*
X105454819Y-80704762D02*
X105454819Y-80895238D01*
X105454819Y-80895238D02*
X105502438Y-80990476D01*
X105502438Y-80990476D02*
X105550057Y-81038095D01*
X105550057Y-81038095D02*
X105645295Y-81085714D01*
X105645295Y-81085714D02*
X105692914Y-81085714D01*
X105692914Y-81085714D02*
X105788152Y-81038095D01*
X105788152Y-81038095D02*
X105835771Y-80990476D01*
X105835771Y-80990476D02*
X105883390Y-80895238D01*
X105883390Y-80895238D02*
X105883390Y-80704762D01*
X105883390Y-80704762D02*
X105931009Y-80609524D01*
X105931009Y-80609524D02*
X105978628Y-80561905D01*
X105978628Y-80561905D02*
X106073866Y-80514286D01*
X106073866Y-80514286D02*
X106264342Y-80514286D01*
X106264342Y-80514286D02*
X106359580Y-80561905D01*
X106359580Y-80561905D02*
X106407200Y-80609524D01*
X106407200Y-80609524D02*
X106454819Y-80704762D01*
X106454819Y-80704762D02*
X106454819Y-80895238D01*
X106454819Y-80895238D02*
X106407200Y-80990476D01*
X106407200Y-80990476D02*
X106359580Y-81038095D01*
X106359580Y-81038095D02*
X106264342Y-81085714D01*
X106264342Y-81085714D02*
X106073866Y-81085714D01*
X106073866Y-81085714D02*
X105978628Y-81038095D01*
X105978628Y-81038095D02*
X105931009Y-80990476D01*
X105931009Y-80990476D02*
X105883390Y-80895238D01*
D11*
X133031228Y-80523809D02*
X133507419Y-80523809D01*
X132507419Y-80190476D02*
X133031228Y-80523809D01*
X133031228Y-80523809D02*
X132507419Y-80857142D01*
X133507419Y-81714285D02*
X133507419Y-81142857D01*
X133507419Y-81428571D02*
X132507419Y-81428571D01*
X132507419Y-81428571D02*
X132650276Y-81333333D01*
X132650276Y-81333333D02*
X132745514Y-81238095D01*
X132745514Y-81238095D02*
X132793133Y-81142857D01*
D12*
%TO.C,C2*%
X107310000Y-104146267D02*
X107310000Y-103853733D01*
X106290000Y-104146267D02*
X106290000Y-103853733D01*
%TO.C,C1*%
X97310000Y-104146267D02*
X97310000Y-103853733D01*
X96290000Y-104146267D02*
X96290000Y-103853733D01*
%TO.C,R4*%
X108210000Y-109727064D02*
X108210000Y-108272936D01*
X106390000Y-109727064D02*
X106390000Y-108272936D01*
%TO.C,C8*%
X132196267Y-84260000D02*
X131903733Y-84260000D01*
X132196267Y-83240000D02*
X131903733Y-83240000D01*
%TO.C,R14*%
X113627064Y-102210000D02*
X112172936Y-102210000D01*
X113627064Y-100390000D02*
X112172936Y-100390000D01*
%TO.C,C4*%
X133535000Y-72238748D02*
X133535000Y-72761252D01*
X132065000Y-72238748D02*
X132065000Y-72761252D01*
%TO.C,R10*%
X107710000Y-85272936D02*
X107710000Y-86727064D01*
X105890000Y-85272936D02*
X105890000Y-86727064D01*
%TO.C,C9*%
X124060000Y-96603733D02*
X124060000Y-96896267D01*
X123040000Y-96603733D02*
X123040000Y-96896267D01*
%TO.C,R7*%
X102210000Y-80977064D02*
X102210000Y-79522936D01*
X100390000Y-80977064D02*
X100390000Y-79522936D01*
%TO.C,U4*%
X129400000Y-70475000D02*
X128900000Y-70475000D01*
X128900000Y-69975000D01*
X129400000Y-70475000D01*
G36*
X129400000Y-70475000D02*
G01*
X128900000Y-70475000D01*
X128900000Y-69975000D01*
X129400000Y-70475000D01*
G37*
X128900000Y-89450000D02*
X128900000Y-88450000D01*
X127400000Y-89450000D02*
X128900000Y-89450000D01*
X112000000Y-89450000D02*
X110500000Y-89450000D01*
X110500000Y-88450000D02*
X110500000Y-89450000D01*
%TO.C,R6*%
X100460000Y-97522936D02*
X100460000Y-98977064D01*
X98640000Y-97522936D02*
X98640000Y-98977064D01*
%TO.C,R2*%
X93210000Y-80722936D02*
X93210000Y-82177064D01*
X91390000Y-80722936D02*
X91390000Y-82177064D01*
%TO.C,R11*%
X132322936Y-89410000D02*
X133777064Y-89410000D01*
X132322936Y-87590000D02*
X133777064Y-87590000D01*
%TO.C,R12*%
X121710000Y-96727064D02*
X121710000Y-95272936D01*
X119890000Y-96727064D02*
X119890000Y-95272936D01*
%TO.C,R13*%
X113577064Y-105710000D02*
X112122936Y-105710000D01*
X113577064Y-103890000D02*
X112122936Y-103890000D01*
%TO.C,U3*%
X104525000Y-102535000D02*
X104285000Y-102205000D01*
X104765000Y-102205000D01*
X104525000Y-102535000D01*
G36*
X104525000Y-102535000D02*
G01*
X104285000Y-102205000D01*
X104765000Y-102205000D01*
X104525000Y-102535000D01*
G37*
X103800000Y-107610000D02*
X101800000Y-107610000D01*
X103800000Y-102390000D02*
X101800000Y-102390000D01*
X99800000Y-107610000D02*
X101800000Y-107610000D01*
X99800000Y-102390000D02*
X101800000Y-102390000D01*
%TO.C,C10*%
X127583767Y-94510000D02*
X127291233Y-94510000D01*
X127583767Y-93490000D02*
X127291233Y-93490000D01*
%TO.C,C3*%
X91576248Y-86735000D02*
X92098752Y-86735000D01*
X91576248Y-85265000D02*
X92098752Y-85265000D01*
%TO.C,J4*%
X154470000Y-88725000D02*
X154470000Y-91035000D01*
X154470000Y-81635000D02*
X154470000Y-79775000D01*
X154270000Y-91495000D02*
X154270000Y-91235000D01*
X154270000Y-91235000D02*
X154470000Y-91035000D01*
X154270000Y-81845000D02*
X154470000Y-81635000D01*
X154270000Y-81845000D02*
X154120000Y-81845000D01*
X154270000Y-79575000D02*
X154470000Y-79775000D01*
X154120000Y-88215000D02*
X154470000Y-88725000D01*
X154120000Y-88215000D02*
X154120000Y-81845000D01*
X152210000Y-92715000D02*
X138200000Y-92715000D01*
X151310000Y-78745000D02*
X149510000Y-78745000D01*
X148210000Y-78745000D02*
X143510000Y-78745000D01*
X141810000Y-78745000D02*
X138200000Y-78745000D01*
X138200000Y-92715000D02*
X138200000Y-90795000D01*
X138200000Y-78745000D02*
X138200000Y-79195000D01*
%TO.C,U2*%
X103537500Y-84527500D02*
X103297500Y-84197500D01*
X103777500Y-84197500D01*
X103537500Y-84527500D01*
G36*
X103537500Y-84527500D02*
G01*
X103297500Y-84197500D01*
X103777500Y-84197500D01*
X103537500Y-84527500D01*
G37*
D10*
X102975000Y-91257500D02*
X102975000Y-92367500D01*
X102975000Y-83417500D02*
X102975000Y-84527500D01*
X98825000Y-92367500D02*
X102975000Y-92367500D01*
X98825000Y-91257500D02*
X98825000Y-92367500D01*
X98825000Y-84527500D02*
X98825000Y-83417500D01*
X98825000Y-83417500D02*
X102975000Y-83417500D01*
D12*
%TO.C,R5*%
X103210000Y-98272936D02*
X103210000Y-99727064D01*
X101390000Y-98272936D02*
X101390000Y-99727064D01*
%TO.C,R1*%
X93210000Y-90727064D02*
X93210000Y-89272936D01*
X91390000Y-90727064D02*
X91390000Y-89272936D01*
%TO.C,R3*%
X102577064Y-75160000D02*
X101122936Y-75160000D01*
X102577064Y-73340000D02*
X101122936Y-73340000D01*
%TO.C,C5*%
X131060000Y-71991233D02*
X131060000Y-72283767D01*
X130040000Y-71991233D02*
X130040000Y-72283767D01*
%TO.C,R9*%
X106522936Y-92910000D02*
X107977064Y-92910000D01*
X106522936Y-91090000D02*
X107977064Y-91090000D01*
%TO.C,C6*%
X107791233Y-95010000D02*
X108083767Y-95010000D01*
X107791233Y-93990000D02*
X108083767Y-93990000D01*
%TO.C,C7*%
X132446267Y-78760000D02*
X132153733Y-78760000D01*
X132446267Y-77740000D02*
X132153733Y-77740000D01*
%TO.C,R15*%
X113627064Y-99460000D02*
X112172936Y-99460000D01*
X113627064Y-97640000D02*
X112172936Y-97640000D01*
%TO.C,R8*%
X104960000Y-80977064D02*
X104960000Y-79522936D01*
X103140000Y-80977064D02*
X103140000Y-79522936D01*
D11*
%TO.C,Y1*%
X132300000Y-82000000D02*
X130300000Y-82000000D01*
X132300000Y-79700000D02*
X132300000Y-82000000D01*
X130300000Y-82000000D02*
X130300000Y-79700000D01*
X130300000Y-79700000D02*
X132300000Y-79700000D01*
%TD*%
M02*
